<svg version="1.1" xmlns="http://www.w3.org/2000/svg" xmlns:xlink="http://www.w3.org/1999/xlink" width="1824" height="1180"><desc>%0A%0Aactor%20Staff%0Aboundary%20StaffUI%0Acontrol%20ManagementSystem%0Aparticipant%20Cinema%0Aparticipant%20ScreeningMapper%0Aparticipant%20ScreenMapper%0Aparticipant%20MovieMapper%0Adatabase%20db%0Aentity%20PersistentScreening%0A%0AStaff-%3EStaffUI%3Asubmit(date%20%3A%20LocalDate)%0Aactivate%20StaffUI%0AStaffUI-%3EManagementSystem%3AsetDate(date%20%3A%20LocalDate)%0Aactivate%20ManagementSystem%0A%0AManagementSystem-%3ECinema%3AgetScreenings(date%20%3A%20LocalDate)%0Aactivate%20Cinema%0A%0ACinema-%3EScreeningMapper%3AgetScreenings(date%20%3A%20LocalDate)%0Aactivate%20ScreeningMapper%0AScreeningMapper-%3Edb%3AexecuteQuery(sql%20%3A%20String)%0A%0Aloop%20for%20every%20row%20returned%20for%20reservations%0AScreeningMapper-%3EScreenMapper%3As%20%3A%3D%20getScreenforOid(screen%20%3A%20Integer)%0AScreeningMapper-%3EMovieMapper%3Am%20%3A%3D%20getMovieForOid(movie%20%3A%20Integer)%0AScreeningMapper-%3E*PersistentScreening%3APersistentScreening(oid%20%3A%20Integer%2C%20date%20%3A%20LocalDate%2C%20s%20%3A%20Screen%2C%20m%20%3A%20Movie%2C%20stime%20%3A%20LocalTime)%0Aactivate%20PersistentScreening%0APersistentScreening--%3EScreeningMapper%3A%0Adeactivate%20PersistentScreening%0Aend%0A%0AScreeningMapper--%3ECinema%3Areturn%20screenings%0Adeactivate%20ScreeningMapper%0A%0A%0ACinema--%3EManagementSystem%3Areturn%20screenings%0Adeactivate%20Cinema%0A%0AManagementSystem-%3EManagementSystem%3AnotifyObservers()%0Aactivate%20ManagementSystem%0A%0AManagementSystem-%3EStaffUI%3Aupdate()%0Aactivate%20StaffUI%0AStaffUI-%3EManagementSystem%3AgetDate()%0Aactivate%20ManagementSystem%0AManagementSystem--%3EStaffUI%3Areturn%20date%0Adeactivate%20ManagementSystem%0A%0AStaffUI-%3EManagementSystem%3AgetScreenings()%0Aactivate%20ManagementSystem%0AManagementSystem--%3EStaffUI%3Areturn%20screenings%0Adeactivate%20ManagementSystem%0A%0AStaffUI--%3EManagementSystem%3A%0Adeactivate%20StaffUI%0A%0AManagementSystem--%3EManagementSystem%3A%0A%0Adeactivate%20ManagementSystem%0AManagementSystem--%3EStaffUI%3A%0Adeactivate%20ManagementSystem%0AStaffUI--%3EStaff%3A%0Adeactivate%20StaffUI</desc><defs/><g><g/><g/><g/><g/><g/><g/><g/><g/><g/><g/><g/><g/><g/><g/><g/><g/><g/><g/><g/><g/><g/><g><rect fill="white" stroke="none" x="0" y="0" width="1824" height="1180"/></g><g/><g><path fill="none" stroke="black" paint-order="fill stroke markers" d=" M 21.94324763466797 82.027851648 L 21.94324763466797 1180.8994907471997" stroke-miterlimit="10" stroke-width="1.2565541" stroke-dasharray="11.598960923076923,5.0262164"/><path fill="none" stroke="black" paint-order="fill stroke markers" d=" M 224.7640197432617 82.027851648 L 224.7640197432617 1180.8994907471997" stroke-miterlimit="10" stroke-width="1.2565541" stroke-dasharray="11.598960923076923,5.0262164"/><path fill="none" stroke="black" paint-order="fill stroke markers" d=" M 447.4018138545898 82.027851648 L 447.4018138545898 1180.8994907471997" stroke-miterlimit="10" stroke-width="1.2565541" stroke-dasharray="11.598960923076923,5.0262164"/><path fill="none" stroke="black" paint-order="fill stroke markers" d=" M 719.0724018041992 82.027851648 L 719.0724018041992 1180.8994907471997" stroke-miterlimit="10" stroke-width="1.2565541" stroke-dasharray="11.598960923076923,5.0262164"/><path fill="none" stroke="black" paint-order="fill stroke markers" d=" M 975.6643405538086 82.027851648 L 975.6643405538086 1180.8994907471997" stroke-miterlimit="10" stroke-width="1.2565541" stroke-dasharray="11.598960923076923,5.0262164"/><path fill="none" stroke="black" paint-order="fill stroke markers" d=" M 1262.194493765918 82.027851648 L 1262.194493765918 1180.8994907471997" stroke-miterlimit="10" stroke-width="1.2565541" stroke-dasharray="11.598960923076923,5.0262164"/><path fill="none" stroke="black" paint-order="fill stroke markers" d=" M 1403.5612383332032 82.027851648 L 1403.5612383332032 1180.8994907471997" stroke-miterlimit="10" stroke-width="1.2565541" stroke-dasharray="11.598960923076923,5.0262164"/><path fill="none" stroke="black" paint-order="fill stroke markers" d=" M 1509.9965248318047 82.027851648 L 1509.9965248318047 1180.8994907471997" stroke-miterlimit="10" stroke-width="1.2565541" stroke-dasharray="11.598960923076923,5.0262164"/><path fill="none" stroke="black" paint-order="fill stroke markers" d=" M 1731.874232427328 517.4389259472 L 1731.874232427328 1180.8994907471997" stroke-miterlimit="10" stroke-width="1.2565541" stroke-dasharray="11.598960923076923,5.0262164"/></g><g><g><path fill="white" stroke="black" paint-order="fill stroke markers" d=" M 30.538077678667968 18.245165531999987 A 8.594830044 8.594830044 0 1 1 30.538073381253305 18.236570703388455 M 21.94324763466797 26.83999557599999 L 21.94324763466797 45.23594759999999 M 11.086620210667968 33.47460122399999 L 32.79987505866797 33.47460122399999 M 21.94324763466797 45.23594759999999 L 11.086620210667968 62.42560768799999 M 21.94324763466797 45.23594759999999 L 32.79987505866797 62.42560768799999" stroke-miterlimit="10" stroke-width="2.5633703640000003" stroke-dasharray=""/></g><g><g/><text fill="black" stroke="none" font-family="sans-serif" font-size="10pt" font-style="normal" font-weight="normal" text-decoration="normal" x="7.5393246000000005" y="77.504256888" text-anchor="start" dominant-baseline="alphabetic" xml:space="preserve">Staff</text></g><g><path fill="white" stroke="black" paint-order="fill stroke markers" d=" M 254.6951384052617 38.75212844399999 A 22.391794062000002 22.391794062000002 0 1 1 254.6951272093656 38.729736653669946 M 196.11458626326169 15.07864919999999 L 196.11458626326169 62.42560768799999 M 194.8329010812617 38.75212844399999 L 209.91155028126173 38.75212844399999" stroke-miterlimit="10" stroke-width="2.5633703640000003" stroke-dasharray=""/></g><g><g/><text fill="black" stroke="none" font-family="sans-serif" font-size="10pt" font-style="normal" font-weight="normal" text-decoration="normal" x="203.42498470908203" y="77.504256888" text-anchor="start" dominant-baseline="alphabetic" xml:space="preserve">StaffUI</text></g><g><path fill="white" stroke="black" paint-order="fill stroke markers" d=" M 469.79360791658985 38.75212844399999 A 22.391794062000002 22.391794062000002 0 1 1 469.7935967206937 38.729736653669946 M 444.3860840145898 16.36033438199999 L 453.43327353458983 8.82100978199999 M 444.3860840145898 16.36033438199999 L 453.43327353458983 23.89965898199999" stroke-miterlimit="10" stroke-width="2.5633703640000003" stroke-dasharray=""/></g><g><g/><text fill="black" stroke="none" font-family="sans-serif" font-size="10pt" font-style="normal" font-weight="normal" text-decoration="normal" x="382.0048411983398" y="77.504256888" text-anchor="start" dominant-baseline="alphabetic" xml:space="preserve">ManagementSystem</text></g><path fill="none" stroke="none"/><g><path fill="white" stroke="black" paint-order="fill stroke markers" d=" M 678.6621177762031 41.315498807999994 L 759.4826858321953 41.315498807999994 L 759.4826858321953 82.027851648 L 678.6621177762031 82.027851648 L 678.6621177762031 41.315498807999994 Z" stroke-miterlimit="10" stroke-width="2.4125838720000004" stroke-dasharray=""/></g><g><g/><text fill="black" stroke="none" font-family="sans-serif" font-size="10pt" font-style="normal" font-weight="normal" text-decoration="normal" x="695.0224521582031" y="66.94920244800001" text-anchor="start" dominant-baseline="alphabetic" xml:space="preserve">Cinema</text></g><path fill="none" stroke="none"/><g><path fill="white" stroke="black" paint-order="fill stroke markers" d=" M 902.8143058544258 41.315498807999994 L 1048.5143752531915 41.315498807999994 L 1048.5143752531915 82.027851648 L 902.8143058544258 82.027851648 L 902.8143058544258 41.315498807999994 Z" stroke-miterlimit="10" stroke-width="2.4125838720000004" stroke-dasharray=""/></g><g><g/><text fill="black" stroke="none" font-family="sans-serif" font-size="10pt" font-style="normal" font-weight="normal" text-decoration="normal" x="919.1746402364258" y="66.94920244800001" text-anchor="start" dominant-baseline="alphabetic" xml:space="preserve">ScreeningMapper</text></g><path fill="none" stroke="none"/><g><path fill="white" stroke="black" paint-order="fill stroke markers" d=" M 1199.4883952237617 41.315498807999994 L 1324.9005923080742 41.315498807999994 L 1324.9005923080742 82.027851648 L 1199.4883952237617 82.027851648 L 1199.4883952237617 41.315498807999994 Z" stroke-miterlimit="10" stroke-width="2.4125838720000004" stroke-dasharray=""/></g><g><g/><text fill="black" stroke="none" font-family="sans-serif" font-size="10pt" font-style="normal" font-weight="normal" text-decoration="normal" x="1215.8487296057617" y="66.94920244800001" text-anchor="start" dominant-baseline="alphabetic" xml:space="preserve">ScreenMapper</text></g><path fill="none" stroke="none"/><g><path fill="white" stroke="black" paint-order="fill stroke markers" d=" M 1342.3618994346016 41.315498807999994 L 1464.7605772318047 41.315498807999994 L 1464.7605772318047 82.027851648 L 1342.3618994346016 82.027851648 L 1342.3618994346016 41.315498807999994 Z" stroke-miterlimit="10" stroke-width="2.4125838720000004" stroke-dasharray=""/></g><g><g/><text fill="black" stroke="none" font-family="sans-serif" font-size="10pt" font-style="normal" font-weight="normal" text-decoration="normal" x="1358.7222338166016" y="66.94920244800001" text-anchor="start" dominant-baseline="alphabetic" xml:space="preserve">MovieMapper</text></g><g><path fill="white" stroke="black" paint-order="fill stroke markers" d=" M 1487.9816969998046 52.47369921599999 L 1487.9816969998046 20.808535895999988 L 1532.0113526638047 20.808535895999988 L 1532.0113526638047 52.47369921599999" stroke-miterlimit="10" stroke-width="2.5633703640000003" stroke-dasharray=""/><path fill="white" stroke="black" paint-order="fill stroke markers" d=" M 1532.0113526638047 19.70779450439999 L 1532.0102519315858 19.80731193047687 L 1532.0069498450018 19.906819404894073 L 1532.0014467342585 20.006306976987084 L 1531.9937431496621 20.105764698081593 L 1531.983839861565 20.205182622488373 L 1531.9717378602877 20.304550808497837 L 1531.95743835602 20.403859319374185 L 1531.9409427787007 20.503098224349085 L 1531.9222527778736 20.60225759961474 L 1531.9013702225234 20.701327529316263 L 1531.8782972008878 20.800298106543234 L 1531.8530360202503 20.899159434320406 L 1531.8255892067077 20.997901626597386 L 1531.7959595049183 21.09651480923723 L 1531.7641498778278 21.194989121003857 L 1531.7301635063723 21.29331471454815 L 1531.6940037891604 21.391481757392686 L 1531.6556743421343 21.489480432914995 L 1531.6151789982061 21.587300941329183 L 1531.572521806877 21.684933500665927 L 1531.5277070338302 21.78236834775066 L 1531.480739160506 21.87959573917986 L 1531.4316228836522 21.976605952295408 L 1531.3803631148558 22.07338928615684 L 1531.3269649800507 22.169936062511418 L 1531.2714338190062 22.266236626761962 L 1531.213775184792 22.3622813489323 L 1531.1539948432235 22.45806062463025 L 1531.0920987722852 22.553564876008053 L 1531.0280931615323 22.648784552720166 L 1530.9619844114725 22.743710132878263 L 1530.893779132926 22.838332124003433 L 1530.8234841463639 22.932641063975417 L 1530.7511064812259 23.026627521978806 L 1530.6766533752184 23.120282099446122 L 1530.6001322735901 23.213595430997664 L 1530.521550828387 23.306558185378034 L 1530.4409168976886 23.39916106638927 L 1530.3582385448203 23.491394813820435 L 1530.273524037549 23.583250204373645 L 1530.1867818472545 23.674718052586396 L 1530.0980206480835 23.765789211750086 L 1530.0072493160822 23.856454574824692 L 1529.9144769283077 23.94670507534946 L 1529.8197127619221 24.036531688349548 L 1529.7229662932627 24.12592543123851 L 1529.6242471968958 24.21487736471655 L 1529.5235653446487 24.303378593664448 L 1529.420930804623 24.391420268033063 L 1529.3163538401866 24.47899358372832 L 1529.2098449089494 24.566089783491634 L 1529.1014146617156 24.6527001577756 L 1528.9910739414195 24.738816045614975 L 1528.878833782041 24.82442883549273 L 1528.7647054075028 24.909529966201223 L 1528.648700230547 24.9941109276983 L 1528.530829851595 25.078163261958295 L 1528.411106057586 25.16167856381783 L 1528.2895408207999 25.24464848181631 L 1528.166146297659 25.32706471903108 L 1528.040934827513 25.408919033907093 L 1527.9139189314042 25.490203241081076 L 1527.7851113108165 25.570909212200053 L 1527.654524846405 25.65102887673416 L 1527.5221725967067 25.730554222783713 L 1527.3880677968366 25.809477297880377 L 1527.252223857163 25.887790209782413 L 1527.1146543619666 25.96548512726389 L 1526.975373068082 26.042554280897804 L 1526.834393903523 26.118989963833016 L 1526.6917309660882 26.19478453256493 L 1526.5473985219528 26.269930407699835 L 1526.4014110042406 26.344420074712843 L 1526.2537830115816 26.418246084699316 L 1526.1045293066527 26.491401055119788 L 1525.9536648146993 26.563877670538172 L 1525.8012046220454 26.635668683353323 L 1525.647163974583 26.706766914523794 L 1525.4915582762483 26.777165254285705 L 1525.3344030874819 26.846856662863757 L 1525.1757141236712 26.915834171175156 L 1525.0155072535806 26.98409088152656 L 1524.8537984977638 27.051619968303807 L 1524.6906040269612 27.1184146786545 L 1524.5259401604842 27.184468333163263 L 1524.3598233645823 27.24977432651969 L 1524.1922702507964 27.31432612817887 L 1524.023297574298 27.378117283014426 L 1523.8529222322147 27.441141411964036 L 1523.6811612619383 27.503392212667322 L 1523.5080318394225 27.564863460096092 L 1523.3335512774659 27.62554900717683 L 1523.1577370239784 27.685442785405392 L 1522.9806066602396 27.744538805453878 L 1522.8021778991379 27.802831157769518 L 1522.6224685834009 27.860314013165663 L 1522.44149668381 27.916981623404677 L 1522.259280297405 27.972828321772756 L 1522.0758376456724 28.027848523646604 L 1521.8911870727243 28.08203672705188 L 1521.7053470434644 28.135387513213406 L 1521.5183361417405 28.18789554709702 L 1521.3301730684873 28.239555577943094 L 1521.140876639855 28.290362439791586 L 1520.9504657853288 28.340311051998658 L 1520.7589595458355 28.389396419744706 L 1520.5663770718395 28.437613634533868 L 1520.3727376214276 28.48495787468484 L 1520.1780605583838 28.531424405813063 L 1519.9823653502517 28.577008581304145 L 1519.7856715663893 28.621705842778525 L 1519.5879988760112 28.6655117205473 L 1519.3893670462212 28.7084218340592 L 1519.1897959400374 28.750431892338632 L 1518.9893055144037 28.791537694414775 L 1518.7879158181956 28.831735129741677 L 1518.585646990215 28.871020178609307 L 1518.3825192571765 28.90938891254551 L 1518.1785529316835 28.946837494708866 L 1517.9737684101988 28.98336218027237 L 1517.768186171004 29.018959316797897 L 1517.5618267721516 29.053625344601468 L 1517.3547108494095 29.087356797109184 L 1517.1468591141977 29.120150301203903 L 1516.9382923515159 29.15200257756255 L 1516.7290314178672 29.18291044098402 L 1516.5190972391702 29.21287080070774 L 1516.308510808668 29.2418806607227 L 1516.097293184828 29.26993712006707 L 1515.8854654892366 29.2970373731183 L 1515.673048904487 29.32317870987367 L 1515.4600646720605 29.348358516221282 L 1515.2465340902029 29.372574274201494 L 1515.0324785117944 29.395823562258677 L 1514.8179193422147 29.418104055483408 L 1514.6028780372017 29.439413525844927 L 1514.3873761007067 29.459749842413956 L 1514.1714350827438 29.479110971575786 L 1513.9550765772349 29.497494977233636 L 1513.7383222198505 29.514900021002262 L 1513.5211936858452 29.531324362391786 L 1513.3037126878917 29.546766358981756 L 1513.0859009739086 29.561224466585386 L 1512.8677803248859 29.57469723940396 L 1512.6493725527064 29.587183330171428 L 1512.4306994979656 29.598681490289113 L 1512.2117830277866 29.60919056995059 L 1511.9926450336343 29.618709518256644 L 1511.773307429125 29.627237383320384 L 1511.5537921478365 29.634773312362405 L 1511.3341211411143 29.641316551796088 L 1511.114316375876 29.646866447302934 L 1510.8943998324144 29.651422443898024 L 1510.6743935022012 29.654984085985493 L 1510.4543193856857 29.657551017404103 L 1510.2341994900964 29.659122981462843 L 1510.0140558272394 29.65969982096663 L 1509.7939104112975 29.659281478231982 L 1509.5737852566288 29.65786799509283 L 1509.353702375565 29.655459512896307 L 1509.1336837762115 29.652056272488633 L 1508.9137514602444 29.647658614191002 L 1508.6939274207123 29.642266977765587 L 1508.4742336398356 29.635881902371537 L 1508.2546920868097 29.628504026511067 L 1508.0353247156065 29.620134087965614 L 1507.816153462781 29.61077292372206 L 1507.597200245275 29.600421469889028 L 1507.3784869582285 29.589080761603277 L 1507.1600354727875 29.576751932926186 L 1506.9418676339187 29.563436216730345 L 1506.7240052582242 29.549134944576274 L 1506.5064701317601 29.533849546579276 L 1506.2892840078575 29.517581551266417 L 1506.072468604948 29.500332585423664 L 1505.856045604391 29.482104373933225 L 1505.6400366483065 29.462898739601073 L 1505.4244633374099 29.442717602974618 L 1505.2093472288527 29.421562982150718 L 1504.9947098340665 29.399436992573825 L 1504.780572616612 29.376341846824456 L 1504.5669569900324 29.352279854397942 L 1504.353884315712 29.32725342147347 L 1504.1413759007414 29.30126505067348 L 1503.9294529957847 29.274317340813393 L 1503.7181367929554 29.246412986641744 L 1503.5074484236982 29.217554778570687 L 1503.2974089566742 29.187745602396994 L 1503.0880393956552 29.156988439013432 L 1502.8793606774227 29.125286364110707 L 1502.6713936696747 29.0926425478699 L 1502.4641591689387 29.059060254645424 L 1502.2576778984921 29.024542842638617 L 1502.0519705062898 28.989093763561918 L 1501.8470575628994 28.952716562293695 L 1501.6429595594448 28.915414876523762 L 1501.4396969055563 28.8771924363896 L 1501.2372899273296 28.838053064103384 L 1501.035758865294 28.798000673569717 L 1500.8351238723878 28.757039269994287 L 1500.6354050119432 28.715172949483303 L 1500.4366222556796 28.67240589863394 L 1500.238795481707 28.628742394115633 L 1500.041944472538 28.584186802242456 L 1499.8460889131095 28.53874357853646 L 1499.651248388814 28.492417267282157 L 1499.457442383542 28.445212501072056 L 1499.2646902777324 28.39713400034345 L 1499.073011346435 28.348186572906336 L 1498.882424757383 28.298375113462676 L 1498.6929495690767 28.2477046031169 L 1498.5046047288772 28.196180108877826 L 1498.3174090711116 28.14380678315193 L 1498.1313813151892 28.09058986322815 L 1497.9465400637312 28.036534670754122 L 1497.762903800708 27.981646611204056 L 1497.5804908895934 27.925931173338164 L 1497.3993195715266 27.8693939286538 L 1497.219407963488 27.812040530828323 L 1497.0407740564885 27.75387671515372 L 1496.8634357137705 27.694908297963085 L 1496.6874106690198 27.635141176049 L 1496.5127165245947 27.574581326073854 L 1496.3393707497637 27.513234803972168 L 1496.16739067896 27.45110774434504 L 1495.9967935100472 27.38820635984666 L 1495.8275963026003 27.324536940563053 L 1495.659815976199 27.260105853383095 L 1495.493469308736 27.194919541361813 L 1495.3285729347394 27.12898452307608 L 1495.1651433437094 27.062307391972787 L 1495.0031968784685 26.99489481570948 L 1494.8427497335288 26.9267535354876 L 1494.6838179534707 26.857890365378395 L 1494.52641743134 26.78831219164148 L 1494.3705639070574 26.71802597203626 L 1494.216272965846 26.64703873512611 L 1494.0635600366709 26.575357579575574 L 1493.9124403906978 26.50298967344047 L 1493.7629291397654 26.429942253451106 L 1493.6150412348745 26.35622262428861 L 1493.4687914646918 26.28183815785446 L 1493.324194454073 26.20679629253332 L 1493.1812646625983 26.13110453244918 L 1493.0400163831277 26.054770446714976 L 1492.9004637403718 25.97780166867567 L 1492.7626206894784 25.90020589514493 L 1492.6265010146376 25.821990885635433 L 1492.4921183277036 25.743164461582964 L 1492.3594860668331 25.663734505564232 L 1492.2286174951414 25.583708960508652 L 1492.099525699377 25.50309582890404 L 1491.9722235886118 25.42190317199638 L 1491.8467238929504 25.340139108983703 L 1491.7230391622584 25.25781181620417 L 1491.6011817649055 25.174929526318458 L 1491.4811638865297 25.09150052748648 L 1491.362997528819 25.007533162538603 L 1491.2466945083108 24.923035828141348 L 1491.1322664552104 24.83801697395774 L 1491.0197248122272 24.752485101802343 L 1490.909080833432 24.666448764791102 L 1490.8003455831306 24.57991656648602 L 1490.6935299347572 24.492897160034822 L 1490.588644569788 24.405399247305628 L 1490.4856999766714 24.3174315780168 L 1490.3847064497816 24.229002948861964 L 1490.2856740883867 24.140122202630344 L 1490.1886127956407 24.050798227322492 L 1490.0935322775917 23.96103995526151 L 1490.0004420422124 23.870856362199795 L 1489.9093513984487 23.780256466421513 L 1489.820269455289 23.689249327840734 L 1489.7332051208534 23.597844047095478 L 1489.648167101503 23.50604976463765 L 1489.5651639009686 23.413875659819 L 1489.4842038195013 23.321330949973195 L 1489.4052949530417 23.228424889494107 L 1489.3284451924108 23.13516676891036 L 1489.2536622225202 23.041565913956294 L 1489.180953521605 22.947631684639408 L 1489.1103263604746 22.853373474304348 L 1489.041787801786 22.75880070869361 L 1488.9753446993386 22.66392284500494 L 1488.9110036973866 22.56874937094564 L 1488.8487712299768 22.473289803783803 L 1488.7886535203043 22.377553689396603 L 1488.7306565800895 22.281550601315693 L 1488.6747862089787 22.185290139769883 L 1488.6210479939618 22.08878193072511 L 1488.569447308816 21.99203562492185 L 1488.5199893135668 21.89506089691007 L 1488.4726789539723 21.797867444081753 L 1488.427520961029 21.70046498570119 L 1488.3845198504987 21.60286326193305 L 1488.3436799224567 21.505072032868373 L 1488.3050052608614 21.407101077548578 L 1488.268499733147 21.308960192987552 L 1488.2341669898362 21.21065919319197 L 1488.202010464174 21.112207908179887 L 1488.1720333717867 21.01361618299777 L 1488.1442387103584 20.91489387673597 L 1488.118629259332 20.816050861542852 L 1488.0952075796313 20.717097021637564 L 1488.073976013405 20.618042252321636 L 1488.0549366837915 20.518896458989452 L 1488.0380914947084 20.419669556137723 L 1488.0234421306602 20.320371466374052 L 1488.0109900565715 20.22101211942466 L 1488.0007365176389 20.121601451141444 L 1487.992682539208 20.022149402508393 L 1487.9868289266701 19.922665918647493 L 1487.9831762653812 19.823160947824228 L 1487.9817249206046 19.72364444045276 L 1487.9824750374735 19.62412634810089 L 1487.9854265409767 19.524616622494932 L 1487.9905791359665 19.425125214524513 L 1487.9979323071877 19.32566207324753 L 1488.0074853193294 19.226237144895215 L 1488.0192372170982 19.126860371877555 L 1488.033186825314 19.027541691789036 L 1488.0493327490276 18.928291036414905 L 1488.0676733736605 18.829118330737984 L 1488.0882068651651 18.730033491946205 L 1488.1109311702094 18.63104642844087 L 1488.1358440163822 18.53216703884585 L 1488.162942912419 18.433405211017696 L 1488.1922251484534 18.334770821056892 L 1488.223687796286 18.23627373232024 L 1488.2573277096778 18.13792379443453 L 1488.2931415246662 18.039730842311602 L 1488.3311256598993 17.94170469516483 L 1488.371276316995 17.843855155527244 L 1488.4135894809212 17.74619200827127 L 1488.4580609203967 17.648725019630245 L 1488.5046861883147 17.55146393622181 L 1488.5534606221875 17.45441848407326 L 1488.6043793446117 17.357598367648933 L 1488.6574372637583 17.26101326887979 L 1488.7126290738788 17.164672846195224 L 1488.7699492558388 17.068586733557215 L 1488.8293920776675 16.97276453949696 L 1488.8909515951327 16.87721584615401 L 1488.9546216523333 16.781950208318076 L 1489.0203958823172 16.686977152473556 L 1489.0882677077159 16.59230617584689 L 1489.1582303414036 16.497946745456847 L 1489.2302767871752 16.40390829716783 L 1489.304399840446 16.310200234746315 L 1489.3805920889724 16.216831928920442 L 1489.4588459135934 16.12381271644299 L 1489.5391534889916 16.031151899157692 L 1489.6215067844762 15.938858743069062 L 1489.7058975647865 15.846942477415794 L 1489.7923173909146 15.75541229374786 L 1489.8807576209501 15.66427734500735 L 1489.9712094109436 15.573546744613191 L 1490.0636637157913 15.483229565549816 L 1490.1581112901401 15.393334839459868 L 1490.2545426893112 15.303871555741043 L 1490.3529482702447 15.21484866064716 L 1490.4533181924648 15.126275056393544 L 1490.5556424190631 15.038159600266807 L 1490.659910717702 14.950511103739135 L 1490.7661126616383 14.863338331587139 L 1490.8742376307664 14.77665000101539 L 1490.9842748126796 14.690454780784709 L 1491.096213203751 14.604761290345284 L 1491.210041610235 14.519578098974751 L 1491.3257486493858 14.434913724921262 L 1491.443322750596 14.35077663455167 L 1491.5627521565534 14.267175241504894 L 1491.684024924417 14.184117905850574 L 1491.8071289270106 14.101612933253058 L 1491.9320518540371 14.019668574140859 L 1492.0587812133078 13.938293022881592 L 1492.1873043319922 13.857494416962577 L 1492.3176083578855 13.777280836177074 L 1492.449680260694 13.697660301816313 L 1492.5835068333372 13.618640775867382 L 1492.7190746932695 13.540230160217025 L 1492.8563702838178 13.462436295861469 L 1492.9953798755375 13.385266962122316 L 1493.1360895675853 13.308729875868638 L 1493.278485289109 13.232832690745276 L 1493.4225528006555 13.157582996407495 L 1493.5682776955935 13.082988317762023 L 1493.7156454015549 13.009056114214562 L 1493.864641181892 12.935793778923856 L 1494.015250137151 12.863208638062382 L 1494.1674572065617 12.791307950083738 L 1494.321247169544 12.720098904996807 L 1494.4766046472298 12.649588623646755 L 1494.633514104001 12.579784157002962 L 1494.7919598490425 12.510692485453918 L 1494.9519260379118 12.442320518109204 L 1495.1133966741234 12.374675092108578 L 1495.276355610748 12.307762971938267 L 1495.4407865520282 12.24159084875453 L 1495.6066730550065 12.176165339714544 L 1495.773998531171 12.111492987314687 L 1495.9427462481135 12.04758025873631 L 1496.112899331203 11.984433545199007 L 1496.2844407652728 11.922059161321515 L 1496.4573533963226 11.860463344490238 L 1496.6316199332334 11.799652254235529 L 1496.8072229494965 11.739631971615744 L 1496.984144884957 11.68040849860912 L 1497.1623680475684 11.621987757513612 L 1497.3418746151633 11.564375590354642 L 1497.5226466372342 11.507577758300915 L 1497.7046660367298 11.45159994108831 L 1497.8879146118616 11.396447736451893 L 1498.0723740379249 11.342126659566173 L 1498.258025869131 11.288642142493572 L 1498.4448515404513 11.235999533641222 L 1498.6328323694743 11.184204097226143 L 1498.8219495582737 11.133261012748813 L 1499.0121841952885 11.083175374475228 L 1499.2035172572134 11.033952190927476 L 1499.3959296109015 10.985596384382893 L 1499.589402015278 10.938112790381838 L 1499.7839151232636 10.891506157244143 L 1499.9794494837095 10.845781145594279 L 1500.1759855433427 10.800942327895308 L 1500.3735036487208 10.756994187991637 L 1500.5719840481981 10.713941120660632 L 1500.7714068939003 10.671787431173147 L 1500.9717522437086 10.630537334863003 L 1501.173000063255 10.590194956705458 L 1501.3751302279252 10.550764330904707 L 1501.5781225248716 10.512249400490475 L 1501.7819566550331 10.474654016923703 L 1501.986612235167 10.437981939711422 L 1502.1920687998859 10.40223683603079 L 1502.3983058037038 10.36742228036239 L 1502.605302623093 10.333541754132776 L 1502.8130385585437 10.300598645366339 L 1503.0214928366354 10.2685962483465 L 1503.2306446121142 10.237537763286294 L 1503.4404729699768 10.207426296008347 L 1503.6509569275622 10.17826485763429 L 1503.86207543665 10.15005636428366 L 1504.0738073855653 10.122803636782288 L 1504.2861316012898 10.096509400380212 L 1504.4990268515785 10.071176284479161 L 1504.712471847084 10.046806822369613 L 1504.9264452434847 10.023403450977472 L 1505.140925643619 10.000968510620373 L 1505.3558915996261 9.979504244773658 L 1505.5713216150891 9.959012799846025 L 1505.787194147186 9.939496224964888 L 1506.003487608844 9.920956471771476 L 1506.2201803708963 9.903395394225653 L 1506.437250764248 9.886814748420543 L 1506.6546770820403 9.871216192406907 L 1506.8724375818226 9.85660128602735 L 1507.0905104877268 9.84297149076033 L 1507.3088739926436 9.830328169574015 L 1507.5275062604046 9.81867258678999 L 1507.7463854279652 9.808005907956815 L 1507.965489607591 9.798329199733491 L 1508.1847968890468 9.789643429782771 L 1508.404285341787 9.781949466674417 L 1508.6239330171495 9.775248079798324 L 1508.8437179505497 9.769539939287597 L 1509.0636181636771 9.76482561595153 L 1509.2836116666942 9.761105581218528 L 1509.5036764604336 9.758380207088964 L 1509.7237905385994 9.756649766097981 L 1509.9439318899672 9.755914431288234 L 1510.1640785005852 9.756174276192592 L 1510.3842083559762 9.757429274826784 L 1510.6042994433378 9.759679301691987 L 1510.8243297537447 9.762924131787393 L 1511.0442772843494 9.767163440632698 L 1511.2641200405817 9.772396804300545 L 1511.4838360383496 9.778623699458933 L 1511.7034033062362 9.785843503423536 L 1511.922799887698 9.794055494219966 L 1512.142003843259 9.803258850655997 L 1512.360993252707 9.81345265240365 L 1512.5797462172834 9.824635880091243 L 1512.7982408618736 9.83680741540533 L 1513.0164553371958 9.84996604120252 L 1513.234367821984 9.864110441631201 L 1513.4519565251715 9.879239202263117 L 1513.669199688069 9.895350810234811 L 1513.8860755865414 9.912443654398912 L 1514.1025625331797 9.930516025485247 L 1514.3186388794695 9.94956611627177 L 1514.5342830179563 9.969592021765274 L 1514.749473384406 9.9905917393919 L 1514.9641884599612 10.012563169197387 L 1515.1784067732933 10.035504114057058 L 1515.3921069027494 10.059412279895552 L 1515.6052674784949 10.084285275916203 L 1515.8178671846495 10.110120614840138 L 1516.02988476142 10.136915713154995 L 1516.241299007225 10.164667891373268 L 1516.452088780817 10.193374374300268 L 1516.662233003393 10.223032291311618 L 1516.871710660707 10.253638676640337 L 1517.0805008051675 10.285190469673394 L 1517.288582557934 10.31768451525778 L 1517.4959351110044 10.351117564016015 L 1517.7025377292964 10.385486272671082 L 1517.9083697527203 10.420787204380758 L 1518.1134105982453 10.45701682908129 L 1518.3176397619577 10.494171523840397 L 1518.5210368211112 10.532247573219568 L 1518.7235814361698 10.571241169645592 L 1518.9252533528402 10.611148413791321 L 1519.126032404099 10.6519653149656 L 1519.3258985122088 10.693687791512323 L 1519.5248316907248 10.736311671218605 L 1519.7228120464954 10.779832691731993 L 1519.9198197816495 10.824246500986703 L 1520.115835195578 10.869548657638825 L 1520.3108386869028 10.91573463151044 L 1520.5048107554376 10.962799804042653 L 1520.6977320041367 11.010739468757432 L 1520.8895831410362 11.059548831728252 L 1521.0803449811824 11.109223012059493 L 1521.26999844855 11.159757042374514 L 1521.4585245779506 11.211145869312396 L 1521.645904516928 11.263384354033272 L 1521.832119527645 11.316467272732199 L 1522.0171509887552 11.370389317161543 L 1522.200980397267 11.425145095161795 L 1522.3835893703924 11.480729131200789 L 1522.5649596473866 11.537135866921236 L 1522.745073091373 11.594359661696572 L 1522.9239116911567 11.652394793195004 L 1523.1014575630277 11.711235457951748 L 1523.2776929525462 11.770875771949356 L 1523.4526002363202 11.831309771206136 L 1523.6261619237673 11.892531412372518 L 1523.798360658863 11.954534573335405 L 1523.9691792218775 12.017313053830371 L 1524.138600531097 12.080860576061681 L 1524.3066076445314 12.145170785330066 L 1524.4731837616096 12.210237250668195 L 1524.6383122248585 12.276053465483752 L 1524.8019765215697 12.342612848210102 L 1524.96416028545 12.409908742964443 L 1525.1248472982577 12.477934420213376 L 1525.2840214914256 12.546683077445863 L 1525.441666947667 12.616147839853474 L 1525.597767902568 12.686321761017851 L 1525.7523087461627 12.757197823605361 L 1525.9052740244958 12.828768940068805 L 1526.0566484411668 12.90102795335618 L 1526.2064168588604 12.973967637626373 L 1526.3545643008595 13.047580698971739 L 1526.5010759525433 13.121859776147488 L 1526.6459371628687 13.196797441307803 L 1526.7891334458354 13.272386200748613 L 1526.9306504819347 13.348618495656966 L 1527.0704741195807 13.425486702866898 L 1527.208590376526 13.502983135621744 L 1527.3449854412602 13.58110004434281 L 1527.4796456743904 13.65982961740432 L 1527.6125576100058 13.739163981914572 L 1527.7437079570232 13.819095204503233 L 1527.8730836005175 13.89961529211465 L 1528.0006716030318 13.980716192807165 L 1528.1264592058724 14.062389796558286 L 1528.2504338303838 14.144627936075706 L 1528.372583079207 14.227422387613998 L 1528.4928947375188 14.31076487179701 L 1528.6113567742536 14.394647054445773 L 1528.7279573433066 14.47906054741192 L 1528.8426847847177 14.563996909416506 L 1528.9555276258386 14.649447646894103 L 1529.0664745824793 14.735404214842179 L 1529.1755145600364 14.821858017675563 L 1529.2826366546033 14.908800410086021 L 1529.3878301540594 14.996222697906763 L 1529.4910845391428 15.084116138981855 L 1529.592389484501 15.172471944040439 L 1529.6917348597235 15.261281277575634 L 1529.7891107303558 15.350535258728096 L 1529.8845073588923 15.440224962174089 L 1529.977915205749 15.530341419018008 L 1530.0693249302196 15.620875617689265 L 1530.1587273914076 15.71181850484344 L 1530.2461136491415 15.803160986267601 L 1530.3314749648682 15.894893927789724 L 1530.4148028025274 15.987008156192104 L 1530.4960888294047 16.079494460128657 L 1530.5753249169652 16.172343591046065 L 1530.6525031416659 16.26554626410861 L 1530.727615785749 16.35909315912665 L 1530.8006553380126 16.452974921488646 L 1530.8716144945624 16.547182163096593 L 1530.9404861595415 16.641705463304834 L 1531.0072634458413 16.736535369862118 L 1531.0719396757884 16.831662399856818 L 1531.1345083818142 16.9270770406652 L 1531.1949633070994 17.0227697509027 L 1531.253298406203 17.118730961378034 L 1531.3095078456627 17.214951076050127 L 1531.3635860045817 17.31142047298769 L 1531.4155274751895 17.408129505331427 L 1531.465327063382 17.505068502258688 L 1531.5129797892419 17.602227769950563 L 1531.5584808875362 17.69959759256125 L 1531.6018258081936 17.79716823318963 L 1531.6430102167574 17.894929934852946 L 1531.6820299948213 17.992872921462503 L 1531.7188812404404 18.090987398801257 L 1531.7535602685202 18.189263555503235 L 1531.7860636111875 18.287691564034667 L 1531.8163880181344 18.386261581676717 L 1531.8445304569461 18.484963751509767 L 1531.8704881134017 18.583788203399084 L 1531.8942583917576 18.68272505498183 L 1531.9158389150052 18.7817644126553 L 1531.9352275251108 18.88089637256625 L 1531.9524222832292 18.98011102160131 L 1531.9674214698991 19.079398438378245 L 1531.980223585214 19.178748694238124 L 1531.9908273489734 19.278151854238146 L 1531.9992317008096 19.37759797814515 L 1532.0054358002942 19.47707712142962 L 1532.0094390270228 19.57657933626012 L 1532.0112409806761 19.67609467249809 M 1532.0113526638047 51.37295782439999 L 1532.0102519315858 51.47247525047687 L 1532.0069498450018 51.57198272489408 L 1532.0014467342585 51.67147029698708 L 1531.9937431496621 51.77092801808159 L 1531.983839861565 51.87034594248838 L 1531.9717378602877 51.969714128497834 L 1531.95743835602 52.06902263937418 L 1531.9409427787007 52.168261544349086 L 1531.9222527778736 52.26742091961474 L 1531.9013702225234 52.366490849316264 L 1531.8782972008878 52.465461426543236 L 1531.8530360202503 52.56432275432041 L 1531.8255892067077 52.66306494659739 L 1531.7959595049183 52.76167812923723 L 1531.7641498778278 52.86015244100386 L 1531.7301635063723 52.95847803454815 L 1531.6940037891604 53.05664507739269 L 1531.6556743421343 53.15464375291499 L 1531.6151789982061 53.25246426132919 L 1531.572521806877 53.35009682066593 L 1531.5277070338302 53.44753166775066 L 1531.480739160506 53.54475905917986 L 1531.4316228836522 53.64176927229541 L 1531.3803631148558 53.738552606156844 L 1531.3269649800507 53.83509938251142 L 1531.2714338190062 53.931399946761964 L 1531.213775184792 54.027444668932304 L 1531.1539948432235 54.12322394463025 L 1531.0920987722852 54.21872819600806 L 1531.0280931615323 54.31394787272016 L 1530.9619844114725 54.40887345287827 L 1530.893779132926 54.503495444003434 L 1530.8234841463639 54.597804383975415 L 1530.7511064812259 54.69179084197881 L 1530.6766533752184 54.78544541944612 L 1530.6001322735901 54.87875875099766 L 1530.521550828387 54.971721505378035 L 1530.4409168976886 55.06432438638927 L 1530.3582385448203 55.15655813382043 L 1530.273524037549 55.248413524373646 L 1530.1867818472545 55.3398813725864 L 1530.0980206480835 55.43095253175009 L 1530.0072493160822 55.52161789482469 L 1529.9144769283077 55.61186839534946 L 1529.8197127619221 55.701695008349546 L 1529.7229662932627 55.79108875123851 L 1529.6242471968958 55.880040684716555 L 1529.5235653446487 55.96854191366445 L 1529.420930804623 56.056583588033064 L 1529.3163538401866 56.14415690372832 L 1529.2098449089494 56.23125310349163 L 1529.1014146617156 56.3178634777756 L 1528.9910739414195 56.40397936561497 L 1528.878833782041 56.48959215549273 L 1528.7647054075028 56.574693286201224 L 1528.648700230547 56.6592742476983 L 1528.530829851595 56.7433265819583 L 1528.411106057586 56.826841883817835 L 1528.2895408207999 56.90981180181631 L 1528.166146297659 56.992228039031076 L 1528.040934827513 57.074082353907095 L 1527.9139189314042 57.15536656108108 L 1527.7851113108165 57.236072532200055 L 1527.654524846405 57.316192196734164 L 1527.5221725967067 57.395717542783714 L 1527.3880677968366 57.474640617880375 L 1527.252223857163 57.552953529782414 L 1527.1146543619666 57.63064844726389 L 1526.975373068082 57.7077176008978 L 1526.834393903523 57.78415328383302 L 1526.6917309660882 57.85994785256493 L 1526.5473985219528 57.93509372769984 L 1526.4014110042406 58.00958339471284 L 1526.2537830115816 58.08340940469932 L 1526.1045293066527 58.156564375119785 L 1525.9536648146993 58.229040990538174 L 1525.8012046220454 58.30083200335333 L 1525.647163974583 58.371930234523795 L 1525.4915582762483 58.44232857428571 L 1525.3344030874819 58.512019982863755 L 1525.1757141236712 58.580997491175154 L 1525.0155072535806 58.64925420152656 L 1524.8537984977638 58.71678328830381 L 1524.6906040269612 58.7835779986545 L 1524.5259401604842 58.849631653163264 L 1524.3598233645823 58.9149376465197 L 1524.1922702507964 58.979489448178875 L 1524.023297574298 59.04328060301443 L 1523.8529222322147 59.10630473196404 L 1523.6811612619383 59.16855553266733 L 1523.5080318394225 59.2300267800961 L 1523.3335512774659 59.29071232717683 L 1523.1577370239784 59.3506061054054 L 1522.9806066602396 59.409702125453876 L 1522.8021778991379 59.46799447776952 L 1522.6224685834009 59.52547733316567 L 1522.44149668381 59.58214494340468 L 1522.259280297405 59.63799164177276 L 1522.0758376456724 59.6930118436466 L 1521.8911870727243 59.747200047051884 L 1521.7053470434644 59.80055083321341 L 1521.5183361417405 59.85305886709702 L 1521.3301730684873 59.90471889794309 L 1521.140876639855 59.955525759791584 L 1520.9504657853288 60.00547437199866 L 1520.7589595458355 60.05455973974471 L 1520.5663770718395 60.10277695453387 L 1520.3727376214276 60.15012119468484 L 1520.1780605583838 60.19658772581307 L 1519.9823653502517 60.24217190130415 L 1519.7856715663893 60.28686916277852 L 1519.5879988760112 60.3306750405473 L 1519.3893670462212 60.3735851540592 L 1519.1897959400374 60.41559521233863 L 1518.9893055144037 60.456701014414776 L 1518.7879158181956 60.49689844974168 L 1518.585646990215 60.536183498609304 L 1518.3825192571765 60.57455223254551 L 1518.1785529316835 60.612000814708864 L 1517.9737684101988 60.64852550027237 L 1517.768186171004 60.6841226367979 L 1517.5618267721516 60.71878866460147 L 1517.3547108494095 60.752520117109185 L 1517.1468591141977 60.785313621203905 L 1516.9382923515159 60.817165897562546 L 1516.7290314178672 60.84807376098402 L 1516.5190972391702 60.87803412070774 L 1516.308510808668 60.9070439807227 L 1516.097293184828 60.935100440067075 L 1515.8854654892366 60.962200693118305 L 1515.673048904487 60.98834202987367 L 1515.4600646720605 61.01352183622129 L 1515.2465340902029 61.037737594201495 L 1515.0324785117944 61.06098688225868 L 1514.8179193422147 61.08326737548341 L 1514.6028780372017 61.10457684584493 L 1514.3873761007067 61.12491316241396 L 1514.1714350827438 61.14427429157579 L 1513.9550765772349 61.16265829723364 L 1513.7383222198505 61.18006334100226 L 1513.5211936858452 61.19648768239178 L 1513.3037126878917 61.21192967898176 L 1513.0859009739086 61.22638778658539 L 1512.8677803248859 61.239860559403965 L 1512.6493725527064 61.25234665017143 L 1512.4306994979656 61.263844810289115 L 1512.2117830277866 61.27435388995059 L 1511.9926450336343 61.28387283825665 L 1511.773307429125 61.29240070332038 L 1511.5537921478365 61.29993663236241 L 1511.3341211411143 61.306479871796085 L 1511.114316375876 61.31202976730294 L 1510.8943998324144 61.316585763898026 L 1510.6743935022012 61.320147405985495 L 1510.4543193856857 61.3227143374041 L 1510.2341994900964 61.32428630146285 L 1510.0140558272394 61.32486314096663 L 1509.7939104112975 61.32444479823198 L 1509.5737852566288 61.323031315092834 L 1509.353702375565 61.32062283289631 L 1509.1336837762115 61.317219592488634 L 1508.9137514602444 61.31282193419101 L 1508.6939274207123 61.30743029776559 L 1508.4742336398356 61.301045222371535 L 1508.2546920868097 61.293667346511064 L 1508.0353247156065 61.285297407965615 L 1507.816153462781 61.27593624372206 L 1507.597200245275 61.26558478988903 L 1507.3784869582285 61.25424408160328 L 1507.1600354727875 61.241915252926184 L 1506.9418676339187 61.22859953673034 L 1506.7240052582242 61.21429826457627 L 1506.5064701317601 61.19901286657928 L 1506.2892840078575 61.182744871266415 L 1506.072468604948 61.16549590542366 L 1505.856045604391 61.14726769393323 L 1505.6400366483065 61.12806205960107 L 1505.4244633374099 61.10788092297462 L 1505.2093472288527 61.08672630215072 L 1504.9947098340665 61.06460031257383 L 1504.780572616612 61.04150516682446 L 1504.5669569900324 61.01744317439794 L 1504.353884315712 60.99241674147347 L 1504.1413759007414 60.966428370673476 L 1503.9294529957847 60.939480660813395 L 1503.7181367929554 60.91157630664174 L 1503.5074484236982 60.88271809857069 L 1503.2974089566742 60.85290892239699 L 1503.0880393956552 60.82215175901343 L 1502.8793606774227 60.79044968411071 L 1502.6713936696747 60.7578058678699 L 1502.4641591689387 60.72422357464542 L 1502.2576778984921 60.68970616263862 L 1502.0519705062898 60.65425708356192 L 1501.8470575628994 60.6178798822937 L 1501.6429595594448 60.58057819652376 L 1501.4396969055563 60.542355756389604 L 1501.2372899273296 60.50321638410338 L 1501.035758865294 60.46316399356972 L 1500.8351238723878 60.422202589994285 L 1500.6354050119432 60.38033626948331 L 1500.4366222556796 60.33756921863394 L 1500.238795481707 60.29390571411564 L 1500.041944472538 60.24935012224246 L 1499.8460889131095 60.20390689853647 L 1499.651248388814 60.157580587282155 L 1499.457442383542 60.110375821072054 L 1499.2646902777324 60.06229732034345 L 1499.073011346435 60.013349892906334 L 1498.882424757383 59.96353843346267 L 1498.6929495690767 59.912867923116906 L 1498.5046047288772 59.86134342887783 L 1498.3174090711116 59.808970103151935 L 1498.1313813151892 59.75575318322815 L 1497.9465400637312 59.70169799075413 L 1497.762903800708 59.64680993120406 L 1497.5804908895934 59.59109449333817 L 1497.3993195715266 59.534557248653805 L 1497.219407963488 59.477203850828325 L 1497.0407740564885 59.41904003515372 L 1496.8634357137705 59.36007161796309 L 1496.6874106690198 59.300304496049 L 1496.5127165245947 59.23974464607385 L 1496.3393707497637 59.17839812397217 L 1496.16739067896 59.11627106434504 L 1495.9967935100472 59.05336967984666 L 1495.8275963026003 58.989700260563055 L 1495.659815976199 58.9252691733831 L 1495.493469308736 58.86008286136181 L 1495.3285729347394 58.79414784307608 L 1495.1651433437094 58.72747071197279 L 1495.0031968784685 58.66005813570948 L 1494.8427497335288 58.591916855487604 L 1494.6838179534707 58.52305368537839 L 1494.52641743134 58.453475511641486 L 1494.3705639070574 58.383189292036256 L 1494.216272965846 58.31220205512611 L 1494.0635600366709 58.24052089957557 L 1493.9124403906978 58.16815299344047 L 1493.7629291397654 58.09510557345111 L 1493.6150412348745 58.02138594428861 L 1493.4687914646918 57.947001477854464 L 1493.324194454073 57.87195961253332 L 1493.1812646625983 57.79626785244918 L 1493.0400163831277 57.71993376671498 L 1492.9004637403718 57.64296498867567 L 1492.7626206894784 57.565369215144926 L 1492.6265010146376 57.487154205635434 L 1492.4921183277036 57.40832778158296 L 1492.3594860668331 57.32889782556423 L 1492.2286174951414 57.24887228050866 L 1492.099525699377 57.16825914890404 L 1491.9722235886118 57.08706649199638 L 1491.8467238929504 57.005302428983704 L 1491.7230391622584 56.92297513620417 L 1491.6011817649055 56.840092846318456 L 1491.4811638865297 56.756663847486486 L 1491.362997528819 56.672696482538605 L 1491.2466945083108 56.58819914814135 L 1491.1322664552104 56.50318029395774 L 1491.0197248122272 56.41764842180235 L 1490.909080833432 56.331612084791104 L 1490.8003455831306 56.245079886486025 L 1490.6935299347572 56.15806048003482 L 1490.588644569788 56.07056256730563 L 1490.4856999766714 55.9825948980168 L 1490.3847064497816 55.894166268861966 L 1490.2856740883867 55.80528552263034 L 1490.1886127956407 55.71596154732249 L 1490.0935322775917 55.62620327526151 L 1490.0004420422124 55.5360196821998 L 1489.9093513984487 55.44541978642151 L 1489.820269455289 55.35441264784073 L 1489.7332051208534 55.263007367095476 L 1489.648167101503 55.17121308463765 L 1489.5651639009686 55.079038979818996 L 1489.4842038195013 54.9864942699732 L 1489.4052949530417 54.89358820949411 L 1489.3284451924108 54.800330088910364 L 1489.2536622225202 54.706729233956295 L 1489.180953521605 54.61279500463941 L 1489.1103263604746 54.51853679430435 L 1489.041787801786 54.42396402869361 L 1488.9753446993386 54.32908616500494 L 1488.9110036973866 54.23391269094564 L 1488.8487712299768 54.138453123783805 L 1488.7886535203043 54.042717009396604 L 1488.7306565800895 53.9467139213157 L 1488.6747862089787 53.85045345976989 L 1488.6210479939618 53.75394525072511 L 1488.569447308816 53.65719894492185 L 1488.5199893135668 53.56022421691007 L 1488.4726789539723 53.46303076408175 L 1488.427520961029 53.36562830570119 L 1488.3845198504987 53.26802658193305 L 1488.3436799224567 53.170235352868374 L 1488.3050052608614 53.07226439754858 L 1488.268499733147 52.97412351298755 L 1488.2341669898362 52.87582251319197 L 1488.202010464174 52.77737122817989 L 1488.1720333717867 52.67877950299777 L 1488.1442387103584 52.58005719673597 L 1488.118629259332 52.48121418154285 L 1488.0952075796313 52.38226034163757 L 1488.073976013405 52.283205572321634 L 1488.0549366837915 52.18405977898945 L 1488.0380914947084 52.084832876137725 L 1488.0234421306602 51.98553478637405 L 1488.0109900565715 51.88617543942466 L 1488.0007365176389 51.78676477114145 L 1487.992682539208 51.687312722508395 L 1487.9868289266701 51.587829238647494 L 1487.9831762653812 51.48832426782423 L 1487.9817249206046 51.38880776045276" stroke-miterlimit="10" stroke-width="2.5633703640000003" stroke-dasharray=""/></g><g><g/><text fill="black" stroke="none" font-family="sans-serif" font-size="10pt" font-style="normal" font-weight="normal" text-decoration="normal" x="1501.4765281887383" y="77.504256888" text-anchor="start" dominant-baseline="alphabetic" xml:space="preserve">db</text></g></g><g><path fill="white" stroke="black" paint-order="fill stroke markers" d=" M 217.22469514326173 131.787394008 L 232.3033443432617 131.787394008 L 232.3033443432617 1128.1242185471997 L 217.22469514326173 1128.1242185471997 L 217.22469514326173 131.787394008" stroke-miterlimit="10" stroke-width="1.2565541" stroke-dasharray=""/><path fill="white" stroke="black" paint-order="fill stroke markers" d=" M 439.86248925458983 174.007611768 L 454.9411384545898 174.007611768 L 454.9411384545898 1085.9040007871997 L 439.86248925458983 1085.9040007871997 L 439.86248925458983 174.007611768" stroke-miterlimit="10" stroke-width="1.2565541" stroke-dasharray=""/><path fill="white" stroke="black" paint-order="fill stroke markers" d=" M 711.5330772041992 216.227829528 L 726.6117264041992 216.227829528 L 726.6117264041992 666.7175530271999 L 711.5330772041992 666.7175530271999 L 711.5330772041992 216.227829528" stroke-miterlimit="10" stroke-width="1.2565541" stroke-dasharray=""/><path fill="white" stroke="black" paint-order="fill stroke markers" d=" M 968.1250159538087 258.448047288 L 983.2036651538086 258.448047288 L 983.2036651538086 624.4973352671999 L 968.1250159538087 624.4973352671999 L 968.1250159538087 258.448047288" stroke-miterlimit="10" stroke-width="1.2565541" stroke-dasharray=""/><path fill="white" stroke="black" paint-order="fill stroke markers" d=" M 1724.334907827328 517.4389259472 L 1739.4135570273281 517.4389259472 L 1739.4135570273281 559.6591437072 L 1724.334907827328 559.6591437072 L 1724.334907827328 517.4389259472" stroke-miterlimit="10" stroke-width="1.2565541" stroke-dasharray=""/><path fill="white" stroke="black" paint-order="fill stroke markers" d=" M 447.4018138545898 728.5400147471998 L 462.4804630545898 728.5400147471998 L 462.4804630545898 1024.0815390671999 L 447.4018138545898 1024.0815390671999 L 447.4018138545898 728.5400147471998" stroke-miterlimit="10" stroke-width="1.2565541" stroke-dasharray=""/><path fill="white" stroke="black" paint-order="fill stroke markers" d=" M 224.7640197432617 770.7602325071998 L 239.84266894326169 770.7602325071998 L 239.84266894326169 981.8613213071997 L 224.7640197432617 981.8613213071997 L 224.7640197432617 770.7602325071998" stroke-miterlimit="10" stroke-width="1.2565541" stroke-dasharray=""/><path fill="white" stroke="black" paint-order="fill stroke markers" d=" M 454.9411384545898 812.9804502671998 L 470.0197876545898 812.9804502671998 L 470.0197876545898 855.2006680271998 L 454.9411384545898 855.2006680271998 L 454.9411384545898 812.9804502671998" stroke-miterlimit="10" stroke-width="1.2565541" stroke-dasharray=""/><path fill="white" stroke="black" paint-order="fill stroke markers" d=" M 454.9411384545898 897.4208857871997 L 470.0197876545898 897.4208857871997 L 470.0197876545898 939.6411035471997 L 454.9411384545898 939.6411035471997 L 454.9411384545898 897.4208857871997" stroke-miterlimit="10" stroke-width="1.2565541" stroke-dasharray=""/><g><g><rect fill="white" stroke="none" x="39.78631585466798" y="112.185150048" width="159.59531106859376" height="19.602243960000003"/></g><text fill="black" stroke="none" font-family="sans-serif" font-size="10pt" font-style="normal" font-weight="normal" text-decoration="normal" x="42.04811323466798" y="125.755934328" text-anchor="start" dominant-baseline="alphabetic" xml:space="preserve">submit(date:LocalDate)</text></g><g><path fill="none" stroke="black" paint-order="fill stroke markers" d=" M 21.94324763466797 131.787394008 L 204.80994063526174 131.787394008" stroke-miterlimit="10" stroke-width="1.2565541" stroke-dasharray=""/><g transform="translate(217.22469514326173,131.787394008) translate(-217.22469514326173,-131.787394008)"><path fill="black" stroke="none" paint-order="stroke fill markers" d=" M 204.65915414326173 125.50462350800001 L 217.22469514326173 131.787394008 L 204.65915414326173 138.070164508 Z"/></g></g><g><g><rect fill="white" stroke="none" x="253.91607486326174" y="154.405367808" width="164.33368387132813" height="19.602243960000003"/></g><text fill="black" stroke="none" font-family="sans-serif" font-size="10pt" font-style="normal" font-weight="normal" text-decoration="normal" x="256.17787224326173" y="167.976152088" text-anchor="start" dominant-baseline="alphabetic" xml:space="preserve">setDate(date:LocalDate)</text></g><g><path fill="none" stroke="black" paint-order="fill stroke markers" d=" M 232.3033443432617 174.007611768 L 427.44773474658984 174.007611768" stroke-miterlimit="10" stroke-width="1.2565541" stroke-dasharray=""/><g transform="translate(439.86248925458983,174.007611768) translate(-439.86248925458983,-174.007611768)"><path fill="black" stroke="none" paint-order="stroke fill markers" d=" M 427.29694825458984 167.724841268 L 439.86248925458983 174.007611768 L 427.29694825458984 180.290382268 Z"/></g></g><g><g><rect fill="white" stroke="none" x="480.3235312745898" y="196.625585568" width="205.82715310960938" height="19.602243960000003"/></g><text fill="black" stroke="none" font-family="sans-serif" font-size="10pt" font-style="normal" font-weight="normal" text-decoration="normal" x="482.58532865458983" y="210.196369848" text-anchor="start" dominant-baseline="alphabetic" xml:space="preserve">getScreenings(date:LocalDate)</text></g><g><path fill="none" stroke="black" paint-order="fill stroke markers" d=" M 454.9411384545898 216.227829528 L 699.1183226961992 216.227829528" stroke-miterlimit="10" stroke-width="1.2565541" stroke-dasharray=""/><g transform="translate(711.5330772041992,216.227829528) translate(-711.5330772041992,-216.227829528)"><path fill="black" stroke="none" paint-order="stroke fill markers" d=" M 698.9675362041992 209.945059028 L 711.5330772041992 216.227829528 L 698.9675362041992 222.510600028 Z"/></g></g><g><g><rect fill="white" stroke="none" x="744.4547946241993" y="238.845803328" width="205.82715310960938" height="19.602243960000003"/></g><text fill="black" stroke="none" font-family="sans-serif" font-size="10pt" font-style="normal" font-weight="normal" text-decoration="normal" x="746.7165920041992" y="252.416587608" text-anchor="start" dominant-baseline="alphabetic" xml:space="preserve">getScreenings(date:LocalDate)</text></g><g><path fill="none" stroke="black" paint-order="fill stroke markers" d=" M 726.6117264041992 258.448047288 L 955.7102614458087 258.448047288" stroke-miterlimit="10" stroke-width="1.2565541" stroke-dasharray=""/><g transform="translate(968.1250159538087,258.448047288) translate(-968.1250159538087,-258.448047288)"><path fill="black" stroke="none" paint-order="stroke fill markers" d=" M 955.5594749538086 252.165276788 L 968.1250159538087 258.448047288 L 955.5594749538086 264.730817788 Z"/></g></g><g><g><rect fill="white" stroke="none" x="1162.2007472588027" y="281.066021088" width="168.79869546800782" height="19.602243960000003"/></g><text fill="black" stroke="none" font-family="sans-serif" font-size="10pt" font-style="normal" font-weight="normal" text-decoration="normal" x="1164.4625446388027" y="294.63680536800007" text-anchor="start" dominant-baseline="alphabetic" xml:space="preserve">executeQuery(sql:String)</text></g><g><path fill="none" stroke="black" paint-order="fill stroke markers" d=" M 983.2036651538086 300.668265048 L 1497.5817703238047 300.668265048" stroke-miterlimit="10" stroke-width="1.2565541" stroke-dasharray=""/><g transform="translate(1509.9965248318047,300.668265048) translate(-1509.9965248318047,-300.668265048)"><path fill="black" stroke="none" paint-order="stroke fill markers" d=" M 1497.4309838318047 294.385494548 L 1509.9965248318047 300.668265048 L 1497.4309838318047 306.95103554800005 Z"/></g></g><g><g><rect fill="white" stroke="none" x="1001.0467333738086" y="363.99859168800003" width="243.30469217210938" height="19.602243960000003"/></g><text fill="black" stroke="none" font-family="sans-serif" font-size="10pt" font-style="normal" font-weight="normal" text-decoration="normal" x="1003.3085307538086" y="377.56937596800003" text-anchor="start" dominant-baseline="alphabetic" xml:space="preserve">s:=getScreenforOid(screen:Integer)</text></g><g><path fill="none" stroke="black" paint-order="fill stroke markers" d=" M 983.2036651538086 383.60083564800004 L 1249.779739257918 383.60083564800004" stroke-miterlimit="10" stroke-width="1.2565541" stroke-dasharray=""/><g transform="translate(1262.194493765918,383.60083564800004) translate(-1262.194493765918,-383.60083564800004)"><path fill="black" stroke="none" paint-order="stroke fill markers" d=" M 1249.628952765918 377.318065148 L 1262.194493765918 383.60083564800004 L 1249.628952765918 389.88360614800007 Z"/></g></g><g><g><rect fill="white" stroke="none" x="1069.8587753962208" y="406.21880944800006" width="247.04735269457032" height="19.602243960000003"/></g><text fill="black" stroke="none" font-family="sans-serif" font-size="10pt" font-style="normal" font-weight="normal" text-decoration="normal" x="1072.1205727762208" y="419.7895937280001" text-anchor="start" dominant-baseline="alphabetic" xml:space="preserve">m:=getMovieForOid(movie:Integer)</text></g><g><path fill="none" stroke="black" paint-order="fill stroke markers" d=" M 983.2036651538086 425.82105340800007 L 1391.1464838252032 425.82105340800007" stroke-miterlimit="10" stroke-width="1.2565541" stroke-dasharray=""/><g transform="translate(1403.5612383332032,425.82105340800007) translate(-1403.5612383332032,-425.82105340800007)"><path fill="black" stroke="none" paint-order="stroke fill markers" d=" M 1390.9956973332032 419.53828290800004 L 1403.5612383332032 425.82105340800007 L 1390.9956973332032 432.1038239080001 Z"/></g></g><g><path fill="white" stroke="black" paint-order="fill stroke markers" d=" M 1754.266026489328 470.83082127000006 A 22.391794062000002 22.391794062000002 0 1 1 1754.266015293432 470.80842947967 M 1708.200753183328 495.2733116232 L 1755.547711671328 495.2733116232" stroke-miterlimit="10" stroke-width="2.5633703640000003" stroke-dasharray=""/></g><g><g/><text fill="black" stroke="none" font-family="sans-serif" font-size="10pt" font-style="normal" font-weight="normal" text-decoration="normal" x="1669.4908477227382" y="511.6336460052001" text-anchor="start" dominant-baseline="alphabetic" xml:space="preserve">PersistentScreening</text></g><g><g><rect fill="white" stroke="none" x="1037.1426184821016" y="463.3367326176" width="578.4092759123438" height="19.602243960000003"/></g><text fill="black" stroke="none" font-family="sans-serif" font-size="10pt" font-style="normal" font-weight="normal" text-decoration="normal" x="1039.4044158621016" y="476.9075168976" text-anchor="start" dominant-baseline="alphabetic" xml:space="preserve">PersistentScreening(oid:Integer,date:LocalDate,s:Screen,m:Movie,stime:LocalTime)</text></g><g><path fill="none" stroke="black" paint-order="fill stroke markers" d=" M 983.2036651538086 482.9389765776 L 1657.0760932147382 482.9389765776" stroke-miterlimit="10" stroke-width="1.2565541" stroke-dasharray=""/><g transform="translate(1669.4908477227382,482.9389765776) translate(-1669.4908477227382,-482.9389765776)"><path fill="black" stroke="none" paint-order="stroke fill markers" d=" M 1656.9253067227382 476.65620607759996 L 1669.4908477227382 482.9389765776 L 1656.9253067227382 489.2217470776 Z"/></g></g><g><g><rect fill="white" stroke="none" x="1351.5074891105683" y="540.0568997472" width="4.52359476" height="19.602243960000003"/></g><text fill="black" stroke="none" font-family="sans-serif" font-size="10pt" font-style="normal" font-weight="normal" text-decoration="normal" x="1353.7692864905682" y="553.6276840272" text-anchor="start" dominant-baseline="alphabetic" xml:space="preserve"></text></g><g><path fill="none" stroke="black" paint-order="fill stroke markers" d=" M 1724.334907827328 559.6591437072 L 995.6184196618086 559.6591437072" stroke-miterlimit="10" stroke-width="1.2565541" stroke-dasharray="6.03145968"/><g transform="translate(983.2036651538086,559.6591437072) translate(-983.2036651538086,-559.6591437072)"><path fill="black" stroke="none" paint-order="stroke fill markers" d=" M 995.7692061538087 553.3763732072 L 983.2036651538086 559.6591437072 L 995.7692061538087 565.9419142071999 Z"/></g></g><g><g><rect fill="white" stroke="none" x="789.8958728102344" y="604.8950913071999" width="114.94499673753906" height="19.602243960000003"/></g><text fill="black" stroke="none" font-family="sans-serif" font-size="10pt" font-style="normal" font-weight="normal" text-decoration="normal" x="792.1576701902344" y="618.4658755871999" text-anchor="start" dominant-baseline="alphabetic" xml:space="preserve">returnscreenings</text></g><g><path fill="none" stroke="black" paint-order="fill stroke markers" d=" M 968.1250159538087 624.4973352671999 L 739.0264809121992 624.4973352671999" stroke-miterlimit="10" stroke-width="1.2565541" stroke-dasharray="6.03145968"/><g transform="translate(726.6117264041992,624.4973352671999) translate(-726.6117264041992,-624.4973352671999)"><path fill="black" stroke="none" paint-order="stroke fill markers" d=" M 739.1772674041993 618.2145647671999 L 726.6117264041992 624.4973352671999 L 739.1772674041993 630.7801057671999 Z"/></g></g><g><g><rect fill="white" stroke="none" x="525.764609460625" y="647.1153090671999" width="114.94499673753906" height="19.602243960000003"/></g><text fill="black" stroke="none" font-family="sans-serif" font-size="10pt" font-style="normal" font-weight="normal" text-decoration="normal" x="528.026406840625" y="660.6860933471999" text-anchor="start" dominant-baseline="alphabetic" xml:space="preserve">returnscreenings</text></g><g><path fill="none" stroke="black" paint-order="fill stroke markers" d=" M 711.5330772041992 666.7175530271999 L 467.3558929625898 666.7175530271999" stroke-miterlimit="10" stroke-width="1.2565541" stroke-dasharray="6.03145968"/><g transform="translate(454.9411384545898,666.7175530271999) translate(-454.9411384545898,-666.7175530271999)"><path fill="black" stroke="none" paint-order="stroke fill markers" d=" M 467.5066794545898 660.4347825271999 L 454.9411384545898 666.7175530271999 L 467.5066794545898 673.0003235271998 Z"/></g></g><g><g><rect fill="white" stroke="none" x="480.32353127458975" y="689.3355268271998" width="115.15332498460937" height="19.602243960000003"/></g><text fill="black" stroke="none" font-family="sans-serif" font-size="10pt" font-style="normal" font-weight="normal" text-decoration="normal" x="482.5853286545898" y="702.9063111071998" text-anchor="start" dominant-baseline="alphabetic" xml:space="preserve">notifyObservers()</text></g><g><path fill="none" stroke="black" paint-order="fill stroke markers" d=" M 454.9411384545898 708.9377707871998 L 522.7950598545898 708.9377707871998 L 522.7950598545898 728.5400147471998 L 474.8952175625898 728.5400147471998" stroke-miterlimit="10" stroke-width="1.2565541" stroke-dasharray=""/><g transform="translate(462.4804630545898,728.5400147471998) translate(-462.4804630545898,-728.5400147471998)"><path fill="black" stroke="none" paint-order="stroke fill markers" d=" M 475.0460040545898 722.2572442471999 L 462.4804630545898 728.5400147471998 L 475.0460040545898 734.8227852471998 Z"/></g></g><g><g><rect fill="white" stroke="none" x="314.38805479773436" y="751.1579885471998" width="58.468373202382814" height="19.602243960000003"/></g><text fill="black" stroke="none" font-family="sans-serif" font-size="10pt" font-style="normal" font-weight="normal" text-decoration="normal" x="316.6498521777344" y="764.7287728271998" text-anchor="start" dominant-baseline="alphabetic" xml:space="preserve">update()</text></g><g><path fill="none" stroke="black" paint-order="fill stroke markers" d=" M 447.4018138545898 770.7602325071998 L 252.25742345126173 770.7602325071998" stroke-miterlimit="10" stroke-width="1.2565541" stroke-dasharray=""/><g transform="translate(239.8426689432617,770.7602325071998) translate(-239.8426689432617,-770.7602325071998)"><path fill="black" stroke="none" paint-order="stroke fill markers" d=" M 252.4082099432617 764.4774620071998 L 239.8426689432617 770.7602325071998 L 252.4082099432617 777.0430030071998 Z"/></g></g><g><g><rect fill="white" stroke="none" x="315.1799491533984" y="793.3782063071998" width="64.42390909105468" height="19.602243960000003"/></g><text fill="black" stroke="none" font-family="sans-serif" font-size="10pt" font-style="normal" font-weight="normal" text-decoration="normal" x="317.44174653339843" y="806.9489905871998" text-anchor="start" dominant-baseline="alphabetic" xml:space="preserve">getDate()</text></g><g><path fill="none" stroke="black" paint-order="fill stroke markers" d=" M 239.8426689432617 812.9804502671998 L 442.5263839465898 812.9804502671998" stroke-miterlimit="10" stroke-width="1.2565541" stroke-dasharray=""/><g transform="translate(454.9411384545898,812.9804502671998) translate(-454.9411384545898,-812.9804502671998)"><path fill="black" stroke="none" paint-order="stroke fill markers" d=" M 442.3755974545898 806.6976797671998 L 454.9411384545898 812.9804502671998 L 442.3755974545898 819.2632207671998 Z"/></g></g><g><g><rect fill="white" stroke="none" x="309.54011761042966" y="835.5984240671997" width="75.70357217699218" height="19.602243960000003"/></g><text fill="black" stroke="none" font-family="sans-serif" font-size="10pt" font-style="normal" font-weight="normal" text-decoration="normal" x="311.8019149904297" y="849.1692083471997" text-anchor="start" dominant-baseline="alphabetic" xml:space="preserve">returndate</text></g><g><path fill="none" stroke="black" paint-order="fill stroke markers" d=" M 454.9411384545898 855.2006680271998 L 252.25742345126173 855.2006680271998" stroke-miterlimit="10" stroke-width="1.2565541" stroke-dasharray="6.03145968"/><g transform="translate(239.8426689432617,855.2006680271998) translate(-239.8426689432617,-855.2006680271998)"><path fill="black" stroke="none" paint-order="stroke fill markers" d=" M 252.4082099432617 848.9178975271998 L 239.8426689432617 855.2006680271998 L 252.4082099432617 861.4834385271997 Z"/></g></g><g><g><rect fill="white" stroke="none" x="295.61130749080075" y="877.8186418271997" width="103.56119241625" height="19.602243960000003"/></g><text fill="black" stroke="none" font-family="sans-serif" font-size="10pt" font-style="normal" font-weight="normal" text-decoration="normal" x="297.8731048708008" y="891.3894261071997" text-anchor="start" dominant-baseline="alphabetic" xml:space="preserve">getScreenings()</text></g><g><path fill="none" stroke="black" paint-order="fill stroke markers" d=" M 239.8426689432617 897.4208857871997 L 442.5263839465898 897.4208857871997" stroke-miterlimit="10" stroke-width="1.2565541" stroke-dasharray=""/><g transform="translate(454.9411384545898,897.4208857871997) translate(-454.9411384545898,-897.4208857871997)"><path fill="black" stroke="none" paint-order="stroke fill markers" d=" M 442.3755974545898 891.1381152871998 L 454.9411384545898 897.4208857871997 L 442.3755974545898 903.7036562871997 Z"/></g></g><g><g><rect fill="white" stroke="none" x="289.9194053301562" y="920.0388595871997" width="114.94499673753906" height="19.602243960000003"/></g><text fill="black" stroke="none" font-family="sans-serif" font-size="10pt" font-style="normal" font-weight="normal" text-decoration="normal" x="292.18120271015624" y="933.6096438671997" text-anchor="start" dominant-baseline="alphabetic" xml:space="preserve">returnscreenings</text></g><g><path fill="none" stroke="black" paint-order="fill stroke markers" d=" M 454.9411384545898 939.6411035471997 L 252.25742345126173 939.6411035471997" stroke-miterlimit="10" stroke-width="1.2565541" stroke-dasharray="6.03145968"/><g transform="translate(239.8426689432617,939.6411035471997) translate(-239.8426689432617,-939.6411035471997)"><path fill="black" stroke="none" paint-order="stroke fill markers" d=" M 252.4082099432617 933.3583330471997 L 239.8426689432617 939.6411035471997 L 252.4082099432617 945.9238740471997 Z"/></g></g><g><g><rect fill="white" stroke="none" x="341.36044401892576" y="962.2590773471996" width="4.52359476" height="19.602243960000003"/></g><text fill="black" stroke="none" font-family="sans-serif" font-size="10pt" font-style="normal" font-weight="normal" text-decoration="normal" x="343.6222413989258" y="975.8298616271996" text-anchor="start" dominant-baseline="alphabetic" xml:space="preserve"></text></g><g><path fill="none" stroke="black" paint-order="fill stroke markers" d=" M 239.8426689432617 981.8613213071997 L 434.98705934658983 981.8613213071997" stroke-miterlimit="10" stroke-width="1.2565541" stroke-dasharray="6.03145968"/><g transform="translate(447.4018138545898,981.8613213071997) translate(-447.4018138545898,-981.8613213071997)"><path fill="black" stroke="none" paint-order="stroke fill markers" d=" M 434.8362728545898 975.5785508071997 L 447.4018138545898 981.8613213071997 L 434.8362728545898 988.1440918071996 Z"/></g></g><g><g><rect fill="white" stroke="none" x="480.32353127458975" y="1004.4792951071997" width="4.52359476" height="19.602243960000003"/></g><text fill="black" stroke="none" font-family="sans-serif" font-size="10pt" font-style="normal" font-weight="normal" text-decoration="normal" x="482.5853286545898" y="1018.0500793871997" text-anchor="start" dominant-baseline="alphabetic" xml:space="preserve"></text></g><g><path fill="none" stroke="black" paint-order="fill stroke markers" d=" M 462.4804630545898 1024.0815390671999 L 522.7950598545898 1024.0815390671999 L 522.7950598545898 1043.6837830271998 L 467.3558929625898 1043.6837830271998" stroke-miterlimit="10" stroke-width="1.2565541" stroke-dasharray="6.03145968"/><g transform="translate(454.9411384545898,1043.6837830271998) translate(-454.9411384545898,-1043.6837830271998)"><path fill="black" stroke="none" paint-order="stroke fill markers" d=" M 467.5066794545898 1037.4010125271998 L 454.9411384545898 1043.6837830271998 L 467.5066794545898 1049.9665535271997 Z"/></g></g><g><g><rect fill="white" stroke="none" x="333.8211194189258" y="1066.3017568271998" width="4.52359476" height="19.602243960000003"/></g><text fill="black" stroke="none" font-family="sans-serif" font-size="10pt" font-style="normal" font-weight="normal" text-decoration="normal" x="336.0829167989258" y="1079.8725411071998" text-anchor="start" dominant-baseline="alphabetic" xml:space="preserve"></text></g><g><path fill="none" stroke="black" paint-order="fill stroke markers" d=" M 439.86248925458983 1085.9040007871997 L 244.7180988512617 1085.9040007871997" stroke-miterlimit="10" stroke-width="1.2565541" stroke-dasharray="6.03145968"/><g transform="translate(232.3033443432617,1085.9040007871997) translate(-232.3033443432617,-1085.9040007871997)"><path fill="black" stroke="none" paint-order="stroke fill markers" d=" M 244.8688853432617 1079.6212302871998 L 232.3033443432617 1085.9040007871997 L 244.8688853432617 1092.1867712871997 Z"/></g></g><g><g><rect fill="white" stroke="none" x="117.32217400896485" y="1108.5219745871998" width="4.52359476" height="19.602243960000003"/></g><text fill="black" stroke="none" font-family="sans-serif" font-size="10pt" font-style="normal" font-weight="normal" text-decoration="normal" x="119.58397138896486" y="1122.0927588671998" text-anchor="start" dominant-baseline="alphabetic" xml:space="preserve"></text></g><g><path fill="none" stroke="black" paint-order="fill stroke markers" d=" M 217.22469514326173 1128.1242185471997 L 34.35800214266797 1128.1242185471997" stroke-miterlimit="10" stroke-width="1.2565541" stroke-dasharray="6.03145968"/><g transform="translate(21.94324763466797,1128.1242185471997) translate(-21.94324763466797,-1128.1242185471997)"><path fill="black" stroke="none" paint-order="stroke fill markers" d=" M 34.50878863466797 1121.8414480471997 L 21.94324763466797 1128.1242185471997 L 34.50878863466797 1134.4069890471997 Z"/></g></g><g><g/><path fill="none" stroke="black" paint-order="fill stroke markers" d=" M 915.3497437538086 323.28623884800004 L 1801.796941731918 323.28623884800004 L 1801.796941731918 582.2771175071999 L 915.3497437538086 582.2771175071999 L 915.3497437538086 323.28623884800004 Z" stroke-miterlimit="10" stroke-width="2.154092742857143" stroke-dasharray=""/><path fill="white" stroke="black" paint-order="fill stroke markers" d=" M 915.3497437538086 323.28623884800004 L 915.3497437538086 341.380617888 L 969.7730791411134 341.380617888 L 978.8202686611133 332.33342836800006 L 978.8202686611133 323.28623884800004 L 915.3497437538086 323.28623884800004" stroke-miterlimit="10" stroke-width="2.154092742857143" stroke-dasharray=""/><text fill="black" stroke="none" font-family="sans-serif" font-size="8pt" font-style="normal" font-weight="bold" text-decoration="normal" x="930.4283929538086" y="335.349158208" text-anchor="start" dominant-baseline="alphabetic" xml:space="preserve">loop</text><text fill="black" stroke="none" font-family="sans-serif" font-size="8pt" font-style="normal" font-weight="bold" text-decoration="normal" x="993.8989178611133" y="335.349158208" text-anchor="start" dominant-baseline="alphabetic" xml:space="preserve">[foreveryrowreturnedforreservations]</text></g></g><g/><g/><g/><g/><g/><g/><g/><g/></g></svg>