<svg version="1.1" xmlns="http://www.w3.org/2000/svg" xmlns:xlink="http://www.w3.org/1999/xlink" width="1751" height="1538"><desc>actor%20Staff%0Aboundary%20Alert%0Aboundary%20MovieDialog%0Aboundary%20StaffUI%0Acontrol%20ManagementSystem%0Aparticipant%20Cinema%0Aentity%20MovieMapper%0Adatabase%20db%0A%0A%0AStaff-%3EStaffUI%3AaddMovie()%0Aactivate%20StaffUI%0A%0AStaffUI-%3E*MovieDialog%3AMovieDialog()%0Aactivate%20MovieDialog%0AMovieDialog--%3EStaffUI%3A%0Adeactivate%20MovieDialog%0A%0AStaffUI-%3EMovieDialog%3AshowAndWait()%0Aactivate%20MovieDialog%0AMovieDialog-%3EStaff%3A%0Aactivate%20Staff%0AStaff--%3EMovieDialog%3A%0Adeactivate%20Staff%0AMovieDialog-%3EStaffUI%3Areturn%20m%20%3A%20MovieInfo%0Adeactivate%20MovieDialog%0A%0AStaffUI-%3EManagementSystem%3AaddMovie(title%20%3A%20String%2C%20runningTime%20%3A%20int%2C%20year%20%3A%20int)%0Aactivate%20ManagementSystem%0A%0A%0AManagementSystem-%3EManagementSystem%3AcheckDoubleAdded(title%20%3A%20String%2C%20runningTime%20%3A%20Integer%2C%20year%20%3A%20Integer)%0A%0Aactivate%20ManagementSystem%0AManagementSystem-%3ECinema%3AcheckExistedMovie(title%20%3A%20String%2C%20runningTime%20%3A%20Integer%2C%20year%20%3A%20Integer)%0Aactivate%20Cinema%0ACinema-%3EMovieMapper%3AcheckExistedMovie(title%20%3A%20String%2C%20runningTime%20%3A%20Integer%2C%20year%20%3A%20Integer)%0Aactivate%20MovieMapper%0AMovieMapper-%3EMovieMapper%3AperformSelect(sql%20%3A%20String)%0Aactivate%20MovieMapper%0AMovieMapper-%3Edb%3AexecuteSelect(sql%20%3A%20String)%0Aactivate%20db%0Adb--%3EMovieMapper%3A%0Adeactivate%20db%0AMovieMapper--%3EMovieMapper%3Areturn%20true%0Adeactivate%20MovieMapper%0AMovieMapper--%3ECinema%3Areturn%20true%0Adeactivate%20MovieMapper%0ACinema--%3EManagementSystem%3Areturn%20true%0Adeactivate%20Cinema%0Anote%20over%20ManagementSystem%3Aanother%20movie%20is%20found%20that%20overlaps%20with%20this%0A%0AManagementSystem-%3EManagementSystem%3AobserverMessage(message%20%3A%20String%2C%20false%20%3A%20Boolean)%0Aactivate%20ManagementSystem%0A%0AManagementSystem-%3EStaffUI%3Amessage(message%20%3A%20String%2C%20false%20%3A%20Boolean)%0A%0Aactivate%20StaffUI%0AStaffUI-%3E*Alert%3AAlert(%20warning%20%3A%20AlertType)%0A%0Aactivate%20Alert%0AAlert--%3EStaffUI%3A%0Adeactivate%20Alert%0A%0AStaffUI-%3EAlert%3AshowAndWait()%3B%0A%0Aactivate%20Alert%0AAlert-%3EStaff%3A%0Aactivate%20Staff%0AStaff--%3EAlert%3A%0Adeactivate%20Staff%0AAlert--%3EStaffUI%3Areturn%20result%0Adeactivate%20Alert%0A%0AStaffUI--%3EManagementSystem%3Areturn%20false%0Adeactivate%20StaffUI%0A%0AManagementSystem--%3EManagementSystem%3Areturn%20false%0Adeactivate%20ManagementSystem%0A%0AManagementSystem--%3EManagementSystem%3Areturn%20false%0Adeactivate%20ManagementSystem%0A%0AManagementSystem--%3EStaffUI%3Areturn%20false%0A%0Adeactivate%20ManagementSystem%0AStaffUI--%3EStaff%3A%0Adeactivate%20StaffUI%0A</desc><defs/><g><g/><g/><g/><g/><g/><g/><g/><g/><g/><g/><g/><g/><g/><g/><g/><g/><g/><g/><g/><g/><g/><g/><g/><g/><g/><g/><g/><g/><g/><g/><g/><g><rect fill="white" stroke="none" x="0" y="0" width="1751" height="1538"/></g><g/><g><path fill="none" stroke="black" paint-order="fill stroke markers" d=" M 19.14542255 75.19219734400001 L 19.14542255 1538.6756265320007" stroke-miterlimit="10" stroke-width="1.1518412583333333" stroke-dasharray="10.632380846153845,4.607365033333333"/><path fill="none" stroke="black" paint-order="fill stroke markers" d=" M 70.358105732 1067.342183622 L 70.358105732 1538.6756265320007" stroke-miterlimit="10" stroke-width="1.1518412583333333" stroke-dasharray="10.632380846153845,4.607365033333333"/><path fill="none" stroke="black" paint-order="fill stroke markers" d=" M 184.54811906883333 202.90835606800002 L 184.54811906883333 1538.6756265320007" stroke-miterlimit="10" stroke-width="1.1518412583333333" stroke-dasharray="10.632380846153845,4.607365033333333"/><path fill="none" stroke="black" paint-order="fill stroke markers" d=" M 342.265267248 75.19219734400001 L 342.265267248 1538.6756265320007" stroke-miterlimit="10" stroke-width="1.1518412583333333" stroke-dasharray="10.632380846153845,4.607365033333333"/><path fill="none" stroke="black" paint-order="fill stroke markers" d=" M 668.1932676646667 75.19219734400001 L 668.1932676646667 1538.6756265320007" stroke-miterlimit="10" stroke-width="1.1518412583333333" stroke-dasharray="10.632380846153845,4.607365033333333"/><path fill="none" stroke="black" paint-order="fill stroke markers" d=" M 1100.4248937563334 75.19219734400001 L 1100.4248937563334 1538.6756265320007" stroke-miterlimit="10" stroke-width="1.1518412583333333" stroke-dasharray="10.632380846153845,4.607365033333333"/><path fill="none" stroke="black" paint-order="fill stroke markers" d=" M 1518.834424748 75.19219734400001 L 1518.834424748 1538.6756265320007" stroke-miterlimit="10" stroke-width="1.1518412583333333" stroke-dasharray="10.632380846153845,4.607365033333333"/><path fill="none" stroke="black" paint-order="fill stroke markers" d=" M 1716.4889876646666 75.19219734400001 L 1716.4889876646666 1538.6756265320007" stroke-miterlimit="10" stroke-width="1.1518412583333333" stroke-dasharray="10.632380846153845,4.607365033333333"/></g><g><g><path fill="white" stroke="black" paint-order="fill stroke markers" d=" M 27.024016757 16.724735071000005 A 7.878594207 7.878594207 0 1 1 27.024012817703223 16.7168564781061 M 19.14542255 24.603329278000004 L 19.14542255 41.4662853 M 9.193514078 30.685051122000004 L 29.097331022 30.685051122000004 M 19.14542255 41.4662853 L 9.193514078 57.22347371400001 M 19.14542255 41.4662853 L 29.097331022 57.22347371400001" stroke-miterlimit="10" stroke-width="2.3497561670000002" stroke-dasharray=""/></g><g><g/><text fill="black" stroke="none" font-family="sans-serif" font-size="9pt" font-style="normal" font-weight="normal" text-decoration="normal" x="6.911047549999999" y="71.045568814" text-anchor="start" dominant-baseline="alphabetic" xml:space="preserve">Staff</text></g><g><path fill="white" stroke="black" paint-order="fill stroke markers" d=" M 369.70212602149996 35.52278440700001 A 20.5258112235 20.5258112235 0 1 1 369.7021157585952 35.50225859919747 M 316.003286558 13.822095100000011 L 316.003286558 57.22347371400001 M 314.8284084745 35.52278440700001 L 328.65050357449996 35.52278440700001" stroke-miterlimit="10" stroke-width="2.3497561670000002" stroke-dasharray=""/></g><g><g/><text fill="black" stroke="none" font-family="sans-serif" font-size="9pt" font-style="normal" font-weight="normal" text-decoration="normal" x="324.030892248" y="71.045568814" text-anchor="start" dominant-baseline="alphabetic" xml:space="preserve">StaffUI</text></g><g><path fill="white" stroke="black" paint-order="fill stroke markers" d=" M 688.7190788881667 35.52278440700001 A 20.5258112235 20.5258112235 0 1 1 688.7190686252619 35.50225859919747 M 665.4288486446667 14.99697318350001 L 673.7221057046667 8.085925633500011 M 665.4288486446667 14.99697318350001 L 673.7221057046667 21.90802073350001" stroke-miterlimit="10" stroke-width="2.3497561670000002" stroke-dasharray=""/></g><g><g/><text fill="black" stroke="none" font-family="sans-serif" font-size="9pt" font-style="normal" font-weight="normal" text-decoration="normal" x="613.1678770396667" y="71.045568814" text-anchor="start" dominant-baseline="alphabetic" xml:space="preserve">ManagementSystem</text></g><path fill="none" stroke="none"/><g><path fill="white" stroke="black" paint-order="fill stroke markers" d=" M 1064.7531158853335 37.87254057400001 L 1136.0966716273335 37.87254057400001 L 1136.0966716273335 75.19219734400001 L 1064.7531158853335 75.19219734400001 L 1064.7531158853335 37.87254057400001 Z" stroke-miterlimit="10" stroke-width="2.211535216" stroke-dasharray=""/></g><g><g/><text fill="black" stroke="none" font-family="sans-serif" font-size="9pt" font-style="normal" font-weight="normal" text-decoration="normal" x="1079.7500890688334" y="61.370102243999995" text-anchor="start" dominant-baseline="alphabetic" xml:space="preserve">Cinema</text></g><g><path fill="white" stroke="black" paint-order="fill stroke markers" d=" M 1539.3602359715 33.64297947340001 A 20.5258112235 20.5258112235 0 1 1 1539.3602257085952 33.62245366559747 M 1497.1337354409998 56.04859563050001 L 1540.5351140550001 56.04859563050001" stroke-miterlimit="10" stroke-width="2.3497561670000002" stroke-dasharray=""/></g><g><g/><text fill="black" stroke="none" font-family="sans-serif" font-size="9pt" font-style="normal" font-weight="normal" text-decoration="normal" x="1482.4857919355" y="71.045568814" text-anchor="start" dominant-baseline="alphabetic" xml:space="preserve">MovieMapper</text></g><g><path fill="white" stroke="black" paint-order="fill stroke markers" d=" M 1696.3087288186666 48.10089094800001 L 1696.3087288186666 19.074491238000007 L 1736.6692465106667 19.074491238000007 L 1736.6692465106667 48.10089094800001" stroke-miterlimit="10" stroke-width="2.3497561670000002" stroke-dasharray=""/><path fill="white" stroke="black" paint-order="fill stroke markers" d=" M 1736.6692465106667 18.065478295700007 L 1736.6682375061328 18.15670260293715 L 1736.6652105934306 18.247917787819585 L 1736.6601660752492 18.339114728904843 L 1736.653104456036 18.430284306574812 L 1736.644026441947 18.521417403947694 L 1736.632932940776 18.612504907789702 L 1736.619825061864 18.703537709426353 L 1736.604704115988 18.794506705653347 L 1736.5875716152298 18.885402799646865 L 1736.5684292728254 18.976216901873258 L 1736.5472790029928 19.066939930997982 L 1736.5241229207418 19.15756281479372 L 1736.498963341661 19.248076491047623 L 1736.4718027816875 19.338471908467483 L 1736.4426439568545 19.42874002758689 L 1736.4114897830202 19.518871821669155 L 1736.3783433755762 19.608858277609983 L 1736.3432080491355 19.698690396838764 L 1736.3060873172014 19.788359196218437 L 1736.2669848918163 19.877855708943788 L 1736.22590468319 19.967170985438123 L 1736.1828507993093 20.05629609424822 L 1736.1378275455268 20.145222122937476 L 1736.09083942413 20.23394017897712 L 1736.0418911338922 20.322441390635486 L 1735.9909875696014 20.41071690786515 L 1735.9381338215717 20.498757903187958 L 1735.8833351751339 20.586555572577744 L 1735.826597110107 20.674101136340735 L 1735.7679253002502 20.7613858399935 L 1735.7073256126955 20.848400955138427 L 1735.6448041073613 20.935137780336497 L 1735.580367036346 21.021587641977483 L 1735.514020843303 21.107741895147257 L 1735.445772162796 21.193591924492296 L 1735.3756278196365 21.279129145081207 L 1735.3035948282004 21.364345003263217 L 1735.2296803917268 21.449230977523516 L 1735.1538919015977 21.533778579335415 L 1735.076236936599 21.617979354009194 L 1734.9967232621623 21.701824881537547 L 1734.915358829589 21.785306777437597 L 1734.8321517752543 21.868416693589317 L 1734.7471104197946 21.951146319070357 L 1734.6602432672744 22.033487380987104 L 1734.5715590043365 22.115431645301985 L 1734.4810664993336 22.196970917656856 L 1734.3887748014404 22.278097044192428 L 1734.29469313975 22.35880191236366 L 1734.1988309223502 22.43907745175098 L 1734.1011977353828 22.518915634867348 L 1734.001803342085 22.598308477960988 L 1733.9006576818135 22.677248041813744 L 1733.79777086905 22.75572643253502 L 1733.69315319239 22.83373580235114 L 1733.586815113514 22.911268350390124 L 1733.478767266141 22.988316323461788 L 1733.3690204549662 23.06487201683303 L 1733.2575856545789 23.140927774998303 L 1733.1444740083666 23.216475992445172 L 1733.0296968273992 23.291509114414854 L 1732.9132655892995 23.366019637657672 L 1732.7951919370944 23.4400001111834 L 1732.67548767805 23.51344313700633 L 1732.5541647824934 23.586341370885087 L 1732.4312353826126 23.658687523057033 L 1732.306711771245 23.73047435896723 L 1732.1806064006482 23.801694699991916 L 1732.0529318812542 23.872341424156335 L 1731.9237009804085 23.942407466846948 L 1731.7929266210933 24.011885821517872 L 1731.6606218806357 24.080769540391536 L 1731.5267999893995 24.149051735153456 L 1731.3914743294622 24.216725577641057 L 1731.2546584332772 24.283784300526488 L 1731.11636598232 24.350221197993342 L 1730.9766108057206 24.416029626407234 L 1730.8354068788801 24.481203004980163 L 1730.6927683220733 24.54573481642858 L 1730.5487093990373 24.609618607625126 L 1730.4032445155442 24.67284799024391 L 1730.2563882179613 24.73541664139936 L 1730.1081551917957 24.797318304278505 L 1729.958560260227 24.858546788766642 L 1729.8076183826229 24.919095972066344 L 1729.655344653046 24.978959799309735 L 1729.5017542987423 25.038132284163982 L 1729.3468626786191 25.09660750942991 L 1729.1906852817092 25.154379627633716 L 1729.0332377256225 25.21144286161173 L 1728.874535754983 25.267791505088102 L 1728.714595239856 25.323419923245446 L 1728.5534321741593 25.378322553288296 L 1728.3910626740653 25.432493904999404 L 1728.2275029763887 25.48592856128874 L 1728.0627694369632 25.53862117873521 L 1727.896878529005 25.59056648812097 L 1727.729846841467 25.641759294958376 L 1727.5616910773788 25.692194480009405 L 1727.3924280521765 25.741866999797576 L 1727.2220746920214 25.790771887112307 L 1727.050648032108 25.838904251505618 L 1726.8781652149592 25.886259279781186 L 1726.7046434887127 25.932832236475637 L 1726.530100205397 25.978618464332122 L 1726.354552819195 26.023613384766 L 1726.1780188846985 26.06781249832273 L 1726.0005160551545 26.11121138512779 L 1725.8220620806974 26.153805705328658 L 1725.6426748065765 26.195591199528817 L 1725.4623721713692 26.236563689213664 L 1725.2811722051893 26.276719077168373 L 1725.0990930278817 26.316053347887618 L 1724.9161528472132 26.354562567977098 L 1724.732369957049 26.392242886546896 L 1724.547762735525 26.429090535596558 L 1724.3623496432097 26.46510183039188 L 1724.1761492212574 26.5002731698334 L 1723.9891800895555 26.534601036816476 L 1723.8014609448612 26.568081998583022 L 1723.6130105589327 26.60071270706476 L 1723.4238477766512 26.63248989921803 L 1723.2339915141379 26.663410397350102 L 1723.0434607568602 26.693471109436928 L 1722.8522745577354 26.722669029432353 L 1722.660452035224 26.7510012375687 L 1722.4680123714184 26.77846490064878 L 1722.2749748101246 26.805057272329158 L 1722.081358654938 26.830775693394834 L 1721.8871832673126 26.855617592025126 L 1721.6924680646255 26.879580484050884 L 1721.4972325182346 26.90266197320286 L 1721.3014961515316 26.924859751351384 L 1721.1052785379907 26.946171598737138 L 1720.908599299209 26.96659538419314 L 1720.7114781029472 26.986129065357865 L 1720.5139346611602 27.00477068887948 L 1720.3159887280276 27.022518390611154 L 1720.1176600979777 27.03937039579752 L 1719.9189686037087 27.055325019252088 L 1719.7199341142039 27.070380665525818 L 1719.5205765327464 27.084535829066628 L 1719.3209157949286 27.097789094369954 L 1719.1209718666578 27.110139136120317 L 1718.92076474216 27.121584719323828 L 1718.720314441981 27.132124699431706 L 1718.5196410109834 27.141758022454724 L 1718.3187645163437 27.15048372506861 L 1718.1177050455435 27.15830093471037 L 1717.9164827043626 27.165208869665555 L 1717.7151176148673 27.17120683914643 L 1717.5136299133985 27.176294243361042 L 1717.3120397485588 27.180470573573206 L 1717.110367279197 27.18373541215339 L 1716.908632672391 27.186088432620444 L 1716.7068561014341 27.18752939967429 L 1716.505057743815 27.188058169219428 L 1716.3032577792017 27.187674688379335 L 1716.101476387422 27.186378995501777 L 1715.899733746447 27.184171220154965 L 1715.698050030373 27.181051583114595 L 1715.4964454074031 27.17702039634177 L 1715.2949400378318 27.172078062951805 L 1715.0935540720284 27.166225077173927 L 1714.8923076484211 27.159462024301828 L 1714.691220891485 27.15178958063516 L 1714.4903139097282 27.143208513411906 L 1714.289606793681 27.13371968073163 L 1714.0891196138884 27.12332403146969 L 1713.888872418901 27.112022605182354 L 1713.6888852332713 27.099816532002833 L 1713.4891780555513 27.086707032528267 L 1713.2897708562925 27.072695417697688 L 1713.0906835760484 27.057783088660898 L 1712.8919361233814 27.041971536638375 L 1712.6935483728707 27.025262342772145 L 1712.4955401631266 27.007657177967666 L 1712.2979312948048 26.98915780272675 L 1712.1007415286274 26.96976606697151 L 1711.9039905834068 26.94948390985936 L 1711.7076981340733 26.928313359589104 L 1711.5118838097087 26.906256533198132 L 1711.316567191582 26.883315636350694 L 1711.121767811192 26.859492963117372 L 1710.9275051483148 26.834790895745627 L 1710.733798629055 26.809211904421616 L 1710.5406676239024 26.78275854702315 L 1710.3481314457972 26.755433468863927 L 1710.1562093481964 26.727239402428996 L 1709.9649205231499 26.6981791671015 L 1709.7742840993808 26.668255668880757 L 1709.5843191403728 26.637471900091654 L 1709.3950446424635 26.605830939085415 L 1709.2064795329445 26.573335949931778 L 1709.01864266817 26.53999018210257 L 1708.8315528316703 26.505796970146797 L 1708.6452287322722 26.470759733357152 L 1708.4596890022312 26.43488197542812 L 1708.2749521953651 26.398167284105593 L 1708.0910367852011 26.360619330828115 L 1707.9079611631269 26.32224187035971 L 1707.725743636552 26.28303874041446 L 1707.544402427077 26.243013861272683 L 1707.3639556686721 26.20217123538894 L 1707.1844214058626 26.160514946991775 L 1707.0058175919253 26.11804916167533 L 1706.8281620870926 26.07477812598274 L 1706.651472656767 26.03070616698151 L 1706.4757669697442 25.985837691830824 L 1706.3010625964466 25.940177187340804 L 1706.1273770071662 25.893729219523845 L 1705.9547275703167 25.846498433138024 L 1705.783131550698 25.798489551222623 L 1705.6126061077691 25.74970737462582 L 1705.4431682939326 25.700156781524633 L 1705.2748350528282 25.64984272693707 L 1705.1076232176397 25.59877024222667 L 1704.9415495094117 25.546944434599336 L 1704.7766305353764 25.49437048659265 L 1704.6128827872935 25.441053655557596 L 1704.450322639802 25.386999273132844 L 1704.2889663487806 25.3322127447116 L 1704.128830049724 25.27669954890105 L 1703.969929756129 25.220465236974505 L 1703.8122813578923 25.163515432316306 L 1703.6559006197224 25.105855829859454 L 1703.5008031795628 25.04749219551615 L 1703.347004547028 24.98843036560119 L 1703.1945201018536 24.928676246248344 L 1703.043365092357 24.86823581281976 L 1702.8935546339126 24.807115109308405 L 1702.745103707442 24.74532024773371 L 1702.5980271579137 24.68285740753032 L 1702.4523396928605 24.61973283493021 L 1702.3080558809074 24.555952842338044 L 1702.165190150315 24.49152380769992 L 1702.0237567875379 24.42645217386562 L 1701.883769935794 24.360744447944292 L 1701.745243593652 24.294407200653783 L 1701.6081916136307 24.227447065663533 L 1701.472627700814 24.159870738931243 L 1701.33856541148 24.09168497803327 L 1701.2060181517459 24.022896601488892 L 1701.0749991762275 23.95351248807843 L 1700.9455215867129 23.883539576155414 L 1700.8175983308533 23.812984862952717 L 1700.6912422008677 23.741855403882866 L 1700.5664658322635 23.6701583118325 L 1700.443281702574 23.597900756451068 L 1700.3217021301093 23.5250899634339 L 1700.2017392727255 23.451733213799617 L 1700.0834051266079 23.377837843162055 L 1699.9667115250732 23.303411240996702 L 1699.8516701373837 23.228460849901744 L 1699.7382924675826 23.15299416485384 L 1699.6265898533422 23.077018732458605 L 1699.5165734648313 23.00054215019596 L 1699.4082543035966 22.923572065660405 L 1699.301643201464 22.846116175796254 L 1699.1967508194552 22.768182226127944 L 1699.0935876467206 22.6897780099855 L 1698.9921639994918 22.610911367725194 L 1698.8924900200486 22.53159018594554 L 1698.7945756757065 22.451822396698603 L 1698.698430757818 22.37161597669684 L 1698.6040648807946 22.29097894651542 L 1698.5114874811454 22.209919369790153 L 1698.4207078165336 22.128445352411166 L 1698.3317349648496 22.046565041712302 L 1698.2445778233048 21.9642866256564 L 1698.1592451075403 21.881618332016497 L 1698.075745350757 21.79856842755307 L 1697.9940869028605 21.715145217187356 L 1697.914277929628 21.631357043170873 L 1697.8363264118902 21.547212284251195 L 1697.7602401447336 21.4627193548341 L 1697.686026736722 21.377886704142114 L 1697.6136936091339 21.29272281536962 L 1697.5432479952221 21.207236204834516 L 1697.4746969394891 21.12143542112662 L 1697.4080472969836 21.03532904425281 L 1697.343305732614 20.948925684779006 L 1697.280478720483 20.862233982969162 L 1697.2195725432393 20.77526260792121 L 1697.1605932914501 20.688020256700185 L 1697.1035468629912 20.600515653468506 L 1697.048438962458 20.51275754861357 L 1696.9952751005944 20.424754717872737 L 1696.9440605937427 20.336515961455746 L 1696.8948005633108 20.2480501031647 L 1696.8474999352604 20.159365989511716 L 1696.8021634396152 20.07047248883425 L 1696.758795609987 19.98137849040829 L 1696.7174007831222 19.89209290355944 L 1696.6779830984694 19.80262465677198 L 1696.6405464977643 19.712982696796026 L 1696.6050947246354 19.62317598775288 L 1696.5716313242306 19.533213510238607 L 1696.5401596428621 19.443104260425986 L 1696.5106828276719 19.352857249164913 L 1696.4832038263169 19.262481501081304 L 1696.4577253866742 19.171986053674658 L 1696.4342500565667 19.0813799564143 L 1696.4127801835077 18.99067226983445 L 1696.393317914467 18.899872064628184 L 1696.3758651956546 18.80898842074035 L 1696.3604237723284 18.7180304264596 L 1696.3469951886177 18.627007177509565 L 1696.3355807873695 18.53592777613929 L 1696.3261817100147 18.44480133021301 L 1696.3187988964532 18.35363695229938 L 1696.31343308496 18.26244375876022 L 1696.3100848121119 18.171230868838894 L 1696.3087544127332 18.08000740374838 L 1696.309442019863 17.98878248575917 L 1696.312147564741 17.89756523728704 L 1696.316870776815 17.80636477998082 L 1696.3236111837678 17.71519023381025 L 1696.3323681115644 17.624050716153963 L 1696.3431406845189 17.532955340887774 L 1696.3559278253836 17.4419132174733 L 1696.3707282554544 17.350933450047012 L 1696.3875404947012 17.26002513650984 L 1696.4063628619137 17.16919736761737 L 1696.427193474871 17.07845922607082 L 1696.4500302505292 16.987819785608714 L 1696.4748709052299 16.897288110099574 L 1696.501712954928 16.8068732526355 L 1696.530553715441 16.716584254626905 L 1696.5613903027172 16.62643014489834 L 1696.5942196331232 16.536419938785652 L 1696.6290384237534 16.446562637234447 L 1696.6658431927576 16.356867225899993 L 1696.70463025969 16.26734267424868 L 1696.745395745876 16.177997934661075 L 1696.788135574801 16.08884194153668 L 1696.8328454725174 15.999883610400506 L 1696.8795209680732 15.911131837011538 L 1696.9281573939575 15.82259549647316 L 1696.978749886568 15.734283442345639 L 1697.031293386698 15.6462045057608 L 1697.085782640041 15.558367494538897 L 1697.1422121977173 15.47078119230786 L 1697.200576416818 15.383454357624922 L 1697.2608694609698 15.296395723100778 L 1697.3230853009186 15.209613994526332 L 1697.3872177151322 15.123117850002128 L 1697.4532602904228 15.036915939070532 L 1697.5212064225877 14.951016881850805 L 1697.5910493170704 14.865429268177088 L 1697.6627819896396 14.780161656739425 L 1697.736397267088 14.695222574227904 L 1697.811887787949 14.610620514479992 L 1697.8892460032332 14.526363937631164 L 1697.9684641771842 14.44246126926889 L 1698.04953438805 14.358920899590089 L 1698.1324485288771 14.27575118256211 L 1698.217198308321 14.19296043508735 L 1698.3037752514742 14.110556936171564 L 1698.3921707007141 14.028548926095976 L 1698.48237581657 13.946944605593249 L 1698.5743815786052 13.865752135027433 L 1698.6681787863201 13.784979633577926 L 1698.7637580600724 13.704635178427559 L 1698.8611098420142 13.624726803954896 L 1698.9602243970483 13.545262500930793 L 1699.0610918138018 13.466250215719334 L 1699.1637020056173 13.387697849483194 L 1699.268044711561 13.30961325739354 L 1699.3741094974494 13.23200424784451 L 1699.481885756892 13.154878581672381 L 1699.591362712353 13.078243971379504 L 1699.702529416228 13.002108080363044 L 1699.8153747519389 12.926478522148656 L 1699.9298874350466 12.851362859629138 L 1700.0460560143779 12.776768604308145 L 1700.1638688731719 12.702703215549048 L 1700.2833142302409 12.629174099829003 L 1700.4043801411485 12.556188609998305 L 1700.5270544994048 12.483754044545117 L 1700.651325037676 12.411877646865625 L 1700.7771793290121 12.340566604539697 L 1700.9046047880884 12.26982804861214 L 1701.0335886724656 12.199669052879603 L 1701.1641180838624 12.130096633183188 L 1701.2961799694467 12.06111774670689 L 1701.4297611231398 11.992739291281874 L 1701.5648481869378 11.924968104696699 L 1701.7014276522468 11.857810964013552 L 1701.8394858612342 11.791274584890534 L 1701.9790090081938 11.725365620910111 L 1702.1199831409276 11.660090662913756 L 1702.2623941621398 11.595456238342878 L 1702.4062278308465 11.531468810586066 L 1702.5514697638014 11.468134778332775 L 1702.6981054369314 11.405460474933456 L 1702.846120186792 11.343452167766216 L 1702.9954992120313 11.282116057610097 L 1703.1462275748715 11.221458278025008 L 1703.2982902026017 11.16148489473835 L 1703.4516718890857 11.10220190503848 L 1703.606357296283 11.043615237174969 L 1703.7623309557816 10.985730749765775 L 1703.9195772703458 10.928554231211407 L 1704.0780805154748 10.87209139911607 L 1704.2378248409761 10.816347899715922 L 1704.398794272551 10.76132930731445 L 1704.5609727133894 10.707041123725045 L 1704.7243439457834 10.653488777720831 L 1704.8888916327453 10.600677624491773 L 1705.0545993196438 10.548612945109191 L 1705.2214504358478 10.497299945997636 L 1705.3894282963854 10.446743758414254 L 1705.5585161036101 10.396949437935678 L 1705.7286969488825 10.347921963952459 L 1705.8999538142593 10.299666239171138 L 1706.072269574197 10.252187089123984 L 1706.2456269972633 10.20548926168643 L 1706.4200087478603 10.159577426602311 L 1706.595397387958 10.114456175016873 L 1706.7717753788388 10.070130019017672 L 1706.9491250828505 10.026603391183372 L 1707.1274287651706 9.983880644140482 L 1707.3066685955794 9.941966050128107 L 1707.486826650243 9.900863800570718 L 1707.6678849135064 9.86057800565902 L 1707.8498252796942 9.82111269393893 L 1708.032629554921 9.782471811908737 L 1708.216279458912 9.744659223624438 L 1708.4007566268294 9.707678710313356 L 1708.5860426111105 9.671533969996 L 1708.7721188833114 9.636228617116288 L 1708.9589668359595 9.60176618218008 L 1709.1465677844155 9.568150111402154 L 1709.334902968741 9.535383766361576 L 1709.5239535555743 9.503470423665544 L 1709.7137006400144 9.472413274621731 L 1709.9041252475108 9.442215424919162 L 1710.0952083357615 9.412879894317644 L 1710.286930796617 9.384409616345788 L 1710.4792734579912 9.35680743800767 L 1710.6722170857777 9.330076119498116 L 1710.8657423857749 9.304218333926707 L 1711.059830005614 9.27923666705045 L 1711.2544605366945 9.255133617015213 L 1711.449614516126 9.231911594105915 L 1711.6452724286728 9.209572920505497 L 1711.8414147087067 9.1881198300627 L 1712.0380217421632 9.167554468068694 L 1712.235073868503 9.147878891042538 L 1712.4325513826775 9.129095066525542 L 1712.6304345370997 9.1112048728845 L 1712.8287035436192 9.09421009912387 L 1713.0273385755006 9.078112444706866 L 1713.2263197694062 9.062913519385516 L 1713.4256272273826 9.048614843039683 L 1713.62524101885 9.03521784552509 L 1713.8251411825952 9.022723866530322 L 1714.025307728769 9.011134155442866 L 1714.225720640883 9.000449871224175 L 1714.4263598778136 8.990672082293766 L 1714.6272053758041 8.981801766422386 L 1714.828237050472 8.973839810634226 L 1715.0294347988172 8.966787011118234 L 1715.2307785012329 8.960644073148481 L 1715.4322480235162 8.955411611013648 L 1715.6338232188832 8.951090147955588 L 1715.835483929982 8.947680116117002 L 1716.0372099909098 8.945181856498236 L 1716.2389812292283 8.943595618923167 L 1716.4407774679823 8.942921562014233 L 1716.6425785277156 8.94315975317656 L 1716.8443642284906 8.944310168591237 L 1717.0461143919053 8.946372693217674 L 1717.2478088431117 8.949347120805129 L 1717.4494274128326 8.953233153913324 L 1717.650949939379 8.958030403942185 L 1717.8523562706662 8.963738391170708 L 1718.053626266229 8.970356544804925 L 1718.2547397992353 8.97788420303499 L 1718.4556767584997 8.98632061310135 L 1718.6564170504937 8.99566493137003 L 1718.8569406013553 9.00591622341699 L 1719.0572273588966 9.017073464121571 L 1719.2572572946085 9.029135537768996 L 1719.4570104056643 9.042101238161953 L 1719.6564667169196 9.055969268741208 L 1719.8556062829089 9.070738242715262 L 1720.054409189842 9.086406683199021 L 1720.2528555575939 9.102973023361494 L 1720.4509255416929 9.120435606582474 L 1720.6485993353058 9.138792686618187 L 1720.8458571712179 9.158042427775927 L 1721.0426793238103 9.178182905097621 L 1721.2390461110313 9.199212104552322 L 1721.4349378963661 9.221127923237606 L 1721.6303350907992 9.243928169589871 L 1721.8252181547743 9.267610563603478 L 1722.0195676001472 9.292172737058763 L 1722.2133639921353 9.317612233758847 L 1722.4065879512611 9.343926509775264 L 1722.5992201552895 9.371112933702335 L 1722.7912413411607 9.399168786920328 L 1722.982632306916 9.428091263867296 L 1723.1733739136184 9.45787747231965 L 1723.3634470872664 9.488524433681365 L 1723.5528328207006 9.520029083281843 L 1723.741512175506 9.55238827068238 L 1723.9294662839038 9.585598759991202 L 1724.11667635064 9.619657230187048 L 1724.3031236548643 9.654560275451288 L 1724.4887895520012 9.690304405508478 L 1724.6736554756158 9.726886045975398 L 1724.85770293927 9.764301538718486 L 1725.0409135383704 9.802547142219648 L 1725.2232689520101 9.841619031950406 L 1725.4047509447996 9.881513300754346 L 1725.585341368691 9.92222595923783 L 1725.7650221647923 9.963752936168941 L 1725.9437753651735 10.00609007888459 L 1726.1215830946635 10.049233153705785 L 1726.2984275726376 10.093177846360998 L 1726.4742911147955 10.137919762417582 L 1726.6491561349296 10.18345442772122 L 1726.8230051466833 10.229777288843323 L 1726.9958207653003 10.276883713536382 L 1727.1675857093633 10.324768991197185 L 1727.3382828025203 10.373428333337866 L 1727.5078949752046 10.422856874064767 L 1727.6764052663405 10.473049670564997 L 1727.8437968250387 10.52400170360074 L 1728.0100529122833 10.575707878011151 L 1728.1751569026042 10.628163023221877 L 1728.3390922857395 10.681361893762105 L 1728.5018426682877 10.73529916978912 L 1728.6633917753463 10.789969457620263 L 1728.8237234521393 10.84536729027231 L 1728.9828216656324 10.90148712800816 L 1729.1406705061368 10.958323358890807 L 1729.2972541889 11.015870299344526 L 1729.4525570556846 11.074122194723225 L 1729.6065635763327 11.133073219885913 L 1729.759258350321 11.192717479779198 L 1729.9106261082993 11.253049010026789 L 1730.060651713618 11.314061777525946 L 1730.2093201638415 11.375749681050758 L 1730.3566165922484 11.43810655186228 L 1730.502526269319 11.501126154325393 L 1730.6470346042072 11.564802186532368 L 1730.7901271461997 11.629128280933049 L 1730.9317895861616 11.6940980049716 L 1731.0720077579667 11.759704861729757 L 1731.2107676399153 11.825942290576517 L 1731.3480553561344 11.892803667824193 L 1731.483857177967 11.96028230739078 L 1731.6181595253436 12.02837146146855 L 1731.750948968142 12.097064321198838 L 1731.8822122275283 12.166354017352914 L 1732.0119361772859 12.236233621018904 L 1732.140107845128 12.306696144294676 L 1732.2667144139946 12.377734540986618 L 1732.3917432233343 12.449341707314261 L 1732.5151817703704 12.521510482620645 L 1732.637017711351 12.594233650088377 L 1732.7572388627837 12.667503937461316 L 1732.8758332026532 12.741314017771781 L 1732.9927888716247 12.815656510073252 L 1733.1080941742287 12.890523980178447 L 1733.221737580031 12.965908941402748 L 1733.3337077247854 13.04180385531285 L 1733.4439934115712 13.11820113248061 L 1733.5525836119116 13.195093133241976 L 1733.6594674668765 13.272472168460947 L 1733.76463428817 13.350330500298481 L 1733.8680735591977 13.42866034298628 L 1733.9697749361183 13.507453863605349 L 1734.069728248879 13.586703182869286 L 1734.167923502232 13.666400375912204 L 1734.2643508767335 13.746537473081217 L 1734.3590007297266 13.827106460733386 L 1734.4518635963047 13.908099282037085 L 1734.5429301902589 13.989507837777682 L 1734.6321914050052 14.071323987167439 L 1734.719638314497 14.1535395486596 L 1734.8052621741158 14.236146300766524 L 1734.8890544215471 14.319135982881845 L 1734.971006677636 14.402500296106505 L 1735.0511107472255 14.486230904078653 L 1735.129358619975 14.570319433807267 L 1735.2057424711625 14.654757476509447 L 1735.2802546624666 14.739536588451287 L 1735.3528877427304 14.824648291792245 L 1735.4236344487063 14.910084075432911 L 1735.4924877057824 14.995835395866116 L 1735.5594406286907 15.081893678031278 L 1735.6244865221945 15.168250316171896 L 1735.6876188817587 15.254896674696116 L 1735.7488313942001 15.341824089040294 L 1735.8081179383184 15.429023866535433 L 1735.8654725855085 15.516487287276451 L 1735.9208896003536 15.604205604994158 L 1735.9743634411982 15.692170047929883 L 1736.025888760703 15.780371819712634 L 1736.075460406379 15.868802100238737 L 1736.1230734211026 15.957452046553826 L 1736.1687230436125 16.046312793737147 L 1736.212404708984 16.135375455788033 L 1736.2541140490873 16.2246311265145 L 1736.293846893023 16.314070880423845 L 1736.3315992675398 16.40368577361522 L 1736.367367397432 16.49346684467398 L 1736.401147705916 16.583405115567835 L 1736.4329368149893 16.67349159254465 L 1736.4627315457674 16.763717267031794 L 1736.4905289188023 16.85407311653701 L 1736.5163261543796 16.944550105550636 L 1736.5401206727972 17.03513918644918 L 1736.5619100946235 17.12583130040003 L 1736.581692240934 17.216617378267376 L 1736.5994651335307 17.307488341519083 L 1736.6152269951392 17.398435103134553 L 1736.6289762495865 17.48944856851341 L 1736.6407115219586 17.580519636384963 L 1736.650431638738 17.67163919971832 L 1736.6581356279212 17.762798146633074 L 1736.6638227191154 17.8539873613105 L 1736.6674923436167 17.945197724905128 L 1736.6691441344653 18.0364201164566 M 1736.6692465106667 47.09187800570001 L 1736.6682375061328 47.18310231293715 L 1736.6652105934306 47.27431749781959 L 1736.6601660752492 47.365514438904846 L 1736.653104456036 47.45668401657481 L 1736.644026441947 47.547817113947694 L 1736.632932940776 47.638904617789706 L 1736.619825061864 47.729937419426356 L 1736.604704115988 47.82090641565335 L 1736.5875716152298 47.91180250964687 L 1736.5684292728254 48.002616611873265 L 1736.5472790029928 48.09333964099798 L 1736.5241229207418 48.18396252479373 L 1736.498963341661 48.27447620104763 L 1736.4718027816875 48.36487161846748 L 1736.4426439568545 48.45513973758689 L 1736.4114897830202 48.54527153166916 L 1736.3783433755762 48.63525798760998 L 1736.3432080491355 48.72509010683876 L 1736.3060873172014 48.81475890621844 L 1736.2669848918163 48.90425541894379 L 1736.22590468319 48.99357069543812 L 1736.1828507993093 49.082695804248225 L 1736.1378275455268 49.17162183293748 L 1736.09083942413 49.26033988897713 L 1736.0418911338922 49.34884110063549 L 1735.9909875696014 49.43711661786516 L 1735.9381338215717 49.525157613187965 L 1735.8833351751339 49.61295528257775 L 1735.826597110107 49.70050084634074 L 1735.7679253002502 49.78778554999351 L 1735.7073256126955 49.87480066513843 L 1735.6448041073613 49.961537490336504 L 1735.580367036346 50.04798735197749 L 1735.514020843303 50.134141605147256 L 1735.445772162796 50.2199916344923 L 1735.3756278196365 50.305528855081214 L 1735.3035948282004 50.39074471326322 L 1735.2296803917268 50.47563068752352 L 1735.1538919015977 50.56017828933542 L 1735.076236936599 50.64437906400919 L 1734.9967232621623 50.72822459153755 L 1734.915358829589 50.8117064874376 L 1734.8321517752543 50.894816403589324 L 1734.7471104197946 50.97754602907036 L 1734.6602432672744 51.059887090987104 L 1734.5715590043365 51.14183135530199 L 1734.4810664993336 51.22337062765686 L 1734.3887748014404 51.304496754192435 L 1734.29469313975 51.38520162236367 L 1734.1988309223502 51.46547716175098 L 1734.1011977353828 51.545315344867355 L 1734.001803342085 51.62470818796099 L 1733.9006576818135 51.70364775181375 L 1733.79777086905 51.78212614253502 L 1733.69315319239 51.86013551235114 L 1733.586815113514 51.93766806039013 L 1733.478767266141 52.014716033461795 L 1733.3690204549662 52.09127172683303 L 1733.2575856545789 52.1673274849983 L 1733.1444740083666 52.242875702445176 L 1733.0296968273992 52.31790882441486 L 1732.9132655892995 52.39241934765768 L 1732.7951919370944 52.4663998211834 L 1732.67548767805 52.539842847006334 L 1732.5541647824934 52.612741080885094 L 1732.4312353826126 52.68508723305703 L 1732.306711771245 52.756874068967235 L 1732.1806064006482 52.82809440999192 L 1732.0529318812542 52.89874113415634 L 1731.9237009804085 52.96880717684695 L 1731.7929266210933 53.03828553151787 L 1731.6606218806357 53.107169250391536 L 1731.5267999893995 53.175451445153456 L 1731.3914743294622 53.243125287641064 L 1731.2546584332772 53.31018401052649 L 1731.11636598232 53.37662090799334 L 1730.9766108057206 53.44242933640724 L 1730.8354068788801 53.507602714980166 L 1730.6927683220733 53.572134526428584 L 1730.5487093990373 53.63601831762513 L 1730.4032445155442 53.699247700243916 L 1730.2563882179613 53.76181635139937 L 1730.1081551917957 53.82371801427851 L 1729.958560260227 53.884946498766645 L 1729.8076183826229 53.945495682066344 L 1729.655344653046 54.00535950930974 L 1729.5017542987423 54.064531994163985 L 1729.3468626786191 54.123007219429915 L 1729.1906852817092 54.18077933763372 L 1729.0332377256225 54.237842571611736 L 1728.874535754983 54.294191215088105 L 1728.714595239856 54.349819633245446 L 1728.5534321741593 54.4047222632883 L 1728.3910626740653 54.45889361499941 L 1728.2275029763887 54.512328271288744 L 1728.0627694369632 54.56502088873521 L 1727.896878529005 54.61696619812098 L 1727.729846841467 54.66815900495838 L 1727.5616910773788 54.718594190009405 L 1727.3924280521765 54.76826670979758 L 1727.2220746920214 54.817171597112306 L 1727.050648032108 54.865303961505624 L 1726.8781652149592 54.912658989781185 L 1726.7046434887127 54.95923194647564 L 1726.530100205397 55.00501817433212 L 1726.354552819195 55.050013094766 L 1726.1780188846985 55.09421220832273 L 1726.0005160551545 55.137611095127795 L 1725.8220620806974 55.180205415328665 L 1725.6426748065765 55.22199090952882 L 1725.4623721713692 55.26296339921367 L 1725.2811722051893 55.30311878716838 L 1725.0990930278817 55.342453057887624 L 1724.9161528472132 55.3809622779771 L 1724.732369957049 55.418642596546896 L 1724.547762735525 55.45549024559656 L 1724.3623496432097 55.49150154039188 L 1724.1761492212574 55.5266728798334 L 1723.9891800895555 55.56100074681648 L 1723.8014609448612 55.594481708583025 L 1723.6130105589327 55.627112417064765 L 1723.4238477766512 55.658889609218036 L 1723.2339915141379 55.689810107350105 L 1723.0434607568602 55.719870819436935 L 1722.8522745577354 55.74906873943235 L 1722.660452035224 55.77740094756871 L 1722.4680123714184 55.80486461064878 L 1722.2749748101246 55.83145698232916 L 1722.081358654938 55.857175403394834 L 1721.8871832673126 55.88201730202513 L 1721.6924680646255 55.90598019405088 L 1721.4972325182346 55.92906168320286 L 1721.3014961515316 55.95125946135139 L 1721.1052785379907 55.972571308737145 L 1720.908599299209 55.99299509419315 L 1720.7114781029472 56.01252877535787 L 1720.5139346611602 56.03117039887948 L 1720.3159887280276 56.04891810061116 L 1720.1176600979777 56.065770105797526 L 1719.9189686037087 56.081724729252095 L 1719.7199341142039 56.096780375525825 L 1719.5205765327464 56.11093553906663 L 1719.3209157949286 56.12418880436996 L 1719.1209718666578 56.13653884612032 L 1718.92076474216 56.14798442932383 L 1718.720314441981 56.158524409431706 L 1718.5196410109834 56.16815773245473 L 1718.3187645163437 56.17688343506861 L 1718.1177050455435 56.184700644710375 L 1717.9164827043626 56.19160857966556 L 1717.7151176148673 56.197606549146435 L 1717.5136299133985 56.20269395336105 L 1717.3120397485588 56.20687028357321 L 1717.110367279197 56.21013512215339 L 1716.908632672391 56.212488142620444 L 1716.7068561014341 56.2139291096743 L 1716.505057743815 56.21445787921943 L 1716.3032577792017 56.21407439837934 L 1716.101476387422 56.21277870550178 L 1715.899733746447 56.21057093015497 L 1715.698050030373 56.2074512931146 L 1715.4964454074031 56.203420106341774 L 1715.2949400378318 56.19847777295181 L 1715.0935540720284 56.192624787173926 L 1714.8923076484211 56.18586173430183 L 1714.691220891485 56.17818929063517 L 1714.4903139097282 56.16960822341191 L 1714.289606793681 56.16011939073163 L 1714.0891196138884 56.14972374146969 L 1713.888872418901 56.13842231518235 L 1713.6888852332713 56.12621624200283 L 1713.4891780555513 56.113106742528274 L 1713.2897708562925 56.099095127697694 L 1713.0906835760484 56.084182798660905 L 1712.8919361233814 56.06837124663838 L 1712.6935483728707 56.051662052772144 L 1712.4955401631266 56.034056887967665 L 1712.2979312948048 56.01555751272676 L 1712.1007415286274 55.996165776971516 L 1711.9039905834068 55.97588361985936 L 1711.7076981340733 55.954713069589104 L 1711.5118838097087 55.93265624319813 L 1711.316567191582 55.9097153463507 L 1711.121767811192 55.885892673117375 L 1710.9275051483148 55.861190605745634 L 1710.733798629055 55.835611614421616 L 1710.5406676239024 55.80915825702316 L 1710.3481314457972 55.781833178863934 L 1710.1562093481964 55.753639112429 L 1709.9649205231499 55.72457887710151 L 1709.7742840993808 55.69465537888076 L 1709.5843191403728 55.66387161009166 L 1709.3950446424635 55.63223064908542 L 1709.2064795329445 55.59973565993178 L 1709.01864266817 55.56638989210258 L 1708.8315528316703 55.5321966801468 L 1708.6452287322722 55.497159443357155 L 1708.4596890022312 55.46128168542812 L 1708.2749521953651 55.4245669941056 L 1708.0910367852011 55.387019040828115 L 1707.9079611631269 55.34864158035972 L 1707.725743636552 55.30943845041446 L 1707.544402427077 55.269413571272686 L 1707.3639556686721 55.22857094538894 L 1707.1844214058626 55.18691465699178 L 1707.0058175919253 55.14444887167533 L 1706.8281620870926 55.10117783598274 L 1706.651472656767 55.05710587698152 L 1706.4757669697442 55.01223740183083 L 1706.3010625964466 54.96657689734081 L 1706.1273770071662 54.92012892952385 L 1705.9547275703167 54.87289814313803 L 1705.783131550698 54.82488926122262 L 1705.6126061077691 54.77610708462583 L 1705.4431682939326 54.72655649152463 L 1705.2748350528282 54.67624243693707 L 1705.1076232176397 54.62516995222667 L 1704.9415495094117 54.57334414459934 L 1704.7766305353764 54.52077019659265 L 1704.6128827872935 54.467453365557596 L 1704.450322639802 54.41339898313285 L 1704.2889663487806 54.358612454711604 L 1704.128830049724 54.30309925890105 L 1703.969929756129 54.24686494697451 L 1703.8122813578923 54.18991514231631 L 1703.6559006197224 54.13225553985946 L 1703.5008031795628 54.073891905516156 L 1703.347004547028 54.014830075601196 L 1703.1945201018536 53.95507595624835 L 1703.043365092357 53.89463552281976 L 1702.8935546339126 53.83351481930841 L 1702.745103707442 53.77171995773371 L 1702.5980271579137 53.70925711753032 L 1702.4523396928605 53.64613254493022 L 1702.3080558809074 53.582352552338044 L 1702.165190150315 53.51792351769993 L 1702.0237567875379 53.45285188386562 L 1701.883769935794 53.3871441579443 L 1701.745243593652 53.320806910653786 L 1701.6081916136307 53.25384677566353 L 1701.472627700814 53.186270448931246 L 1701.33856541148 53.11808468803328 L 1701.2060181517459 53.049296311488895 L 1701.0749991762275 52.97991219807844 L 1700.9455215867129 52.909939286155414 L 1700.8175983308533 52.83938457295272 L 1700.6912422008677 52.76825511388287 L 1700.5664658322635 52.6965580218325 L 1700.443281702574 52.62430046645107 L 1700.3217021301093 52.5514896734339 L 1700.2017392727255 52.47813292379962 L 1700.0834051266079 52.40423755316206 L 1699.9667115250732 52.3298109509967 L 1699.8516701373837 52.25486055990175 L 1699.7382924675826 52.179393874853844 L 1699.6265898533422 52.103418442458604 L 1699.5165734648313 52.02694186019596 L 1699.4082543035966 51.94997177566041 L 1699.301643201464 51.87251588579626 L 1699.1967508194552 51.79458193612795 L 1699.0935876467206 51.7161777199855 L 1698.9921639994918 51.6373110777252 L 1698.8924900200486 51.55798989594554 L 1698.7945756757065 51.47822210669861 L 1698.698430757818 51.398015686696844 L 1698.6040648807946 51.31737865651542 L 1698.5114874811454 51.23631907979016 L 1698.4207078165336 51.15484506241117 L 1698.3317349648496 51.072964751712306 L 1698.2445778233048 50.990686335656406 L 1698.1592451075403 50.9080180420165 L 1698.075745350757 50.82496813755307 L 1697.9940869028605 50.74154492718736 L 1697.914277929628 50.65775675317087 L 1697.8363264118902 50.573611994251195 L 1697.7602401447336 50.4891190648341 L 1697.686026736722 50.40428641414212 L 1697.6136936091339 50.31912252536962 L 1697.5432479952221 50.233635914834515 L 1697.4746969394891 50.14783513112663 L 1697.4080472969836 50.06172875425281 L 1697.343305732614 49.975325394779006 L 1697.280478720483 49.888633692969165 L 1697.2195725432393 49.80166231792121 L 1697.1605932914501 49.71441996670019 L 1697.1035468629912 49.626915363468505 L 1697.048438962458 49.53915725861357 L 1696.9952751005944 49.45115442787274 L 1696.9440605937427 49.362915671455745 L 1696.8948005633108 49.27444981316471 L 1696.8474999352604 49.18576569951172 L 1696.8021634396152 49.09687219883425 L 1696.758795609987 49.007778200408296 L 1696.7174007831222 48.918492613559444 L 1696.6779830984694 48.82902436677198 L 1696.6405464977643 48.73938240679603 L 1696.6050947246354 48.64957569775289 L 1696.5716313242306 48.55961322023861 L 1696.5401596428621 48.46950397042599 L 1696.5106828276719 48.37925695916492 L 1696.4832038263169 48.28888121108131 L 1696.4577253866742 48.198385763674665 L 1696.4342500565667 48.1077796664143 L 1696.4127801835077 48.017071979834455 L 1696.393317914467 47.92627177462819 L 1696.3758651956546 47.835388130740355 L 1696.3604237723284 47.744430136459606 L 1696.3469951886177 47.65340688750957 L 1696.3355807873695 47.562327486139296 L 1696.3261817100147 47.47120104021301 L 1696.3187988964532 47.38003666229938 L 1696.31343308496 47.28884346876023 L 1696.3100848121119 47.1976305788389 L 1696.3087544127332 47.10640711374838" stroke-miterlimit="10" stroke-width="2.3497561670000002" stroke-dasharray=""/></g><g><g/><text fill="black" stroke="none" font-family="sans-serif" font-size="9pt" font-style="normal" font-weight="normal" text-decoration="normal" x="1709.8151595396666" y="71.045568814" text-anchor="start" dominant-baseline="alphabetic" xml:space="preserve">db</text></g></g><g><path fill="white" stroke="black" paint-order="fill stroke markers" d=" M 335.354219698 120.80511117400002 L 349.17631479799996 120.80511117400002 L 349.17631479799996 1490.2982936820008 L 335.354219698 1490.2982936820008 L 335.354219698 120.80511117400002" stroke-miterlimit="10" stroke-width="1.1518412583333333" stroke-dasharray=""/><path fill="white" stroke="black" paint-order="fill stroke markers" d=" M 177.63707151883332 202.90835606800002 L 191.45916661883334 202.90835606800002 L 191.45916661883334 241.61022234800004 L 177.63707151883332 241.61022234800004 L 177.63707151883332 202.90835606800002" stroke-miterlimit="10" stroke-width="1.1518412583333333" stroke-dasharray=""/><path fill="white" stroke="black" paint-order="fill stroke markers" d=" M 177.63707151883332 280.312088628 L 191.45916661883334 280.312088628 L 191.45916661883334 396.417687468 L 177.63707151883332 396.417687468 L 177.63707151883332 280.312088628" stroke-miterlimit="10" stroke-width="1.1518412583333333" stroke-dasharray=""/><path fill="white" stroke="black" paint-order="fill stroke markers" d=" M 12.234375 319.013954908 L 26.0564701 319.013954908 L 26.0564701 357.715821188 L 12.234375 357.715821188 L 12.234375 319.013954908" stroke-miterlimit="10" stroke-width="1.1518412583333333" stroke-dasharray=""/><path fill="white" stroke="black" paint-order="fill stroke markers" d=" M 661.2822201146666 435.119553748 L 675.1043152146667 435.119553748 L 675.1043152146667 1451.5964274020007 L 661.2822201146666 1451.5964274020007 L 661.2822201146666 435.119553748" stroke-miterlimit="10" stroke-width="1.1518412583333333" stroke-dasharray=""/><path fill="white" stroke="black" paint-order="fill stroke markers" d=" M 668.1932676646667 491.790143658 L 682.0153627646667 491.790143658 L 682.0153627646667 1394.9258374920005 L 668.1932676646667 1394.9258374920005 L 668.1932676646667 491.790143658" stroke-miterlimit="10" stroke-width="1.1518412583333333" stroke-dasharray=""/><path fill="white" stroke="black" paint-order="fill stroke markers" d=" M 1093.5138462063335 530.492009938 L 1107.3359413063333 530.492009938 L 1107.3359413063333 837.342521158 L 1093.5138462063335 837.342521158 L 1093.5138462063335 530.492009938" stroke-miterlimit="10" stroke-width="1.1518412583333333" stroke-dasharray=""/><path fill="white" stroke="black" paint-order="fill stroke markers" d=" M 1511.923377198 569.193876218 L 1525.7454722979999 569.193876218 L 1525.7454722979999 798.640654878 L 1511.923377198 798.640654878 L 1511.923377198 569.193876218" stroke-miterlimit="10" stroke-width="1.1518412583333333" stroke-dasharray=""/><path fill="white" stroke="black" paint-order="fill stroke markers" d=" M 1518.834424748 625.864466128 L 1532.6565198479998 625.864466128 L 1532.6565198479998 741.970064968 L 1518.834424748 741.970064968 L 1518.834424748 625.864466128" stroke-miterlimit="10" stroke-width="1.1518412583333333" stroke-dasharray=""/><path fill="white" stroke="black" paint-order="fill stroke markers" d=" M 1709.5779401146667 664.566332408 L 1723.4000352146666 664.566332408 L 1723.4000352146666 703.268198688 L 1709.5779401146667 703.268198688 L 1709.5779401146667 664.566332408" stroke-miterlimit="10" stroke-width="1.1518412583333333" stroke-dasharray=""/><path fill="white" stroke="black" paint-order="fill stroke markers" d=" M 675.1043152146666 946.5370724479999 L 688.9264103146667 946.5370724479999 L 688.9264103146667 1338.2552475820007 L 675.1043152146666 1338.2552475820007 L 675.1043152146666 946.5370724479999" stroke-miterlimit="10" stroke-width="1.1518412583333333" stroke-dasharray=""/><path fill="white" stroke="black" paint-order="fill stroke markers" d=" M 342.265267248 985.2389387279999 L 356.08736234799994 985.2389387279999 L 356.08736234799994 1299.5533813020006 L 342.265267248 1299.5533813020006 L 342.265267248 985.2389387279999" stroke-miterlimit="10" stroke-width="1.1518412583333333" stroke-dasharray=""/><path fill="white" stroke="black" paint-order="fill stroke markers" d=" M 63.447058182 1067.342183622 L 77.269153282 1067.342183622 L 77.269153282 1106.044049902 L 63.447058182 1106.044049902 L 63.447058182 1067.342183622" stroke-miterlimit="10" stroke-width="1.1518412583333333" stroke-dasharray=""/><path fill="white" stroke="black" paint-order="fill stroke markers" d=" M 63.447058182 1144.7459161820002 L 77.269153282 1144.7459161820002 L 77.269153282 1260.8515150220005 L 63.447058182 1260.8515150220005 L 63.447058182 1144.7459161820002" stroke-miterlimit="10" stroke-width="1.1518412583333333" stroke-dasharray=""/><path fill="white" stroke="black" paint-order="fill stroke markers" d=" M 12.234375 1183.4477824620003 L 26.0564701 1183.4477824620003 L 26.0564701 1222.1496487420004 L 12.234375 1222.1496487420004 L 12.234375 1183.4477824620003" stroke-miterlimit="10" stroke-width="1.1518412583333333" stroke-dasharray=""/><g><g><rect fill="white" stroke="none" x="145.16478810900003" y="102.83638754400002" width="64.17006603" height="17.96872363"/></g><text fill="black" stroke="none" font-family="sans-serif" font-size="9pt" font-style="normal" font-weight="normal" text-decoration="normal" x="147.23810237400002" y="115.27627313400002" text-anchor="start" dominant-baseline="alphabetic" xml:space="preserve">addMovie()</text></g><g><path fill="none" stroke="black" paint-order="fill stroke markers" d=" M 19.14542255 120.80511117400002 L 323.9740280656667 120.80511117400002" stroke-miterlimit="10" stroke-width="1.1518412583333333" stroke-dasharray=""/><g transform="translate(335.354219698,120.80511117400002) translate(-335.354219698,-120.80511117400002)"><path fill="black" stroke="none" paint-order="stroke fill markers" d=" M 323.8358071146667 115.04590488233335 L 335.354219698 120.80511117400002 L 323.8358071146667 126.56431746566669 Z"/></g></g><g><path fill="white" stroke="black" paint-order="fill stroke markers" d=" M 211.98497784233334 162.06406504749998 A 20.5258112235 20.5258112235 0 1 1 211.98496757942857 162.04353923969742 M 158.28613837883333 140.36337574049998 L 158.28613837883333 183.76475435449998 M 157.11126029533332 162.06406504749998 L 170.93335539533334 162.06406504749998" stroke-miterlimit="10" stroke-width="2.3497561670000002" stroke-dasharray=""/></g><g><g/><text fill="black" stroke="none" font-family="sans-serif" font-size="9pt" font-style="normal" font-weight="normal" text-decoration="normal" x="151.53347063133333" y="197.5868494545" text-anchor="start" dominant-baseline="alphabetic" xml:space="preserve">MovieDialog</text></g><g><g><rect fill="white" stroke="none" x="237.37443714966665" y="154.254581316" width="78.168112905" height="17.96872363"/></g><text fill="black" stroke="none" font-family="sans-serif" font-size="9pt" font-style="normal" font-weight="normal" text-decoration="normal" x="239.44775141466664" y="166.69446690600003" text-anchor="start" dominant-baseline="alphabetic" xml:space="preserve">MovieDialog()</text></g><g><path fill="none" stroke="black" paint-order="fill stroke markers" d=" M 335.354219698 172.223304946 L 228.94295913866665 172.223304946" stroke-miterlimit="10" stroke-width="1.1518412583333333" stroke-dasharray=""/><g transform="translate(217.56276750633333,172.223304946) translate(-217.56276750633333,-172.223304946)"><path fill="black" stroke="none" paint-order="stroke fill markers" d=" M 229.08118008966667 166.46409865433336 L 217.56276750633333 172.223304946 L 229.08118008966667 177.98251123766667 Z"/></g></g><g><g><rect fill="white" stroke="none" x="261.33337889341664" y="223.64149871800004" width="4.14662853" height="17.96872363"/></g><text fill="black" stroke="none" font-family="sans-serif" font-size="9pt" font-style="normal" font-weight="normal" text-decoration="normal" x="263.40669315841666" y="236.08138430800005" text-anchor="start" dominant-baseline="alphabetic" xml:space="preserve"></text></g><g><path fill="none" stroke="black" paint-order="fill stroke markers" d=" M 191.45916661883334 241.61022234800004 L 323.9740280656667 241.61022234800004" stroke-miterlimit="10" stroke-width="1.1518412583333333" stroke-dasharray="5.52883804"/><g transform="translate(335.354219698,241.61022234800004) translate(-335.354219698,-241.61022234800004)"><path fill="black" stroke="none" paint-order="stroke fill markers" d=" M 323.8358071146667 235.85101605633338 L 335.354219698 241.61022234800004 L 323.8358071146667 247.3694286396667 Z"/></g></g><g><g><rect fill="white" stroke="none" x="220.87439451841666" y="262.343364998" width="85.06459728" height="17.96872363"/></g><text fill="black" stroke="none" font-family="sans-serif" font-size="9pt" font-style="normal" font-weight="normal" text-decoration="normal" x="222.94770878341666" y="274.78325058800004" text-anchor="start" dominant-baseline="alphabetic" xml:space="preserve">showAndWait()</text></g><g><path fill="none" stroke="black" paint-order="fill stroke markers" d=" M 335.354219698 280.312088628 L 202.83935825116666 280.312088628" stroke-miterlimit="10" stroke-width="1.1518412583333333" stroke-dasharray=""/><g transform="translate(191.45916661883334,280.312088628) translate(-191.45916661883334,-280.312088628)"><path fill="black" stroke="none" paint-order="stroke fill markers" d=" M 202.97757920216668 274.55288233633337 L 191.45916661883334 280.312088628 L 202.97757920216668 286.0712949196667 Z"/></g></g><g><g><rect fill="white" stroke="none" x="99.77345654441667" y="301.045231278" width="4.14662853" height="17.96872363"/></g><text fill="black" stroke="none" font-family="sans-serif" font-size="9pt" font-style="normal" font-weight="normal" text-decoration="normal" x="101.84677080941667" y="313.48511686800003" text-anchor="start" dominant-baseline="alphabetic" xml:space="preserve"></text></g><g><path fill="none" stroke="black" paint-order="fill stroke markers" d=" M 177.63707151883332 319.013954908 L 37.436661732333334 319.013954908" stroke-miterlimit="10" stroke-width="1.1518412583333333" stroke-dasharray=""/><g transform="translate(26.0564701,319.013954908) translate(-26.0564701,-319.013954908)"><path fill="black" stroke="none" paint-order="stroke fill markers" d=" M 37.57488268333333 313.25474861633336 L 26.0564701 319.013954908 L 37.57488268333333 324.7731611996667 Z"/></g></g><g><g><rect fill="white" stroke="none" x="99.77345654441667" y="339.747097558" width="4.14662853" height="17.96872363"/></g><text fill="black" stroke="none" font-family="sans-serif" font-size="9pt" font-style="normal" font-weight="normal" text-decoration="normal" x="101.84677080941667" y="352.186983148" text-anchor="start" dominant-baseline="alphabetic" xml:space="preserve"></text></g><g><path fill="none" stroke="black" paint-order="fill stroke markers" d=" M 26.0564701 357.715821188 L 166.2568798865 357.715821188" stroke-miterlimit="10" stroke-width="1.1518412583333333" stroke-dasharray="5.52883804"/><g transform="translate(177.63707151883332,357.715821188) translate(-177.63707151883332,-357.715821188)"><path fill="black" stroke="none" paint-order="stroke fill markers" d=" M 166.11865893549998 351.95661489633335 L 177.63707151883332 357.715821188 L 166.11865893549998 363.47502747966666 Z"/></g></g><g><g><rect fill="white" stroke="none" x="207.98083983091666" y="378.448963838" width="110.851706655" height="17.96872363"/></g><text fill="black" stroke="none" font-family="sans-serif" font-size="9pt" font-style="normal" font-weight="normal" text-decoration="normal" x="210.05415409591666" y="390.888849428" text-anchor="start" dominant-baseline="alphabetic" xml:space="preserve">returnm:MovieInfo</text></g><g><path fill="none" stroke="black" paint-order="fill stroke markers" d=" M 191.45916661883334 396.417687468 L 323.9740280656667 396.417687468" stroke-miterlimit="10" stroke-width="1.1518412583333333" stroke-dasharray=""/><g transform="translate(335.354219698,396.417687468) translate(-335.354219698,-396.417687468)"><path fill="black" stroke="none" paint-order="stroke fill markers" d=" M 323.8358071146667 390.65848117633334 L 335.354219698 396.417687468 L 323.8358071146667 402.17689375966665 Z"/></g></g><g><g><rect fill="white" stroke="none" x="368.9879844413333" y="417.150830118" width="272.48256603" height="17.96872363"/></g><text fill="black" stroke="none" font-family="sans-serif" font-size="9pt" font-style="normal" font-weight="normal" text-decoration="normal" x="371.06129870633333" y="429.590715708" text-anchor="start" dominant-baseline="alphabetic" xml:space="preserve">addMovie(title:String,runningTime:int,year:int)</text></g><g><path fill="none" stroke="black" paint-order="fill stroke markers" d=" M 349.17631479799996 435.119553748 L 649.9020284823333 435.119553748" stroke-miterlimit="10" stroke-width="1.1518412583333333" stroke-dasharray=""/><g transform="translate(661.2822201146666,435.119553748) translate(-661.2822201146666,-435.119553748)"><path fill="black" stroke="none" paint-order="stroke fill markers" d=" M 649.7638075313333 429.36034745633333 L 661.2822201146666 435.119553748 L 649.7638075313333 440.87876003966664 Z"/></g></g><g><g><rect fill="white" stroke="none" x="698.371508633" y="455.852696398" width="373.24037853" height="17.96872363"/></g><text fill="black" stroke="none" font-family="sans-serif" font-size="9pt" font-style="normal" font-weight="normal" text-decoration="normal" x="700.444822898" y="468.292581988" text-anchor="start" dominant-baseline="alphabetic" xml:space="preserve">checkDoubleAdded(title:String,runningTime:Integer,year:Integer)</text></g><g><path fill="none" stroke="black" paint-order="fill stroke markers" d=" M 675.1043152146667 473.821420028 L 737.3037431646667 473.821420028 L 737.3037431646667 491.790143658 L 693.395554397 491.790143658" stroke-miterlimit="10" stroke-width="1.1518412583333333" stroke-dasharray=""/><g transform="translate(682.0153627646666,491.790143658) translate(-682.0153627646666,-491.790143658)"><path fill="black" stroke="none" paint-order="stroke fill markers" d=" M 693.533775348 486.0309373663333 L 682.0153627646666 491.790143658 L 693.533775348 497.54934994966663 Z"/></g></g><g><g><rect fill="white" stroke="none" x="701.827032408" y="512.523286308" width="371.875144155" height="17.96872363"/></g><text fill="black" stroke="none" font-family="sans-serif" font-size="9pt" font-style="normal" font-weight="normal" text-decoration="normal" x="703.9003466730001" y="524.963171898" text-anchor="start" dominant-baseline="alphabetic" xml:space="preserve">checkExistedMovie(title:String,runningTime:Integer,year:Integer)</text></g><g><path fill="none" stroke="black" paint-order="fill stroke markers" d=" M 682.0153627646666 530.492009938 L 1082.133654574 530.492009938" stroke-miterlimit="10" stroke-width="1.1518412583333333" stroke-dasharray=""/><g transform="translate(1093.5138462063335,530.492009938) translate(-1093.5138462063335,-530.492009938)"><path fill="black" stroke="none" paint-order="stroke fill markers" d=" M 1081.995433623 524.7328036463333 L 1093.5138462063335 530.492009938 L 1081.995433623 536.2512162296667 Z"/></g></g><g><g><rect fill="white" stroke="none" x="1123.6920871746668" y="551.225152588" width="371.875144155" height="17.96872363"/></g><text fill="black" stroke="none" font-family="sans-serif" font-size="9pt" font-style="normal" font-weight="normal" text-decoration="normal" x="1125.7654014396667" y="563.6650381779999" text-anchor="start" dominant-baseline="alphabetic" xml:space="preserve">checkExistedMovie(title:String,runningTime:Integer,year:Integer)</text></g><g><path fill="none" stroke="black" paint-order="fill stroke markers" d=" M 1107.3359413063333 569.193876218 L 1500.5431855656666 569.193876218" stroke-miterlimit="10" stroke-width="1.1518412583333333" stroke-dasharray=""/><g transform="translate(1511.923377198,569.193876218) translate(-1511.923377198,-569.193876218)"><path fill="black" stroke="none" paint-order="stroke fill markers" d=" M 1500.4049646146666 563.4346699263333 L 1511.923377198 569.193876218 L 1500.4049646146666 574.9530825096667 Z"/></g></g><g><g><rect fill="white" stroke="none" x="1549.0126657163335" y="589.927018868" width="143.523581655" height="17.96872363"/></g><text fill="black" stroke="none" font-family="sans-serif" font-size="9pt" font-style="normal" font-weight="normal" text-decoration="normal" x="1551.0859799813334" y="602.3669044579999" text-anchor="start" dominant-baseline="alphabetic" xml:space="preserve">performSelect(sql:String)</text></g><g><path fill="none" stroke="black" paint-order="fill stroke markers" d=" M 1525.7454722979999 607.895742498 L 1587.944900248 607.895742498 L 1587.944900248 625.864466128 L 1544.0367114803335 625.864466128" stroke-miterlimit="10" stroke-width="1.1518412583333333" stroke-dasharray=""/><g transform="translate(1532.656519848,625.864466128) translate(-1532.656519848,-625.864466128)"><path fill="black" stroke="none" paint-order="stroke fill markers" d=" M 1544.1749324313334 620.1052598363333 L 1532.656519848 625.864466128 L 1544.1749324313334 631.6236724196667 Z"/></g></g><g><g><rect fill="white" stroke="none" x="1549.0126657163335" y="646.597608778" width="144.20912853" height="17.96872363"/></g><text fill="black" stroke="none" font-family="sans-serif" font-size="9pt" font-style="normal" font-weight="normal" text-decoration="normal" x="1551.0859799813334" y="659.0374943679999" text-anchor="start" dominant-baseline="alphabetic" xml:space="preserve">executeSelect(sql:String)</text></g><g><path fill="none" stroke="black" paint-order="fill stroke markers" d=" M 1532.656519848 664.566332408 L 1698.1977484823333 664.566332408" stroke-miterlimit="10" stroke-width="1.1518412583333333" stroke-dasharray=""/><g transform="translate(1709.5779401146667,664.566332408) translate(-1709.5779401146667,-664.566332408)"><path fill="black" stroke="none" paint-order="stroke fill markers" d=" M 1698.0595275313333 658.8071261163333 L 1709.5779401146667 664.566332408 L 1698.0595275313333 670.3255386996667 Z"/></g></g><g><g><rect fill="white" stroke="none" x="1619.0439157163335" y="685.299475058" width="4.14662853" height="17.96872363"/></g><text fill="black" stroke="none" font-family="sans-serif" font-size="9pt" font-style="normal" font-weight="normal" text-decoration="normal" x="1621.1172299813334" y="697.7393606479999" text-anchor="start" dominant-baseline="alphabetic" xml:space="preserve"></text></g><g><path fill="none" stroke="black" paint-order="fill stroke markers" d=" M 1709.5779401146667 703.268198688 L 1544.0367114803335 703.268198688" stroke-miterlimit="10" stroke-width="1.1518412583333333" stroke-dasharray="5.52883804"/><g transform="translate(1532.656519848,703.268198688) translate(-1532.656519848,-703.268198688)"><path fill="black" stroke="none" paint-order="stroke fill markers" d=" M 1544.1749324313334 697.5089923963333 L 1532.656519848 703.268198688 L 1544.1749324313334 709.0274049796667 Z"/></g></g><g><g><rect fill="white" stroke="none" x="1549.0126657163335" y="724.001341338" width="59.50600353" height="17.96872363"/></g><text fill="black" stroke="none" font-family="sans-serif" font-size="9pt" font-style="normal" font-weight="normal" text-decoration="normal" x="1551.0859799813334" y="736.4412269279999" text-anchor="start" dominant-baseline="alphabetic" xml:space="preserve">returntrue</text></g><g><path fill="none" stroke="black" paint-order="fill stroke markers" d=" M 1532.656519848 741.970064968 L 1587.944900248 741.970064968 L 1587.944900248 759.938788598 L 1537.1256639303335 759.938788598" stroke-miterlimit="10" stroke-width="1.1518412583333333" stroke-dasharray="5.52883804"/><g transform="translate(1525.745472298,759.938788598) translate(-1525.745472298,-759.938788598)"><path fill="black" stroke="none" paint-order="stroke fill markers" d=" M 1537.2638848813335 754.1795823063333 L 1525.745472298 759.938788598 L 1537.2638848813335 765.6979948896667 Z"/></g></g><g><g><rect fill="white" stroke="none" x="1279.8766574871668" y="780.671931248" width="59.50600353" height="17.96872363"/></g><text fill="black" stroke="none" font-family="sans-serif" font-size="9pt" font-style="normal" font-weight="normal" text-decoration="normal" x="1281.9499717521667" y="793.1118168379999" text-anchor="start" dominant-baseline="alphabetic" xml:space="preserve">returntrue</text></g><g><path fill="none" stroke="black" paint-order="fill stroke markers" d=" M 1511.923377198 798.640654878 L 1118.7161329386668 798.640654878" stroke-miterlimit="10" stroke-width="1.1518412583333333" stroke-dasharray="5.52883804"/><g transform="translate(1107.3359413063333,798.640654878) translate(-1107.3359413063333,-798.640654878)"><path fill="black" stroke="none" paint-order="stroke fill markers" d=" M 1118.8543538896668 792.8814485863332 L 1107.3359413063333 798.640654878 L 1118.8543538896668 804.3998611696667 Z"/></g></g><g><g><rect fill="white" stroke="none" x="858.0116027205" y="819.373797528" width="59.50600353" height="17.96872363"/></g><text fill="black" stroke="none" font-family="sans-serif" font-size="9pt" font-style="normal" font-weight="normal" text-decoration="normal" x="860.0849169855001" y="831.8136831179999" text-anchor="start" dominant-baseline="alphabetic" xml:space="preserve">returntrue</text></g><g><path fill="none" stroke="black" paint-order="fill stroke markers" d=" M 1093.5138462063335 837.342521158 L 693.395554397 837.342521158" stroke-miterlimit="10" stroke-width="1.1518412583333333" stroke-dasharray="5.52883804"/><g transform="translate(682.0153627646666,837.342521158) translate(-682.0153627646666,-837.342521158)"><path fill="black" stroke="none" paint-order="stroke fill markers" d=" M 693.533775348 831.5833148663332 L 682.0153627646666 837.342521158 L 693.533775348 843.1017274496667 Z"/></g></g><path fill="white" stroke="black" paint-order="fill stroke markers" d=" M 528.7778813996667 858.075663808 L 795.1687683396667 858.075663808 L 807.6086539296667 870.515549398 L 807.6086539296667 889.8664825379999 L 528.7778813996667 889.8664825379999 L 528.7778813996667 858.075663808 M 795.1687683396667 858.075663808 L 795.1687683396667 870.515549398 L 807.6086539296667 870.515549398" stroke-miterlimit="10" stroke-width="1.1518412583333333" stroke-dasharray=""/><g><text fill="black" stroke="none" font-family="sans-serif" font-size="9pt" font-style="normal" font-weight="normal" text-decoration="normal" x="548.1288145396667" y="877.4265969479998" text-anchor="start" dominant-baseline="alphabetic" xml:space="preserve">anothermovieisfoundthatoverlapswiththis</text></g><g><g><rect fill="white" stroke="none" x="705.282556183" y="910.5996251879999" width="283.61537853" height="17.96872363"/></g><text fill="black" stroke="none" font-family="sans-serif" font-size="9pt" font-style="normal" font-weight="normal" text-decoration="normal" x="707.355870448" y="923.0395107779998" text-anchor="start" dominant-baseline="alphabetic" xml:space="preserve">observerMessage(message:String,false:Boolean)</text></g><g><path fill="none" stroke="black" paint-order="fill stroke markers" d=" M 682.0153627646666 928.5683488179999 L 744.2147907146667 928.5683488179999 L 744.2147907146667 946.5370724479999 L 700.306601947 946.5370724479999" stroke-miterlimit="10" stroke-width="1.1518412583333333" stroke-dasharray=""/><g transform="translate(688.9264103146667,946.5370724479999) translate(-688.9264103146667,-946.5370724479999)"><path fill="black" stroke="none" paint-order="stroke fill markers" d=" M 700.444822898 940.7778661563332 L 688.9264103146667 946.5370724479999 L 700.444822898 952.2962787396666 Z"/></g></g><g><g><rect fill="white" stroke="none" x="397.1318995163333" y="967.2702150979999" width="236.92787853" height="17.96872363"/></g><text fill="black" stroke="none" font-family="sans-serif" font-size="9pt" font-style="normal" font-weight="normal" text-decoration="normal" x="399.2052137813333" y="979.7101006879998" text-anchor="start" dominant-baseline="alphabetic" xml:space="preserve">message(message:String,false:Boolean)</text></g><g><path fill="none" stroke="black" paint-order="fill stroke markers" d=" M 675.1043152146667 985.2389387279999 L 367.4675539803333 985.2389387279999" stroke-miterlimit="10" stroke-width="1.1518412583333333" stroke-dasharray=""/><g transform="translate(356.087362348,985.2389387279999) translate(-356.087362348,-985.2389387279999)"><path fill="black" stroke="none" paint-order="stroke fill markers" d=" M 367.6057749313333 979.4797324363332 L 356.087362348 985.2389387279999 L 367.6057749313333 990.9981450196666 Z"/></g></g><g><path fill="white" stroke="black" paint-order="fill stroke markers" d=" M 97.7949645055 1026.4978926014996 A 20.5258112235 20.5258112235 0 1 1 97.79495424259525 1026.477366793697 M 44.096125042 1004.7972032944997 L 44.096125042 1048.1985819084998 M 42.9212469585 1026.4978926014996 L 56.7433420585 1026.4978926014996" stroke-miterlimit="10" stroke-width="2.3497561670000002" stroke-dasharray=""/></g><g><g/><text fill="black" stroke="none" font-family="sans-serif" font-size="9pt" font-style="normal" font-weight="normal" text-decoration="normal" x="58.0211916695" y="1062.0206770085" text-anchor="start" dominant-baseline="alphabetic" xml:space="preserve">Alert</text></g><g><g><rect fill="white" stroke="none" x="147.45612720350002" y="1018.68840887" width="142.867331655" height="17.96872363"/></g><text fill="black" stroke="none" font-family="sans-serif" font-size="9pt" font-style="normal" font-weight="normal" text-decoration="normal" x="149.5294414685" y="1031.12829446" text-anchor="start" dominant-baseline="alphabetic" xml:space="preserve">Alert(warning:AlertType)</text></g><g><path fill="none" stroke="black" paint-order="fill stroke markers" d=" M 342.265267248 1036.6571325 L 106.89451044633334 1036.6571325" stroke-miterlimit="10" stroke-width="1.1518412583333333" stroke-dasharray=""/><g transform="translate(95.514318814,1036.6571325) translate(-95.514318814,-1036.6571325)"><path fill="black" stroke="none" paint-order="stroke fill markers" d=" M 107.03273139733334 1030.8979262083333 L 95.514318814 1036.6571325 L 107.03273139733334 1042.4163387916667 Z"/></g></g><g><g><rect fill="white" stroke="none" x="207.69389600000002" y="1088.075326272" width="4.14662853" height="17.96872363"/></g><text fill="black" stroke="none" font-family="sans-serif" font-size="9pt" font-style="normal" font-weight="normal" text-decoration="normal" x="209.76721026500002" y="1100.5152118620001" text-anchor="start" dominant-baseline="alphabetic" xml:space="preserve"></text></g><g><path fill="none" stroke="black" paint-order="fill stroke markers" d=" M 77.269153282 1106.044049902 L 330.88507561566666 1106.044049902" stroke-miterlimit="10" stroke-width="1.1518412583333333" stroke-dasharray="5.52883804"/><g transform="translate(342.265267248,1106.044049902) translate(-342.265267248,-1106.044049902)"><path fill="black" stroke="none" paint-order="stroke fill markers" d=" M 330.74685466466667 1100.2848436103334 L 342.265267248 1106.044049902 L 330.74685466466667 1111.8032561936668 Z"/></g></g><g><g><rect fill="white" stroke="none" x="165.56791943750002" y="1126.777192552" width="88.398581655" height="17.96872363"/></g><text fill="black" stroke="none" font-family="sans-serif" font-size="9pt" font-style="normal" font-weight="normal" text-decoration="normal" x="167.64123370250002" y="1139.2170781420002" text-anchor="start" dominant-baseline="alphabetic" xml:space="preserve">showAndWait();</text></g><g><path fill="none" stroke="black" paint-order="fill stroke markers" d=" M 342.265267248 1144.7459161820002 L 88.64934491433334 1144.7459161820002" stroke-miterlimit="10" stroke-width="1.1518412583333333" stroke-dasharray=""/><g transform="translate(77.269153282,1144.7459161820002) translate(-77.269153282,-1144.7459161820002)"><path fill="black" stroke="none" paint-order="stroke fill markers" d=" M 88.78756586533333 1138.9867098903335 L 77.269153282 1144.7459161820002 L 88.78756586533333 1150.505122473667 Z"/></g></g><g><g><rect fill="white" stroke="none" x="42.678449875999995" y="1165.4790588320002" width="4.14662853" height="17.96872363"/></g><text fill="black" stroke="none" font-family="sans-serif" font-size="9pt" font-style="normal" font-weight="normal" text-decoration="normal" x="44.751764140999995" y="1177.9189444220003" text-anchor="start" dominant-baseline="alphabetic" xml:space="preserve"></text></g><g><path fill="none" stroke="black" paint-order="fill stroke markers" d=" M 63.447058182 1183.4477824620003 L 37.436661732333334 1183.4477824620003" stroke-miterlimit="10" stroke-width="1.1518412583333333" stroke-dasharray=""/><g transform="translate(26.0564701,1183.4477824620003) translate(-26.0564701,-1183.4477824620003)"><path fill="black" stroke="none" paint-order="stroke fill markers" d=" M 37.57488268333333 1177.6885761703336 L 26.0564701 1183.4477824620003 L 37.57488268333333 1189.206988753667 Z"/></g></g><g><g><rect fill="white" stroke="none" x="42.678449875999995" y="1204.1809251120003" width="4.14662853" height="17.96872363"/></g><text fill="black" stroke="none" font-family="sans-serif" font-size="9pt" font-style="normal" font-weight="normal" text-decoration="normal" x="44.751764140999995" y="1216.6208107020004" text-anchor="start" dominant-baseline="alphabetic" xml:space="preserve"></text></g><g><path fill="none" stroke="black" paint-order="fill stroke markers" d=" M 26.0564701 1222.1496487420004 L 52.06686654966666 1222.1496487420004" stroke-miterlimit="10" stroke-width="1.1518412583333333" stroke-dasharray="5.52883804"/><g transform="translate(63.447058182,1222.1496487420004) translate(-63.447058182,-1222.1496487420004)"><path fill="black" stroke="none" paint-order="stroke fill markers" d=" M 51.92864559866666 1216.3904424503337 L 63.447058182 1222.1496487420004 L 51.92864559866666 1227.9088550336671 Z"/></g></g><g><g><rect fill="white" stroke="none" x="175.68120068750002" y="1242.8827913920004" width="68.172019155" height="17.96872363"/></g><text fill="black" stroke="none" font-family="sans-serif" font-size="9pt" font-style="normal" font-weight="normal" text-decoration="normal" x="177.75451495250002" y="1255.3226769820005" text-anchor="start" dominant-baseline="alphabetic" xml:space="preserve">returnresult</text></g><g><path fill="none" stroke="black" paint-order="fill stroke markers" d=" M 77.269153282 1260.8515150220005 L 330.88507561566666 1260.8515150220005" stroke-miterlimit="10" stroke-width="1.1518412583333333" stroke-dasharray="5.52883804"/><g transform="translate(342.265267248,1260.8515150220005) translate(-342.265267248,-1260.8515150220005)"><path fill="black" stroke="none" paint-order="stroke fill markers" d=" M 330.74685466466667 1255.0923087303338 L 342.265267248 1260.8515150220005 L 330.74685466466667 1266.6107213136672 Z"/></g></g><g><g><rect fill="white" stroke="none" x="483.5078760788333" y="1281.5846576720005" width="64.175925405" height="17.96872363"/></g><text fill="black" stroke="none" font-family="sans-serif" font-size="9pt" font-style="normal" font-weight="normal" text-decoration="normal" x="485.5811903438333" y="1294.0245432620006" text-anchor="start" dominant-baseline="alphabetic" xml:space="preserve">returnfalse</text></g><g><path fill="none" stroke="black" paint-order="fill stroke markers" d=" M 356.087362348 1299.5533813020006 L 663.7241235823334 1299.5533813020006" stroke-miterlimit="10" stroke-width="1.1518412583333333" stroke-dasharray="5.52883804"/><g transform="translate(675.1043152146667,1299.5533813020006) translate(-675.1043152146667,-1299.5533813020006)"><path fill="black" stroke="none" paint-order="stroke fill markers" d=" M 663.5859026313334 1293.794175010334 L 675.1043152146667 1299.5533813020006 L 663.5859026313334 1305.3125875936673 Z"/></g></g><g><g><rect fill="white" stroke="none" x="705.282556183" y="1320.2865239520006" width="64.175925405" height="17.96872363"/></g><text fill="black" stroke="none" font-family="sans-serif" font-size="9pt" font-style="normal" font-weight="normal" text-decoration="normal" x="707.355870448" y="1332.7264095420007" text-anchor="start" dominant-baseline="alphabetic" xml:space="preserve">returnfalse</text></g><g><path fill="none" stroke="black" paint-order="fill stroke markers" d=" M 688.9264103146667 1338.2552475820007 L 744.2147907146667 1338.2552475820007 L 744.2147907146667 1356.2239712120006 L 693.395554397 1356.2239712120006" stroke-miterlimit="10" stroke-width="1.1518412583333333" stroke-dasharray="5.52883804"/><g transform="translate(682.0153627646666,1356.2239712120006) translate(-682.0153627646666,-1356.2239712120006)"><path fill="black" stroke="none" paint-order="stroke fill markers" d=" M 693.533775348 1350.464764920334 L 682.0153627646666 1356.2239712120006 L 693.533775348 1361.9831775036673 Z"/></g></g><g><g><rect fill="white" stroke="none" x="698.371508633" y="1376.9571138620006" width="64.175925405" height="17.96872363"/></g><text fill="black" stroke="none" font-family="sans-serif" font-size="9pt" font-style="normal" font-weight="normal" text-decoration="normal" x="700.444822898" y="1389.3969994520007" text-anchor="start" dominant-baseline="alphabetic" xml:space="preserve">returnfalse</text></g><g><path fill="none" stroke="black" paint-order="fill stroke markers" d=" M 682.0153627646666 1394.9258374920005 L 737.3037431646667 1394.9258374920005 L 737.3037431646667 1412.8945611220006 L 686.4845068469999 1412.8945611220006" stroke-miterlimit="10" stroke-width="1.1518412583333333" stroke-dasharray="5.52883804"/><g transform="translate(675.1043152146666,1412.8945611220006) translate(-675.1043152146666,-1412.8945611220006)"><path fill="black" stroke="none" paint-order="stroke fill markers" d=" M 686.6227277979999 1407.1353548303339 L 675.1043152146666 1412.8945611220006 L 686.6227277979999 1418.6537674136673 Z"/></g></g><g><g><rect fill="white" stroke="none" x="473.1413047538333" y="1433.6277037720006" width="64.175925405" height="17.96872363"/></g><text fill="black" stroke="none" font-family="sans-serif" font-size="9pt" font-style="normal" font-weight="normal" text-decoration="normal" x="475.21461901883333" y="1446.0675893620007" text-anchor="start" dominant-baseline="alphabetic" xml:space="preserve">returnfalse</text></g><g><path fill="none" stroke="black" paint-order="fill stroke markers" d=" M 661.2822201146666 1451.5964274020007 L 360.5565064303333 1451.5964274020007" stroke-miterlimit="10" stroke-width="1.1518412583333333" stroke-dasharray="5.52883804"/><g transform="translate(349.17631479799996,1451.5964274020007) translate(-349.17631479799996,-1451.5964274020007)"><path fill="black" stroke="none" paint-order="stroke fill markers" d=" M 360.6947273813333 1445.837221110334 L 349.17631479799996 1451.5964274020007 L 360.6947273813333 1457.3556336936674 Z"/></g></g><g><g><rect fill="white" stroke="none" x="175.17650685900003" y="1472.3295700520007" width="4.14662853" height="17.96872363"/></g><text fill="black" stroke="none" font-family="sans-serif" font-size="9pt" font-style="normal" font-weight="normal" text-decoration="normal" x="177.24982112400002" y="1484.7694556420008" text-anchor="start" dominant-baseline="alphabetic" xml:space="preserve"></text></g><g><path fill="none" stroke="black" paint-order="fill stroke markers" d=" M 335.354219698 1490.2982936820008 L 30.525614182333335 1490.2982936820008" stroke-miterlimit="10" stroke-width="1.1518412583333333" stroke-dasharray="5.52883804"/><g transform="translate(19.14542255,1490.2982936820008) translate(-19.14542255,-1490.2982936820008)"><path fill="black" stroke="none" paint-order="stroke fill markers" d=" M 30.663835133333333 1484.539087390334 L 19.14542255 1490.2982936820008 L 30.663835133333333 1496.0574999736675 Z"/></g></g></g><g/><g/><g/><g/><g/><g/></g></svg>