<svg version="1.1" xmlns="http://www.w3.org/2000/svg" xmlns:xlink="http://www.w3.org/1999/xlink" width="2332" height="1797"><desc>actor%20Staff%0Aboundary%20MovieDialog%0Aboundary%20StaffUI%0A%0Acontrol%20ManagementSystem%0Aparticipant%20Cinema%0Aparticipant%20MovieMapper%0A%0A%0A%0Adatabase%20Database%0Aentity%20Movie%0A%0AStaff-%3EStaffUI%3AaddMovie()%0Aactivate%20StaffUI%0A%0AStaffUI-%3E*MovieDialog%3AMovieDialog()%0Aactivate%20MovieDialog%0AMovieDialog--%3EStaffUI%3A%0Adeactivate%20MovieDialog%0A%0AStaffUI-%3EMovieDialog%3AshowAndWait()%0Aactivate%20MovieDialog%0AMovieDialog-%3EStaff%3A%0AStaff--%3EMovieDialog%3A%0AMovieDialog-%3EStaffUI%3Areturn%20m%20%3A%20MovieInfo%0Adeactivate%20MovieDialog%0A%0AStaffUI-%3EManagementSystem%3AaddMovie(title%20%3A%20String%2C%20runningTime%20%3A%20int%2C%20year%20%3A%20int)%0Aactivate%20ManagementSystem%0A%0A%0Aexpandable-%20see%20diagram%2002%20-%20Add%20Movie%20ECE%20(double%20added%20movie)%0AManagementSystem-%3EManagementSystem%3AcheckDoubleAdded(title%20%3A%20String%2C%20runningTime%20%3A%20Integer%2C%20year%20%3A%20Integer)%0Aend%20%0A%0AManagementSystem-%3ECinema%3AaddMovie(title%20%3A%20String%2C%20runningTime%20%3A%20int%2C%20year%20%3A%20int)%0Aactivate%20Cinema%0A%0A%0A%0ACinema-%3EMovieMapper%3AaddMovie(title%20%3A%20String%2C%20runningTime%20%3A%20int%2C%20year%20%3A%20int)%0Aactivate%20MovieMapper%0AMovieMapper-%3EDatabase%3Aoid%20%3A%3D%20getId()%0AMovieMapper-%3EMovieMapper%3AperformUpdate(sql%20%3A%20String)%0Aactivate%20MovieMapper%0A%0A%0AMovieMapper-%3EDatabase%3AexecuteUpdate(sql%20%3A%20String)%0AMovieMapper--%3EMovieMapper%3A%0Adeactivate%20MovieMapper%0A%0A%0AMovieMapper-%3E*Movie%3APersistentMovie(title%20%3A%20String%2C%20runningTime%20%3A%20Integer%2C%20year%20%3A%20Integer)%0Aactivate%20Movie%0AMovie--%3EMovieMapper%3A%0Adeactivate%20Movie%0AMovieMapper--%3ECinema%3A%0Adeactivate%20MovieMapper%0ACinema--%3EManagementSystem%3A%0Adeactivate%20Cinema%0A%0AManagementSystem-%3EManagementSystem%3AnotifyObservers()%0Aactivate%20ManagementSystem%0A%0AManagementSystem-%3EStaffUI%3Aupdate()%0Aactivate%20StaffUI%0A%0AStaffUI-%3EManagementSystem%3AgetMovies()%0Aactivate%20ManagementSystem%0AManagementSystem--%3EStaffUI%3Areturn%20movies%0Adeactivate%20ManagementSystem%0A%0AStaffUI--%3EManagementSystem%3A%0Adeactivate%20StaffUI%0A%0AManagementSystem--%3EManagementSystem%3A%0A%0Adeactivate%20ManagementSystem%0AManagementSystem--%3EStaffUI%3A%0Adeactivate%20ManagementSystem%0AStaffUI--%3EStaff%3A%0Adeactivate%20StaffUI%0A</desc><defs/><g><g/><g/><g/><g/><g/><g/><g/><g/><g/><g/><g/><g/><g/><g/><g/><g/><g/><g/><g/><g/><g/><g/><g/><g/><g/><g/><g/><g/><g/><g><rect fill="white" stroke="none" x="0" y="0" width="2332" height="1797"/></g><g/><g><path fill="none" stroke="black" paint-order="fill stroke markers" d=" M 24.636958411914062 95.699160256 L 24.636958411914062 1797.1035689543994" stroke-miterlimit="10" stroke-width="1.4659797833333332" stroke-dasharray="13.532121076923076,5.863919133333333"/><path fill="none" stroke="black" paint-order="fill stroke markers" d=" M 102.73337737197267 258.246998632 L 102.73337737197267 1797.1035689543994" stroke-miterlimit="10" stroke-width="1.4659797833333332" stroke-dasharray="13.532121076923076,5.863919133333333"/><path fill="none" stroke="black" paint-order="fill stroke markers" d=" M 311.62445780934246 95.699160256 L 311.62445780934246 1797.1035689543994" stroke-miterlimit="10" stroke-width="1.4659797833333332" stroke-dasharray="13.532121076923076,5.863919133333333"/><path fill="none" stroke="black" paint-order="fill stroke markers" d=" M 741.7093356478841 95.699160256 L 741.7093356478841 1797.1035689543994" stroke-miterlimit="10" stroke-width="1.4659797833333332" stroke-dasharray="13.532121076923076,5.863919133333333"/><path fill="none" stroke="black" paint-order="fill stroke markers" d=" M 1313.5721616163737 95.699160256 L 1313.5721616163737 1797.1035689543994" stroke-miterlimit="10" stroke-width="1.4659797833333332" stroke-dasharray="13.532121076923076,5.863919133333333"/><path fill="none" stroke="black" paint-order="fill stroke markers" d=" M 1734.8611607549153 95.699160256 L 1734.8611607549153 1797.1035689543994" stroke-miterlimit="10" stroke-width="1.4659797833333332" stroke-dasharray="13.532121076923076,5.863919133333333"/><path fill="none" stroke="black" paint-order="fill stroke markers" d=" M 2019.9828947550611 95.699160256 L 2019.9828947550611 1797.1035689543994" stroke-miterlimit="10" stroke-width="1.4659797833333332" stroke-dasharray="13.532121076923076,5.863919133333333"/><path fill="none" stroke="black" paint-order="fill stroke markers" d=" M 2296.308750055207 1147.9677208944 L 2296.308750055207 1797.1035689543994" stroke-miterlimit="10" stroke-width="1.4659797833333332" stroke-dasharray="13.532121076923076,5.863919133333333"/></g><g><g><path fill="white" stroke="black" paint-order="fill stroke markers" d=" M 34.66426012991406 21.286026454 A 10.027301717999999 10.027301717999999 0 1 1 34.66425511626362 21.27599915395321 M 24.636958411914062 31.313328172000002 L 24.636958411914062 52.7752722 M 11.970893083914063 39.053701428000004 L 37.30302373991406 39.053701428000004 M 24.636958411914062 52.7752722 L 11.970893083914063 72.829875636 M 24.636958411914062 52.7752722 L 37.30302373991406 72.829875636" stroke-miterlimit="10" stroke-width="2.990598758" stroke-dasharray=""/></g><g><g/><text fill="black" stroke="none" font-family="sans-serif" font-size="11pt" font-style="normal" font-weight="normal" text-decoration="normal" x="8.7958787" y="90.421633036" text-anchor="start" dominant-baseline="alphabetic" xml:space="preserve">Staff</text></g><g><path fill="white" stroke="black" paint-order="fill stroke markers" d=" M 346.54409624834244 45.210816517999994 A 26.123759739 26.123759739 0 1 1 346.5440831864637 45.18469276261494 M 278.2001187493425 17.591757399999995 L 278.2001187493425 72.829875636 M 276.7048193703425 45.210816517999994 L 294.2965767703425 45.210816517999994" stroke-miterlimit="10" stroke-width="2.990598758" stroke-dasharray=""/></g><g><g/><text fill="black" stroke="none" font-family="sans-serif" font-size="11pt" font-style="normal" font-weight="normal" text-decoration="normal" x="288.15631816090496" y="90.421633036" text-anchor="start" dominant-baseline="alphabetic" xml:space="preserve">StaffUI</text></g><g><path fill="white" stroke="black" paint-order="fill stroke markers" d=" M 767.8330953868841 45.210816517999994 A 26.123759739 26.123759739 0 1 1 767.8330823250053 45.18469276261494 M 738.1909841678842 19.087056778999994 L 748.7460386078842 10.291178078999994 M 738.1909841678842 19.087056778999994 L 748.7460386078842 27.882935478999993" stroke-miterlimit="10" stroke-width="2.990598758" stroke-dasharray=""/></g><g><g/><text fill="black" stroke="none" font-family="sans-serif" font-size="11pt" font-style="normal" font-weight="normal" text-decoration="normal" x="669.7873614657552" y="90.421633036" text-anchor="start" dominant-baseline="alphabetic" xml:space="preserve">ManagementSystem</text></g><path fill="none" stroke="none"/><g><path fill="white" stroke="black" paint-order="fill stroke markers" d=" M 1268.0355656528034 48.201415276000006 L 1359.108757579944 48.201415276000006 L 1359.108757579944 95.699160256 L 1268.0355656528034 95.699160256 L 1268.0355656528034 48.201415276000006 Z" stroke-miterlimit="10" stroke-width="2.814681184" stroke-dasharray=""/></g><g><g/><text fill="black" stroke="none" font-family="sans-serif" font-size="11pt" font-style="normal" font-weight="normal" text-decoration="normal" x="1287.1226224318034" y="78.107402856" text-anchor="start" dominant-baseline="alphabetic" xml:space="preserve">Cinema</text></g><path fill="none" stroke="none"/><g><path fill="white" stroke="black" paint-order="fill stroke markers" d=" M 1666.461283541345 48.201415276000006 L 1803.2610379684857 48.201415276000006 L 1803.2610379684857 95.699160256 L 1666.461283541345 95.699160256 L 1666.461283541345 48.201415276000006 Z" stroke-miterlimit="10" stroke-width="2.814681184" stroke-dasharray=""/></g><g><g/><text fill="black" stroke="none" font-family="sans-serif" font-size="11pt" font-style="normal" font-weight="normal" text-decoration="normal" x="1685.548340320345" y="78.107402856" text-anchor="start" dominant-baseline="alphabetic" xml:space="preserve">MovieMapper</text></g><g><path fill="white" stroke="black" paint-order="fill stroke markers" d=" M 1994.298928951061 61.219315752 L 1994.298928951061 24.276625212000003 L 2045.6668605590612 24.276625212000003 L 2045.6668605590612 61.219315752" stroke-miterlimit="10" stroke-width="2.990598758" stroke-dasharray=""/><path fill="white" stroke="black" paint-order="fill stroke markers" d=" M 2045.6668605590612 22.992426921800003 L 2045.6655763714725 23.108530585556366 L 2045.6617239371244 23.224622639043105 L 2045.6553036412572 23.34069147315161 L 2045.6463161258948 23.45672548109521 L 2045.6347622897815 23.572713059569786 L 2045.6206432882911 23.688642609914158 L 2045.6039605333124 23.804502539269897 L 2045.5847156931065 23.920281261740616 L 2045.5629106921415 24.03596719955055 L 2045.5385477108996 24.151548784202323 L 2045.5116291856582 24.26701445763379 L 2045.4821578082476 24.382352673373823 L 2045.4501365257813 24.497551897696965 L 2045.4155685403603 24.612600610776788 L 2045.3784573087546 24.72748730783785 L 2045.3388065420565 24.84220050030619 L 2045.2966202053096 24.956728716958153 L 2045.2519025171123 25.07106050506751 L 2045.2046579491962 25.18518443155073 L 2045.1548912259789 25.299089084110268 L 2045.102607324091 25.412763072375785 L 2045.0478114718792 25.526195029043187 L 2044.9905091488831 25.63937361101133 L 2044.9307060852873 25.75228750051633 L 2044.8684082613481 25.86492540626334 L 2044.8036219067963 25.97727606455564 L 2044.736353500213 26.089328240421032 L 2044.6666097683833 26.201070728735306 L 2044.5943976856217 26.312492355342748 L 2044.5197244730766 26.423581978173544 L 2044.442597598007 26.53432848835799 L 2044.3630247730362 26.644720811337358 L 2044.2810139553803 26.754747907971336 L 2044.1965733460527 26.864398775641956 L 2044.109711389044 26.973662449353824 L 2044.0204367704773 27.08252800283062 L 2043.9287584177405 27.190984549607727 L 2043.8346854985923 27.29902124412083 L 2043.7382274202462 27.406627282790524 L 2043.6393938284295 27.513791905102604 L 2043.5381946064192 27.620504394684144 L 2043.4346398740531 27.726754080375116 L 2043.3287399867181 27.83253033729549 L 2043.2205055343147 27.93782258790772 L 2043.1099473401982 28.04262030307449 L 2042.9970764600955 28.14691300311161 L 2042.8819041810007 28.25069025883599 L 2042.7644420200459 28.353941692608544 L 2042.644701723349 28.456656979371925 L 2042.5226952648402 28.55882584768306 L 2042.3984348450633 28.660438080740256 L 2042.2719328899573 28.761483517404887 L 2042.1432020496115 28.861952053217486 L 2042.0122551970035 28.961833641408198 L 2041.879105426709 29.061118293901444 L 2041.7437660535938 29.1597960823147 L 2041.6062506114831 29.257857138951366 L 2041.466572851806 29.355291657787486 L 2041.3247467422223 29.452089895452378 L 2041.1807864652246 29.54824217220294 L 2041.0347064167208 29.643738872891625 L 2040.886521204594 29.73857044792794 L 2040.7362456472417 29.83272741423341 L 2040.5838947720947 29.92620035618987 L 2040.4294838141134 30.018979926581018 L 2040.2730282142652 30.111056847527124 L 2040.114543617979 30.20242191141283 L 2039.9540458735833 30.293065981807885 L 2039.791551030718 30.382979994380786 L 2039.6270753387325 30.472154957805202 L 2039.4606352450587 30.560581954659103 L 2039.292247393567 30.648252142316494 L 2039.121928622903 30.735156753831664 L 2038.949695964801 30.821287098815887 L 2038.7755666423839 30.906634564306433 L 2038.5995580684382 30.991190615627882 L 2038.4216878436753 31.074946797245563 L 2038.2419737549692 31.15789473361111 L 2038.0604337735788 31.24002613000001 L 2037.8770860533511 31.321332773341062 L 2037.6919489289053 31.4018065330377 L 2037.5050409137998 31.481439361781 L 2037.31638069868 31.560223296354458 L 2037.1259871494105 31.638150458430268 L 2036.9338793051872 31.715213055357157 L 2036.740076376635 31.791403380939656 L 2036.5445977438847 31.8667138162087 L 2036.347462954637 31.941136830183517 L 2036.1486917222062 32.01466498062472 L 2035.9483039235504 32.08729091477856 L 2035.746319597282 32.15900737011212 L 2035.5427589416656 32.22980717503965 L 2035.3376423125972 32.29968324963964 L 2035.1309902215685 32.368628606362876 L 2034.9228233336166 32.43663635073112 L 2034.7131624652566 32.50369968202662 L 2034.502028582401 32.569811893972144 L 2034.2894427982617 32.63496637540157 L 2034.0754263712402 32.69915661092105 L 2033.8600007028008 32.76237618156054 L 2033.6431873353308 32.82461876541566 L 2033.4250079499864 32.88587813827987 L 2033.2054843645242 32.94614817426695 L 2032.9846385311198 33.005422846423535 L 2032.7624925341727 33.06369622733178 L 2032.5390685880973 33.12096248970218 L 2032.3143890351018 33.1772159069562 L 2032.0884763429547 33.232450853798994 L 2031.8613531027368 33.28666180678192 L 2031.6330420265826 33.339843344854856 L 2031.4035659454098 33.391990149908295 L 2031.1729478066352 33.4430970073052 L 2030.9412106718805 33.49315880640242 L 2030.7083777146659 33.54217054106175 L 2030.4744722180933 33.590127310150585 L 2030.2395175725173 33.637024318031976 L 2030.0035372732068 33.68285687504421 L 2029.7665549179949 33.72762039796977 L 2029.5285942049197 33.77131041049369 L 2029.2896789298543 33.81392254365112 L 2029.0498329841269 33.85545253626423 L 2028.8090803521325 33.8958962353684 L 2028.5674451089335 33.9352495966274 L 2028.3249514178528 33.9735086847379 L 2028.0816235280577 34.01066967382299 L 2027.8374857721342 34.046728847814705 L 2027.5925625636542 34.081682600825715 L 2027.3468783947349 34.11552743750983 L 2027.1004578335883 34.1482599734116 L 2026.853325522065 34.179876935304705 L 2026.6055061731904 34.210375161519295 L 2026.3570245686929 34.23975160225818 L 2026.1079055565258 34.26800331990176 L 2025.8581740483826 34.295127489301805 L 2025.607855017206 34.321121398063994 L 2025.356973494691 34.34598244681909 L 2025.10555456878 34.36970814948297 L 2024.853623381157 34.3922961335051 L 2024.6012051247299 34.413744140105926 L 2024.3483250411145 34.43405002450265 L 2024.0950084181084 34.453211756123764 L 2023.8412805871626 34.47122741881206 L 2023.587166920849 34.4880952110163 L 2023.3326928303225 34.5038134459713 L 2023.07788376278 34.518380551866684 L 2022.8227651989155 34.53179507200398 L 2022.5673626503735 34.54405566494237 L 2022.3117016571955 34.555161104632774 L 2022.0558077852681 34.565110280540466 L 2021.7997066237651 34.573902197756155 L 2021.5434237825891 34.58153597709545 L 2021.2869848898108 34.58801085518677 L 2021.0304155891058 34.59332618454771 L 2020.7737415371905 34.59748143364976 L 2020.5169884012557 34.60047618697147 L 2020.2601818564017 34.60231014504 L 2020.0033475830685 34.60298312446108 L 2019.7465112644693 34.60249505793733 L 2019.4896985840226 34.600845994274984 L 2019.2329352227816 34.59803609837904 L 2018.976246856869 34.594065651236754 L 2018.7196591549075 34.58893504988952 L 2018.4631977754532 34.5826448073932 L 2018.2068883644306 34.57519555276681 L 2017.9507565525669 34.566588030929594 L 2017.69482795283 34.556823102626566 L 2017.4391281578667 34.545901744342416 L 2017.1836827374432 34.53382504820388 L 2016.9285172358889 34.52059422187051 L 2016.6736571695412 34.5062105884139 L 2016.4191280241944 34.49067558618542 L 2016.1649552525507 34.47399076867234 L 2015.9111642716757 34.45615780434251 L 2015.657780460456 34.4371784764775 L 2015.4048291570616 34.41705468299429 L 2015.1523356564119 34.395788436255444 L 2014.9003252076466 34.37338186286793 L 2014.6488230116006 34.34983720347041 L 2014.397854218284 34.32515681250919 L 2014.1474439243666 34.29934315800281 L 2013.8976171706697 34.27239882129521 L 2013.64839893966 34.24432649679761 L 2013.3998141529532 34.21512899171906 L 2013.1518876688208 34.18480922578574 L 2012.9046442797044 34.15337023094897 L 2012.658108709737 34.12081515108205 L 2012.4123056122703 34.08714724166582 L 2012.167259567409 34.05236986946318 L 2011.9229950795534 34.016486512182354 L 2011.679536574949 33.97950075812918 L 2011.4369083992428 33.94141630584823 L 2011.1951348150508 33.90223696375301 L 2010.9542399995298 33.86196664974507 L 2010.7142480419602 33.820609390822256 L 2010.4751829413383 33.77816932267599 L 2010.2370686039746 33.734650689277736 L 2009.9999288411045 33.69005784245455 L 2009.763787366507 33.644395241453964 L 2009.5286677941322 33.59766745249802 L 2009.2945936357414 33.54987914832668 L 2009.061588298556 33.50103510773054 L 2008.8296750829152 33.45114021507295 L 2008.598877179947 33.40019945980159 L 2008.36921766925 33.34821793594955 L 2008.1407195165834 33.29520084162589 L 2007.9134055715722 33.24115347849587 L 2007.6872985654215 33.18608125125075 L 2007.4624211086434 33.12998966706737 L 2007.2387956887962 33.07288433505741 L 2007.0164446682359 33.01477096570647 L 2006.7953902818786 32.95565537030307 L 2006.5756546349792 32.89554346035748 L 2006.357259700919 32.8344412470106 L 2006.14022731901 32.772354840432854 L 2005.9245791923086 32.709290449213164 L 2005.7103368854484 32.645254379738084 L 2005.4975218224815 32.580253035561206 L 2005.2861552847367 32.514292916762784 L 2005.0762584086917 32.44738061929973 L 2004.867852183859 32.37952283434602 L 2004.6609574506879 32.310726347623614 L 2004.4555948984787 32.24099803872385 L 2004.251785063316 32.17034488041951 L 2004.0495483260133 32.09877393796755 L 2003.8489049100756 32.026292368402565 L 2003.6498748796776 31.952907419821116 L 2003.452478137656 31.87862643065691 L 2003.2567344235213 31.803456828946963 L 2003.062663311481 31.727406131588797 L 2002.8702842084851 31.65048194358878 L 2002.6796163522833 31.572691957301604 L 2002.4906788095025 31.494043951661077 L 2002.3034904737394 31.41454579140222 L 2002.1180700636717 31.334205426274806 L 2001.9344361211856 31.25303089024841 L 2001.7526070095228 31.171030300708985 L 2001.5726009114426 31.088211857647146 L 2001.394435827405 31.004583842838187 L 2001.2181295737698 30.9201546190139 L 2001.0436997810154 30.834932629026305 L 2000.8711638919758 30.748926395003394 L 2000.7005391600962 30.662144517496888 L 2000.5318426477074 30.574595674622223 L 2000.3650912243204 30.486288621190724 L 2000.2003015649382 30.397232187834156 L 2000.0374901483897 30.307435280121634 L 1999.8766732556805 30.216906877669096 L 1999.7178669683663 30.125656033241356 L 1999.5610871669433 30.033691871846806 L 1999.406349529261 29.941023589824955 L 1999.253669528954 29.84766045392678 L 1999.1030624338955 29.753611800388065 L 1998.9545433046694 29.658887033995796 L 1998.8081269930647 29.563495627147667 L 1998.6638281405906 29.467447118904882 L 1998.521661177012 29.370751114038217 L 1998.381640318907 29.27341728206758 L 1998.2437795682447 29.175455356295057 L 1998.1080927109851 29.07687513283159 L 1997.974593315701 28.977686469617378 L 1997.8432947322208 28.877899285436083 L 1997.7142100902931 28.777523558922972 L 1997.5873522982747 28.67656932756704 L 1997.4627340418392 28.575046686707307 L 1997.3403677827082 28.472965788523247 L 1997.2202657574057 28.37033684101962 L 1997.1024399760342 28.267170107005644 L 1996.9869022210737 28.16347590306875 L 1996.8736640462032 28.059264598542924 L 1996.762736775146 27.954546614471777 L 1996.6541315005368 27.849332422566448 L 1996.5478590828125 27.743632544158448 L 1996.4439301491261 27.637457549147538 L 1996.3423550922848 27.53081805494474 L 1996.2431440697092 27.423724725410608 L 1996.1463070024192 27.316188269788846 L 1996.0518535740407 27.208219441635414 L 1995.9597932298377 27.099829037743145 L 1995.8701351757682 26.991027897062104 L 1995.7828883775626 26.881826899615692 L 1995.6980615598281 26.77223696541266 L 1995.6156632051761 26.662269053355093 L 1995.535701553373 26.55193416014256 L 1995.4581846005174 26.441243319172447 L 1995.38312009824 26.330207599436594 L 1995.3105155529288 26.218838104414456 L 1995.2403782249773 26.10714597096272 L 1995.1727151280602 25.99514236820166 L 1995.1075330284307 25.882838496398215 L 1995.0448384442445 25.770245585845977 L 1994.9846376449077 25.657374895742176 L 1994.9269366504502 25.544237713061765 L 1994.8717412309234 25.43084535142873 L 1994.819056905823 25.317209149984738 L 1994.7688889435374 25.203340472255242 L 1994.7212423608216 25.08925070501312 L 1994.676121922294 24.974951257140024 L 1994.6335321399606 24.860453558485496 L 1994.5934772727644 24.74576905872398 L 1994.5559613261587 24.630909226209884 L 1994.5209880517068 24.515885546830745 L 1994.4885609467071 24.40070952285865 L 1994.458683253843 24.28539267180001 L 1994.431357960859 24.169946525243844 L 1994.4065878002614 24.05438262770859 L 1994.384375249046 23.93871253548771 L 1994.3647225284487 23.82294781549403 L 1994.347631603726 23.707100044103075 L 1994.3331041839558 23.591180805995453 L 1994.321141721868 23.47520169299837 L 1994.3117454136984 23.359174302926476 L 1994.3049161990707 23.243110238422094 L 1994.3006547609004 23.12702110579495 L 1994.2989615253277 23.01091851386157 L 1994.2998366616746 22.894814072784392 L 1994.3032800824285 22.77871939291077 L 1994.30929144325 22.66264608361195 L 1994.3178701430081 22.546605752122133 L 1994.32901532384 22.430610002377765 L 1994.3427258712368 22.314670433857163 L 1994.3590004141552 22.19879864042056 L 1994.3778373251546 22.08300620915074 L 1994.3992347205597 21.967304719194335 L 1994.4231904606484 21.851705740603922 L 1994.4497021498667 21.736220833181036 L 1994.4787671370682 21.620861545320174 L 1994.510382515778 21.505639412853995 L 1994.5445451244846 21.390565957899724 L 1994.5812515469559 21.275652687706962 L 1994.62049811258 21.16091109350697 L 1994.662280896733 21.046352649363552 L 1994.7065957211714 20.93198881102565 L 1994.75343815445 20.817831014781802 L 1994.8028035123637 20.703890676316497 L 1994.8546868584185 20.590179189568637 L 1994.9090830043228 20.47670792559213 L 1994.9659865105077 20.36348823141882 L 1995.0253916866695 20.25053142892377 L 1995.0872925923402 20.137848813693108 L 1995.151683037481 20.025451653894443 L 1995.218556583101 19.913351189150102 L 1995.2879065419013 19.801558629413137 L 1995.3597259789437 19.69008515384636 L 1995.4340077123447 19.57894190970444 L 1995.5107443139925 19.468140011219166 L 1995.5899281102909 19.357690538488054 L 1995.6715511829266 19.24760453636634 L 1995.7556053696599 19.13789301336249 L 1995.8420822651426 19.028566940537385 L 1995.9309732217569 18.9196372504072 L 1996.0222693504813 18.811114835850173 L 1996.1159615217791 18.703010549017325 L 1996.2120403665112 18.595335200247256 L 1996.3104962768732 18.488099556985112 L 1996.4113194073561 18.381314342705853 L 1996.5144996757308 18.274990235841926 L 1996.6200267640565 18.169137868715406 L 1996.7278901197124 18.063767826474802 L 1996.8380789564526 17.95889064603653 L 1996.9505822554854 17.854516815031236 L 1997.0653887665746 17.750656770755036 L 1997.1824870091648 17.647320899125816 L 1997.3018652735293 17.544519533644625 L 1997.4235116219413 17.44226295436234 L 1997.5474138898671 17.34056138685168 L 1997.6735596871831 17.239425001184642 L 1997.8019363994151 17.13886391091551 L 1997.9325311889984 17.038888172069516 L 1998.0653309965633 16.939507782137227 L 1998.2003225422393 16.840732679074826 L 1998.3374923269844 16.742572740310298 L 1998.4768266339347 16.645037781755725 L 1998.6183115297754 16.548137556825687 L 1998.7619328661349 16.45188175546192 L 1998.907676280999 16.35628000316435 L 1999.0555272001482 16.261341860028544 L 1999.2054708386133 16.167076819789692 L 1999.3574922021555 16.073494308873272 L 1999.5115760887654 15.980603685452383 L 1999.6677070901826 15.888414238511963 L 1999.825869593437 15.79693518691988 L 1999.98604778241 15.706175678505064 L 2000.148225639416 15.61614478914272 L 2000.3123869468052 15.526851521846762 L 2000.478515288583 15.438304805869507 L 2000.6465940520538 15.350513495808762 L 2000.8166064294815 15.26348637072238 L 2000.9885354197697 15.177232133250339 L 2001.162363830163 15.091759408744515 L 2001.338074277965 15.00707674440613 L 2001.5156491922776 14.923192608431044 L 2001.695070815757 14.840115389162959 L 2001.8763212063905 14.757853394254566 L 2002.0593822392902 14.676414849836805 L 2002.2442356085053 14.595807899696254 L 2002.4308628288527 14.516040604460756 L 2002.619245237766 14.437120940793358 L 2002.8093639971617 14.359056800594665 L 2003.0012000953218 14.281855990213637 L 2003.1947343487966 14.205526229666987 L 2003.389947404322 14.130075151867153 L 2003.5868197407547 14.055510301859046 L 2003.7853316710257 13.981839136065528 L 2003.9854633441073 13.909069021541786 L 2004.1871947469988 13.837207235238628 L 2004.390505706728 13.766260963274803 L 2004.5953758923683 13.696237300218385 L 2004.801784817072 13.627143248377326 L 2005.0097118401188 13.558985717099231 L 2005.2191361689795 13.491771522080432 L 2005.4300368613956 13.425507384684419 L 2005.6423928274737 13.360199931269712 L 2005.8561828317943 13.295855692527226 L 2006.0713854955347 13.23248110282722 L 2006.2879792986084 13.170082499575852 L 2006.5059425818154 13.108666122581443 L 2006.725253549009 13.04823811343052 L 2006.9458902692752 12.988804514873634 L 2007.1678306791257 12.930371270221118 L 2007.3910525847045 12.87294422274874 L 2007.6155336640074 12.816529115113394 L 2007.8412514691133 12.76113158877883 L 2008.0681834284298 12.706757183451517 L 2008.29630684895 12.653411336526675 L 2008.525598918522 12.601099382544545 L 2008.75603670813 12.549826552656928 L 2008.987597174187 12.499597974104088 L 2009.2202571608393 12.450418669702023 L 2009.4539934022823 12.402293557340188 L 2009.6887825250865 12.35522744948972 L 2009.924601050535 12.309225052722176 L 2010.1614253969726 12.264290967238905 L 2010.399231882161 12.220429686411006 L 2010.6379967256507 12.17764559633001 L 2010.8776960511557 12.135942975369273 L 2011.1183058889435 12.09532599375614 L 2011.359802178231 12.055798713154925 L 2011.60216076959 12.017365086260746 L 2011.8453574273638 11.980028956404269 L 2012.089367832089 11.943794057167361 L 2012.3341675829286 11.908664012009755 L 2012.5797322001115 11.874642333906689 L 2012.8260371273807 11.841732424997623 L 2013.0730577344486 11.809937576246021 L 2013.3207693194604 11.779260967110266 L 2013.569147111464 11.749705665225706 L 2013.818166272887 11.7212746260979 L 2014.0678019020213 11.693970692807069 L 2014.3180290355115 11.667796595723788 L 2014.5688226508528 11.642754952235952 L 2014.820157668893 11.618848266487047 L 2015.0720089563395 11.59607892912572 L 2015.3243513282735 11.57444921706674 L 2015.577159550668 11.55396129326328 L 2015.8304083429116 11.534617206490651 L 2016.084072380336 11.51641889114141 L 2016.338126296749 11.499368167031927 L 2016.5925446869703 11.483466739220404 L 2016.8473021093732 11.46871619783637 L 2017.1023730884276 11.455118017921672 L 2017.3577321172484 11.44267355928297 L 2017.6133536601453 11.431384066355758 L 2017.869212155177 11.421250668079919 L 2018.1252820167074 11.412274377786838 L 2018.3815376379634 11.404456093098062 L 2018.637953393597 11.397796595835548 L 2018.8945036422458 11.392296551943469 L 2019.1511627290988 11.387956511421633 L 2019.4079049884615 11.384776908270476 L 2019.6647047463216 11.382758060447662 L 2019.9215363229173 11.38190016983629 L 2020.1783740353053 11.38220332222471 L 2020.435192199928 11.38366748729793 L 2020.6919651351832 11.38629251864067 L 2020.9486671639913 11.390078153751977 L 2021.2052726163631 11.395024014071499 L 2021.4617558319676 11.40112960501732 L 2021.718091162697 11.40839431603544 L 2021.9742529752314 11.41681742066081 L 2022.2302156536032 11.42639807658998 L 2022.485953601758 11.437135325765349 L 2022.741441246114 11.449028094470941 L 2022.9966530381196 11.462075193439802 L 2023.2515634568083 11.476275317972902 L 2023.5061470113508 11.491627048069626 L 2023.7603782436038 11.508128848569752 L 2024.0142317306556 11.525779069306987 L 2024.2676820873694 11.544575945273964 L 2024.5207039689208 11.564517596798748 L 2024.773272073332 11.585602029732806 L 2025.0253611440035 11.607827135650416 L 2025.276945972238 11.631190692059505 L 2025.5280013997628 11.655690362623902 L 2025.7785023212439 11.68132369739697 L 2026.0284236867979 11.708088133066587 L 2026.2777405044967 11.735980993211495 L 2026.5264278428663 11.764999488568922 L 2026.77446083338 11.795140717313513 L 2027.0218146729455 11.826401665347511 L 2027.268464626385 11.858779206602165 L 2027.5143860289086 11.89227010335033 L 2027.759554288581 11.92687100653024 L 2028.0039448887808 11.962578456080411 L 2028.2475333906511 11.999388881285645 L 2028.4902954355452 12.037298601134095 L 2028.7322067474606 12.076303824685368 L 2028.973243135468 12.116400651449613 L 2029.2133804961293 12.15758507177757 L 2029.4525948159085 12.199852967261522 L 2029.690862173573 12.243200111147148 L 2029.9281587425855 12.28762216875618 L 2030.164460793487 12.333114697919875 L 2030.3997446962692 12.379673149423226 L 2030.6339869227381 12.427292867459885 L 2030.867164048866 12.47596909009773 L 2031.0992527571348 12.525696949755057 L 2031.330229838867 12.576471473687343 L 2031.5600721965468 12.628287584484506 L 2031.7887568461301 12.681140100578647 L 2032.0162609193424 12.735023736762198 L 2032.2425616659662 12.789933104716448 L 2032.467636456115 12.845862713550355 L 2032.6914627824979 12.902806970349646 L 2032.9140182626684 12.960760180736091 L 2033.135280641264 13.01971654943695 L 2033.3552277922313 13.07967018086448 L 2033.5738377210387 13.140615079705501 L 2033.7910885668748 13.202545151520916 L 2034.0069586048369 13.265454203355151 L 2034.2214262481004 13.329335944355446 L 2034.43447005008 13.394183986400938 L 2034.6460687065733 13.459991844741461 L 2034.8562010578905 13.52675293864602 L 2035.064846090972 13.594460592060857 L 2035.271982941488 13.663108034277055 L 2035.4775908959264 13.732688400607602 L 2035.6816493936626 13.803194733073843 L 2035.8841380290173 13.87461998110129 L 2036.0850365532958 13.946957002224657 L 2036.2843248768127 14.020198562802118 L 2036.481983070902 14.094337338738645 L 2036.6779913699088 14.16936591621843 L 2036.8723301731668 14.245276792446244 L 2037.0649800469573 14.322062376397728 L 2037.2559217264538 14.399714989578472 L 2037.4451361176473 14.478226866791868 L 2037.6326042992562 14.557590156915623 L 2037.8183075246188 14.637796923686858 L 2038.0022272235672 14.718839146495737 L 2038.184345004285 14.800708721187512 L 2038.3646426551454 14.88339746087294 L 2038.543102146534 14.966897096746958 L 2038.7197056326504 15.051199278915561 L 2038.8944354532928 15.136295577230786 L 2039.067274135625 15.222177482133715 L 2039.2382043959228 15.30883640550542 L 2039.4072091413025 15.396263681525788 L 2039.5742714714304 15.484450567540065 L 2039.739374680213 15.573388244933145 L 2039.9025022574665 15.663067820011399 L 2040.0636378905692 15.753480324892053 L 2040.2227654660926 15.844616718399962 L 2040.3798690714113 15.936467886971723 L 2040.5349329962958 16.02902464556702 L 2040.6879417344828 16.122277738587123 L 2040.838879985226 16.216217840800443 L 2040.987732654826 16.31083555827504 L 2041.1344848581402 16.40612142931802 L 2041.2791219200703 16.502065925421675 L 2041.4216293770305 16.59865945221635 L 2041.5619929783943 16.695892350429865 L 2041.7001986879181 16.793754896853418 L 2041.8362326851466 16.892237305313927 L 2041.970081366793 16.991329727652605 L 2042.1017313481007 17.091022254709806 L 2042.2311694641814 17.191304917315893 L 2042.3583827713314 17.292167687288174 L 2042.4833585483261 17.393600478433708 L 2042.6060842976917 17.495593147557905 L 2042.7265477469557 17.59813549547885 L 2042.8447368498732 17.701217268047195 L 2042.960639787633 17.80482815717159 L 2043.0742449700376 17.90895780184946 L 2043.1855410366632 18.01359578920312 L 2043.2945168579963 18.118731655521024 L 2043.4011615365453 18.22435488730416 L 2043.5054644079314 18.330454922317365 L 2043.6074150419543 18.437021150645553 L 2043.7070032436354 18.544042915754694 L 2043.8042190542378 18.65150951555747 L 2043.8990527522612 18.75941020348345 L 2043.9914948544151 18.86773418955376 L 2044.081536116566 18.97647064146006 L 2044.1691675346628 19.085608685647777 L 2044.2543803456372 19.19513740840344 L 2044.3371660282785 19.305045856946045 L 2044.4175163040875 19.415323040522324 L 2044.495423138104 19.525957931505822 L 2044.5708787397089 19.636939466499637 L 2044.6438755634053 19.74825654744275 L 2044.7144063095718 19.859898042719834 L 2044.7824639251924 19.97185278827439 L 2044.848041604562 20.084109588725166 L 2044.9111327899677 20.196657218485658 L 2044.9717311723434 20.309484422886683 L 2045.0298306919012 20.422579919301818 L 2045.0854255387378 20.535932398275673 L 2045.1385101534147 20.649530524654807 L 2045.1890792275146 20.76336293872125 L 2045.2371277041725 20.877418257328454 L 2045.2826507785805 20.991685075039605 L 2045.3256438984695 21.10615196526815 L 2045.3661027645626 21.220807481420458 L 2045.4040233310077 21.33564015804046 L 2045.4394018057792 21.450638511956186 L 2045.4722346510594 21.565791043428078 L 2045.5025185835912 21.68108623729895 L 2045.5302505750062 21.796512564145488 L 2045.5554278521286 21.9120584814312 L 2045.5780478972517 22.027712434660646 L 2045.59810844839 22.14346285853488 L 2045.6156074995047 22.259298178107972 L 2045.6305433007053 22.375206809944494 L 2045.6429143584246 22.491177163277854 L 2045.6527194355667 22.60719764116936 L 2045.6599575516323 22.723256641667906 L 2045.6646279828158 22.839342558970156 L 2045.6667302620776 22.95544378458112 M 2045.6668605590612 59.9351174618 L 2045.6655763714725 60.05122112555636 L 2045.6617239371244 60.1673131790431 L 2045.6553036412572 60.28338201315161 L 2045.6463161258948 60.3994160210952 L 2045.6347622897815 60.51540359956978 L 2045.6206432882911 60.631333149914155 L 2045.6039605333124 60.74719307926989 L 2045.5847156931065 60.86297180174061 L 2045.5629106921415 60.97865773955054 L 2045.5385477108996 61.09423932420232 L 2045.5116291856582 61.209704997633786 L 2045.4821578082476 61.32504321337382 L 2045.4501365257813 61.44024243769696 L 2045.4155685403603 61.55529115077678 L 2045.3784573087546 61.67017784783785 L 2045.3388065420565 61.784891040306185 L 2045.2966202053096 61.89941925695815 L 2045.2519025171123 62.01375104506751 L 2045.2046579491962 62.127874971550725 L 2045.1548912259789 62.241779624110265 L 2045.102607324091 62.35545361237578 L 2045.0478114718792 62.46888556904318 L 2044.9905091488831 62.58206415101132 L 2044.9307060852873 62.694978040516325 L 2044.8684082613481 62.80761594626333 L 2044.8036219067963 62.91996660455563 L 2044.736353500213 63.032018780421026 L 2044.6666097683833 63.1437612687353 L 2044.5943976856217 63.25518289534274 L 2044.5197244730766 63.36627251817354 L 2044.442597598007 63.47701902835799 L 2044.3630247730362 63.58741135133735 L 2044.2810139553803 63.69743844797133 L 2044.1965733460527 63.80708931564195 L 2044.109711389044 63.91635298935382 L 2044.0204367704773 64.02521854283061 L 2043.9287584177405 64.13367508960772 L 2043.8346854985923 64.24171178412082 L 2043.7382274202462 64.34931782279051 L 2043.6393938284295 64.4564824451026 L 2043.5381946064192 64.56319493468413 L 2043.4346398740531 64.66944462037512 L 2043.3287399867181 64.77522087729548 L 2043.2205055343147 64.88051312790772 L 2043.1099473401982 64.98531084307449 L 2042.9970764600955 65.08960354311161 L 2042.8819041810007 65.19338079883599 L 2042.7644420200459 65.29663223260853 L 2042.644701723349 65.39934751937191 L 2042.5226952648402 65.50151638768305 L 2042.3984348450633 65.60312862074025 L 2042.2719328899573 65.70417405740488 L 2042.1432020496115 65.80464259321748 L 2042.0122551970035 65.90452418140819 L 2041.879105426709 66.00380883390143 L 2041.7437660535938 66.1024866223147 L 2041.6062506114831 66.20054767895135 L 2041.466572851806 66.29798219778748 L 2041.3247467422223 66.39478043545238 L 2041.1807864652246 66.49093271220293 L 2041.0347064167208 66.58642941289162 L 2040.886521204594 66.68126098792794 L 2040.7362456472417 66.7754179542334 L 2040.5838947720947 66.86889089618987 L 2040.4294838141134 66.96167046658101 L 2040.2730282142652 67.05374738752711 L 2040.114543617979 67.14511245141283 L 2039.9540458735833 67.23575652180789 L 2039.791551030718 67.32567053438078 L 2039.6270753387325 67.4148454978052 L 2039.4606352450587 67.5032724946591 L 2039.292247393567 67.59094268231648 L 2039.121928622903 67.67784729383166 L 2038.949695964801 67.76397763881587 L 2038.7755666423839 67.84932510430643 L 2038.5995580684382 67.93388115562787 L 2038.4216878436753 68.01763733724556 L 2038.2419737549692 68.1005852736111 L 2038.0604337735788 68.18271667 L 2037.8770860533511 68.26402331334106 L 2037.6919489289053 68.34449707303769 L 2037.5050409137998 68.42412990178099 L 2037.31638069868 68.50291383635445 L 2037.1259871494105 68.58084099843026 L 2036.9338793051872 68.65790359535715 L 2036.740076376635 68.73409392093966 L 2036.5445977438847 68.80940435620869 L 2036.347462954637 68.88382737018351 L 2036.1486917222062 68.95735552062472 L 2035.9483039235504 69.02998145477855 L 2035.746319597282 69.10169791011212 L 2035.5427589416656 69.17249771503964 L 2035.3376423125972 69.24237378963963 L 2035.1309902215685 69.31131914636286 L 2034.9228233336166 69.37932689073111 L 2034.7131624652566 69.44639022202662 L 2034.502028582401 69.51250243397213 L 2034.2894427982617 69.57765691540156 L 2034.0754263712402 69.64184715092105 L 2033.8600007028008 69.70506672156054 L 2033.6431873353308 69.76730930541565 L 2033.4250079499864 69.82856867827986 L 2033.2054843645242 69.88883871426695 L 2032.9846385311198 69.94811338642353 L 2032.7624925341727 70.00638676733178 L 2032.5390685880973 70.06365302970217 L 2032.3143890351018 70.1199064469562 L 2032.0884763429547 70.175141393799 L 2031.8613531027368 70.22935234678192 L 2031.6330420265826 70.28253388485484 L 2031.4035659454098 70.33468068990828 L 2031.1729478066352 70.3857875473052 L 2030.9412106718805 70.4358493464024 L 2030.7083777146659 70.48486108106175 L 2030.4744722180933 70.53281785015058 L 2030.2395175725173 70.57971485803196 L 2030.0035372732068 70.6255474150442 L 2029.7665549179949 70.67031093796977 L 2029.5285942049197 70.71400095049368 L 2029.2896789298543 70.7566130836511 L 2029.0498329841269 70.79814307626422 L 2028.8090803521325 70.83858677536838 L 2028.5674451089335 70.87794013662739 L 2028.3249514178528 70.9161992247379 L 2028.0816235280577 70.95336021382298 L 2027.8374857721342 70.9894193878147 L 2027.5925625636542 71.0243731408257 L 2027.3468783947349 71.05821797750983 L 2027.1004578335883 71.0909505134116 L 2026.853325522065 71.12256747530469 L 2026.6055061731904 71.1530657015193 L 2026.3570245686929 71.18244214225817 L 2026.1079055565258 71.21069385990175 L 2025.8581740483826 71.2378180293018 L 2025.607855017206 71.26381193806398 L 2025.356973494691 71.2886729868191 L 2025.10555456878 71.31239868948296 L 2024.853623381157 71.3349866735051 L 2024.6012051247299 71.35643468010592 L 2024.3483250411145 71.37674056450265 L 2024.0950084181084 71.39590229612375 L 2023.8412805871626 71.41391795881206 L 2023.587166920849 71.43078575101629 L 2023.3326928303225 71.4465039859713 L 2023.07788376278 71.46107109186667 L 2022.8227651989155 71.47448561200397 L 2022.5673626503735 71.48674620494236 L 2022.3117016571955 71.49785164463276 L 2022.0558077852681 71.50780082054045 L 2021.7997066237651 71.51659273775616 L 2021.5434237825891 71.52422651709544 L 2021.2869848898108 71.53070139518677 L 2021.0304155891058 71.53601672454771 L 2020.7737415371905 71.54017197364975 L 2020.5169884012557 71.54316672697146 L 2020.2601818564017 71.54500068504 L 2020.0033475830685 71.54567366446108 L 2019.7465112644693 71.54518559793732 L 2019.4896985840226 71.54353653427498 L 2019.2329352227816 71.54072663837904 L 2018.976246856869 71.53675619123675 L 2018.7196591549075 71.53162558988952 L 2018.4631977754532 71.5253353473932 L 2018.2068883644306 71.5178860927668 L 2017.9507565525669 71.50927857092958 L 2017.69482795283 71.49951364262655 L 2017.4391281578667 71.48859228434242 L 2017.1836827374432 71.47651558820388 L 2016.9285172358889 71.4632847618705 L 2016.6736571695412 71.4489011284139 L 2016.4191280241944 71.4333661261854 L 2016.1649552525507 71.41668130867232 L 2015.9111642716757 71.3988483443425 L 2015.657780460456 71.3798690164775 L 2015.4048291570616 71.35974522299428 L 2015.1523356564119 71.33847897625544 L 2014.9003252076466 71.31607240286793 L 2014.6488230116006 71.2925277434704 L 2014.397854218284 71.26784735250918 L 2014.1474439243666 71.24203369800281 L 2013.8976171706697 71.21508936129521 L 2013.64839893966 71.18701703679761 L 2013.3998141529532 71.15781953171906 L 2013.1518876688208 71.12749976578573 L 2012.9046442797044 71.09606077094897 L 2012.658108709737 71.06350569108204 L 2012.4123056122703 71.02983778166582 L 2012.167259567409 70.99506040946316 L 2011.9229950795534 70.95917705218234 L 2011.679536574949 70.92219129812916 L 2011.4369083992428 70.88410684584822 L 2011.1951348150508 70.844927503753 L 2010.9542399995298 70.80465718974506 L 2010.7142480419602 70.76329993082226 L 2010.4751829413383 70.720859862676 L 2010.2370686039746 70.67734122927773 L 2009.9999288411045 70.63274838245455 L 2009.763787366507 70.58708578145396 L 2009.5286677941322 70.54035799249802 L 2009.2945936357414 70.49256968832668 L 2009.061588298556 70.44372564773053 L 2008.8296750829152 70.39383075507294 L 2008.598877179947 70.34288999980159 L 2008.36921766925 70.29090847594955 L 2008.1407195165834 70.23789138162589 L 2007.9134055715722 70.18384401849586 L 2007.6872985654215 70.12877179125074 L 2007.4624211086434 70.07268020706736 L 2007.2387956887962 70.0155748750574 L 2007.0164446682359 69.95746150570646 L 2006.7953902818786 69.89834591030306 L 2006.5756546349792 69.83823400035747 L 2006.357259700919 69.7771317870106 L 2006.14022731901 69.71504538043285 L 2005.9245791923086 69.65198098921316 L 2005.7103368854484 69.58794491973808 L 2005.4975218224815 69.5229435755612 L 2005.2861552847367 69.45698345676277 L 2005.0762584086917 69.39007115929972 L 2004.867852183859 69.32221337434602 L 2004.6609574506879 69.25341688762362 L 2004.4555948984787 69.18368857872385 L 2004.251785063316 69.11303542041951 L 2004.0495483260133 69.04146447796754 L 2003.8489049100756 68.96898290840255 L 2003.6498748796776 68.89559795982112 L 2003.452478137656 68.82131697065691 L 2003.2567344235213 68.74614736894696 L 2003.062663311481 68.6700966715888 L 2002.8702842084851 68.59317248358877 L 2002.6796163522833 68.5153824973016 L 2002.4906788095025 68.43673449166107 L 2002.3034904737394 68.3572363314022 L 2002.1180700636717 68.27689596627481 L 2001.9344361211856 68.19572143024841 L 2001.7526070095228 68.11372084070898 L 2001.5726009114426 68.03090239764714 L 2001.394435827405 67.94727438283817 L 2001.2181295737698 67.86284515901389 L 2001.0436997810154 67.7776231690263 L 2000.8711638919758 67.69161693500338 L 2000.7005391600962 67.60483505749689 L 2000.5318426477074 67.51728621462222 L 2000.3650912243204 67.42897916119072 L 2000.2003015649382 67.33992272783415 L 2000.0374901483897 67.25012582012162 L 1999.8766732556805 67.15959741766909 L 1999.7178669683663 67.06834657324134 L 1999.5610871669433 66.9763824118468 L 1999.406349529261 66.88371412982495 L 1999.253669528954 66.79035099392678 L 1999.1030624338955 66.69630234038806 L 1998.9545433046694 66.60157757399578 L 1998.8081269930647 66.50618616714766 L 1998.6638281405906 66.41013765890487 L 1998.521661177012 66.31344165403821 L 1998.381640318907 66.21610782206757 L 1998.2437795682447 66.11814589629505 L 1998.1080927109851 66.01956567283159 L 1997.974593315701 65.92037700961737 L 1997.8432947322208 65.82058982543607 L 1997.7142100902931 65.72021409892297 L 1997.5873522982747 65.61925986756704 L 1997.4627340418392 65.5177372267073 L 1997.3403677827082 65.41565632852324 L 1997.2202657574057 65.31302738101961 L 1997.1024399760342 65.20986064700564 L 1996.9869022210737 65.10616644306874 L 1996.8736640462032 65.00195513854293 L 1996.762736775146 64.89723715447177 L 1996.6541315005368 64.79202296256643 L 1996.5478590828125 64.68632308415845 L 1996.4439301491261 64.58014808914753 L 1996.3423550922848 64.47350859494473 L 1996.2431440697092 64.3664152654106 L 1996.1463070024192 64.25887880978884 L 1996.0518535740407 64.15090998163541 L 1995.9597932298377 64.04251957774314 L 1995.8701351757682 63.9337184370621 L 1995.7828883775626 63.82451743961569 L 1995.6980615598281 63.71492750541265 L 1995.6156632051761 63.60495959335508 L 1995.535701553373 63.49462470014256 L 1995.4581846005174 63.38393385917244 L 1995.38312009824 63.272898139436585 L 1995.3105155529288 63.161528644414446 L 1995.2403782249773 63.04983651096271 L 1995.1727151280602 62.937832908201656 L 1995.1075330284307 62.82552903639821 L 1995.0448384442445 62.71293612584597 L 1994.9846376449077 62.600065435742174 L 1994.9269366504502 62.486928253061755 L 1994.8717412309234 62.37353589142872 L 1994.819056905823 62.259899689984735 L 1994.7688889435374 62.146031012255236 L 1994.7212423608216 62.031941245013115 L 1994.676121922294 61.91764179714002 L 1994.6335321399606 61.80314409848549 L 1994.5934772727644 61.68845959872397 L 1994.5559613261587 61.57359976620988 L 1994.5209880517068 61.45857608683074 L 1994.4885609467071 61.34340006285864 L 1994.458683253843 61.228083211800005 L 1994.431357960859 61.11263706524384 L 1994.4065878002614 60.997073167708585 L 1994.384375249046 60.881403075487704 L 1994.3647225284487 60.765638355494026 L 1994.347631603726 60.64979058410307 L 1994.3331041839558 60.53387134599544 L 1994.321141721868 60.41789223299836 L 1994.3117454136984 60.30186484292647 L 1994.3049161990707 60.185800778422085 L 1994.3006547609004 60.069711645794946 L 1994.2989615253277 59.95360905386156" stroke-miterlimit="10" stroke-width="2.990598758" stroke-dasharray=""/></g><g><g/><text fill="black" stroke="none" font-family="sans-serif" font-size="11pt" font-style="normal" font-weight="normal" text-decoration="normal" x="1987.3844831950025" y="90.421633036" text-anchor="start" dominant-baseline="alphabetic" xml:space="preserve">Database</text></g></g><g><path fill="white" stroke="black" paint-order="fill stroke markers" d=" M 302.82857910934246 153.751959676 L 320.42033650934246 153.751959676 L 320.42033650934246 1735.5324180543994 L 302.82857910934246 1735.5324180543994 L 302.82857910934246 153.751959676" stroke-miterlimit="10" stroke-width="1.4659797833333332" stroke-dasharray=""/><path fill="white" stroke="black" paint-order="fill stroke markers" d=" M 93.93749867197266 258.246998632 L 111.52925607197267 258.246998632 L 111.52925607197267 307.50391935199997 L 93.93749867197266 307.50391935199997 L 93.93749867197266 258.246998632" stroke-miterlimit="10" stroke-width="1.4659797833333332" stroke-dasharray=""/><path fill="white" stroke="black" paint-order="fill stroke markers" d=" M 93.93749867197266 356.76084007199995 L 111.52925607197267 356.76084007199995 L 111.52925607197267 504.5316022319999 L 93.93749867197266 504.5316022319999 L 93.93749867197266 356.76084007199995" stroke-miterlimit="10" stroke-width="1.4659797833333332" stroke-dasharray=""/><path fill="white" stroke="black" paint-order="fill stroke markers" d=" M 732.9134569478841 553.7885229519999 L 750.5052143478841 553.7885229519999 L 750.5052143478841 1686.2754973343995 L 732.9134569478841 1686.2754973343995 L 732.9134569478841 553.7885229519999" stroke-miterlimit="10" stroke-width="1.4659797833333332" stroke-dasharray=""/><path fill="white" stroke="black" paint-order="fill stroke markers" d=" M 1304.7762829163737 749.0570300919999 L 1322.3680403163737 749.0570300919999 L 1322.3680403163737 1295.7384830543997 L 1304.7762829163737 1295.7384830543997 L 1304.7762829163737 749.0570300919999" stroke-miterlimit="10" stroke-width="1.4659797833333332" stroke-dasharray=""/><path fill="white" stroke="black" paint-order="fill stroke markers" d=" M 1726.0652820549153 798.3139508119999 L 1743.6570394549153 798.3139508119999 L 1743.6570394549153 1246.4815623343998 L 1726.0652820549153 1246.4815623343998 L 1726.0652820549153 798.3139508119999" stroke-miterlimit="10" stroke-width="1.4659797833333332" stroke-dasharray=""/><path fill="white" stroke="black" paint-order="fill stroke markers" d=" M 1734.8611607549153 919.6970768719999 L 1752.4529181549153 919.6970768719999 L 1752.4529181549153 1018.210918312 L 1734.8611607549153 1018.210918312 L 1734.8611607549153 919.6970768719999" stroke-miterlimit="10" stroke-width="1.4659797833333332" stroke-dasharray=""/><path fill="white" stroke="black" paint-order="fill stroke markers" d=" M 2287.512871355207 1147.9677208944 L 2305.1046287552067 1147.9677208944 L 2305.1046287552067 1197.2246416143998 L 2287.512871355207 1197.2246416143998 L 2287.512871355207 1147.9677208944" stroke-miterlimit="10" stroke-width="1.4659797833333332" stroke-dasharray=""/><path fill="white" stroke="black" paint-order="fill stroke markers" d=" M 741.7093356478841 1367.8646883943998 L 759.3010930478841 1367.8646883943998 L 759.3010930478841 1614.1492919943996 L 741.7093356478841 1614.1492919943996 L 741.7093356478841 1367.8646883943998" stroke-miterlimit="10" stroke-width="1.4659797833333332" stroke-dasharray=""/><path fill="white" stroke="black" paint-order="fill stroke markers" d=" M 311.62445780934246 1417.1216091143997 L 329.21621520934247 1417.1216091143997 L 329.21621520934247 1564.8923712743995 L 311.62445780934246 1564.8923712743995 L 311.62445780934246 1417.1216091143997" stroke-miterlimit="10" stroke-width="1.4659797833333332" stroke-dasharray=""/><path fill="white" stroke="black" paint-order="fill stroke markers" d=" M 750.5052143478841 1466.3785298343996 L 768.0969717478841 1466.3785298343996 L 768.0969717478841 1515.6354505543995 L 750.5052143478841 1515.6354505543995 L 750.5052143478841 1466.3785298343996" stroke-miterlimit="10" stroke-width="1.4659797833333332" stroke-dasharray=""/><g><g><rect fill="white" stroke="none" x="120.99019197924154" y="130.882675056" width="85.48515356277343" height="22.86928462"/></g><text fill="black" stroke="none" font-family="sans-serif" font-size="11pt" font-style="normal" font-weight="normal" text-decoration="normal" x="123.62895558924154" y="146.71525671600003" text-anchor="start" dominant-baseline="alphabetic" xml:space="preserve">addMovie()</text></g><g><path fill="none" stroke="black" paint-order="fill stroke markers" d=" M 24.636958411914062 153.751959676 L 288.34469885000914 153.751959676" stroke-miterlimit="10" stroke-width="1.4659797833333332" stroke-dasharray=""/><g transform="translate(302.82857910934246,153.751959676) translate(-302.82857910934246,-153.751959676)"><path fill="black" stroke="none" paint-order="stroke fill markers" d=" M 288.1687812760091 146.42206075933333 L 302.82857910934246 153.751959676 L 288.1687812760091 161.0818585926667 Z"/></g></g><g><path fill="white" stroke="black" paint-order="fill stroke markers" d=" M 137.65301581097268 206.26335551499997 A 26.123759739 26.123759739 0 1 1 137.6530027490939 206.23723175961493 M 69.30903831197266 178.64429639699998 L 69.30903831197266 233.88241463299997 M 67.81373893297265 206.26335551499997 L 85.40549633297266 206.26335551499997" stroke-miterlimit="10" stroke-width="2.990598758" stroke-dasharray=""/></g><g><g/><text fill="black" stroke="none" font-family="sans-serif" font-size="11pt" font-style="normal" font-weight="normal" text-decoration="normal" x="58.069795523828134" y="251.47417203299997" text-anchor="start" dominant-baseline="alphabetic" xml:space="preserve">MovieDialog</text></g><g><g><rect fill="white" stroke="none" x="172.9142139897884" y="196.32401258399997" width="104.39711034988281" height="22.86928462"/></g><text fill="black" stroke="none" font-family="sans-serif" font-size="11pt" font-style="normal" font-weight="normal" text-decoration="normal" x="175.55297759978842" y="212.156594244" text-anchor="start" dominant-baseline="alphabetic" xml:space="preserve">MovieDialog()</text></g><g><path fill="none" stroke="black" paint-order="fill stroke markers" d=" M 302.82857910934246 219.19329720399998 L 161.88083947945051 219.19329720399998" stroke-miterlimit="10" stroke-width="1.4659797833333332" stroke-dasharray=""/><g transform="translate(147.3969592201172,219.19329720399998) translate(-147.3969592201172,-219.19329720399998)"><path fill="black" stroke="none" paint-order="stroke fill markers" d=" M 162.05675705345053 211.8633982873333 L 147.3969592201172 219.19329720399998 L 162.05675705345053 226.52319612066665 Z"/></g></g><g><g><rect fill="white" stroke="none" x="204.54015398065755" y="284.634634732" width="5.27752722" height="22.86928462"/></g><text fill="black" stroke="none" font-family="sans-serif" font-size="11pt" font-style="normal" font-weight="normal" text-decoration="normal" x="207.17891759065756" y="300.467216392" text-anchor="start" dominant-baseline="alphabetic" xml:space="preserve"></text></g><g><path fill="none" stroke="black" paint-order="fill stroke markers" d=" M 111.52925607197267 307.50391935199997 L 288.34469885000914 307.50391935199997" stroke-miterlimit="10" stroke-width="1.4659797833333332" stroke-dasharray="7.0367029599999995"/><g transform="translate(302.82857910934246,307.50391935199997) translate(-302.82857910934246,-307.50391935199997)"><path fill="black" stroke="none" paint-order="stroke fill markers" d=" M 288.1687812760091 300.1740204353333 L 302.82857910934246 307.50391935199997 L 288.1687812760091 314.8338182686666 Z"/></g></g><g><g><rect fill="white" stroke="none" x="151.02904558222005" y="333.891555452" width="112.299744016875" height="22.86928462"/></g><text fill="black" stroke="none" font-family="sans-serif" font-size="11pt" font-style="normal" font-weight="normal" text-decoration="normal" x="153.66780919222006" y="349.724137112" text-anchor="start" dominant-baseline="alphabetic" xml:space="preserve">showAndWait()</text></g><g><path fill="none" stroke="black" paint-order="fill stroke markers" d=" M 302.82857910934246 356.76084007199995 L 126.013136331306 356.76084007199995" stroke-miterlimit="10" stroke-width="1.4659797833333332" stroke-dasharray=""/><g transform="translate(111.52925607197267,356.76084007199995) translate(-111.52925607197267,-356.76084007199995)"><path fill="black" stroke="none" paint-order="stroke fill markers" d=" M 126.189053905306 349.4309411553333 L 111.52925607197267 356.76084007199995 L 126.189053905306 364.0907389886666 Z"/></g></g><g><g><rect fill="white" stroke="none" x="56.648464931943366" y="383.14847617199996" width="5.27752722" height="22.86928462"/></g><text fill="black" stroke="none" font-family="sans-serif" font-size="11pt" font-style="normal" font-weight="normal" text-decoration="normal" x="59.287228541943364" y="398.981057832" text-anchor="start" dominant-baseline="alphabetic" xml:space="preserve"></text></g><g><path fill="none" stroke="black" paint-order="fill stroke markers" d=" M 93.93749867197266 406.01776079199993 L 39.1208386712474 406.01776079199993" stroke-miterlimit="10" stroke-width="1.4659797833333332" stroke-dasharray=""/><g transform="translate(24.636958411914062,406.01776079199993) translate(-24.636958411914062,-406.01776079199993)"><path fill="black" stroke="none" paint-order="stroke fill markers" d=" M 39.296756245247394 398.6878618753333 L 24.636958411914062 406.01776079199993 L 39.296756245247394 413.3476597086666 Z"/></g></g><g><g><rect fill="white" stroke="none" x="56.648464931943366" y="432.40539689199994" width="5.27752722" height="22.86928462"/></g><text fill="black" stroke="none" font-family="sans-serif" font-size="11pt" font-style="normal" font-weight="normal" text-decoration="normal" x="59.287228541943364" y="448.23797855199996" text-anchor="start" dominant-baseline="alphabetic" xml:space="preserve"></text></g><g><path fill="none" stroke="black" paint-order="fill stroke markers" d=" M 24.636958411914062 455.2746815119999 L 79.45361841263933 455.2746815119999" stroke-miterlimit="10" stroke-width="1.4659797833333332" stroke-dasharray="7.0367029599999995"/><g transform="translate(93.93749867197266,455.2746815119999) translate(-93.93749867197266,-455.2746815119999)"><path fill="black" stroke="none" paint-order="stroke fill markers" d=" M 79.27770083863933 447.94478259533327 L 93.93749867197266 455.2746815119999 L 79.27770083863933 462.60458042866657 Z"/></g></g><g><g><rect fill="white" stroke="none" x="132.346168995306" y="481.6623176119999" width="149.66549719070312" height="22.86928462"/></g><text fill="black" stroke="none" font-family="sans-serif" font-size="11pt" font-style="normal" font-weight="normal" text-decoration="normal" x="134.984932605306" y="497.49489927199994" text-anchor="start" dominant-baseline="alphabetic" xml:space="preserve">returnm:MovieInfo</text></g><g><path fill="none" stroke="black" paint-order="fill stroke markers" d=" M 111.52925607197267 504.5316022319999 L 288.34469885000914 504.5316022319999" stroke-miterlimit="10" stroke-width="1.4659797833333332" stroke-dasharray=""/><g transform="translate(302.82857910934246,504.5316022319999) translate(-302.82857910934246,-504.5316022319999)"><path fill="black" stroke="none" paint-order="stroke fill markers" d=" M 288.1687812760091 497.20170331533325 L 302.82857910934246 504.5316022319999 L 288.1687812760091 511.86150114866655 Z"/></g></g><g><g><rect fill="white" stroke="none" x="345.6351887826758" y="530.9192383319998" width="362.063415891875" height="22.86928462"/></g><text fill="black" stroke="none" font-family="sans-serif" font-size="11pt" font-style="normal" font-weight="normal" text-decoration="normal" x="348.2739523926758" y="546.7518199919998" text-anchor="start" dominant-baseline="alphabetic" xml:space="preserve">addMovie(title:String,runningTime:int,year:int)</text></g><g><path fill="none" stroke="black" paint-order="fill stroke markers" d=" M 320.42033650934246 553.7885229519999 L 718.4295766885508 553.7885229519999" stroke-miterlimit="10" stroke-width="1.4659797833333332" stroke-dasharray=""/><g transform="translate(732.9134569478841,553.7885229519999) translate(-732.9134569478841,-553.7885229519999)"><path fill="black" stroke="none" paint-order="stroke fill markers" d=" M 718.2536591145508 546.4586240353332 L 732.9134569478841 553.7885229519999 L 718.2536591145508 561.1184218686666 Z"/></g></g><g><g><rect fill="white" stroke="none" x="771.3221272712175" y="627.6739040319999" width="492.1135257551563" height="22.86928462"/></g><text fill="black" stroke="none" font-family="sans-serif" font-size="11pt" font-style="normal" font-weight="normal" text-decoration="normal" x="773.9608908812174" y="643.5064856919998" text-anchor="start" dominant-baseline="alphabetic" xml:space="preserve">checkDoubleAdded(title:String,runningTime:Integer,year:Integer)</text></g><g><path fill="none" stroke="black" paint-order="fill stroke markers" d=" M 750.5052143478841 650.5431886519998 L 820.8722439478842 650.5431886519998 L 820.8722439478842 673.4124732719998 L 764.9890946072175 673.4124732719998" stroke-miterlimit="10" stroke-width="1.4659797833333332" stroke-dasharray=""/><g transform="translate(750.5052143478841,673.4124732719998) translate(-750.5052143478841,-673.4124732719998)"><path fill="black" stroke="none" paint-order="stroke fill markers" d=" M 765.1650121812174 666.0825743553331 L 750.5052143478841 673.4124732719998 L 765.1650121812174 680.7423721886665 Z"/></g></g><g><g><rect fill="white" stroke="none" x="846.6090406861914" y="726.1877454719998" width="362.063415891875" height="22.86928462"/></g><text fill="black" stroke="none" font-family="sans-serif" font-size="11pt" font-style="normal" font-weight="normal" text-decoration="normal" x="849.2478042961914" y="742.0203271319998" text-anchor="start" dominant-baseline="alphabetic" xml:space="preserve">addMovie(title:String,runningTime:int,year:int)</text></g><g><path fill="none" stroke="black" paint-order="fill stroke markers" d=" M 750.5052143478841 749.0570300919999 L 1290.2924026570404 749.0570300919999" stroke-miterlimit="10" stroke-width="1.4659797833333332" stroke-dasharray=""/><g transform="translate(1304.7762829163737,749.0570300919999) translate(-1304.7762829163737,-749.0570300919999)"><path fill="black" stroke="none" paint-order="stroke fill markers" d=" M 1290.1164850830403 741.7271311753332 L 1304.7762829163737 749.0570300919999 L 1290.1164850830403 756.3869290086666 Z"/></g></g><g><g><rect fill="white" stroke="none" x="1343.184953239707" y="775.4446661919999" width="362.063415891875" height="22.86928462"/></g><text fill="black" stroke="none" font-family="sans-serif" font-size="11pt" font-style="normal" font-weight="normal" text-decoration="normal" x="1345.8237168497071" y="791.2772478519998" text-anchor="start" dominant-baseline="alphabetic" xml:space="preserve">addMovie(title:String,runningTime:int,year:int)</text></g><g><path fill="none" stroke="black" paint-order="fill stroke markers" d=" M 1322.3680403163737 798.3139508119999 L 1711.581401795582 798.3139508119999" stroke-miterlimit="10" stroke-width="1.4659797833333332" stroke-dasharray=""/><g transform="translate(1726.0652820549153,798.3139508119999) translate(-1726.0652820549153,-798.3139508119999)"><path fill="black" stroke="none" paint-order="stroke fill markers" d=" M 1711.405484221582 790.9840518953332 L 1726.0652820549153 798.3139508119999 L 1711.405484221582 805.6438497286666 Z"/></g></g><g><g><rect fill="white" stroke="none" x="1833.0251442298515" y="824.7015869119999" width="97.58964575027343" height="22.86928462"/></g><text fill="black" stroke="none" font-family="sans-serif" font-size="11pt" font-style="normal" font-weight="normal" text-decoration="normal" x="1835.6639078398516" y="840.5341685719999" text-anchor="start" dominant-baseline="alphabetic" xml:space="preserve">oid:=getId()</text></g><g><path fill="none" stroke="black" paint-order="fill stroke markers" d=" M 1743.6570394549153 847.570871532 L 2005.4990144957278 847.570871532" stroke-miterlimit="10" stroke-width="1.4659797833333332" stroke-dasharray=""/><g transform="translate(2019.9828947550611,847.570871532) translate(-2019.9828947550611,-847.570871532)"><path fill="black" stroke="none" paint-order="stroke fill markers" d=" M 2005.3230969217277 840.2409726153332 L 2019.9828947550611 847.570871532 L 2005.3230969217277 854.9007704486667 Z"/></g></g><g><g><rect fill="white" stroke="none" x="1773.2698310782487" y="873.958507632" width="197.3963016340625" height="22.86928462"/></g><text fill="black" stroke="none" font-family="sans-serif" font-size="11pt" font-style="normal" font-weight="normal" text-decoration="normal" x="1775.9085946882487" y="889.7910892919999" text-anchor="start" dominant-baseline="alphabetic" xml:space="preserve">performUpdate(sql:String)</text></g><g><path fill="none" stroke="black" paint-order="fill stroke markers" d=" M 1743.6570394549153 896.8277922519999 L 1822.8199477549153 896.8277922519999 L 1822.8199477549153 919.6970768719999 L 1766.9367984142486 919.6970768719999" stroke-miterlimit="10" stroke-width="1.4659797833333332" stroke-dasharray=""/><g transform="translate(1752.4529181549153,919.6970768719999) translate(-1752.4529181549153,-919.6970768719999)"><path fill="black" stroke="none" paint-order="stroke fill markers" d=" M 1767.1127159882487 912.3671779553332 L 1752.4529181549153 919.6970768719999 L 1767.1127159882487 927.0269757886666 Z"/></g></g><g><g><rect fill="white" stroke="none" x="1789.1697266462577" y="946.0847129719999" width="194.09635961746093" height="22.86928462"/></g><text fill="black" stroke="none" font-family="sans-serif" font-size="11pt" font-style="normal" font-weight="normal" text-decoration="normal" x="1791.8084902562578" y="961.9172946319999" text-anchor="start" dominant-baseline="alphabetic" xml:space="preserve">executeUpdate(sql:String)</text></g><g><path fill="none" stroke="black" paint-order="fill stroke markers" d=" M 1752.4529181549153 968.953997592 L 2005.4990144957278 968.953997592" stroke-miterlimit="10" stroke-width="1.4659797833333332" stroke-dasharray=""/><g transform="translate(2019.9828947550611,968.953997592) translate(-2019.9828947550611,-968.953997592)"><path fill="black" stroke="none" paint-order="stroke fill markers" d=" M 2005.3230969217277 961.6240986753332 L 2019.9828947550611 968.953997592 L 2005.3230969217277 976.2838965086667 Z"/></g></g><g><g><rect fill="white" stroke="none" x="1773.2698310782487" y="995.3416336920001" width="5.27752722" height="22.86928462"/></g><text fill="black" stroke="none" font-family="sans-serif" font-size="11pt" font-style="normal" font-weight="normal" text-decoration="normal" x="1775.9085946882487" y="1011.174215352" text-anchor="start" dominant-baseline="alphabetic" xml:space="preserve"></text></g><g><path fill="none" stroke="black" paint-order="fill stroke markers" d=" M 1752.4529181549153 1018.210918312 L 1822.8199477549153 1018.210918312 L 1822.8199477549153 1041.080202932 L 1758.1409197142486 1041.080202932" stroke-miterlimit="10" stroke-width="1.4659797833333332" stroke-dasharray="7.0367029599999995"/><g transform="translate(1743.6570394549153,1041.080202932) translate(-1743.6570394549153,-1041.080202932)"><path fill="black" stroke="none" paint-order="stroke fill markers" d=" M 1758.3168372882487 1033.7503040153333 L 1743.6570394549153 1041.080202932 L 1758.3168372882487 1048.4101018486667 Z"/></g></g><g><path fill="white" stroke="black" paint-order="fill stroke markers" d=" M 2322.432509794207 1093.591598771 A 26.123759739 26.123759739 0 1 1 2322.432496732328 1093.565475015615 M 2268.689690937207 1122.1078375164 L 2323.9278091732067 1122.1078375164" stroke-miterlimit="10" stroke-width="2.990598758" stroke-dasharray=""/></g><g><g/><text fill="black" stroke="none" font-family="sans-serif" font-size="11pt" font-style="normal" font-weight="normal" text-decoration="normal" x="2274.529926202668" y="1141.1948942954" text-anchor="start" dominant-baseline="alphabetic" xml:space="preserve">Movie</text></g><g><g><rect fill="white" stroke="none" x="1773.2698310782484" y="1084.8484953432" width="465.807068235625" height="22.86928462"/></g><text fill="black" stroke="none" font-family="sans-serif" font-size="11pt" font-style="normal" font-weight="normal" text-decoration="normal" x="1775.9085946882485" y="1100.6810770032" text-anchor="start" dominant-baseline="alphabetic" xml:space="preserve">PersistentMovie(title:String,runningTime:Integer,year:Integer)</text></g><g><path fill="none" stroke="black" paint-order="fill stroke markers" d=" M 1743.6570394549153 1107.7177799632 L 2254.205810677873 1107.7177799632" stroke-miterlimit="10" stroke-width="1.4659797833333332" stroke-dasharray=""/><g transform="translate(2268.6896909372067,1107.7177799632) translate(-2268.6896909372067,-1107.7177799632)"><path fill="black" stroke="none" paint-order="stroke fill markers" d=" M 2254.0298931038733 1100.3878810465333 L 2268.6896909372067 1107.7177799632 L 2254.0298931038733 1115.0476788798667 Z"/></g></g><g><g><rect fill="white" stroke="none" x="2012.9461917950612" y="1174.3553569944" width="5.27752722" height="22.86928462"/></g><text fill="black" stroke="none" font-family="sans-serif" font-size="11pt" font-style="normal" font-weight="normal" text-decoration="normal" x="2015.5849554050612" y="1190.1879386543999" text-anchor="start" dominant-baseline="alphabetic" xml:space="preserve"></text></g><g><path fill="none" stroke="black" paint-order="fill stroke markers" d=" M 2287.512871355207 1197.2246416143998 L 1758.1409197142486 1197.2246416143998" stroke-miterlimit="10" stroke-width="1.4659797833333332" stroke-dasharray="7.0367029599999995"/><g transform="translate(1743.6570394549153,1197.2246416143998) translate(-1743.6570394549153,-1197.2246416143998)"><path fill="black" stroke="none" paint-order="stroke fill markers" d=" M 1758.3168372882487 1189.8947426977331 L 1743.6570394549153 1197.2246416143998 L 1758.3168372882487 1204.5545405310666 Z"/></g></g><g><g><rect fill="white" stroke="none" x="1521.5778975756446" y="1223.6122777143999" width="5.27752722" height="22.86928462"/></g><text fill="black" stroke="none" font-family="sans-serif" font-size="11pt" font-style="normal" font-weight="normal" text-decoration="normal" x="1524.2166611856446" y="1239.4448593743998" text-anchor="start" dominant-baseline="alphabetic" xml:space="preserve"></text></g><g><path fill="none" stroke="black" paint-order="fill stroke markers" d=" M 1726.0652820549153 1246.4815623343998 L 1336.851920575707 1246.4815623343998" stroke-miterlimit="10" stroke-width="1.4659797833333332" stroke-dasharray="7.0367029599999995"/><g transform="translate(1322.3680403163737,1246.4815623343998) translate(-1322.3680403163737,-1246.4815623343998)"><path fill="black" stroke="none" paint-order="stroke fill markers" d=" M 1337.0278381497071 1239.151663417733 L 1322.3680403163737 1246.4815623343998 L 1337.0278381497071 1253.8114612510665 Z"/></g></g><g><g><rect fill="white" stroke="none" x="1025.0019850221288" y="1272.8691984343998" width="5.27752722" height="22.86928462"/></g><text fill="black" stroke="none" font-family="sans-serif" font-size="11pt" font-style="normal" font-weight="normal" text-decoration="normal" x="1027.6407486321289" y="1288.7017800943997" text-anchor="start" dominant-baseline="alphabetic" xml:space="preserve"></text></g><g><path fill="none" stroke="black" paint-order="fill stroke markers" d=" M 1304.7762829163737 1295.7384830543997 L 764.9890946072175 1295.7384830543997" stroke-miterlimit="10" stroke-width="1.4659797833333332" stroke-dasharray="7.0367029599999995"/><g transform="translate(750.5052143478841,1295.7384830543997) translate(-750.5052143478841,-1295.7384830543997)"><path fill="black" stroke="none" paint-order="stroke fill markers" d=" M 765.1650121812174 1288.408584137733 L 750.5052143478841 1295.7384830543997 L 765.1650121812174 1303.0683819710664 Z"/></g></g><g><g><rect fill="white" stroke="none" x="780.1180059712175" y="1322.1261191543997" width="126.94535864089843" height="22.86928462"/></g><text fill="black" stroke="none" font-family="sans-serif" font-size="11pt" font-style="normal" font-weight="normal" text-decoration="normal" x="782.7567695812174" y="1337.9587008143997" text-anchor="start" dominant-baseline="alphabetic" xml:space="preserve">notifyObservers()</text></g><g><path fill="none" stroke="black" paint-order="fill stroke markers" d=" M 750.5052143478841 1344.9954037743998 L 829.6681226478842 1344.9954037743998 L 829.6681226478842 1367.8646883943998 L 773.7849733072175 1367.8646883943998" stroke-miterlimit="10" stroke-width="1.4659797833333332" stroke-dasharray=""/><g transform="translate(759.3010930478841,1367.8646883943998) translate(-759.3010930478841,-1367.8646883943998)"><path fill="black" stroke="none" paint-order="stroke fill markers" d=" M 773.9608908812174 1360.534789477733 L 759.3010930478841 1367.8646883943998 L 773.9608908812174 1375.1945873110665 Z"/></g></g><g><g><rect fill="white" stroke="none" x="503.1604528586524" y="1394.2523244943998" width="64.60464513992187" height="22.86928462"/></g><text fill="black" stroke="none" font-family="sans-serif" font-size="11pt" font-style="normal" font-weight="normal" text-decoration="normal" x="505.7992164686524" y="1410.0849061543997" text-anchor="start" dominant-baseline="alphabetic" xml:space="preserve">update()</text></g><g><path fill="none" stroke="black" paint-order="fill stroke markers" d=" M 741.7093356478841 1417.1216091143997 L 343.7000954686758 1417.1216091143997" stroke-miterlimit="10" stroke-width="1.4659797833333332" stroke-dasharray=""/><g transform="translate(329.21621520934247,1417.1216091143997) translate(-329.21621520934247,-1417.1216091143997)"><path fill="black" stroke="none" paint-order="stroke fill markers" d=" M 343.8760130426758 1409.791710197733 L 329.21621520934247 1417.1216091143997 L 343.8760130426758 1424.4515080310664 Z"/></g></g><g><g><rect fill="white" stroke="none" x="495.57555071695316" y="1443.5092452143997" width="88.57032812332031" height="22.86928462"/></g><text fill="black" stroke="none" font-family="sans-serif" font-size="11pt" font-style="normal" font-weight="normal" text-decoration="normal" x="498.2143143269532" y="1459.3418268743997" text-anchor="start" dominant-baseline="alphabetic" xml:space="preserve">getMovies()</text></g><g><path fill="none" stroke="black" paint-order="fill stroke markers" d=" M 329.21621520934247 1466.3785298343996 L 736.0213340885508 1466.3785298343996" stroke-miterlimit="10" stroke-width="1.4659797833333332" stroke-dasharray=""/><g transform="translate(750.5052143478841,1466.3785298343996) translate(-750.5052143478841,-1466.3785298343996)"><path fill="black" stroke="none" paint-order="stroke fill markers" d=" M 735.8454165145508 1459.048630917733 L 750.5052143478841 1466.3785298343996 L 735.8454165145508 1473.7084287510663 Z"/></g></g><g><g><rect fill="white" stroke="none" x="488.77171007974613" y="1492.7661659343996" width="102.17800939773437" height="22.86928462"/></g><text fill="black" stroke="none" font-family="sans-serif" font-size="11pt" font-style="normal" font-weight="normal" text-decoration="normal" x="491.41047368974614" y="1508.5987475943996" text-anchor="start" dominant-baseline="alphabetic" xml:space="preserve">returnmovies</text></g><g><path fill="none" stroke="black" paint-order="fill stroke markers" d=" M 750.5052143478841 1515.6354505543995 L 343.7000954686758 1515.6354505543995" stroke-miterlimit="10" stroke-width="1.4659797833333332" stroke-dasharray="7.0367029599999995"/><g transform="translate(329.21621520934247,1515.6354505543995) translate(-329.21621520934247,-1515.6354505543995)"><path fill="black" stroke="none" paint-order="stroke fill markers" d=" M 343.8760130426758 1508.3055516377328 L 329.21621520934247 1515.6354505543995 L 343.8760130426758 1522.9653494710662 Z"/></g></g><g><g><rect fill="white" stroke="none" x="532.8240118186134" y="1542.0230866543995" width="5.27752722" height="22.86928462"/></g><text fill="black" stroke="none" font-family="sans-serif" font-size="11pt" font-style="normal" font-weight="normal" text-decoration="normal" x="535.4627754286133" y="1557.8556683143995" text-anchor="start" dominant-baseline="alphabetic" xml:space="preserve"></text></g><g><path fill="none" stroke="black" paint-order="fill stroke markers" d=" M 329.21621520934247 1564.8923712743995 L 727.2254553885508 1564.8923712743995" stroke-miterlimit="10" stroke-width="1.4659797833333332" stroke-dasharray="7.0367029599999995"/><g transform="translate(741.7093356478841,1564.8923712743995) translate(-741.7093356478841,-1564.8923712743995)"><path fill="black" stroke="none" paint-order="stroke fill markers" d=" M 727.0495378145508 1557.5624723577328 L 741.7093356478841 1564.8923712743995 L 727.0495378145508 1572.2222701910662 Z"/></g></g><g><g><rect fill="white" stroke="none" x="780.1180059712175" y="1591.2800073743995" width="5.27752722" height="22.86928462"/></g><text fill="black" stroke="none" font-family="sans-serif" font-size="11pt" font-style="normal" font-weight="normal" text-decoration="normal" x="782.7567695812174" y="1607.1125890343994" text-anchor="start" dominant-baseline="alphabetic" xml:space="preserve"></text></g><g><path fill="none" stroke="black" paint-order="fill stroke markers" d=" M 759.3010930478841 1614.1492919943996 L 829.6681226478842 1614.1492919943996 L 829.6681226478842 1637.0185766143995 L 764.9890946072175 1637.0185766143995" stroke-miterlimit="10" stroke-width="1.4659797833333332" stroke-dasharray="7.0367029599999995"/><g transform="translate(750.5052143478841,1637.0185766143995) translate(-750.5052143478841,-1637.0185766143995)"><path fill="black" stroke="none" paint-order="stroke fill markers" d=" M 765.1650121812174 1629.6886776977328 L 750.5052143478841 1637.0185766143995 L 765.1650121812174 1644.3484755310662 Z"/></g></g><g><g><rect fill="white" stroke="none" x="524.0281331186134" y="1663.4062127143995" width="5.27752722" height="22.86928462"/></g><text fill="black" stroke="none" font-family="sans-serif" font-size="11pt" font-style="normal" font-weight="normal" text-decoration="normal" x="526.6668967286133" y="1679.2387943743995" text-anchor="start" dominant-baseline="alphabetic" xml:space="preserve"></text></g><g><path fill="none" stroke="black" paint-order="fill stroke markers" d=" M 732.9134569478841 1686.2754973343995 L 334.9042167686758 1686.2754973343995" stroke-miterlimit="10" stroke-width="1.4659797833333332" stroke-dasharray="7.0367029599999995"/><g transform="translate(320.42033650934246,1686.2754973343995) translate(-320.42033650934246,-1686.2754973343995)"><path fill="black" stroke="none" paint-order="stroke fill markers" d=" M 335.0801343426758 1678.9455984177328 L 320.42033650934246 1686.2754973343995 L 335.0801343426758 1693.6053962510662 Z"/></g></g><g><g><rect fill="white" stroke="none" x="161.09400515062825" y="1712.6631334343995" width="5.27752722" height="22.86928462"/></g><text fill="black" stroke="none" font-family="sans-serif" font-size="11pt" font-style="normal" font-weight="normal" text-decoration="normal" x="163.73276876062826" y="1728.4957150943994" text-anchor="start" dominant-baseline="alphabetic" xml:space="preserve"></text></g><g><path fill="none" stroke="black" paint-order="fill stroke markers" d=" M 302.82857910934246 1735.5324180543994 L 39.1208386712474 1735.5324180543994" stroke-miterlimit="10" stroke-width="1.4659797833333332" stroke-dasharray="7.0367029599999995"/><g transform="translate(24.636958411914062,1735.5324180543994) translate(-24.636958411914062,-1735.5324180543994)"><path fill="black" stroke="none" paint-order="stroke fill markers" d=" M 39.296756245247394 1728.2025191377327 L 24.636958411914062 1735.5324180543994 L 39.296756245247394 1742.862316971066 Z"/></g></g><g><g/><path fill="none" stroke="black" paint-order="fill stroke markers" d=" M 680.1381847478841 580.1761590519999 L 1269.5927681163737 580.1761590519999 L 1269.5927681163737 699.8001093719998 L 680.1381847478841 699.8001093719998 L 680.1381847478841 580.1761590519999 Z" stroke-miterlimit="10" stroke-width="2.5131082" stroke-dasharray=""/><path fill="white" stroke="black" paint-order="fill stroke markers" d=" M 680.1381847478841 580.1761590519999 L 680.1381847478841 601.2862679319999 L 788.8632187129232 601.2862679319999 L 799.4182731529232 590.7312134919999 L 799.4182731529232 580.1761590519999 L 680.1381847478841 580.1761590519999" stroke-miterlimit="10" stroke-width="2.5131082" stroke-dasharray=""/><text fill="black" stroke="none" font-family="sans-serif" font-size="8.8pt" font-style="normal" font-weight="bold" text-decoration="normal" x="697.7299421478841" y="594.2495649719999" text-anchor="start" dominant-baseline="alphabetic" xml:space="preserve">expandable-</text><text fill="black" stroke="none" font-family="sans-serif" font-size="8.8pt" font-style="normal" font-weight="bold" text-decoration="normal" x="817.0100305529232" y="594.2495649719999" text-anchor="start" dominant-baseline="alphabetic" xml:space="preserve">[seediagram02-AddMovieECE(doubleaddedmovie)]</text></g></g><g/><g/><g/><g/><g/><g/></g></svg>