<svg version="1.1" xmlns="http://www.w3.org/2000/svg" xmlns:xlink="http://www.w3.org/1999/xlink" width="1616" height="1412"><desc>actor%20Staff%0Aboundary%20MovieDialog%0Aboundary%20StaffUI%0A%0Acontrol%20ManagementSystem%0Aparticipant%20Cinema%0Aparticipant%20MovieMapper%0A%0A%0A%0Adatabase%20Database%0Aentity%20Movie%0A%0AStaff-%3EStaffUI%3AaddMovie()%0Aactivate%20StaffUI%0A%0AStaffUI-%3E*MovieDialog%3AMovieDialog()%0Aactivate%20MovieDialog%0AMovieDialog--%3EStaffUI%3A%0Adeactivate%20MovieDialog%0A%0AStaffUI-%3EMovieDialog%3AshowAndWait()%0Aactivate%20MovieDialog%0AMovieDialog-%3EStaff%3A%0Aactivate%20Staff%0AStaff--%3EMovieDialog%3A%0Adeactivate%20Staff%0AMovieDialog-%3EStaffUI%3Areturn%20m%20%3A%20MovieInfo%0Adeactivate%20MovieDialog%0A%0AStaffUI-%3EManagementSystem%3AaddMovie(title%20%3A%20String%2C%20runningTime%20%3A%20int%2C%20year%20%3A%20int)%0Aactivate%20ManagementSystem%0A%0A%0Aexpandable-%20see%20diagram%2002%20-%20Add%20Movie%20ECE%20(double%20added%20movie)%0AManagementSystem-%3EManagementSystem%3AcheckDoubleAdded(title%20%3A%20String%2C%20runningTime%20%3A%20Integer%2C%20year%20%3A%20Integer)%0Aend%20%0A%0AManagementSystem-%3ECinema%3AaddMovie(title%20%3A%20String%2C%20runningTime%20%3A%20int%2C%20year%20%3A%20int)%0Aactivate%20Cinema%0A%0A%0A%0ACinema-%3EMovieMapper%3AaddMovie(title%20%3A%20String%2C%20runningTime%20%3A%20int%2C%20year%20%3A%20int)%0Aactivate%20MovieMapper%0AMovieMapper-%3EDatabase%3Aoid%20%3A%3D%20getId()%0AMovieMapper-%3EMovieMapper%3AperformUpdate(sql%20%3A%20String)%0Aactivate%20MovieMapper%0A%0A%0AMovieMapper-%3EDatabase%3Aexecute(sql%20%3A%20String)%0AMovieMapper--%3EMovieMapper%3A%0Adeactivate%20MovieMapper%0A%0A%0AMovieMapper-%3E*Movie%3APersistentMovie(title%20%3A%20String%2C%20runningTime%20%3A%20int%2C%20year%20%3A%20int)%0Aactivate%20Movie%0AMovie--%3EMovieMapper%3A%0Adeactivate%20Movie%0AMovieMapper--%3ECinema%3A%0Adeactivate%20MovieMapper%0ACinema--%3EManagementSystem%3A%0Adeactivate%20Cinema%0A%0AManagementSystem-%3EManagementSystem%3AnotifyObservers()%0Aactivate%20ManagementSystem%0A%0AManagementSystem-%3EStaffUI%3Aupdate()%0Aactivate%20StaffUI%0A%0AStaffUI-%3EManagementSystem%3AgetMovies()%0Aactivate%20ManagementSystem%0AManagementSystem--%3EStaffUI%3Areturn%20movies%0Adeactivate%20ManagementSystem%0A%0AStaffUI--%3EManagementSystem%3A%0Adeactivate%20StaffUI%0A%0AManagementSystem--%3EManagementSystem%3A%0A%0Adeactivate%20ManagementSystem%0AManagementSystem--%3EStaffUI%3A%0Adeactivate%20ManagementSystem%0AStaffUI--%3EStaff%3A%0Adeactivate%20StaffUI%0A</desc><defs/><g><g/><g/><g/><g/><g/><g/><g/><g/><g/><g/><g/><g/><g/><g/><g/><g/><g/><g/><g/><g/><g/><g/><g/><g/><g/><g/><g/><g/><g/><g><rect fill="white" stroke="none" x="0" y="0" width="1616" height="1412"/></g><g/><g><path fill="none" stroke="black" paint-order="fill stroke markers" d=" M 18.1258913 75.19219734400001 L 18.1258913 1412.0099470356004" stroke-miterlimit="10" stroke-width="1.1518412583333333" stroke-dasharray="10.632380846153845,4.607365033333333"/><path fill="none" stroke="black" paint-order="fill stroke markers" d=" M 77.88818872083333 202.90835606800002 L 77.88818872083333 1412.0099470356004" stroke-miterlimit="10" stroke-width="1.1518412583333333" stroke-dasharray="10.632380846153845,4.607365033333333"/><path fill="none" stroke="black" paint-order="fill stroke markers" d=" M 226.685659165625 75.19219734400001 L 226.685659165625 1412.0099470356004" stroke-miterlimit="10" stroke-width="1.1518412583333333" stroke-dasharray="10.632380846153845,4.607365033333333"/><path fill="none" stroke="black" paint-order="fill stroke markers" d=" M 530.2523314572917 75.19219734400001 L 530.2523314572917 1412.0099470356004" stroke-miterlimit="10" stroke-width="1.1518412583333333" stroke-dasharray="10.632380846153845,4.607365033333333"/><path fill="none" stroke="black" paint-order="fill stroke markers" d=" M 935.3950619406249 75.19219734400001 L 935.3950619406249 1412.0099470356004" stroke-miterlimit="10" stroke-width="1.1518412583333333" stroke-dasharray="10.632380846153845,4.607365033333333"/><path fill="none" stroke="black" paint-order="fill stroke markers" d=" M 1232.0506866822916 75.19219734400001 L 1232.0506866822916 1412.0099470356004" stroke-miterlimit="10" stroke-width="1.1518412583333333" stroke-dasharray="10.632380846153845,4.607365033333333"/><path fill="none" stroke="black" paint-order="fill stroke markers" d=" M 1413.4179674284999 75.19219734400001 L 1413.4179674284999 1412.0099470356004" stroke-miterlimit="10" stroke-width="1.1518412583333333" stroke-dasharray="10.632380846153845,4.607365033333333"/><path fill="none" stroke="black" paint-order="fill stroke markers" d=" M 1587.8742006247082 901.9746378455999 L 1587.8742006247082 1412.0099470356004" stroke-miterlimit="10" stroke-width="1.1518412583333333" stroke-dasharray="10.632380846153845,4.607365033333333"/></g><g><g><path fill="white" stroke="black" paint-order="fill stroke markers" d=" M 26.004485507 16.724735071000005 A 7.878594207 7.878594207 0 1 1 26.004481567703223 16.7168564781061 M 18.1258913 24.603329278000004 L 18.1258913 41.4662853 M 8.173982828 30.685051122000004 L 28.077799772 30.685051122000004 M 18.1258913 41.4662853 L 8.173982828 57.22347371400001 M 18.1258913 41.4662853 L 28.077799772 57.22347371400001" stroke-miterlimit="10" stroke-width="2.3497561670000002" stroke-dasharray=""/></g><g><g/><text fill="black" stroke="none" font-family="sans-serif" font-size="8pt" font-style="normal" font-weight="normal" text-decoration="normal" x="6.911047549999999" y="71.045568814" text-anchor="start" dominant-baseline="alphabetic" xml:space="preserve">Staff</text></g><g><path fill="white" stroke="black" paint-order="fill stroke markers" d=" M 254.122517939125 35.52278440700001 A 20.5258112235 20.5258112235 0 1 1 254.12250767622024 35.50225859919747 M 200.423678475625 13.822095100000011 L 200.423678475625 57.22347371400001 M 199.248800392125 35.52278440700001 L 213.070895492125 35.52278440700001" stroke-miterlimit="10" stroke-width="2.3497561670000002" stroke-dasharray=""/></g><g><g/><text fill="black" stroke="none" font-family="sans-serif" font-size="8pt" font-style="normal" font-weight="normal" text-decoration="normal" x="209.970815415625" y="71.045568814" text-anchor="start" dominant-baseline="alphabetic" xml:space="preserve">StaffUI</text></g><g><path fill="white" stroke="black" paint-order="fill stroke markers" d=" M 550.7781426807917 35.52278440700001 A 20.5258112235 20.5258112235 0 1 1 550.7781324178869 35.50225859919747 M 527.4879124372917 14.99697318350001 L 535.7811694972917 8.085925633500011 M 527.4879124372917 14.99697318350001 L 535.7811694972917 21.90802073350001" stroke-miterlimit="10" stroke-width="2.3497561670000002" stroke-dasharray=""/></g><g><g/><text fill="black" stroke="none" font-family="sans-serif" font-size="8pt" font-style="normal" font-weight="normal" text-decoration="normal" x="479.8123900510417" y="71.045568814" text-anchor="start" dominant-baseline="alphabetic" xml:space="preserve">ManagementSystem</text></g><path fill="none" stroke="none"/><g><path fill="white" stroke="black" paint-order="fill stroke markers" d=" M 901.4461844602499 37.87254057400001 L 969.343939421 37.87254057400001 L 969.343939421 75.19219734400001 L 901.4461844602499 75.19219734400001 L 901.4461844602499 37.87254057400001 Z" stroke-miterlimit="10" stroke-width="2.211535216" stroke-dasharray=""/></g><g><g/><text fill="black" stroke="none" font-family="sans-serif" font-size="8pt" font-style="normal" font-weight="normal" text-decoration="normal" x="916.4431576437499" y="61.370102243999995" text-anchor="start" dominant-baseline="alphabetic" xml:space="preserve">Cinema</text></g><path fill="none" stroke="none"/><g><path fill="white" stroke="black" paint-order="fill stroke markers" d=" M 1183.7341334206667 37.87254057400001 L 1280.3672399439167 37.87254057400001 L 1280.3672399439167 75.19219734400001 L 1183.7341334206667 75.19219734400001 L 1183.7341334206667 37.87254057400001 Z" stroke-miterlimit="10" stroke-width="2.211535216" stroke-dasharray=""/></g><g><g/><text fill="black" stroke="none" font-family="sans-serif" font-size="8pt" font-style="normal" font-weight="normal" text-decoration="normal" x="1198.7311066041666" y="61.370102243999995" text-anchor="start" dominant-baseline="alphabetic" xml:space="preserve">MovieMapper</text></g><g><path fill="white" stroke="black" paint-order="fill stroke markers" d=" M 1393.2377085824999 48.10089094800001 L 1393.2377085824999 19.074491238000007 L 1433.5982262745 19.074491238000007 L 1433.5982262745 48.10089094800001" stroke-miterlimit="10" stroke-width="2.3497561670000002" stroke-dasharray=""/><path fill="white" stroke="black" paint-order="fill stroke markers" d=" M 1433.5982262745 18.065478295700007 L 1433.597217269966 18.15670260293715 L 1433.5941903572639 18.247917787819585 L 1433.5891458390824 18.339114728904843 L 1433.5820842198693 18.430284306574812 L 1433.5730062057803 18.521417403947694 L 1433.5619127046093 18.612504907789702 L 1433.5488048256973 18.703537709426353 L 1433.5336838798212 18.794506705653347 L 1433.516551379063 18.885402799646865 L 1433.4974090366586 18.976216901873258 L 1433.476258766826 19.066939930997982 L 1433.453102684575 19.15756281479372 L 1433.4279431054943 19.248076491047623 L 1433.4007825455205 19.338471908467483 L 1433.3716237206877 19.42874002758689 L 1433.3404695468535 19.518871821669155 L 1433.3073231394094 19.608858277609983 L 1433.2721878129687 19.698690396838764 L 1433.2350670810347 19.788359196218437 L 1433.1959646556495 19.877855708943788 L 1433.1548844470233 19.967170985438123 L 1433.1118305631426 20.05629609424822 L 1433.06680730936 20.145222122937476 L 1433.0198191879633 20.23394017897712 L 1432.9708708977255 20.322441390635486 L 1432.9199673334347 20.41071690786515 L 1432.867113585405 20.498757903187958 L 1432.8123149389671 20.586555572577744 L 1432.7555768739403 20.674101136340735 L 1432.6969050640835 20.7613858399935 L 1432.6363053765288 20.848400955138427 L 1432.5737838711946 20.935137780336497 L 1432.5093468001792 21.021587641977483 L 1432.4430006071361 21.107741895147257 L 1432.3747519266292 21.193591924492296 L 1432.3046075834698 21.279129145081207 L 1432.2325745920336 21.364345003263217 L 1432.15866015556 21.449230977523516 L 1432.082871665431 21.533778579335415 L 1432.0052167004321 21.617979354009194 L 1431.9257030259955 21.701824881537547 L 1431.8443385934222 21.785306777437597 L 1431.7611315390875 21.868416693589317 L 1431.6760901836278 21.951146319070357 L 1431.5892230311076 22.033487380987104 L 1431.5005387681697 22.115431645301985 L 1431.4100462631668 22.196970917656856 L 1431.3177545652736 22.278097044192428 L 1431.2236729035833 22.35880191236366 L 1431.1278106861835 22.43907745175098 L 1431.030177499216 22.518915634867348 L 1430.9307831059182 22.598308477960988 L 1430.8296374456468 22.677248041813744 L 1430.726750632883 22.75572643253502 L 1430.6221329562231 22.83373580235114 L 1430.5157948773472 22.911268350390124 L 1430.4077470299742 22.988316323461788 L 1430.2980002187994 23.06487201683303 L 1430.186565418412 23.140927774998303 L 1430.0734537721999 23.216475992445172 L 1429.9586765912325 23.291509114414854 L 1429.8422453531327 23.366019637657672 L 1429.7241717009276 23.4400001111834 L 1429.6044674418833 23.51344313700633 L 1429.4831445463267 23.586341370885087 L 1429.3602151464459 23.658687523057033 L 1429.2356915350783 23.73047435896723 L 1429.1095861644815 23.801694699991916 L 1428.9819116450874 23.872341424156335 L 1428.8526807442418 23.942407466846948 L 1428.7219063849266 24.011885821517872 L 1428.589601644469 24.080769540391536 L 1428.4557797532327 24.149051735153456 L 1428.3204540932954 24.216725577641057 L 1428.1836381971104 24.283784300526488 L 1428.0453457461533 24.350221197993342 L 1427.9055905695539 24.416029626407234 L 1427.7643866427134 24.481203004980163 L 1427.6217480859066 24.54573481642858 L 1427.4776891628705 24.609618607625126 L 1427.3322242793774 24.67284799024391 L 1427.1853679817946 24.73541664139936 L 1427.037134955629 24.797318304278505 L 1426.8875400240602 24.858546788766642 L 1426.7365981464561 24.919095972066344 L 1426.5843244168793 24.978959799309735 L 1426.4307340625755 25.038132284163982 L 1426.2758424424524 25.09660750942991 L 1426.1196650455424 25.154379627633716 L 1425.9622174894557 25.21144286161173 L 1425.8035155188163 25.267791505088102 L 1425.6435750036892 25.323419923245446 L 1425.4824119379925 25.378322553288296 L 1425.3200424378986 25.432493904999404 L 1425.156482740222 25.48592856128874 L 1424.9917492007964 25.53862117873521 L 1424.8258582928383 25.59056648812097 L 1424.6588266053002 25.641759294958376 L 1424.490670841212 25.692194480009405 L 1424.3214078160097 25.741866999797576 L 1424.1510544558546 25.790771887112307 L 1423.9796277959413 25.838904251505618 L 1423.8071449787924 25.886259279781186 L 1423.633623252546 25.932832236475637 L 1423.4590799692303 25.978618464332122 L 1423.2835325830283 26.023613384766 L 1423.1069986485318 26.06781249832273 L 1422.9294958189878 26.11121138512779 L 1422.7510418445306 26.153805705328658 L 1422.5716545704097 26.195591199528817 L 1422.3913519352025 26.236563689213664 L 1422.2101519690225 26.276719077168373 L 1422.028072791715 26.316053347887618 L 1421.8451326110464 26.354562567977098 L 1421.6613497208823 26.392242886546896 L 1421.4767424993584 26.429090535596558 L 1421.291329407043 26.46510183039188 L 1421.1051289850907 26.5002731698334 L 1420.9181598533887 26.534601036816476 L 1420.7304407086945 26.568081998583022 L 1420.541990322766 26.60071270706476 L 1420.3528275404844 26.63248989921803 L 1420.162971277971 26.663410397350102 L 1419.9724405206935 26.693471109436928 L 1419.7812543215687 26.722669029432353 L 1419.5894317990571 26.7510012375687 L 1419.3969921352516 26.77846490064878 L 1419.2039545739578 26.805057272329158 L 1419.0103384187712 26.830775693394834 L 1418.8161630311458 26.855617592025126 L 1418.6214478284587 26.879580484050884 L 1418.4262122820678 26.90266197320286 L 1418.2304759153649 26.924859751351384 L 1418.034258301824 26.946171598737138 L 1417.8375790630423 26.96659538419314 L 1417.6404578667805 26.986129065357865 L 1417.4429144249934 27.00477068887948 L 1417.2449684918608 27.022518390611154 L 1417.046639861811 27.03937039579752 L 1416.847948367542 27.055325019252088 L 1416.648913878037 27.070380665525818 L 1416.4495562965797 27.084535829066628 L 1416.2498955587619 27.097789094369954 L 1416.049951630491 27.110139136120317 L 1415.8497445059932 27.121584719323828 L 1415.6492942058142 27.132124699431706 L 1415.4486207748166 27.141758022454724 L 1415.247744280177 27.15048372506861 L 1415.0466848093768 27.15830093471037 L 1414.8454624681958 27.165208869665555 L 1414.6440973787005 27.17120683914643 L 1414.4426096772318 27.176294243361042 L 1414.241019512392 27.180470573573206 L 1414.0393470430301 27.18373541215339 L 1413.8376124362242 27.186088432620444 L 1413.6358358652674 27.18752939967429 L 1413.4340375076483 27.188058169219428 L 1413.232237543035 27.187674688379335 L 1413.0304561512553 27.186378995501777 L 1412.8287135102803 27.184171220154965 L 1412.6270297942062 27.181051583114595 L 1412.4254251712364 27.17702039634177 L 1412.223919801665 27.172078062951805 L 1412.0225338358616 27.166225077173927 L 1411.8212874122544 27.159462024301828 L 1411.6202006553183 27.15178958063516 L 1411.4192936735615 27.143208513411906 L 1411.2185865575143 27.13371968073163 L 1411.0180993777217 27.12332403146969 L 1410.8178521827342 27.112022605182354 L 1410.6178649971046 27.099816532002833 L 1410.4181578193845 27.086707032528267 L 1410.2187506201258 27.072695417697688 L 1410.0196633398816 27.057783088660898 L 1409.8209158872146 27.041971536638375 L 1409.6225281367042 27.025262342772145 L 1409.4245199269599 27.007657177967666 L 1409.226911058638 26.98915780272675 L 1409.0297212924606 26.96976606697151 L 1408.83297034724 26.94948390985936 L 1408.6366778979066 26.928313359589104 L 1408.440863573542 26.906256533198132 L 1408.2455469554152 26.883315636350694 L 1408.0507475750253 26.859492963117372 L 1407.856484912148 26.834790895745627 L 1407.6627783928882 26.809211904421616 L 1407.4696473877357 26.78275854702315 L 1407.2771112096304 26.755433468863927 L 1407.0851891120296 26.727239402428996 L 1406.8939002869831 26.6981791671015 L 1406.703263863214 26.668255668880757 L 1406.513298904206 26.637471900091654 L 1406.3240244062968 26.605830939085415 L 1406.1354592967778 26.573335949931778 L 1405.9476224320033 26.53999018210257 L 1405.7605325955035 26.505796970146797 L 1405.5742084961055 26.470759733357152 L 1405.3886687660645 26.43488197542812 L 1405.2039319591984 26.398167284105593 L 1405.0200165490344 26.360619330828115 L 1404.83694092696 26.32224187035971 L 1404.6547234003851 26.28303874041446 L 1404.4733821909103 26.243013861272683 L 1404.2929354325054 26.20217123538894 L 1404.1134011696959 26.160514946991775 L 1403.9347973557585 26.11804916167533 L 1403.7571418509258 26.07477812598274 L 1403.5804524206003 26.03070616698151 L 1403.4047467335774 25.985837691830824 L 1403.2300423602799 25.940177187340804 L 1403.0563567709994 25.893729219523845 L 1402.88370733415 25.846498433138024 L 1402.7121113145313 25.798489551222623 L 1402.5415858716024 25.74970737462582 L 1402.3721480577658 25.700156781524633 L 1402.2038148166614 25.64984272693707 L 1402.036602981473 25.59877024222667 L 1401.870529273245 25.546944434599336 L 1401.7056102992096 25.49437048659265 L 1401.5418625511268 25.441053655557596 L 1401.3793024036352 25.386999273132844 L 1401.2179461126138 25.3322127447116 L 1401.0578098135572 25.27669954890105 L 1400.8989095199622 25.220465236974505 L 1400.7412611217255 25.163515432316306 L 1400.5848803835556 25.105855829859454 L 1400.429782943396 25.04749219551615 L 1400.2759843108613 24.98843036560119 L 1400.1234998656869 24.928676246248344 L 1399.9723448561901 24.86823581281976 L 1399.8225343977458 24.807115109308405 L 1399.6740834712753 24.74532024773371 L 1399.527006921747 24.68285740753032 L 1399.3813194566937 24.61973283493021 L 1399.2370356447407 24.555952842338044 L 1399.0941699141483 24.49152380769992 L 1398.9527365513711 24.42645217386562 L 1398.8127496996271 24.360744447944292 L 1398.6742233574853 24.294407200653783 L 1398.537171377464 24.227447065663533 L 1398.4016074646472 24.159870738931243 L 1398.2675451753132 24.09168497803327 L 1398.134997915579 24.022896601488892 L 1398.0039789400607 23.95351248807843 L 1397.874501350546 23.883539576155414 L 1397.7465780946866 23.812984862952717 L 1397.620221964701 23.741855403882866 L 1397.4954455960967 23.6701583118325 L 1397.3722614664073 23.597900756451068 L 1397.2506818939426 23.5250899634339 L 1397.1307190365587 23.451733213799617 L 1397.0123848904411 23.377837843162055 L 1396.8956912889064 23.303411240996702 L 1396.780649901217 23.228460849901744 L 1396.6672722314158 23.15299416485384 L 1396.5555696171755 23.077018732458605 L 1396.4455532286645 23.00054215019596 L 1396.3372340674298 22.923572065660405 L 1396.2306229652972 22.846116175796254 L 1396.1257305832885 22.768182226127944 L 1396.0225674105538 22.6897780099855 L 1395.921143763325 22.610911367725194 L 1395.8214697838819 22.53159018594554 L 1395.7235554395397 22.451822396698603 L 1395.6274105216512 22.37161597669684 L 1395.5330446446278 22.29097894651542 L 1395.4404672449787 22.209919369790153 L 1395.349687580367 22.128445352411166 L 1395.2607147286828 22.046565041712302 L 1395.173557587138 21.9642866256564 L 1395.0882248713735 21.881618332016497 L 1395.0047251145902 21.79856842755307 L 1394.9230666666938 21.715145217187356 L 1394.8432576934613 21.631357043170873 L 1394.7653061757235 21.547212284251195 L 1394.6892199085669 21.4627193548341 L 1394.6150065005552 21.377886704142114 L 1394.542673372967 21.29272281536962 L 1394.4722277590554 21.207236204834516 L 1394.4036767033224 21.12143542112662 L 1394.3370270608168 21.03532904425281 L 1394.2722854964472 20.948925684779006 L 1394.2094584843162 20.862233982969162 L 1394.1485523070726 20.77526260792121 L 1394.0895730552834 20.688020256700185 L 1394.0325266268244 20.600515653468506 L 1393.9774187262913 20.51275754861357 L 1393.9242548644277 20.424754717872737 L 1393.873040357576 20.336515961455746 L 1393.823780327144 20.2480501031647 L 1393.7764796990937 20.159365989511716 L 1393.7311432034485 20.07047248883425 L 1393.6877753738202 19.98137849040829 L 1393.6463805469555 19.89209290355944 L 1393.6069628623027 19.80262465677198 L 1393.5695262615975 19.712982696796026 L 1393.5340744884686 19.62317598775288 L 1393.5006110880638 19.533213510238607 L 1393.4691394066954 19.443104260425986 L 1393.439662591505 19.352857249164913 L 1393.41218359015 19.262481501081304 L 1393.3867051505074 19.171986053674658 L 1393.3632298204 19.0813799564143 L 1393.341759947341 18.99067226983445 L 1393.3222976783002 18.899872064628184 L 1393.3048449594878 18.80898842074035 L 1393.2894035361617 18.7180304264596 L 1393.275974952451 18.627007177509565 L 1393.2645605512027 18.53592777613929 L 1393.255161473848 18.44480133021301 L 1393.2477786602865 18.35363695229938 L 1393.2424128487933 18.26244375876022 L 1393.2390645759451 18.171230868838894 L 1393.2377341765664 18.08000740374838 L 1393.2384217836961 17.98878248575917 L 1393.2411273285743 17.89756523728704 L 1393.2458505406482 17.80636477998082 L 1393.252590947601 17.71519023381025 L 1393.2613478753976 17.624050716153963 L 1393.272120448352 17.532955340887774 L 1393.2849075892168 17.4419132174733 L 1393.2997080192877 17.350933450047012 L 1393.3165202585344 17.26002513650984 L 1393.335342625747 17.16919736761737 L 1393.3561732387043 17.07845922607082 L 1393.3790100143624 16.987819785608714 L 1393.403850669063 16.897288110099574 L 1393.4306927187613 16.8068732526355 L 1393.4595334792743 16.716584254626905 L 1393.4903700665504 16.62643014489834 L 1393.5231993969564 16.536419938785652 L 1393.5580181875866 16.446562637234447 L 1393.5948229565909 16.356867225899993 L 1393.6336100235233 16.26734267424868 L 1393.6743755097093 16.177997934661075 L 1393.7171153386341 16.08884194153668 L 1393.7618252363507 15.999883610400506 L 1393.8085007319064 15.911131837011538 L 1393.8571371577907 15.82259549647316 L 1393.9077296504013 15.734283442345639 L 1393.9602731505313 15.6462045057608 L 1394.0147624038743 15.558367494538897 L 1394.0711919615505 15.47078119230786 L 1394.1295561806512 15.383454357624922 L 1394.189849224803 15.296395723100778 L 1394.2520650647518 15.209613994526332 L 1394.3161974789655 15.123117850002128 L 1394.382240054256 15.036915939070532 L 1394.450186186421 14.951016881850805 L 1394.5200290809037 14.865429268177088 L 1394.5917617534728 14.780161656739425 L 1394.6653770309213 14.695222574227904 L 1394.7408675517822 14.610620514479992 L 1394.8182257670665 14.526363937631164 L 1394.8974439410174 14.44246126926889 L 1394.9785141518832 14.358920899590089 L 1395.0614282927104 14.27575118256211 L 1395.1461780721543 14.19296043508735 L 1395.2327550153075 14.110556936171564 L 1395.3211504645474 14.028548926095976 L 1395.4113555804033 13.946944605593249 L 1395.5033613424384 13.865752135027433 L 1395.5971585501534 13.784979633577926 L 1395.6927378239056 13.704635178427559 L 1395.7900896058475 13.624726803954896 L 1395.8892041608815 13.545262500930793 L 1395.990071577635 13.466250215719334 L 1396.0926817694506 13.387697849483194 L 1396.1970244753943 13.30961325739354 L 1396.3030892612826 13.23200424784451 L 1396.4108655207253 13.154878581672381 L 1396.5203424761862 13.078243971379504 L 1396.6315091800611 13.002108080363044 L 1396.744354515772 12.926478522148656 L 1396.8588671988798 12.851362859629138 L 1396.9750357782111 12.776768604308145 L 1397.092848637005 12.702703215549048 L 1397.2122939940741 12.629174099829003 L 1397.3333599049818 12.556188609998305 L 1397.456034263238 12.483754044545117 L 1397.5803048015093 12.411877646865625 L 1397.7061590928454 12.340566604539697 L 1397.8335845519216 12.26982804861214 L 1397.9625684362989 12.199669052879603 L 1398.0930978476956 12.130096633183188 L 1398.22515973328 12.06111774670689 L 1398.358740886973 11.992739291281874 L 1398.493827950771 11.924968104696699 L 1398.63040741608 11.857810964013552 L 1398.7684656250674 11.791274584890534 L 1398.907988772027 11.725365620910111 L 1399.0489629047609 11.660090662913756 L 1399.191373925973 11.595456238342878 L 1399.3352075946798 11.531468810586066 L 1399.4804495276344 11.468134778332775 L 1399.6270852007647 11.405460474933456 L 1399.7750999506252 11.343452167766216 L 1399.9244789758645 11.282116057610097 L 1400.0752073387048 11.221458278025008 L 1400.227269966435 11.16148489473835 L 1400.380651652919 11.10220190503848 L 1400.5353370601163 11.043615237174969 L 1400.6913107196149 10.985730749765775 L 1400.848557034179 10.928554231211407 L 1401.007060279308 10.87209139911607 L 1401.1668046048094 10.816347899715922 L 1401.3277740363842 10.76132930731445 L 1401.4899524772227 10.707041123725045 L 1401.6533237096166 10.653488777720831 L 1401.8178713965785 10.600677624491773 L 1401.9835790834768 10.548612945109191 L 1402.150430199681 10.497299945997636 L 1402.3184080602186 10.446743758414254 L 1402.4874958674434 10.396949437935678 L 1402.6576767127158 10.347921963952459 L 1402.8289335780926 10.299666239171138 L 1403.0012493380302 10.252187089123984 L 1403.1746067610966 10.20548926168643 L 1403.3489885116935 10.159577426602311 L 1403.5243771517912 10.114456175016873 L 1403.700755142672 10.070130019017672 L 1403.8781048466838 10.026603391183372 L 1404.0564085290039 9.983880644140482 L 1404.2356483594126 9.941966050128107 L 1404.4158064140763 9.900863800570718 L 1404.5968646773397 9.86057800565902 L 1404.7788050435274 9.82111269393893 L 1404.9616093187542 9.782471811908737 L 1405.1452592227452 9.744659223624438 L 1405.3297363906627 9.707678710313356 L 1405.5150223749438 9.671533969996 L 1405.7010986471446 9.636228617116288 L 1405.8879465997927 9.60176618218008 L 1406.0755475482488 9.568150111402154 L 1406.2638827325743 9.535383766361576 L 1406.4529333194075 9.503470423665544 L 1406.6426804038476 9.472413274621731 L 1406.833105011344 9.442215424919162 L 1407.0241880995948 9.412879894317644 L 1407.2159105604503 9.384409616345788 L 1407.4082532218245 9.35680743800767 L 1407.601196849611 9.330076119498116 L 1407.794722149608 9.304218333926707 L 1407.9888097694472 9.27923666705045 L 1408.1834403005278 9.255133617015213 L 1408.3785942799593 9.231911594105915 L 1408.574252192506 9.209572920505497 L 1408.77039447254 9.1881198300627 L 1408.9670015059964 9.167554468068694 L 1409.1640536323362 9.147878891042538 L 1409.3615311465107 9.129095066525542 L 1409.559414300933 9.1112048728845 L 1409.7576833074525 9.09421009912387 L 1409.9563183393338 9.078112444706866 L 1410.1552995332395 9.062913519385516 L 1410.3546069912159 9.048614843039683 L 1410.5542207826832 9.03521784552509 L 1410.7541209464284 9.022723866530322 L 1410.9542874926021 9.011134155442866 L 1411.1547004047163 9.000449871224175 L 1411.3553396416469 8.990672082293766 L 1411.5561851396374 8.981801766422386 L 1411.7572168143051 8.973839810634226 L 1411.9584145626504 8.966787011118234 L 1412.159758265066 8.960644073148481 L 1412.3612277873494 8.955411611013648 L 1412.5628029827164 8.951090147955588 L 1412.7644636938153 8.947680116117002 L 1412.966189754743 8.945181856498236 L 1413.1679609930616 8.943595618923167 L 1413.3697572318156 8.942921562014233 L 1413.5715582915489 8.94315975317656 L 1413.7733439923238 8.944310168591237 L 1413.9750941557386 8.946372693217674 L 1414.176788606945 8.949347120805129 L 1414.3784071766659 8.953233153913324 L 1414.5799297032122 8.958030403942185 L 1414.7813360344994 8.963738391170708 L 1414.9826060300622 8.970356544804925 L 1415.1837195630685 8.97788420303499 L 1415.384656522333 8.98632061310135 L 1415.585396814327 8.99566493137003 L 1415.7859203651885 9.00591622341699 L 1415.9862071227299 9.017073464121571 L 1416.1862370584417 9.029135537768996 L 1416.3859901694975 9.042101238161953 L 1416.5854464807528 9.055969268741208 L 1416.784586046742 9.070738242715262 L 1416.9833889536753 9.086406683199021 L 1417.1818353214271 9.102973023361494 L 1417.379905305526 9.120435606582474 L 1417.577579099139 9.138792686618187 L 1417.774836935051 9.158042427775927 L 1417.9716590876435 9.178182905097621 L 1418.1680258748645 9.199212104552322 L 1418.3639176601994 9.221127923237606 L 1418.5593148546325 9.243928169589871 L 1418.7541979186076 9.267610563603478 L 1418.9485473639804 9.292172737058763 L 1419.1423437559686 9.317612233758847 L 1419.3355677150944 9.343926509775264 L 1419.5281999191227 9.371112933702335 L 1419.720221104994 9.399168786920328 L 1419.9116120707492 9.428091263867296 L 1420.1023536774517 9.45787747231965 L 1420.2924268510997 9.488524433681365 L 1420.4818125845338 9.520029083281843 L 1420.6704919393392 9.55238827068238 L 1420.858446047737 9.585598759991202 L 1421.0456561144733 9.619657230187048 L 1421.2321034186975 9.654560275451288 L 1421.4177693158344 9.690304405508478 L 1421.602635239449 9.726886045975398 L 1421.7866827031032 9.764301538718486 L 1421.9698933022037 9.802547142219648 L 1422.1522487158434 9.841619031950406 L 1422.3337307086329 9.881513300754346 L 1422.5143211325242 9.92222595923783 L 1422.6940019286255 9.963752936168941 L 1422.8727551290067 10.00609007888459 L 1423.0505628584967 10.049233153705785 L 1423.2274073364708 10.093177846360998 L 1423.4032708786287 10.137919762417582 L 1423.5781358987629 10.18345442772122 L 1423.7519849105165 10.229777288843323 L 1423.9248005291336 10.276883713536382 L 1424.0965654731965 10.324768991197185 L 1424.2672625663536 10.373428333337866 L 1424.4368747390379 10.422856874064767 L 1424.6053850301737 10.473049670564997 L 1424.772776588872 10.52400170360074 L 1424.9390326761165 10.575707878011151 L 1425.1041366664374 10.628163023221877 L 1425.2680720495728 10.681361893762105 L 1425.430822432121 10.73529916978912 L 1425.5923715391796 10.789969457620263 L 1425.7527032159726 10.84536729027231 L 1425.9118014294656 10.90148712800816 L 1426.06965026997 10.958323358890807 L 1426.2262339527333 11.015870299344526 L 1426.3815368195178 11.074122194723225 L 1426.535543340166 11.133073219885913 L 1426.6882381141543 11.192717479779198 L 1426.8396058721326 11.253049010026789 L 1426.9896314774512 11.314061777525946 L 1427.1382999276748 11.375749681050758 L 1427.2855963560817 11.43810655186228 L 1427.4315060331523 11.501126154325393 L 1427.5760143680404 11.564802186532368 L 1427.719106910033 11.629128280933049 L 1427.8607693499948 11.6940980049716 L 1428.0009875218 11.759704861729757 L 1428.1397474037485 11.825942290576517 L 1428.2770351199676 11.892803667824193 L 1428.4128369418002 11.96028230739078 L 1428.5471392891768 12.02837146146855 L 1428.6799287319752 12.097064321198838 L 1428.8111919913615 12.166354017352914 L 1428.940915941119 12.236233621018904 L 1429.0690876089611 12.306696144294676 L 1429.1956941778278 12.377734540986618 L 1429.3207229871675 12.449341707314261 L 1429.4441615342037 12.521510482620645 L 1429.5659974751843 12.594233650088377 L 1429.686218626617 12.667503937461316 L 1429.8048129664865 12.741314017771781 L 1429.921768635458 12.815656510073252 L 1430.037073938062 12.890523980178447 L 1430.1507173438642 12.965908941402748 L 1430.2626874886187 13.04180385531285 L 1430.3729731754045 13.11820113248061 L 1430.4815633757448 13.195093133241976 L 1430.5884472307098 13.272472168460947 L 1430.6936140520033 13.350330500298481 L 1430.797053323031 13.42866034298628 L 1430.8987546999515 13.507453863605349 L 1430.9987080127123 13.586703182869286 L 1431.0969032660653 13.666400375912204 L 1431.1933306405667 13.746537473081217 L 1431.2879804935599 13.827106460733386 L 1431.380843360138 13.908099282037085 L 1431.471909954092 13.989507837777682 L 1431.5611711688384 14.071323987167439 L 1431.6486180783302 14.1535395486596 L 1431.734241937949 14.236146300766524 L 1431.8180341853804 14.319135982881845 L 1431.8999864414693 14.402500296106505 L 1431.9800905110587 14.486230904078653 L 1432.0583383838082 14.570319433807267 L 1432.1347222349957 14.654757476509447 L 1432.2092344262999 14.739536588451287 L 1432.2818675065637 14.824648291792245 L 1432.3526142125395 14.910084075432911 L 1432.4214674696157 14.995835395866116 L 1432.488420392524 15.081893678031278 L 1432.5534662860277 15.168250316171896 L 1432.6165986455921 15.254896674696116 L 1432.6778111580334 15.341824089040294 L 1432.7370977021517 15.429023866535433 L 1432.7944523493418 15.516487287276451 L 1432.8498693641868 15.604205604994158 L 1432.9033432050314 15.692170047929883 L 1432.9548685245363 15.780371819712634 L 1433.0044401702123 15.868802100238737 L 1433.0520531849359 15.957452046553826 L 1433.0977028074458 16.046312793737147 L 1433.1413844728172 16.135375455788033 L 1433.1830938129206 16.2246311265145 L 1433.2228266568563 16.314070880423845 L 1433.260579031373 16.40368577361522 L 1433.2963471612652 16.49346684467398 L 1433.3301274697492 16.583405115567835 L 1433.3619165788225 16.67349159254465 L 1433.3917113096006 16.763717267031794 L 1433.4195086826355 16.85407311653701 L 1433.4453059182129 16.944550105550636 L 1433.4691004366305 17.03513918644918 L 1433.4908898584567 17.12583130040003 L 1433.5106720047672 17.216617378267376 L 1433.528444897364 17.307488341519083 L 1433.5442067589725 17.398435103134553 L 1433.5579560134197 17.48944856851341 L 1433.5696912857918 17.580519636384963 L 1433.5794114025712 17.67163919971832 L 1433.5871153917544 17.762798146633074 L 1433.5928024829486 17.8539873613105 L 1433.59647210745 17.945197724905128 L 1433.5981238982986 18.0364201164566 M 1433.5982262745 47.09187800570001 L 1433.597217269966 47.18310231293715 L 1433.5941903572639 47.27431749781959 L 1433.5891458390824 47.365514438904846 L 1433.5820842198693 47.45668401657481 L 1433.5730062057803 47.547817113947694 L 1433.5619127046093 47.638904617789706 L 1433.5488048256973 47.729937419426356 L 1433.5336838798212 47.82090641565335 L 1433.516551379063 47.91180250964687 L 1433.4974090366586 48.002616611873265 L 1433.476258766826 48.09333964099798 L 1433.453102684575 48.18396252479373 L 1433.4279431054943 48.27447620104763 L 1433.4007825455205 48.36487161846748 L 1433.3716237206877 48.45513973758689 L 1433.3404695468535 48.54527153166916 L 1433.3073231394094 48.63525798760998 L 1433.2721878129687 48.72509010683876 L 1433.2350670810347 48.81475890621844 L 1433.1959646556495 48.90425541894379 L 1433.1548844470233 48.99357069543812 L 1433.1118305631426 49.082695804248225 L 1433.06680730936 49.17162183293748 L 1433.0198191879633 49.26033988897713 L 1432.9708708977255 49.34884110063549 L 1432.9199673334347 49.43711661786516 L 1432.867113585405 49.525157613187965 L 1432.8123149389671 49.61295528257775 L 1432.7555768739403 49.70050084634074 L 1432.6969050640835 49.78778554999351 L 1432.6363053765288 49.87480066513843 L 1432.5737838711946 49.961537490336504 L 1432.5093468001792 50.04798735197749 L 1432.4430006071361 50.134141605147256 L 1432.3747519266292 50.2199916344923 L 1432.3046075834698 50.305528855081214 L 1432.2325745920336 50.39074471326322 L 1432.15866015556 50.47563068752352 L 1432.082871665431 50.56017828933542 L 1432.0052167004321 50.64437906400919 L 1431.9257030259955 50.72822459153755 L 1431.8443385934222 50.8117064874376 L 1431.7611315390875 50.894816403589324 L 1431.6760901836278 50.97754602907036 L 1431.5892230311076 51.059887090987104 L 1431.5005387681697 51.14183135530199 L 1431.4100462631668 51.22337062765686 L 1431.3177545652736 51.304496754192435 L 1431.2236729035833 51.38520162236367 L 1431.1278106861835 51.46547716175098 L 1431.030177499216 51.545315344867355 L 1430.9307831059182 51.62470818796099 L 1430.8296374456468 51.70364775181375 L 1430.726750632883 51.78212614253502 L 1430.6221329562231 51.86013551235114 L 1430.5157948773472 51.93766806039013 L 1430.4077470299742 52.014716033461795 L 1430.2980002187994 52.09127172683303 L 1430.186565418412 52.1673274849983 L 1430.0734537721999 52.242875702445176 L 1429.9586765912325 52.31790882441486 L 1429.8422453531327 52.39241934765768 L 1429.7241717009276 52.4663998211834 L 1429.6044674418833 52.539842847006334 L 1429.4831445463267 52.612741080885094 L 1429.3602151464459 52.68508723305703 L 1429.2356915350783 52.756874068967235 L 1429.1095861644815 52.82809440999192 L 1428.9819116450874 52.89874113415634 L 1428.8526807442418 52.96880717684695 L 1428.7219063849266 53.03828553151787 L 1428.589601644469 53.107169250391536 L 1428.4557797532327 53.175451445153456 L 1428.3204540932954 53.243125287641064 L 1428.1836381971104 53.31018401052649 L 1428.0453457461533 53.37662090799334 L 1427.9055905695539 53.44242933640724 L 1427.7643866427134 53.507602714980166 L 1427.6217480859066 53.572134526428584 L 1427.4776891628705 53.63601831762513 L 1427.3322242793774 53.699247700243916 L 1427.1853679817946 53.76181635139937 L 1427.037134955629 53.82371801427851 L 1426.8875400240602 53.884946498766645 L 1426.7365981464561 53.945495682066344 L 1426.5843244168793 54.00535950930974 L 1426.4307340625755 54.064531994163985 L 1426.2758424424524 54.123007219429915 L 1426.1196650455424 54.18077933763372 L 1425.9622174894557 54.237842571611736 L 1425.8035155188163 54.294191215088105 L 1425.6435750036892 54.349819633245446 L 1425.4824119379925 54.4047222632883 L 1425.3200424378986 54.45889361499941 L 1425.156482740222 54.512328271288744 L 1424.9917492007964 54.56502088873521 L 1424.8258582928383 54.61696619812098 L 1424.6588266053002 54.66815900495838 L 1424.490670841212 54.718594190009405 L 1424.3214078160097 54.76826670979758 L 1424.1510544558546 54.817171597112306 L 1423.9796277959413 54.865303961505624 L 1423.8071449787924 54.912658989781185 L 1423.633623252546 54.95923194647564 L 1423.4590799692303 55.00501817433212 L 1423.2835325830283 55.050013094766 L 1423.1069986485318 55.09421220832273 L 1422.9294958189878 55.137611095127795 L 1422.7510418445306 55.180205415328665 L 1422.5716545704097 55.22199090952882 L 1422.3913519352025 55.26296339921367 L 1422.2101519690225 55.30311878716838 L 1422.028072791715 55.342453057887624 L 1421.8451326110464 55.3809622779771 L 1421.6613497208823 55.418642596546896 L 1421.4767424993584 55.45549024559656 L 1421.291329407043 55.49150154039188 L 1421.1051289850907 55.5266728798334 L 1420.9181598533887 55.56100074681648 L 1420.7304407086945 55.594481708583025 L 1420.541990322766 55.627112417064765 L 1420.3528275404844 55.658889609218036 L 1420.162971277971 55.689810107350105 L 1419.9724405206935 55.719870819436935 L 1419.7812543215687 55.74906873943235 L 1419.5894317990571 55.77740094756871 L 1419.3969921352516 55.80486461064878 L 1419.2039545739578 55.83145698232916 L 1419.0103384187712 55.857175403394834 L 1418.8161630311458 55.88201730202513 L 1418.6214478284587 55.90598019405088 L 1418.4262122820678 55.92906168320286 L 1418.2304759153649 55.95125946135139 L 1418.034258301824 55.972571308737145 L 1417.8375790630423 55.99299509419315 L 1417.6404578667805 56.01252877535787 L 1417.4429144249934 56.03117039887948 L 1417.2449684918608 56.04891810061116 L 1417.046639861811 56.065770105797526 L 1416.847948367542 56.081724729252095 L 1416.648913878037 56.096780375525825 L 1416.4495562965797 56.11093553906663 L 1416.2498955587619 56.12418880436996 L 1416.049951630491 56.13653884612032 L 1415.8497445059932 56.14798442932383 L 1415.6492942058142 56.158524409431706 L 1415.4486207748166 56.16815773245473 L 1415.247744280177 56.17688343506861 L 1415.0466848093768 56.184700644710375 L 1414.8454624681958 56.19160857966556 L 1414.6440973787005 56.197606549146435 L 1414.4426096772318 56.20269395336105 L 1414.241019512392 56.20687028357321 L 1414.0393470430301 56.21013512215339 L 1413.8376124362242 56.212488142620444 L 1413.6358358652674 56.2139291096743 L 1413.4340375076483 56.21445787921943 L 1413.232237543035 56.21407439837934 L 1413.0304561512553 56.21277870550178 L 1412.8287135102803 56.21057093015497 L 1412.6270297942062 56.2074512931146 L 1412.4254251712364 56.203420106341774 L 1412.223919801665 56.19847777295181 L 1412.0225338358616 56.192624787173926 L 1411.8212874122544 56.18586173430183 L 1411.6202006553183 56.17818929063517 L 1411.4192936735615 56.16960822341191 L 1411.2185865575143 56.16011939073163 L 1411.0180993777217 56.14972374146969 L 1410.8178521827342 56.13842231518235 L 1410.6178649971046 56.12621624200283 L 1410.4181578193845 56.113106742528274 L 1410.2187506201258 56.099095127697694 L 1410.0196633398816 56.084182798660905 L 1409.8209158872146 56.06837124663838 L 1409.6225281367042 56.051662052772144 L 1409.4245199269599 56.034056887967665 L 1409.226911058638 56.01555751272676 L 1409.0297212924606 55.996165776971516 L 1408.83297034724 55.97588361985936 L 1408.6366778979066 55.954713069589104 L 1408.440863573542 55.93265624319813 L 1408.2455469554152 55.9097153463507 L 1408.0507475750253 55.885892673117375 L 1407.856484912148 55.861190605745634 L 1407.6627783928882 55.835611614421616 L 1407.4696473877357 55.80915825702316 L 1407.2771112096304 55.781833178863934 L 1407.0851891120296 55.753639112429 L 1406.8939002869831 55.72457887710151 L 1406.703263863214 55.69465537888076 L 1406.513298904206 55.66387161009166 L 1406.3240244062968 55.63223064908542 L 1406.1354592967778 55.59973565993178 L 1405.9476224320033 55.56638989210258 L 1405.7605325955035 55.5321966801468 L 1405.5742084961055 55.497159443357155 L 1405.3886687660645 55.46128168542812 L 1405.2039319591984 55.4245669941056 L 1405.0200165490344 55.387019040828115 L 1404.83694092696 55.34864158035972 L 1404.6547234003851 55.30943845041446 L 1404.4733821909103 55.269413571272686 L 1404.2929354325054 55.22857094538894 L 1404.1134011696959 55.18691465699178 L 1403.9347973557585 55.14444887167533 L 1403.7571418509258 55.10117783598274 L 1403.5804524206003 55.05710587698152 L 1403.4047467335774 55.01223740183083 L 1403.2300423602799 54.96657689734081 L 1403.0563567709994 54.92012892952385 L 1402.88370733415 54.87289814313803 L 1402.7121113145313 54.82488926122262 L 1402.5415858716024 54.77610708462583 L 1402.3721480577658 54.72655649152463 L 1402.2038148166614 54.67624243693707 L 1402.036602981473 54.62516995222667 L 1401.870529273245 54.57334414459934 L 1401.7056102992096 54.52077019659265 L 1401.5418625511268 54.467453365557596 L 1401.3793024036352 54.41339898313285 L 1401.2179461126138 54.358612454711604 L 1401.0578098135572 54.30309925890105 L 1400.8989095199622 54.24686494697451 L 1400.7412611217255 54.18991514231631 L 1400.5848803835556 54.13225553985946 L 1400.429782943396 54.073891905516156 L 1400.2759843108613 54.014830075601196 L 1400.1234998656869 53.95507595624835 L 1399.9723448561901 53.89463552281976 L 1399.8225343977458 53.83351481930841 L 1399.6740834712753 53.77171995773371 L 1399.527006921747 53.70925711753032 L 1399.3813194566937 53.64613254493022 L 1399.2370356447407 53.582352552338044 L 1399.0941699141483 53.51792351769993 L 1398.9527365513711 53.45285188386562 L 1398.8127496996271 53.3871441579443 L 1398.6742233574853 53.320806910653786 L 1398.537171377464 53.25384677566353 L 1398.4016074646472 53.186270448931246 L 1398.2675451753132 53.11808468803328 L 1398.134997915579 53.049296311488895 L 1398.0039789400607 52.97991219807844 L 1397.874501350546 52.909939286155414 L 1397.7465780946866 52.83938457295272 L 1397.620221964701 52.76825511388287 L 1397.4954455960967 52.6965580218325 L 1397.3722614664073 52.62430046645107 L 1397.2506818939426 52.5514896734339 L 1397.1307190365587 52.47813292379962 L 1397.0123848904411 52.40423755316206 L 1396.8956912889064 52.3298109509967 L 1396.780649901217 52.25486055990175 L 1396.6672722314158 52.179393874853844 L 1396.5555696171755 52.103418442458604 L 1396.4455532286645 52.02694186019596 L 1396.3372340674298 51.94997177566041 L 1396.2306229652972 51.87251588579626 L 1396.1257305832885 51.79458193612795 L 1396.0225674105538 51.7161777199855 L 1395.921143763325 51.6373110777252 L 1395.8214697838819 51.55798989594554 L 1395.7235554395397 51.47822210669861 L 1395.6274105216512 51.398015686696844 L 1395.5330446446278 51.31737865651542 L 1395.4404672449787 51.23631907979016 L 1395.349687580367 51.15484506241117 L 1395.2607147286828 51.072964751712306 L 1395.173557587138 50.990686335656406 L 1395.0882248713735 50.9080180420165 L 1395.0047251145902 50.82496813755307 L 1394.9230666666938 50.74154492718736 L 1394.8432576934613 50.65775675317087 L 1394.7653061757235 50.573611994251195 L 1394.6892199085669 50.4891190648341 L 1394.6150065005552 50.40428641414212 L 1394.542673372967 50.31912252536962 L 1394.4722277590554 50.233635914834515 L 1394.4036767033224 50.14783513112663 L 1394.3370270608168 50.06172875425281 L 1394.2722854964472 49.975325394779006 L 1394.2094584843162 49.888633692969165 L 1394.1485523070726 49.80166231792121 L 1394.0895730552834 49.71441996670019 L 1394.0325266268244 49.626915363468505 L 1393.9774187262913 49.53915725861357 L 1393.9242548644277 49.45115442787274 L 1393.873040357576 49.362915671455745 L 1393.823780327144 49.27444981316471 L 1393.7764796990937 49.18576569951172 L 1393.7311432034485 49.09687219883425 L 1393.6877753738202 49.007778200408296 L 1393.6463805469555 48.918492613559444 L 1393.6069628623027 48.82902436677198 L 1393.5695262615975 48.73938240679603 L 1393.5340744884686 48.64957569775289 L 1393.5006110880638 48.55961322023861 L 1393.4691394066954 48.46950397042599 L 1393.439662591505 48.37925695916492 L 1393.41218359015 48.28888121108131 L 1393.3867051505074 48.198385763674665 L 1393.3632298204 48.1077796664143 L 1393.341759947341 48.017071979834455 L 1393.3222976783002 47.92627177462819 L 1393.3048449594878 47.835388130740355 L 1393.2894035361617 47.744430136459606 L 1393.275974952451 47.65340688750957 L 1393.2645605512027 47.562327486139296 L 1393.255161473848 47.47120104021301 L 1393.2477786602865 47.38003666229938 L 1393.2424128487933 47.28884346876023 L 1393.2390645759451 47.1976305788389 L 1393.2377341765664 47.10640711374838" stroke-miterlimit="10" stroke-width="2.3497561670000002" stroke-dasharray=""/></g><g><g/><text fill="black" stroke="none" font-family="sans-serif" font-size="8pt" font-style="normal" font-weight="normal" text-decoration="normal" x="1389.8737779753749" y="71.045568814" text-anchor="start" dominant-baseline="alphabetic" xml:space="preserve">Database</text></g></g><g><path fill="white" stroke="black" paint-order="fill stroke markers" d=" M 219.774611615625 120.80511117400002 L 233.596706715625 120.80511117400002 L 233.596706715625 1363.6326141856005 L 219.774611615625 1363.6326141856005 L 219.774611615625 120.80511117400002" stroke-miterlimit="10" stroke-width="1.1518412583333333" stroke-dasharray=""/><path fill="white" stroke="black" paint-order="fill stroke markers" d=" M 70.97714117083332 202.90835606800002 L 84.79923627083333 202.90835606800002 L 84.79923627083333 241.61022234800004 L 70.97714117083332 241.61022234800004 L 70.97714117083332 202.90835606800002" stroke-miterlimit="10" stroke-width="1.1518412583333333" stroke-dasharray=""/><path fill="white" stroke="black" paint-order="fill stroke markers" d=" M 70.97714117083332 280.312088628 L 84.79923627083333 280.312088628 L 84.79923627083333 396.417687468 L 70.97714117083332 396.417687468 L 70.97714117083332 280.312088628" stroke-miterlimit="10" stroke-width="1.1518412583333333" stroke-dasharray=""/><path fill="white" stroke="black" paint-order="fill stroke markers" d=" M 11.21484375 319.013954908 L 25.03693885 319.013954908 L 25.03693885 357.715821188 L 11.21484375 357.715821188 L 11.21484375 319.013954908" stroke-miterlimit="10" stroke-width="1.1518412583333333" stroke-dasharray=""/><path fill="white" stroke="black" paint-order="fill stroke markers" d=" M 523.3412839072917 435.119553748 L 537.1633790072917 435.119553748 L 537.1633790072917 1324.9307479056004 L 523.3412839072917 1324.9307479056004 L 523.3412839072917 435.119553748" stroke-miterlimit="10" stroke-width="1.1518412583333333" stroke-dasharray=""/><path fill="white" stroke="black" paint-order="fill stroke markers" d=" M 928.4840143906249 588.544809358 L 942.306109490625 588.544809358 L 942.306109490625 1018.0802366855999 L 928.4840143906249 1018.0802366855999 L 928.4840143906249 588.544809358" stroke-miterlimit="10" stroke-width="1.1518412583333333" stroke-dasharray=""/><path fill="white" stroke="black" paint-order="fill stroke markers" d=" M 1225.1396391322917 627.2466756379999 L 1238.9617342322915 627.2466756379999 L 1238.9617342322915 979.3783704055999 L 1225.1396391322917 979.3783704055999 L 1225.1396391322917 627.2466756379999" stroke-miterlimit="10" stroke-width="1.1518412583333333" stroke-dasharray=""/><path fill="white" stroke="black" paint-order="fill stroke markers" d=" M 1232.0506866822916 722.6191318279999 L 1245.8727817822914 722.6191318279999 L 1245.8727817822914 800.0228643879999 L 1232.0506866822916 800.0228643879999 L 1232.0506866822916 722.6191318279999" stroke-miterlimit="10" stroke-width="1.1518412583333333" stroke-dasharray=""/><path fill="white" stroke="black" paint-order="fill stroke markers" d=" M 1580.9631530747083 901.9746378455999 L 1594.7852481747082 901.9746378455999 L 1594.7852481747082 940.6765041255999 L 1580.9631530747083 940.6765041255999 L 1580.9631530747083 901.9746378455999" stroke-miterlimit="10" stroke-width="1.1518412583333333" stroke-dasharray=""/><path fill="white" stroke="black" paint-order="fill stroke markers" d=" M 530.2523314572917 1074.7508265955998 L 544.0744265572918 1074.7508265955998 L 544.0744265572918 1268.2601579956004 L 530.2523314572917 1268.2601579956004 L 530.2523314572917 1074.7508265955998" stroke-miterlimit="10" stroke-width="1.1518412583333333" stroke-dasharray=""/><path fill="white" stroke="black" paint-order="fill stroke markers" d=" M 226.685659165625 1113.4526928756 L 240.507754265625 1113.4526928756 L 240.507754265625 1229.5582917156003 L 226.685659165625 1229.5582917156003 L 226.685659165625 1113.4526928756" stroke-miterlimit="10" stroke-width="1.1518412583333333" stroke-dasharray=""/><path fill="white" stroke="black" paint-order="fill stroke markers" d=" M 537.1633790072916 1152.1545591556 L 550.9854741072917 1152.1545591556 L 550.9854741072917 1190.8564254356002 L 537.1633790072916 1190.8564254356002 L 537.1633790072916 1152.1545591556" stroke-miterlimit="10" stroke-width="1.1518412583333333" stroke-dasharray=""/><g><g><rect fill="white" stroke="none" x="89.3661950053125" y="102.83638754400002" width="59.168112905" height="17.96872363"/></g><text fill="black" stroke="none" font-family="sans-serif" font-size="8pt" font-style="normal" font-weight="normal" text-decoration="normal" x="91.4395092703125" y="115.27627313400002" text-anchor="start" dominant-baseline="alphabetic" xml:space="preserve">addMovie()</text></g><g><path fill="none" stroke="black" paint-order="fill stroke markers" d=" M 18.1258913 120.80511117400002 L 208.39441998329167 120.80511117400002" stroke-miterlimit="10" stroke-width="1.1518412583333333" stroke-dasharray=""/><g transform="translate(219.774611615625,120.80511117400002) translate(-219.774611615625,-120.80511117400002)"><path fill="black" stroke="none" paint-order="stroke fill markers" d=" M 208.25619903229165 115.04590488233335 L 219.774611615625 120.80511117400002 L 208.25619903229165 126.56431746566669 Z"/></g></g><g><path fill="white" stroke="black" paint-order="fill stroke markers" d=" M 105.32504749433333 162.06406504749998 A 20.5258112235 20.5258112235 0 1 1 105.32503723142858 162.04353923969742 M 51.626208030833325 140.36337574049998 L 51.626208030833325 183.76475435449998 M 50.45132994733333 162.06406504749998 L 64.27342504733333 162.06406504749998" stroke-miterlimit="10" stroke-width="2.3497561670000002" stroke-dasharray=""/></g><g><g/><text fill="black" stroke="none" font-family="sans-serif" font-size="8pt" font-style="normal" font-weight="normal" text-decoration="normal" x="47.62476098645833" y="197.5868494545" text-anchor="start" dominant-baseline="alphabetic" xml:space="preserve">MovieDialog</text></g><g><g><rect fill="white" stroke="none" x="127.96328609854166" y="154.254581316" width="71.99965587375" height="17.96872363"/></g><text fill="black" stroke="none" font-family="sans-serif" font-size="8pt" font-style="normal" font-weight="normal" text-decoration="normal" x="130.03660036354165" y="166.69446690600003" text-anchor="start" dominant-baseline="alphabetic" xml:space="preserve">MovieDialog()</text></g><g><path fill="none" stroke="black" paint-order="fill stroke markers" d=" M 219.774611615625 172.223304946 L 119.53180808754166 172.223304946" stroke-miterlimit="10" stroke-width="1.1518412583333333" stroke-dasharray=""/><g transform="translate(108.15161645520833,172.223304946) translate(-108.15161645520833,-172.223304946)"><path fill="black" stroke="none" paint-order="stroke fill markers" d=" M 119.67002903854166 166.46409865433336 L 108.15161645520833 172.223304946 L 119.67002903854166 177.98251123766667 Z"/></g></g><g><g><rect fill="white" stroke="none" x="150.21360967822918" y="223.64149871800004" width="4.14662853" height="17.96872363"/></g><text fill="black" stroke="none" font-family="sans-serif" font-size="8pt" font-style="normal" font-weight="normal" text-decoration="normal" x="152.28692394322917" y="236.08138430800005" text-anchor="start" dominant-baseline="alphabetic" xml:space="preserve"></text></g><g><path fill="none" stroke="black" paint-order="fill stroke markers" d=" M 84.79923627083333 241.61022234800004 L 208.39441998329167 241.61022234800004" stroke-miterlimit="10" stroke-width="1.1518412583333333" stroke-dasharray="5.52883804"/><g transform="translate(219.774611615625,241.61022234800004) translate(-219.774611615625,-241.61022234800004)"><path fill="black" stroke="none" paint-order="stroke fill markers" d=" M 208.25619903229165 235.85101605633338 L 219.774611615625 241.61022234800004 L 208.25619903229165 247.3694286396667 Z"/></g></g><g><g><rect fill="white" stroke="none" x="113.12620733447918" y="262.343364998" width="78.3214332175" height="17.96872363"/></g><text fill="black" stroke="none" font-family="sans-serif" font-size="8pt" font-style="normal" font-weight="normal" text-decoration="normal" x="115.19952159947917" y="274.78325058800004" text-anchor="start" dominant-baseline="alphabetic" xml:space="preserve">showAndWait()</text></g><g><path fill="none" stroke="black" paint-order="fill stroke markers" d=" M 219.774611615625 280.312088628 L 96.17942790316667 280.312088628" stroke-miterlimit="10" stroke-width="1.1518412583333333" stroke-dasharray=""/><g transform="translate(84.79923627083333,280.312088628) translate(-84.79923627083333,-280.312088628)"><path fill="black" stroke="none" paint-order="stroke fill markers" d=" M 96.31764885416666 274.55288233633337 L 84.79923627083333 280.312088628 L 96.31764885416666 286.0712949196667 Z"/></g></g><g><g><rect fill="white" stroke="none" x="45.93372574541666" y="301.045231278" width="4.14662853" height="17.96872363"/></g><text fill="black" stroke="none" font-family="sans-serif" font-size="8pt" font-style="normal" font-weight="normal" text-decoration="normal" x="48.00704001041666" y="313.48511686800003" text-anchor="start" dominant-baseline="alphabetic" xml:space="preserve"></text></g><g><path fill="none" stroke="black" paint-order="fill stroke markers" d=" M 70.97714117083332 319.013954908 L 36.417130482333334 319.013954908" stroke-miterlimit="10" stroke-width="1.1518412583333333" stroke-dasharray=""/><g transform="translate(25.03693885,319.013954908) translate(-25.03693885,-319.013954908)"><path fill="black" stroke="none" paint-order="stroke fill markers" d=" M 36.55535143333333 313.25474861633336 L 25.03693885 319.013954908 L 36.55535143333333 324.7731611996667 Z"/></g></g><g><g><rect fill="white" stroke="none" x="45.93372574541666" y="339.747097558" width="4.14662853" height="17.96872363"/></g><text fill="black" stroke="none" font-family="sans-serif" font-size="8pt" font-style="normal" font-weight="normal" text-decoration="normal" x="48.00704001041666" y="352.186983148" text-anchor="start" dominant-baseline="alphabetic" xml:space="preserve"></text></g><g><path fill="none" stroke="black" paint-order="fill stroke markers" d=" M 25.03693885 357.715821188 L 59.596949538499985 357.715821188" stroke-miterlimit="10" stroke-width="1.1518412583333333" stroke-dasharray="5.52883804"/><g transform="translate(70.97714117083332,357.715821188) translate(-70.97714117083332,-357.715821188)"><path fill="black" stroke="none" paint-order="stroke fill markers" d=" M 59.45872858749999 351.95661489633335 L 70.97714117083332 357.715821188 L 59.45872858749999 363.47502747966666 Z"/></g></g><g><g><rect fill="white" stroke="none" x="101.30711553760418" y="378.448963838" width="101.95961681125" height="17.96872363"/></g><text fill="black" stroke="none" font-family="sans-serif" font-size="8pt" font-style="normal" font-weight="normal" text-decoration="normal" x="103.38042980260417" y="390.888849428" text-anchor="start" dominant-baseline="alphabetic" xml:space="preserve">returnm:MovieInfo</text></g><g><path fill="none" stroke="black" paint-order="fill stroke markers" d=" M 84.79923627083333 396.417687468 L 208.39441998329167 396.417687468" stroke-miterlimit="10" stroke-width="1.1518412583333333" stroke-dasharray=""/><g transform="translate(219.774611615625,396.417687468) translate(-219.774611615625,-396.417687468)"><path fill="black" stroke="none" paint-order="stroke fill markers" d=" M 208.25619903229165 390.65848117633334 L 219.774611615625 396.417687468 L 208.25619903229165 402.17689375966665 Z"/></g></g><g><g><rect fill="white" stroke="none" x="253.40837635895835" y="417.150830118" width="250.121237905" height="17.96872363"/></g><text fill="black" stroke="none" font-family="sans-serif" font-size="8pt" font-style="normal" font-weight="normal" text-decoration="normal" x="255.48169062395834" y="429.590715708" text-anchor="start" dominant-baseline="alphabetic" xml:space="preserve">addMovie(title:String,runningTime:int,year:int)</text></g><g><path fill="none" stroke="black" paint-order="fill stroke markers" d=" M 233.596706715625 435.119553748 L 511.96109227495833 435.119553748" stroke-miterlimit="10" stroke-width="1.1518412583333333" stroke-dasharray=""/><g transform="translate(523.3412839072917,435.119553748) translate(-523.3412839072917,-435.119553748)"><path fill="black" stroke="none" paint-order="stroke fill markers" d=" M 511.82287132395834 429.36034745633333 L 523.3412839072917 435.119553748 L 511.82287132395834 440.87876003966664 Z"/></g></g><g><g><rect fill="white" stroke="none" x="553.519524875625" y="493.172353168" width="342.48256603" height="17.96872363"/></g><text fill="black" stroke="none" font-family="sans-serif" font-size="8pt" font-style="normal" font-weight="normal" text-decoration="normal" x="555.5928391406251" y="505.612238758" text-anchor="start" dominant-baseline="alphabetic" xml:space="preserve">checkDoubleAdded(title:String,runningTime:Integer,year:Integer)</text></g><g><path fill="none" stroke="black" paint-order="fill stroke markers" d=" M 537.1633790072917 511.141076798 L 592.4517594072918 511.141076798 L 592.4517594072918 529.109800428 L 548.543570639625 529.109800428" stroke-miterlimit="10" stroke-width="1.1518412583333333" stroke-dasharray=""/><g transform="translate(537.1633790072917,529.109800428) translate(-537.1633790072917,-529.109800428)"><path fill="black" stroke="none" paint-order="stroke fill markers" d=" M 548.681791590625 523.3505941363333 L 537.1633790072917 529.109800428 L 548.681791590625 534.8690067196667 Z"/></g></g><g><g><rect fill="white" stroke="none" x="607.7630777464583" y="570.576085728" width="250.121237905" height="17.96872363"/></g><text fill="black" stroke="none" font-family="sans-serif" font-size="8pt" font-style="normal" font-weight="normal" text-decoration="normal" x="609.8363920114583" y="583.0159713179999" text-anchor="start" dominant-baseline="alphabetic" xml:space="preserve">addMovie(title:String,runningTime:int,year:int)</text></g><g><path fill="none" stroke="black" paint-order="fill stroke markers" d=" M 537.1633790072917 588.544809358 L 917.1038227582916 588.544809358" stroke-miterlimit="10" stroke-width="1.1518412583333333" stroke-dasharray=""/><g transform="translate(928.4840143906249,588.544809358) translate(-928.4840143906249,-588.544809358)"><path fill="black" stroke="none" paint-order="stroke fill markers" d=" M 916.9656018072916 582.7856030663332 L 928.4840143906249 588.544809358 L 916.9656018072916 594.3040156496667 Z"/></g></g><g><g><rect fill="white" stroke="none" x="958.6622553589583" y="609.2779520079999" width="250.121237905" height="17.96872363"/></g><text fill="black" stroke="none" font-family="sans-serif" font-size="8pt" font-style="normal" font-weight="normal" text-decoration="normal" x="960.7355696239583" y="621.7178375979998" text-anchor="start" dominant-baseline="alphabetic" xml:space="preserve">addMovie(title:String,runningTime:int,year:int)</text></g><g><path fill="none" stroke="black" paint-order="fill stroke markers" d=" M 942.306109490625 627.2466756379999 L 1213.7594474999582 627.2466756379999" stroke-miterlimit="10" stroke-width="1.1518412583333333" stroke-dasharray=""/><g transform="translate(1225.1396391322917,627.2466756379999) translate(-1225.1396391322917,-627.2466756379999)"><path fill="black" stroke="none" paint-order="stroke fill markers" d=" M 1213.6212265489582 621.4874693463332 L 1225.1396391322917 627.2466756379999 L 1213.6212265489582 633.0058819296667 Z"/></g></g><g><g><rect fill="white" stroke="none" x="1293.0850424247708" y="647.9798182879999" width="66.20961681125" height="17.96872363"/></g><text fill="black" stroke="none" font-family="sans-serif" font-size="8pt" font-style="normal" font-weight="normal" text-decoration="normal" x="1295.1583566897707" y="660.4197038779998" text-anchor="start" dominant-baseline="alphabetic" xml:space="preserve">oid:=getId()</text></g><g><path fill="none" stroke="black" paint-order="fill stroke markers" d=" M 1238.9617342322915 665.9485419179999 L 1402.0377757961664 665.9485419179999" stroke-miterlimit="10" stroke-width="1.1518412583333333" stroke-dasharray=""/><g transform="translate(1413.4179674284999,665.9485419179999) translate(-1413.4179674284999,-665.9485419179999)"><path fill="black" stroke="none" paint-order="stroke fill markers" d=" M 1401.8995548451664 660.1893356263332 L 1413.4179674284999 665.9485419179999 L 1401.8995548451664 671.7077482096666 Z"/></g></g><g><g><rect fill="white" stroke="none" x="1262.228927650625" y="686.6816845679999" width="136.80727306125" height="17.96872363"/></g><text fill="black" stroke="none" font-family="sans-serif" font-size="8pt" font-style="normal" font-weight="normal" text-decoration="normal" x="1264.302241915625" y="699.1215701579998" text-anchor="start" dominant-baseline="alphabetic" xml:space="preserve">performUpdate(sql:String)</text></g><g><path fill="none" stroke="black" paint-order="fill stroke markers" d=" M 1238.9617342322915 704.6504081979999 L 1301.1611621822917 704.6504081979999 L 1301.1611621822917 722.6191318279999 L 1257.252973414625 722.6191318279999" stroke-miterlimit="10" stroke-width="1.1518412583333333" stroke-dasharray=""/><g transform="translate(1245.8727817822917,722.6191318279999) translate(-1245.8727817822917,-722.6191318279999)"><path fill="black" stroke="none" paint-order="stroke fill markers" d=" M 1257.391194365625 716.8599255363332 L 1245.8727817822917 722.6191318279999 L 1257.391194365625 728.3783381196666 Z"/></g></g><g><g><rect fill="white" stroke="none" x="1278.6628806528959" y="743.3522744779999" width="101.964987905" height="17.96872363"/></g><text fill="black" stroke="none" font-family="sans-serif" font-size="8pt" font-style="normal" font-weight="normal" text-decoration="normal" x="1280.7361949178958" y="755.7921600679998" text-anchor="start" dominant-baseline="alphabetic" xml:space="preserve">execute(sql:String)</text></g><g><path fill="none" stroke="black" paint-order="fill stroke markers" d=" M 1245.8727817822917 761.3209981079999 L 1402.0377757961664 761.3209981079999" stroke-miterlimit="10" stroke-width="1.1518412583333333" stroke-dasharray=""/><g transform="translate(1413.4179674284999,761.3209981079999) translate(-1413.4179674284999,-761.3209981079999)"><path fill="black" stroke="none" paint-order="stroke fill markers" d=" M 1401.8995548451664 755.5617918163332 L 1413.4179674284999 761.3209981079999 L 1401.8995548451664 767.0802043996666 Z"/></g></g><g><g><rect fill="white" stroke="none" x="1262.228927650625" y="782.0541407579999" width="4.14662853" height="17.96872363"/></g><text fill="black" stroke="none" font-family="sans-serif" font-size="8pt" font-style="normal" font-weight="normal" text-decoration="normal" x="1264.302241915625" y="794.4940263479998" text-anchor="start" dominant-baseline="alphabetic" xml:space="preserve"></text></g><g><path fill="none" stroke="black" paint-order="fill stroke markers" d=" M 1245.8727817822917 800.0228643879999 L 1301.1611621822917 800.0228643879999 L 1301.1611621822917 817.9915880179999 L 1250.3419258646252 817.9915880179999" stroke-miterlimit="10" stroke-width="1.1518412583333333" stroke-dasharray="5.52883804"/><g transform="translate(1238.9617342322917,817.9915880179999) translate(-1238.9617342322917,-817.9915880179999)"><path fill="black" stroke="none" paint-order="stroke fill markers" d=" M 1250.4801468156252 812.2323817263332 L 1238.9617342322917 817.9915880179999 L 1250.4801468156252 823.7507943096666 Z"/></g></g><g><path fill="white" stroke="black" paint-order="fill stroke markers" d=" M 1608.4000118482081 859.2505418915 A 20.5258112235 20.5258112235 0 1 1 1608.4000015853035 859.2300160836975 M 1566.1735113177083 881.6561580486 L 1609.5748899317082 881.6561580486" stroke-miterlimit="10" stroke-width="2.3497561670000002" stroke-dasharray=""/></g><g><g/><text fill="black" stroke="none" font-family="sans-serif" font-size="8pt" font-style="normal" font-weight="normal" text-decoration="normal" x="1573.2030580465832" y="896.6531312320999" text-anchor="start" dominant-baseline="alphabetic" xml:space="preserve">Movie</text></g><g><g><rect fill="white" stroke="none" x="1262.228927650625" y="852.3809606267998" width="280.67739024875" height="17.96872363"/></g><text fill="black" stroke="none" font-family="sans-serif" font-size="8pt" font-style="normal" font-weight="normal" text-decoration="normal" x="1264.302241915625" y="864.8208462167997" text-anchor="start" dominant-baseline="alphabetic" xml:space="preserve">PersistentMovie(title:String,runningTime:int,year:int)</text></g><g><path fill="none" stroke="black" paint-order="fill stroke markers" d=" M 1238.9617342322915 870.3496842567998 L 1554.7933196853749 870.3496842567998" stroke-miterlimit="10" stroke-width="1.1518412583333333" stroke-dasharray=""/><g transform="translate(1566.1735113177083,870.3496842567998) translate(-1566.1735113177083,-870.3496842567998)"><path fill="black" stroke="none" paint-order="stroke fill markers" d=" M 1554.6550987343749 864.5904779651331 L 1566.1735113177083 870.3496842567998 L 1554.6550987343749 876.1088905484665 Z"/></g></g><g><g><rect fill="white" stroke="none" x="1407.8891293885001" y="922.7077804955999" width="4.14662853" height="17.96872363"/></g><text fill="black" stroke="none" font-family="sans-serif" font-size="8pt" font-style="normal" font-weight="normal" text-decoration="normal" x="1409.9624436535" y="935.1476660855998" text-anchor="start" dominant-baseline="alphabetic" xml:space="preserve"></text></g><g><path fill="none" stroke="black" paint-order="fill stroke markers" d=" M 1580.9631530747083 940.6765041255999 L 1250.341925864625 940.6765041255999" stroke-miterlimit="10" stroke-width="1.1518412583333333" stroke-dasharray="5.52883804"/><g transform="translate(1238.9617342322915,940.6765041255999) translate(-1238.9617342322915,-940.6765041255999)"><path fill="black" stroke="none" paint-order="stroke fill markers" d=" M 1250.480146815625 934.9172978339332 L 1238.9617342322915 940.6765041255999 L 1250.480146815625 946.4357104172666 Z"/></g></g><g><g><rect fill="white" stroke="none" x="1081.6495600464584" y="961.4096467755999" width="4.14662853" height="17.96872363"/></g><text fill="black" stroke="none" font-family="sans-serif" font-size="8pt" font-style="normal" font-weight="normal" text-decoration="normal" x="1083.7228743114583" y="973.8495323655998" text-anchor="start" dominant-baseline="alphabetic" xml:space="preserve"></text></g><g><path fill="none" stroke="black" paint-order="fill stroke markers" d=" M 1225.1396391322917 979.3783704055999 L 953.6863011229583 979.3783704055999" stroke-miterlimit="10" stroke-width="1.1518412583333333" stroke-dasharray="5.52883804"/><g transform="translate(942.306109490625,979.3783704055999) translate(-942.306109490625,-979.3783704055999)"><path fill="black" stroke="none" paint-order="stroke fill markers" d=" M 953.8245220739583 973.6191641139332 L 942.306109490625 979.3783704055999 L 953.8245220739583 985.1375766972666 Z"/></g></g><g><g><rect fill="white" stroke="none" x="730.7503824339583" y="1000.1115130555999" width="4.14662853" height="17.96872363"/></g><text fill="black" stroke="none" font-family="sans-serif" font-size="8pt" font-style="normal" font-weight="normal" text-decoration="normal" x="732.8236966989583" y="1012.5513986455998" text-anchor="start" dominant-baseline="alphabetic" xml:space="preserve"></text></g><g><path fill="none" stroke="black" paint-order="fill stroke markers" d=" M 928.4840143906249 1018.0802366855999 L 548.543570639625 1018.0802366855999" stroke-miterlimit="10" stroke-width="1.1518412583333333" stroke-dasharray="5.52883804"/><g transform="translate(537.1633790072917,1018.0802366855999) translate(-537.1633790072917,-1018.0802366855999)"><path fill="black" stroke="none" paint-order="stroke fill markers" d=" M 548.681791590625 1012.3210303939331 L 537.1633790072917 1018.0802366855999 L 548.681791590625 1023.8394429772666 Z"/></g></g><g><g><rect fill="white" stroke="none" x="560.430572425625" y="1038.8133793355998" width="88.49965587375" height="17.96872363"/></g><text fill="black" stroke="none" font-family="sans-serif" font-size="8pt" font-style="normal" font-weight="normal" text-decoration="normal" x="562.503886690625" y="1051.2532649256" text-anchor="start" dominant-baseline="alphabetic" xml:space="preserve">notifyObservers()</text></g><g><path fill="none" stroke="black" paint-order="fill stroke markers" d=" M 537.1633790072917 1056.7821029655997 L 599.3628069572917 1056.7821029655997 L 599.3628069572917 1074.7508265955998 L 555.454618189625 1074.7508265955998" stroke-miterlimit="10" stroke-width="1.1518412583333333" stroke-dasharray=""/><g transform="translate(544.0744265572916,1074.7508265955998) translate(-544.0744265572916,-1074.7508265955998)"><path fill="black" stroke="none" paint-order="stroke fill markers" d=" M 555.592839140625 1068.9916203039331 L 544.0744265572916 1074.7508265955998 L 555.592839140625 1080.5100328872666 Z"/></g></g><g><g><rect fill="white" stroke="none" x="362.82137703395836" y="1095.4839692455998" width="45.117331655" height="17.96872363"/></g><text fill="black" stroke="none" font-family="sans-serif" font-size="8pt" font-style="normal" font-weight="normal" text-decoration="normal" x="364.8946912989584" y="1107.9238548356" text-anchor="start" dominant-baseline="alphabetic" xml:space="preserve">update()</text></g><g><path fill="none" stroke="black" paint-order="fill stroke markers" d=" M 530.2523314572917 1113.4526928756 L 251.88794589795833 1113.4526928756" stroke-miterlimit="10" stroke-width="1.1518412583333333" stroke-dasharray=""/><g transform="translate(240.507754265625,1113.4526928756) translate(-240.507754265625,-1113.4526928756)"><path fill="black" stroke="none" paint-order="stroke fill markers" d=" M 252.02616684895835 1107.6934865839332 L 240.507754265625 1113.4526928756 L 252.02616684895835 1119.2118991672667 Z"/></g></g><g><g><rect fill="white" stroke="none" x="358.0322719027083" y="1134.1858355256" width="61.6065894675" height="17.96872363"/></g><text fill="black" stroke="none" font-family="sans-serif" font-size="8pt" font-style="normal" font-weight="normal" text-decoration="normal" x="360.10558616770834" y="1146.6257211156" text-anchor="start" dominant-baseline="alphabetic" xml:space="preserve">getMovies()</text></g><g><path fill="none" stroke="black" paint-order="fill stroke markers" d=" M 240.507754265625 1152.1545591556 L 525.7831873749584 1152.1545591556" stroke-miterlimit="10" stroke-width="1.1518412583333333" stroke-dasharray=""/><g transform="translate(537.1633790072917,1152.1545591556) translate(-537.1633790072917,-1152.1545591556)"><path fill="black" stroke="none" paint-order="stroke fill markers" d=" M 525.6449664239584 1146.3953528639333 L 537.1633790072917 1152.1545591556 L 525.6449664239584 1157.9137654472668 Z"/></g></g><g><g><rect fill="white" stroke="none" x="353.4453578402083" y="1172.8877018056" width="70.7804175925" height="17.96872363"/></g><text fill="black" stroke="none" font-family="sans-serif" font-size="8pt" font-style="normal" font-weight="normal" text-decoration="normal" x="355.51867210520834" y="1185.3275873956002" text-anchor="start" dominant-baseline="alphabetic" xml:space="preserve">returnmovies</text></g><g><path fill="none" stroke="black" paint-order="fill stroke markers" d=" M 537.1633790072917 1190.8564254356002 L 251.88794589795833 1190.8564254356002" stroke-miterlimit="10" stroke-width="1.1518412583333333" stroke-dasharray="5.52883804"/><g transform="translate(240.507754265625,1190.8564254356002) translate(-240.507754265625,-1190.8564254356002)"><path fill="black" stroke="none" paint-order="stroke fill markers" d=" M 252.02616684895835 1185.0972191439334 L 240.507754265625 1190.8564254356002 L 252.02616684895835 1196.6156317272669 Z"/></g></g><g><g><rect fill="white" stroke="none" x="383.30672859645836" y="1211.5895680856001" width="4.14662853" height="17.96872363"/></g><text fill="black" stroke="none" font-family="sans-serif" font-size="8pt" font-style="normal" font-weight="normal" text-decoration="normal" x="385.3800428614584" y="1224.0294536756003" text-anchor="start" dominant-baseline="alphabetic" xml:space="preserve"></text></g><g><path fill="none" stroke="black" paint-order="fill stroke markers" d=" M 240.507754265625 1229.5582917156003 L 518.8721398249584 1229.5582917156003" stroke-miterlimit="10" stroke-width="1.1518412583333333" stroke-dasharray="5.52883804"/><g transform="translate(530.2523314572917,1229.5582917156003) translate(-530.2523314572917,-1229.5582917156003)"><path fill="black" stroke="none" paint-order="stroke fill markers" d=" M 518.7339188739584 1223.7990854239335 L 530.2523314572917 1229.5582917156003 L 518.7339188739584 1235.317498007267 Z"/></g></g><g><g><rect fill="white" stroke="none" x="560.430572425625" y="1250.2914343656003" width="4.14662853" height="17.96872363"/></g><text fill="black" stroke="none" font-family="sans-serif" font-size="8pt" font-style="normal" font-weight="normal" text-decoration="normal" x="562.503886690625" y="1262.7313199556004" text-anchor="start" dominant-baseline="alphabetic" xml:space="preserve"></text></g><g><path fill="none" stroke="black" paint-order="fill stroke markers" d=" M 544.0744265572916 1268.2601579956004 L 599.3628069572917 1268.2601579956004 L 599.3628069572917 1286.2288816256003 L 548.5435706396249 1286.2288816256003" stroke-miterlimit="10" stroke-width="1.1518412583333333" stroke-dasharray="5.52883804"/><g transform="translate(537.1633790072916,1286.2288816256003) translate(-537.1633790072916,-1286.2288816256003)"><path fill="black" stroke="none" paint-order="stroke fill markers" d=" M 548.6817915906249 1280.4696753339335 L 537.1633790072916 1286.2288816256003 L 548.6817915906249 1291.988087917267 Z"/></g></g><g><g><rect fill="white" stroke="none" x="376.3956810464583" y="1306.9620242756005" width="4.14662853" height="17.96872363"/></g><text fill="black" stroke="none" font-family="sans-serif" font-size="8pt" font-style="normal" font-weight="normal" text-decoration="normal" x="378.46899531145834" y="1319.4019098656006" text-anchor="start" dominant-baseline="alphabetic" xml:space="preserve"></text></g><g><path fill="none" stroke="black" paint-order="fill stroke markers" d=" M 523.3412839072917 1324.9307479056004 L 244.97689834795833 1324.9307479056004" stroke-miterlimit="10" stroke-width="1.1518412583333333" stroke-dasharray="5.52883804"/><g transform="translate(233.596706715625,1324.9307479056004) translate(-233.596706715625,-1324.9307479056004)"><path fill="black" stroke="none" paint-order="stroke fill markers" d=" M 245.11511929895835 1319.1715416139336 L 233.596706715625 1324.9307479056004 L 245.11511929895835 1330.689954197267 Z"/></g></g><g><g><rect fill="white" stroke="none" x="116.8769371928125" y="1345.6638905556006" width="4.14662853" height="17.96872363"/></g><text fill="black" stroke="none" font-family="sans-serif" font-size="8pt" font-style="normal" font-weight="normal" text-decoration="normal" x="118.9502514578125" y="1358.1037761456007" text-anchor="start" dominant-baseline="alphabetic" xml:space="preserve"></text></g><g><path fill="none" stroke="black" paint-order="fill stroke markers" d=" M 219.774611615625 1363.6326141856005 L 29.506082932333335 1363.6326141856005" stroke-miterlimit="10" stroke-width="1.1518412583333333" stroke-dasharray="5.52883804"/><g transform="translate(18.1258913,1363.6326141856005) translate(-18.1258913,-1363.6326141856005)"><path fill="black" stroke="none" paint-order="stroke fill markers" d=" M 29.644303883333333 1357.8734078939337 L 18.1258913 1363.6326141856005 L 29.644303883333333 1369.3918204772672 Z"/></g></g><g><g/><path fill="none" stroke="black" paint-order="fill stroke markers" d=" M 481.8749986072917 455.852696398 L 900.839824190625 455.852696398 L 900.839824190625 549.842943078 L 481.8749986072917 549.842943078 L 481.8749986072917 455.852696398 Z" stroke-miterlimit="10" stroke-width="1.9745850142857144" stroke-dasharray=""/><path fill="white" stroke="black" paint-order="fill stroke markers" d=" M 481.8749986072917 455.852696398 L 481.8749986072917 472.439210518 L 562.0338372447917 472.439210518 L 570.3270943047917 464.14595345799995 L 570.3270943047917 455.852696398 L 481.8749986072917 455.852696398" stroke-miterlimit="10" stroke-width="1.9745850142857144" stroke-dasharray=""/><text fill="black" stroke="none" font-family="sans-serif" font-size="6.4pt" font-style="normal" font-weight="bold" text-decoration="normal" x="495.6970937072917" y="466.910372478" text-anchor="start" dominant-baseline="alphabetic" xml:space="preserve">expandable-</text><text fill="black" stroke="none" font-family="sans-serif" font-size="6.4pt" font-style="normal" font-weight="bold" text-decoration="normal" x="584.1491894047916" y="466.910372478" text-anchor="start" dominant-baseline="alphabetic" xml:space="preserve">[seediagram02-AddMovieECE(doubleaddedmovie)]</text></g></g><g/><g/><g/><g/><g/><g/></g></svg>