<svg version="1.1" xmlns="http://www.w3.org/2000/svg" xmlns:xlink="http://www.w3.org/1999/xlink" width="1619" height="1412"><desc>actor%20Staff%0Aboundary%20MovieDialog%0Aboundary%20StaffUI%0A%0Acontrol%20ManagementSystem%0Aparticipant%20Cinema%0Aparticipant%20MovieMapper%0A%0A%0A%0Adatabase%20Database%0Aentity%20Movie%0A%0AStaff-%3EStaffUI%3AaddMovie()%0Aactivate%20StaffUI%0A%0AStaffUI-%3E*MovieDialog%3AMovieDialog()%0Aactivate%20MovieDialog%0AMovieDialog--%3EStaffUI%3A%0Adeactivate%20MovieDialog%0A%0AStaffUI-%3EMovieDialog%3AshowAndWait()%0Aactivate%20MovieDialog%0AMovieDialog-%3EStaff%3A%0Aactivate%20Staff%0AStaff--%3EMovieDialog%3A%0Adeactivate%20Staff%0AMovieDialog-%3EStaffUI%3Areturn%20m%20%3A%20MovieInfo%0Adeactivate%20MovieDialog%0A%0AStaffUI-%3EManagementSystem%3AaddMovie(title%20%3A%20String%2C%20runningTime%20%3A%20int%2C%20year%20%3A%20int)%0Aactivate%20ManagementSystem%0A%0A%0Aexpandable-%20see%20diagram%2002%20-%20Add%20Movie%20ECE%20(double%20added%20movie)%0AManagementSystem-%3EManagementSystem%3AcheckDoubleAdded(title%20%3A%20String%2C%20runningTime%20%3A%20Integer%2C%20year%20%3A%20Integer)%0Aend%20%0A%0AManagementSystem-%3ECinema%3AaddMovie(title%20%3A%20String%2C%20runningTime%20%3A%20int%2C%20year%20%3A%20int)%0Aactivate%20Cinema%0A%0A%0A%0ACinema-%3EMovieMapper%3AaddMovie(title%20%3A%20String%2C%20runningTime%20%3A%20int%2C%20year%20%3A%20int)%0Aactivate%20MovieMapper%0AMovieMapper-%3EDatabase%3Aoid%20%3A%3D%20getId()%0AMovieMapper-%3EMovieMapper%3AperformUpdate(sql%20%3A%20String)%0Aactivate%20MovieMapper%0A%0A%0AMovieMapper-%3EDatabase%3AexecuteUpdate(sql%20%3A%20String)%0AMovieMapper--%3EMovieMapper%3A%0Adeactivate%20MovieMapper%0A%0A%0AMovieMapper-%3E*Movie%3APersistentMovie(title%20%3A%20String%2C%20runningTime%20%3A%20int%2C%20year%20%3A%20int)%0Aactivate%20Movie%0AMovie--%3EMovieMapper%3A%0Adeactivate%20Movie%0AMovieMapper--%3ECinema%3A%0Adeactivate%20MovieMapper%0ACinema--%3EManagementSystem%3A%0Adeactivate%20Cinema%0A%0AManagementSystem-%3EManagementSystem%3AnotifyObservers()%0Aactivate%20ManagementSystem%0A%0AManagementSystem-%3EStaffUI%3Aupdate()%0Aactivate%20StaffUI%0A%0AStaffUI-%3EManagementSystem%3AgetMovies()%0Aactivate%20ManagementSystem%0AManagementSystem--%3EStaffUI%3Areturn%20movies%0Adeactivate%20ManagementSystem%0A%0AStaffUI--%3EManagementSystem%3A%0Adeactivate%20StaffUI%0A%0AManagementSystem--%3EManagementSystem%3A%0A%0Adeactivate%20ManagementSystem%0AManagementSystem--%3EStaffUI%3A%0Adeactivate%20ManagementSystem%0AStaffUI--%3EStaff%3A%0Adeactivate%20StaffUI%0A</desc><defs/><g><g/><g/><g/><g/><g/><g/><g/><g/><g/><g/><g/><g/><g/><g/><g/><g/><g/><g/><g/><g/><g/><g/><g/><g/><g/><g/><g/><g/><g/><g><rect fill="white" stroke="none" x="0" y="0" width="1619" height="1412"/></g><g/><g><path fill="none" stroke="black" paint-order="fill stroke markers" d=" M 18.1258913 75.19219734400001 L 18.1258913 1412.0099470356004" stroke-miterlimit="10" stroke-width="1.1518412583333333" stroke-dasharray="10.632380846153845,4.607365033333333"/><path fill="none" stroke="black" paint-order="fill stroke markers" d=" M 77.88818872083333 202.90835606800002 L 77.88818872083333 1412.0099470356004" stroke-miterlimit="10" stroke-width="1.1518412583333333" stroke-dasharray="10.632380846153845,4.607365033333333"/><path fill="none" stroke="black" paint-order="fill stroke markers" d=" M 226.685659165625 75.19219734400001 L 226.685659165625 1412.0099470356004" stroke-miterlimit="10" stroke-width="1.1518412583333333" stroke-dasharray="10.632380846153845,4.607365033333333"/><path fill="none" stroke="black" paint-order="fill stroke markers" d=" M 530.2523314572917 75.19219734400001 L 530.2523314572917 1412.0099470356004" stroke-miterlimit="10" stroke-width="1.1518412583333333" stroke-dasharray="10.632380846153845,4.607365033333333"/><path fill="none" stroke="black" paint-order="fill stroke markers" d=" M 935.3950619406249 75.19219734400001 L 935.3950619406249 1412.0099470356004" stroke-miterlimit="10" stroke-width="1.1518412583333333" stroke-dasharray="10.632380846153845,4.607365033333333"/><path fill="none" stroke="black" paint-order="fill stroke markers" d=" M 1232.0506866822916 75.19219734400001 L 1232.0506866822916 1412.0099470356004" stroke-miterlimit="10" stroke-width="1.1518412583333333" stroke-dasharray="10.632380846153845,4.607365033333333"/><path fill="none" stroke="black" paint-order="fill stroke markers" d=" M 1416.0207645489584 75.19219734400001 L 1416.0207645489584 1412.0099470356004" stroke-miterlimit="10" stroke-width="1.1518412583333333" stroke-dasharray="10.632380846153845,4.607365033333333"/><path fill="none" stroke="black" paint-order="fill stroke markers" d=" M 1590.4769977451667 901.9746378455999 L 1590.4769977451667 1412.0099470356004" stroke-miterlimit="10" stroke-width="1.1518412583333333" stroke-dasharray="10.632380846153845,4.607365033333333"/></g><g><g><path fill="white" stroke="black" paint-order="fill stroke markers" d=" M 26.004485507 16.724735071000005 A 7.878594207 7.878594207 0 1 1 26.004481567703223 16.7168564781061 M 18.1258913 24.603329278000004 L 18.1258913 41.4662853 M 8.173982828 30.685051122000004 L 28.077799772 30.685051122000004 M 18.1258913 41.4662853 L 8.173982828 57.22347371400001 M 18.1258913 41.4662853 L 28.077799772 57.22347371400001" stroke-miterlimit="10" stroke-width="2.3497561670000002" stroke-dasharray=""/></g><g><g/><text fill="black" stroke="none" font-family="sans-serif" font-size="8pt" font-style="normal" font-weight="normal" text-decoration="normal" x="6.911047549999999" y="71.045568814" text-anchor="start" dominant-baseline="alphabetic" xml:space="preserve">Staff</text></g><g><path fill="white" stroke="black" paint-order="fill stroke markers" d=" M 254.122517939125 35.52278440700001 A 20.5258112235 20.5258112235 0 1 1 254.12250767622024 35.50225859919747 M 200.423678475625 13.822095100000011 L 200.423678475625 57.22347371400001 M 199.248800392125 35.52278440700001 L 213.070895492125 35.52278440700001" stroke-miterlimit="10" stroke-width="2.3497561670000002" stroke-dasharray=""/></g><g><g/><text fill="black" stroke="none" font-family="sans-serif" font-size="8pt" font-style="normal" font-weight="normal" text-decoration="normal" x="209.970815415625" y="71.045568814" text-anchor="start" dominant-baseline="alphabetic" xml:space="preserve">StaffUI</text></g><g><path fill="white" stroke="black" paint-order="fill stroke markers" d=" M 550.7781426807917 35.52278440700001 A 20.5258112235 20.5258112235 0 1 1 550.7781324178869 35.50225859919747 M 527.4879124372917 14.99697318350001 L 535.7811694972917 8.085925633500011 M 527.4879124372917 14.99697318350001 L 535.7811694972917 21.90802073350001" stroke-miterlimit="10" stroke-width="2.3497561670000002" stroke-dasharray=""/></g><g><g/><text fill="black" stroke="none" font-family="sans-serif" font-size="8pt" font-style="normal" font-weight="normal" text-decoration="normal" x="479.8123900510417" y="71.045568814" text-anchor="start" dominant-baseline="alphabetic" xml:space="preserve">ManagementSystem</text></g><path fill="none" stroke="none"/><g><path fill="white" stroke="black" paint-order="fill stroke markers" d=" M 901.4461844602499 37.87254057400001 L 969.343939421 37.87254057400001 L 969.343939421 75.19219734400001 L 901.4461844602499 75.19219734400001 L 901.4461844602499 37.87254057400001 Z" stroke-miterlimit="10" stroke-width="2.211535216" stroke-dasharray=""/></g><g><g/><text fill="black" stroke="none" font-family="sans-serif" font-size="8pt" font-style="normal" font-weight="normal" text-decoration="normal" x="916.4431576437499" y="61.370102243999995" text-anchor="start" dominant-baseline="alphabetic" xml:space="preserve">Cinema</text></g><path fill="none" stroke="none"/><g><path fill="white" stroke="black" paint-order="fill stroke markers" d=" M 1183.7341334206667 37.87254057400001 L 1280.3672399439167 37.87254057400001 L 1280.3672399439167 75.19219734400001 L 1183.7341334206667 75.19219734400001 L 1183.7341334206667 37.87254057400001 Z" stroke-miterlimit="10" stroke-width="2.211535216" stroke-dasharray=""/></g><g><g/><text fill="black" stroke="none" font-family="sans-serif" font-size="8pt" font-style="normal" font-weight="normal" text-decoration="normal" x="1198.7311066041666" y="61.370102243999995" text-anchor="start" dominant-baseline="alphabetic" xml:space="preserve">MovieMapper</text></g><g><path fill="white" stroke="black" paint-order="fill stroke markers" d=" M 1395.8405057029584 48.10089094800001 L 1395.8405057029584 19.074491238000007 L 1436.2010233949584 19.074491238000007 L 1436.2010233949584 48.10089094800001" stroke-miterlimit="10" stroke-width="2.3497561670000002" stroke-dasharray=""/><path fill="white" stroke="black" paint-order="fill stroke markers" d=" M 1436.2010233949584 18.065478295700007 L 1436.2000143904245 18.15670260293715 L 1436.1969874777224 18.247917787819585 L 1436.191942959541 18.339114728904843 L 1436.1848813403278 18.430284306574812 L 1436.1758033262388 18.521417403947694 L 1436.1647098250678 18.612504907789702 L 1436.1516019461558 18.703537709426353 L 1436.1364810002797 18.794506705653347 L 1436.1193484995215 18.885402799646865 L 1436.100206157117 18.976216901873258 L 1436.0790558872845 19.066939930997982 L 1436.0558998050335 19.15756281479372 L 1436.0307402259527 19.248076491047623 L 1436.003579665979 19.338471908467483 L 1435.9744208411462 19.42874002758689 L 1435.943266667312 19.518871821669155 L 1435.9101202598679 19.608858277609983 L 1435.8749849334272 19.698690396838764 L 1435.8378642014932 19.788359196218437 L 1435.798761776108 19.877855708943788 L 1435.7576815674818 19.967170985438123 L 1435.714627683601 20.05629609424822 L 1435.6696044298185 20.145222122937476 L 1435.6226163084218 20.23394017897712 L 1435.573668018184 20.322441390635486 L 1435.5227644538932 20.41071690786515 L 1435.4699107058634 20.498757903187958 L 1435.4151120594256 20.586555572577744 L 1435.3583739943988 20.674101136340735 L 1435.299702184542 20.7613858399935 L 1435.2391024969872 20.848400955138427 L 1435.176580991653 20.935137780336497 L 1435.1121439206377 21.021587641977483 L 1435.0457977275946 21.107741895147257 L 1434.9775490470877 21.193591924492296 L 1434.9074047039283 21.279129145081207 L 1434.8353717124921 21.364345003263217 L 1434.7614572760185 21.449230977523516 L 1434.6856687858894 21.533778579335415 L 1434.6080138208906 21.617979354009194 L 1434.528500146454 21.701824881537547 L 1434.4471357138807 21.785306777437597 L 1434.363928659546 21.868416693589317 L 1434.2788873040863 21.951146319070357 L 1434.192020151566 22.033487380987104 L 1434.1033358886282 22.115431645301985 L 1434.0128433836253 22.196970917656856 L 1433.920551685732 22.278097044192428 L 1433.8264700240418 22.35880191236366 L 1433.730607806642 22.43907745175098 L 1433.6329746196745 22.518915634867348 L 1433.5335802263767 22.598308477960988 L 1433.4324345661053 22.677248041813744 L 1433.3295477533416 22.75572643253502 L 1433.2249300766816 22.83373580235114 L 1433.1185919978057 22.911268350390124 L 1433.0105441504327 22.988316323461788 L 1432.900797339258 23.06487201683303 L 1432.7893625388706 23.140927774998303 L 1432.6762508926583 23.216475992445172 L 1432.561473711691 23.291509114414854 L 1432.4450424735912 23.366019637657672 L 1432.3269688213861 23.4400001111834 L 1432.2072645623418 23.51344313700633 L 1432.0859416667852 23.586341370885087 L 1431.9630122669043 23.658687523057033 L 1431.8384886555368 23.73047435896723 L 1431.71238328494 23.801694699991916 L 1431.5847087655459 23.872341424156335 L 1431.4554778647002 23.942407466846948 L 1431.324703505385 24.011885821517872 L 1431.1923987649275 24.080769540391536 L 1431.0585768736912 24.149051735153456 L 1430.923251213754 24.216725577641057 L 1430.786435317569 24.283784300526488 L 1430.6481428666118 24.350221197993342 L 1430.5083876900123 24.416029626407234 L 1430.3671837631719 24.481203004980163 L 1430.224545206365 24.54573481642858 L 1430.080486283329 24.609618607625126 L 1429.935021399836 24.67284799024391 L 1429.788165102253 24.73541664139936 L 1429.6399320760875 24.797318304278505 L 1429.4903371445187 24.858546788766642 L 1429.3393952669146 24.919095972066344 L 1429.1871215373378 24.978959799309735 L 1429.033531183034 25.038132284163982 L 1428.8786395629108 25.09660750942991 L 1428.722462166001 25.154379627633716 L 1428.5650146099142 25.21144286161173 L 1428.4063126392748 25.267791505088102 L 1428.2463721241477 25.323419923245446 L 1428.085209058451 25.378322553288296 L 1427.922839558357 25.432493904999404 L 1427.7592798606804 25.48592856128874 L 1427.594546321255 25.53862117873521 L 1427.4286554132968 25.59056648812097 L 1427.2616237257587 25.641759294958376 L 1427.0934679616705 25.692194480009405 L 1426.9242049364682 25.741866999797576 L 1426.753851576313 25.790771887112307 L 1426.5824249163998 25.838904251505618 L 1426.4099420992509 25.886259279781186 L 1426.2364203730044 25.932832236475637 L 1426.0618770896888 25.978618464332122 L 1425.8863297034868 26.023613384766 L 1425.7097957689903 26.06781249832273 L 1425.5322929394463 26.11121138512779 L 1425.353838964989 26.153805705328658 L 1425.1744516908682 26.195591199528817 L 1424.994149055661 26.236563689213664 L 1424.812949089481 26.276719077168373 L 1424.6308699121735 26.316053347887618 L 1424.447929731505 26.354562567977098 L 1424.2641468413408 26.392242886546896 L 1424.0795396198168 26.429090535596558 L 1423.8941265275014 26.46510183039188 L 1423.7079261055492 26.5002731698334 L 1423.5209569738472 26.534601036816476 L 1423.333237829153 26.568081998583022 L 1423.1447874432245 26.60071270706476 L 1422.955624660943 26.63248989921803 L 1422.7657683984296 26.663410397350102 L 1422.575237641152 26.693471109436928 L 1422.3840514420272 26.722669029432353 L 1422.1922289195156 26.7510012375687 L 1421.99978925571 26.77846490064878 L 1421.8067516944163 26.805057272329158 L 1421.6131355392297 26.830775693394834 L 1421.4189601516043 26.855617592025126 L 1421.2242449489172 26.879580484050884 L 1421.0290094025263 26.90266197320286 L 1420.8332730358234 26.924859751351384 L 1420.6370554222824 26.946171598737138 L 1420.4403761835008 26.96659538419314 L 1420.243254987239 26.986129065357865 L 1420.045711545452 27.00477068887948 L 1419.8477656123193 27.022518390611154 L 1419.6494369822694 27.03937039579752 L 1419.4507454880004 27.055325019252088 L 1419.2517109984956 27.070380665525818 L 1419.0523534170381 27.084535829066628 L 1418.8526926792204 27.097789094369954 L 1418.6527487509495 27.110139136120317 L 1418.4525416264516 27.121584719323828 L 1418.2520913262726 27.132124699431706 L 1418.051417895275 27.141758022454724 L 1417.8505414006354 27.15048372506861 L 1417.6494819298352 27.15830093471037 L 1417.4482595886543 27.165208869665555 L 1417.246894499159 27.17120683914643 L 1417.0454067976902 27.176294243361042 L 1416.8438166328506 27.180470573573206 L 1416.6421441634886 27.18373541215339 L 1416.4404095566827 27.186088432620444 L 1416.2386329857259 27.18752939967429 L 1416.0368346281068 27.188058169219428 L 1415.8350346634934 27.187674688379335 L 1415.6332532717138 27.186378995501777 L 1415.4315106307388 27.184171220154965 L 1415.2298269146647 27.181051583114595 L 1415.0282222916949 27.17702039634177 L 1414.8267169221235 27.172078062951805 L 1414.62533095632 27.166225077173927 L 1414.4240845327129 27.159462024301828 L 1414.2229977757768 27.15178958063516 L 1414.02209079402 27.143208513411906 L 1413.8213836779728 27.13371968073163 L 1413.6208964981802 27.12332403146969 L 1413.4206493031927 27.112022605182354 L 1413.220662117563 27.099816532002833 L 1413.020954939843 27.086707032528267 L 1412.8215477405843 27.072695417697688 L 1412.62246046034 27.057783088660898 L 1412.423713007673 27.041971536638375 L 1412.2253252571627 27.025262342772145 L 1412.0273170474184 27.007657177967666 L 1411.8297081790965 26.98915780272675 L 1411.6325184129191 26.96976606697151 L 1411.4357674676985 26.94948390985936 L 1411.239475018365 26.928313359589104 L 1411.0436606940004 26.906256533198132 L 1410.8483440758737 26.883315636350694 L 1410.6535446954838 26.859492963117372 L 1410.4592820326066 26.834790895745627 L 1410.2655755133467 26.809211904421616 L 1410.0724445081942 26.78275854702315 L 1409.879908330089 26.755433468863927 L 1409.6879862324881 26.727239402428996 L 1409.4966974074416 26.6981791671015 L 1409.3060609836725 26.668255668880757 L 1409.1160960246646 26.637471900091654 L 1408.9268215267552 26.605830939085415 L 1408.7382564172362 26.573335949931778 L 1408.5504195524618 26.53999018210257 L 1408.363329715962 26.505796970146797 L 1408.177005616564 26.470759733357152 L 1407.991465886523 26.43488197542812 L 1407.8067290796569 26.398167284105593 L 1407.6228136694929 26.360619330828115 L 1407.4397380474186 26.32224187035971 L 1407.2575205208436 26.28303874041446 L 1407.0761793113688 26.243013861272683 L 1406.8957325529639 26.20217123538894 L 1406.7161982901544 26.160514946991775 L 1406.537594476217 26.11804916167533 L 1406.3599389713843 26.07477812598274 L 1406.1832495410588 26.03070616698151 L 1406.007543854036 25.985837691830824 L 1405.8328394807384 25.940177187340804 L 1405.659153891458 25.893729219523845 L 1405.4865044546084 25.846498433138024 L 1405.3149084349898 25.798489551222623 L 1405.1443829920609 25.74970737462582 L 1404.9749451782243 25.700156781524633 L 1404.80661193712 25.64984272693707 L 1404.6394001019314 25.59877024222667 L 1404.4733263937035 25.546944434599336 L 1404.3084074196681 25.49437048659265 L 1404.1446596715853 25.441053655557596 L 1403.9820995240937 25.386999273132844 L 1403.8207432330723 25.3322127447116 L 1403.6606069340157 25.27669954890105 L 1403.5017066404207 25.220465236974505 L 1403.344058242184 25.163515432316306 L 1403.1876775040141 25.105855829859454 L 1403.0325800638545 25.04749219551615 L 1402.8787814313198 24.98843036560119 L 1402.7262969861454 24.928676246248344 L 1402.5751419766486 24.86823581281976 L 1402.4253315182043 24.807115109308405 L 1402.2768805917337 24.74532024773371 L 1402.1298040422055 24.68285740753032 L 1401.9841165771522 24.61973283493021 L 1401.8398327651992 24.555952842338044 L 1401.6969670346068 24.49152380769992 L 1401.5555336718296 24.42645217386562 L 1401.4155468200856 24.360744447944292 L 1401.2770204779438 24.294407200653783 L 1401.1399684979224 24.227447065663533 L 1401.0044045851057 24.159870738931243 L 1400.8703422957717 24.09168497803327 L 1400.7377950360376 24.022896601488892 L 1400.6067760605192 23.95351248807843 L 1400.4772984710046 23.883539576155414 L 1400.349375215145 23.812984862952717 L 1400.2230190851594 23.741855403882866 L 1400.0982427165552 23.6701583118325 L 1399.9750585868658 23.597900756451068 L 1399.853479014401 23.5250899634339 L 1399.7335161570172 23.451733213799617 L 1399.6151820108996 23.377837843162055 L 1399.4984884093649 23.303411240996702 L 1399.3834470216755 23.228460849901744 L 1399.2700693518743 23.15299416485384 L 1399.158366737634 23.077018732458605 L 1399.048350349123 23.00054215019596 L 1398.9400311878883 22.923572065660405 L 1398.8334200857557 22.846116175796254 L 1398.728527703747 22.768182226127944 L 1398.6253645310123 22.6897780099855 L 1398.5239408837836 22.610911367725194 L 1398.4242669043404 22.53159018594554 L 1398.3263525599982 22.451822396698603 L 1398.2302076421097 22.37161597669684 L 1398.1358417650863 22.29097894651542 L 1398.0432643654372 22.209919369790153 L 1397.9524847008254 22.128445352411166 L 1397.8635118491413 22.046565041712302 L 1397.7763547075965 21.9642866256564 L 1397.691021991832 21.881618332016497 L 1397.6075222350487 21.79856842755307 L 1397.5258637871523 21.715145217187356 L 1397.4460548139198 21.631357043170873 L 1397.368103296182 21.547212284251195 L 1397.2920170290254 21.4627193548341 L 1397.2178036210137 21.377886704142114 L 1397.1454704934256 21.29272281536962 L 1397.0750248795139 21.207236204834516 L 1397.0064738237809 21.12143542112662 L 1396.9398241812753 21.03532904425281 L 1396.8750826169057 20.948925684779006 L 1396.8122556047747 20.862233982969162 L 1396.751349427531 20.77526260792121 L 1396.6923701757419 20.688020256700185 L 1396.6353237472829 20.600515653468506 L 1396.5802158467498 20.51275754861357 L 1396.5270519848862 20.424754717872737 L 1396.4758374780345 20.336515961455746 L 1396.4265774476025 20.2480501031647 L 1396.3792768195522 20.159365989511716 L 1396.333940323907 20.07047248883425 L 1396.2905724942786 19.98137849040829 L 1396.249177667414 19.89209290355944 L 1396.2097599827612 19.80262465677198 L 1396.172323382056 19.712982696796026 L 1396.136871608927 19.62317598775288 L 1396.1034082085223 19.533213510238607 L 1396.0719365271539 19.443104260425986 L 1396.0424597119636 19.352857249164913 L 1396.0149807106086 19.262481501081304 L 1395.9895022709659 19.171986053674658 L 1395.9660269408585 19.0813799564143 L 1395.9445570677995 18.99067226983445 L 1395.9250947987587 18.899872064628184 L 1395.9076420799463 18.80898842074035 L 1395.8922006566202 18.7180304264596 L 1395.8787720729094 18.627007177509565 L 1395.8673576716612 18.53592777613929 L 1395.8579585943064 18.44480133021301 L 1395.850575780745 18.35363695229938 L 1395.8452099692518 18.26244375876022 L 1395.8418616964036 18.171230868838894 L 1395.8405312970249 18.08000740374838 L 1395.8412189041546 17.98878248575917 L 1395.8439244490328 17.89756523728704 L 1395.8486476611067 17.80636477998082 L 1395.8553880680595 17.71519023381025 L 1395.8641449958561 17.624050716153963 L 1395.8749175688106 17.532955340887774 L 1395.8877047096753 17.4419132174733 L 1395.9025051397462 17.350933450047012 L 1395.919317378993 17.26002513650984 L 1395.9381397462055 17.16919736761737 L 1395.9589703591628 17.07845922607082 L 1395.9818071348209 16.987819785608714 L 1396.0066477895216 16.897288110099574 L 1396.0334898392198 16.8068732526355 L 1396.0623305997328 16.716584254626905 L 1396.093167187009 16.62643014489834 L 1396.125996517415 16.536419938785652 L 1396.1608153080451 16.446562637234447 L 1396.1976200770494 16.356867225899993 L 1396.2364071439818 16.26734267424868 L 1396.2771726301678 16.177997934661075 L 1396.3199124590926 16.08884194153668 L 1396.3646223568092 15.999883610400506 L 1396.411297852365 15.911131837011538 L 1396.4599342782492 15.82259549647316 L 1396.5105267708598 15.734283442345639 L 1396.5630702709898 15.6462045057608 L 1396.6175595243328 15.558367494538897 L 1396.673989082009 15.47078119230786 L 1396.7323533011097 15.383454357624922 L 1396.7926463452616 15.296395723100778 L 1396.8548621852103 15.209613994526332 L 1396.918994599424 15.123117850002128 L 1396.9850371747145 15.036915939070532 L 1397.0529833068795 14.951016881850805 L 1397.1228262013622 14.865429268177088 L 1397.1945588739313 14.780161656739425 L 1397.2681741513798 14.695222574227904 L 1397.3436646722407 14.610620514479992 L 1397.421022887525 14.526363937631164 L 1397.500241061476 14.44246126926889 L 1397.5813112723417 14.358920899590089 L 1397.6642254131689 14.27575118256211 L 1397.7489751926128 14.19296043508735 L 1397.835552135766 14.110556936171564 L 1397.9239475850059 14.028548926095976 L 1398.0141527008618 13.946944605593249 L 1398.106158462897 13.865752135027433 L 1398.1999556706119 13.784979633577926 L 1398.2955349443641 13.704635178427559 L 1398.392886726306 13.624726803954896 L 1398.49200128134 13.545262500930793 L 1398.5928686980935 13.466250215719334 L 1398.695478889909 13.387697849483194 L 1398.7998215958528 13.30961325739354 L 1398.905886381741 13.23200424784451 L 1399.0136626411838 13.154878581672381 L 1399.1231395966447 13.078243971379504 L 1399.2343063005196 13.002108080363044 L 1399.3471516362306 12.926478522148656 L 1399.4616643193383 12.851362859629138 L 1399.5778328986696 12.776768604308145 L 1399.6956457574636 12.702703215549048 L 1399.8150911145326 12.629174099829003 L 1399.9361570254403 12.556188609998305 L 1400.0588313836965 12.483754044545117 L 1400.1831019219678 12.411877646865625 L 1400.3089562133039 12.340566604539697 L 1400.43638167238 12.26982804861214 L 1400.5653655567573 12.199669052879603 L 1400.695894968154 12.130096633183188 L 1400.8279568537384 12.06111774670689 L 1400.9615380074315 11.992739291281874 L 1401.0966250712295 11.924968104696699 L 1401.2332045365386 11.857810964013552 L 1401.3712627455259 11.791274584890534 L 1401.5107858924855 11.725365620910111 L 1401.6517600252193 11.660090662913756 L 1401.7941710464315 11.595456238342878 L 1401.9380047151383 11.531468810586066 L 1402.0832466480929 11.468134778332775 L 1402.2298823212232 11.405460474933456 L 1402.3778970710837 11.343452167766216 L 1402.527276096323 11.282116057610097 L 1402.6780044591633 11.221458278025008 L 1402.8300670868935 11.16148489473835 L 1402.9834487733774 11.10220190503848 L 1403.1381341805748 11.043615237174969 L 1403.2941078400734 10.985730749765775 L 1403.4513541546376 10.928554231211407 L 1403.6098573997665 10.87209139911607 L 1403.7696017252679 10.816347899715922 L 1403.9305711568427 10.76132930731445 L 1404.0927495976812 10.707041123725045 L 1404.2561208300751 10.653488777720831 L 1404.420668517037 10.600677624491773 L 1404.5863762039353 10.548612945109191 L 1404.7532273201396 10.497299945997636 L 1404.9212051806771 10.446743758414254 L 1405.0902929879019 10.396949437935678 L 1405.2604738331743 10.347921963952459 L 1405.431730698551 10.299666239171138 L 1405.6040464584887 10.252187089123984 L 1405.777403881555 10.20548926168643 L 1405.951785632152 10.159577426602311 L 1406.1271742722497 10.114456175016873 L 1406.3035522631305 10.070130019017672 L 1406.4809019671422 10.026603391183372 L 1406.6592056494624 9.983880644140482 L 1406.838445479871 9.941966050128107 L 1407.0186035345348 9.900863800570718 L 1407.1996617977982 9.86057800565902 L 1407.381602163986 9.82111269393893 L 1407.5644064392127 9.782471811908737 L 1407.7480563432036 9.744659223624438 L 1407.9325335111212 9.707678710313356 L 1408.1178194954023 9.671533969996 L 1408.303895767603 9.636228617116288 L 1408.4907437202512 9.60176618218008 L 1408.6783446687073 9.568150111402154 L 1408.8666798530328 9.535383766361576 L 1409.055730439866 9.503470423665544 L 1409.2454775243061 9.472413274621731 L 1409.4359021318025 9.442215424919162 L 1409.6269852200533 9.412879894317644 L 1409.8187076809088 9.384409616345788 L 1410.011050342283 9.35680743800767 L 1410.2039939700694 9.330076119498116 L 1410.3975192700666 9.304218333926707 L 1410.5916068899057 9.27923666705045 L 1410.7862374209863 9.255133617015213 L 1410.9813914004178 9.231911594105915 L 1411.1770493129645 9.209572920505497 L 1411.3731915929984 9.1881198300627 L 1411.569798626455 9.167554468068694 L 1411.7668507527947 9.147878891042538 L 1411.9643282669692 9.129095066525542 L 1412.1622114213915 9.1112048728845 L 1412.360480427911 9.09421009912387 L 1412.5591154597923 9.078112444706866 L 1412.758096653698 9.062913519385516 L 1412.9574041116744 9.048614843039683 L 1413.1570179031417 9.03521784552509 L 1413.356918066887 9.022723866530322 L 1413.5570846130606 9.011134155442866 L 1413.7574975251748 9.000449871224175 L 1413.9581367621054 8.990672082293766 L 1414.1589822600959 8.981801766422386 L 1414.3600139347636 8.973839810634226 L 1414.561211683109 8.966787011118234 L 1414.7625553855246 8.960644073148481 L 1414.964024907808 8.955411611013648 L 1415.165600103175 8.951090147955588 L 1415.3672608142738 8.947680116117002 L 1415.5689868752015 8.945181856498236 L 1415.77075811352 8.943595618923167 L 1415.972554352274 8.942921562014233 L 1416.1743554120073 8.94315975317656 L 1416.3761411127823 8.944310168591237 L 1416.577891276197 8.946372693217674 L 1416.7795857274034 8.949347120805129 L 1416.9812042971243 8.953233153913324 L 1417.1827268236707 8.958030403942185 L 1417.384133154958 8.963738391170708 L 1417.5854031505207 8.970356544804925 L 1417.786516683527 8.97788420303499 L 1417.9874536427915 8.98632061310135 L 1418.1881939347854 8.99566493137003 L 1418.388717485647 9.00591622341699 L 1418.5890042431884 9.017073464121571 L 1418.7890341789002 9.029135537768996 L 1418.988787289956 9.042101238161953 L 1419.1882436012113 9.055969268741208 L 1419.3873831672006 9.070738242715262 L 1419.5861860741338 9.086406683199021 L 1419.7846324418856 9.102973023361494 L 1419.9827024259846 9.120435606582474 L 1420.1803762195975 9.138792686618187 L 1420.3776340555096 9.158042427775927 L 1420.574456208102 9.178182905097621 L 1420.770822995323 9.199212104552322 L 1420.9667147806579 9.221127923237606 L 1421.162111975091 9.243928169589871 L 1421.356995039066 9.267610563603478 L 1421.551344484439 9.292172737058763 L 1421.745140876427 9.317612233758847 L 1421.9383648355529 9.343926509775264 L 1422.1309970395812 9.371112933702335 L 1422.3230182254524 9.399168786920328 L 1422.5144091912077 9.428091263867296 L 1422.7051507979102 9.45787747231965 L 1422.8952239715582 9.488524433681365 L 1423.0846097049923 9.520029083281843 L 1423.2732890597977 9.55238827068238 L 1423.4612431681956 9.585598759991202 L 1423.6484532349318 9.619657230187048 L 1423.834900539156 9.654560275451288 L 1424.020566436293 9.690304405508478 L 1424.2054323599075 9.726886045975398 L 1424.3894798235617 9.764301538718486 L 1424.5726904226622 9.802547142219648 L 1424.7550458363019 9.841619031950406 L 1424.9365278290913 9.881513300754346 L 1425.1171182529827 9.92222595923783 L 1425.296799049084 9.963752936168941 L 1425.4755522494652 10.00609007888459 L 1425.6533599789552 10.049233153705785 L 1425.8302044569293 10.093177846360998 L 1426.0060679990872 10.137919762417582 L 1426.1809330192214 10.18345442772122 L 1426.354782030975 10.229777288843323 L 1426.527597649592 10.276883713536382 L 1426.699362593655 10.324768991197185 L 1426.870059686812 10.373428333337866 L 1427.0396718594964 10.422856874064767 L 1427.2081821506322 10.473049670564997 L 1427.3755737093304 10.52400170360074 L 1427.541829796575 10.575707878011151 L 1427.706933786896 10.628163023221877 L 1427.8708691700313 10.681361893762105 L 1428.0336195525795 10.73529916978912 L 1428.195168659638 10.789969457620263 L 1428.355500336431 10.84536729027231 L 1428.5145985499241 10.90148712800816 L 1428.6724473904285 10.958323358890807 L 1428.8290310731918 11.015870299344526 L 1428.9843339399763 11.074122194723225 L 1429.1383404606245 11.133073219885913 L 1429.2910352346128 11.192717479779198 L 1429.442402992591 11.253049010026789 L 1429.5924285979097 11.314061777525946 L 1429.7410970481333 11.375749681050758 L 1429.8883934765402 11.43810655186228 L 1430.0343031536108 11.501126154325393 L 1430.178811488499 11.564802186532368 L 1430.3219040304914 11.629128280933049 L 1430.4635664704533 11.6940980049716 L 1430.6037846422585 11.759704861729757 L 1430.742544524207 11.825942290576517 L 1430.8798322404261 11.892803667824193 L 1431.0156340622586 11.96028230739078 L 1431.1499364096353 12.02837146146855 L 1431.2827258524337 12.097064321198838 L 1431.41398911182 12.166354017352914 L 1431.5437130615776 12.236233621018904 L 1431.6718847294196 12.306696144294676 L 1431.7984912982863 12.377734540986618 L 1431.923520107626 12.449341707314261 L 1432.0469586546621 12.521510482620645 L 1432.1687945956428 12.594233650088377 L 1432.2890157470754 12.667503937461316 L 1432.407610086945 12.741314017771781 L 1432.5245657559165 12.815656510073252 L 1432.6398710585204 12.890523980178447 L 1432.7535144643227 12.965908941402748 L 1432.8654846090772 13.04180385531285 L 1432.975770295863 13.11820113248061 L 1433.0843604962033 13.195093133241976 L 1433.1912443511683 13.272472168460947 L 1433.2964111724618 13.350330500298481 L 1433.3998504434894 13.42866034298628 L 1433.50155182041 13.507453863605349 L 1433.6015051331708 13.586703182869286 L 1433.6997003865238 13.666400375912204 L 1433.7961277610252 13.746537473081217 L 1433.8907776140184 13.827106460733386 L 1433.9836404805965 13.908099282037085 L 1434.0747070745506 13.989507837777682 L 1434.163968289297 14.071323987167439 L 1434.2514151987887 14.1535395486596 L 1434.3370390584075 14.236146300766524 L 1434.4208313058389 14.319135982881845 L 1434.5027835619278 14.402500296106505 L 1434.5828876315172 14.486230904078653 L 1434.6611355042667 14.570319433807267 L 1434.7375193554542 14.654757476509447 L 1434.8120315467584 14.739536588451287 L 1434.8846646270222 14.824648291792245 L 1434.955411332998 14.910084075432911 L 1435.0242645900742 14.995835395866116 L 1435.0912175129824 15.081893678031278 L 1435.1562634064862 15.168250316171896 L 1435.2193957660506 15.254896674696116 L 1435.2806082784919 15.341824089040294 L 1435.3398948226102 15.429023866535433 L 1435.3972494698003 15.516487287276451 L 1435.4526664846453 15.604205604994158 L 1435.50614032549 15.692170047929883 L 1435.5576656449948 15.780371819712634 L 1435.6072372906708 15.868802100238737 L 1435.6548503053943 15.957452046553826 L 1435.7004999279043 16.046312793737147 L 1435.7441815932757 16.135375455788033 L 1435.785890933379 16.2246311265145 L 1435.8256237773148 16.314070880423845 L 1435.8633761518315 16.40368577361522 L 1435.8991442817237 16.49346684467398 L 1435.9329245902077 16.583405115567835 L 1435.964713699281 16.67349159254465 L 1435.994508430059 16.763717267031794 L 1436.022305803094 16.85407311653701 L 1436.0481030386713 16.944550105550636 L 1436.071897557089 17.03513918644918 L 1436.0936869789152 17.12583130040003 L 1436.1134691252257 17.216617378267376 L 1436.1312420178224 17.307488341519083 L 1436.147003879431 17.398435103134553 L 1436.1607531338782 17.48944856851341 L 1436.1724884062503 17.580519636384963 L 1436.1822085230297 17.67163919971832 L 1436.189912512213 17.762798146633074 L 1436.1955996034071 17.8539873613105 L 1436.1992692279084 17.945197724905128 L 1436.200921018757 18.0364201164566 M 1436.2010233949584 47.09187800570001 L 1436.2000143904245 47.18310231293715 L 1436.1969874777224 47.27431749781959 L 1436.191942959541 47.365514438904846 L 1436.1848813403278 47.45668401657481 L 1436.1758033262388 47.547817113947694 L 1436.1647098250678 47.638904617789706 L 1436.1516019461558 47.729937419426356 L 1436.1364810002797 47.82090641565335 L 1436.1193484995215 47.91180250964687 L 1436.100206157117 48.002616611873265 L 1436.0790558872845 48.09333964099798 L 1436.0558998050335 48.18396252479373 L 1436.0307402259527 48.27447620104763 L 1436.003579665979 48.36487161846748 L 1435.9744208411462 48.45513973758689 L 1435.943266667312 48.54527153166916 L 1435.9101202598679 48.63525798760998 L 1435.8749849334272 48.72509010683876 L 1435.8378642014932 48.81475890621844 L 1435.798761776108 48.90425541894379 L 1435.7576815674818 48.99357069543812 L 1435.714627683601 49.082695804248225 L 1435.6696044298185 49.17162183293748 L 1435.6226163084218 49.26033988897713 L 1435.573668018184 49.34884110063549 L 1435.5227644538932 49.43711661786516 L 1435.4699107058634 49.525157613187965 L 1435.4151120594256 49.61295528257775 L 1435.3583739943988 49.70050084634074 L 1435.299702184542 49.78778554999351 L 1435.2391024969872 49.87480066513843 L 1435.176580991653 49.961537490336504 L 1435.1121439206377 50.04798735197749 L 1435.0457977275946 50.134141605147256 L 1434.9775490470877 50.2199916344923 L 1434.9074047039283 50.305528855081214 L 1434.8353717124921 50.39074471326322 L 1434.7614572760185 50.47563068752352 L 1434.6856687858894 50.56017828933542 L 1434.6080138208906 50.64437906400919 L 1434.528500146454 50.72822459153755 L 1434.4471357138807 50.8117064874376 L 1434.363928659546 50.894816403589324 L 1434.2788873040863 50.97754602907036 L 1434.192020151566 51.059887090987104 L 1434.1033358886282 51.14183135530199 L 1434.0128433836253 51.22337062765686 L 1433.920551685732 51.304496754192435 L 1433.8264700240418 51.38520162236367 L 1433.730607806642 51.46547716175098 L 1433.6329746196745 51.545315344867355 L 1433.5335802263767 51.62470818796099 L 1433.4324345661053 51.70364775181375 L 1433.3295477533416 51.78212614253502 L 1433.2249300766816 51.86013551235114 L 1433.1185919978057 51.93766806039013 L 1433.0105441504327 52.014716033461795 L 1432.900797339258 52.09127172683303 L 1432.7893625388706 52.1673274849983 L 1432.6762508926583 52.242875702445176 L 1432.561473711691 52.31790882441486 L 1432.4450424735912 52.39241934765768 L 1432.3269688213861 52.4663998211834 L 1432.2072645623418 52.539842847006334 L 1432.0859416667852 52.612741080885094 L 1431.9630122669043 52.68508723305703 L 1431.8384886555368 52.756874068967235 L 1431.71238328494 52.82809440999192 L 1431.5847087655459 52.89874113415634 L 1431.4554778647002 52.96880717684695 L 1431.324703505385 53.03828553151787 L 1431.1923987649275 53.107169250391536 L 1431.0585768736912 53.175451445153456 L 1430.923251213754 53.243125287641064 L 1430.786435317569 53.31018401052649 L 1430.6481428666118 53.37662090799334 L 1430.5083876900123 53.44242933640724 L 1430.3671837631719 53.507602714980166 L 1430.224545206365 53.572134526428584 L 1430.080486283329 53.63601831762513 L 1429.935021399836 53.699247700243916 L 1429.788165102253 53.76181635139937 L 1429.6399320760875 53.82371801427851 L 1429.4903371445187 53.884946498766645 L 1429.3393952669146 53.945495682066344 L 1429.1871215373378 54.00535950930974 L 1429.033531183034 54.064531994163985 L 1428.8786395629108 54.123007219429915 L 1428.722462166001 54.18077933763372 L 1428.5650146099142 54.237842571611736 L 1428.4063126392748 54.294191215088105 L 1428.2463721241477 54.349819633245446 L 1428.085209058451 54.4047222632883 L 1427.922839558357 54.45889361499941 L 1427.7592798606804 54.512328271288744 L 1427.594546321255 54.56502088873521 L 1427.4286554132968 54.61696619812098 L 1427.2616237257587 54.66815900495838 L 1427.0934679616705 54.718594190009405 L 1426.9242049364682 54.76826670979758 L 1426.753851576313 54.817171597112306 L 1426.5824249163998 54.865303961505624 L 1426.4099420992509 54.912658989781185 L 1426.2364203730044 54.95923194647564 L 1426.0618770896888 55.00501817433212 L 1425.8863297034868 55.050013094766 L 1425.7097957689903 55.09421220832273 L 1425.5322929394463 55.137611095127795 L 1425.353838964989 55.180205415328665 L 1425.1744516908682 55.22199090952882 L 1424.994149055661 55.26296339921367 L 1424.812949089481 55.30311878716838 L 1424.6308699121735 55.342453057887624 L 1424.447929731505 55.3809622779771 L 1424.2641468413408 55.418642596546896 L 1424.0795396198168 55.45549024559656 L 1423.8941265275014 55.49150154039188 L 1423.7079261055492 55.5266728798334 L 1423.5209569738472 55.56100074681648 L 1423.333237829153 55.594481708583025 L 1423.1447874432245 55.627112417064765 L 1422.955624660943 55.658889609218036 L 1422.7657683984296 55.689810107350105 L 1422.575237641152 55.719870819436935 L 1422.3840514420272 55.74906873943235 L 1422.1922289195156 55.77740094756871 L 1421.99978925571 55.80486461064878 L 1421.8067516944163 55.83145698232916 L 1421.6131355392297 55.857175403394834 L 1421.4189601516043 55.88201730202513 L 1421.2242449489172 55.90598019405088 L 1421.0290094025263 55.92906168320286 L 1420.8332730358234 55.95125946135139 L 1420.6370554222824 55.972571308737145 L 1420.4403761835008 55.99299509419315 L 1420.243254987239 56.01252877535787 L 1420.045711545452 56.03117039887948 L 1419.8477656123193 56.04891810061116 L 1419.6494369822694 56.065770105797526 L 1419.4507454880004 56.081724729252095 L 1419.2517109984956 56.096780375525825 L 1419.0523534170381 56.11093553906663 L 1418.8526926792204 56.12418880436996 L 1418.6527487509495 56.13653884612032 L 1418.4525416264516 56.14798442932383 L 1418.2520913262726 56.158524409431706 L 1418.051417895275 56.16815773245473 L 1417.8505414006354 56.17688343506861 L 1417.6494819298352 56.184700644710375 L 1417.4482595886543 56.19160857966556 L 1417.246894499159 56.197606549146435 L 1417.0454067976902 56.20269395336105 L 1416.8438166328506 56.20687028357321 L 1416.6421441634886 56.21013512215339 L 1416.4404095566827 56.212488142620444 L 1416.2386329857259 56.2139291096743 L 1416.0368346281068 56.21445787921943 L 1415.8350346634934 56.21407439837934 L 1415.6332532717138 56.21277870550178 L 1415.4315106307388 56.21057093015497 L 1415.2298269146647 56.2074512931146 L 1415.0282222916949 56.203420106341774 L 1414.8267169221235 56.19847777295181 L 1414.62533095632 56.192624787173926 L 1414.4240845327129 56.18586173430183 L 1414.2229977757768 56.17818929063517 L 1414.02209079402 56.16960822341191 L 1413.8213836779728 56.16011939073163 L 1413.6208964981802 56.14972374146969 L 1413.4206493031927 56.13842231518235 L 1413.220662117563 56.12621624200283 L 1413.020954939843 56.113106742528274 L 1412.8215477405843 56.099095127697694 L 1412.62246046034 56.084182798660905 L 1412.423713007673 56.06837124663838 L 1412.2253252571627 56.051662052772144 L 1412.0273170474184 56.034056887967665 L 1411.8297081790965 56.01555751272676 L 1411.6325184129191 55.996165776971516 L 1411.4357674676985 55.97588361985936 L 1411.239475018365 55.954713069589104 L 1411.0436606940004 55.93265624319813 L 1410.8483440758737 55.9097153463507 L 1410.6535446954838 55.885892673117375 L 1410.4592820326066 55.861190605745634 L 1410.2655755133467 55.835611614421616 L 1410.0724445081942 55.80915825702316 L 1409.879908330089 55.781833178863934 L 1409.6879862324881 55.753639112429 L 1409.4966974074416 55.72457887710151 L 1409.3060609836725 55.69465537888076 L 1409.1160960246646 55.66387161009166 L 1408.9268215267552 55.63223064908542 L 1408.7382564172362 55.59973565993178 L 1408.5504195524618 55.56638989210258 L 1408.363329715962 55.5321966801468 L 1408.177005616564 55.497159443357155 L 1407.991465886523 55.46128168542812 L 1407.8067290796569 55.4245669941056 L 1407.6228136694929 55.387019040828115 L 1407.4397380474186 55.34864158035972 L 1407.2575205208436 55.30943845041446 L 1407.0761793113688 55.269413571272686 L 1406.8957325529639 55.22857094538894 L 1406.7161982901544 55.18691465699178 L 1406.537594476217 55.14444887167533 L 1406.3599389713843 55.10117783598274 L 1406.1832495410588 55.05710587698152 L 1406.007543854036 55.01223740183083 L 1405.8328394807384 54.96657689734081 L 1405.659153891458 54.92012892952385 L 1405.4865044546084 54.87289814313803 L 1405.3149084349898 54.82488926122262 L 1405.1443829920609 54.77610708462583 L 1404.9749451782243 54.72655649152463 L 1404.80661193712 54.67624243693707 L 1404.6394001019314 54.62516995222667 L 1404.4733263937035 54.57334414459934 L 1404.3084074196681 54.52077019659265 L 1404.1446596715853 54.467453365557596 L 1403.9820995240937 54.41339898313285 L 1403.8207432330723 54.358612454711604 L 1403.6606069340157 54.30309925890105 L 1403.5017066404207 54.24686494697451 L 1403.344058242184 54.18991514231631 L 1403.1876775040141 54.13225553985946 L 1403.0325800638545 54.073891905516156 L 1402.8787814313198 54.014830075601196 L 1402.7262969861454 53.95507595624835 L 1402.5751419766486 53.89463552281976 L 1402.4253315182043 53.83351481930841 L 1402.2768805917337 53.77171995773371 L 1402.1298040422055 53.70925711753032 L 1401.9841165771522 53.64613254493022 L 1401.8398327651992 53.582352552338044 L 1401.6969670346068 53.51792351769993 L 1401.5555336718296 53.45285188386562 L 1401.4155468200856 53.3871441579443 L 1401.2770204779438 53.320806910653786 L 1401.1399684979224 53.25384677566353 L 1401.0044045851057 53.186270448931246 L 1400.8703422957717 53.11808468803328 L 1400.7377950360376 53.049296311488895 L 1400.6067760605192 52.97991219807844 L 1400.4772984710046 52.909939286155414 L 1400.349375215145 52.83938457295272 L 1400.2230190851594 52.76825511388287 L 1400.0982427165552 52.6965580218325 L 1399.9750585868658 52.62430046645107 L 1399.853479014401 52.5514896734339 L 1399.7335161570172 52.47813292379962 L 1399.6151820108996 52.40423755316206 L 1399.4984884093649 52.3298109509967 L 1399.3834470216755 52.25486055990175 L 1399.2700693518743 52.179393874853844 L 1399.158366737634 52.103418442458604 L 1399.048350349123 52.02694186019596 L 1398.9400311878883 51.94997177566041 L 1398.8334200857557 51.87251588579626 L 1398.728527703747 51.79458193612795 L 1398.6253645310123 51.7161777199855 L 1398.5239408837836 51.6373110777252 L 1398.4242669043404 51.55798989594554 L 1398.3263525599982 51.47822210669861 L 1398.2302076421097 51.398015686696844 L 1398.1358417650863 51.31737865651542 L 1398.0432643654372 51.23631907979016 L 1397.9524847008254 51.15484506241117 L 1397.8635118491413 51.072964751712306 L 1397.7763547075965 50.990686335656406 L 1397.691021991832 50.9080180420165 L 1397.6075222350487 50.82496813755307 L 1397.5258637871523 50.74154492718736 L 1397.4460548139198 50.65775675317087 L 1397.368103296182 50.573611994251195 L 1397.2920170290254 50.4891190648341 L 1397.2178036210137 50.40428641414212 L 1397.1454704934256 50.31912252536962 L 1397.0750248795139 50.233635914834515 L 1397.0064738237809 50.14783513112663 L 1396.9398241812753 50.06172875425281 L 1396.8750826169057 49.975325394779006 L 1396.8122556047747 49.888633692969165 L 1396.751349427531 49.80166231792121 L 1396.6923701757419 49.71441996670019 L 1396.6353237472829 49.626915363468505 L 1396.5802158467498 49.53915725861357 L 1396.5270519848862 49.45115442787274 L 1396.4758374780345 49.362915671455745 L 1396.4265774476025 49.27444981316471 L 1396.3792768195522 49.18576569951172 L 1396.333940323907 49.09687219883425 L 1396.2905724942786 49.007778200408296 L 1396.249177667414 48.918492613559444 L 1396.2097599827612 48.82902436677198 L 1396.172323382056 48.73938240679603 L 1396.136871608927 48.64957569775289 L 1396.1034082085223 48.55961322023861 L 1396.0719365271539 48.46950397042599 L 1396.0424597119636 48.37925695916492 L 1396.0149807106086 48.28888121108131 L 1395.9895022709659 48.198385763674665 L 1395.9660269408585 48.1077796664143 L 1395.9445570677995 48.017071979834455 L 1395.9250947987587 47.92627177462819 L 1395.9076420799463 47.835388130740355 L 1395.8922006566202 47.744430136459606 L 1395.8787720729094 47.65340688750957 L 1395.8673576716612 47.562327486139296 L 1395.8579585943064 47.47120104021301 L 1395.850575780745 47.38003666229938 L 1395.8452099692518 47.28884346876023 L 1395.8418616964036 47.1976305788389 L 1395.8405312970249 47.10640711374838" stroke-miterlimit="10" stroke-width="2.3497561670000002" stroke-dasharray=""/></g><g><g/><text fill="black" stroke="none" font-family="sans-serif" font-size="8pt" font-style="normal" font-weight="normal" text-decoration="normal" x="1392.4765750958334" y="71.045568814" text-anchor="start" dominant-baseline="alphabetic" xml:space="preserve">Database</text></g></g><g><path fill="white" stroke="black" paint-order="fill stroke markers" d=" M 219.774611615625 120.80511117400002 L 233.596706715625 120.80511117400002 L 233.596706715625 1363.6326141856005 L 219.774611615625 1363.6326141856005 L 219.774611615625 120.80511117400002" stroke-miterlimit="10" stroke-width="1.1518412583333333" stroke-dasharray=""/><path fill="white" stroke="black" paint-order="fill stroke markers" d=" M 70.97714117083332 202.90835606800002 L 84.79923627083333 202.90835606800002 L 84.79923627083333 241.61022234800004 L 70.97714117083332 241.61022234800004 L 70.97714117083332 202.90835606800002" stroke-miterlimit="10" stroke-width="1.1518412583333333" stroke-dasharray=""/><path fill="white" stroke="black" paint-order="fill stroke markers" d=" M 70.97714117083332 280.312088628 L 84.79923627083333 280.312088628 L 84.79923627083333 396.417687468 L 70.97714117083332 396.417687468 L 70.97714117083332 280.312088628" stroke-miterlimit="10" stroke-width="1.1518412583333333" stroke-dasharray=""/><path fill="white" stroke="black" paint-order="fill stroke markers" d=" M 11.21484375 319.013954908 L 25.03693885 319.013954908 L 25.03693885 357.715821188 L 11.21484375 357.715821188 L 11.21484375 319.013954908" stroke-miterlimit="10" stroke-width="1.1518412583333333" stroke-dasharray=""/><path fill="white" stroke="black" paint-order="fill stroke markers" d=" M 523.3412839072917 435.119553748 L 537.1633790072917 435.119553748 L 537.1633790072917 1324.9307479056004 L 523.3412839072917 1324.9307479056004 L 523.3412839072917 435.119553748" stroke-miterlimit="10" stroke-width="1.1518412583333333" stroke-dasharray=""/><path fill="white" stroke="black" paint-order="fill stroke markers" d=" M 928.4840143906249 588.544809358 L 942.306109490625 588.544809358 L 942.306109490625 1018.0802366855999 L 928.4840143906249 1018.0802366855999 L 928.4840143906249 588.544809358" stroke-miterlimit="10" stroke-width="1.1518412583333333" stroke-dasharray=""/><path fill="white" stroke="black" paint-order="fill stroke markers" d=" M 1225.1396391322917 627.2466756379999 L 1238.9617342322915 627.2466756379999 L 1238.9617342322915 979.3783704055999 L 1225.1396391322917 979.3783704055999 L 1225.1396391322917 627.2466756379999" stroke-miterlimit="10" stroke-width="1.1518412583333333" stroke-dasharray=""/><path fill="white" stroke="black" paint-order="fill stroke markers" d=" M 1232.0506866822916 722.6191318279999 L 1245.8727817822914 722.6191318279999 L 1245.8727817822914 800.0228643879999 L 1232.0506866822916 800.0228643879999 L 1232.0506866822916 722.6191318279999" stroke-miterlimit="10" stroke-width="1.1518412583333333" stroke-dasharray=""/><path fill="white" stroke="black" paint-order="fill stroke markers" d=" M 1583.5659501951668 901.9746378455999 L 1597.3880452951666 901.9746378455999 L 1597.3880452951666 940.6765041255999 L 1583.5659501951668 940.6765041255999 L 1583.5659501951668 901.9746378455999" stroke-miterlimit="10" stroke-width="1.1518412583333333" stroke-dasharray=""/><path fill="white" stroke="black" paint-order="fill stroke markers" d=" M 530.2523314572917 1074.7508265955998 L 544.0744265572918 1074.7508265955998 L 544.0744265572918 1268.2601579956004 L 530.2523314572917 1268.2601579956004 L 530.2523314572917 1074.7508265955998" stroke-miterlimit="10" stroke-width="1.1518412583333333" stroke-dasharray=""/><path fill="white" stroke="black" paint-order="fill stroke markers" d=" M 226.685659165625 1113.4526928756 L 240.507754265625 1113.4526928756 L 240.507754265625 1229.5582917156003 L 226.685659165625 1229.5582917156003 L 226.685659165625 1113.4526928756" stroke-miterlimit="10" stroke-width="1.1518412583333333" stroke-dasharray=""/><path fill="white" stroke="black" paint-order="fill stroke markers" d=" M 537.1633790072916 1152.1545591556 L 550.9854741072917 1152.1545591556 L 550.9854741072917 1190.8564254356002 L 537.1633790072916 1190.8564254356002 L 537.1633790072916 1152.1545591556" stroke-miterlimit="10" stroke-width="1.1518412583333333" stroke-dasharray=""/><g><g><rect fill="white" stroke="none" x="89.3661950053125" y="102.83638754400002" width="59.168112905" height="17.96872363"/></g><text fill="black" stroke="none" font-family="sans-serif" font-size="8pt" font-style="normal" font-weight="normal" text-decoration="normal" x="91.4395092703125" y="115.27627313400002" text-anchor="start" dominant-baseline="alphabetic" xml:space="preserve">addMovie()</text></g><g><path fill="none" stroke="black" paint-order="fill stroke markers" d=" M 18.1258913 120.80511117400002 L 208.39441998329167 120.80511117400002" stroke-miterlimit="10" stroke-width="1.1518412583333333" stroke-dasharray=""/><g transform="translate(219.774611615625,120.80511117400002) translate(-219.774611615625,-120.80511117400002)"><path fill="black" stroke="none" paint-order="stroke fill markers" d=" M 208.25619903229165 115.04590488233335 L 219.774611615625 120.80511117400002 L 208.25619903229165 126.56431746566669 Z"/></g></g><g><path fill="white" stroke="black" paint-order="fill stroke markers" d=" M 105.32504749433333 162.06406504749998 A 20.5258112235 20.5258112235 0 1 1 105.32503723142858 162.04353923969742 M 51.626208030833325 140.36337574049998 L 51.626208030833325 183.76475435449998 M 50.45132994733333 162.06406504749998 L 64.27342504733333 162.06406504749998" stroke-miterlimit="10" stroke-width="2.3497561670000002" stroke-dasharray=""/></g><g><g/><text fill="black" stroke="none" font-family="sans-serif" font-size="8pt" font-style="normal" font-weight="normal" text-decoration="normal" x="47.62476098645833" y="197.5868494545" text-anchor="start" dominant-baseline="alphabetic" xml:space="preserve">MovieDialog</text></g><g><g><rect fill="white" stroke="none" x="127.96328609854166" y="154.254581316" width="71.99965587375" height="17.96872363"/></g><text fill="black" stroke="none" font-family="sans-serif" font-size="8pt" font-style="normal" font-weight="normal" text-decoration="normal" x="130.03660036354165" y="166.69446690600003" text-anchor="start" dominant-baseline="alphabetic" xml:space="preserve">MovieDialog()</text></g><g><path fill="none" stroke="black" paint-order="fill stroke markers" d=" M 219.774611615625 172.223304946 L 119.53180808754166 172.223304946" stroke-miterlimit="10" stroke-width="1.1518412583333333" stroke-dasharray=""/><g transform="translate(108.15161645520833,172.223304946) translate(-108.15161645520833,-172.223304946)"><path fill="black" stroke="none" paint-order="stroke fill markers" d=" M 119.67002903854166 166.46409865433336 L 108.15161645520833 172.223304946 L 119.67002903854166 177.98251123766667 Z"/></g></g><g><g><rect fill="white" stroke="none" x="150.21360967822918" y="223.64149871800004" width="4.14662853" height="17.96872363"/></g><text fill="black" stroke="none" font-family="sans-serif" font-size="8pt" font-style="normal" font-weight="normal" text-decoration="normal" x="152.28692394322917" y="236.08138430800005" text-anchor="start" dominant-baseline="alphabetic" xml:space="preserve"></text></g><g><path fill="none" stroke="black" paint-order="fill stroke markers" d=" M 84.79923627083333 241.61022234800004 L 208.39441998329167 241.61022234800004" stroke-miterlimit="10" stroke-width="1.1518412583333333" stroke-dasharray="5.52883804"/><g transform="translate(219.774611615625,241.61022234800004) translate(-219.774611615625,-241.61022234800004)"><path fill="black" stroke="none" paint-order="stroke fill markers" d=" M 208.25619903229165 235.85101605633338 L 219.774611615625 241.61022234800004 L 208.25619903229165 247.3694286396667 Z"/></g></g><g><g><rect fill="white" stroke="none" x="113.12620733447918" y="262.343364998" width="78.3214332175" height="17.96872363"/></g><text fill="black" stroke="none" font-family="sans-serif" font-size="8pt" font-style="normal" font-weight="normal" text-decoration="normal" x="115.19952159947917" y="274.78325058800004" text-anchor="start" dominant-baseline="alphabetic" xml:space="preserve">showAndWait()</text></g><g><path fill="none" stroke="black" paint-order="fill stroke markers" d=" M 219.774611615625 280.312088628 L 96.17942790316667 280.312088628" stroke-miterlimit="10" stroke-width="1.1518412583333333" stroke-dasharray=""/><g transform="translate(84.79923627083333,280.312088628) translate(-84.79923627083333,-280.312088628)"><path fill="black" stroke="none" paint-order="stroke fill markers" d=" M 96.31764885416666 274.55288233633337 L 84.79923627083333 280.312088628 L 96.31764885416666 286.0712949196667 Z"/></g></g><g><g><rect fill="white" stroke="none" x="45.93372574541666" y="301.045231278" width="4.14662853" height="17.96872363"/></g><text fill="black" stroke="none" font-family="sans-serif" font-size="8pt" font-style="normal" font-weight="normal" text-decoration="normal" x="48.00704001041666" y="313.48511686800003" text-anchor="start" dominant-baseline="alphabetic" xml:space="preserve"></text></g><g><path fill="none" stroke="black" paint-order="fill stroke markers" d=" M 70.97714117083332 319.013954908 L 36.417130482333334 319.013954908" stroke-miterlimit="10" stroke-width="1.1518412583333333" stroke-dasharray=""/><g transform="translate(25.03693885,319.013954908) translate(-25.03693885,-319.013954908)"><path fill="black" stroke="none" paint-order="stroke fill markers" d=" M 36.55535143333333 313.25474861633336 L 25.03693885 319.013954908 L 36.55535143333333 324.7731611996667 Z"/></g></g><g><g><rect fill="white" stroke="none" x="45.93372574541666" y="339.747097558" width="4.14662853" height="17.96872363"/></g><text fill="black" stroke="none" font-family="sans-serif" font-size="8pt" font-style="normal" font-weight="normal" text-decoration="normal" x="48.00704001041666" y="352.186983148" text-anchor="start" dominant-baseline="alphabetic" xml:space="preserve"></text></g><g><path fill="none" stroke="black" paint-order="fill stroke markers" d=" M 25.03693885 357.715821188 L 59.596949538499985 357.715821188" stroke-miterlimit="10" stroke-width="1.1518412583333333" stroke-dasharray="5.52883804"/><g transform="translate(70.97714117083332,357.715821188) translate(-70.97714117083332,-357.715821188)"><path fill="black" stroke="none" paint-order="stroke fill markers" d=" M 59.45872858749999 351.95661489633335 L 70.97714117083332 357.715821188 L 59.45872858749999 363.47502747966666 Z"/></g></g><g><g><rect fill="white" stroke="none" x="101.30711553760418" y="378.448963838" width="101.95961681125" height="17.96872363"/></g><text fill="black" stroke="none" font-family="sans-serif" font-size="8pt" font-style="normal" font-weight="normal" text-decoration="normal" x="103.38042980260417" y="390.888849428" text-anchor="start" dominant-baseline="alphabetic" xml:space="preserve">returnm:MovieInfo</text></g><g><path fill="none" stroke="black" paint-order="fill stroke markers" d=" M 84.79923627083333 396.417687468 L 208.39441998329167 396.417687468" stroke-miterlimit="10" stroke-width="1.1518412583333333" stroke-dasharray=""/><g transform="translate(219.774611615625,396.417687468) translate(-219.774611615625,-396.417687468)"><path fill="black" stroke="none" paint-order="stroke fill markers" d=" M 208.25619903229165 390.65848117633334 L 219.774611615625 396.417687468 L 208.25619903229165 402.17689375966665 Z"/></g></g><g><g><rect fill="white" stroke="none" x="253.40837635895835" y="417.150830118" width="250.121237905" height="17.96872363"/></g><text fill="black" stroke="none" font-family="sans-serif" font-size="8pt" font-style="normal" font-weight="normal" text-decoration="normal" x="255.48169062395834" y="429.590715708" text-anchor="start" dominant-baseline="alphabetic" xml:space="preserve">addMovie(title:String,runningTime:int,year:int)</text></g><g><path fill="none" stroke="black" paint-order="fill stroke markers" d=" M 233.596706715625 435.119553748 L 511.96109227495833 435.119553748" stroke-miterlimit="10" stroke-width="1.1518412583333333" stroke-dasharray=""/><g transform="translate(523.3412839072917,435.119553748) translate(-523.3412839072917,-435.119553748)"><path fill="black" stroke="none" paint-order="stroke fill markers" d=" M 511.82287132395834 429.36034745633333 L 523.3412839072917 435.119553748 L 511.82287132395834 440.87876003966664 Z"/></g></g><g><g><rect fill="white" stroke="none" x="553.519524875625" y="493.172353168" width="342.48256603" height="17.96872363"/></g><text fill="black" stroke="none" font-family="sans-serif" font-size="8pt" font-style="normal" font-weight="normal" text-decoration="normal" x="555.5928391406251" y="505.612238758" text-anchor="start" dominant-baseline="alphabetic" xml:space="preserve">checkDoubleAdded(title:String,runningTime:Integer,year:Integer)</text></g><g><path fill="none" stroke="black" paint-order="fill stroke markers" d=" M 537.1633790072917 511.141076798 L 592.4517594072918 511.141076798 L 592.4517594072918 529.109800428 L 548.543570639625 529.109800428" stroke-miterlimit="10" stroke-width="1.1518412583333333" stroke-dasharray=""/><g transform="translate(537.1633790072917,529.109800428) translate(-537.1633790072917,-529.109800428)"><path fill="black" stroke="none" paint-order="stroke fill markers" d=" M 548.681791590625 523.3505941363333 L 537.1633790072917 529.109800428 L 548.681791590625 534.8690067196667 Z"/></g></g><g><g><rect fill="white" stroke="none" x="607.7630777464583" y="570.576085728" width="250.121237905" height="17.96872363"/></g><text fill="black" stroke="none" font-family="sans-serif" font-size="8pt" font-style="normal" font-weight="normal" text-decoration="normal" x="609.8363920114583" y="583.0159713179999" text-anchor="start" dominant-baseline="alphabetic" xml:space="preserve">addMovie(title:String,runningTime:int,year:int)</text></g><g><path fill="none" stroke="black" paint-order="fill stroke markers" d=" M 537.1633790072917 588.544809358 L 917.1038227582916 588.544809358" stroke-miterlimit="10" stroke-width="1.1518412583333333" stroke-dasharray=""/><g transform="translate(928.4840143906249,588.544809358) translate(-928.4840143906249,-588.544809358)"><path fill="black" stroke="none" paint-order="stroke fill markers" d=" M 916.9656018072916 582.7856030663332 L 928.4840143906249 588.544809358 L 916.9656018072916 594.3040156496667 Z"/></g></g><g><g><rect fill="white" stroke="none" x="958.6622553589583" y="609.2779520079999" width="250.121237905" height="17.96872363"/></g><text fill="black" stroke="none" font-family="sans-serif" font-size="8pt" font-style="normal" font-weight="normal" text-decoration="normal" x="960.7355696239583" y="621.7178375979998" text-anchor="start" dominant-baseline="alphabetic" xml:space="preserve">addMovie(title:String,runningTime:int,year:int)</text></g><g><path fill="none" stroke="black" paint-order="fill stroke markers" d=" M 942.306109490625 627.2466756379999 L 1213.7594474999582 627.2466756379999" stroke-miterlimit="10" stroke-width="1.1518412583333333" stroke-dasharray=""/><g transform="translate(1225.1396391322917,627.2466756379999) translate(-1225.1396391322917,-627.2466756379999)"><path fill="black" stroke="none" paint-order="stroke fill markers" d=" M 1213.6212265489582 621.4874693463332 L 1225.1396391322917 627.2466756379999 L 1213.6212265489582 633.0058819296667 Z"/></g></g><g><g><rect fill="white" stroke="none" x="1294.386440985" y="647.9798182879999" width="66.20961681125" height="17.96872363"/></g><text fill="black" stroke="none" font-family="sans-serif" font-size="8pt" font-style="normal" font-weight="normal" text-decoration="normal" x="1296.45975525" y="660.4197038779998" text-anchor="start" dominant-baseline="alphabetic" xml:space="preserve">oid:=getId()</text></g><g><path fill="none" stroke="black" paint-order="fill stroke markers" d=" M 1238.9617342322915 665.9485419179999 L 1404.640572916625 665.9485419179999" stroke-miterlimit="10" stroke-width="1.1518412583333333" stroke-dasharray=""/><g transform="translate(1416.0207645489584,665.9485419179999) translate(-1416.0207645489584,-665.9485419179999)"><path fill="black" stroke="none" paint-order="stroke fill markers" d=" M 1404.502351965625 660.1893356263332 L 1416.0207645489584 665.9485419179999 L 1404.502351965625 671.7077482096666 Z"/></g></g><g><g><rect fill="white" stroke="none" x="1262.228927650625" y="686.6816845679999" width="136.80727306125" height="17.96872363"/></g><text fill="black" stroke="none" font-family="sans-serif" font-size="8pt" font-style="normal" font-weight="normal" text-decoration="normal" x="1264.302241915625" y="699.1215701579998" text-anchor="start" dominant-baseline="alphabetic" xml:space="preserve">performUpdate(sql:String)</text></g><g><path fill="none" stroke="black" paint-order="fill stroke markers" d=" M 1238.9617342322915 704.6504081979999 L 1301.1611621822917 704.6504081979999 L 1301.1611621822917 722.6191318279999 L 1257.252973414625 722.6191318279999" stroke-miterlimit="10" stroke-width="1.1518412583333333" stroke-dasharray=""/><g transform="translate(1245.8727817822917,722.6191318279999) translate(-1245.8727817822917,-722.6191318279999)"><path fill="black" stroke="none" paint-order="stroke fill markers" d=" M 1257.391194365625 716.8599255363332 L 1245.8727817822917 722.6191318279999 L 1257.391194365625 728.3783381196666 Z"/></g></g><g><g><rect fill="white" stroke="none" x="1262.228927650625" y="743.3522744779999" width="137.43569103" height="17.96872363"/></g><text fill="black" stroke="none" font-family="sans-serif" font-size="8pt" font-style="normal" font-weight="normal" text-decoration="normal" x="1264.302241915625" y="755.7921600679998" text-anchor="start" dominant-baseline="alphabetic" xml:space="preserve">executeUpdate(sql:String)</text></g><g><path fill="none" stroke="black" paint-order="fill stroke markers" d=" M 1245.8727817822917 761.3209981079999 L 1404.640572916625 761.3209981079999" stroke-miterlimit="10" stroke-width="1.1518412583333333" stroke-dasharray=""/><g transform="translate(1416.0207645489584,761.3209981079999) translate(-1416.0207645489584,-761.3209981079999)"><path fill="black" stroke="none" paint-order="stroke fill markers" d=" M 1404.502351965625 755.5617918163332 L 1416.0207645489584 761.3209981079999 L 1404.502351965625 767.0802043996666 Z"/></g></g><g><g><rect fill="white" stroke="none" x="1262.228927650625" y="782.0541407579999" width="4.14662853" height="17.96872363"/></g><text fill="black" stroke="none" font-family="sans-serif" font-size="8pt" font-style="normal" font-weight="normal" text-decoration="normal" x="1264.302241915625" y="794.4940263479998" text-anchor="start" dominant-baseline="alphabetic" xml:space="preserve"></text></g><g><path fill="none" stroke="black" paint-order="fill stroke markers" d=" M 1245.8727817822917 800.0228643879999 L 1301.1611621822917 800.0228643879999 L 1301.1611621822917 817.9915880179999 L 1250.3419258646252 817.9915880179999" stroke-miterlimit="10" stroke-width="1.1518412583333333" stroke-dasharray="5.52883804"/><g transform="translate(1238.9617342322917,817.9915880179999) translate(-1238.9617342322917,-817.9915880179999)"><path fill="black" stroke="none" paint-order="stroke fill markers" d=" M 1250.4801468156252 812.2323817263332 L 1238.9617342322917 817.9915880179999 L 1250.4801468156252 823.7507943096666 Z"/></g></g><g><path fill="white" stroke="black" paint-order="fill stroke markers" d=" M 1611.0028089686666 859.2505418915 A 20.5258112235 20.5258112235 0 1 1 1611.002798705762 859.2300160836975 M 1568.7763084381668 881.6561580486 L 1612.1776870521667 881.6561580486" stroke-miterlimit="10" stroke-width="2.3497561670000002" stroke-dasharray=""/></g><g><g/><text fill="black" stroke="none" font-family="sans-serif" font-size="8pt" font-style="normal" font-weight="normal" text-decoration="normal" x="1575.8058551670417" y="896.6531312320999" text-anchor="start" dominant-baseline="alphabetic" xml:space="preserve">Movie</text></g><g><g><rect fill="white" stroke="none" x="1263.5303262108544" y="852.3809606267998" width="280.67739024875" height="17.96872363"/></g><text fill="black" stroke="none" font-family="sans-serif" font-size="8pt" font-style="normal" font-weight="normal" text-decoration="normal" x="1265.6036404758543" y="864.8208462167997" text-anchor="start" dominant-baseline="alphabetic" xml:space="preserve">PersistentMovie(title:String,runningTime:int,year:int)</text></g><g><path fill="none" stroke="black" paint-order="fill stroke markers" d=" M 1238.9617342322915 870.3496842567998 L 1557.3961168058333 870.3496842567998" stroke-miterlimit="10" stroke-width="1.1518412583333333" stroke-dasharray=""/><g transform="translate(1568.7763084381668,870.3496842567998) translate(-1568.7763084381668,-870.3496842567998)"><path fill="black" stroke="none" paint-order="stroke fill markers" d=" M 1557.2578958548334 864.5904779651331 L 1568.7763084381668 870.3496842567998 L 1557.2578958548334 876.1088905484665 Z"/></g></g><g><g><rect fill="white" stroke="none" x="1409.1905279487294" y="922.7077804955999" width="4.14662853" height="17.96872363"/></g><text fill="black" stroke="none" font-family="sans-serif" font-size="8pt" font-style="normal" font-weight="normal" text-decoration="normal" x="1411.2638422137293" y="935.1476660855998" text-anchor="start" dominant-baseline="alphabetic" xml:space="preserve"></text></g><g><path fill="none" stroke="black" paint-order="fill stroke markers" d=" M 1583.5659501951668 940.6765041255999 L 1250.341925864625 940.6765041255999" stroke-miterlimit="10" stroke-width="1.1518412583333333" stroke-dasharray="5.52883804"/><g transform="translate(1238.9617342322915,940.6765041255999) translate(-1238.9617342322915,-940.6765041255999)"><path fill="black" stroke="none" paint-order="stroke fill markers" d=" M 1250.480146815625 934.9172978339332 L 1238.9617342322915 940.6765041255999 L 1250.480146815625 946.4357104172666 Z"/></g></g><g><g><rect fill="white" stroke="none" x="1081.6495600464584" y="961.4096467755999" width="4.14662853" height="17.96872363"/></g><text fill="black" stroke="none" font-family="sans-serif" font-size="8pt" font-style="normal" font-weight="normal" text-decoration="normal" x="1083.7228743114583" y="973.8495323655998" text-anchor="start" dominant-baseline="alphabetic" xml:space="preserve"></text></g><g><path fill="none" stroke="black" paint-order="fill stroke markers" d=" M 1225.1396391322917 979.3783704055999 L 953.6863011229583 979.3783704055999" stroke-miterlimit="10" stroke-width="1.1518412583333333" stroke-dasharray="5.52883804"/><g transform="translate(942.306109490625,979.3783704055999) translate(-942.306109490625,-979.3783704055999)"><path fill="black" stroke="none" paint-order="stroke fill markers" d=" M 953.8245220739583 973.6191641139332 L 942.306109490625 979.3783704055999 L 953.8245220739583 985.1375766972666 Z"/></g></g><g><g><rect fill="white" stroke="none" x="730.7503824339583" y="1000.1115130555999" width="4.14662853" height="17.96872363"/></g><text fill="black" stroke="none" font-family="sans-serif" font-size="8pt" font-style="normal" font-weight="normal" text-decoration="normal" x="732.8236966989583" y="1012.5513986455998" text-anchor="start" dominant-baseline="alphabetic" xml:space="preserve"></text></g><g><path fill="none" stroke="black" paint-order="fill stroke markers" d=" M 928.4840143906249 1018.0802366855999 L 548.543570639625 1018.0802366855999" stroke-miterlimit="10" stroke-width="1.1518412583333333" stroke-dasharray="5.52883804"/><g transform="translate(537.1633790072917,1018.0802366855999) translate(-537.1633790072917,-1018.0802366855999)"><path fill="black" stroke="none" paint-order="stroke fill markers" d=" M 548.681791590625 1012.3210303939331 L 537.1633790072917 1018.0802366855999 L 548.681791590625 1023.8394429772666 Z"/></g></g><g><g><rect fill="white" stroke="none" x="560.430572425625" y="1038.8133793355998" width="88.49965587375" height="17.96872363"/></g><text fill="black" stroke="none" font-family="sans-serif" font-size="8pt" font-style="normal" font-weight="normal" text-decoration="normal" x="562.503886690625" y="1051.2532649256" text-anchor="start" dominant-baseline="alphabetic" xml:space="preserve">notifyObservers()</text></g><g><path fill="none" stroke="black" paint-order="fill stroke markers" d=" M 537.1633790072917 1056.7821029655997 L 599.3628069572917 1056.7821029655997 L 599.3628069572917 1074.7508265955998 L 555.454618189625 1074.7508265955998" stroke-miterlimit="10" stroke-width="1.1518412583333333" stroke-dasharray=""/><g transform="translate(544.0744265572916,1074.7508265955998) translate(-544.0744265572916,-1074.7508265955998)"><path fill="black" stroke="none" paint-order="stroke fill markers" d=" M 555.592839140625 1068.9916203039331 L 544.0744265572916 1074.7508265955998 L 555.592839140625 1080.5100328872666 Z"/></g></g><g><g><rect fill="white" stroke="none" x="362.82137703395836" y="1095.4839692455998" width="45.117331655" height="17.96872363"/></g><text fill="black" stroke="none" font-family="sans-serif" font-size="8pt" font-style="normal" font-weight="normal" text-decoration="normal" x="364.8946912989584" y="1107.9238548356" text-anchor="start" dominant-baseline="alphabetic" xml:space="preserve">update()</text></g><g><path fill="none" stroke="black" paint-order="fill stroke markers" d=" M 530.2523314572917 1113.4526928756 L 251.88794589795833 1113.4526928756" stroke-miterlimit="10" stroke-width="1.1518412583333333" stroke-dasharray=""/><g transform="translate(240.507754265625,1113.4526928756) translate(-240.507754265625,-1113.4526928756)"><path fill="black" stroke="none" paint-order="stroke fill markers" d=" M 252.02616684895835 1107.6934865839332 L 240.507754265625 1113.4526928756 L 252.02616684895835 1119.2118991672667 Z"/></g></g><g><g><rect fill="white" stroke="none" x="358.0322719027083" y="1134.1858355256" width="61.6065894675" height="17.96872363"/></g><text fill="black" stroke="none" font-family="sans-serif" font-size="8pt" font-style="normal" font-weight="normal" text-decoration="normal" x="360.10558616770834" y="1146.6257211156" text-anchor="start" dominant-baseline="alphabetic" xml:space="preserve">getMovies()</text></g><g><path fill="none" stroke="black" paint-order="fill stroke markers" d=" M 240.507754265625 1152.1545591556 L 525.7831873749584 1152.1545591556" stroke-miterlimit="10" stroke-width="1.1518412583333333" stroke-dasharray=""/><g transform="translate(537.1633790072917,1152.1545591556) translate(-537.1633790072917,-1152.1545591556)"><path fill="black" stroke="none" paint-order="stroke fill markers" d=" M 525.6449664239584 1146.3953528639333 L 537.1633790072917 1152.1545591556 L 525.6449664239584 1157.9137654472668 Z"/></g></g><g><g><rect fill="white" stroke="none" x="353.4453578402083" y="1172.8877018056" width="70.7804175925" height="17.96872363"/></g><text fill="black" stroke="none" font-family="sans-serif" font-size="8pt" font-style="normal" font-weight="normal" text-decoration="normal" x="355.51867210520834" y="1185.3275873956002" text-anchor="start" dominant-baseline="alphabetic" xml:space="preserve">returnmovies</text></g><g><path fill="none" stroke="black" paint-order="fill stroke markers" d=" M 537.1633790072917 1190.8564254356002 L 251.88794589795833 1190.8564254356002" stroke-miterlimit="10" stroke-width="1.1518412583333333" stroke-dasharray="5.52883804"/><g transform="translate(240.507754265625,1190.8564254356002) translate(-240.507754265625,-1190.8564254356002)"><path fill="black" stroke="none" paint-order="stroke fill markers" d=" M 252.02616684895835 1185.0972191439334 L 240.507754265625 1190.8564254356002 L 252.02616684895835 1196.6156317272669 Z"/></g></g><g><g><rect fill="white" stroke="none" x="383.30672859645836" y="1211.5895680856001" width="4.14662853" height="17.96872363"/></g><text fill="black" stroke="none" font-family="sans-serif" font-size="8pt" font-style="normal" font-weight="normal" text-decoration="normal" x="385.3800428614584" y="1224.0294536756003" text-anchor="start" dominant-baseline="alphabetic" xml:space="preserve"></text></g><g><path fill="none" stroke="black" paint-order="fill stroke markers" d=" M 240.507754265625 1229.5582917156003 L 518.8721398249584 1229.5582917156003" stroke-miterlimit="10" stroke-width="1.1518412583333333" stroke-dasharray="5.52883804"/><g transform="translate(530.2523314572917,1229.5582917156003) translate(-530.2523314572917,-1229.5582917156003)"><path fill="black" stroke="none" paint-order="stroke fill markers" d=" M 518.7339188739584 1223.7990854239335 L 530.2523314572917 1229.5582917156003 L 518.7339188739584 1235.317498007267 Z"/></g></g><g><g><rect fill="white" stroke="none" x="560.430572425625" y="1250.2914343656003" width="4.14662853" height="17.96872363"/></g><text fill="black" stroke="none" font-family="sans-serif" font-size="8pt" font-style="normal" font-weight="normal" text-decoration="normal" x="562.503886690625" y="1262.7313199556004" text-anchor="start" dominant-baseline="alphabetic" xml:space="preserve"></text></g><g><path fill="none" stroke="black" paint-order="fill stroke markers" d=" M 544.0744265572916 1268.2601579956004 L 599.3628069572917 1268.2601579956004 L 599.3628069572917 1286.2288816256003 L 548.5435706396249 1286.2288816256003" stroke-miterlimit="10" stroke-width="1.1518412583333333" stroke-dasharray="5.52883804"/><g transform="translate(537.1633790072916,1286.2288816256003) translate(-537.1633790072916,-1286.2288816256003)"><path fill="black" stroke="none" paint-order="stroke fill markers" d=" M 548.6817915906249 1280.4696753339335 L 537.1633790072916 1286.2288816256003 L 548.6817915906249 1291.988087917267 Z"/></g></g><g><g><rect fill="white" stroke="none" x="376.3956810464583" y="1306.9620242756005" width="4.14662853" height="17.96872363"/></g><text fill="black" stroke="none" font-family="sans-serif" font-size="8pt" font-style="normal" font-weight="normal" text-decoration="normal" x="378.46899531145834" y="1319.4019098656006" text-anchor="start" dominant-baseline="alphabetic" xml:space="preserve"></text></g><g><path fill="none" stroke="black" paint-order="fill stroke markers" d=" M 523.3412839072917 1324.9307479056004 L 244.97689834795833 1324.9307479056004" stroke-miterlimit="10" stroke-width="1.1518412583333333" stroke-dasharray="5.52883804"/><g transform="translate(233.596706715625,1324.9307479056004) translate(-233.596706715625,-1324.9307479056004)"><path fill="black" stroke="none" paint-order="stroke fill markers" d=" M 245.11511929895835 1319.1715416139336 L 233.596706715625 1324.9307479056004 L 245.11511929895835 1330.689954197267 Z"/></g></g><g><g><rect fill="white" stroke="none" x="116.8769371928125" y="1345.6638905556006" width="4.14662853" height="17.96872363"/></g><text fill="black" stroke="none" font-family="sans-serif" font-size="8pt" font-style="normal" font-weight="normal" text-decoration="normal" x="118.9502514578125" y="1358.1037761456007" text-anchor="start" dominant-baseline="alphabetic" xml:space="preserve"></text></g><g><path fill="none" stroke="black" paint-order="fill stroke markers" d=" M 219.774611615625 1363.6326141856005 L 29.506082932333335 1363.6326141856005" stroke-miterlimit="10" stroke-width="1.1518412583333333" stroke-dasharray="5.52883804"/><g transform="translate(18.1258913,1363.6326141856005) translate(-18.1258913,-1363.6326141856005)"><path fill="black" stroke="none" paint-order="stroke fill markers" d=" M 29.644303883333333 1357.8734078939337 L 18.1258913 1363.6326141856005 L 29.644303883333333 1369.3918204772672 Z"/></g></g><g><g/><path fill="none" stroke="black" paint-order="fill stroke markers" d=" M 481.8749986072917 455.852696398 L 900.839824190625 455.852696398 L 900.839824190625 549.842943078 L 481.8749986072917 549.842943078 L 481.8749986072917 455.852696398 Z" stroke-miterlimit="10" stroke-width="1.9745850142857144" stroke-dasharray=""/><path fill="white" stroke="black" paint-order="fill stroke markers" d=" M 481.8749986072917 455.852696398 L 481.8749986072917 472.439210518 L 562.0338372447917 472.439210518 L 570.3270943047917 464.14595345799995 L 570.3270943047917 455.852696398 L 481.8749986072917 455.852696398" stroke-miterlimit="10" stroke-width="1.9745850142857144" stroke-dasharray=""/><text fill="black" stroke="none" font-family="sans-serif" font-size="6.4pt" font-style="normal" font-weight="bold" text-decoration="normal" x="495.6970937072917" y="466.910372478" text-anchor="start" dominant-baseline="alphabetic" xml:space="preserve">expandable-</text><text fill="black" stroke="none" font-family="sans-serif" font-size="6.4pt" font-style="normal" font-weight="bold" text-decoration="normal" x="584.1491894047916" y="466.910372478" text-anchor="start" dominant-baseline="alphabetic" xml:space="preserve">[seediagram02-AddMovieECE(doubleaddedmovie)]</text></g></g><g/><g/><g/><g/><g/><g/></g></svg>