<svg version="1.1" xmlns="http://www.w3.org/2000/svg" xmlns:xlink="http://www.w3.org/1999/xlink" width="1341" height="2822"><desc>title%20getMovie%20Expanded%0Aparticipant%20Cinema%0Aparticipant%20MovieMapper%0Adatabase%20Database%0Aentity%20m%0A%0Aalt%20movie%20already%20in%20cache%0ACinema-%3EMovieMapper%3AgetMovie(title%20%3A%20String%2C%20runningTime%20%3A%20int%2C%20year%20%3A%20int)%0Aactivate%20MovieMapper%0AMovieMapper-%3EMovieMapper%3AgetFromCacheByDetails(title%20%3A%20String%2C%20runningTime%20%3A%20int%2C%20year%20%3A%20int)%0Anote%20left%20of%20MovieMapper%3AMovie%20found%20in%20cache%0AMovieMapper--%3ECinema%3Areturn%20m%20%3A%20Movie%0Adeactivate%20MovieMapper%0Aelse%20movie%20not%20already%20in%20cache%0ACinema-%3EMovieMapper%3AgetMovie(title%20%3A%20String%2C%20runningTime%20%3A%20int%2C%20year%20%3A%20int)%0Aactivate%20MovieMapper%0AMovieMapper-%3EMovieMapper%3AgetFromCacheByDetails(title%20%3A%20String%2C%20runningTime%20%3A%20int%2C%20year%20%3A%20int)%0Anote%20left%20of%20MovieMapper%3AMovie%20not%20found%20in%20cache%0A%0AMovieMapper-%3EMovieMapper%3AgetMovie(sql%20%3A%20String)%0Aactivate%20MovieMapper%0AMovieMapper-%3EDatabase%3AexecuteQuery(sql%20%3A%20String)%0AMovieMapper-%3E*m%3APersistentMovie(title%20%3A%20String%2C%20runningTime%20%3A%20int%2C%20year%20%3A%20int)%0Aactivate%20m%0Am--%3EMovieMapper%3A%0Adeactivate%20m%0AMovieMapper--%3EMovieMapper%3Areturn%20m%0Adeactivate%20MovieMapper%0A%0AMovieMapper--%3ECinema%3Areturn%20m%20%3A%20Movie%0Adeactivate%20MovieMapper%0Aelse%20movie%20not%20already%20in%20cache%20or%20database%0ACinema-%3EMovieMapper%3AgetMovie(title%20%3A%20String%2C%20runningTime%20%3A%20int%2C%20year%20%3A%20int)%0Aactivate%20MovieMapper%0AMovieMapper-%3EMovieMapper%3AgetFromCacheByDetails(title%20%3A%20String%2C%20runningTime%20%3A%20int%2C%20year%20%3A%20int)%0Anote%20left%20of%20MovieMapper%3AMovie%20not%20found%20in%20cache%0A%0AMovieMapper-%3EMovieMapper%3AgetMovie(sql%20%3A%20String)%0Aactivate%20MovieMapper%0AMovieMapper-%3EDatabase%3AexecuteQuery(sql%20%3A%20String)%0A%0AMovieMapper--%3EMovieMapper%3A%0Adeactivate%20MovieMapper%0A%0Anote%20left%20of%20MovieMapper%3AMovie%20not%20found%20in%20database%0A%0AMovieMapper-%3EMovieMapper%3AaddMovie(title%20%3A%20String%2C%20runningTime%20%3A%20int%2C%20year%20%3A%20int)%0Aactivate%20MovieMapper%0A%0AMovieMapper-%3EMovieMapper%3AgetFromCacheByDetails(title%20%3A%20String%2C%20runningTime%20%3A%20int%2C%20year%20%3A%20int)%0Anote%20over%20MovieMapper%3Astill%20not%20there%0AMovieMapper-%3EDatabase%3AexecuteUpdate(sql%20%3A%20String)%0Anote%20over%20MovieMapper%3Ainserted%20into%20database%5CnObject%20is%20not%20created%20because%20we%20need%20to%20know%20what%20oid%20was%20generated%20by%20the%20database%0A%0AMovieMapper-%3EMovieMapper%3AgetMovie(title%20%3A%20String%2C%20runningTime%20%3A%20int%2C%20year%20%3A%20int)%0A%0Aactivate%20MovieMapper%0AMovieMapper-%3EMovieMapper%3AgetFromCacheByDetails(title%20%3A%20String%2C%20runningTime%20%3A%20int%2C%20year%20%3A%20int)%0Anote%20over%20MovieMapper%3Anot%20in%20cache%20yet%0AMovieMapper-%3EMovieMapper%3AgetMovie(sql%20%3A%20String)%0Aactivate%20MovieMapper%0AMovieMapper-%3EDatabase%3AexecuteQuery(sql%20%3A%20String)%0AMovieMapper-%3E*m%3APersistentMovie(title%20%3A%20String%2C%20runningTime%20%3A%20int%2C%20year%20%3A%20int)%0Aactivate%20m%0Am--%3EMovieMapper%3A%0Adeactivate%20m%0AMovieMapper--%3EMovieMapper%3Areturn%20m%0Adeactivate%20MovieMapper%0AMovieMapper-%3EMovieMapper%3AaddToCache(m%20%3A%20Movie)%0A%0AMovieMapper--%3EMovieMapper%3Areturn%20m%0Adeactivate%20MovieMapper%0A%0AMovieMapper--%3EMovieMapper%3Areturn%20m%0Adeactivate%20MovieMapper%0AMovieMapper--%3ECinema%3Areturn%20m%20%3A%20Movie%0Adeactivate%20MovieMapper%0Aend</desc><defs/><g><g/><g/><g/><g/><g/><g/><g/><g/><g/><g/><g/><g/><g/><g/><g/><g/><g/><g/><g/><g/><g/><g/><g/><g/><g/><g/><g/><g/><g/><g/><g/><g/><g/><g/><g/><g/><g/><g/><g><rect fill="white" stroke="none" x="0" y="0" width="1341" height="2822"/></g><g><text fill="black" stroke="none" font-family="sans-serif" font-size="16.5pt" font-style="normal" font-weight="normal" text-decoration="normal" x="565.698750052612" y="26.3876361" text-anchor="start" dominant-baseline="alphabetic" xml:space="preserve">getMovie Expanded</text></g><g/><g><path fill="none" stroke="black" paint-order="fill stroke markers" d=" M 79.1629083 138.798965886 L 79.1629083 2822.4567407707996" stroke-miterlimit="10" stroke-width="1.4659797833333332" stroke-dasharray="13.532121076923076,5.863919133333333"/><path fill="none" stroke="black" paint-order="fill stroke markers" d=" M 487.9552841096354 138.798965886 L 487.9552841096354 2822.4567407707996" stroke-miterlimit="10" stroke-width="1.4659797833333332" stroke-dasharray="13.532121076923076,5.863919133333333"/><path fill="none" stroke="black" paint-order="fill stroke markers" d=" M 1008.353794084375 138.798965886 L 1008.353794084375 2822.4567407707996" stroke-miterlimit="10" stroke-width="1.4659797833333332" stroke-dasharray="13.532121076923076,5.863919133333333"/><path fill="none" stroke="black" paint-order="fill stroke markers" d=" M 1253.394767792724 896.5815076483999 L 1253.394767792724 2822.4567407707996" stroke-miterlimit="10" stroke-width="1.4659797833333332" stroke-dasharray="13.532121076923076,5.863919133333333"/><path fill="none" stroke="black" paint-order="fill stroke markers" d=" M 1253.394767792724 2347.4792909708 L 1253.394767792724 2822.4567407707996" stroke-miterlimit="10" stroke-width="1.4659797833333332" stroke-dasharray="13.532121076923076,5.863919133333333"/></g><g><path fill="none" stroke="none"/><g><path fill="white" stroke="black" paint-order="fill stroke markers" d=" M 33.626312336429685 91.301220906 L 124.6995042635703 91.301220906 L 124.6995042635703 138.798965886 L 33.626312336429685 138.798965886 L 33.626312336429685 91.301220906 Z" stroke-miterlimit="10" stroke-width="2.814681184" stroke-dasharray=""/></g><g><g/><text fill="black" stroke="none" font-family="sans-serif" font-size="11pt" font-style="normal" font-weight="normal" text-decoration="normal" x="52.713369115429686" y="121.207208486" text-anchor="start" dominant-baseline="alphabetic" xml:space="preserve">Cinema</text></g><path fill="none" stroke="none"/><g><path fill="white" stroke="black" paint-order="fill stroke markers" d=" M 419.55540689606505 91.301220906 L 556.3551613232057 91.301220906 L 556.3551613232057 138.798965886 L 419.55540689606505 138.798965886 L 419.55540689606505 91.301220906 Z" stroke-miterlimit="10" stroke-width="2.814681184" stroke-dasharray=""/></g><g><g/><text fill="black" stroke="none" font-family="sans-serif" font-size="11pt" font-style="normal" font-weight="normal" text-decoration="normal" x="438.6424636750651" y="121.207208486" text-anchor="start" dominant-baseline="alphabetic" xml:space="preserve">MovieMapper</text></g><g><path fill="white" stroke="black" paint-order="fill stroke markers" d=" M 982.669828280375 104.31912138199999 L 982.669828280375 67.37643084199999 L 1034.037759888375 67.37643084199999 L 1034.037759888375 104.31912138199999" stroke-miterlimit="10" stroke-width="2.990598758" stroke-dasharray=""/><path fill="white" stroke="black" paint-order="fill stroke markers" d=" M 1034.037759888375 66.0922325518 L 1034.0364757007865 66.20833621555636 L 1034.0326232664383 66.3244282690431 L 1034.026202970571 66.4404971031516 L 1034.0172154552088 66.5565311110952 L 1034.0056616190955 66.67251868956978 L 1033.991542617605 66.78844823991415 L 1033.974859862626 66.9043081692699 L 1033.9556150224203 67.0200868917406 L 1033.9338100214554 67.13577282955055 L 1033.9094470402133 67.25135441420231 L 1033.8825285149721 67.36682008763378 L 1033.8530571375616 67.48215830337381 L 1033.821035855095 67.59735752769696 L 1033.7864678696742 67.71240624077679 L 1033.7493566380685 67.82729293783784 L 1033.7097058713703 67.94200613030618 L 1033.6675195346234 68.05653434695814 L 1033.6228018464262 68.1708661350675 L 1033.5755572785101 68.28499006155073 L 1033.5257905552928 68.39889471411026 L 1033.473506653405 68.51256870237577 L 1033.4187108011931 68.62600065904317 L 1033.361408478197 68.73917924101131 L 1033.301605414601 68.85209313051632 L 1033.239307590662 68.96473103626333 L 1033.1745212361102 69.07708169455563 L 1033.107252829527 69.18913387042103 L 1033.037509097697 69.3008763587353 L 1032.9652970149355 69.41229798534273 L 1032.8906238023903 69.52338760817354 L 1032.8134969273208 69.63413411835798 L 1032.73392410235 69.74452644133734 L 1032.651913284694 69.85455353797133 L 1032.5674726753664 69.96420440564195 L 1032.4806107183576 70.07346807935382 L 1032.3913360997913 70.18233363283062 L 1032.2996577470544 70.29079017960771 L 1032.2055848279063 70.39882687412083 L 1032.10912674956 70.50643291279052 L 1032.0102931577433 70.6135975351026 L 1031.909093935733 70.72031002468414 L 1031.8055392033668 70.82655971037511 L 1031.6996393160318 70.93233596729549 L 1031.5914048636287 71.03762821790771 L 1031.480846669512 71.14242593307448 L 1031.3679757894092 71.2467186331116 L 1031.2528035103146 71.35049588883598 L 1031.1353413493598 71.45374732260854 L 1031.015601052663 71.55646260937192 L 1030.893594594154 71.65863147768304 L 1030.7693341743773 71.76024371074024 L 1030.642832219271 71.86128914740488 L 1030.5141013789255 71.96175768321748 L 1030.3831545263174 72.0616392714082 L 1030.2500047560227 72.16092392390144 L 1030.1146653829078 72.25960171231469 L 1029.9771499407968 72.35766276895136 L 1029.83747218112 72.45509728778748 L 1029.695646071536 72.55189552545237 L 1029.5516857945383 72.64804780220294 L 1029.4056057460346 72.74354450289161 L 1029.2574205339079 72.83837607792793 L 1029.1071449765557 72.93253304423341 L 1028.9547941014087 73.02600598618986 L 1028.8003831434273 73.118785556581 L 1028.643927543579 73.21086247752712 L 1028.485442947293 73.30222754141282 L 1028.3249452028972 73.39287161180788 L 1028.162450360032 73.48278562438078 L 1027.9979746680463 73.5719605878052 L 1027.8315345743724 73.66038758465909 L 1027.663146722881 73.74805777231649 L 1027.4928279522167 73.83496238383165 L 1027.3205952941148 73.92109272881588 L 1027.1464659716976 74.00644019430642 L 1026.9704573977522 74.09099624562788 L 1026.7925871729892 74.17475242724555 L 1026.612873084283 74.2577003636111 L 1026.4313331028925 74.33983176 L 1026.2479853826649 74.42113840334106 L 1026.0628482582192 74.50161216303769 L 1025.8759402431135 74.58124499178099 L 1025.687280027994 74.66002892635444 L 1025.4968864787243 74.73795608843025 L 1025.3047786345012 74.81501868535715 L 1025.1109757059487 74.89120901093965 L 1024.9154970731986 74.9665194462087 L 1024.7183622839507 75.0409424601835 L 1024.5195910515201 75.11447061062472 L 1024.319203252864 75.18709654477856 L 1024.117218926596 75.25881300011211 L 1023.9136582709796 75.32961280503964 L 1023.7085416419111 75.39948887963963 L 1023.5018895508823 75.46843423636287 L 1023.2937226629303 75.53644198073111 L 1023.0840617945705 75.60350531202661 L 1022.8729279117147 75.66961752397214 L 1022.6603421275754 75.73477200540155 L 1022.446325700554 75.79896224092104 L 1022.2309000321146 75.86218181156053 L 1022.0140866646447 75.92442439541566 L 1021.7959072793002 75.98568376827987 L 1021.576383693838 76.04595380426694 L 1021.3555378604337 76.10522847642352 L 1021.1333918634865 76.16350185733178 L 1020.909967917411 76.22076811970217 L 1020.6852883644157 76.27702153695618 L 1020.4593756722685 76.33225648379899 L 1020.2322524320506 76.38646743678191 L 1020.0039413558965 76.43964897485485 L 1019.7744652747238 76.49179577990829 L 1019.543847135949 76.54290263730519 L 1019.3121100011944 76.59296443640241 L 1019.0792770439798 76.64197617106174 L 1018.8453715474071 76.68993294015058 L 1018.6104169018311 76.73682994803197 L 1018.3744366025205 76.7826625050442 L 1018.1374542473086 76.82742602796976 L 1017.8994935342334 76.87111604049369 L 1017.660578259168 76.91372817365111 L 1017.4207323134408 76.95525816626423 L 1017.1799796814463 76.99570186536839 L 1016.9383444382473 77.03505522662739 L 1016.6958507471667 77.0733143147379 L 1016.4525228573715 77.11047530382298 L 1016.2083851014479 77.1465344778147 L 1015.9634618929681 77.1814882308257 L 1015.7177777240488 77.21533306750982 L 1015.4713571629021 77.24806560341159 L 1015.2242248513788 77.2796825653047 L 1014.9764055025043 77.31018079151929 L 1014.7279238980067 77.33955723225817 L 1014.4788048858395 77.36780894990176 L 1014.2290733776964 77.3949331193018 L 1013.97875434652 77.42092702806399 L 1013.7278728240047 77.44578807681908 L 1013.476453898094 77.46951377948295 L 1013.2245227104706 77.49210176350509 L 1012.9721044540437 77.51354977010593 L 1012.7192243704283 77.53385565450264 L 1012.4659077474222 77.55301738612376 L 1012.2121799164765 77.57103304881205 L 1011.9580662501629 77.58790084101629 L 1011.7035921596363 77.6036190759713 L 1011.4487830920937 77.61818618186668 L 1011.1936645282294 77.63160070200398 L 1010.9382619796874 77.64386129494237 L 1010.6826009865093 77.65496673463277 L 1010.426707114582 77.66491591054046 L 1010.1706059530788 77.67370782775615 L 1009.914323111903 77.68134160709545 L 1009.6578842191246 77.68781648518677 L 1009.4013149184198 77.6931318145477 L 1009.1446408665042 77.69728706364975 L 1008.8878877305697 77.70028181697145 L 1008.6310811857154 77.70211577504 L 1008.3742469123822 77.70278875446107 L 1008.1174105937832 77.70230068793732 L 1007.8605979133363 77.70065162427498 L 1007.6038345520955 77.69784172837903 L 1007.347146186183 77.69387128123674 L 1007.0905584842213 77.68874067988952 L 1006.8340971047671 77.68245043739319 L 1006.5777876937443 77.6750011827668 L 1006.3216558818807 77.66639366092959 L 1006.0657272821438 77.65662873262656 L 1005.8100274871805 77.64570737434241 L 1005.554582066757 77.63363067820387 L 1005.2994165652027 77.6203998518705 L 1005.044556498855 77.60601621841388 L 1004.7900273535081 77.59048121618541 L 1004.5358545818646 77.57379639867233 L 1004.2820636009897 77.5559634343425 L 1004.02867978977 77.53698410647749 L 1003.7757284863754 77.51686031299428 L 1003.5232349857258 77.49559406625544 L 1003.2712245369605 77.47318749286792 L 1003.0197223409144 77.44964283347039 L 1002.7687535475977 77.42496244250918 L 1002.5183432536805 77.3991487880028 L 1002.2685164999834 77.3722044512952 L 1002.0192982689739 77.3441321267976 L 1001.7707134822671 77.31493462171906 L 1001.5227869981345 77.28461485578573 L 1001.2755436090182 77.25317586094897 L 1001.0290080390508 77.22062078108203 L 1000.7832049415841 77.18695287166581 L 1000.5381588967228 77.15217549946317 L 1000.2938944088672 77.11629214218235 L 1000.0504359042627 77.07930638812917 L 999.8078077285568 77.04122193584823 L 999.5660341443647 77.002042593753 L 999.3251393288435 76.96177227974506 L 999.0851473712742 76.92041502082225 L 998.8460822706522 76.87797495267598 L 998.6079679332885 76.83445631927773 L 998.3708281704185 76.78986347245454 L 998.1346866958207 76.74420087145396 L 997.8995671234459 76.69747308249802 L 997.6654929650554 76.64968477832667 L 997.4324876278698 76.60084073773052 L 997.200574412229 76.55094584507293 L 996.9697765092609 76.50000508980158 L 996.7401169985638 76.44802356594954 L 996.5116188458973 76.39500647162588 L 996.284304900886 76.34095910849587 L 996.0581978947353 76.28588688125075 L 995.8333204379572 76.22979529706737 L 995.6096950181102 76.1726899650574 L 995.3873439975496 76.11457659570647 L 995.1662896111925 76.05546100030305 L 994.946553964293 75.99534909035746 L 994.728159030233 75.9342468770106 L 994.5111266483236 75.87216047043285 L 994.2954785216225 75.80909607921315 L 994.0812362147623 75.74506000973807 L 993.8684211517954 75.6800586655612 L 993.6570546140505 75.61409854676278 L 993.4471577380054 75.54718624929971 L 993.2387515131729 75.47932846434601 L 993.0318567800017 75.4105319776236 L 992.8264942277926 75.34080366872384 L 992.6226843926298 75.2701505104195 L 992.420447655327 75.19857956796754 L 992.2198042393894 75.12609799840256 L 992.0207742089913 75.05271304982111 L 991.82337746697 74.9784320606569 L 991.627633752835 74.90326245894695 L 991.4335626407949 74.82721176158879 L 991.2411835377989 74.75028757358876 L 991.0505156815971 74.67249758730159 L 990.8615781388162 74.59384958166106 L 990.6743898030531 74.51435142140221 L 990.4889693929854 74.4340110562748 L 990.3053354504995 74.3528365202484 L 990.1235063388366 74.27083593070897 L 989.9435002407565 74.18801748764713 L 989.7653351567188 74.10438947283818 L 989.5890289030835 74.01996024901389 L 989.4145991103293 73.9347382590263 L 989.2420632212896 73.84873202500339 L 989.0714384894101 73.76195014749688 L 988.9027419770214 73.67440130462221 L 988.7359905536342 73.58609425119072 L 988.571200894252 73.49703781783415 L 988.4083894777034 73.40724091012163 L 988.2475725849944 73.3167125076691 L 988.0887662976801 73.22546166324135 L 987.9319864962571 73.1334975018468 L 987.7772488585747 73.04082921982494 L 987.6245688582679 72.94746608392677 L 987.4739617632094 72.85341743038806 L 987.3254426339831 72.75869266399579 L 987.1790263223785 72.66330125714767 L 987.0347274699044 72.56725274890488 L 986.8925605063258 72.4705567440382 L 986.7525396482208 72.37322291206758 L 986.6146788975585 72.27526098629505 L 986.478992040299 72.17668076283158 L 986.3454926450149 72.07749209961737 L 986.2141940615345 71.97770491543608 L 986.0851094196069 71.87732918892296 L 985.9582516275885 71.77637495756703 L 985.8336333711529 71.6748523167073 L 985.711267112022 71.57277141852325 L 985.5911650867196 71.47014247101961 L 985.4733393053481 71.36697573700563 L 985.3578015503874 71.26328153306875 L 985.244563375517 71.15907022854292 L 985.1336361044599 71.05435224447177 L 985.0250308298506 70.94913805256644 L 984.9187584121263 70.84343817415844 L 984.81482947844 70.73726317914753 L 984.7132544215985 70.63062368494474 L 984.6140433990231 70.5235303554106 L 984.517206331733 70.41599389978884 L 984.4227529033544 70.3080250716354 L 984.3306925591515 70.19963466774314 L 984.241034505082 70.0908335270621 L 984.1537877068764 69.98163252961568 L 984.0689608891421 69.87204259541265 L 983.9865625344898 69.76207468335508 L 983.9066008826867 69.65173979014256 L 983.8290839298312 69.54104894917243 L 983.7540194275539 69.43001322943658 L 983.6814148822425 69.31864373441445 L 983.6112775542912 69.20695160096271 L 983.543614457374 69.09494799820165 L 983.4784323577446 68.98264412639821 L 983.4157377735584 68.87005121584596 L 983.3555369742216 68.75718052574217 L 983.297835979764 68.64404334306175 L 983.2426405602371 68.53065098142872 L 983.1899562351366 68.41701477998473 L 983.1397882728513 68.30314610225523 L 983.0921416901355 68.1890563350131 L 983.0470212516078 68.07475688714001 L 983.0044314692746 67.96025918848548 L 982.9643766020783 67.84557468872397 L 982.9268606554726 67.73071485620987 L 982.8918873810208 67.61569117683074 L 982.859460276021 67.50051515285864 L 982.8295825831568 67.3851983018 L 982.8022572901727 67.26975215524384 L 982.7774871295752 67.15418825770858 L 982.7552745783596 67.0385181654877 L 982.7356218577627 66.92275344549402 L 982.7185309330399 66.80690567410306 L 982.7040035132696 66.69098643599544 L 982.6920410511817 66.57500732299836 L 982.6826447430124 66.45897993292647 L 982.6758155283846 66.34291586842208 L 982.6715540902143 66.22682673579494 L 982.6698608546415 66.11072414386156 L 982.6707359909884 65.99461970278438 L 982.6741794117423 65.87852502291076 L 982.6801907725638 65.76245171361194 L 982.688769472322 65.64641138212212 L 982.6999146531538 65.53041563237775 L 982.7136252005506 65.41447606385715 L 982.7298997434691 65.29860427042055 L 982.7487366544685 65.18281183915073 L 982.7701340498734 65.06711034919432 L 982.7940897899621 64.95151137060391 L 982.8206014791806 64.83602646318103 L 982.8496664663819 64.72066717532017 L 982.8812818450917 64.60544504285399 L 982.9154444537985 64.49037158789972 L 982.9521508762697 64.37545831770696 L 982.9913974418938 64.26071672350696 L 983.0331802260469 64.14615827936355 L 983.0774950504853 64.03179444102564 L 983.1243374837636 63.917636644781794 L 983.1737028416775 63.80369630631649 L 983.2255861877323 63.68998481956863 L 983.2799823336368 63.57651355559212 L 983.3368858398214 63.46329386141881 L 983.3962910159833 63.35033705892376 L 983.4581919216541 63.237654443693096 L 983.5225823667948 63.125257283894435 L 983.5894559124148 63.0131568191501 L 983.6588058712151 62.90136425941313 L 983.7306253082576 62.78989078384635 L 983.8049070416585 62.67874753970443 L 983.8816436433062 62.56794564121916 L 983.9608274396048 62.45749616848805 L 984.0424505122404 62.34741016636633 L 984.1265046989738 62.23769864336248 L 984.2129815944564 62.12837257053737 L 984.3018725510708 62.01944288040719 L 984.3931686797952 61.91092046585016 L 984.486860851093 61.80281617901732 L 984.5829396958251 61.69514083024725 L 984.681395606187 61.587905186985104 L 984.7822187366698 61.48111997270585 L 984.8853990050446 61.37479586584192 L 984.9909260933703 61.2689434987154 L 985.0987894490261 61.16357345647479 L 985.2089782857663 61.05869627603652 L 985.3214815847991 60.954322445031224 L 985.4362880958884 60.85046240075503 L 985.5533863384786 60.74712652912581 L 985.6727646028432 60.644325163644616 L 985.7944109512551 60.54206858436233 L 985.9183132191808 60.440367016851674 L 986.0444590164971 60.339230631184634 L 986.172835728729 60.2386695409155 L 986.3034305183123 60.13869380206951 L 986.436230325877 60.03931341213722 L 986.571221871553 59.94053830907482 L 986.7083916562982 59.84237837031029 L 986.8477259632485 59.74484341175572 L 986.9892108590892 59.64794318682568 L 987.1328321954486 59.55168738546191 L 987.2785756103129 59.45608563316434 L 987.426426529462 59.361147490028536 L 987.5763701679272 59.266882449789684 L 987.7283915314695 59.173299938873264 L 987.8824754180793 59.08040931545237 L 988.0386064194963 58.988219868511955 L 988.1967689227507 58.89674081691987 L 988.3569471117237 58.805981308505054 L 988.51912496873 58.715950419142715 L 988.683286276119 58.62665715184676 L 988.8494146178967 58.5381104358695 L 989.0174933813677 58.450319125808754 L 989.1875057587953 58.36329200072237 L 989.3594347490836 58.277037763250334 L 989.5332631594769 58.19156503874451 L 989.708973607279 58.10688237440612 L 989.8865485215914 58.022998238431036 L 990.0659701450708 57.93992101916295 L 990.2472205357044 57.85765902425456 L 990.430281568604 57.776220479836795 L 990.615134937819 57.695613529696246 L 990.8017621581665 57.61584623446075 L 990.99014456708 57.53692657079335 L 991.1802633264756 57.45886243059466 L 991.3720994246357 57.38166162021363 L 991.5656336781104 57.30533185966698 L 991.7608467336357 57.229880781867145 L 991.9577190700686 57.155315931859036 L 992.1562310003396 57.08164476606552 L 992.3563626734211 57.008874651541774 L 992.5580940763125 56.93701286523862 L 992.7614050360418 56.866066593274795 L 992.9662752216822 56.79604293021838 L 993.1726841463859 56.726948878377314 L 993.3806111694327 56.658791347099225 L 993.5900354982932 56.591577152080426 L 993.8009361907093 56.525313014684414 L 994.0132921567875 56.4600055612697 L 994.227082161108 56.39566132252722 L 994.4422848248487 56.332286732827214 L 994.6588786279224 56.26988812957585 L 994.8768419111293 56.20847175258143 L 995.0961528783228 56.14804374343051 L 995.3167895985889 56.08861014487363 L 995.5387300084395 56.03017690022111 L 995.7619519140185 55.972749852748734 L 995.9864329933213 55.91633474511339 L 996.2121507984272 55.86093721877882 L 996.4390827577436 55.80656281345151 L 996.6672061782638 55.753216966526665 L 996.8964982478359 55.70090501254454 L 997.1269360374438 55.649632182656916 L 997.3584965035008 55.59940360410408 L 997.5911564901531 55.550224299702016 L 997.824892731596 55.50209918734018 L 998.0596818544002 55.45503307948971 L 998.295500379849 55.40903068272217 L 998.5323247262863 55.3640965972389 L 998.7701312114749 55.320235316411 L 999.0088960549645 55.27745122633 L 999.2485953804696 55.23574860536927 L 999.4892052182574 55.19513162375613 L 999.7307015075447 55.15560434315492 L 999.9730600989038 55.11717071626074 L 1000.2162567566776 55.07983458640426 L 1000.4602671614028 55.04359968716735 L 1000.7050669122425 55.00846964200974 L 1000.9506315294254 54.974447963906684 L 1001.1969364566945 54.941538054997615 L 1001.4439570637625 54.90974320624601 L 1001.6916686487742 54.87906659711026 L 1001.9400464407778 54.849511295225696 L 1002.1890656022009 54.82108025609789 L 1002.438701231335 54.79377632280706 L 1002.6889283648252 54.76760222572378 L 1002.9397219801667 54.742560582235946 L 1003.1910569982068 54.71865389648704 L 1003.4429082856533 54.695884559125716 L 1003.6952506575873 54.674254847066734 L 1003.9480588799819 54.65376692326327 L 1004.2013076722254 54.63442283649064 L 1004.4549717096498 54.616224521141405 L 1004.7090256260627 54.599173797031916 L 1004.963444016284 54.583272369220396 L 1005.218201438687 54.56852182783636 L 1005.4732724177414 54.55492364792166 L 1005.7286314465622 54.54247918928296 L 1005.984252989459 54.53118969635575 L 1006.2401114844909 54.52105629807991 L 1006.4961813460212 54.51208000778683 L 1006.7524369672774 54.504261723098054 L 1007.0088527229108 54.497602225835536 L 1007.2654029715596 54.49210218194346 L 1007.5220620584128 54.487762141421626 L 1007.7788043177753 54.484582538270466 L 1008.0356040756353 54.482563690447655 L 1008.2924356522311 54.481705799836284 L 1008.549273364619 54.4820089522247 L 1008.8060915292418 54.48347311729792 L 1009.062864464497 54.486098148640664 L 1009.319566493305 54.48988378375197 L 1009.5761719456771 54.49482964407149 L 1009.8326551612815 54.50093523501731 L 1010.0889904920107 54.50819994603543 L 1010.3451523045451 54.5166230506608 L 1010.601114982917 54.52620370658997 L 1010.8568529310718 54.53694095576534 L 1011.1123405754277 54.54883372447093 L 1011.3675523674333 54.56188082343979 L 1011.6224627861221 54.5760809479729 L 1011.8770463406646 54.591432678069616 L 1012.1312775729175 54.607934478569746 L 1012.3851310599695 54.62558469930698 L 1012.6385814166833 54.644381575273954 L 1012.8916032982345 54.66432322679874 L 1013.1441714026458 54.685407659732796 L 1013.3962604733174 54.70763276565041 L 1013.647845301552 54.7309963220595 L 1013.8989007290766 54.75549599262389 L 1014.1494016505576 54.78112932739696 L 1014.3993230161117 54.80789376306658 L 1014.6486398338105 54.83578662321149 L 1014.8973271721801 54.86480511856891 L 1015.1453601626938 54.89494634731351 L 1015.3927140022594 54.9262072953475 L 1015.6393639556989 54.95858483660216 L 1015.8852853582224 54.99207573335032 L 1016.1304536178949 55.02667663653023 L 1016.3748442180945 55.0623840860804 L 1016.618432719965 55.09919451128564 L 1016.8611947648591 55.13710423113409 L 1017.1031060767746 55.17610945468536 L 1017.3441424647818 55.2162062814496 L 1017.5842798254431 55.25739070177756 L 1017.8234941452223 55.29965859726151 L 1018.0617615028867 55.34300574114714 L 1018.2990580718993 55.38742779875617 L 1018.5353601228007 55.43292032791987 L 1018.770644025583 55.47947877942322 L 1019.0048862520518 55.527098497459875 L 1019.2380633781798 55.57577472009772 L 1019.4701520864486 55.62550257975505 L 1019.7011291681807 55.67627710368733 L 1019.9309715258605 55.728093214484495 L 1020.1596561754438 55.78094573057864 L 1020.3871602486562 55.83482936676219 L 1020.61346099528 55.88973873471644 L 1020.8385357854289 55.945668343550345 L 1021.0623621118118 56.002612600349636 L 1021.2849175919823 56.06056581073608 L 1021.5061799705779 56.11952217943694 L 1021.7261271215452 56.179475810864474 L 1021.9447370503524 56.24042070970549 L 1022.1619878961887 56.30235078152091 L 1022.3778579341506 56.36525983335514 L 1022.5923255774143 56.42914157435544 L 1022.8053693793939 56.49398961640093 L 1023.0169680358871 56.55979747474145 L 1023.2271003872045 56.62655856864601 L 1023.4357454202858 56.69426622206085 L 1023.6428822708018 56.76291366427705 L 1023.8484902252401 56.83249403060759 L 1024.0525487229766 56.903000363073836 L 1024.2550373583313 56.97442561110128 L 1024.4559358826095 57.04676263222465 L 1024.6552242061266 57.120004192802114 L 1024.8528824002158 57.19414296873864 L 1025.0488906992227 57.26917154621842 L 1025.2432295024805 57.34508242244624 L 1025.4358793762713 57.421868006397716 L 1025.6268210557676 57.49952061957846 L 1025.816035446961 57.57803249679186 L 1026.0035036285701 57.657395786915615 L 1026.1892068539325 57.73760255368685 L 1026.373126552881 57.81864477649573 L 1026.5552443335987 57.9005143511875 L 1026.7355419844594 57.983203090872934 L 1026.914001475848 58.06670272674695 L 1027.0906049619641 58.15100490891555 L 1027.2653347826067 58.23610120723078 L 1027.438173464939 58.32198311213371 L 1027.6091037252365 58.40864203550541 L 1027.7781084706162 58.49606931152578 L 1027.9451708007443 58.58425619754006 L 1028.1102740095266 58.67319387493313 L 1028.2734015867802 58.76287345001139 L 1028.4345372198832 58.853285954892044 L 1028.5936647954065 58.944422348399954 L 1028.750768400725 59.03627351697172 L 1028.9058323256097 59.12883027556701 L 1029.0588410637965 59.222083368587114 L 1029.20977931454 59.31602347080043 L 1029.35863198414 59.41064118827504 L 1029.505384187454 59.50592705931801 L 1029.650021249384 59.60187155542167 L 1029.7925287063445 59.698465082216345 L 1029.9328923077082 59.79569798042986 L 1030.071098017232 59.89356052685341 L 1030.2071320144603 59.99204293531392 L 1030.3409806961067 60.0911353576526 L 1030.4726306774146 60.1908278847098 L 1030.6020687934954 60.29111054731588 L 1030.7292821006454 60.39197331728817 L 1030.8542578776398 60.4934061084337 L 1030.9769836270054 60.5953987775579 L 1031.0974470762694 60.69794112547884 L 1031.2156361791872 60.80102289804719 L 1031.331539116947 60.90463378717158 L 1031.4451442993513 61.00876343184945 L 1031.556440365977 61.113401419203115 L 1031.66541618731 61.218537285521016 L 1031.7720608658592 61.32416051730415 L 1031.8763637372451 61.43026055231736 L 1031.978314371268 61.53682678064554 L 1032.0779025729491 61.643848545754686 L 1032.1751183835515 61.75131514555746 L 1032.269952081575 61.85921583348345 L 1032.3623941837288 61.96753981955375 L 1032.45243544588 62.07627627146005 L 1032.5400668639768 62.18541431564777 L 1032.625279674951 62.29494303840343 L 1032.7080653575922 62.404851486946036 L 1032.7884156334014 62.515128670522316 L 1032.8663224674176 62.62576356150581 L 1032.9417780690228 62.736745096499625 L 1033.0147748927193 62.84806217744274 L 1033.0853056388858 62.959703672719826 L 1033.153363254506 63.07165841827438 L 1033.218940933876 63.18391521872516 L 1033.2820321192817 63.29646284848565 L 1033.3426305016571 63.409290052886675 L 1033.4007300212152 63.52238554930181 L 1033.4563248680515 63.63573802827567 L 1033.5094094827284 63.7493361546548 L 1033.5599785568286 63.86316856872124 L 1033.6080270334865 63.97722388732845 L 1033.6535501078945 64.09149070503959 L 1033.6965432277832 64.20595759526815 L 1033.7370020938765 64.32061311142046 L 1033.7749226603214 64.43544578804045 L 1033.8103011350931 64.55044414195618 L 1033.8431339803733 64.66559667342807 L 1033.8734179129049 64.78089186729893 L 1033.90114990432 64.89631819414548 L 1033.9263271814425 65.0118641114312 L 1033.9489472265655 65.12751806466063 L 1033.9690077777036 65.24326848853487 L 1033.9865068288184 65.35910380810796 L 1034.0014426300193 65.47501243994449 L 1034.0138136877385 65.59098279327785 L 1034.0236187648807 65.70700327116936 L 1034.0308568809462 65.8230622716679 L 1034.0355273121295 65.93914818897015 L 1034.0376295913916 66.05524941458111 M 1034.037759888375 103.0349230918 L 1034.0364757007865 103.15102675555636 L 1034.0326232664383 103.2671188090431 L 1034.026202970571 103.3831876431516 L 1034.0172154552088 103.4992216510952 L 1034.0056616190955 103.61520922956979 L 1033.991542617605 103.73113877991415 L 1033.974859862626 103.8469987092699 L 1033.9556150224203 103.9627774317406 L 1033.9338100214554 104.07846336955055 L 1033.9094470402133 104.19404495420231 L 1033.8825285149721 104.30951062763378 L 1033.8530571375616 104.42484884337381 L 1033.821035855095 104.54004806769696 L 1033.7864678696742 104.65509678077679 L 1033.7493566380685 104.76998347783784 L 1033.7097058713703 104.88469667030618 L 1033.6675195346234 104.99922488695815 L 1033.6228018464262 105.1135566750675 L 1033.5755572785101 105.22768060155073 L 1033.5257905552928 105.34158525411026 L 1033.473506653405 105.45525924237577 L 1033.4187108011931 105.56869119904317 L 1033.361408478197 105.68186978101132 L 1033.301605414601 105.79478367051632 L 1033.239307590662 105.90742157626333 L 1033.1745212361102 106.01977223455563 L 1033.107252829527 106.13182441042103 L 1033.037509097697 106.2435668987353 L 1032.9652970149355 106.35498852534273 L 1032.8906238023903 106.46607814817354 L 1032.8134969273208 106.57682465835798 L 1032.73392410235 106.68721698133734 L 1032.651913284694 106.79724407797133 L 1032.5674726753664 106.90689494564195 L 1032.4806107183576 107.01615861935382 L 1032.3913360997913 107.12502417283062 L 1032.2996577470544 107.23348071960771 L 1032.2055848279063 107.34151741412083 L 1032.10912674956 107.44912345279052 L 1032.0102931577433 107.5562880751026 L 1031.909093935733 107.66300056468414 L 1031.8055392033668 107.76925025037511 L 1031.6996393160318 107.87502650729549 L 1031.5914048636287 107.98031875790771 L 1031.480846669512 108.08511647307448 L 1031.3679757894092 108.1894091731116 L 1031.2528035103146 108.29318642883598 L 1031.1353413493598 108.39643786260854 L 1031.015601052663 108.49915314937192 L 1030.893594594154 108.60132201768305 L 1030.7693341743773 108.70293425074024 L 1030.642832219271 108.80397968740488 L 1030.5141013789255 108.90444822321749 L 1030.3831545263174 109.0043298114082 L 1030.2500047560227 109.10361446390144 L 1030.1146653829078 109.20229225231469 L 1029.9771499407968 109.30035330895136 L 1029.83747218112 109.39778782778748 L 1029.695646071536 109.49458606545237 L 1029.5516857945383 109.59073834220294 L 1029.4056057460346 109.68623504289161 L 1029.2574205339079 109.78106661792793 L 1029.1071449765557 109.87522358423341 L 1028.9547941014087 109.96869652618986 L 1028.8003831434273 110.061476096581 L 1028.643927543579 110.15355301752712 L 1028.485442947293 110.24491808141282 L 1028.3249452028972 110.33556215180788 L 1028.162450360032 110.42547616438078 L 1027.9979746680463 110.5146511278052 L 1027.8315345743724 110.60307812465909 L 1027.663146722881 110.69074831231649 L 1027.4928279522167 110.77765292383165 L 1027.3205952941148 110.86378326881588 L 1027.1464659716976 110.94913073430642 L 1026.9704573977522 111.03368678562788 L 1026.7925871729892 111.11744296724555 L 1026.612873084283 111.2003909036111 L 1026.4313331028925 111.2825223 L 1026.2479853826649 111.36382894334106 L 1026.0628482582192 111.44430270303769 L 1025.8759402431135 111.52393553178099 L 1025.687280027994 111.60271946635444 L 1025.4968864787243 111.68064662843025 L 1025.3047786345012 111.75770922535715 L 1025.1109757059487 111.83389955093965 L 1024.9154970731986 111.9092099862087 L 1024.7183622839507 111.9836330001835 L 1024.5195910515201 112.05716115062472 L 1024.319203252864 112.12978708477856 L 1024.117218926596 112.20150354011211 L 1023.9136582709796 112.27230334503965 L 1023.7085416419111 112.34217941963963 L 1023.5018895508823 112.41112477636287 L 1023.2937226629303 112.47913252073111 L 1023.0840617945705 112.54619585202661 L 1022.8729279117147 112.61230806397214 L 1022.6603421275754 112.67746254540155 L 1022.446325700554 112.74165278092104 L 1022.2309000321146 112.80487235156053 L 1022.0140866646447 112.86711493541566 L 1021.7959072793002 112.92837430827987 L 1021.576383693838 112.98864434426694 L 1021.3555378604337 113.04791901642352 L 1021.1333918634865 113.10619239733178 L 1020.909967917411 113.16345865970217 L 1020.6852883644157 113.21971207695618 L 1020.4593756722685 113.27494702379899 L 1020.2322524320506 113.32915797678191 L 1020.0039413558965 113.38233951485485 L 1019.7744652747238 113.43448631990829 L 1019.543847135949 113.48559317730519 L 1019.3121100011944 113.53565497640241 L 1019.0792770439798 113.58466671106174 L 1018.8453715474071 113.63262348015058 L 1018.6104169018311 113.67952048803197 L 1018.3744366025205 113.7253530450442 L 1018.1374542473086 113.77011656796977 L 1017.8994935342334 113.81380658049369 L 1017.660578259168 113.85641871365111 L 1017.4207323134408 113.89794870626423 L 1017.1799796814463 113.93839240536839 L 1016.9383444382473 113.9777457666274 L 1016.6958507471667 114.0160048547379 L 1016.4525228573715 114.05316584382298 L 1016.2083851014479 114.0892250178147 L 1015.9634618929681 114.12417877082571 L 1015.7177777240488 114.15802360750982 L 1015.4713571629021 114.19075614341159 L 1015.2242248513788 114.2223731053047 L 1014.9764055025043 114.25287133151929 L 1014.7279238980067 114.28224777225817 L 1014.4788048858395 114.31049948990176 L 1014.2290733776964 114.3376236593018 L 1013.97875434652 114.36361756806399 L 1013.7278728240047 114.38847861681909 L 1013.476453898094 114.41220431948295 L 1013.2245227104706 114.43479230350509 L 1012.9721044540437 114.45624031010593 L 1012.7192243704283 114.47654619450265 L 1012.4659077474222 114.49570792612376 L 1012.2121799164765 114.51372358881206 L 1011.9580662501629 114.5305913810163 L 1011.7035921596363 114.5463096159713 L 1011.4487830920937 114.56087672186668 L 1011.1936645282294 114.57429124200398 L 1010.9382619796874 114.58655183494237 L 1010.6826009865093 114.59765727463277 L 1010.426707114582 114.60760645054046 L 1010.1706059530788 114.61639836775615 L 1009.914323111903 114.62403214709545 L 1009.6578842191246 114.63050702518677 L 1009.4013149184198 114.6358223545477 L 1009.1446408665042 114.63997760364975 L 1008.8878877305697 114.64297235697146 L 1008.6310811857154 114.64480631504 L 1008.3742469123822 114.64547929446107 L 1008.1174105937832 114.64499122793733 L 1007.8605979133363 114.64334216427498 L 1007.6038345520955 114.64053226837903 L 1007.347146186183 114.63656182123674 L 1007.0905584842213 114.63143121988952 L 1006.8340971047671 114.62514097739319 L 1006.5777876937443 114.6176917227668 L 1006.3216558818807 114.60908420092959 L 1006.0657272821438 114.59931927262656 L 1005.8100274871805 114.58839791434241 L 1005.554582066757 114.57632121820387 L 1005.2994165652027 114.5630903918705 L 1005.044556498855 114.54870675841389 L 1004.7900273535081 114.53317175618541 L 1004.5358545818646 114.51648693867233 L 1004.2820636009897 114.4986539743425 L 1004.02867978977 114.47967464647749 L 1003.7757284863754 114.45955085299428 L 1003.5232349857258 114.43828460625544 L 1003.2712245369605 114.41587803286792 L 1003.0197223409144 114.3923333734704 L 1002.7687535475977 114.36765298250918 L 1002.5183432536805 114.3418393280028 L 1002.2685164999834 114.3148949912952 L 1002.0192982689739 114.2868226667976 L 1001.7707134822671 114.25762516171906 L 1001.5227869981345 114.22730539578573 L 1001.2755436090182 114.19586640094897 L 1001.0290080390508 114.16331132108203 L 1000.7832049415841 114.12964341166581 L 1000.5381588967228 114.09486603946317 L 1000.2938944088672 114.05898268218235 L 1000.0504359042627 114.02199692812917 L 999.8078077285568 113.98391247584823 L 999.5660341443647 113.944733133753 L 999.3251393288435 113.90446281974506 L 999.0851473712742 113.86310556082225 L 998.8460822706522 113.82066549267599 L 998.6079679332885 113.77714685927774 L 998.3708281704185 113.73255401245454 L 998.1346866958207 113.68689141145396 L 997.8995671234459 113.64016362249802 L 997.6654929650554 113.59237531832667 L 997.4324876278698 113.54353127773052 L 997.200574412229 113.49363638507293 L 996.9697765092609 113.44269562980158 L 996.7401169985638 113.39071410594954 L 996.5116188458973 113.33769701162588 L 996.284304900886 113.28364964849587 L 996.0581978947353 113.22857742125075 L 995.8333204379572 113.17248583706737 L 995.6096950181102 113.1153805050574 L 995.3873439975496 113.05726713570647 L 995.1662896111925 112.99815154030306 L 994.946553964293 112.93803963035747 L 994.728159030233 112.8769374170106 L 994.5111266483236 112.81485101043285 L 994.2954785216225 112.75178661921315 L 994.0812362147623 112.68775054973807 L 993.8684211517954 112.6227492055612 L 993.6570546140505 112.55678908676278 L 993.4471577380054 112.48987678929971 L 993.2387515131729 112.42201900434601 L 993.0318567800017 112.3532225176236 L 992.8264942277926 112.28349420872384 L 992.6226843926298 112.2128410504195 L 992.420447655327 112.14127010796754 L 992.2198042393894 112.06878853840256 L 992.0207742089913 111.99540358982111 L 991.82337746697 111.9211226006569 L 991.627633752835 111.84595299894696 L 991.4335626407949 111.76990230158879 L 991.2411835377989 111.69297811358877 L 991.0505156815971 111.6151881273016 L 990.8615781388162 111.53654012166106 L 990.6743898030531 111.45704196140221 L 990.4889693929854 111.3767015962748 L 990.3053354504995 111.2955270602484 L 990.1235063388366 111.21352647070897 L 989.9435002407565 111.13070802764713 L 989.7653351567188 111.04708001283818 L 989.5890289030835 110.96265078901389 L 989.4145991103293 110.8774287990263 L 989.2420632212896 110.79142256500339 L 989.0714384894101 110.70464068749688 L 988.9027419770214 110.61709184462221 L 988.7359905536342 110.52878479119072 L 988.571200894252 110.43972835783416 L 988.4083894777034 110.34993145012163 L 988.2475725849944 110.2594030476691 L 988.0887662976801 110.16815220324135 L 987.9319864962571 110.0761880418468 L 987.7772488585747 109.98351975982494 L 987.6245688582679 109.89015662392677 L 987.4739617632094 109.79610797038806 L 987.3254426339831 109.70138320399579 L 987.1790263223785 109.60599179714767 L 987.0347274699044 109.50994328890488 L 986.8925605063258 109.4132472840382 L 986.7525396482208 109.31591345206758 L 986.6146788975585 109.21795152629505 L 986.478992040299 109.11937130283158 L 986.3454926450149 109.02018263961737 L 986.2141940615345 108.92039545543608 L 986.0851094196069 108.82001972892296 L 985.9582516275885 108.71906549756703 L 985.8336333711529 108.6175428567073 L 985.711267112022 108.51546195852325 L 985.5911650867196 108.41283301101961 L 985.4733393053481 108.30966627700563 L 985.3578015503874 108.20597207306875 L 985.244563375517 108.10176076854292 L 985.1336361044599 107.99704278447177 L 985.0250308298506 107.89182859256644 L 984.9187584121263 107.78612871415844 L 984.81482947844 107.67995371914753 L 984.7132544215985 107.57331422494474 L 984.6140433990231 107.4662208954106 L 984.517206331733 107.35868443978885 L 984.4227529033544 107.2507156116354 L 984.3306925591515 107.14232520774314 L 984.241034505082 107.0335240670621 L 984.1537877068764 106.92432306961568 L 984.0689608891421 106.81473313541265 L 983.9865625344898 106.70476522335508 L 983.9066008826867 106.59443033014256 L 983.8290839298312 106.48373948917244 L 983.7540194275539 106.37270376943658 L 983.6814148822425 106.26133427441445 L 983.6112775542912 106.14964214096271 L 983.543614457374 106.03763853820165 L 983.4784323577446 105.92533466639821 L 983.4157377735584 105.81274175584596 L 983.3555369742216 105.69987106574217 L 983.297835979764 105.58673388306175 L 983.2426405602371 105.47334152142872 L 983.1899562351366 105.35970531998473 L 983.1397882728513 105.24583664225523 L 983.0921416901355 105.1317468750131 L 983.0470212516078 105.01744742714001 L 983.0044314692746 104.90294972848548 L 982.9643766020783 104.78826522872397 L 982.9268606554726 104.67340539620987 L 982.8918873810208 104.55838171683074 L 982.859460276021 104.44320569285864 L 982.8295825831568 104.3278888418 L 982.8022572901727 104.21244269524384 L 982.7774871295752 104.09687879770858 L 982.7552745783596 103.9812087054877 L 982.7356218577627 103.86544398549403 L 982.7185309330399 103.74959621410306 L 982.7040035132696 103.63367697599544 L 982.6920410511817 103.51769786299836 L 982.6826447430124 103.40167047292647 L 982.6758155283846 103.28560640842208 L 982.6715540902143 103.16951727579495 L 982.6698608546415 103.05341468386156" stroke-miterlimit="10" stroke-width="2.990598758" stroke-dasharray=""/></g><g><g/><text fill="black" stroke="none" font-family="sans-serif" font-size="11pt" font-style="normal" font-weight="normal" text-decoration="normal" x="975.7553825243164" y="133.521438666" text-anchor="start" dominant-baseline="alphabetic" xml:space="preserve">Database</text></g></g><g><path fill="white" stroke="black" paint-order="fill stroke markers" d=" M 479.1594054096354 244.349510286 L 496.7511628096354 244.349510286 L 496.7511628096354 432.581314466 L 479.1594054096354 432.581314466 L 479.1594054096354 244.349510286" stroke-miterlimit="10" stroke-width="1.4659797833333332" stroke-dasharray=""/><path fill="white" stroke="black" paint-order="fill stroke markers" d=" M 479.1594054096354 529.335980166 L 496.7511628096354 529.335980166 L 496.7511628096354 1067.2215544284 L 479.1594054096354 1067.2215544284 L 479.1594054096354 529.335980166" stroke-miterlimit="10" stroke-width="1.4659797833333332" stroke-dasharray=""/><path fill="white" stroke="black" paint-order="fill stroke markers" d=" M 487.9552841096354 740.4370689659999 L 505.5470415096354 740.4370689659999 L 505.5470415096354 995.0953490883999 L 487.9552841096354 995.0953490883999 L 487.9552841096354 740.4370689659999" stroke-miterlimit="10" stroke-width="1.4659797833333332" stroke-dasharray=""/><path fill="white" stroke="black" paint-order="fill stroke markers" d=" M 1244.598889092724 896.5815076483999 L 1262.190646492724 896.5815076483999 L 1262.190646492724 945.8384283684 L 1244.598889092724 945.8384283684 L 1244.598889092724 896.5815076483999" stroke-miterlimit="10" stroke-width="1.4659797833333332" stroke-dasharray=""/><path fill="white" stroke="black" paint-order="fill stroke markers" d=" M 479.1594054096354 1163.9762201283997 L 496.7511628096354 1163.9762201283997 L 496.7511628096354 2734.4979537708 L 479.1594054096354 2734.4979537708 L 479.1594054096354 1163.9762201283997" stroke-miterlimit="10" stroke-width="1.4659797833333332" stroke-dasharray=""/><path fill="white" stroke="black" paint-order="fill stroke markers" d=" M 487.9552841096354 1375.0773089283998 L 505.5470415096354 1375.0773089283998 L 505.5470415096354 1473.5911503684 L 487.9552841096354 1473.5911503684 L 487.9552841096354 1375.0773089283998" stroke-miterlimit="10" stroke-width="1.4659797833333332" stroke-dasharray=""/><path fill="white" stroke="black" paint-order="fill stroke markers" d=" M 487.9552841096354 1635.4353184483998 L 505.5470415096354 1635.4353184483998 L 505.5470415096354 2662.3717484308 L 487.9552841096354 2662.3717484308 L 487.9552841096354 1635.4353184483998" stroke-miterlimit="10" stroke-width="1.4659797833333332" stroke-dasharray=""/><path fill="white" stroke="black" paint-order="fill stroke markers" d=" M 496.7511628096354 1980.2337634883997 L 514.3429202096354 1980.2337634883997 L 514.3429202096354 2590.2455430908 L 496.7511628096354 2590.2455430908 L 496.7511628096354 1980.2337634883997" stroke-miterlimit="10" stroke-width="1.4659797833333332" stroke-dasharray=""/><path fill="white" stroke="black" paint-order="fill stroke markers" d=" M 505.5470415096354 2191.3348522884 L 523.1387989096354 2191.3348522884 L 523.1387989096354 2445.9931324107997 L 505.5470415096354 2445.9931324107997 L 505.5470415096354 2191.3348522884" stroke-miterlimit="10" stroke-width="1.4659797833333332" stroke-dasharray=""/><path fill="white" stroke="black" paint-order="fill stroke markers" d=" M 1244.598889092724 2347.4792909708 L 1262.190646492724 2347.4792909708 L 1262.190646492724 2396.7362116908 L 1244.598889092724 2396.7362116908 L 1244.598889092724 2347.4792909708" stroke-miterlimit="10" stroke-width="1.4659797833333332" stroke-dasharray=""/><g><g><rect fill="white" stroke="none" x="99.97982122333333" y="221.480225666" width="358.3626712629688" height="22.86928462"/></g><text fill="black" stroke="none" font-family="sans-serif" font-size="11pt" font-style="normal" font-weight="normal" text-decoration="normal" x="102.61858483333333" y="237.312807326" text-anchor="start" dominant-baseline="alphabetic" xml:space="preserve">getMovie(title : String, runningTime : int, year : int)</text></g><g><path fill="none" stroke="black" paint-order="fill stroke markers" d=" M 79.1629083 244.349510286 L 464.67552515030206 244.349510286" stroke-miterlimit="10" stroke-width="1.4659797833333332" stroke-dasharray=""/><g transform="translate(479.1594054096354,244.349510286) translate(-479.1594054096354,-244.349510286)"><path fill="black" stroke="none" paint-order="stroke fill markers" d=" M 464.499607576302 237.01961136933332 L 479.1594054096354 244.349510286 L 464.499607576302 251.67940920266668 Z"/></g></g><g><g><rect fill="white" stroke="none" x="517.5680757329687" y="270.737146386" width="458.2409671614063" height="22.86928462"/></g><text fill="black" stroke="none" font-family="sans-serif" font-size="11pt" font-style="normal" font-weight="normal" text-decoration="normal" x="520.2068393429687" y="286.569728046" text-anchor="start" dominant-baseline="alphabetic" xml:space="preserve">getFromCacheByDetails(title : String, runningTime : int, year : int)</text></g><g><path fill="none" stroke="black" paint-order="fill stroke markers" d=" M 496.7511628096354 293.60643100600004 L 567.1181924096354 293.60643100600004 L 567.1181924096354 316.475715626 L 511.2350430689687 316.475715626" stroke-miterlimit="10" stroke-width="1.4659797833333332" stroke-dasharray=""/><g transform="translate(496.7511628096354,316.475715626) translate(-496.7511628096354,-316.475715626)"><path fill="black" stroke="none" paint-order="stroke fill markers" d=" M 511.41096064296875 309.14581670933336 L 496.7511628096354 316.475715626 L 511.41096064296875 323.80561454266666 Z"/></g></g><path fill="white" stroke="black" paint-order="fill stroke markers" d=" M 479.1594054096354 363.093872736 L 470.3635267096354 363.093872736 M 269.603355867565 342.863351726 L 454.53094504963536 342.863351726 L 470.3635267096354 358.69593338600004 L 470.3635267096354 383.324393746 L 269.603355867565 383.324393746 L 269.603355867565 342.863351726 M 454.53094504963536 342.863351726 L 454.53094504963536 358.69593338600004 L 470.3635267096354 358.69593338600004" stroke-miterlimit="10" stroke-width="1.4659797833333332" stroke-dasharray=""/><g><text fill="black" stroke="none" font-family="sans-serif" font-size="11pt" font-style="normal" font-weight="normal" text-decoration="normal" x="294.23181622756505" y="367.491812086" text-anchor="start" dominant-baseline="alphabetic" xml:space="preserve">Movie found in cache</text></g><g><g><rect fill="white" stroke="none" x="218.20099737079425" y="409.712029846" width="121.92031896804687" height="22.86928462"/></g><text fill="black" stroke="none" font-family="sans-serif" font-size="11pt" font-style="normal" font-weight="normal" text-decoration="normal" x="220.83976098079427" y="425.544611506" text-anchor="start" dominant-baseline="alphabetic" xml:space="preserve">return m : Movie</text></g><g><path fill="none" stroke="black" paint-order="fill stroke markers" d=" M 479.1594054096354 432.581314466 L 93.64678855933333 432.581314466" stroke-miterlimit="10" stroke-width="1.4659797833333332" stroke-dasharray="7.0367029599999995"/><g transform="translate(79.1629083,432.581314466) translate(-79.1629083,-432.581314466)"><path fill="black" stroke="none" paint-order="stroke fill markers" d=" M 93.82270613333333 425.25141554933333 L 79.1629083 432.581314466 L 93.82270613333333 439.91121338266663 Z"/></g></g><g><g><rect fill="white" stroke="none" x="99.97982122333333" y="506.46669554600004" width="358.3626712629688" height="22.86928462"/></g><text fill="black" stroke="none" font-family="sans-serif" font-size="11pt" font-style="normal" font-weight="normal" text-decoration="normal" x="102.61858483333333" y="522.299277206" text-anchor="start" dominant-baseline="alphabetic" xml:space="preserve">getMovie(title : String, runningTime : int, year : int)</text></g><g><path fill="none" stroke="black" paint-order="fill stroke markers" d=" M 79.1629083 529.335980166 L 464.67552515030206 529.335980166" stroke-miterlimit="10" stroke-width="1.4659797833333332" stroke-dasharray=""/><g transform="translate(479.1594054096354,529.335980166) translate(-479.1594054096354,-529.335980166)"><path fill="black" stroke="none" paint-order="stroke fill markers" d=" M 464.499607576302 522.0060812493333 L 479.1594054096354 529.335980166 L 464.499607576302 536.6658790826667 Z"/></g></g><g><g><rect fill="white" stroke="none" x="517.5680757329687" y="555.723616266" width="458.2409671614063" height="22.86928462"/></g><text fill="black" stroke="none" font-family="sans-serif" font-size="11pt" font-style="normal" font-weight="normal" text-decoration="normal" x="520.2068393429687" y="571.556197926" text-anchor="start" dominant-baseline="alphabetic" xml:space="preserve">getFromCacheByDetails(title : String, runningTime : int, year : int)</text></g><g><path fill="none" stroke="black" paint-order="fill stroke markers" d=" M 496.7511628096354 578.5929008859999 L 567.1181924096354 578.5929008859999 L 567.1181924096354 601.462185506 L 511.2350430689687 601.462185506" stroke-miterlimit="10" stroke-width="1.4659797833333332" stroke-dasharray=""/><g transform="translate(496.7511628096354,601.462185506) translate(-496.7511628096354,-601.462185506)"><path fill="black" stroke="none" paint-order="stroke fill markers" d=" M 511.41096064296875 594.1322865893333 L 496.7511628096354 601.462185506 L 511.41096064296875 608.7920844226667 Z"/></g></g><path fill="white" stroke="black" paint-order="fill stroke markers" d=" M 479.1594054096354 648.0803426159999 L 470.3635267096354 648.0803426159999 M 241.45017288416662 627.8498216059999 L 454.53094504963536 627.8498216059999 L 470.3635267096354 643.6824032659998 L 470.3635267096354 668.3108636259999 L 241.45017288416662 668.3108636259999 L 241.45017288416662 627.8498216059999 M 454.53094504963536 627.8498216059999 L 454.53094504963536 643.6824032659998 L 470.3635267096354 643.6824032659998" stroke-miterlimit="10" stroke-width="1.4659797833333332" stroke-dasharray=""/><g><text fill="black" stroke="none" font-family="sans-serif" font-size="11pt" font-style="normal" font-weight="normal" text-decoration="normal" x="266.0786332441666" y="652.4782819659999" text-anchor="start" dominant-baseline="alphabetic" xml:space="preserve">Movie not found in cache</text></g><g><g><rect fill="white" stroke="none" x="526.3639544329687" y="694.6984997259999" width="155.3777469465625" height="22.86928462"/></g><text fill="black" stroke="none" font-family="sans-serif" font-size="11pt" font-style="normal" font-weight="normal" text-decoration="normal" x="529.0027180429687" y="710.5310813859999" text-anchor="start" dominant-baseline="alphabetic" xml:space="preserve">getMovie(sql : String)</text></g><g><path fill="none" stroke="black" paint-order="fill stroke markers" d=" M 496.7511628096354 717.5677843459998 L 575.9140711096354 717.5677843459998 L 575.9140711096354 740.4370689659999 L 520.0309217689687 740.4370689659999" stroke-miterlimit="10" stroke-width="1.4659797833333332" stroke-dasharray=""/><g transform="translate(505.5470415096354,740.4370689659999) translate(-505.5470415096354,-740.4370689659999)"><path fill="black" stroke="none" paint-order="stroke fill markers" d=" M 520.2068393429687 733.1071700493331 L 505.5470415096354 740.4370689659999 L 520.2068393429687 747.7669678826666 Z"/></g></g><g><g><rect fill="white" stroke="none" x="663.9788218505795" y="766.8247050659999" width="185.94319189285156" height="22.86928462"/></g><text fill="black" stroke="none" font-family="sans-serif" font-size="11pt" font-style="normal" font-weight="normal" text-decoration="normal" x="666.6175854605794" y="782.6572867259998" text-anchor="start" dominant-baseline="alphabetic" xml:space="preserve">executeQuery(sql : String)</text></g><g><path fill="none" stroke="black" paint-order="fill stroke markers" d=" M 505.5470415096354 789.6939896859999 L 993.8699138250416 789.6939896859999" stroke-miterlimit="10" stroke-width="1.4659797833333332" stroke-dasharray=""/><g transform="translate(1008.353794084375,789.6939896859999) translate(-1008.353794084375,-789.6939896859999)"><path fill="black" stroke="none" paint-order="stroke fill markers" d=" M 993.6939962510417 782.3640907693332 L 1008.353794084375 789.6939896859999 L 993.6939962510417 797.0238886026666 Z"/></g></g><g><path fill="white" stroke="black" paint-order="fill stroke markers" d=" M 1279.518527531724 842.2053855249999 A 26.123759739 26.123759739 0 1 1 1279.5185144698453 842.1792617696149 M 1225.775708674724 870.7216242703998 L 1281.013826910724 870.7216242703998" stroke-miterlimit="10" stroke-width="2.990598758" stroke-dasharray=""/></g><g><g/><text fill="black" stroke="none" font-family="sans-serif" font-size="11pt" font-style="normal" font-weight="normal" text-decoration="normal" x="1246.526474030517" y="889.8086810493999" text-anchor="start" dominant-baseline="alphabetic" xml:space="preserve">m</text></g><g><g><rect fill="white" stroke="none" x="664.0427225661641" y="833.4622820971998" width="403.2373050520313" height="22.86928462"/></g><text fill="black" stroke="none" font-family="sans-serif" font-size="11pt" font-style="normal" font-weight="normal" text-decoration="normal" x="666.6814861761641" y="849.2948637571998" text-anchor="start" dominant-baseline="alphabetic" xml:space="preserve">PersistentMovie(title : String, runningTime : int, year : int)</text></g><g><path fill="none" stroke="black" paint-order="fill stroke markers" d=" M 505.5470415096354 856.3315667171998 L 1211.2918284153907 856.3315667171998" stroke-miterlimit="10" stroke-width="1.4659797833333332" stroke-dasharray=""/><g transform="translate(1225.775708674724,856.3315667171998) translate(-1225.775708674724,-856.3315667171998)"><path fill="black" stroke="none" paint-order="stroke fill markers" d=" M 1211.1159108413906 849.0016678005331 L 1225.775708674724 856.3315667171998 L 1211.1159108413906 863.6614656338666 Z"/></g></g><g><g><rect fill="white" stroke="none" x="872.4342016911797" y="922.9691437483999" width="5.27752722" height="22.86928462"/></g><text fill="black" stroke="none" font-family="sans-serif" font-size="11pt" font-style="normal" font-weight="normal" text-decoration="normal" x="875.0729653011797" y="938.8017254083999" text-anchor="start" dominant-baseline="alphabetic" xml:space="preserve"></text></g><g><path fill="none" stroke="black" paint-order="fill stroke markers" d=" M 1244.598889092724 945.8384283684 L 520.0309217689687 945.8384283684" stroke-miterlimit="10" stroke-width="1.4659797833333332" stroke-dasharray="7.0367029599999995"/><g transform="translate(505.5470415096354,945.8384283684) translate(-505.5470415096354,-945.8384283684)"><path fill="black" stroke="none" paint-order="stroke fill markers" d=" M 520.2068393429687 938.5085294517332 L 505.5470415096354 945.8384283684 L 520.2068393429687 953.1683272850667 Z"/></g></g><g><g><rect fill="white" stroke="none" x="526.3639544329687" y="972.2260644684" width="66.15795934890625" height="22.86928462"/></g><text fill="black" stroke="none" font-family="sans-serif" font-size="11pt" font-style="normal" font-weight="normal" text-decoration="normal" x="529.0027180429687" y="988.0586461283999" text-anchor="start" dominant-baseline="alphabetic" xml:space="preserve">return m</text></g><g><path fill="none" stroke="black" paint-order="fill stroke markers" d=" M 505.5470415096354 995.0953490883999 L 575.9140711096354 995.0953490883999 L 575.9140711096354 1017.9646337083999 L 511.2350430689687 1017.9646337083999" stroke-miterlimit="10" stroke-width="1.4659797833333332" stroke-dasharray="7.0367029599999995"/><g transform="translate(496.7511628096354,1017.9646337083999) translate(-496.7511628096354,-1017.9646337083999)"><path fill="black" stroke="none" paint-order="stroke fill markers" d=" M 511.41096064296875 1010.6347347917332 L 496.7511628096354 1017.9646337083999 L 511.41096064296875 1025.2945326250665 Z"/></g></g><g><g><rect fill="white" stroke="none" x="218.20099737079425" y="1044.3522698084" width="121.92031896804687" height="22.86928462"/></g><text fill="black" stroke="none" font-family="sans-serif" font-size="11pt" font-style="normal" font-weight="normal" text-decoration="normal" x="220.83976098079427" y="1060.1848514684" text-anchor="start" dominant-baseline="alphabetic" xml:space="preserve">return m : Movie</text></g><g><path fill="none" stroke="black" paint-order="fill stroke markers" d=" M 479.1594054096354 1067.2215544284 L 93.64678855933333 1067.2215544284" stroke-miterlimit="10" stroke-width="1.4659797833333332" stroke-dasharray="7.0367029599999995"/><g transform="translate(79.1629083,1067.2215544284) translate(-79.1629083,-1067.2215544284)"><path fill="black" stroke="none" paint-order="stroke fill markers" d=" M 93.82270613333333 1059.8916555117332 L 79.1629083 1067.2215544284 L 93.82270613333333 1074.5514533450666 Z"/></g></g><g><g><rect fill="white" stroke="none" x="99.97982122333333" y="1141.1069355083998" width="358.3626712629688" height="22.86928462"/></g><text fill="black" stroke="none" font-family="sans-serif" font-size="11pt" font-style="normal" font-weight="normal" text-decoration="normal" x="102.61858483333333" y="1156.9395171683998" text-anchor="start" dominant-baseline="alphabetic" xml:space="preserve">getMovie(title : String, runningTime : int, year : int)</text></g><g><path fill="none" stroke="black" paint-order="fill stroke markers" d=" M 79.1629083 1163.9762201283997 L 464.67552515030206 1163.9762201283997" stroke-miterlimit="10" stroke-width="1.4659797833333332" stroke-dasharray=""/><g transform="translate(479.1594054096354,1163.9762201283997) translate(-479.1594054096354,-1163.9762201283997)"><path fill="black" stroke="none" paint-order="stroke fill markers" d=" M 464.499607576302 1156.646321211733 L 479.1594054096354 1163.9762201283997 L 464.499607576302 1171.3061190450665 Z"/></g></g><g><g><rect fill="white" stroke="none" x="517.5680757329687" y="1190.3638562283998" width="458.2409671614063" height="22.86928462"/></g><text fill="black" stroke="none" font-family="sans-serif" font-size="11pt" font-style="normal" font-weight="normal" text-decoration="normal" x="520.2068393429687" y="1206.1964378883997" text-anchor="start" dominant-baseline="alphabetic" xml:space="preserve">getFromCacheByDetails(title : String, runningTime : int, year : int)</text></g><g><path fill="none" stroke="black" paint-order="fill stroke markers" d=" M 496.7511628096354 1213.2331408484 L 567.1181924096354 1213.2331408484 L 567.1181924096354 1236.1024254683998 L 511.2350430689687 1236.1024254683998" stroke-miterlimit="10" stroke-width="1.4659797833333332" stroke-dasharray=""/><g transform="translate(496.7511628096354,1236.1024254683998) translate(-496.7511628096354,-1236.1024254683998)"><path fill="black" stroke="none" paint-order="stroke fill markers" d=" M 511.41096064296875 1228.772526551733 L 496.7511628096354 1236.1024254683998 L 511.41096064296875 1243.4323243850665 Z"/></g></g><path fill="white" stroke="black" paint-order="fill stroke markers" d=" M 479.1594054096354 1282.7205825783997 L 470.3635267096354 1282.7205825783997 M 241.45017288416662 1262.4900615683998 L 454.53094504963536 1262.4900615683998 L 470.3635267096354 1278.3226432283998 L 470.3635267096354 1302.9511035883997 L 241.45017288416662 1302.9511035883997 L 241.45017288416662 1262.4900615683998 M 454.53094504963536 1262.4900615683998 L 454.53094504963536 1278.3226432283998 L 470.3635267096354 1278.3226432283998" stroke-miterlimit="10" stroke-width="1.4659797833333332" stroke-dasharray=""/><g><text fill="black" stroke="none" font-family="sans-serif" font-size="11pt" font-style="normal" font-weight="normal" text-decoration="normal" x="266.0786332441666" y="1287.1185219283996" text-anchor="start" dominant-baseline="alphabetic" xml:space="preserve">Movie not found in cache</text></g><g><g><rect fill="white" stroke="none" x="526.3639544329687" y="1329.3387396883998" width="155.3777469465625" height="22.86928462"/></g><text fill="black" stroke="none" font-family="sans-serif" font-size="11pt" font-style="normal" font-weight="normal" text-decoration="normal" x="529.0027180429687" y="1345.1713213483997" text-anchor="start" dominant-baseline="alphabetic" xml:space="preserve">getMovie(sql : String)</text></g><g><path fill="none" stroke="black" paint-order="fill stroke markers" d=" M 496.7511628096354 1352.2080243084 L 575.9140711096354 1352.2080243084 L 575.9140711096354 1375.0773089283998 L 520.0309217689687 1375.0773089283998" stroke-miterlimit="10" stroke-width="1.4659797833333332" stroke-dasharray=""/><g transform="translate(505.5470415096354,1375.0773089283998) translate(-505.5470415096354,-1375.0773089283998)"><path fill="black" stroke="none" paint-order="stroke fill markers" d=" M 520.2068393429687 1367.747410011733 L 505.5470415096354 1375.0773089283998 L 520.2068393429687 1382.4072078450665 Z"/></g></g><g><g><rect fill="white" stroke="none" x="663.9788218505795" y="1401.4649450283998" width="185.94319189285156" height="22.86928462"/></g><text fill="black" stroke="none" font-family="sans-serif" font-size="11pt" font-style="normal" font-weight="normal" text-decoration="normal" x="666.6175854605794" y="1417.2975266883998" text-anchor="start" dominant-baseline="alphabetic" xml:space="preserve">executeQuery(sql : String)</text></g><g><path fill="none" stroke="black" paint-order="fill stroke markers" d=" M 505.5470415096354 1424.3342296483997 L 993.8699138250416 1424.3342296483997" stroke-miterlimit="10" stroke-width="1.4659797833333332" stroke-dasharray=""/><g transform="translate(1008.353794084375,1424.3342296483997) translate(-1008.353794084375,-1424.3342296483997)"><path fill="black" stroke="none" paint-order="stroke fill markers" d=" M 993.6939962510417 1417.004330731733 L 1008.353794084375 1424.3342296483997 L 993.6939962510417 1431.6641285650664 Z"/></g></g><g><g><rect fill="white" stroke="none" x="526.3639544329687" y="1450.7218657483998" width="5.27752722" height="22.86928462"/></g><text fill="black" stroke="none" font-family="sans-serif" font-size="11pt" font-style="normal" font-weight="normal" text-decoration="normal" x="529.0027180429687" y="1466.5544474083997" text-anchor="start" dominant-baseline="alphabetic" xml:space="preserve"></text></g><g><path fill="none" stroke="black" paint-order="fill stroke markers" d=" M 505.5470415096354 1473.5911503684 L 575.9140711096354 1473.5911503684 L 575.9140711096354 1496.4604349883998 L 511.2350430689687 1496.4604349883998" stroke-miterlimit="10" stroke-width="1.4659797833333332" stroke-dasharray="7.0367029599999995"/><g transform="translate(496.7511628096354,1496.4604349883998) translate(-496.7511628096354,-1496.4604349883998)"><path fill="black" stroke="none" paint-order="stroke fill markers" d=" M 511.41096064296875 1489.130536071733 L 496.7511628096354 1496.4604349883998 L 511.41096064296875 1503.7903339050665 Z"/></g></g><path fill="white" stroke="black" paint-order="fill stroke markers" d=" M 479.1594054096354 1543.0785920983997 L 470.3635267096354 1543.0785920983997 M 218.1932301351432 1522.8480710883998 L 454.53094504963536 1522.8480710883998 L 470.3635267096354 1538.6806527483998 L 470.3635267096354 1563.3091131083997 L 218.1932301351432 1563.3091131083997 L 218.1932301351432 1522.8480710883998 M 454.53094504963536 1522.8480710883998 L 454.53094504963536 1538.6806527483998 L 470.3635267096354 1538.6806527483998" stroke-miterlimit="10" stroke-width="1.4659797833333332" stroke-dasharray=""/><g><text fill="black" stroke="none" font-family="sans-serif" font-size="11pt" font-style="normal" font-weight="normal" text-decoration="normal" x="242.82169049514323" y="1547.4765314483996" text-anchor="start" dominant-baseline="alphabetic" xml:space="preserve">Movie not found in database</text></g><g><g><rect fill="white" stroke="none" x="526.3639544329687" y="1589.6967492083998" width="362.063415891875" height="22.86928462"/></g><text fill="black" stroke="none" font-family="sans-serif" font-size="11pt" font-style="normal" font-weight="normal" text-decoration="normal" x="529.0027180429687" y="1605.5293308683997" text-anchor="start" dominant-baseline="alphabetic" xml:space="preserve">addMovie(title : String, runningTime : int, year : int)</text></g><g><path fill="none" stroke="black" paint-order="fill stroke markers" d=" M 496.7511628096354 1612.5660338284 L 575.9140711096354 1612.5660338284 L 575.9140711096354 1635.4353184483998 L 520.0309217689687 1635.4353184483998" stroke-miterlimit="10" stroke-width="1.4659797833333332" stroke-dasharray=""/><g transform="translate(505.5470415096354,1635.4353184483998) translate(-505.5470415096354,-1635.4353184483998)"><path fill="black" stroke="none" paint-order="stroke fill markers" d=" M 520.2068393429687 1628.105419531733 L 505.5470415096354 1635.4353184483998 L 520.2068393429687 1642.7652173650665 Z"/></g></g><g><g><rect fill="white" stroke="none" x="526.3639544329687" y="1661.8229545483998" width="458.2409671614063" height="22.86928462"/></g><text fill="black" stroke="none" font-family="sans-serif" font-size="11pt" font-style="normal" font-weight="normal" text-decoration="normal" x="529.0027180429687" y="1677.6555362083998" text-anchor="start" dominant-baseline="alphabetic" xml:space="preserve">getFromCacheByDetails(title : String, runningTime : int, year : int)</text></g><g><path fill="none" stroke="black" paint-order="fill stroke markers" d=" M 505.5470415096354 1684.6922391684 L 575.9140711096354 1684.6922391684 L 575.9140711096354 1707.5615237883999 L 520.0309217689687 1707.5615237883999" stroke-miterlimit="10" stroke-width="1.4659797833333332" stroke-dasharray=""/><g transform="translate(505.5470415096354,1707.5615237883999) translate(-505.5470415096354,-1707.5615237883999)"><path fill="black" stroke="none" paint-order="stroke fill markers" d=" M 520.2068393429687 1700.2316248717332 L 505.5470415096354 1707.5615237883999 L 520.2068393429687 1714.8914227050666 Z"/></g></g><path fill="white" stroke="black" paint-order="fill stroke markers" d=" M 416.84867433557287 1733.9491598884 L 543.2293122236979 1733.9491598884 L 559.0618938836978 1749.7817415483999 L 559.0618938836978 1774.4102019083998 L 416.84867433557287 1774.4102019083998 L 416.84867433557287 1733.9491598884 M 543.2293122236979 1733.9491598884 L 543.2293122236979 1749.7817415483999 L 559.0618938836978 1749.7817415483999" stroke-miterlimit="10" stroke-width="1.4659797833333332" stroke-dasharray=""/><g><text fill="black" stroke="none" font-family="sans-serif" font-size="11pt" font-style="normal" font-weight="normal" text-decoration="normal" x="441.4771346955729" y="1758.5776202483996" text-anchor="start" dominant-baseline="alphabetic" xml:space="preserve">still not there</text></g><g><g><rect fill="white" stroke="none" x="659.9022379882748" y="1800.7978380083998" width="194.09635961746093" height="22.86928462"/></g><text fill="black" stroke="none" font-family="sans-serif" font-size="11pt" font-style="normal" font-weight="normal" text-decoration="normal" x="662.5410015982748" y="1816.6304196683998" text-anchor="start" dominant-baseline="alphabetic" xml:space="preserve">executeUpdate(sql : String)</text></g><g><path fill="none" stroke="black" paint-order="fill stroke markers" d=" M 505.5470415096354 1823.6671226283997 L 993.8699138250416 1823.6671226283997" stroke-miterlimit="10" stroke-width="1.4659797833333332" stroke-dasharray=""/><g transform="translate(1008.353794084375,1823.6671226283997) translate(-1008.353794084375,-1823.6671226283997)"><path fill="black" stroke="none" paint-order="stroke fill markers" d=" M 993.6939962510417 1816.337223711733 L 1008.353794084375 1823.6671226283997 L 993.6939962510417 1830.9970215450664 Z"/></g></g><path fill="white" stroke="black" paint-order="fill stroke markers" d=" M 152.73987916955724 1850.0547587283997 L 807.3381073897135 1850.0547587283997 L 823.1706890497135 1865.8873403883997 L 823.1706890497135 1908.1075581483997 L 152.73987916955724 1908.1075581483997 L 152.73987916955724 1850.0547587283997 M 807.3381073897135 1850.0547587283997 L 807.3381073897135 1865.8873403883997 L 823.1706890497135 1865.8873403883997" stroke-miterlimit="10" stroke-width="1.4659797833333332" stroke-dasharray=""/><g><text fill="black" stroke="none" font-family="sans-serif" font-size="11pt" font-style="normal" font-weight="normal" text-decoration="normal" x="177.36833952955726" y="1874.6832190883995" text-anchor="start" dominant-baseline="alphabetic" xml:space="preserve">inserted into database</text><text fill="black" stroke="none" font-family="sans-serif" font-size="11pt" font-style="normal" font-weight="normal" text-decoration="normal" x="177.36833952955726" y="1892.2749764883995" text-anchor="start" dominant-baseline="alphabetic" xml:space="preserve">Object is not created because we need to know what oid was generated by the database</text></g><g><g><rect fill="white" stroke="none" x="535.1598331329687" y="1934.4951942483997" width="358.3626712629688" height="22.86928462"/></g><text fill="black" stroke="none" font-family="sans-serif" font-size="11pt" font-style="normal" font-weight="normal" text-decoration="normal" x="537.7985967429687" y="1950.3277759083996" text-anchor="start" dominant-baseline="alphabetic" xml:space="preserve">getMovie(title : String, runningTime : int, year : int)</text></g><g><path fill="none" stroke="black" paint-order="fill stroke markers" d=" M 505.5470415096354 1957.3644788683998 L 584.7099498096354 1957.3644788683998 L 584.7099498096354 1980.2337634883997 L 528.8268004689687 1980.2337634883997" stroke-miterlimit="10" stroke-width="1.4659797833333332" stroke-dasharray=""/><g transform="translate(514.3429202096354,1980.2337634883997) translate(-514.3429202096354,-1980.2337634883997)"><path fill="black" stroke="none" paint-order="stroke fill markers" d=" M 529.0027180429687 1972.903864571733 L 514.3429202096354 1980.2337634883997 L 529.0027180429687 1987.5636624050665 Z"/></g></g><g><g><rect fill="white" stroke="none" x="535.1598331329687" y="2006.6213995883998" width="458.2409671614063" height="22.86928462"/></g><text fill="black" stroke="none" font-family="sans-serif" font-size="11pt" font-style="normal" font-weight="normal" text-decoration="normal" x="537.7985967429687" y="2022.4539812483997" text-anchor="start" dominant-baseline="alphabetic" xml:space="preserve">getFromCacheByDetails(title : String, runningTime : int, year : int)</text></g><g><path fill="none" stroke="black" paint-order="fill stroke markers" d=" M 514.3429202096354 2029.4906842084 L 584.7099498096354 2029.4906842084 L 584.7099498096354 2052.3599688284 L 528.8268004689687 2052.3599688284" stroke-miterlimit="10" stroke-width="1.4659797833333332" stroke-dasharray=""/><g transform="translate(514.3429202096354,2052.3599688284) translate(-514.3429202096354,-2052.3599688284)"><path fill="black" stroke="none" paint-order="stroke fill markers" d=" M 529.0027180429687 2045.030069911733 L 514.3429202096354 2052.3599688284 L 529.0027180429687 2059.6898677450663 Z"/></g></g><path fill="white" stroke="black" paint-order="fill stroke markers" d=" M 407.6396441842057 2078.7476049283996 L 552.4383423750651 2078.7476049283996 L 568.270924035065 2094.5801865883996 L 568.270924035065 2119.2086469483997 L 407.6396441842057 2119.2086469483997 L 407.6396441842057 2078.7476049283996 M 552.4383423750651 2078.7476049283996 L 552.4383423750651 2094.5801865883996 L 568.270924035065 2094.5801865883996" stroke-miterlimit="10" stroke-width="1.4659797833333332" stroke-dasharray=""/><g><text fill="black" stroke="none" font-family="sans-serif" font-size="11pt" font-style="normal" font-weight="normal" text-decoration="normal" x="432.2681045442057" y="2103.3760652884" text-anchor="start" dominant-baseline="alphabetic" xml:space="preserve">not in cache yet</text></g><g><g><rect fill="white" stroke="none" x="543.9557118329687" y="2145.5962830484" width="155.3777469465625" height="22.86928462"/></g><text fill="black" stroke="none" font-family="sans-serif" font-size="11pt" font-style="normal" font-weight="normal" text-decoration="normal" x="546.5944754429687" y="2161.4288647084" text-anchor="start" dominant-baseline="alphabetic" xml:space="preserve">getMovie(sql : String)</text></g><g><path fill="none" stroke="black" paint-order="fill stroke markers" d=" M 514.3429202096354 2168.4655676683997 L 593.5058285096354 2168.4655676683997 L 593.5058285096354 2191.3348522884 L 537.6226791689687 2191.3348522884" stroke-miterlimit="10" stroke-width="1.4659797833333332" stroke-dasharray=""/><g transform="translate(523.1387989096354,2191.3348522884) translate(-523.1387989096354,-2191.3348522884)"><path fill="black" stroke="none" paint-order="stroke fill markers" d=" M 537.7985967429687 2184.0049533717333 L 523.1387989096354 2191.3348522884 L 537.7985967429687 2198.6647512050663 Z"/></g></g><g><g><rect fill="white" stroke="none" x="672.7747005505795" y="2217.7224883883996" width="185.94319189285156" height="22.86928462"/></g><text fill="black" stroke="none" font-family="sans-serif" font-size="11pt" font-style="normal" font-weight="normal" text-decoration="normal" x="675.4134641605795" y="2233.5550700483996" text-anchor="start" dominant-baseline="alphabetic" xml:space="preserve">executeQuery(sql : String)</text></g><g><path fill="none" stroke="black" paint-order="fill stroke markers" d=" M 523.1387989096354 2240.5917730083997 L 993.8699138250416 2240.5917730083997" stroke-miterlimit="10" stroke-width="1.4659797833333332" stroke-dasharray=""/><g transform="translate(1008.353794084375,2240.5917730083997) translate(-1008.353794084375,-2240.5917730083997)"><path fill="black" stroke="none" paint-order="stroke fill markers" d=" M 993.6939962510417 2233.2618740917333 L 1008.353794084375 2240.5917730083997 L 993.6939962510417 2247.921671925066 Z"/></g></g><g><path fill="white" stroke="black" paint-order="fill stroke markers" d=" M 1279.518527531724 2293.1031688474 A 26.123759739 26.123759739 0 1 1 1279.5185144698453 2293.077045092015 M 1225.775708674724 2321.6194075928 L 1281.013826910724 2321.6194075928" stroke-miterlimit="10" stroke-width="2.990598758" stroke-dasharray=""/></g><g><g/><text fill="black" stroke="none" font-family="sans-serif" font-size="11pt" font-style="normal" font-weight="normal" text-decoration="normal" x="1246.526474030517" y="2340.7064643718" text-anchor="start" dominant-baseline="alphabetic" xml:space="preserve">m</text></g><g><g><rect fill="white" stroke="none" x="672.8386012661641" y="2284.3600654196" width="403.2373050520313" height="22.86928462"/></g><text fill="black" stroke="none" font-family="sans-serif" font-size="11pt" font-style="normal" font-weight="normal" text-decoration="normal" x="675.4773648761641" y="2300.1926470795997" text-anchor="start" dominant-baseline="alphabetic" xml:space="preserve">PersistentMovie(title : String, runningTime : int, year : int)</text></g><g><path fill="none" stroke="black" paint-order="fill stroke markers" d=" M 523.1387989096354 2307.2293500396 L 1211.2918284153907 2307.2293500396" stroke-miterlimit="10" stroke-width="1.4659797833333332" stroke-dasharray=""/><g transform="translate(1225.775708674724,2307.2293500396) translate(-1225.775708674724,-2307.2293500396)"><path fill="black" stroke="none" paint-order="stroke fill markers" d=" M 1211.1159108413906 2299.8994511229334 L 1225.775708674724 2307.2293500396 L 1211.1159108413906 2314.5592489562664 Z"/></g></g><g><g><rect fill="white" stroke="none" x="881.2300803911797" y="2373.8669270707996" width="5.27752722" height="22.86928462"/></g><text fill="black" stroke="none" font-family="sans-serif" font-size="11pt" font-style="normal" font-weight="normal" text-decoration="normal" x="883.8688440011797" y="2389.6995087307996" text-anchor="start" dominant-baseline="alphabetic" xml:space="preserve"></text></g><g><path fill="none" stroke="black" paint-order="fill stroke markers" d=" M 1244.598889092724 2396.7362116908 L 537.6226791689687 2396.7362116908" stroke-miterlimit="10" stroke-width="1.4659797833333332" stroke-dasharray="7.0367029599999995"/><g transform="translate(523.1387989096354,2396.7362116908) translate(-523.1387989096354,-2396.7362116908)"><path fill="black" stroke="none" paint-order="stroke fill markers" d=" M 537.7985967429687 2389.4063127741333 L 523.1387989096354 2396.7362116908 L 537.7985967429687 2404.0661106074663 Z"/></g></g><g><g><rect fill="white" stroke="none" x="543.9557118329687" y="2423.1238477908" width="66.15795934890625" height="22.86928462"/></g><text fill="black" stroke="none" font-family="sans-serif" font-size="11pt" font-style="normal" font-weight="normal" text-decoration="normal" x="546.5944754429687" y="2438.9564294508" text-anchor="start" dominant-baseline="alphabetic" xml:space="preserve">return m</text></g><g><path fill="none" stroke="black" paint-order="fill stroke markers" d=" M 523.1387989096354 2445.9931324107997 L 593.5058285096354 2445.9931324107997 L 593.5058285096354 2468.8624170308 L 528.8268004689687 2468.8624170308" stroke-miterlimit="10" stroke-width="1.4659797833333332" stroke-dasharray="7.0367029599999995"/><g transform="translate(514.3429202096354,2468.8624170308) translate(-514.3429202096354,-2468.8624170308)"><path fill="black" stroke="none" paint-order="stroke fill markers" d=" M 529.0027180429687 2461.5325181141334 L 514.3429202096354 2468.8624170308 L 529.0027180429687 2476.1923159474663 Z"/></g></g><g><g><rect fill="white" stroke="none" x="535.1598331329687" y="2495.2500531308" width="170.12365759109375" height="22.86928462"/></g><text fill="black" stroke="none" font-family="sans-serif" font-size="11pt" font-style="normal" font-weight="normal" text-decoration="normal" x="537.7985967429687" y="2511.0826347908" text-anchor="start" dominant-baseline="alphabetic" xml:space="preserve">addToCache(m : Movie)</text></g><g><path fill="none" stroke="black" paint-order="fill stroke markers" d=" M 514.3429202096354 2518.1193377508 L 584.7099498096354 2518.1193377508 L 584.7099498096354 2540.9886223708 L 528.8268004689687 2540.9886223708" stroke-miterlimit="10" stroke-width="1.4659797833333332" stroke-dasharray=""/><g transform="translate(514.3429202096354,2540.9886223708) translate(-514.3429202096354,-2540.9886223708)"><path fill="black" stroke="none" paint-order="stroke fill markers" d=" M 529.0027180429687 2533.6587234541335 L 514.3429202096354 2540.9886223708 L 529.0027180429687 2548.3185212874664 Z"/></g></g><g><g><rect fill="white" stroke="none" x="535.1598331329687" y="2567.3762584708" width="66.15795934890625" height="22.86928462"/></g><text fill="black" stroke="none" font-family="sans-serif" font-size="11pt" font-style="normal" font-weight="normal" text-decoration="normal" x="537.7985967429687" y="2583.2088401308" text-anchor="start" dominant-baseline="alphabetic" xml:space="preserve">return m</text></g><g><path fill="none" stroke="black" paint-order="fill stroke markers" d=" M 514.3429202096354 2590.2455430908 L 584.7099498096354 2590.2455430908 L 584.7099498096354 2613.1148277108 L 520.0309217689687 2613.1148277108" stroke-miterlimit="10" stroke-width="1.4659797833333332" stroke-dasharray="7.0367029599999995"/><g transform="translate(505.5470415096354,2613.1148277108) translate(-505.5470415096354,-2613.1148277108)"><path fill="black" stroke="none" paint-order="stroke fill markers" d=" M 520.2068393429687 2605.7849287941335 L 505.5470415096354 2613.1148277108 L 520.2068393429687 2620.4447266274665 Z"/></g></g><g><g><rect fill="white" stroke="none" x="526.3639544329687" y="2639.5024638108002" width="66.15795934890625" height="22.86928462"/></g><text fill="black" stroke="none" font-family="sans-serif" font-size="11pt" font-style="normal" font-weight="normal" text-decoration="normal" x="529.0027180429687" y="2655.3350454708" text-anchor="start" dominant-baseline="alphabetic" xml:space="preserve">return m</text></g><g><path fill="none" stroke="black" paint-order="fill stroke markers" d=" M 505.5470415096354 2662.3717484308 L 575.9140711096354 2662.3717484308 L 575.9140711096354 2685.2410330508 L 511.2350430689687 2685.2410330508" stroke-miterlimit="10" stroke-width="1.4659797833333332" stroke-dasharray="7.0367029599999995"/><g transform="translate(496.7511628096354,2685.2410330508) translate(-496.7511628096354,-2685.2410330508)"><path fill="black" stroke="none" paint-order="stroke fill markers" d=" M 511.41096064296875 2677.9111341341336 L 496.7511628096354 2685.2410330508 L 511.41096064296875 2692.5709319674665 Z"/></g></g><g><g><rect fill="white" stroke="none" x="218.20099737079425" y="2711.6286691508" width="121.92031896804687" height="22.86928462"/></g><text fill="black" stroke="none" font-family="sans-serif" font-size="11pt" font-style="normal" font-weight="normal" text-decoration="normal" x="220.83976098079427" y="2727.4612508108" text-anchor="start" dominant-baseline="alphabetic" xml:space="preserve">return m : Movie</text></g><g><path fill="none" stroke="black" paint-order="fill stroke markers" d=" M 479.1594054096354 2734.4979537708 L 93.64678855933333 2734.4979537708" stroke-miterlimit="10" stroke-width="1.4659797833333332" stroke-dasharray="7.0367029599999995"/><g transform="translate(79.1629083,2734.4979537708) translate(-79.1629083,-2734.4979537708)"><path fill="black" stroke="none" paint-order="stroke fill markers" d=" M 93.82270613333333 2727.1680548541335 L 79.1629083 2734.4979537708 L 93.82270613333333 2741.8278526874665 Z"/></g></g><g><g/><path fill="none" stroke="black" paint-order="fill stroke markers" d=" M 17.591757400000006 173.98248068599997 L 1314.965918692724 173.98248068599997 L 1314.965918692724 2760.8855898708 L 17.591757400000006 2760.8855898708 L 17.591757400000006 173.98248068599997 Z" stroke-miterlimit="10" stroke-width="2.5131082" stroke-dasharray=""/><path fill="white" stroke="black" paint-order="fill stroke markers" d=" M 17.591757400000006 173.98248068599997 L 17.591757400000006 195.09258956599996 L 67.87877256621094 195.09258956599996 L 78.43382700621095 184.53753512599997 L 78.43382700621095 173.98248068599997 L 17.591757400000006 173.98248068599997" stroke-miterlimit="10" stroke-width="2.5131082" stroke-dasharray=""/><text fill="black" stroke="none" font-family="sans-serif" font-size="8.8pt" font-style="normal" font-weight="bold" text-decoration="normal" x="35.183514800000005" y="188.05588660599994" text-anchor="start" dominant-baseline="alphabetic" xml:space="preserve">alt</text><text fill="black" stroke="none" font-family="sans-serif" font-size="8.8pt" font-style="normal" font-weight="bold" text-decoration="normal" x="96.02558440621095" y="188.05588660599994" text-anchor="start" dominant-baseline="alphabetic" xml:space="preserve">[movie already in cache]</text><g><path fill="none" stroke="black" paint-order="fill stroke markers" d=" M 17.591757400000006 458.968950566 L 1314.965918692724 458.968950566" stroke-miterlimit="10" stroke-width="2.5131082" stroke-dasharray="4.39793935"/></g><g/><text fill="black" stroke="none" font-family="sans-serif" font-size="8.8pt" font-style="normal" font-weight="bold" text-decoration="normal" x="96.02558440621095" y="473.04235648599996" text-anchor="start" dominant-baseline="alphabetic" xml:space="preserve">[movie not already in cache]</text><g><path fill="none" stroke="black" paint-order="fill stroke markers" d=" M 17.591757400000006 1093.6091905283997 L 1314.965918692724 1093.6091905283997" stroke-miterlimit="10" stroke-width="2.5131082" stroke-dasharray="4.39793935"/></g><g/><text fill="black" stroke="none" font-family="sans-serif" font-size="8.8pt" font-style="normal" font-weight="bold" text-decoration="normal" x="96.02558440621095" y="1107.6825964483999" text-anchor="start" dominant-baseline="alphabetic" xml:space="preserve">[movie not already in cache or database]</text></g><g/><g/></g><g/><g/><g/></g></svg>