<svg version="1.1" xmlns="http://www.w3.org/2000/svg" xmlns:xlink="http://www.w3.org/1999/xlink" width="2917" height="2351"><desc>actor%20Staff%0Aboundary%20ScreeningDialog%0Aboundary%20StaffUI%0A%0Acontrol%20ManagementSystem%0Aparticipant%20Cinema%0Aparticipant%20ScreenMapper%0Aparticipant%20MovieMapper%0Aparticipant%20ScreeningMapper%0Adatabase%20Database%0Aentity%20s%20(Screen)%0Aentity%20m%20(Movie)%0Aentity%20PersistentScreening%0A%0AStaff-%3EStaffUI%3AscheduleScreening()%0Aactivate%20StaffUI%0A%0AStaffUI-%3E*ScreeningDialog%3AScreeningDialog()%0Aactivate%20ScreeningDialog%0AScreeningDialog--%3EStaffUI%3A%0Adeactivate%20ScreeningDialog%0A%0AStaffUI-%3EScreeningDialog%3AshowAndWait()%0Aactivate%20ScreeningDialog%0AScreeningDialog-%3EStaff%3A%0Aactivate%20Staff%0AStaff--%3EScreeningDialog%3A%0Adeactivate%20Staff%0AScreeningDialog-%3EStaffUI%3Areturn%20sgi%20%3A%20ScreeningInfo%0Adeactivate%20ScreeningDialog%0A%0AStaffUI-%3EManagementSystem%3AscheduleScreening(date%20%3A%20LocalDate%2C%20%5Cntime%20%3A%20LocalTime%2C%20title%20%3A%20String%2C%20%5Cnyear%20%3A%20int%2C%20screenName%20%3A%20String)%0Aactivate%20ManagementSystem%0A%0Aexpandable-%20see%20diagram%2003%20-%20Schedule%20Screening%20ECE%20(double%20screening)%0A%0AManagementSystem-%3EManagementSystem%3AcheckDoubleScreening(time%20%3A%20LocalTime%2C%20screenName%20%3A%20String%2C%20sg%20%3A%20PersistentScreening)%0Aend%20%0A%0Aexpandable-%20see%20diagrams%2003%20-%20Schedule%20Screening%20ACE%20(running%20time%20of%20movie%20is%20longer%20than%20available%20time)%0A%0A%09ManagementSystem-%3EManagementSystem%3AcheckTimeAvailable()%20%20%20%20%20%20%20%20%20%20%20%20%20%20%20%20%20%20%20%20%20%20%20%20%20%20%20%20%20%20%20%20%20%20%20%20%20%20%20%20%20%20%20%20%20%20%20%20%20%20%20%20%20%20%20%20%20%20%20%20%20%20%20%20%20%20%20%20%20%20%20%20%20%20%20%20%20%20%20%20%20%20%20%20%20%20%20%20%20%20%20%20%20%20%20%20%20%20%20%20%20%20%20%20%20%20%20%20%20%20%20%20%20%20%20%20%20%20%20%20%20%20%20%20%20%20%20%20%20%20%20%20%20%20%20%20%20%0Aend%20%0A%0AManagementSystem-%3ECinema%3AscheduleScreening(date%20%3A%20LocalDate%2C%20%5Cntime%20%3A%20LocalTime%2C%20title%20%3A%20String%2C%20%5Cnyear%20%3A%20int%2C%20screenName%20%3A%20String)%0Aactivate%20Cinema%0A%0ACinema-%3EScreenMapper%3AgetScreen(screenName%20%3A%20String)%0Aactivate%20ScreenMapper%0AScreenMapper-%3EScreenMapper%3AgetFromCacheByName(screenName)%0AScreenMapper--%3ECinema%3Areturn%20s%20%3A%20Screen%0Adeactivate%20ScreenMapper%0A%0Aexpandable-%20%5Bsee%2003%20-%20getMovie%20Expanded%20for%20details%20of%20the%20getMovie%20functionality%5D%0A%0ACinema-%3EMovieMapper%3Am%20%3A%3D%20getMovie(title%20%3A%20String%2C%20runningTime%20%3A%20int%2C%20year%20%3A%20int)%0Aend%20%0A%0A%0A%0ACinema-%3EScreeningMapper%3AscheduleScreening(date%20%3A%20LocalDate%2C%20m%20%3A%20Movie%2C%20s%20%3A%20Screen%2C%20time%20%3A%20LocalTime)%0Aactivate%20ScreeningMapper%0AScreeningMapper-%3EDatabase%3Aoid%20%3A%3D%20getId()%0AScreeningMapper-%3EScreeningMapper%3AperformUpdate(sql%20%3A%20String)%0Aactivate%20ScreeningMapper%0A%0A%0AScreeningMapper-%3EDatabase%3AexecuteUpdate(sql%20%3A%20String)%0AScreeningMapper--%3EScreeningMapper%3A%0Adeactivate%20ScreeningMapper%0A%0A%0AScreeningMapper-%3E*PersistentScreening%3APersistentScreening(oid%20%3A%20Integer%2C%5Cndate%20%3A%20LocalDate%2C%20m%20%3A%20Movie%2C%20%5Cns%20%3A%20Screen%2C%20time%20%3A%20LocalTime)%0Aactivate%20PersistentScreening%0APersistentScreening--%3EScreeningMapper%3A%0Adeactivate%20PersistentScreening%0AScreeningMapper--%3ECinema%3A%0Adeactivate%20ScreeningMapper%0ACinema--%3EManagementSystem%3A%0Adeactivate%20Cinema%0AManagementSystem-%3EManagementSystem%3AnotifyObservers()%0Aactivate%20ManagementSystem%0AManagementSystem-%3EStaffUI%3Aupdate()%0Aactivate%20StaffUI%0AStaffUI-%3EManagementSystem%3AgetDate()%0Aactivate%20ManagementSystem%0AManagementSystem--%3EStaffUI%3Areturn%20date%0Adeactivate%20ManagementSystem%0AStaffUI-%3EManagementSystem%3AgetScreenings()%0Aactivate%20ManagementSystem%0AManagementSystem--%3EStaffUI%3Areturn%20screenings%0Adeactivate%20ManagementSystem%0AStaffUI--%3EManagementSystem%3A%0Adeactivate%20StaffUI%0Adeactivateafter%20ManagementSystem%0A%0A%0AManagementSystem--%3EStaffUI%3A%0Adeactivate%20ManagementSystem%0AStaffUI--%3EStaff%3A%0Adeactivate%20StaffUI</desc><defs/><g><g/><g/><g/><g/><g/><g/><g/><g/><g/><g/><g/><g/><g/><g/><g/><g/><g/><g/><g/><g/><g/><g/><g/><g/><g/><g/><g/><g/><g/><g/><g/><g/><g/><g/><g/><g/><g/><g/><g/><g/><g/><g/><g/><g/><g/><g><rect fill="white" stroke="none" x="0" y="0" width="2917" height="2351"/></g><g/><g><path fill="none" stroke="black" paint-order="fill stroke markers" d=" M 24.636958411914062 95.699160256 L 24.636958411914062 2351.455028143199" stroke-miterlimit="10" stroke-width="1.4659797833333332" stroke-dasharray="13.532121076923076,5.863919133333333"/><path fill="none" stroke="black" paint-order="fill stroke markers" d=" M 136.22842158108725 258.246998632 L 136.22842158108725 2351.455028143199" stroke-miterlimit="10" stroke-width="1.4659797833333332" stroke-dasharray="13.532121076923076,5.863919133333333"/><path fill="none" stroke="black" paint-order="fill stroke markers" d=" M 382.95416540957035 95.699160256 L 382.95416540957035 2351.455028143199" stroke-miterlimit="10" stroke-width="1.4659797833333332" stroke-dasharray="13.532121076923076,5.863919133333333"/><path fill="none" stroke="black" paint-order="fill stroke markers" d=" M 712.7814138535807 95.699160256 L 712.7814138535807 2351.455028143199" stroke-miterlimit="10" stroke-width="1.4659797833333332" stroke-dasharray="13.532121076923076,5.863919133333333"/><path fill="none" stroke="black" paint-order="fill stroke markers" d=" M 1539.2619766384764 95.699160256 L 1539.2619766384764 2351.455028143199" stroke-miterlimit="10" stroke-width="1.4659797833333332" stroke-dasharray="13.532121076923076,5.863919133333333"/><path fill="none" stroke="black" paint-order="fill stroke markers" d=" M 1824.3878135455727 95.699160256 L 1824.3878135455727 2351.455028143199" stroke-miterlimit="10" stroke-width="1.4659797833333332" stroke-dasharray="13.532121076923076,5.863919133333333"/><path fill="none" stroke="black" paint-order="fill stroke markers" d=" M 2123.531194744531 95.699160256 L 2123.531194744531 2351.455028143199" stroke-miterlimit="10" stroke-width="1.4659797833333332" stroke-dasharray="13.532121076923076,5.863919133333333"/><path fill="none" stroke="black" paint-order="fill stroke markers" d=" M 2290.7358626996015 95.699160256 L 2290.7358626996015 2351.455028143199" stroke-miterlimit="10" stroke-width="1.4659797833333332" stroke-dasharray="13.532121076923076,5.863919133333333"/><path fill="none" stroke="black" paint-order="fill stroke markers" d=" M 2544.0578055637293 95.699160256 L 2544.0578055637293 2351.455028143199" stroke-miterlimit="10" stroke-width="1.4659797833333332" stroke-dasharray="13.532121076923076,5.863919133333333"/><path fill="none" stroke="black" paint-order="fill stroke markers" d=" M 2630.727128361874 95.699160256 L 2630.727128361874 2351.455028143199" stroke-miterlimit="10" stroke-width="1.4659797833333332" stroke-dasharray="13.532121076923076,5.863919133333333"/><path fill="none" stroke="black" paint-order="fill stroke markers" d=" M 2717.9251937452723 95.699160256 L 2717.9251937452723 2351.455028143199" stroke-miterlimit="10" stroke-width="1.4659797833333332" stroke-dasharray="13.532121076923076,5.863919133333333"/><path fill="none" stroke="black" paint-order="fill stroke markers" d=" M 2839.836912693124 1675.9315439831998 L 2839.836912693124 2351.455028143199" stroke-miterlimit="10" stroke-width="1.4659797833333332" stroke-dasharray="13.532121076923076,5.863919133333333"/></g><g><g><path fill="white" stroke="black" paint-order="fill stroke markers" d=" M 34.66426012991406 21.286026454 A 10.027301717999999 10.027301717999999 0 1 1 34.66425511626362 21.27599915395321 M 24.636958411914062 31.313328172000002 L 24.636958411914062 52.7752722 M 11.970893083914063 39.053701428000004 L 37.30302373991406 39.053701428000004 M 24.636958411914062 52.7752722 L 11.970893083914063 72.829875636 M 24.636958411914062 52.7752722 L 37.30302373991406 72.829875636" stroke-miterlimit="10" stroke-width="2.990598758" stroke-dasharray=""/></g><g><g/><text fill="black" stroke="none" font-family="sans-serif" font-size="11pt" font-style="normal" font-weight="normal" text-decoration="normal" x="8.7958787" y="90.421633036" text-anchor="start" dominant-baseline="alphabetic" xml:space="preserve">Staff</text></g><g><path fill="white" stroke="black" paint-order="fill stroke markers" d=" M 417.87380384857033 45.210816517999994 A 26.123759739 26.123759739 0 1 1 417.8737907866916 45.18469276261494 M 349.5298263495704 17.591757399999995 L 349.5298263495704 72.829875636 M 348.03452697057037 45.210816517999994 L 365.6262843705704 45.210816517999994" stroke-miterlimit="10" stroke-width="2.990598758" stroke-dasharray=""/></g><g><g/><text fill="black" stroke="none" font-family="sans-serif" font-size="11pt" font-style="normal" font-weight="normal" text-decoration="normal" x="359.48602576113285" y="90.421633036" text-anchor="start" dominant-baseline="alphabetic" xml:space="preserve">StaffUI</text></g><g><path fill="white" stroke="black" paint-order="fill stroke markers" d=" M 738.9051735925807 45.210816517999994 A 26.123759739 26.123759739 0 1 1 738.9051605307019 45.18469276261494 M 709.2630623735807 19.087056778999994 L 719.8181168135808 10.291178078999994 M 709.2630623735807 19.087056778999994 L 719.8181168135808 27.882935478999993" stroke-miterlimit="10" stroke-width="2.990598758" stroke-dasharray=""/></g><g><g/><text fill="black" stroke="none" font-family="sans-serif" font-size="11pt" font-style="normal" font-weight="normal" text-decoration="normal" x="640.8594396714518" y="90.421633036" text-anchor="start" dominant-baseline="alphabetic" xml:space="preserve">ManagementSystem</text></g><path fill="none" stroke="none"/><g><path fill="white" stroke="black" paint-order="fill stroke markers" d=" M 1493.725380674906 48.201415276000006 L 1584.7985726020468 48.201415276000006 L 1584.7985726020468 95.699160256 L 1493.725380674906 95.699160256 L 1493.725380674906 48.201415276000006 Z" stroke-miterlimit="10" stroke-width="2.814681184" stroke-dasharray=""/></g><g><g/><text fill="black" stroke="none" font-family="sans-serif" font-size="11pt" font-style="normal" font-weight="normal" text-decoration="normal" x="1512.812437453906" y="78.107402856" text-anchor="start" dominant-baseline="alphabetic" xml:space="preserve">Cinema</text></g><path fill="none" stroke="none"/><g><path fill="white" stroke="black" paint-order="fill stroke markers" d=" M 1754.330831839815 48.201415276000006 L 1894.4447952513306 48.201415276000006 L 1894.4447952513306 95.699160256 L 1754.330831839815 95.699160256 L 1754.330831839815 48.201415276000006 Z" stroke-miterlimit="10" stroke-width="2.814681184" stroke-dasharray=""/></g><g><g/><text fill="black" stroke="none" font-family="sans-serif" font-size="11pt" font-style="normal" font-weight="normal" text-decoration="normal" x="1773.417888618815" y="78.107402856" text-anchor="start" dominant-baseline="alphabetic" xml:space="preserve">ScreenMapper</text></g><path fill="none" stroke="none"/><g><path fill="white" stroke="black" paint-order="fill stroke markers" d=" M 2055.131317530961 48.201415276000006 L 2191.9310719581017 48.201415276000006 L 2191.9310719581017 95.699160256 L 2055.131317530961 95.699160256 L 2055.131317530961 48.201415276000006 Z" stroke-miterlimit="10" stroke-width="2.814681184" stroke-dasharray=""/></g><g><g/><text fill="black" stroke="none" font-family="sans-serif" font-size="11pt" font-style="normal" font-weight="normal" text-decoration="normal" x="2074.218374309961" y="78.107402856" text-anchor="start" dominant-baseline="alphabetic" xml:space="preserve">MovieMapper</text></g><path fill="none" stroke="none"/><g><path fill="white" stroke="black" paint-order="fill stroke markers" d=" M 2209.5228293581017 48.201415276000006 L 2371.9488960411018 48.201415276000006 L 2371.9488960411018 95.699160256 L 2209.5228293581017 95.699160256 L 2209.5228293581017 48.201415276000006 Z" stroke-miterlimit="10" stroke-width="2.814681184" stroke-dasharray=""/></g><g><g/><text fill="black" stroke="none" font-family="sans-serif" font-size="11pt" font-style="normal" font-weight="normal" text-decoration="normal" x="2228.6098861371015" y="78.107402856" text-anchor="start" dominant-baseline="alphabetic" xml:space="preserve">ScreeningMapper</text></g><g><path fill="white" stroke="black" paint-order="fill stroke markers" d=" M 2518.3738397597294 61.219315752 L 2518.3738397597294 24.276625212000003 L 2569.741771367729 24.276625212000003 L 2569.741771367729 61.219315752" stroke-miterlimit="10" stroke-width="2.990598758" stroke-dasharray=""/><path fill="white" stroke="black" paint-order="fill stroke markers" d=" M 2569.741771367729 22.992426921800003 L 2569.740487180141 23.108530585556366 L 2569.736634745793 23.224622639043105 L 2569.7302144499254 23.34069147315161 L 2569.721226934563 23.45672548109521 L 2569.70967309845 23.572713059569786 L 2569.6955540969593 23.688642609914158 L 2569.6788713419805 23.804502539269897 L 2569.6596265017747 23.920281261740616 L 2569.63782150081 24.03596719955055 L 2569.6134585195678 24.151548784202323 L 2569.5865399943264 24.26701445763379 L 2569.557068616916 24.382352673373823 L 2569.5250473344495 24.497551897696965 L 2569.4904793490286 24.612600610776788 L 2569.453368117423 24.72748730783785 L 2569.4137173507247 24.84220050030619 L 2569.371531013978 24.956728716958153 L 2569.3268133257807 25.07106050506751 L 2569.2795687578646 25.18518443155073 L 2569.229802034647 25.299089084110268 L 2569.1775181327594 25.412763072375785 L 2569.1227222805474 25.526195029043187 L 2569.0654199575515 25.63937361101133 L 2569.0056168939554 25.75228750051633 L 2568.9433190700165 25.86492540626334 L 2568.8785327154646 25.97727606455564 L 2568.811264308881 26.089328240421032 L 2568.7415205770512 26.201070728735306 L 2568.66930849429 26.312492355342748 L 2568.5946352817446 26.423581978173544 L 2568.517508406675 26.53432848835799 L 2568.4379355817046 26.644720811337358 L 2568.3559247640483 26.754747907971336 L 2568.271484154721 26.864398775641956 L 2568.184622197712 26.973662449353824 L 2568.0953475791457 27.08252800283062 L 2568.003669226409 27.190984549607727 L 2567.9095963072605 27.29902124412083 L 2567.8131382289143 27.406627282790524 L 2567.7143046370975 27.513791905102604 L 2567.6131054150874 27.620504394684144 L 2567.509550682721 27.726754080375116 L 2567.403650795386 27.83253033729549 L 2567.295416342983 27.93782258790772 L 2567.184858148866 28.04262030307449 L 2567.0719872687637 28.14691300311161 L 2566.956814989669 28.25069025883599 L 2566.8393528287143 28.353941692608544 L 2566.719612532017 28.456656979371925 L 2566.5976060735084 28.55882584768306 L 2566.4733456537315 28.660438080740256 L 2566.3468436986254 28.761483517404887 L 2566.2181128582797 28.861952053217486 L 2566.087166005672 28.961833641408198 L 2565.954016235377 29.061118293901444 L 2565.8186768622622 29.1597960823147 L 2565.681161420151 29.257857138951366 L 2565.541483660474 29.355291657787486 L 2565.3996575508904 29.452089895452378 L 2565.2556972738926 29.54824217220294 L 2565.109617225389 29.643738872891625 L 2564.9614320132623 29.73857044792794 L 2564.81115645591 29.83272741423341 L 2564.658805580763 29.92620035618987 L 2564.5043946227815 30.018979926581018 L 2564.347939022933 30.111056847527124 L 2564.1894544266474 30.20242191141283 L 2564.0289566822516 30.293065981807885 L 2563.8664618393864 30.382979994380786 L 2563.7019861474005 30.472154957805202 L 2563.5355460537266 30.560581954659103 L 2563.3671582022353 30.648252142316494 L 2563.196839431571 30.735156753831664 L 2563.0246067734693 30.821287098815887 L 2562.850477451052 30.906634564306433 L 2562.6744688771064 30.991190615627882 L 2562.4965986523434 31.074946797245563 L 2562.3168845636374 31.15789473361111 L 2562.135344582247 31.24002613000001 L 2561.9519968620193 31.321332773341062 L 2561.7668597375737 31.4018065330377 L 2561.5799517224677 31.481439361781 L 2561.3912915073483 31.560223296354458 L 2561.2008979580787 31.638150458430268 L 2561.0087901138554 31.715213055357157 L 2560.814987185303 31.791403380939656 L 2560.619508552553 31.8667138162087 L 2560.422373763305 31.941136830183517 L 2560.2236025308744 32.01466498062472 L 2560.0232147322185 32.08729091477856 L 2559.8212304059502 32.15900737011212 L 2559.617669750334 32.22980717503965 L 2559.4125531212653 32.29968324963964 L 2559.205901030237 32.368628606362876 L 2558.9977341422846 32.43663635073112 L 2558.788073273925 32.50369968202662 L 2558.576939391069 32.569811893972144 L 2558.36435360693 32.63496637540157 L 2558.150337179908 32.69915661092105 L 2557.9349115114687 32.76237618156054 L 2557.718098143999 32.82461876541566 L 2557.4999187586545 32.88587813827987 L 2557.2803951731926 32.94614817426695 L 2557.059549339788 33.005422846423535 L 2556.837403342841 33.06369622733178 L 2556.6139793967654 33.12096248970218 L 2556.38929984377 33.1772159069562 L 2556.163387151623 33.232450853798994 L 2555.9362639114047 33.28666180678192 L 2555.707952835251 33.339843344854856 L 2555.478476754078 33.391990149908295 L 2555.2478586153034 33.4430970073052 L 2555.0161214805485 33.49315880640242 L 2554.7832885233342 33.54217054106175 L 2554.5493830267615 33.590127310150585 L 2554.3144283811853 33.637024318031976 L 2554.0784480818747 33.68285687504421 L 2553.841465726663 33.72762039796977 L 2553.603505013588 33.77131041049369 L 2553.364589738522 33.81392254365112 L 2553.124743792795 33.85545253626423 L 2552.8839911608006 33.8958962353684 L 2552.642355917602 33.9352495966274 L 2552.3998622265212 33.9735086847379 L 2552.156534336726 34.01066967382299 L 2551.912396580802 34.046728847814705 L 2551.6674733723225 34.081682600825715 L 2551.421789203403 34.11552743750983 L 2551.1753686422567 34.1482599734116 L 2550.9282363307334 34.179876935304705 L 2550.680416981859 34.210375161519295 L 2550.4319353773612 34.23975160225818 L 2550.182816365194 34.26800331990176 L 2549.9330848570507 34.295127489301805 L 2549.6827658258744 34.321121398063994 L 2549.431884303359 34.34598244681909 L 2549.1804653774484 34.36970814948297 L 2548.928534189825 34.3922961335051 L 2548.676115933398 34.413744140105926 L 2548.4232358497825 34.43405002450265 L 2548.1699192267765 34.453211756123764 L 2547.916191395831 34.47122741881206 L 2547.6620777295175 34.4880952110163 L 2547.4076036389906 34.5038134459713 L 2547.152794571448 34.518380551866684 L 2546.897676007584 34.53179507200398 L 2546.6422734590415 34.54405566494237 L 2546.386612465864 34.555161104632774 L 2546.1307185939363 34.565110280540466 L 2545.8746174324333 34.573902197756155 L 2545.6183345912573 34.58153597709545 L 2545.361895698479 34.58801085518677 L 2545.105326397774 34.59332618454771 L 2544.8486523458587 34.59748143364976 L 2544.591899209924 34.60047618697147 L 2544.3350926650696 34.60231014504 L 2544.0782583917367 34.60298312446108 L 2543.8214220731375 34.60249505793733 L 2543.5646093926907 34.600845994274984 L 2543.30784603145 34.59803609837904 L 2543.051157665537 34.594065651236754 L 2542.7945699635757 34.58893504988952 L 2542.5381085841213 34.5826448073932 L 2542.2817991730985 34.57519555276681 L 2542.025667361235 34.566588030929594 L 2541.769738761498 34.556823102626566 L 2541.514038966535 34.545901744342416 L 2541.2585935461116 34.53382504820388 L 2541.003428044557 34.52059422187051 L 2540.7485679782094 34.5062105884139 L 2540.4940388328623 34.49067558618542 L 2540.239866061219 34.47399076867234 L 2539.986075080344 34.45615780434251 L 2539.732691269124 34.4371784764775 L 2539.47973996573 34.41705468299429 L 2539.22724646508 34.395788436255444 L 2538.9752360163147 34.37338186286793 L 2538.723733820269 34.34983720347041 L 2538.472765026952 34.32515681250919 L 2538.222354733035 34.29934315800281 L 2537.972527979338 34.27239882129521 L 2537.723309748328 34.24432649679761 L 2537.474724961621 34.21512899171906 L 2537.226798477489 34.18480922578574 L 2536.9795550883728 34.15337023094897 L 2536.7330195184054 34.12081515108205 L 2536.4872164209382 34.08714724166582 L 2536.242170376077 34.05236986946318 L 2535.997905888222 34.016486512182354 L 2535.754447383617 33.97950075812918 L 2535.5118192079112 33.94141630584823 L 2535.270045623719 33.90223696375301 L 2535.0291508081978 33.86196664974507 L 2534.7891588506286 33.820609390822256 L 2534.5500937500065 33.77816932267599 L 2534.311979412643 33.734650689277736 L 2534.074839649773 33.69005784245455 L 2533.838698175175 33.644395241453964 L 2533.6035786028 33.59766745249802 L 2533.36950444441 33.54987914832668 L 2533.136499107224 33.50103510773054 L 2532.9045858915833 33.45114021507295 L 2532.6737879886155 33.40019945980159 L 2532.444128477918 33.34821793594955 L 2532.2156303252514 33.29520084162589 L 2531.9883163802406 33.24115347849587 L 2531.7622093740897 33.18608125125075 L 2531.537331917312 33.12998966706737 L 2531.3137064974644 33.07288433505741 L 2531.091355476904 33.01477096570647 L 2530.870301090547 32.95565537030307 L 2530.6505654436473 32.89554346035748 L 2530.432170509587 32.8344412470106 L 2530.215138127678 32.772354840432854 L 2529.999490000977 32.709290449213164 L 2529.7852476941166 32.645254379738084 L 2529.5724326311497 32.580253035561206 L 2529.361066093405 32.514292916762784 L 2529.15116921736 32.44738061929973 L 2528.942762992527 32.37952283434602 L 2528.735868259356 32.310726347623614 L 2528.530505707147 32.24099803872385 L 2528.326695871984 32.17034488041951 L 2528.1244591346813 32.09877393796755 L 2527.9238157187438 32.026292368402565 L 2527.7247856883455 31.952907419821116 L 2527.527388946324 31.87862643065691 L 2527.331645232189 31.803456828946963 L 2527.137574120149 31.727406131588797 L 2526.9451950171533 31.65048194358878 L 2526.7545271609515 31.572691957301604 L 2526.5655896181706 31.494043951661077 L 2526.3784012824076 31.41454579140222 L 2526.19298087234 31.334205426274806 L 2526.009346929854 31.25303089024841 L 2525.827517818191 31.171030300708985 L 2525.6475117201107 31.088211857647146 L 2525.469346636073 31.004583842838187 L 2525.293040382438 30.9201546190139 L 2525.1186105896836 30.834932629026305 L 2524.946074700644 30.748926395003394 L 2524.7754499687644 30.662144517496888 L 2524.606753456376 30.574595674622223 L 2524.4400020329886 30.486288621190724 L 2524.2752123736063 30.397232187834156 L 2524.1124009570576 30.307435280121634 L 2523.9515840643485 30.216906877669096 L 2523.7927777770346 30.125656033241356 L 2523.635997975611 30.033691871846806 L 2523.481260337929 29.941023589824955 L 2523.328580337622 29.84766045392678 L 2523.177973242564 29.753611800388065 L 2523.0294541133376 29.658887033995796 L 2522.883037801733 29.563495627147667 L 2522.7387389492587 29.467447118904882 L 2522.5965719856804 29.370751114038217 L 2522.456551127575 29.27341728206758 L 2522.318690376913 29.175455356295057 L 2522.183003519653 29.07687513283159 L 2522.0495041243694 28.977686469617378 L 2521.9182055408887 28.877899285436083 L 2521.7891208989613 28.777523558922972 L 2521.6622631069426 28.67656932756704 L 2521.537644850507 28.575046686707307 L 2521.415278591376 28.472965788523247 L 2521.2951765660737 28.37033684101962 L 2521.1773507847024 28.267170107005644 L 2521.0618130297416 28.16347590306875 L 2520.9485748548714 28.059264598542924 L 2520.837647583814 27.954546614471777 L 2520.729042309205 27.849332422566448 L 2520.6227698914804 27.743632544158448 L 2520.5188409577945 27.637457549147538 L 2520.4172659009528 27.53081805494474 L 2520.3180548783776 27.423724725410608 L 2520.221217811087 27.316188269788846 L 2520.1267643827086 27.208219441635414 L 2520.034704038506 27.099829037743145 L 2519.945045984436 26.991027897062104 L 2519.8577991862307 26.881826899615692 L 2519.7729723684965 26.77223696541266 L 2519.690574013844 26.662269053355093 L 2519.610612362041 26.55193416014256 L 2519.5330954091855 26.441243319172447 L 2519.4580309069083 26.330207599436594 L 2519.3854263615967 26.218838104414456 L 2519.3152890336455 26.10714597096272 L 2519.2476259367286 25.99514236820166 L 2519.182443837099 25.882838496398215 L 2519.1197492529127 25.770245585845977 L 2519.059548453576 25.657374895742176 L 2519.0018474591184 25.544237713061765 L 2518.9466520395913 25.43084535142873 L 2518.893967714491 25.317209149984738 L 2518.8437997522055 25.203340472255242 L 2518.79615316949 25.08925070501312 L 2518.7510327309624 24.974951257140024 L 2518.708442948629 24.860453558485496 L 2518.6683880814326 24.74576905872398 L 2518.630872134827 24.630909226209884 L 2518.595898860375 24.515885546830745 L 2518.5634717553753 24.40070952285865 L 2518.5335940625114 24.28539267180001 L 2518.506268769527 24.169946525243844 L 2518.4814986089295 24.05438262770859 L 2518.459286057714 23.93871253548771 L 2518.439633337117 23.82294781549403 L 2518.4225424123943 23.707100044103075 L 2518.408014992624 23.591180805995453 L 2518.396052530536 23.47520169299837 L 2518.3866562223666 23.359174302926476 L 2518.379827007739 23.243110238422094 L 2518.3755655695686 23.12702110579495 L 2518.3738723339957 23.01091851386157 L 2518.3747474703428 22.894814072784392 L 2518.378190891097 22.77871939291077 L 2518.3842022519184 22.66264608361195 L 2518.3927809516763 22.546605752122133 L 2518.4039261325083 22.430610002377765 L 2518.417636679905 22.314670433857163 L 2518.4339112228236 22.19879864042056 L 2518.4527481338228 22.08300620915074 L 2518.474145529228 21.967304719194335 L 2518.4981012693165 21.851705740603922 L 2518.524612958535 21.736220833181036 L 2518.553677945736 21.620861545320174 L 2518.585293324446 21.505639412853995 L 2518.619455933153 21.390565957899724 L 2518.656162355624 21.275652687706962 L 2518.695408921248 21.16091109350697 L 2518.737191705401 21.046352649363552 L 2518.7815065298396 20.93198881102565 L 2518.828348963118 20.817831014781802 L 2518.877714321032 20.703890676316497 L 2518.929597667087 20.590179189568637 L 2518.9839938129912 20.47670792559213 L 2519.0408973191757 20.36348823141882 L 2519.1003024953375 20.25053142892377 L 2519.1622034010084 20.137848813693108 L 2519.226593846149 20.025451653894443 L 2519.2934673917694 19.913351189150102 L 2519.3628173505695 19.801558629413137 L 2519.434636787612 19.69008515384636 L 2519.5089185210127 19.57894190970444 L 2519.5856551226607 19.468140011219166 L 2519.664838918959 19.357690538488054 L 2519.7464619915945 19.24760453636634 L 2519.8305161783283 19.13789301336249 L 2519.9169930738108 19.028566940537385 L 2520.005884030425 18.9196372504072 L 2520.0971801591495 18.811114835850173 L 2520.1908723304473 18.703010549017325 L 2520.2869511751796 18.595335200247256 L 2520.3854070855414 18.488099556985112 L 2520.486230216024 18.381314342705853 L 2520.5894104843987 18.274990235841926 L 2520.6949375727245 18.169137868715406 L 2520.8028009283803 18.063767826474802 L 2520.9129897651205 17.95889064603653 L 2521.0254930641536 17.854516815031236 L 2521.140299575243 17.750656770755036 L 2521.257397817833 17.647320899125816 L 2521.3767760821975 17.544519533644625 L 2521.4984224306095 17.44226295436234 L 2521.622324698535 17.34056138685168 L 2521.7484704958515 17.239425001184642 L 2521.8768472080833 17.13886391091551 L 2522.007441997667 17.038888172069516 L 2522.140241805231 16.939507782137227 L 2522.2752333509075 16.840732679074826 L 2522.4124031356528 16.742572740310298 L 2522.5517374426026 16.645037781755725 L 2522.6932223384433 16.548137556825687 L 2522.836843674803 16.45188175546192 L 2522.982587089667 16.35628000316435 L 2523.1304380088163 16.261341860028544 L 2523.2803816472815 16.167076819789692 L 2523.4324030108237 16.073494308873272 L 2523.5864868974336 15.980603685452383 L 2523.7426178988508 15.888414238511963 L 2523.900780402105 15.79693518691988 L 2524.060958591078 15.706175678505064 L 2524.2231364480845 15.61614478914272 L 2524.3872977554734 15.526851521846762 L 2524.5534260972513 15.438304805869507 L 2524.721504860722 15.350513495808762 L 2524.8915172381494 15.26348637072238 L 2525.063446228438 15.177232133250339 L 2525.2372746388314 15.091759408744515 L 2525.4129850866334 15.00707674440613 L 2525.5905600009455 14.923192608431044 L 2525.7699816244253 14.840115389162959 L 2525.951232015059 14.757853394254566 L 2526.134293047958 14.676414849836805 L 2526.319146417173 14.595807899696254 L 2526.505773637521 14.516040604460756 L 2526.6941560464343 14.437120940793358 L 2526.88427480583 14.359056800594665 L 2527.07611090399 14.281855990213637 L 2527.2696451574648 14.205526229666987 L 2527.46485821299 14.130075151867153 L 2527.661730549423 14.055510301859046 L 2527.860242479694 13.981839136065528 L 2528.0603741527752 13.909069021541786 L 2528.262105555667 13.837207235238628 L 2528.465416515396 13.766260963274803 L 2528.6702867010363 13.696237300218385 L 2528.8766956257405 13.627143248377326 L 2529.084622648787 13.558985717099231 L 2529.2940469776477 13.491771522080432 L 2529.5049476700638 13.425507384684419 L 2529.717303636142 13.360199931269712 L 2529.931093640462 13.295855692527226 L 2530.146296304203 13.23248110282722 L 2530.3628901072766 13.170082499575852 L 2530.5808533904838 13.108666122581443 L 2530.800164357677 13.04823811343052 L 2531.0208010779434 12.988804514873634 L 2531.242741487794 12.930371270221118 L 2531.465963393373 12.87294422274874 L 2531.6904444726756 12.816529115113394 L 2531.9161622777815 12.76113158877883 L 2532.143094237098 12.706757183451517 L 2532.371217657618 12.653411336526675 L 2532.60050972719 12.601099382544545 L 2532.830947516798 12.549826552656928 L 2533.062507982855 12.499597974104088 L 2533.2951679695075 12.450418669702023 L 2533.5289042109503 12.402293557340188 L 2533.7636933337544 12.35522744948972 L 2533.9995118592033 12.309225052722176 L 2534.236336205641 12.264290967238905 L 2534.4741426908295 12.220429686411006 L 2534.7129075343187 12.17764559633001 L 2534.952606859824 12.135942975369273 L 2535.1932166976117 12.09532599375614 L 2535.4347129868993 12.055798713154925 L 2535.677071578258 12.017365086260746 L 2535.920268236032 11.980028956404269 L 2536.1642786407574 11.943794057167361 L 2536.4090783915967 11.908664012009755 L 2536.6546430087797 11.874642333906689 L 2536.900947936049 11.841732424997623 L 2537.147968543117 11.809937576246021 L 2537.3956801281283 11.779260967110266 L 2537.644057920132 11.749705665225706 L 2537.893077081555 11.7212746260979 L 2538.1427127106895 11.693970692807069 L 2538.3929398441796 11.667796595723788 L 2538.643733459521 11.642754952235952 L 2538.8950684775614 11.618848266487047 L 2539.1469197650076 11.59607892912572 L 2539.3992621369416 11.57444921706674 L 2539.652070359336 11.55396129326328 L 2539.90531915158 11.534617206490651 L 2540.158983189004 11.51641889114141 L 2540.413037105417 11.499368167031927 L 2540.6674554956385 11.483466739220404 L 2540.922212918041 11.46871619783637 L 2541.177283897096 11.455118017921672 L 2541.4326429259163 11.44267355928297 L 2541.6882644688135 11.431384066355758 L 2541.944122963845 11.421250668079919 L 2542.2001928253753 11.412274377786838 L 2542.456448446632 11.404456093098062 L 2542.7128642022653 11.397796595835548 L 2542.969414450914 11.392296551943469 L 2543.226073537767 11.387956511421633 L 2543.4828157971297 11.384776908270476 L 2543.7396155549895 11.382758060447662 L 2543.9964471315857 11.38190016983629 L 2544.2532848439732 11.38220332222471 L 2544.510103008596 11.38366748729793 L 2544.766875943851 11.38629251864067 L 2545.0235779726595 11.390078153751977 L 2545.2801834250313 11.395024014071499 L 2545.5366666406358 11.40112960501732 L 2545.793001971365 11.40839431603544 L 2546.0491637838995 11.41681742066081 L 2546.3051264622713 11.42639807658998 L 2546.560864410426 11.437135325765349 L 2546.816352054782 11.449028094470941 L 2547.0715638467877 11.462075193439802 L 2547.3264742654765 11.476275317972902 L 2547.581057820019 11.491627048069626 L 2547.835289052272 11.508128848569752 L 2548.089142539324 11.525779069306987 L 2548.342592896038 11.544575945273964 L 2548.5956147775887 11.564517596798748 L 2548.8481828820004 11.585602029732806 L 2549.100271952672 11.607827135650416 L 2549.3518567809065 11.631190692059505 L 2549.602912208431 11.655690362623902 L 2549.853413129912 11.68132369739697 L 2550.1033344954662 11.708088133066587 L 2550.352651313165 11.735980993211495 L 2550.6013386515347 11.764999488568922 L 2550.849371642048 11.795140717313513 L 2551.0967254816137 11.826401665347511 L 2551.343375435053 11.858779206602165 L 2551.589296837577 11.89227010335033 L 2551.8344650972494 11.92687100653024 L 2552.078855697449 11.962578456080411 L 2552.3224441993193 11.999388881285645 L 2552.565206244213 12.037298601134095 L 2552.807117556129 12.076303824685368 L 2553.048153944136 12.116400651449613 L 2553.2882913047974 12.15758507177757 L 2553.5275056245764 12.199852967261522 L 2553.7657729822413 12.243200111147148 L 2554.0030695512537 12.28762216875618 L 2554.239371602155 12.333114697919875 L 2554.4746555049373 12.379673149423226 L 2554.708897731406 12.427292867459885 L 2554.942074857534 12.47596909009773 L 2555.1741635658027 12.525696949755057 L 2555.405140647535 12.576471473687343 L 2555.634983005215 12.628287584484506 L 2555.863667654798 12.681140100578647 L 2556.0911717280105 12.735023736762198 L 2556.317472474634 12.789933104716448 L 2556.5425472647835 12.845862713550355 L 2556.766373591166 12.902806970349646 L 2556.9889290713368 12.960760180736091 L 2557.210191449932 13.01971654943695 L 2557.4301386008997 13.07967018086448 L 2557.6487485297066 13.140615079705501 L 2557.865999375543 13.202545151520916 L 2558.081869413505 13.265454203355151 L 2558.2963370567686 13.329335944355446 L 2558.5093808587485 13.394183986400938 L 2558.7209795152417 13.459991844741461 L 2558.9311118665587 13.52675293864602 L 2559.1397568996404 13.594460592060857 L 2559.346893750156 13.663108034277055 L 2559.5525017045943 13.732688400607602 L 2559.756560202331 13.803194733073843 L 2559.9590488376857 13.87461998110129 L 2560.159947361964 13.946957002224657 L 2560.359235685481 14.020198562802118 L 2560.55689387957 14.094337338738645 L 2560.752902178577 14.16936591621843 L 2560.947240981835 14.245276792446244 L 2561.1398908556257 14.322062376397728 L 2561.3308325351218 14.399714989578472 L 2561.5200469263154 14.478226866791868 L 2561.7075151079243 14.557590156915623 L 2561.8932183332868 14.637796923686858 L 2562.0771380322353 14.718839146495737 L 2562.259255812953 14.800708721187512 L 2562.439553463814 14.88339746087294 L 2562.618012955202 14.966897096746958 L 2562.7946164413183 15.051199278915561 L 2562.969346261961 15.136295577230786 L 2563.142184944293 15.222177482133715 L 2563.3131152045908 15.30883640550542 L 2563.4821199499706 15.396263681525788 L 2563.6491822800986 15.484450567540065 L 2563.814285488881 15.573388244933145 L 2563.9774130661344 15.663067820011399 L 2564.1385486992376 15.753480324892053 L 2564.2976762747608 15.844616718399962 L 2564.4547798800795 15.936467886971723 L 2564.609843804964 16.02902464556702 L 2564.762852543151 16.122277738587123 L 2564.9137907938943 16.216217840800443 L 2565.062643463494 16.31083555827504 L 2565.209395666808 16.40612142931802 L 2565.3540327287383 16.502065925421675 L 2565.496540185699 16.59865945221635 L 2565.6369037870627 16.695892350429865 L 2565.7751094965865 16.793754896853418 L 2565.9111434938145 16.892237305313927 L 2566.044992175461 16.991329727652605 L 2566.176642156769 17.091022254709806 L 2566.3060802728496 17.191304917315893 L 2566.43329358 17.292167687288174 L 2566.558269356994 17.393600478433708 L 2566.6809951063597 17.495593147557905 L 2566.801458555624 17.59813549547885 L 2566.9196476585416 17.701217268047195 L 2567.035550596301 17.80482815717159 L 2567.149155778706 17.90895780184946 L 2567.2604518453313 18.01359578920312 L 2567.3694276666643 18.118731655521024 L 2567.4760723452137 18.22435488730416 L 2567.5803752165994 18.330454922317365 L 2567.6823258506224 18.437021150645553 L 2567.7819140523034 18.544042915754694 L 2567.8791298629058 18.65150951555747 L 2567.9739635609294 18.75941020348345 L 2568.066405663083 18.86773418955376 L 2568.1564469252344 18.97647064146006 L 2568.2440783433312 19.085608685647777 L 2568.3292911543053 19.19513740840344 L 2568.4120768369467 19.305045856946045 L 2568.4924271127556 19.415323040522324 L 2568.570333946772 19.525957931505822 L 2568.6457895483773 19.636939466499637 L 2568.7187863720737 19.74825654744275 L 2568.78931711824 19.859898042719834 L 2568.8573747338605 19.97185278827439 L 2568.92295241323 20.084109588725166 L 2568.9860435986357 20.196657218485658 L 2569.0466419810114 20.309484422886683 L 2569.1047415005696 20.422579919301818 L 2569.160336347406 20.535932398275673 L 2569.2134209620826 20.649530524654807 L 2569.263990036183 20.76336293872125 L 2569.312038512841 20.877418257328454 L 2569.3575615872487 20.991685075039605 L 2569.4005547071374 21.10615196526815 L 2569.441013573231 21.220807481420458 L 2569.478934139676 21.33564015804046 L 2569.5143126144476 21.450638511956186 L 2569.5471454597277 21.565791043428078 L 2569.577429392259 21.68108623729895 L 2569.6051613836744 21.796512564145488 L 2569.630338660797 21.9120584814312 L 2569.65295870592 22.027712434660646 L 2569.673019257058 22.14346285853488 L 2569.6905183081726 22.259298178107972 L 2569.7054541093735 22.375206809944494 L 2569.717825167093 22.491177163277854 L 2569.727630244235 22.60719764116936 L 2569.7348683603004 22.723256641667906 L 2569.739538791484 22.839342558970156 L 2569.741641070746 22.95544378458112 M 2569.741771367729 59.9351174618 L 2569.740487180141 60.05122112555636 L 2569.736634745793 60.1673131790431 L 2569.7302144499254 60.28338201315161 L 2569.721226934563 60.3994160210952 L 2569.70967309845 60.51540359956978 L 2569.6955540969593 60.631333149914155 L 2569.6788713419805 60.74719307926989 L 2569.6596265017747 60.86297180174061 L 2569.63782150081 60.97865773955054 L 2569.6134585195678 61.09423932420232 L 2569.5865399943264 61.209704997633786 L 2569.557068616916 61.32504321337382 L 2569.5250473344495 61.44024243769696 L 2569.4904793490286 61.55529115077678 L 2569.453368117423 61.67017784783785 L 2569.4137173507247 61.784891040306185 L 2569.371531013978 61.89941925695815 L 2569.3268133257807 62.01375104506751 L 2569.2795687578646 62.127874971550725 L 2569.229802034647 62.241779624110265 L 2569.1775181327594 62.35545361237578 L 2569.1227222805474 62.46888556904318 L 2569.0654199575515 62.58206415101132 L 2569.0056168939554 62.694978040516325 L 2568.9433190700165 62.80761594626333 L 2568.8785327154646 62.91996660455563 L 2568.811264308881 63.032018780421026 L 2568.7415205770512 63.1437612687353 L 2568.66930849429 63.25518289534274 L 2568.5946352817446 63.36627251817354 L 2568.517508406675 63.47701902835799 L 2568.4379355817046 63.58741135133735 L 2568.3559247640483 63.69743844797133 L 2568.271484154721 63.80708931564195 L 2568.184622197712 63.91635298935382 L 2568.0953475791457 64.02521854283061 L 2568.003669226409 64.13367508960772 L 2567.9095963072605 64.24171178412082 L 2567.8131382289143 64.34931782279051 L 2567.7143046370975 64.4564824451026 L 2567.6131054150874 64.56319493468413 L 2567.509550682721 64.66944462037512 L 2567.403650795386 64.77522087729548 L 2567.295416342983 64.88051312790772 L 2567.184858148866 64.98531084307449 L 2567.0719872687637 65.08960354311161 L 2566.956814989669 65.19338079883599 L 2566.8393528287143 65.29663223260853 L 2566.719612532017 65.39934751937191 L 2566.5976060735084 65.50151638768305 L 2566.4733456537315 65.60312862074025 L 2566.3468436986254 65.70417405740488 L 2566.2181128582797 65.80464259321748 L 2566.087166005672 65.90452418140819 L 2565.954016235377 66.00380883390143 L 2565.8186768622622 66.1024866223147 L 2565.681161420151 66.20054767895135 L 2565.541483660474 66.29798219778748 L 2565.3996575508904 66.39478043545238 L 2565.2556972738926 66.49093271220293 L 2565.109617225389 66.58642941289162 L 2564.9614320132623 66.68126098792794 L 2564.81115645591 66.7754179542334 L 2564.658805580763 66.86889089618987 L 2564.5043946227815 66.96167046658101 L 2564.347939022933 67.05374738752711 L 2564.1894544266474 67.14511245141283 L 2564.0289566822516 67.23575652180789 L 2563.8664618393864 67.32567053438078 L 2563.7019861474005 67.4148454978052 L 2563.5355460537266 67.5032724946591 L 2563.3671582022353 67.59094268231648 L 2563.196839431571 67.67784729383166 L 2563.0246067734693 67.76397763881587 L 2562.850477451052 67.84932510430643 L 2562.6744688771064 67.93388115562787 L 2562.4965986523434 68.01763733724556 L 2562.3168845636374 68.1005852736111 L 2562.135344582247 68.18271667 L 2561.9519968620193 68.26402331334106 L 2561.7668597375737 68.34449707303769 L 2561.5799517224677 68.42412990178099 L 2561.3912915073483 68.50291383635445 L 2561.2008979580787 68.58084099843026 L 2561.0087901138554 68.65790359535715 L 2560.814987185303 68.73409392093966 L 2560.619508552553 68.80940435620869 L 2560.422373763305 68.88382737018351 L 2560.2236025308744 68.95735552062472 L 2560.0232147322185 69.02998145477855 L 2559.8212304059502 69.10169791011212 L 2559.617669750334 69.17249771503964 L 2559.4125531212653 69.24237378963963 L 2559.205901030237 69.31131914636286 L 2558.9977341422846 69.37932689073111 L 2558.788073273925 69.44639022202662 L 2558.576939391069 69.51250243397213 L 2558.36435360693 69.57765691540156 L 2558.150337179908 69.64184715092105 L 2557.9349115114687 69.70506672156054 L 2557.718098143999 69.76730930541565 L 2557.4999187586545 69.82856867827986 L 2557.2803951731926 69.88883871426695 L 2557.059549339788 69.94811338642353 L 2556.837403342841 70.00638676733178 L 2556.6139793967654 70.06365302970217 L 2556.38929984377 70.1199064469562 L 2556.163387151623 70.175141393799 L 2555.9362639114047 70.22935234678192 L 2555.707952835251 70.28253388485484 L 2555.478476754078 70.33468068990828 L 2555.2478586153034 70.3857875473052 L 2555.0161214805485 70.4358493464024 L 2554.7832885233342 70.48486108106175 L 2554.5493830267615 70.53281785015058 L 2554.3144283811853 70.57971485803196 L 2554.0784480818747 70.6255474150442 L 2553.841465726663 70.67031093796977 L 2553.603505013588 70.71400095049368 L 2553.364589738522 70.7566130836511 L 2553.124743792795 70.79814307626422 L 2552.8839911608006 70.83858677536838 L 2552.642355917602 70.87794013662739 L 2552.3998622265212 70.9161992247379 L 2552.156534336726 70.95336021382298 L 2551.912396580802 70.9894193878147 L 2551.6674733723225 71.0243731408257 L 2551.421789203403 71.05821797750983 L 2551.1753686422567 71.0909505134116 L 2550.9282363307334 71.12256747530469 L 2550.680416981859 71.1530657015193 L 2550.4319353773612 71.18244214225817 L 2550.182816365194 71.21069385990175 L 2549.9330848570507 71.2378180293018 L 2549.6827658258744 71.26381193806398 L 2549.431884303359 71.2886729868191 L 2549.1804653774484 71.31239868948296 L 2548.928534189825 71.3349866735051 L 2548.676115933398 71.35643468010592 L 2548.4232358497825 71.37674056450265 L 2548.1699192267765 71.39590229612375 L 2547.916191395831 71.41391795881206 L 2547.6620777295175 71.43078575101629 L 2547.4076036389906 71.4465039859713 L 2547.152794571448 71.46107109186667 L 2546.897676007584 71.47448561200397 L 2546.6422734590415 71.48674620494236 L 2546.386612465864 71.49785164463276 L 2546.1307185939363 71.50780082054045 L 2545.8746174324333 71.51659273775616 L 2545.6183345912573 71.52422651709544 L 2545.361895698479 71.53070139518677 L 2545.105326397774 71.53601672454771 L 2544.8486523458587 71.54017197364975 L 2544.591899209924 71.54316672697146 L 2544.3350926650696 71.54500068504 L 2544.0782583917367 71.54567366446108 L 2543.8214220731375 71.54518559793732 L 2543.5646093926907 71.54353653427498 L 2543.30784603145 71.54072663837904 L 2543.051157665537 71.53675619123675 L 2542.7945699635757 71.53162558988952 L 2542.5381085841213 71.5253353473932 L 2542.2817991730985 71.5178860927668 L 2542.025667361235 71.50927857092958 L 2541.769738761498 71.49951364262655 L 2541.514038966535 71.48859228434242 L 2541.2585935461116 71.47651558820388 L 2541.003428044557 71.4632847618705 L 2540.7485679782094 71.4489011284139 L 2540.4940388328623 71.4333661261854 L 2540.239866061219 71.41668130867232 L 2539.986075080344 71.3988483443425 L 2539.732691269124 71.3798690164775 L 2539.47973996573 71.35974522299428 L 2539.22724646508 71.33847897625544 L 2538.9752360163147 71.31607240286793 L 2538.723733820269 71.2925277434704 L 2538.472765026952 71.26784735250918 L 2538.222354733035 71.24203369800281 L 2537.972527979338 71.21508936129521 L 2537.723309748328 71.18701703679761 L 2537.474724961621 71.15781953171906 L 2537.226798477489 71.12749976578573 L 2536.9795550883728 71.09606077094897 L 2536.7330195184054 71.06350569108204 L 2536.4872164209382 71.02983778166582 L 2536.242170376077 70.99506040946316 L 2535.997905888222 70.95917705218234 L 2535.754447383617 70.92219129812916 L 2535.5118192079112 70.88410684584822 L 2535.270045623719 70.844927503753 L 2535.0291508081978 70.80465718974506 L 2534.7891588506286 70.76329993082226 L 2534.5500937500065 70.720859862676 L 2534.311979412643 70.67734122927773 L 2534.074839649773 70.63274838245455 L 2533.838698175175 70.58708578145396 L 2533.6035786028 70.54035799249802 L 2533.36950444441 70.49256968832668 L 2533.136499107224 70.44372564773053 L 2532.9045858915833 70.39383075507294 L 2532.6737879886155 70.34288999980159 L 2532.444128477918 70.29090847594955 L 2532.2156303252514 70.23789138162589 L 2531.9883163802406 70.18384401849586 L 2531.7622093740897 70.12877179125074 L 2531.537331917312 70.07268020706736 L 2531.3137064974644 70.0155748750574 L 2531.091355476904 69.95746150570646 L 2530.870301090547 69.89834591030306 L 2530.6505654436473 69.83823400035747 L 2530.432170509587 69.7771317870106 L 2530.215138127678 69.71504538043285 L 2529.999490000977 69.65198098921316 L 2529.7852476941166 69.58794491973808 L 2529.5724326311497 69.5229435755612 L 2529.361066093405 69.45698345676277 L 2529.15116921736 69.39007115929972 L 2528.942762992527 69.32221337434602 L 2528.735868259356 69.25341688762362 L 2528.530505707147 69.18368857872385 L 2528.326695871984 69.11303542041951 L 2528.1244591346813 69.04146447796754 L 2527.9238157187438 68.96898290840255 L 2527.7247856883455 68.89559795982112 L 2527.527388946324 68.82131697065691 L 2527.331645232189 68.74614736894696 L 2527.137574120149 68.6700966715888 L 2526.9451950171533 68.59317248358877 L 2526.7545271609515 68.5153824973016 L 2526.5655896181706 68.43673449166107 L 2526.3784012824076 68.3572363314022 L 2526.19298087234 68.27689596627481 L 2526.009346929854 68.19572143024841 L 2525.827517818191 68.11372084070898 L 2525.6475117201107 68.03090239764714 L 2525.469346636073 67.94727438283817 L 2525.293040382438 67.86284515901389 L 2525.1186105896836 67.7776231690263 L 2524.946074700644 67.69161693500338 L 2524.7754499687644 67.60483505749689 L 2524.606753456376 67.51728621462222 L 2524.4400020329886 67.42897916119072 L 2524.2752123736063 67.33992272783415 L 2524.1124009570576 67.25012582012162 L 2523.9515840643485 67.15959741766909 L 2523.7927777770346 67.06834657324134 L 2523.635997975611 66.9763824118468 L 2523.481260337929 66.88371412982495 L 2523.328580337622 66.79035099392678 L 2523.177973242564 66.69630234038806 L 2523.0294541133376 66.60157757399578 L 2522.883037801733 66.50618616714766 L 2522.7387389492587 66.41013765890487 L 2522.5965719856804 66.31344165403821 L 2522.456551127575 66.21610782206757 L 2522.318690376913 66.11814589629505 L 2522.183003519653 66.01956567283159 L 2522.0495041243694 65.92037700961737 L 2521.9182055408887 65.82058982543607 L 2521.7891208989613 65.72021409892297 L 2521.6622631069426 65.61925986756704 L 2521.537644850507 65.5177372267073 L 2521.415278591376 65.41565632852324 L 2521.2951765660737 65.31302738101961 L 2521.1773507847024 65.20986064700564 L 2521.0618130297416 65.10616644306874 L 2520.9485748548714 65.00195513854293 L 2520.837647583814 64.89723715447177 L 2520.729042309205 64.79202296256643 L 2520.6227698914804 64.68632308415845 L 2520.5188409577945 64.58014808914753 L 2520.4172659009528 64.47350859494473 L 2520.3180548783776 64.3664152654106 L 2520.221217811087 64.25887880978884 L 2520.1267643827086 64.15090998163541 L 2520.034704038506 64.04251957774314 L 2519.945045984436 63.9337184370621 L 2519.8577991862307 63.82451743961569 L 2519.7729723684965 63.71492750541265 L 2519.690574013844 63.60495959335508 L 2519.610612362041 63.49462470014256 L 2519.5330954091855 63.38393385917244 L 2519.4580309069083 63.272898139436585 L 2519.3854263615967 63.161528644414446 L 2519.3152890336455 63.04983651096271 L 2519.2476259367286 62.937832908201656 L 2519.182443837099 62.82552903639821 L 2519.1197492529127 62.71293612584597 L 2519.059548453576 62.600065435742174 L 2519.0018474591184 62.486928253061755 L 2518.9466520395913 62.37353589142872 L 2518.893967714491 62.259899689984735 L 2518.8437997522055 62.146031012255236 L 2518.79615316949 62.031941245013115 L 2518.7510327309624 61.91764179714002 L 2518.708442948629 61.80314409848549 L 2518.6683880814326 61.68845959872397 L 2518.630872134827 61.57359976620988 L 2518.595898860375 61.45857608683074 L 2518.5634717553753 61.34340006285864 L 2518.5335940625114 61.228083211800005 L 2518.506268769527 61.11263706524384 L 2518.4814986089295 60.997073167708585 L 2518.459286057714 60.881403075487704 L 2518.439633337117 60.765638355494026 L 2518.4225424123943 60.64979058410307 L 2518.408014992624 60.53387134599544 L 2518.396052530536 60.41789223299836 L 2518.3866562223666 60.30186484292647 L 2518.379827007739 60.185800778422085 L 2518.3755655695686 60.069711645794946 L 2518.3738723339957 59.95360905386156" stroke-miterlimit="10" stroke-width="2.990598758" stroke-dasharray=""/></g><g><g/><text fill="black" stroke="none" font-family="sans-serif" font-size="11pt" font-style="normal" font-weight="normal" text-decoration="normal" x="2511.4593940036707" y="90.421633036" text-anchor="start" dominant-baseline="alphabetic" xml:space="preserve">Database</text></g><g><path fill="white" stroke="black" paint-order="fill stroke markers" d=" M 2656.850888100874 42.81833751159999 A 26.123759739 26.123759739 0 1 1 2656.850875038995 42.792213756214935 M 2603.108069243874 71.334576257 L 2658.3461874798736 71.334576257" stroke-miterlimit="10" stroke-width="2.990598758" stroke-dasharray=""/></g><g><g/><text fill="black" stroke="none" font-family="sans-serif" font-size="11pt" font-style="normal" font-weight="normal" text-decoration="normal" x="2596.8330777637293" y="90.421633036" text-anchor="start" dominant-baseline="alphabetic" xml:space="preserve">s(Screen)</text></g><g><path fill="white" stroke="black" paint-order="fill stroke markers" d=" M 2744.0489534842723 42.81833751159999 A 26.123759739 26.123759739 0 1 1 2744.0489404223936 42.792213756214935 M 2690.3061346272725 71.334576257 L 2745.544252863272 71.334576257" stroke-miterlimit="10" stroke-width="2.990598758" stroke-dasharray=""/></g><g><g/><text fill="black" stroke="none" font-family="sans-serif" font-size="11pt" font-style="normal" font-weight="normal" text-decoration="normal" x="2682.2129363600184" y="90.421633036" text-anchor="start" dominant-baseline="alphabetic" xml:space="preserve">m(Movie)</text></g></g><g><path fill="white" stroke="black" paint-order="fill stroke markers" d=" M 374.15828670957035 153.751959676 L 391.75004410957035 153.751959676 L 391.75004410957035 2289.883877243199 L 374.15828670957035 2289.883877243199 L 374.15828670957035 153.751959676" stroke-miterlimit="10" stroke-width="1.4659797833333332" stroke-dasharray=""/><path fill="white" stroke="black" paint-order="fill stroke markers" d=" M 127.43254288108724 258.246998632 L 145.02430028108725 258.246998632 L 145.02430028108725 307.50391935199997 L 127.43254288108724 307.50391935199997 L 127.43254288108724 258.246998632" stroke-miterlimit="10" stroke-width="1.4659797833333332" stroke-dasharray=""/><path fill="white" stroke="black" paint-order="fill stroke markers" d=" M 127.43254288108724 356.76084007199995 L 145.02430028108725 356.76084007199995 L 145.02430028108725 504.5316022319999 L 127.43254288108724 504.5316022319999 L 127.43254288108724 356.76084007199995" stroke-miterlimit="10" stroke-width="1.4659797833333332" stroke-dasharray=""/><path fill="white" stroke="black" paint-order="fill stroke markers" d=" M 15.841079711914062 406.01776079199993 L 33.43283711191406 406.01776079199993 L 33.43283711191406 455.2746815119999 L 15.841079711914062 455.2746815119999 L 15.841079711914062 406.01776079199993" stroke-miterlimit="10" stroke-width="1.4659797833333332" stroke-dasharray=""/><path fill="white" stroke="black" paint-order="fill stroke markers" d=" M 703.9855351535807 588.9720377519999 L 721.5772925535807 588.9720377519999 L 721.5772925535807 2240.626956523199 L 703.9855351535807 2240.626956523199 L 703.9855351535807 588.9720377519999" stroke-miterlimit="10" stroke-width="1.4659797833333332" stroke-dasharray=""/><path fill="white" stroke="black" paint-order="fill stroke markers" d=" M 1530.4660979384764 965.4356461119999 L 1548.0578553384764 965.4356461119999 L 1548.0578553384764 1823.7023061431996 L 1530.4660979384764 1823.7023061431996 L 1530.4660979384764 965.4356461119999" stroke-miterlimit="10" stroke-width="1.4659797833333332" stroke-dasharray=""/><path fill="white" stroke="black" paint-order="fill stroke markers" d=" M 1815.5919348455727 1014.6925668319999 L 1833.1836922455727 1014.6925668319999 L 1833.1836922455727 1136.0756928919998 L 1815.5919348455727 1136.0756928919998 L 1815.5919348455727 1014.6925668319999" stroke-miterlimit="10" stroke-width="1.4659797833333332" stroke-dasharray=""/><path fill="white" stroke="black" paint-order="fill stroke markers" d=" M 2281.9399839996017 1308.4749154119997 L 2299.5317413996013 1308.4749154119997 L 2299.5317413996013 1774.4453854231997 L 2281.9399839996017 1774.4453854231997 L 2281.9399839996017 1308.4749154119997" stroke-miterlimit="10" stroke-width="1.4659797833333332" stroke-dasharray=""/><path fill="white" stroke="black" paint-order="fill stroke markers" d=" M 2290.7358626996015 1429.8580414719997 L 2308.327620099601 1429.8580414719997 L 2308.327620099601 1528.3718829119998 L 2290.7358626996015 1528.3718829119998 L 2290.7358626996015 1429.8580414719997" stroke-miterlimit="10" stroke-width="1.4659797833333332" stroke-dasharray=""/><path fill="white" stroke="black" paint-order="fill stroke markers" d=" M 2831.041033993124 1675.9315439831998 L 2848.6327913931236 1675.9315439831998 L 2848.6327913931236 1725.1884647031998 L 2831.041033993124 1725.1884647031998 L 2831.041033993124 1675.9315439831998" stroke-miterlimit="10" stroke-width="1.4659797833333332" stroke-dasharray=""/><path fill="white" stroke="black" paint-order="fill stroke markers" d=" M 712.7814138535807 1895.8285114831997 L 730.3731712535807 1895.8285114831997 L 730.3731712535807 2203.684265983199 L 712.7814138535807 2203.684265983199 L 712.7814138535807 1895.8285114831997" stroke-miterlimit="10" stroke-width="1.4659797833333332" stroke-dasharray=""/><path fill="white" stroke="black" paint-order="fill stroke markers" d=" M 382.95416540957035 1945.0854322031996 L 400.54592280957036 1945.0854322031996 L 400.54592280957036 2191.3700358031992 L 382.95416540957035 2191.3700358031992 L 382.95416540957035 1945.0854322031996" stroke-miterlimit="10" stroke-width="1.4659797833333332" stroke-dasharray=""/><path fill="white" stroke="black" paint-order="fill stroke markers" d=" M 721.5772925535807 1994.3423529231995 L 739.1690499535807 1994.3423529231995 L 739.1690499535807 2043.5992736431995 L 721.5772925535807 2043.5992736431995 L 721.5772925535807 1994.3423529231995" stroke-miterlimit="10" stroke-width="1.4659797833333332" stroke-dasharray=""/><path fill="white" stroke="black" paint-order="fill stroke markers" d=" M 721.5772925535807 2092.8561943631994 L 739.1690499535807 2092.8561943631994 L 739.1690499535807 2142.1131150831993 L 721.5772925535807 2142.1131150831993 L 721.5772925535807 2092.8561943631994" stroke-miterlimit="10" stroke-width="1.4659797833333332" stroke-dasharray=""/><g><g><rect fill="white" stroke="none" x="126.21482971490236" y="130.882675056" width="146.36558569167968" height="22.86928462"/></g><text fill="black" stroke="none" font-family="sans-serif" font-size="11pt" font-style="normal" font-weight="normal" text-decoration="normal" x="128.85359332490236" y="146.71525671600003" text-anchor="start" dominant-baseline="alphabetic" xml:space="preserve">scheduleScreening()</text></g><g><path fill="none" stroke="black" paint-order="fill stroke markers" d=" M 24.636958411914062 153.751959676 L 359.67440645023703 153.751959676" stroke-miterlimit="10" stroke-width="1.4659797833333332" stroke-dasharray=""/><g transform="translate(374.15828670957035,153.751959676) translate(-374.15828670957035,-153.751959676)"><path fill="black" stroke="none" paint-order="stroke fill markers" d=" M 359.498488876237 146.42206075933333 L 374.15828670957035 153.751959676 L 359.498488876237 161.0818585926667 Z"/></g></g><g><path fill="white" stroke="black" paint-order="fill stroke markers" d=" M 171.14806002008726 206.26335551499997 A 26.123759739 26.123759739 0 1 1 171.14804695820845 206.23723175961493 M 102.80408252108724 178.64429639699998 L 102.80408252108724 233.88241463299997 M 101.30878314208724 206.26335551499997 L 118.90054054208724 206.26335551499997" stroke-miterlimit="10" stroke-width="2.990598758" stroke-dasharray=""/></g><g><g/><text fill="black" stroke="none" font-family="sans-serif" font-size="11pt" font-style="normal" font-weight="normal" text-decoration="normal" x="78.75168360501303" y="251.47417203299997" text-anchor="start" dominant-baseline="alphabetic" xml:space="preserve">ScreeningDialog</text></g><g><g><rect fill="white" stroke="none" x="218.9200118304948" y="196.32401258399997" width="130.02342260574218" height="22.86928462"/></g><text fill="black" stroke="none" font-family="sans-serif" font-size="11pt" font-style="normal" font-weight="normal" text-decoration="normal" x="221.5587754404948" y="212.156594244" text-anchor="start" dominant-baseline="alphabetic" xml:space="preserve">ScreeningDialog()</text></g><g><path fill="none" stroke="black" paint-order="fill stroke markers" d=" M 374.15828670957035 219.19329720399998 L 208.1890398164948 219.19329720399998" stroke-miterlimit="10" stroke-width="1.4659797833333332" stroke-dasharray=""/><g transform="translate(193.70515955716147,219.19329720399998) translate(-193.70515955716147,-219.19329720399998)"><path fill="black" stroke="none" paint-order="stroke fill markers" d=" M 208.3649573904948 211.8633982873333 L 193.70515955716147 219.19329720399998 L 208.3649573904948 226.52319612066665 Z"/></g></g><g><g><rect fill="white" stroke="none" x="256.9525298853288" y="284.634634732" width="5.27752722" height="22.86928462"/></g><text fill="black" stroke="none" font-family="sans-serif" font-size="11pt" font-style="normal" font-weight="normal" text-decoration="normal" x="259.5912934953288" y="300.467216392" text-anchor="start" dominant-baseline="alphabetic" xml:space="preserve"></text></g><g><path fill="none" stroke="black" paint-order="fill stroke markers" d=" M 145.02430028108725 307.50391935199997 L 359.67440645023703 307.50391935199997" stroke-miterlimit="10" stroke-width="1.4659797833333332" stroke-dasharray="7.0367029599999995"/><g transform="translate(374.15828670957035,307.50391935199997) translate(-374.15828670957035,-307.50391935199997)"><path fill="black" stroke="none" paint-order="stroke fill markers" d=" M 359.498488876237 300.1740204353333 L 374.15828670957035 307.50391935199997 L 359.498488876237 314.8338182686666 Z"/></g></g><g><g><rect fill="white" stroke="none" x="203.44142148689127" y="333.891555452" width="112.299744016875" height="22.86928462"/></g><text fill="black" stroke="none" font-family="sans-serif" font-size="11pt" font-style="normal" font-weight="normal" text-decoration="normal" x="206.08018509689128" y="349.724137112" text-anchor="start" dominant-baseline="alphabetic" xml:space="preserve">showAndWait()</text></g><g><path fill="none" stroke="black" paint-order="fill stroke markers" d=" M 374.15828670957035 356.76084007199995 L 159.5081805404206 356.76084007199995" stroke-miterlimit="10" stroke-width="1.4659797833333332" stroke-dasharray=""/><g transform="translate(145.02430028108725,356.76084007199995) translate(-145.02430028108725,-356.76084007199995)"><path fill="black" stroke="none" paint-order="stroke fill markers" d=" M 159.68409811442058 349.4309411553333 L 145.02430028108725 356.76084007199995 L 159.68409811442058 364.0907389886666 Z"/></g></g><g><g><rect fill="white" stroke="none" x="77.79392638650064" y="383.14847617199996" width="5.27752722" height="22.86928462"/></g><text fill="black" stroke="none" font-family="sans-serif" font-size="11pt" font-style="normal" font-weight="normal" text-decoration="normal" x="80.43268999650064" y="398.981057832" text-anchor="start" dominant-baseline="alphabetic" xml:space="preserve"></text></g><g><path fill="none" stroke="black" paint-order="fill stroke markers" d=" M 127.43254288108724 406.01776079199993 L 47.916717371247394 406.01776079199993" stroke-miterlimit="10" stroke-width="1.4659797833333332" stroke-dasharray=""/><g transform="translate(33.43283711191406,406.01776079199993) translate(-33.43283711191406,-406.01776079199993)"><path fill="black" stroke="none" paint-order="stroke fill markers" d=" M 48.0926349452474 398.6878618753333 L 33.43283711191406 406.01776079199993 L 48.0926349452474 413.3476597086666 Z"/></g></g><g><g><rect fill="white" stroke="none" x="77.79392638650064" y="432.40539689199994" width="5.27752722" height="22.86928462"/></g><text fill="black" stroke="none" font-family="sans-serif" font-size="11pt" font-style="normal" font-weight="normal" text-decoration="normal" x="80.43268999650064" y="448.23797855199996" text-anchor="start" dominant-baseline="alphabetic" xml:space="preserve"></text></g><g><path fill="none" stroke="black" paint-order="fill stroke markers" d=" M 33.43283711191406 455.2746815119999 L 112.94866262175391 455.2746815119999" stroke-miterlimit="10" stroke-width="1.4659797833333332" stroke-dasharray="7.0367029599999995"/><g transform="translate(127.43254288108724,455.2746815119999) translate(-127.43254288108724,-455.2746815119999)"><path fill="black" stroke="none" paint-order="stroke fill markers" d=" M 112.77274504775392 447.94478259533327 L 127.43254288108724 455.2746815119999 L 112.77274504775392 462.60458042866657 Z"/></g></g><g><g><rect fill="white" stroke="none" x="168.78147123054362" y="481.6623176119999" width="181.6196445295703" height="22.86928462"/></g><text fill="black" stroke="none" font-family="sans-serif" font-size="11pt" font-style="normal" font-weight="normal" text-decoration="normal" x="171.42023484054363" y="497.49489927199994" text-anchor="start" dominant-baseline="alphabetic" xml:space="preserve">returnsgi:ScreeningInfo</text></g><g><path fill="none" stroke="black" paint-order="fill stroke markers" d=" M 145.02430028108725 504.5316022319999 L 359.67440645023703 504.5316022319999" stroke-miterlimit="10" stroke-width="1.4659797833333332" stroke-dasharray=""/><g transform="translate(374.15828670957035,504.5316022319999) translate(-374.15828670957035,-504.5316022319999)"><path fill="black" stroke="none" paint-order="stroke fill markers" d=" M 359.498488876237 497.20170331533325 L 374.15828670957035 504.5316022319999 L 359.498488876237 511.86150114866655 Z"/></g></g><g><g><rect fill="white" stroke="none" x="416.96489638290365" y="530.9192383319998" width="261.8057864973438" height="22.86928462"/></g><g><rect fill="white" stroke="none" x="416.96489638290365" y="548.5109957319999" width="215.76423681472656" height="22.86928462"/></g><g><rect fill="white" stroke="none" x="416.96489638290365" y="566.1027531319999" width="219.1428836653125" height="22.86928462"/></g><text fill="black" stroke="none" font-family="sans-serif" font-size="11pt" font-style="normal" font-weight="normal" text-decoration="normal" x="419.60365999290366" y="546.7518199919998" text-anchor="start" dominant-baseline="alphabetic" xml:space="preserve">scheduleScreening(date:LocalDate,</text><text fill="black" stroke="none" font-family="sans-serif" font-size="11pt" font-style="normal" font-weight="normal" text-decoration="normal" x="419.60365999290366" y="564.3435773919998" text-anchor="start" dominant-baseline="alphabetic" xml:space="preserve">time:LocalTime,title:String,</text><text fill="black" stroke="none" font-family="sans-serif" font-size="11pt" font-style="normal" font-weight="normal" text-decoration="normal" x="419.60365999290366" y="581.9353347919998" text-anchor="start" dominant-baseline="alphabetic" xml:space="preserve">year:int,screenName:String)</text></g><g><path fill="none" stroke="black" paint-order="fill stroke markers" d=" M 391.75004410957035 588.9720377519999 L 689.5016548942474 588.9720377519999" stroke-miterlimit="10" stroke-width="1.4659797833333332" stroke-dasharray=""/><g transform="translate(703.9855351535807,588.9720377519999) translate(-703.9855351535807,-588.9720377519999)"><path fill="black" stroke="none" paint-order="stroke fill markers" d=" M 689.3257373202474 581.6421388353332 L 703.9855351535807 588.9720377519999 L 689.3257373202474 596.3019366686666 Z"/></g></g><g><g><rect fill="white" stroke="none" x="742.3942054769141" y="662.8574188319999" width="611.684021360625" height="22.86928462"/></g><text fill="black" stroke="none" font-family="sans-serif" font-size="11pt" font-style="normal" font-weight="normal" text-decoration="normal" x="745.032969086914" y="678.6900004919999" text-anchor="start" dominant-baseline="alphabetic" xml:space="preserve">checkDoubleScreening(time:LocalTime,screenName:String,sg:PersistentScreening)</text></g><g><path fill="none" stroke="black" paint-order="fill stroke markers" d=" M 721.5772925535807 685.7267034519998 L 791.9443221535807 685.7267034519998 L 791.9443221535807 708.5959880719998 L 736.061172812914 708.5959880719998" stroke-miterlimit="10" stroke-width="1.4659797833333332" stroke-dasharray=""/><g transform="translate(721.5772925535807,708.5959880719998) translate(-721.5772925535807,-708.5959880719998)"><path fill="black" stroke="none" paint-order="stroke fill markers" d=" M 736.237090386914 701.2660891553331 L 721.5772925535807 708.5959880719998 L 736.237090386914 715.9258869886665 Z"/></g></g><g><g><rect fill="white" stroke="none" x="742.3942054769141" y="808.8690052519999" width="746.7312625715625" height="22.86928462"/></g><text fill="black" stroke="none" font-family="sans-serif" font-size="11pt" font-style="normal" font-weight="normal" text-decoration="normal" x="745.032969086914" y="824.7015869119998" text-anchor="start" dominant-baseline="alphabetic" xml:space="preserve">checkTimeAvailable()</text></g><g><path fill="none" stroke="black" paint-order="fill stroke markers" d=" M 721.5772925535807 831.7382898719998 L 791.9443221535807 831.7382898719998 L 791.9443221535807 854.6075744919998 L 736.061172812914 854.6075744919998" stroke-miterlimit="10" stroke-width="1.4659797833333332" stroke-dasharray=""/><g transform="translate(721.5772925535807,854.6075744919998) translate(-721.5772925535807,-854.6075744919998)"><path fill="black" stroke="none" paint-order="stroke fill markers" d=" M 736.237090386914 847.2776755753331 L 721.5772925535807 854.6075744919998 L 736.237090386914 861.9374734086665 Z"/></g></g><g><g><rect fill="white" stroke="none" x="995.1188019973569" y="907.3828466919998" width="261.8057864973438" height="22.86928462"/></g><g><rect fill="white" stroke="none" x="995.1188019973569" y="924.9746040919998" width="215.76423681472656" height="22.86928462"/></g><g><rect fill="white" stroke="none" x="995.1188019973569" y="942.5663614919998" width="219.1428836653125" height="22.86928462"/></g><text fill="black" stroke="none" font-family="sans-serif" font-size="11pt" font-style="normal" font-weight="normal" text-decoration="normal" x="997.7575656073568" y="923.2154283519998" text-anchor="start" dominant-baseline="alphabetic" xml:space="preserve">scheduleScreening(date:LocalDate,</text><text fill="black" stroke="none" font-family="sans-serif" font-size="11pt" font-style="normal" font-weight="normal" text-decoration="normal" x="997.7575656073568" y="940.8071857519998" text-anchor="start" dominant-baseline="alphabetic" xml:space="preserve">time:LocalTime,title:String,</text><text fill="black" stroke="none" font-family="sans-serif" font-size="11pt" font-style="normal" font-weight="normal" text-decoration="normal" x="997.7575656073568" y="958.3989431519998" text-anchor="start" dominant-baseline="alphabetic" xml:space="preserve">year:int,screenName:String)</text></g><g><path fill="none" stroke="black" paint-order="fill stroke markers" d=" M 721.5772925535807 965.4356461119999 L 1515.982217679143 965.4356461119999" stroke-miterlimit="10" stroke-width="1.4659797833333332" stroke-dasharray=""/><g transform="translate(1530.4660979384764,965.4356461119999) translate(-1530.4660979384764,-965.4356461119999)"><path fill="black" stroke="none" paint-order="stroke fill markers" d=" M 1515.806300105143 958.1057471953332 L 1530.4660979384764 965.4356461119999 L 1515.806300105143 972.7655450286666 Z"/></g></g><g><g><rect fill="white" stroke="none" x="1568.8747682618098" y="991.8232822119999" width="225.90025366042968" height="22.86928462"/></g><text fill="black" stroke="none" font-family="sans-serif" font-size="11pt" font-style="normal" font-weight="normal" text-decoration="normal" x="1571.5135318718098" y="1007.6558638719998" text-anchor="start" dominant-baseline="alphabetic" xml:space="preserve">getScreen(screenName:String)</text></g><g><path fill="none" stroke="black" paint-order="fill stroke markers" d=" M 1548.0578553384764 1014.6925668319999 L 1801.1080545862394 1014.6925668319999" stroke-miterlimit="10" stroke-width="1.4659797833333332" stroke-dasharray=""/><g transform="translate(1815.5919348455727,1014.6925668319999) translate(-1815.5919348455727,-1014.6925668319999)"><path fill="black" stroke="none" paint-order="stroke fill markers" d=" M 1800.9321370122393 1007.3626679153332 L 1815.5919348455727 1014.6925668319999 L 1800.9321370122393 1022.0224657486666 Z"/></g></g><g><g><rect fill="white" stroke="none" x="1854.000605168906" y="1041.0802029319998" width="263.373474485625" height="22.86928462"/></g><text fill="black" stroke="none" font-family="sans-serif" font-size="11pt" font-style="normal" font-weight="normal" text-decoration="normal" x="1856.6393687789061" y="1056.9127845919998" text-anchor="start" dominant-baseline="alphabetic" xml:space="preserve">getFromCacheByName(screenName)</text></g><g><path fill="none" stroke="black" paint-order="fill stroke markers" d=" M 1833.1836922455727 1063.949487552 L 1903.5507218455728 1063.949487552 L 1903.5507218455728 1086.8187721719999 L 1847.667572504906 1086.8187721719999" stroke-miterlimit="10" stroke-width="1.4659797833333332" stroke-dasharray=""/><g transform="translate(1833.1836922455727,1086.8187721719999) translate(-1833.1836922455727,-1086.8187721719999)"><path fill="black" stroke="none" paint-order="stroke fill markers" d=" M 1847.8434900789061 1079.4888732553331 L 1833.1836922455727 1086.8187721719999 L 1847.8434900789061 1094.1486710886666 Z"/></g></g><g><g><rect fill="white" stroke="none" x="1622.6829423951106" y="1113.2064082719999" width="118.28390539382812" height="22.86928462"/></g><text fill="black" stroke="none" font-family="sans-serif" font-size="11pt" font-style="normal" font-weight="normal" text-decoration="normal" x="1625.3217060051106" y="1129.0389899319998" text-anchor="start" dominant-baseline="alphabetic" xml:space="preserve">returns:Screen</text></g><g><path fill="none" stroke="black" paint-order="fill stroke markers" d=" M 1815.5919348455727 1136.0756928919998 L 1562.5417355978097 1136.0756928919998" stroke-miterlimit="10" stroke-width="1.4659797833333332" stroke-dasharray="7.0367029599999995"/><g transform="translate(1548.0578553384764,1136.0756928919998) translate(-1548.0578553384764,-1136.0756928919998)"><path fill="black" stroke="none" paint-order="stroke fill markers" d=" M 1562.7176531718098 1128.745793975333 L 1548.0578553384764 1136.0756928919998 L 1562.7176531718098 1143.4055918086665 Z"/></g></g><g><g><rect fill="white" stroke="none" x="1638.205901812363" y="1209.961073972" width="395.1772464582813" height="22.86928462"/></g><text fill="black" stroke="none" font-family="sans-serif" font-size="11pt" font-style="normal" font-weight="normal" text-decoration="normal" x="1640.844665422363" y="1225.7936556319999" text-anchor="start" dominant-baseline="alphabetic" xml:space="preserve">m:=getMovie(title:String,runningTime:int,year:int)</text></g><g><path fill="none" stroke="black" paint-order="fill stroke markers" d=" M 1548.0578553384764 1232.8303585919998 L 2109.0473144851976 1232.8303585919998" stroke-miterlimit="10" stroke-width="1.4659797833333332" stroke-dasharray=""/><g transform="translate(2123.531194744531,1232.8303585919998) translate(-2123.531194744531,-1232.8303585919998)"><path fill="black" stroke="none" paint-order="stroke fill markers" d=" M 2108.8713969111977 1225.500459675333 L 2123.531194744531 1232.8303585919998 L 2108.8713969111977 1240.1602575086665 Z"/></g></g><g><g><rect fill="white" stroke="none" x="1649.0101499555233" y="1285.6056307919998" width="531.9775394270313" height="22.86928462"/></g><text fill="black" stroke="none" font-family="sans-serif" font-size="11pt" font-style="normal" font-weight="normal" text-decoration="normal" x="1651.6489135655233" y="1301.4382124519998" text-anchor="start" dominant-baseline="alphabetic" xml:space="preserve">scheduleScreening(date:LocalDate,m:Movie,s:Screen,time:LocalTime)</text></g><g><path fill="none" stroke="black" paint-order="fill stroke markers" d=" M 1548.0578553384764 1308.4749154119997 L 2267.456103740268 1308.4749154119997" stroke-miterlimit="10" stroke-width="1.4659797833333332" stroke-dasharray=""/><g transform="translate(2281.9399839996017,1308.4749154119997) translate(-2281.9399839996017,-1308.4749154119997)"><path fill="black" stroke="none" paint-order="stroke fill markers" d=" M 2267.2801861662683 1301.145016495333 L 2281.9399839996017 1308.4749154119997 L 2267.2801861662683 1315.8048143286665 Z"/></g></g><g><g><rect fill="white" stroke="none" x="2372.9999506065287" y="1334.8625515119998" width="97.58964575027343" height="22.86928462"/></g><text fill="black" stroke="none" font-family="sans-serif" font-size="11pt" font-style="normal" font-weight="normal" text-decoration="normal" x="2375.6387142165286" y="1350.6951331719997" text-anchor="start" dominant-baseline="alphabetic" xml:space="preserve">oid:=getId()</text></g><g><path fill="none" stroke="black" paint-order="fill stroke markers" d=" M 2299.5317413996013 1357.7318361319997 L 2529.5739253043957 1357.7318361319997" stroke-miterlimit="10" stroke-width="1.4659797833333332" stroke-dasharray=""/><g transform="translate(2544.0578055637293,1357.7318361319997) translate(-2544.0578055637293,-1357.7318361319997)"><path fill="black" stroke="none" paint-order="stroke fill markers" d=" M 2529.398007730396 1350.401937215333 L 2544.0578055637293 1357.7318361319997 L 2529.398007730396 1365.0617350486664 Z"/></g></g><g><g><rect fill="white" stroke="none" x="2329.144533022935" y="1384.1194722319997" width="197.3963016340625" height="22.86928462"/></g><text fill="black" stroke="none" font-family="sans-serif" font-size="11pt" font-style="normal" font-weight="normal" text-decoration="normal" x="2331.7832966329347" y="1399.9520538919996" text-anchor="start" dominant-baseline="alphabetic" xml:space="preserve">performUpdate(sql:String)</text></g><g><path fill="none" stroke="black" paint-order="fill stroke markers" d=" M 2299.5317413996013 1406.9887568519998 L 2378.6946496996015 1406.9887568519998 L 2378.6946496996015 1429.8580414719997 L 2322.811500358935 1429.8580414719997" stroke-miterlimit="10" stroke-width="1.4659797833333332" stroke-dasharray=""/><g transform="translate(2308.3276200996015,1429.8580414719997) translate(-2308.3276200996015,-1429.8580414719997)"><path fill="black" stroke="none" paint-order="stroke fill markers" d=" M 2322.987417932935 1422.528142555333 L 2308.3276200996015 1429.8580414719997 L 2322.987417932935 1437.1879403886664 Z"/></g></g><g><g><rect fill="white" stroke="none" x="2329.1445330229353" y="1456.2456775719997" width="194.09635961746093" height="22.86928462"/></g><text fill="black" stroke="none" font-family="sans-serif" font-size="11pt" font-style="normal" font-weight="normal" text-decoration="normal" x="2331.783296632935" y="1472.0782592319997" text-anchor="start" dominant-baseline="alphabetic" xml:space="preserve">executeUpdate(sql:String)</text></g><g><path fill="none" stroke="black" paint-order="fill stroke markers" d=" M 2308.3276200996015 1479.1149621919997 L 2529.5739253043957 1479.1149621919997" stroke-miterlimit="10" stroke-width="1.4659797833333332" stroke-dasharray=""/><g transform="translate(2544.0578055637293,1479.1149621919997) translate(-2544.0578055637293,-1479.1149621919997)"><path fill="black" stroke="none" paint-order="stroke fill markers" d=" M 2529.398007730396 1471.785063275333 L 2544.0578055637293 1479.1149621919997 L 2529.398007730396 1486.4448611086664 Z"/></g></g><g><g><rect fill="white" stroke="none" x="2329.144533022935" y="1505.5025982919997" width="5.27752722" height="22.86928462"/></g><text fill="black" stroke="none" font-family="sans-serif" font-size="11pt" font-style="normal" font-weight="normal" text-decoration="normal" x="2331.7832966329347" y="1521.3351799519996" text-anchor="start" dominant-baseline="alphabetic" xml:space="preserve"></text></g><g><path fill="none" stroke="black" paint-order="fill stroke markers" d=" M 2308.3276200996015 1528.3718829119998 L 2378.6946496996015 1528.3718829119998 L 2378.6946496996015 1551.2411675319997 L 2314.0156216589353 1551.2411675319997" stroke-miterlimit="10" stroke-width="1.4659797833333332" stroke-dasharray="7.0367029599999995"/><g transform="translate(2299.5317413996017,1551.2411675319997) translate(-2299.5317413996017,-1551.2411675319997)"><path fill="black" stroke="none" paint-order="stroke fill markers" d=" M 2314.191539232935 1543.911268615333 L 2299.5317413996017 1551.2411675319997 L 2314.191539232935 1558.5710664486664 Z"/></g></g><g><path fill="white" stroke="black" paint-order="fill stroke markers" d=" M 2865.960672432124 1621.5554218598 A 26.123759739 26.123759739 0 1 1 2865.960659370245 1621.529298104415 M 2812.217853575124 1650.0716606052 L 2867.4559718111236 1650.0716606052" stroke-miterlimit="10" stroke-width="2.990598758" stroke-dasharray=""/></g><g><g/><text fill="black" stroke="none" font-family="sans-serif" font-size="11pt" font-style="normal" font-weight="normal" text-decoration="normal" x="2771.229208530526" y="1669.1587173842" text-anchor="start" dominant-baseline="alphabetic" xml:space="preserve">PersistentScreening</text></g><g><g><rect fill="white" stroke="none" x="2417.985127187583" y="1577.628803632" width="234.79069555496093" height="22.86928462"/></g><g><rect fill="white" stroke="none" x="2417.985127187583" y="1595.220561032" width="202.97972143386718" height="22.86928462"/></g><g><rect fill="white" stroke="none" x="2417.985127187583" y="1612.812318432" width="198.0835117170703" height="22.86928462"/></g><text fill="black" stroke="none" font-family="sans-serif" font-size="11pt" font-style="normal" font-weight="normal" text-decoration="normal" x="2420.623890797583" y="1593.461385292" text-anchor="start" dominant-baseline="alphabetic" xml:space="preserve">PersistentScreening(oid:Integer,</text><text fill="black" stroke="none" font-family="sans-serif" font-size="11pt" font-style="normal" font-weight="normal" text-decoration="normal" x="2420.623890797583" y="1611.053142692" text-anchor="start" dominant-baseline="alphabetic" xml:space="preserve">date:LocalDate,m:Movie,</text><text fill="black" stroke="none" font-family="sans-serif" font-size="11pt" font-style="normal" font-weight="normal" text-decoration="normal" x="2420.623890797583" y="1628.644900092" text-anchor="start" dominant-baseline="alphabetic" xml:space="preserve">s:Screen,time:LocalTime)</text></g><g><path fill="none" stroke="black" paint-order="fill stroke markers" d=" M 2299.5317413996013 1635.681603052 L 2756.7453282711926 1635.681603052" stroke-miterlimit="10" stroke-width="1.4659797833333332" stroke-dasharray=""/><g transform="translate(2771.229208530526,1635.681603052) translate(-2771.229208530526,-1635.681603052)"><path fill="black" stroke="none" paint-order="stroke fill markers" d=" M 2756.569410697193 1628.3517041353332 L 2771.229208530526 1635.681603052 L 2756.569410697193 1643.0115019686666 Z"/></g></g><g><g><rect fill="white" stroke="none" x="2562.647624086363" y="1702.3191800831999" width="5.27752722" height="22.86928462"/></g><text fill="black" stroke="none" font-family="sans-serif" font-size="11pt" font-style="normal" font-weight="normal" text-decoration="normal" x="2565.286387696363" y="1718.1517617431998" text-anchor="start" dominant-baseline="alphabetic" xml:space="preserve"></text></g><g><path fill="none" stroke="black" paint-order="fill stroke markers" d=" M 2831.041033993124 1725.1884647031998 L 2314.015621658935 1725.1884647031998" stroke-miterlimit="10" stroke-width="1.4659797833333332" stroke-dasharray="7.0367029599999995"/><g transform="translate(2299.5317413996013,1725.1884647031998) translate(-2299.5317413996013,-1725.1884647031998)"><path fill="black" stroke="none" paint-order="stroke fill markers" d=" M 2314.1915392329347 1717.858565786533 L 2299.5317413996013 1725.1884647031998 L 2314.1915392329347 1732.5183636198665 Z"/></g></g><g><g><rect fill="white" stroke="none" x="1912.360156059039" y="1751.5761008031998" width="5.27752722" height="22.86928462"/></g><text fill="black" stroke="none" font-family="sans-serif" font-size="11pt" font-style="normal" font-weight="normal" text-decoration="normal" x="1914.998919669039" y="1767.4086824631997" text-anchor="start" dominant-baseline="alphabetic" xml:space="preserve"></text></g><g><path fill="none" stroke="black" paint-order="fill stroke markers" d=" M 2281.9399839996017 1774.4453854231997 L 1562.5417355978097 1774.4453854231997" stroke-miterlimit="10" stroke-width="1.4659797833333332" stroke-dasharray="7.0367029599999995"/><g transform="translate(1548.0578553384764,1774.4453854231997) translate(-1548.0578553384764,-1774.4453854231997)"><path fill="black" stroke="none" paint-order="stroke fill markers" d=" M 1562.7176531718098 1767.115486506533 L 1548.0578553384764 1774.4453854231997 L 1562.7176531718098 1781.7752843398664 Z"/></g></g><g><g><rect fill="white" stroke="none" x="1123.3829316360286" y="1800.8330215231997" width="5.27752722" height="22.86928462"/></g><text fill="black" stroke="none" font-family="sans-serif" font-size="11pt" font-style="normal" font-weight="normal" text-decoration="normal" x="1126.0216952460287" y="1816.6656031831997" text-anchor="start" dominant-baseline="alphabetic" xml:space="preserve"></text></g><g><path fill="none" stroke="black" paint-order="fill stroke markers" d=" M 1530.4660979384764 1823.7023061431996 L 736.061172812914 1823.7023061431996" stroke-miterlimit="10" stroke-width="1.4659797833333332" stroke-dasharray="7.0367029599999995"/><g transform="translate(721.5772925535807,1823.7023061431996) translate(-721.5772925535807,-1823.7023061431996)"><path fill="black" stroke="none" paint-order="stroke fill markers" d=" M 736.237090386914 1816.372407226533 L 721.5772925535807 1823.7023061431996 L 736.237090386914 1831.0322050598663 Z"/></g></g><g><g><rect fill="white" stroke="none" x="751.1900841769141" y="1850.0899422431996" width="126.94535864089843" height="22.86928462"/></g><text fill="black" stroke="none" font-family="sans-serif" font-size="11pt" font-style="normal" font-weight="normal" text-decoration="normal" x="753.828847786914" y="1865.9225239031996" text-anchor="start" dominant-baseline="alphabetic" xml:space="preserve">notifyObservers()</text></g><g><path fill="none" stroke="black" paint-order="fill stroke markers" d=" M 721.5772925535807 1872.9592268631998 L 800.7402008535807 1872.9592268631998 L 800.7402008535807 1895.8285114831997 L 744.857051512914 1895.8285114831997" stroke-miterlimit="10" stroke-width="1.4659797833333332" stroke-dasharray=""/><g transform="translate(730.3731712535807,1895.8285114831997) translate(-730.3731712535807,-1895.8285114831997)"><path fill="black" stroke="none" paint-order="stroke fill markers" d=" M 745.032969086914 1888.498612566533 L 730.3731712535807 1895.8285114831997 L 745.032969086914 1903.1584103998664 Z"/></g></g><g><g><rect fill="white" stroke="none" x="524.3613457616146" y="1922.2161475831997" width="64.60464513992187" height="22.86928462"/></g><text fill="black" stroke="none" font-family="sans-serif" font-size="11pt" font-style="normal" font-weight="normal" text-decoration="normal" x="527.0001093716146" y="1938.0487292431997" text-anchor="start" dominant-baseline="alphabetic" xml:space="preserve">update()</text></g><g><path fill="none" stroke="black" paint-order="fill stroke markers" d=" M 712.7814138535807 1945.0854322031996 L 415.0298030689037 1945.0854322031996" stroke-miterlimit="10" stroke-width="1.4659797833333332" stroke-dasharray=""/><g transform="translate(400.54592280957036,1945.0854322031996) translate(-400.54592280957036,-1945.0854322031996)"><path fill="black" stroke="none" paint-order="stroke fill markers" d=" M 415.2057206429037 1937.755533286533 L 400.54592280957036 1945.0854322031996 L 415.2057206429037 1952.4153311198663 Z"/></g></g><g><g><rect fill="white" stroke="none" x="525.4844056560482" y="1971.4730683031996" width="71.15440405105468" height="22.86928462"/></g><text fill="black" stroke="none" font-family="sans-serif" font-size="11pt" font-style="normal" font-weight="normal" text-decoration="normal" x="528.1231692660482" y="1987.3056499631996" text-anchor="start" dominant-baseline="alphabetic" xml:space="preserve">getDate()</text></g><g><path fill="none" stroke="black" paint-order="fill stroke markers" d=" M 400.54592280957036 1994.3423529231995 L 707.0934122942474 1994.3423529231995" stroke-miterlimit="10" stroke-width="1.4659797833333332" stroke-dasharray=""/><g transform="translate(721.5772925535807,1994.3423529231995) translate(-721.5772925535807,-1994.3423529231995)"><path fill="black" stroke="none" paint-order="stroke fill markers" d=" M 706.9174947202474 1987.0124540065328 L 721.5772925535807 1994.3423529231995 L 706.9174947202474 2001.6722518398662 Z"/></g></g><g><g><rect fill="white" stroke="none" x="519.2818528606381" y="2020.7299890231996" width="83.559509641875" height="22.86928462"/></g><text fill="black" stroke="none" font-family="sans-serif" font-size="11pt" font-style="normal" font-weight="normal" text-decoration="normal" x="521.920616470638" y="2036.5625706831995" text-anchor="start" dominant-baseline="alphabetic" xml:space="preserve">returndate</text></g><g><path fill="none" stroke="black" paint-order="fill stroke markers" d=" M 721.5772925535807 2043.5992736431995 L 415.0298030689037 2043.5992736431995" stroke-miterlimit="10" stroke-width="1.4659797833333332" stroke-dasharray="7.0367029599999995"/><g transform="translate(400.54592280957036,2043.5992736431995) translate(-400.54592280957036,-2043.5992736431995)"><path fill="black" stroke="none" paint-order="stroke fill markers" d=" M 415.2057206429037 2036.2693747265328 L 400.54592280957036 2043.5992736431995 L 415.2057206429037 2050.929172559866 Z"/></g></g><g><g><rect fill="white" stroke="none" x="503.9632874919857" y="2069.9869097431992" width="114.19664037917968" height="22.86928462"/></g><text fill="black" stroke="none" font-family="sans-serif" font-size="11pt" font-style="normal" font-weight="normal" text-decoration="normal" x="506.6020511019857" y="2085.819491403199" text-anchor="start" dominant-baseline="alphabetic" xml:space="preserve">getScreenings()</text></g><g><path fill="none" stroke="black" paint-order="fill stroke markers" d=" M 400.54592280957036 2092.8561943631994 L 707.0934122942474 2092.8561943631994" stroke-miterlimit="10" stroke-width="1.4659797833333332" stroke-dasharray=""/><g transform="translate(721.5772925535807,2092.8561943631994) translate(-721.5772925535807,-2092.8561943631994)"><path fill="black" stroke="none" paint-order="stroke fill markers" d=" M 706.9174947202474 2085.526295446533 L 721.5772925535807 2092.8561943631994 L 706.9174947202474 2100.186093279866 Z"/></g></g><g><g><rect fill="white" stroke="none" x="497.70346846122396" y="2119.243830463199" width="126.71627844070312" height="22.86928462"/></g><text fill="black" stroke="none" font-family="sans-serif" font-size="11pt" font-style="normal" font-weight="normal" text-decoration="normal" x="500.342232071224" y="2135.076412123199" text-anchor="start" dominant-baseline="alphabetic" xml:space="preserve">returnscreenings</text></g><g><path fill="none" stroke="black" paint-order="fill stroke markers" d=" M 721.5772925535807 2142.1131150831993 L 415.0298030689037 2142.1131150831993" stroke-miterlimit="10" stroke-width="1.4659797833333332" stroke-dasharray="7.0367029599999995"/><g transform="translate(400.54592280957036,2142.1131150831993) translate(-400.54592280957036,-2142.1131150831993)"><path fill="black" stroke="none" paint-order="stroke fill markers" d=" M 415.2057206429037 2134.783216166533 L 400.54592280957036 2142.1131150831993 L 415.2057206429037 2149.443013999866 Z"/></g></g><g><g><rect fill="white" stroke="none" x="554.0249047215756" y="2168.500751183199" width="5.27752722" height="22.86928462"/></g><text fill="black" stroke="none" font-family="sans-serif" font-size="11pt" font-style="normal" font-weight="normal" text-decoration="normal" x="556.6636683315755" y="2184.333332843199" text-anchor="start" dominant-baseline="alphabetic" xml:space="preserve"></text></g><g><path fill="none" stroke="black" paint-order="fill stroke markers" d=" M 400.54592280957036 2191.3700358031992 L 698.2975335942474 2191.3700358031992" stroke-miterlimit="10" stroke-width="1.4659797833333332" stroke-dasharray="7.0367029599999995"/><g transform="translate(712.7814138535807,2191.3700358031992) translate(-712.7814138535807,-2191.3700358031992)"><path fill="black" stroke="none" paint-order="stroke fill markers" d=" M 698.1216160202474 2184.0401368865328 L 712.7814138535807 2191.3700358031992 L 698.1216160202474 2198.6999347198657 Z"/></g></g><g><g><rect fill="white" stroke="none" x="545.2290260215756" y="2217.757671903199" width="5.27752722" height="22.86928462"/></g><text fill="black" stroke="none" font-family="sans-serif" font-size="11pt" font-style="normal" font-weight="normal" text-decoration="normal" x="547.8677896315755" y="2233.590253563199" text-anchor="start" dominant-baseline="alphabetic" xml:space="preserve"></text></g><g><path fill="none" stroke="black" paint-order="fill stroke markers" d=" M 703.9855351535807 2240.626956523199 L 406.2339243689037 2240.626956523199" stroke-miterlimit="10" stroke-width="1.4659797833333332" stroke-dasharray="7.0367029599999995"/><g transform="translate(391.75004410957035,2240.626956523199) translate(-391.75004410957035,-2240.626956523199)"><path fill="black" stroke="none" paint-order="stroke fill markers" d=" M 406.4098419429037 2233.2970576065327 L 391.75004410957035 2240.626956523199 L 406.4098419429037 2247.9568554398656 Z"/></g></g><g><g><rect fill="white" stroke="none" x="196.7588589507422" y="2267.014592623199" width="5.27752722" height="22.86928462"/></g><text fill="black" stroke="none" font-family="sans-serif" font-size="11pt" font-style="normal" font-weight="normal" text-decoration="normal" x="199.3976225607422" y="2282.847174283199" text-anchor="start" dominant-baseline="alphabetic" xml:space="preserve"></text></g><g><path fill="none" stroke="black" paint-order="fill stroke markers" d=" M 374.15828670957035 2289.883877243199 L 39.1208386712474 2289.883877243199" stroke-miterlimit="10" stroke-width="1.4659797833333332" stroke-dasharray="7.0367029599999995"/><g transform="translate(24.636958411914062,2289.883877243199) translate(-24.636958411914062,-2289.883877243199)"><path fill="black" stroke="none" paint-order="stroke fill markers" d=" M 39.296756245247394 2282.5539783265326 L 24.636958411914062 2289.883877243199 L 39.296756245247394 2297.2137761598656 Z"/></g></g><g><g/><path fill="none" stroke="black" paint-order="fill stroke markers" d=" M 651.2102629535807 615.3596738519999 L 1360.235341927539 615.3596738519999 L 1360.235341927539 734.9836241719998 L 651.2102629535807 734.9836241719998 L 651.2102629535807 615.3596738519999 Z" stroke-miterlimit="10" stroke-width="2.5131082" stroke-dasharray=""/><path fill="white" stroke="black" paint-order="fill stroke markers" d=" M 651.2102629535807 615.3596738519999 L 651.2102629535807 636.4697827319999 L 759.9352969186198 636.4697827319999 L 770.4903513586198 625.914728292 L 770.4903513586198 615.3596738519999 L 651.2102629535807 615.3596738519999" stroke-miterlimit="10" stroke-width="2.5131082" stroke-dasharray=""/><text fill="black" stroke="none" font-family="sans-serif" font-size="8.8pt" font-style="normal" font-weight="bold" text-decoration="normal" x="668.8020203535807" y="629.4330797719999" text-anchor="start" dominant-baseline="alphabetic" xml:space="preserve">expandable-</text><text fill="black" stroke="none" font-family="sans-serif" font-size="8.8pt" font-style="normal" font-weight="bold" text-decoration="normal" x="788.0821087586198" y="629.4330797719999" text-anchor="start" dominant-baseline="alphabetic" xml:space="preserve">[seediagram03-ScheduleScreeningECE(doublescreening)]</text></g><g><g/><path fill="none" stroke="black" paint-order="fill stroke markers" d=" M 651.2102629535807 761.3712602719999 L 1495.2825831384764 761.3712602719999 L 1495.2825831384764 880.9952105919998 L 651.2102629535807 880.9952105919998 L 651.2102629535807 761.3712602719999 Z" stroke-miterlimit="10" stroke-width="2.5131082" stroke-dasharray=""/><path fill="white" stroke="black" paint-order="fill stroke markers" d=" M 651.2102629535807 761.3712602719999 L 651.2102629535807 782.4813691519998 L 759.9352969186198 782.4813691519998 L 770.4903513586198 771.9263147119999 L 770.4903513586198 761.3712602719999 L 651.2102629535807 761.3712602719999" stroke-miterlimit="10" stroke-width="2.5131082" stroke-dasharray=""/><text fill="black" stroke="none" font-family="sans-serif" font-size="8.8pt" font-style="normal" font-weight="bold" text-decoration="normal" x="668.8020203535807" y="775.4446661919999" text-anchor="start" dominant-baseline="alphabetic" xml:space="preserve">expandable-</text><text fill="black" stroke="none" font-family="sans-serif" font-size="8.8pt" font-style="normal" font-weight="bold" text-decoration="normal" x="788.0821087586198" y="775.4446661919999" text-anchor="start" dominant-baseline="alphabetic" xml:space="preserve">[seediagrams03-ScheduleScreeningACE(runningtimeofmovieislongerthanavailabletime)]</text></g><g><g/><path fill="none" stroke="black" paint-order="fill stroke markers" d=" M 1477.6908257384764 1162.4633289919998 L 2185.102345644531 1162.4633289919998 L 2185.102345644531 1259.2179946919998 L 1477.6908257384764 1259.2179946919998 L 1477.6908257384764 1162.4633289919998 Z" stroke-miterlimit="10" stroke-width="2.5131082" stroke-dasharray=""/><path fill="white" stroke="black" paint-order="fill stroke markers" d=" M 1477.6908257384764 1162.4633289919998 L 1477.6908257384764 1183.5734378719999 L 1586.4158597035155 1183.5734378719999 L 1596.9709141435155 1173.0183834319998 L 1596.9709141435155 1162.4633289919998 L 1477.6908257384764 1162.4633289919998" stroke-miterlimit="10" stroke-width="2.5131082" stroke-dasharray=""/><text fill="black" stroke="none" font-family="sans-serif" font-size="8.8pt" font-style="normal" font-weight="bold" text-decoration="normal" x="1495.2825831384764" y="1176.536734912" text-anchor="start" dominant-baseline="alphabetic" xml:space="preserve">expandable-</text><text fill="black" stroke="none" font-family="sans-serif" font-size="8.8pt" font-style="normal" font-weight="bold" text-decoration="normal" x="1614.5626715435155" y="1176.536734912" text-anchor="start" dominant-baseline="alphabetic" xml:space="preserve">[[see03-getMovieExpandedfordetailsofthegetMoviefunctionality]]</text></g></g><g/><g/><g/><g/><g/><g/><g/><g/><g/><g/></g></svg>