<svg version="1.1" xmlns="http://www.w3.org/2000/svg" xmlns:xlink="http://www.w3.org/1999/xlink" width="1687" height="1343"><desc>actor%20Staff%0Aboundary%20ScreeningDialog%0Aboundary%20StaffUI%0A%0Acontrol%20ManagementSystem%0Aparticipant%20Cinema%0Aparticipant%20ScreenMapper%0Aparticipant%20MovieMapper%0Aparticipant%20ScreeningMapper%0Adatabase%20Database%0Aentity%20s%20(Screen)%0Aentity%20m%20(Movie)%0Aentity%20PersistentScreening%0A%0AStaff-%3EStaffUI%3AscheduleScreening()%0Aactivate%20StaffUI%0A%0AStaffUI-%3E*ScreeningDialog%3AScreeningDialog()%0Aactivate%20ScreeningDialog%0AScreeningDialog--%3EStaffUI%3A%0Adeactivate%20ScreeningDialog%0A%0AStaffUI-%3EScreeningDialog%3AshowAndWait()%0Aactivate%20ScreeningDialog%0AScreeningDialog-%3EStaff%3A%0Aactivate%20Staff%0AStaff--%3EScreeningDialog%3A%0Adeactivate%20Staff%0AScreeningDialog-%3EStaffUI%3Areturn%20sgi%20%3A%20ScreeningInfo%0Adeactivate%20ScreeningDialog%0A%0AStaffUI-%3EManagementSystem%3AscheduleScreening(date%20%3A%20LocalDate%2C%20%5Cntime%20%3A%20LocalTime%2C%20title%20%3A%20String%2C%20%5Cnyear%20%3A%20int%2C%20screenName%20%3A%20String)%0Aactivate%20ManagementSystem%0A%0Aexpandable-%20see%20diagram%2003%20-%20Schedule%20PersistentScreening%20ECE%20(double%20screening)%0A%0AManagementSystem-%3EManagementSystem%3AcheckDoubleScreening(time%20%3A%20LocalTime%2C%20screenName%20%3A%20String%2C%20sg%20%3A%20PersistentScreening)%0Aend%20%0A%0Aexpandable-%20see%20diagrams%2003%20-%20Schedule%20PersistentScreening%20ACE%20(running%20time%20of%20movie%20is%20longer%20than%20available%20time)%0A%0A%09ManagementSystem-%3EManagementSystem%3AcheckTimeAvailable()%20%20%20%20%20%20%20%20%20%20%20%20%20%20%20%20%20%20%20%20%20%20%20%20%20%20%20%20%20%20%20%20%20%20%20%20%20%20%20%20%20%20%20%20%20%20%20%20%20%20%20%20%20%20%20%20%20%20%20%20%20%20%20%20%20%20%20%20%20%20%20%20%20%20%20%20%20%20%20%20%20%20%20%20%20%20%20%20%20%20%20%20%20%20%20%20%20%20%20%20%20%20%20%20%20%20%20%20%20%20%20%20%20%20%20%20%20%20%20%20%20%20%20%20%20%20%20%20%20%20%20%20%20%20%20%20%20%0Aend%20%0A%0AManagementSystem-%3ECinema%3AscheduleScreening(date%20%3A%20LocalDate%2C%20%5Cntime%20%3A%20LocalTime%2C%20title%20%3A%20String%2C%20%5Cnyear%20%3A%20int%2C%20screenName%20%3A%20String)%0Aactivate%20Cinema%0A%0ACinema-%3EScreenMapper%3AgetScreen(screenName%20%3A%20String)%0Aactivate%20ScreenMapper%0AScreenMapper-%3EScreenMapper%3AgetFromCacheByName(screenName)%0AScreenMapper--%3ECinema%3Areturn%20s%20%3A%20Screen%0Adeactivate%20ScreenMapper%0A%0Aexpandable-%20%5Bsee%2002%20-%20getMovie%20Expanded%20for%20details%20of%20the%20getMovie%20functionality%5D%0A%0ACinema-%3EMovieMapper%3Am%20%3A%3D%20getMovie(title%20%3A%20String%2C%20year%20%3A%20int)%0Aend%20%0A%0A%0A%0ACinema-%3EScreeningMapper%3AscheduleScreening(date%20%3A%20LocalDate%2C%20m%20%3A%20Movie%2C%20s%20%3A%20Screen%2C%20time%20%3A%20LocalTime)%0Aactivate%20ScreeningMapper%0AScreeningMapper-%3EDatabase%3Aoid%20%3A%3D%20getId()%0AScreeningMapper-%3EScreeningMapper%3AperformUpdate(sql%20%3A%20String)%0Aactivate%20ScreeningMapper%0A%0A%0AScreeningMapper-%3EDatabase%3AexecuteUpdate(sql%20%3A%20String)%0AScreeningMapper--%3EScreeningMapper%3A%0Adeactivate%20ScreeningMapper%0A%0A%0AScreeningMapper-%3E*PersistentScreening%3APersistentScreening(oid%20%3A%20Integer%2C%5Cndate%20%3A%20LocalDate%2C%20m%20%3A%20Movie%2C%20%5Cns%20%3A%20Screen%2C%20time%20%3A%20LocalTime)%0Aactivate%20PersistentScreening%0APersistentScreening--%3EScreeningMapper%3A%0Adeactivate%20PersistentScreening%0AScreeningMapper--%3ECinema%3A%0Adeactivate%20ScreeningMapper%0ACinema--%3EManagementSystem%3A%0Adeactivate%20Cinema%0AManagementSystem-%3EManagementSystem%3AnotifyObservers()%0Aactivate%20ManagementSystem%0AManagementSystem-%3EStaffUI%3Aupdate()%0Aactivate%20StaffUI%0AStaffUI-%3EManagementSystem%3AgetDate()%0Aactivate%20ManagementSystem%0AManagementSystem--%3EStaffUI%3Areturn%20date%0Adeactivate%20ManagementSystem%0AStaffUI-%3EManagementSystem%3AgetScreenings()%0Aactivate%20ManagementSystem%0AManagementSystem--%3EStaffUI%3Areturn%20screenings%0Adeactivate%20ManagementSystem%0AStaffUI--%3EManagementSystem%3A%0Adeactivate%20StaffUI%0Adeactivateafter%20ManagementSystem%0A%0A%0AManagementSystem--%3EStaffUI%3A%0Adeactivate%20ManagementSystem%0AStaffUI--%3EStaff%3A%0Adeactivate%20StaffUI</desc><defs/><g><g/><g/><g/><g/><g/><g/><g/><g/><g/><g/><g/><g/><g/><g/><g/><g/><g/><g/><g/><g/><g/><g/><g/><g/><g/><g/><g/><g/><g/><g/><g/><g/><g/><g/><g/><g/><g/><g/><g/><g/><g/><g/><g/><g/><g/><g><rect fill="white" stroke="none" x="0" y="0" width="1687" height="1343"/></g><g/><g><path fill="none" stroke="black" paint-order="fill stroke markers" d=" M 14.20199765 54.685234432 L 14.20199765 1343.6885875104008" stroke-miterlimit="10" stroke-width="0.8377027333333333" stroke-dasharray="7.732640615384615,3.3508109333333334"/><path fill="none" stroke="black" paint-order="fill stroke markers" d=" M 78.93111168333333 147.56971350400002 L 78.93111168333333 1343.6885875104008" stroke-miterlimit="10" stroke-width="0.8377027333333333" stroke-dasharray="7.732640615384615,3.3508109333333334"/><path fill="none" stroke="black" paint-order="fill stroke markers" d=" M 220.8456960125 54.685234432 L 220.8456960125 1343.6885875104008" stroke-miterlimit="10" stroke-width="0.8377027333333333" stroke-dasharray="7.732640615384615,3.3508109333333334"/><path fill="none" stroke="black" paint-order="fill stroke markers" d=" M 412.82604752291667 54.685234432 L 412.82604752291667 1343.6885875104008" stroke-miterlimit="10" stroke-width="0.8377027333333333" stroke-dasharray="7.732640615384615,3.3508109333333334"/><path fill="none" stroke="black" paint-order="fill stroke markers" d=" M 889.51925136875 54.685234432 L 889.51925136875 1343.6885875104008" stroke-miterlimit="10" stroke-width="0.8377027333333333" stroke-dasharray="7.732640615384615,3.3508109333333334"/><path fill="none" stroke="black" paint-order="fill stroke markers" d=" M 1055.4323708541667 54.685234432 L 1055.4323708541667 1343.6885875104008" stroke-miterlimit="10" stroke-width="0.8377027333333333" stroke-dasharray="7.732640615384615,3.3508109333333334"/><path fill="none" stroke="black" paint-order="fill stroke markers" d=" M 1229.9368755125001 54.685234432 L 1229.9368755125001 1343.6885875104008" stroke-miterlimit="10" stroke-width="0.8377027333333333" stroke-dasharray="7.732640615384615,3.3508109333333334"/><path fill="none" stroke="black" paint-order="fill stroke markers" d=" M 1324.585558191625 54.685234432 L 1324.585558191625 1343.6885875104008" stroke-miterlimit="10" stroke-width="0.8377027333333333" stroke-dasharray="7.732640615384615,3.3508109333333334"/><path fill="none" stroke="black" paint-order="fill stroke markers" d=" M 1470.4991659582918 54.685234432 L 1470.4991659582918 1343.6885875104008" stroke-miterlimit="10" stroke-width="0.8377027333333333" stroke-dasharray="7.732640615384615,3.3508109333333334"/><path fill="none" stroke="black" paint-order="fill stroke markers" d=" M 1521.4118354520417 54.685234432 L 1521.4118354520417 1343.6885875104008" stroke-miterlimit="10" stroke-width="0.8377027333333333" stroke-dasharray="7.732640615384615,3.3508109333333334"/><path fill="none" stroke="black" paint-order="fill stroke markers" d=" M 1572.2191510645416 54.685234432 L 1572.2191510645416 1343.6885875104008" stroke-miterlimit="10" stroke-width="0.8377027333333333" stroke-dasharray="7.732640615384615,3.3508109333333334"/><path fill="none" stroke="black" paint-order="fill stroke markers" d=" M 1642.5425799582915 957.6751679904004 L 1642.5425799582915 1343.6885875104008" stroke-miterlimit="10" stroke-width="0.8377027333333333" stroke-dasharray="7.732640615384615,3.3508109333333334"/></g><g><g><path fill="white" stroke="black" paint-order="fill stroke markers" d=" M 19.931884345999997 12.163443688000006 A 5.7298866959999994 5.7298866959999994 0 1 1 19.93188148105689 12.157713802258984 M 14.20199765 17.893330384000006 L 14.20199765 30.157298400000006 M 6.964246033999999 22.316400816000005 L 21.439749266 22.316400816000005 M 14.20199765 30.157298400000006 L 6.964246033999999 41.617071792000004 M 14.20199765 30.157298400000006 L 21.439749266 41.617071792000004" stroke-miterlimit="10" stroke-width="1.708913576" stroke-dasharray=""/></g><g><g/><text fill="black" stroke="none" font-family="sans-serif" font-size="7pt" font-style="normal" font-weight="normal" text-decoration="normal" x="5.026216399999999" y="51.669504592" text-anchor="start" dominant-baseline="alphabetic" xml:space="preserve">Staff</text></g><g><path fill="white" stroke="black" paint-order="fill stroke markers" d=" M 240.79977512050002 25.834752296000005 A 14.927862708000001 14.927862708000001 0 1 1 240.7997676565693 25.819824435779974 M 201.7460736925 10.052432800000004 L 201.7460736925 41.617071792000004 M 200.8916169045 25.834752296000005 L 210.94404970450003 25.834752296000005" stroke-miterlimit="10" stroke-width="1.708913576" stroke-dasharray=""/></g><g><g/><text fill="black" stroke="none" font-family="sans-serif" font-size="7pt" font-style="normal" font-weight="normal" text-decoration="normal" x="207.1699147625" y="51.669504592" text-anchor="start" dominant-baseline="alphabetic" xml:space="preserve">StaffUI</text></g><g><path fill="white" stroke="black" paint-order="fill stroke markers" d=" M 427.7539102309167 25.834752296000005 A 14.927862708000001 14.927862708000001 0 1 1 427.75390276698596 25.819824435779974 M 410.81556096291666 10.906889588000004 L 416.8470206429167 5.880673188000004 M 410.81556096291666 10.906889588000004 L 416.8470206429167 15.933105988000005" stroke-miterlimit="10" stroke-width="1.708913576" stroke-dasharray=""/></g><g><g/><text fill="black" stroke="none" font-family="sans-serif" font-size="7pt" font-style="normal" font-weight="normal" text-decoration="normal" x="371.55700455416667" y="51.669504592" text-anchor="start" dominant-baseline="alphabetic" xml:space="preserve">ManagementSystem</text></g><path fill="none" stroke="none"/><g><path fill="white" stroke="black" paint-order="fill stroke markers" d=" M 863.106258265125 27.543665872000002 L 915.932244472375 27.543665872000002 L 915.932244472375 54.685234432 L 863.106258265125 54.685234432 L 863.106258265125 27.543665872000002 Z" stroke-miterlimit="10" stroke-width="1.608389248" stroke-dasharray=""/></g><g><g/><text fill="black" stroke="none" font-family="sans-serif" font-size="7pt" font-style="normal" font-weight="normal" text-decoration="normal" x="874.013147853125" y="44.632801632" text-anchor="start" dominant-baseline="alphabetic" xml:space="preserve">Cinema</text></g><path fill="none" stroke="none"/><g><path fill="white" stroke="black" paint-order="fill stroke markers" d=" M 1015.0096121255417 27.543665872000002 L 1095.8551295827917 27.543665872000002 L 1095.8551295827917 54.685234432 L 1015.0096121255417 54.685234432 L 1015.0096121255417 27.543665872000002 Z" stroke-miterlimit="10" stroke-width="1.608389248" stroke-dasharray=""/></g><g><g/><text fill="black" stroke="none" font-family="sans-serif" font-size="7pt" font-style="normal" font-weight="normal" text-decoration="normal" x="1025.9165017135417" y="44.632801632" text-anchor="start" dominant-baseline="alphabetic" xml:space="preserve">ScreenMapper</text></g><path fill="none" stroke="none"/><g><path fill="white" stroke="black" paint-order="fill stroke markers" d=" M 1191.7685113151251 27.543665872000002 L 1268.1052397098751 27.543665872000002 L 1268.1052397098751 54.685234432 L 1191.7685113151251 54.685234432 L 1191.7685113151251 27.543665872000002 Z" stroke-miterlimit="10" stroke-width="1.608389248" stroke-dasharray=""/></g><g><g/><text fill="black" stroke="none" font-family="sans-serif" font-size="7pt" font-style="normal" font-weight="normal" text-decoration="normal" x="1202.6754009031251" y="44.632801632" text-anchor="start" dominant-baseline="alphabetic" xml:space="preserve">MovieMapper</text></g><path fill="none" stroke="none"/><g><path fill="white" stroke="black" paint-order="fill stroke markers" d=" M 1278.157672509875 27.543665872000002 L 1371.013443873375 27.543665872000002 L 1371.013443873375 54.685234432 L 1278.157672509875 54.685234432 L 1278.157672509875 27.543665872000002 Z" stroke-miterlimit="10" stroke-width="1.608389248" stroke-dasharray=""/></g><g><g/><text fill="black" stroke="none" font-family="sans-serif" font-size="7pt" font-style="normal" font-weight="normal" text-decoration="normal" x="1289.064562097875" y="44.632801632" text-anchor="start" dominant-baseline="alphabetic" xml:space="preserve">ScreeningMapper</text></g><g><path fill="white" stroke="black" paint-order="fill stroke markers" d=" M 1455.8226140702918 34.98246614400001 L 1455.8226140702918 13.872357264000005 L 1485.1757178462917 13.872357264000005 L 1485.1757178462917 34.98246614400001" stroke-miterlimit="10" stroke-width="1.708913576" stroke-dasharray=""/><path fill="white" stroke="black" paint-order="fill stroke markers" d=" M 1485.1757178462917 13.138529669600006 L 1485.1749840248126 13.204874620317927 L 1485.1727826337565 13.271212936596063 L 1485.1691138932608 13.337537984658068 L 1485.1639781701967 13.403843132054408 L 1485.157375978132 13.470121748325596 L 1485.1493079772804 13.536367205665238 L 1485.1397749744353 13.602572879582802 L 1485.1287779228892 13.66873214956607 L 1485.1163179223377 13.734838399743175 L 1485.1023962187708 13.80088501954419 L 1485.0870142043473 13.86686540436217 L 1485.0701734172555 13.932772956213617 L 1485.0518755415603 13.99860108439827 L 1485.0321224070342 14.064343206158169 L 1485.0109159889737 14.129992747335919 L 1484.9882584080035 14.195543143032113 L 1484.9641519298623 14.260987838261805 L 1484.9385989651782 14.32632028861001 L 1484.911602069226 14.391533960886136 L 1484.8831639416733 14.4566223337773 L 1484.8532874263087 14.521578898500453 L 1484.8219755107593 14.586397159453252 L 1484.78923132619 14.65107063486362 L 1484.7550581469925 14.715592857437908 L 1484.7194593904558 14.779957375007626 L 1484.6824386164262 14.844157751174656 L 1484.64399952695 14.90818756595488 L 1484.6041459659043 14.972040416420178 L 1484.562881918612 15.035709917338716 L 1484.5202115114434 15.099189701813458 L 1484.4761390114038 15.162473421918856 L 1484.430668825706 15.225554749335636 L 1484.3838055013312 15.288427375983625 L 1484.3355537245727 15.35108501465255 L 1484.2859183205676 15.41352139963076 L 1484.2349042528153 15.475730287331789 L 1484.18251662268 15.537705456918703 L 1484.1287606688811 15.599440710926192 L 1484.0736417669689 15.660929875880303 L 1484.017165428788 15.722166802915776 L 1483.959337301925 15.783145368390944 L 1483.9001631691442 15.84385947450007 L 1483.83964894781 15.904303049883142 L 1483.7778006892938 15.964470050232986 L 1483.7146245783701 16.02435445889971 L 1483.6501269325972 16.083950287492353 L 1483.5843142016859 16.143251576477713 L 1483.5171929668545 16.202252395776313 L 1483.4487699401707 16.260946845355388 L 1483.3790519638799 16.319329055818894 L 1483.3080460097217 16.377393188994436 L 1483.2357591782325 16.43513343851708 L 1483.162198698035 16.492544030409995 L 1483.087371925116 16.549619223661832 L 1483.0112863420904 16.606353310800827 L 1482.9339495574534 16.662740618465545 L 1482.8553693048186 16.71877550797221 L 1482.775553442146 16.774452375878568 L 1482.6945099509553 16.829765654544218 L 1482.612246935528 16.884709812687397 L 1482.5287726220972 16.939279355938076 L 1482.4440953580247 16.9934688273874 L 1482.3582236109664 17.047272808133382 L 1482.2711659680253 17.100685917822787 L 1482.1829311348931 17.153702815189156 L 1482.0935279349796 17.20631819858693 L 1482.0029653085307 17.258526806521623 L 1481.911252311733 17.31032341817594 L 1481.81839811581 17.36170285393188 L 1481.7244120061039 17.41265997588869 L 1481.6293033811476 17.463189688376634 L 1481.5330817517238 17.51328693846657 L 1481.4357567399156 17.56294671647524 L 1481.3373380781431 17.612164056466224 L 1481.2378356081904 17.66093403674654 L 1481.1372592802215 17.709251780358795 L 1481.0356191517856 17.757112455568898 L 1480.9329253868107 17.80451127634921 L 1480.8291882545875 17.85144350285715 L 1480.724418128743 17.897904441909184 L 1480.6186254862027 17.943889447450115 L 1480.5118209061425 17.98939392101772 L 1480.4040150689311 18.034413312202553 L 1480.295218755063 18.078943119103013 L 1480.1854428440781 18.12297888877552 L 1480.0746983134768 18.166516217679806 L 1479.9629962376196 18.20955075211926 L 1479.850347786621 18.252078188676297 L 1479.7367642252318 18.294094274642703 L 1479.6222569117142 18.335594808444895 L 1479.5068372967037 18.376575640064075 L 1479.390516922066 18.41703267145123 L 1479.273307419741 18.456961856936942 L 1479.1552205105818 18.49635920363593 L 1479.0362680031806 18.535220771846358 L 1478.9164617926892 18.57354267544379 L 1478.7958138596289 18.611321082269797 L 1478.674336268692 18.648552214515185 L 1478.552041167537 18.68523234909775 L 1478.4289407855715 18.7213578180346 L 1478.3050474327315 18.75692500880895 L 1478.180373498249 18.79193036473136 L 1478.0549314494135 18.826370385295405 L 1477.9287338303254 18.86024162652774 L 1477.8017932606413 18.89354070133245 L 1477.6741224343123 18.92626427982982 L 1477.545734118315 18.95840908968926 L 1477.4166411513738 18.989971916456575 L 1477.2868564426778 19.020949603875387 L 1477.1563929705899 19.051339054202778 L 1477.0252637813483 19.08113722851903 L 1476.8934819877627 19.110341147031544 L 1476.7610607679028 19.13894788937281 L 1476.6280133637802 19.166954594892434 L 1476.4943530800244 19.194358462943196 L 1476.3600932825525 19.221156753161132 L 1476.2252473972321 19.24734678573955 L 1476.0898289085396 19.272925941697018 L 1475.9538513582108 19.297891663139257 L 1475.8173283438878 19.322241453514927 L 1475.680273517758 19.34597287786528 L 1475.5427005851898 19.369083563067658 L 1475.4046233033616 19.391571198072803 L 1475.266055479887 19.413433534135947 L 1475.1270109714326 19.43466838504171 L 1474.9875036823335 19.455273627322693 L 1474.8475475632022 19.475247200471838 L 1474.707156609534 19.49458710714848 L 1474.5663448603073 19.51329141337806 L 1474.4251263965798 19.531358248745548 L 1474.28351534008 19.54878580658246 L 1474.1415258517957 19.565572344147533 L 1473.9991721305573 19.58171618280101 L 1473.8564684116184 19.597215708172463 L 1473.7134289652317 19.612069370322285 L 1473.5700680952232 19.62627568389663 L 1473.4264001375598 19.639833228275982 L 1473.282439458918 19.652740647717202 L 1473.1382004552454 19.664996651489105 L 1472.9936975503222 19.67660001400152 L 1472.8489451943187 19.687549574927868 L 1472.7039578623499 19.697844239321185 L 1472.5587500530278 19.707482977723604 L 1472.4133362870125 19.71646482626932 L 1472.2677311055595 19.724788886780964 L 1472.1219490690657 19.732454326859422 L 1471.976004755613 19.73946037996707 L 1471.8299127595114 19.74580634550444 L 1471.6836876898385 19.75149158888027 L 1471.5373441689796 19.75651554157495 L 1471.3908968311648 19.760877701197405 L 1471.2443603210058 19.764577631535303 L 1471.0977492920317 19.767614962598696 L 1470.9510784052227 19.76998939065701 L 1470.804362327546 19.771700678269415 L 1470.6576157304864 19.772748654308575 L 1470.5108532885815 19.773133213977765 L 1470.3640896779536 19.772854318821334 L 1470.2173395748412 19.771911996728566 L 1470.070617654132 19.770306341930883 L 1469.9239385878964 19.768037514992436 L 1469.7773170439182 19.765105742794013 L 1469.63076768423 19.761511318510404 L 1469.4843051636458 19.757254601581035 L 1469.337944128295 19.752336017674054 L 1469.1916992141596 19.746756058643754 L 1469.0455850456092 19.740515282481386 L 1468.8996162339388 19.733614313259366 L 1468.7538073759076 19.726053841068865 L 1468.6081730522803 19.717834621950804 L 1468.4627278263679 19.708957477820242 L 1468.3174862425715 19.699423296384197 L 1468.1724628249287 19.689233031052865 L 1468.0276720756603 19.67838770084429 L 1467.8831284737207 19.666888390282455 L 1467.7388464733494 19.65473624928883 L 1467.5948405026263 19.641932493067394 L 1467.4511249620286 19.62847840198309 L 1467.3077142229904 19.614375321433826 L 1467.1646226264663 19.599624661715897 L 1467.0218644814966 19.584227897882982 L 1466.8794540637768 19.568186569598637 L 1466.73740561423 19.551502280982326 L 1466.595733337583 19.534176700449 L 1466.4544514009451 19.516211560542274 L 1466.3135739323923 19.497608657761173 L 1466.1731150195542 19.47836985238047 L 1466.0330887082048 19.458497068264673 L 1465.8935090008588 19.43799229267563 L 1465.7543898553704 19.416857576073816 L 1465.6157451835386 19.39509503191328 L 1465.4775888497145 19.372706836430293 L 1465.3399346694166 19.34969522842576 L 1465.2027964079484 19.326062509041293 L 1465.0661877790217 19.30181104152914 L 1464.9301224433852 19.27694325101585 L 1464.7946140074596 19.251461624259747 L 1464.659676021975 19.225368709402268 L 1464.525321980618 19.198667115713157 L 1464.3915653186805 19.171359513329538 L 1464.2584194117173 19.143448632988882 L 1464.1258975742082 19.114937265755973 L 1463.9940130582265 19.085828262743767 L 1463.8627790521139 19.056124534828317 L 1463.7322086791617 19.025829052357654 L 1463.602314996298 18.994944844854786 L 1463.4731109927834 18.963475000714716 L 1463.3446095889103 18.931422666895642 L 1463.2168236347118 18.898791048604238 L 1463.0897659086772 18.86558340897513 L 1462.9634491164732 18.831803068744613 L 1462.8378858896735 18.797453405918564 L 1462.7130887844964 18.762537855434633 L 1462.5890702805482 18.72705990881878 L 1462.465842779576 18.691023113836096 L 1462.3434186042273 18.654431074136053 L 1462.2218099968177 18.61728744889212 L 1462.1010291181065 18.57959595243588 L 1461.9810880460807 18.541360353885562 L 1461.8619987747477 18.502584476769158 L 1461.7437732129356 18.46327219864207 L 1461.626423183102 18.423427450699347 L 1461.5099604201516 18.38305421738258 L 1461.3943965702645 18.34215653598146 L 1461.2797431897286 18.30073849623004 L 1461.1660117437868 18.258804239897785 L 1461.053213605489 18.216357960375383 L 1460.9413600545547 18.17340390225541 L 1460.830462276246 18.129946360907887 L 1460.7205313602483 18.085989682050734 L 1460.6115782995616 18.041538261315207 L 1460.5036139894012 17.996596543806334 L 1460.396649226108 17.951169023658416 L 1460.2906947060692 17.90526024358561 L 1460.1857610246486 17.858874794427667 L 1460.081858675127 17.812017314690852 L 1459.9789980476526 17.764692490084087 L 1459.8771894282024 17.716905053050397 L 1459.7764429975539 17.66865978229366 L 1459.6767688302657 17.61996150230075 L 1459.5781768936715 17.570815082859085 L 1459.4806770468833 17.52122543856965 L 1459.384279039804 17.47119752835556 L 1459.2889925121542 17.42073635496613 L 1459.1948269925072 17.369846964476665 L 1459.1017918973366 17.318534445783794 L 1459.0098965300742 17.266803930096632 L 1458.9191500801805 17.214660590423634 L 1458.8295616222244 17.162109641055324 L 1458.7411401149773 17.109156337042833 L 1458.6538944005163 17.05580597367245 L 1458.5678332033401 17.00206388593604 L 1458.4829651294965 16.9479354479976 L 1458.3992986657224 16.893426072655814 L 1458.3168421785942 16.838541210802795 L 1458.2356039136923 16.783286350878985 L 1458.1555919947752 16.727667018324333 L 1458.076814422968 16.67168877502575 L 1457.9992790759627 16.615357218760913 L 1457.922993707229 16.558677982638507 L 1457.84796594524 16.501656734534908 L 1457.7742032927101 16.444299176527416 L 1457.7017131258424 16.386611044324027 L 1457.6305026935936 16.328598106689892 L 1457.560579116947 16.27026616487043 L 1457.491949388203 16.211621052011214 L 1457.4246203702764 16.152668632574656 L 1457.3585987960132 16.093414801753575 L 1457.2938912675158 16.033865484881677 L 1457.230504255483 15.97402663684102 L 1457.1684440985637 15.913904241466545 L 1457.107717002721 15.853504310947688 L 1457.0483290406146 15.792832885227169 L 1456.9902861509909 15.731896031396998 L 1456.9335941380907 15.670699843091779 L 1456.878258671068 15.609250439879345 L 1456.824285283423 15.547553966648811 L 1456.7716793724499 15.485616592996086 L 1456.7204461986958 15.42344451260692 L 1456.6705908854356 15.361043942637544 L 1456.6221184181586 15.29842112309295 L 1456.5750336440717 15.235582316202914 L 1456.5293412716128 15.172533805795753 L 1456.4850458699811 15.109281896669971 L 1456.4421518686797 15.045832913963771 L 1456.4006635570731 14.982193202522549 L 1456.360585083958 14.918369126264414 L 1456.3219204571485 14.854367067543809 L 1456.2846735430744 14.79019342651327 L 1456.2488480663967 14.72585462048342 L 1456.2144476096328 14.661357083281247 L 1456.1814756127999 14.596707264606726 L 1456.14993537307 14.531911629387848 L 1456.1198300444412 14.46697665713414 L 1456.0911626374211 14.401908841288712 L 1456.0639360187263 14.33671468857893 L 1456.0381529109964 14.271400718365733 L 1456.0138158925201 14.205973461991714 L 1455.9909273969795 14.140439462127992 L 1455.9694897132047 14.074805272119937 L 1455.9495049849465 14.009077455331859 L 1455.930975210661 13.943262584490661 L 1455.91390224331 13.877367241028582 L 1455.8982877901763 13.811398014425057 L 1455.8841334126919 13.745361501547771 L 1455.871440526283 13.679264305992982 L 1455.8602104002275 13.613113037425164 L 1455.850444157529 13.546914310916048 L 1455.842142774803 13.48067474628312 L 1455.8353070821813 13.414400967427644 L 1455.8299377632275 13.348099601672276 L 1455.8260353548687 13.281777279098343 L 1455.8236002473427 13.215440631882833 L 1455.8226326841584 13.149096293635186 L 1455.8231327620708 13.082750898733941 L 1455.8251004310732 13.016411081663302 L 1455.8285354943996 12.95008347634969 L 1455.8334376085472 12.883774715498365 L 1455.8398062833082 12.817491429930156 L 1455.8476408818208 12.751240247918382 L 1455.8569406206313 12.685027794526038 L 1455.8677045697739 12.618860690943283 L 1455.8799316528623 12.552745553825337 L 1455.8936206471988 12.486688994630818 L 1455.908770183895 12.420697618960595 L 1455.92537874801 12.354778025897247 L 1455.9434446787013 12.288936807345143 L 1455.962966169391 12.223180547371275 L 1455.983941267946 12.15751582154684 L 1456.006367876874 12.091949196289702 L 1456.030243753533 12.026487228207747 L 1456.0555665103548 11.961136463443234 L 1456.0823336150852 11.895903437018177 L 1456.110542391036 11.830794672180861 L 1456.1401900173532 11.76581667975351 L 1456.1712735292986 11.700975957481221 L 1456.203789818547 11.636278989382186 L 1456.2377356334966 11.571732245099302 L 1456.2731075795941 11.507342179253207 L 1456.3099021196747 11.44311523079683 L 1456.3481155743145 11.379057822371491 L 1456.3877441222005 11.315176359664653 L 1456.4287838005105 11.251477230769353 L 1456.4712305053108 11.187966805545399 L 1456.5150799919668 11.124651434982384 L 1456.560327875566 11.061537450564607 L 1456.6069696313577 10.998631163637912 L 1456.6550005952054 10.935938864778569 L 1456.7044159640527 10.873466823164222 L 1456.7552107964036 10.811221285946974 L 1456.8073800128177 10.749208477628674 L 1456.8609183964163 10.687434599438475 L 1456.9158205934061 10.625905828712721 L 1456.972081113613 10.56462831827721 L 1457.0296943310318 10.50360819583192 L 1457.0886544843886 10.442851563338246 L 1457.1489556777176 10.382364496408808 L 1457.2105918809496 10.322153043699892 L 1457.2735569305155 10.262223226306592 L 1457.3378445299627 10.202581037160709 L 1457.4034482505851 10.143232440431454 L 1457.4703615320652 10.084183370929043 L 1457.5385776831308 10.025439733511218 L 1457.6080898822233 9.96700740249277 L 1457.678891178181 9.908892221058107 L 1457.750974490933 9.851100000676942 L 1457.8243326122083 9.793636520523153 L 1457.8989582062559 9.736507526896869 L 1457.9748438105787 9.67971873264985 L 1458.0519818366793 9.62327581661419 L 1458.1303645708194 9.56718442303446 L 1458.2099841747909 9.511450161003276 L 1458.2908326867 9.456078603900396 L 1458.3729020217625 9.401075288835386 L 1458.4561839731134 9.34644571609392 L 1458.5406702126272 9.292195348587743 L 1458.6263522917502 9.2383296113084 L 1458.7132216423458 9.18485389078473 L 1458.8012695775515 9.131773534544223 L 1458.8904872926469 9.079093850578268 L 1458.9808658659351 9.026820106811364 L 1459.072396259634 8.974957530574326 L 1459.1650693207803 8.923511308081558 L 1459.2588757821454 8.87248658391244 L 1459.3538062631615 8.821888460496865 L 1459.449851270859 8.771721997605011 L 1459.5470012008177 8.721992211841364 L 1459.6452463381254 8.672704076143056 L 1459.74457685835 8.623862519282584 L 1459.8449828285227 8.575472425374933 L 1459.9464542081298 8.527538633389174 L 1460.048980850118 8.480065936664552 L 1460.1525525019085 8.433059082431186 L 1460.2571588064227 8.386522771335322 L 1460.3627893031169 8.340461656969293 L 1460.4694334290298 8.29488034540615 L 1460.5770805198374 8.249783394739065 L 1460.6857198109208 8.205175314625526 L 1460.7953404384407 8.161060565836369 L 1460.9059314404262 8.117443559809711 L 1461.0174817578693 8.074328658209804 L 1461.129980235831 8.031720172490887 L 1461.2434156245572 7.98962236346602 L 1461.3577765806037 7.948039440881024 L 1461.4730516679704 7.906975562993506 L 1461.5892293592442 7.866434836157035 L 1461.706298036753 7.82642131441051 L 1461.8242459937267 7.7869389990727615 L 1461.9430614354676 7.747991838342423 L 1462.0627324805307 7.709583726903109 L 1462.1832471619114 7.671718505533958 L 1462.3045934282418 7.634399960725554 L 1462.4267591449964 7.597631824301277 L 1462.5497320957054 7.56141777304413 L 1462.673499983176 7.525761428329062 L 1462.798050430723 7.49066635576083 L 1462.9233709834048 7.456136064817444 L 1463.049449109271 7.422174008499224 L 1463.1762722006144 7.388783582983501 L 1463.303827575231 7.355968127284998 L 1463.4321024776898 7.3237309229219445 L 1463.5610840806073 7.292075193587907 L 1463.690759485931 7.261004104829443 L 1463.8211157262283 7.230520763729533 L 1463.9521397659837 7.200628218596886 L 1464.0838185029027 7.1713294586611065 L 1464.2161387692208 7.142627413773769 L 1464.3490873330222 7.114524954115446 L 1464.482650899561 7.087024889908683 L 1464.616816112592 7.060129971136987 L 1464.7515695557056 7.033842887269819 L 1464.8868977536697 7.008166266993665 L 1465.0227871737775 6.98310267794915 L 1465.1592242272 6.958654626474296 L 1465.2961952703458 6.934824557353874 L 1465.4336866062247 6.9116148535749415 L 1465.5716844858173 6.889027836088532 L 1465.710175109451 6.867065763577574 L 1465.849144628179 6.845730832231014 L 1465.9885791451647 6.82502517552421 L 1466.1284647170733 6.804950864005579 L 1466.2687873554635 6.78550990508954 L 1466.4095330281887 6.766704242855789 L 1466.550687660799 6.7485357578548735 L 1466.6922371379485 6.731006266920156 L 1466.8341673048076 6.714117522986122 L 1466.9764639684781 6.69787121491309 L 1467.119112899412 6.682268967318329 L 1467.2620998328348 6.667312340413597 L 1467.4054104701727 6.65300282984912 L 1467.5490304804814 6.639341866564031 L 1467.6929455018794 6.626330816643273 L 1467.8371411429846 6.613970981180998 L 1467.9816029843528 6.60226359615045 L 1468.1263165799205 6.591209832280376 L 1468.2712674584488 6.580810794937952 L 1468.4164411249706 6.571067524018249 L 1468.56182306224 6.561980993840235 L 1468.7073987321844 6.553552113049358 L 1468.8531535773584 6.545781724526674 L 1468.9990730223988 6.538670605304558 L 1469.1451424754828 6.532219466489009 L 1469.2913473297865 6.526428953188529 L 1469.4376729649468 6.521299644449625 L 1469.5841047485217 6.516832053198897 L 1469.730628037455 6.5130266261917455 L 1469.8772281795402 6.509883743967701 L 1470.0238905148847 6.507403720812366 L 1470.1706003773777 6.505586804725991 L 1470.317343096155 6.504433177398668 L 1470.4641039970668 6.50394295419217 L 1470.6108684041455 6.504116184128409 L 1470.7576216410728 6.504952849884536 L 1470.9043490326471 6.506452867794672 L 1471.0510359062519 6.508616087858277 L 1471.1976675933215 6.511442293755146 L 1471.3442294308097 6.514931202867045 L 1471.490706762655 6.519082466305971 L 1471.6370849412463 6.523895668949038 L 1471.7833493288872 6.529370329479993 L 1471.9294852992614 6.535505900437347 L 1472.0754782388933 6.542301768269113 L 1472.2213135486109 6.549757253394176 L 1472.3669766450043 6.557871610270234 L 1472.5124529618859 6.566644027468362 L 1472.6577279517446 6.576073627754149 L 1472.802787087203 6.586159468175426 L 1472.947615862468 6.596900540156555 L 1473.092199794783 6.608295769599288 L 1473.2365244258751 6.620344016990179 L 1473.3805753234017 6.633044077514527 L 1473.524338082393 6.646394681176864 L 1473.6677983266927 6.660394492927948 L 1473.8109417103963 6.6750421127982715 L 1473.9537539192843 6.6903360760380535 L 1474.096220672255 6.706274853263715 L 1474.2383277227518 6.722856850610817 L 1474.3800608601882 6.74008040989344 L 1474.5214059113687 6.75794380877001 L 1474.6623487419054 6.776445260915527 L 1474.802875257633 6.795582916200193 L 1474.9429714060175 6.815354860874427 L 1475.0826231775602 6.835759117760239 L 1475.2218166072005 6.856793646448944 L 1475.3605377757112 6.878456343505201 L 1475.4987728110916 6.900745042677357 L 1475.6365078899528 6.923657515114069 L 1475.7737292389022 6.947191469587187 L 1475.9104231359188 6.971344552720875 L 1476.0465759117271 6.9961143492269455 L 1476.182173951163 7.021498382146393 L 1476.317203694535 7.047494113097075 L 1476.4516516389822 7.074098942527563 L 1476.5855043398215 7.101310209977082 L 1476.7187484118945 7.129125194341563 L 1476.8513705309053 7.157541114145751 L 1476.9833574347522 7.186555127821343 L 1477.114695924855 7.21616433399115 L 1477.245372867474 7.246365771759231 L 1477.375375195024 7.277156421006976 L 1477.5046899073805 7.308533202695117 L 1477.6333040731797 7.340492979171636 L 1477.7612048311128 7.3730325544855155 L 1477.8883793912103 7.406148674706342 L 1478.014815036122 7.43983802824969 L 1478.140499122389 7.474097246208279 L 1478.2654190817075 7.508922902688862 L 1478.3895624221852 7.5443115151548135 L 1478.5129167295922 7.580259544774376 L 1478.6354696685999 7.616763396774545 L 1478.7572089840169 7.65381942080054 L 1478.878122502013 7.691423911280838 L 1478.9981981313372 7.729573107797728 L 1479.1174238645265 7.7682631954633505 L 1479.235787779107 7.807490305301179 L 1479.3532780387861 7.847250514632919 L 1479.4698828946355 7.887539847470771 L 1479.5855906862669 7.928354274915026 L 1479.7003898429973 7.969689715556951 L 1479.814268885007 8.01154203588693 L 1479.9272164244865 8.053907050707801 L 1480.0392211667763 8.096780523553392 L 1480.150271911495 8.140158167112144 L 1480.2603575536612 8.184035643655848 L 1480.369467084802 8.228408565473416 L 1480.4775895940552 8.273272495309644 L 1480.5847142692603 8.318622946808931 L 1480.690830398039 8.364455384963922 L 1480.7959273688666 8.410765226568996 L 1480.899994672134 8.457547840678583 L 1481.0030219011971 8.504798549070255 L 1481.1049987534193 8.552512626712552 L 1481.2059150312 8.600685302237467 L 1481.3057606429957 8.649311758417596 L 1481.4045256043282 8.698387132647841 L 1481.5022000387842 8.747906517431673 L 1481.598774179001 8.797864960871884 L 1481.6942383676455 8.848257467165755 L 1481.7885830583784 8.89907899710466 L 1481.8817988168091 8.950324468577946 L 1481.9738763214393 9.001988757081177 L 1482.0648063645954 9.054066696228553 L 1482.154579853349 9.10655307826956 L 1482.2431878104258 9.159442654609729 L 1482.330621375104 9.212730136335503 L 1482.4168718041003 9.266410194743115 L 1482.501930472443 9.320477461871457 L 1482.585788874337 9.374926531038872 L 1482.6684386240113 9.429751957383818 L 1482.74987145656 9.484948258409347 L 1482.830079228768 9.540509914531356 L 1482.9090539199244 9.59643136963053 L 1482.9867876326264 9.652707031607962 L 1483.063272593567 9.70933127294435 L 1483.1385011543143 9.76629843126275 L 1483.212465792075 9.8236028098948 L 1483.2851591104463 9.88123867845039 L 1483.3565738401576 9.939200273390695 L 1483.4267028397949 9.997481798604522 L 1483.4955390965172 10.056077425987917 L 1483.5630757267559 10.114981296026972 L 1483.6293059769043 10.17418751838377 L 1483.6942232239926 10.23369017248541 L 1483.75782097635 10.293483308116073 L 1483.8200928742547 10.353560946012019 L 1483.8810326905684 10.413917078459523 L 1483.9406343313606 10.47454566989564 L 1483.9988918365163 10.535440657511748 L 1484.0557993803343 10.59659595185983 L 1484.111351272107 10.658005437461416 L 1484.1655419566919 10.71966297341912 L 1484.2183660150654 10.781562394030725 L 1484.269818164866 10.843697509405754 L 1484.3198932609214 10.906062106084448 L 1484.3685862957639 10.968649947659113 L 1484.4158924001301 11.031454775397743 L 1484.4618068434497 11.094470308869903 L 1484.5063250343162 11.15769024657476 L 1484.5494425209477 11.221108266571225 L 1484.5911549916314 11.284718027110147 L 1484.631458275155 11.34851316726848 L 1484.6703483412239 11.412487307585371 L 1484.7078213008638 11.476634050700099 L 1484.7438734068098 11.540946981991809 L 1484.7785010538817 11.605419670220964 L 1484.8117007793433 11.670045668172472 L 1484.84346926325 11.73481851330039 L 1484.8738033287796 11.79973172837418 L 1484.902699942551 11.864778822126434 L 1484.930156214927 11.929953289901977 L 1484.956169400303 11.995248614308348 L 1484.9807368973823 12.060658265867518 L 1485.0038562494356 12.126175703668837 L 1485.025525144547 12.191794376023124 L 1485.045741415845 12.257507721117825 L 1485.0645030417193 12.323309167673191 L 1485.0818081460231 12.389192135599403 L 1485.0976549982604 12.455150036654567 L 1485.1120420137588 12.521176275103546 L 1485.1249677538292 12.587264248377515 L 1485.1364309259081 12.65340734773422 L 1485.146430383688 12.719598958918844 L 1485.1549651272314 12.785832462825429 L 1485.1620343030709 12.852101236158777 L 1485.167637204295 12.918398652096782 L 1485.1717732706181 12.984718080953092 L 1485.1744420884372 13.051052890840094 L 1485.1756433908727 13.117396448332073 M 1485.1757178462917 34.24863854960001 L 1485.1749840248126 34.31498350031793 L 1485.1727826337565 34.38132181659606 L 1485.1691138932608 34.447646864658076 L 1485.1639781701967 34.51395201205441 L 1485.157375978132 34.5802306283256 L 1485.1493079772804 34.64647608566524 L 1485.1397749744353 34.71268175958281 L 1485.1287779228892 34.778841029566074 L 1485.1163179223377 34.84494727974318 L 1485.1023962187708 34.910993899544195 L 1485.0870142043473 34.97697428436217 L 1485.0701734172555 35.042881836213624 L 1485.0518755415603 35.10870996439827 L 1485.0321224070342 35.17445208615817 L 1485.0109159889737 35.240101627335925 L 1484.9882584080035 35.30565202303212 L 1484.9641519298623 35.37109671826181 L 1484.9385989651782 35.43642916861001 L 1484.911602069226 35.50164284088614 L 1484.8831639416733 35.5667312137773 L 1484.8532874263087 35.631687778500456 L 1484.8219755107593 35.696506039453254 L 1484.78923132619 35.76117951486363 L 1484.7550581469925 35.82570173743791 L 1484.7194593904558 35.89006625500763 L 1484.6824386164262 35.95426663117466 L 1484.64399952695 36.01829644595488 L 1484.6041459659043 36.082149296420184 L 1484.562881918612 36.14581879733872 L 1484.5202115114434 36.209298581813464 L 1484.4761390114038 36.27258230191886 L 1484.430668825706 36.33566362933564 L 1484.3838055013312 36.39853625598363 L 1484.3355537245727 36.46119389465255 L 1484.2859183205676 36.523630279630765 L 1484.2349042528153 36.58583916733179 L 1484.18251662268 36.64781433691871 L 1484.1287606688811 36.709549590926194 L 1484.0736417669689 36.771038755880305 L 1484.017165428788 36.83227568291578 L 1483.959337301925 36.893254248390946 L 1483.9001631691442 36.95396835450008 L 1483.83964894781 37.014411929883146 L 1483.7778006892938 37.07457893023299 L 1483.7146245783701 37.134463338899714 L 1483.6501269325972 37.194059167492355 L 1483.5843142016859 37.253360456477715 L 1483.5171929668545 37.31236127577632 L 1483.4487699401707 37.37105572535539 L 1483.3790519638799 37.429437935818896 L 1483.3080460097217 37.48750206899444 L 1483.2357591782325 37.54524231851708 L 1483.162198698035 37.60265291041 L 1483.087371925116 37.659728103661834 L 1483.0112863420904 37.71646219080083 L 1482.9339495574534 37.77284949846555 L 1482.8553693048186 37.82888438797222 L 1482.775553442146 37.88456125587857 L 1482.6945099509553 37.939874534544224 L 1482.612246935528 37.9948186926874 L 1482.5287726220972 38.04938823593808 L 1482.4440953580247 38.1035777073874 L 1482.3582236109664 38.157381688133384 L 1482.2711659680253 38.21079479782279 L 1482.1829311348931 38.26381169518916 L 1482.0935279349796 38.31642707858693 L 1482.0029653085307 38.36863568652163 L 1481.911252311733 38.42043229817594 L 1481.81839811581 38.47181173393189 L 1481.7244120061039 38.52276885588869 L 1481.6293033811476 38.573298568376636 L 1481.5330817517238 38.62339581846658 L 1481.4357567399156 38.673055596475244 L 1481.3373380781431 38.722272936466226 L 1481.2378356081904 38.77104291674654 L 1481.1372592802215 38.8193606603588 L 1481.0356191517856 38.8672213355689 L 1480.9329253868107 38.914620156349216 L 1480.8291882545875 38.96155238285716 L 1480.724418128743 39.00801332190919 L 1480.6186254862027 39.05399832745012 L 1480.5118209061425 39.09950280101772 L 1480.4040150689311 39.14452219220256 L 1480.295218755063 39.189051999103015 L 1480.1854428440781 39.233087768775526 L 1480.0746983134768 39.27662509767981 L 1479.9629962376196 39.31965963211926 L 1479.850347786621 39.3621870686763 L 1479.7367642252318 39.40420315464271 L 1479.6222569117142 39.4457036884449 L 1479.5068372967037 39.48668452006408 L 1479.390516922066 39.52714155145124 L 1479.273307419741 39.56707073693695 L 1479.1552205105818 39.60646808363593 L 1479.0362680031806 39.64532965184636 L 1478.9164617926892 39.683651555443795 L 1478.7958138596289 39.7214299622698 L 1478.674336268692 39.75866109451519 L 1478.552041167537 39.79534122909775 L 1478.4289407855715 39.8314666980346 L 1478.3050474327315 39.867033888808955 L 1478.180373498249 39.90203924473136 L 1478.0549314494135 39.93647926529541 L 1477.9287338303254 39.97035050652774 L 1477.8017932606413 40.00364958133245 L 1477.6741224343123 40.03637315982982 L 1477.545734118315 40.06851796968926 L 1477.4166411513738 40.10008079645658 L 1477.2868564426778 40.13105848387539 L 1477.1563929705899 40.16144793420278 L 1477.0252637813483 40.19124610851903 L 1476.8934819877627 40.220450027031546 L 1476.7610607679028 40.249056769372814 L 1476.6280133637802 40.27706347489244 L 1476.4943530800244 40.3044673429432 L 1476.3600932825525 40.33126563316114 L 1476.2252473972321 40.35745566573955 L 1476.0898289085396 40.383034821697024 L 1475.9538513582108 40.40800054313926 L 1475.8173283438878 40.43235033351493 L 1475.680273517758 40.456081757865284 L 1475.5427005851898 40.47919244306766 L 1475.4046233033616 40.50168007807281 L 1475.266055479887 40.52354241413595 L 1475.1270109714326 40.544777265041716 L 1474.9875036823335 40.565382507322695 L 1474.8475475632022 40.58535608047184 L 1474.707156609534 40.60469598714848 L 1474.5663448603073 40.62340029337806 L 1474.4251263965798 40.64146712874555 L 1474.28351534008 40.658894686582464 L 1474.1415258517957 40.67568122414754 L 1473.9991721305573 40.691825062801016 L 1473.8564684116184 40.70732458817247 L 1473.7134289652317 40.72217825032229 L 1473.5700680952232 40.736384563896635 L 1473.4264001375598 40.74994210827599 L 1473.282439458918 40.76284952771721 L 1473.1382004552454 40.77510553148911 L 1472.9936975503222 40.78670889400152 L 1472.8489451943187 40.79765845492787 L 1472.7039578623499 40.80795311932118 L 1472.5587500530278 40.817591857723606 L 1472.4133362870125 40.82657370626932 L 1472.2677311055595 40.83489776678097 L 1472.1219490690657 40.842563206859424 L 1471.976004755613 40.849569259967076 L 1471.8299127595114 40.85591522550445 L 1471.6836876898385 40.861600468880276 L 1471.5373441689796 40.866624421574954 L 1471.3908968311648 40.87098658119741 L 1471.2443603210058 40.87468651153531 L 1471.0977492920317 40.8777238425987 L 1470.9510784052227 40.880098270657015 L 1470.804362327546 40.88180955826942 L 1470.6576157304864 40.88285753430858 L 1470.5108532885815 40.88324209397777 L 1470.3640896779536 40.88296319882134 L 1470.2173395748412 40.88202087672857 L 1470.070617654132 40.88041522193089 L 1469.9239385878964 40.87814639499244 L 1469.7773170439182 40.87521462279402 L 1469.63076768423 40.871620198510406 L 1469.4843051636458 40.86736348158104 L 1469.337944128295 40.86244489767406 L 1469.1916992141596 40.85686493864376 L 1469.0455850456092 40.85062416248139 L 1468.8996162339388 40.84372319325937 L 1468.7538073759076 40.83616272106887 L 1468.6081730522803 40.827943501950806 L 1468.4627278263679 40.81906635782025 L 1468.3174862425715 40.809532176384195 L 1468.1724628249287 40.79934191105287 L 1468.0276720756603 40.788496580844296 L 1467.8831284737207 40.77699727028246 L 1467.7388464733494 40.76484512928884 L 1467.5948405026263 40.7520413730674 L 1467.4511249620286 40.738587281983094 L 1467.3077142229904 40.72448420143383 L 1467.1646226264663 40.7097335417159 L 1467.0218644814966 40.69433677788299 L 1466.8794540637768 40.67829544959864 L 1466.73740561423 40.66161116098233 L 1466.595733337583 40.644285580449 L 1466.4544514009451 40.62632044054228 L 1466.3135739323923 40.607717537761175 L 1466.1731150195542 40.58847873238047 L 1466.0330887082048 40.568605948264675 L 1465.8935090008588 40.548101172675636 L 1465.7543898553704 40.52696645607382 L 1465.6157451835386 40.505203911913284 L 1465.4775888497145 40.482815716430295 L 1465.3399346694166 40.459804108425764 L 1465.2027964079484 40.4361713890413 L 1465.0661877790217 40.41191992152915 L 1464.9301224433852 40.38705213101586 L 1464.7946140074596 40.36157050425975 L 1464.659676021975 40.335477589402274 L 1464.525321980618 40.30877599571316 L 1464.3915653186805 40.28146839332954 L 1464.2584194117173 40.253557512988884 L 1464.1258975742082 40.225046145755975 L 1463.9940130582265 40.19593714274377 L 1463.8627790521139 40.16623341482832 L 1463.7322086791617 40.135937932357656 L 1463.602314996298 40.10505372485479 L 1463.4731109927834 40.07358388071472 L 1463.3446095889103 40.04153154689565 L 1463.2168236347118 40.00889992860424 L 1463.0897659086772 39.97569228897513 L 1462.9634491164732 39.94191194874462 L 1462.8378858896735 39.907562285918566 L 1462.7130887844964 39.872646735434635 L 1462.5890702805482 39.837168788818786 L 1462.465842779576 39.8011319938361 L 1462.3434186042273 39.764539954136055 L 1462.2218099968177 39.72739632889213 L 1462.1010291181065 39.689704832435886 L 1461.9810880460807 39.651469233885564 L 1461.8619987747477 39.612693356769164 L 1461.7437732129356 39.57338107864207 L 1461.626423183102 39.53353633069935 L 1461.5099604201516 39.493163097382585 L 1461.3943965702645 39.452265415981465 L 1461.2797431897286 39.410847376230045 L 1461.1660117437868 39.36891311989779 L 1461.053213605489 39.32646684037539 L 1460.9413600545547 39.283512782255414 L 1460.830462276246 39.24005524090789 L 1460.7205313602483 39.196098562050736 L 1460.6115782995616 39.15164714131521 L 1460.5036139894012 39.10670542380633 L 1460.396649226108 39.06127790365842 L 1460.2906947060692 39.015369123585614 L 1460.1857610246486 38.96898367442767 L 1460.081858675127 38.922126194690854 L 1459.9789980476526 38.87480137008409 L 1459.8771894282024 38.8270139330504 L 1459.7764429975539 38.778768662293665 L 1459.6767688302657 38.73007038230075 L 1459.5781768936715 38.68092396285909 L 1459.4806770468833 38.63133431856966 L 1459.384279039804 38.58130640835556 L 1459.2889925121542 38.53084523496614 L 1459.1948269925072 38.47995584447667 L 1459.1017918973366 38.428643325783796 L 1459.0098965300742 38.376912810096634 L 1458.9191500801805 38.32476947042364 L 1458.8295616222244 38.27221852105532 L 1458.7411401149773 38.21926521704284 L 1458.6538944005163 38.165914853672454 L 1458.5678332033401 38.112172765936045 L 1458.4829651294965 38.05804432799761 L 1458.3992986657224 38.00353495265582 L 1458.3168421785942 37.9486500908028 L 1458.2356039136923 37.89339523087899 L 1458.1555919947752 37.83777589832434 L 1458.076814422968 37.781797655025755 L 1457.9992790759627 37.72546609876092 L 1457.922993707229 37.66878686263851 L 1457.84796594524 37.61176561453491 L 1457.7742032927101 37.55440805652742 L 1457.7017131258424 37.49671992432403 L 1457.6305026935936 37.438706986689894 L 1457.560579116947 37.38037504487043 L 1457.491949388203 37.321729932011216 L 1457.4246203702764 37.26277751257466 L 1457.3585987960132 37.20352368175358 L 1457.2938912675158 37.14397436488168 L 1457.230504255483 37.08413551684102 L 1457.1684440985637 37.024013121466545 L 1457.107717002721 36.96361319094769 L 1457.0483290406146 36.90294176522717 L 1456.9902861509909 36.842004911397 L 1456.9335941380907 36.78080872309178 L 1456.878258671068 36.71935931987935 L 1456.824285283423 36.65766284664881 L 1456.7716793724499 36.59572547299609 L 1456.7204461986958 36.533553392606926 L 1456.6705908854356 36.47115282263755 L 1456.6221184181586 36.408530003092956 L 1456.5750336440717 36.34569119620292 L 1456.5293412716128 36.28264268579576 L 1456.4850458699811 36.219390776669975 L 1456.4421518686797 36.15594179396378 L 1456.4006635570731 36.09230208252255 L 1456.360585083958 36.02847800626442 L 1456.3219204571485 35.96447594754381 L 1456.2846735430744 35.900302306513275 L 1456.2488480663967 35.83596350048342 L 1456.2144476096328 35.77146596328125 L 1456.1814756127999 35.706816144606734 L 1456.14993537307 35.642020509387855 L 1456.1198300444412 35.577085537134145 L 1456.0911626374211 35.512017721288714 L 1456.0639360187263 35.446823568578935 L 1456.0381529109964 35.38150959836574 L 1456.0138158925201 35.31608234199172 L 1455.9909273969795 35.25054834212799 L 1455.9694897132047 35.184914152119944 L 1455.9495049849465 35.11918633533186 L 1455.930975210661 35.05337146449067 L 1455.91390224331 34.987476121028585 L 1455.8982877901763 34.92150689442506 L 1455.8841334126919 34.855470381547775 L 1455.871440526283 34.789373185992986 L 1455.8602104002275 34.723221917425164 L 1455.850444157529 34.65702319091605 L 1455.842142774803 34.59078362628313 L 1455.8353070821813 34.524509847427645 L 1455.8299377632275 34.45820848167228 L 1455.8260353548687 34.39188615909835 L 1455.8236002473427 34.32554951188283 L 1455.8226326841584 34.25920517363519" stroke-miterlimit="10" stroke-width="1.708913576" stroke-dasharray=""/></g><g><g/><text fill="black" stroke="none" font-family="sans-serif" font-size="7pt" font-style="normal" font-weight="normal" text-decoration="normal" x="1451.2357382239168" y="51.669504592" text-anchor="start" dominant-baseline="alphabetic" xml:space="preserve">Database</text></g><g><path fill="white" stroke="black" paint-order="fill stroke markers" d=" M 1536.3396981600417 24.467621435200005 A 14.927862708000001 14.927862708000001 0 1 1 1536.339690696111 24.452693574979975 M 1505.6295159560416 40.762615004000004 L 1537.1941549480418 40.762615004000004" stroke-miterlimit="10" stroke-width="1.708913576" stroke-dasharray=""/></g><g><g/><text fill="black" stroke="none" font-family="sans-serif" font-size="7pt" font-style="normal" font-weight="normal" text-decoration="normal" x="1500.6564643582917" y="51.669504592" text-anchor="start" dominant-baseline="alphabetic" xml:space="preserve">s(Screen)</text></g><g><path fill="white" stroke="black" paint-order="fill stroke markers" d=" M 1587.1470137725416 24.467621435200005 A 14.927862708000001 14.927862708000001 0 1 1 1587.1470063086108 24.452693574979975 M 1556.4368315685415 40.762615004000004 L 1588.0014705605417 40.762615004000004" stroke-miterlimit="10" stroke-width="1.708913576" stroke-dasharray=""/></g><g><g/><text fill="black" stroke="none" font-family="sans-serif" font-size="7pt" font-style="normal" font-weight="normal" text-decoration="normal" x="1552.2196393457916" y="51.669504592" text-anchor="start" dominant-baseline="alphabetic" xml:space="preserve">m(Movie)</text></g></g><g><path fill="white" stroke="black" paint-order="fill stroke markers" d=" M 215.8194796125 87.85826267200001 L 225.87191241250002 87.85826267200001 L 225.87191241250002 1308.5050727104008 L 215.8194796125 1308.5050727104008 L 215.8194796125 87.85826267200001" stroke-miterlimit="10" stroke-width="0.8377027333333333" stroke-dasharray=""/><path fill="white" stroke="black" paint-order="fill stroke markers" d=" M 73.90489528333333 147.56971350400002 L 83.95732808333332 147.56971350400002 L 83.95732808333332 175.71652534400002 L 73.90489528333333 175.71652534400002 L 73.90489528333333 147.56971350400002" stroke-miterlimit="10" stroke-width="0.8377027333333333" stroke-dasharray=""/><path fill="white" stroke="black" paint-order="fill stroke markers" d=" M 73.90489528333333 203.86333718400002 L 83.95732808333332 203.86333718400002 L 83.95732808333332 288.30377270400004 L 73.90489528333333 288.30377270400004 L 73.90489528333333 203.86333718400002" stroke-miterlimit="10" stroke-width="0.8377027333333333" stroke-dasharray=""/><path fill="white" stroke="black" paint-order="fill stroke markers" d=" M 9.17578125 232.01014902400001 L 19.22821405 232.01014902400001 L 19.22821405 260.15696086400004 L 9.17578125 260.15696086400004 L 9.17578125 232.01014902400001" stroke-miterlimit="10" stroke-width="0.8377027333333333" stroke-dasharray=""/><path fill="white" stroke="black" paint-order="fill stroke markers" d=" M 407.79983112291666 336.555450144 L 417.8522639229167 336.555450144 L 417.8522639229167 1280.3582608704007 L 407.79983112291666 1280.3582608704007 L 407.79983112291666 336.555450144" stroke-miterlimit="10" stroke-width="0.8377027333333333" stroke-dasharray=""/><path fill="white" stroke="black" paint-order="fill stroke markers" d=" M 884.4930349687501 551.677512064 L 894.54546776875 551.677512064 L 894.54546776875 1042.1156035104004 L 884.4930349687501 1042.1156035104004 L 884.4930349687501 551.677512064" stroke-miterlimit="10" stroke-width="0.8377027333333333" stroke-dasharray=""/><path fill="white" stroke="black" paint-order="fill stroke markers" d=" M 1050.4061544541667 579.824323904 L 1060.4585872541668 579.824323904 L 1060.4585872541668 649.1861102240001 L 1050.4061544541667 649.1861102240001 L 1050.4061544541667 579.824323904" stroke-miterlimit="10" stroke-width="0.8377027333333333" stroke-dasharray=""/><path fill="white" stroke="black" paint-order="fill stroke markers" d=" M 1319.559341791625 747.6999516640002 L 1329.6117745916251 747.6999516640002 L 1329.6117745916251 1013.9687916704005 L 1319.559341791625 1013.9687916704005 L 1319.559341791625 747.6999516640002" stroke-miterlimit="10" stroke-width="0.8377027333333333" stroke-dasharray=""/><path fill="white" stroke="black" paint-order="fill stroke markers" d=" M 1324.585558191625 817.0617379840003 L 1334.6379909916252 817.0617379840003 L 1334.6379909916252 873.3553616640004 L 1324.585558191625 873.3553616640004 L 1324.585558191625 817.0617379840003" stroke-miterlimit="10" stroke-width="0.8377027333333333" stroke-dasharray=""/><path fill="white" stroke="black" paint-order="fill stroke markers" d=" M 1637.5163635582915 957.6751679904004 L 1647.5687963582916 957.6751679904004 L 1647.5687963582916 985.8219798304004 L 1637.5163635582915 985.8219798304004 L 1637.5163635582915 957.6751679904004" stroke-miterlimit="10" stroke-width="0.8377027333333333" stroke-dasharray=""/><path fill="white" stroke="black" paint-order="fill stroke markers" d=" M 412.82604752291667 1083.3305779904003 L 422.8784803229167 1083.3305779904003 L 422.8784803229167 1259.2481519904006 L 412.82604752291667 1259.2481519904006 L 412.82604752291667 1083.3305779904003" stroke-miterlimit="10" stroke-width="0.8377027333333333" stroke-dasharray=""/><path fill="white" stroke="black" paint-order="fill stroke markers" d=" M 220.8456960125 1111.4773898304004 L 230.89812881250003 1111.4773898304004 L 230.89812881250003 1252.2114490304007 L 220.8456960125 1252.2114490304007 L 220.8456960125 1111.4773898304004" stroke-miterlimit="10" stroke-width="0.8377027333333333" stroke-dasharray=""/><path fill="white" stroke="black" paint-order="fill stroke markers" d=" M 417.8522639229167 1139.6242016704005 L 427.9046967229167 1139.6242016704005 L 427.9046967229167 1167.7710135104005 L 417.8522639229167 1167.7710135104005 L 417.8522639229167 1139.6242016704005" stroke-miterlimit="10" stroke-width="0.8377027333333333" stroke-dasharray=""/><path fill="white" stroke="black" paint-order="fill stroke markers" d=" M 417.8522639229167 1195.9178253504006 L 427.9046967229167 1195.9178253504006 L 427.9046967229167 1224.0646371904006 L 417.8522639229167 1224.0646371904006 L 417.8522639229167 1195.9178253504006" stroke-miterlimit="10" stroke-width="0.8377027333333333" stroke-dasharray=""/><g><g><rect fill="white" stroke="none" x="72.22943621124999" y="74.79010003200001" width="85.56260484" height="13.06816264"/></g><text fill="black" stroke="none" font-family="sans-serif" font-size="7pt" font-style="normal" font-weight="normal" text-decoration="normal" x="73.73730113124999" y="83.83728955200002" text-anchor="start" dominant-baseline="alphabetic" xml:space="preserve">scheduleScreening()</text></g><g><path fill="none" stroke="black" paint-order="fill stroke markers" d=" M 14.20199765 87.85826267200001 L 207.54297660716668 87.85826267200001" stroke-miterlimit="10" stroke-width="0.8377027333333333" stroke-dasharray=""/><g transform="translate(215.8194796125,87.85826267200001) translate(-215.8194796125,-87.85826267200001)"><path fill="black" stroke="none" paint-order="stroke fill markers" d=" M 207.44245227916667 83.66974900533334 L 215.8194796125 87.85826267200001 L 207.44245227916667 92.04677633866667 Z"/></g></g><g><path fill="white" stroke="black" paint-order="fill stroke markers" d=" M 98.88519079133333 117.86477458000003 A 14.927862708000001 14.927862708000001 0 1 1 98.88518332740259 117.84984671978 M 59.83148936333332 102.08245508400003 L 59.83148936333332 133.64709407600003 M 58.97703257533332 117.86477458000003 L 69.02946537533332 117.86477458000003" stroke-miterlimit="10" stroke-width="1.708913576" stroke-dasharray=""/></g><g><g/><text fill="black" stroke="none" font-family="sans-serif" font-size="7pt" font-style="normal" font-weight="normal" text-decoration="normal" x="45.91060387083333" y="143.69952687600002" text-anchor="start" dominant-baseline="alphabetic" xml:space="preserve">ScreeningDialog</text></g><g><g><rect fill="white" stroke="none" x="126.36010650916666" y="112.18515004800003" width="75.05088609" height="13.06816264"/></g><text fill="black" stroke="none" font-family="sans-serif" font-size="7pt" font-style="normal" font-weight="normal" text-decoration="normal" x="127.86797142916666" y="121.23233956800003" text-anchor="start" dominant-baseline="alphabetic" xml:space="preserve">ScreeningDialog()</text></g><g><path fill="none" stroke="black" paint-order="fill stroke markers" d=" M 215.8194796125 125.25331268800002 L 120.22812250116667 125.25331268800002" stroke-miterlimit="10" stroke-width="0.8377027333333333" stroke-dasharray=""/><g transform="translate(111.95161949583333,125.25331268800002) translate(-111.95161949583333,-125.25331268800002)"><path fill="black" stroke="none" paint-order="stroke fill markers" d=" M 120.32864682916666 121.06479902133336 L 111.95161949583333 125.25331268800002 L 120.32864682916666 129.4418263546667 Z"/></g></g><g><g><rect fill="white" stroke="none" x="148.38053892791666" y="162.64836270400002" width="3.01572984" height="13.06816264"/></g><text fill="black" stroke="none" font-family="sans-serif" font-size="7pt" font-style="normal" font-weight="normal" text-decoration="normal" x="149.88840384791666" y="171.695552224" text-anchor="start" dominant-baseline="alphabetic" xml:space="preserve"></text></g><g><path fill="none" stroke="black" paint-order="fill stroke markers" d=" M 83.95732808333332 175.71652534400002 L 207.54297660716668 175.71652534400002" stroke-miterlimit="10" stroke-width="0.8377027333333333" stroke-dasharray="4.02097312"/><g transform="translate(215.8194796125,175.71652534400002) translate(-215.8194796125,-175.71652534400002)"><path fill="black" stroke="none" paint-order="stroke fill markers" d=" M 207.44245227916667 171.52801167733335 L 215.8194796125 175.71652534400002 L 207.44245227916667 179.90503901066668 Z"/></g></g><g><g><rect fill="white" stroke="none" x="118.03630064666666" y="190.79517454400002" width="63.7042064025" height="13.06816264"/></g><text fill="black" stroke="none" font-family="sans-serif" font-size="7pt" font-style="normal" font-weight="normal" text-decoration="normal" x="119.54416556666666" y="199.842364064" text-anchor="start" dominant-baseline="alphabetic" xml:space="preserve">showAndWait()</text></g><g><path fill="none" stroke="black" paint-order="fill stroke markers" d=" M 215.8194796125 203.86333718400002 L 92.23383108866666 203.86333718400002" stroke-miterlimit="10" stroke-width="0.8377027333333333" stroke-dasharray=""/><g transform="translate(83.95732808333332,203.86333718400002) translate(-83.95732808333332,-203.86333718400002)"><path fill="black" stroke="none" paint-order="stroke fill markers" d=" M 92.33435541666665 199.67482351733335 L 83.95732808333332 203.86333718400002 L 92.33435541666665 208.05185085066668 Z"/></g></g><g><g><rect fill="white" stroke="none" x="45.05868974666666" y="218.94198638400002" width="3.01572984" height="13.06816264"/></g><text fill="black" stroke="none" font-family="sans-serif" font-size="7pt" font-style="normal" font-weight="normal" text-decoration="normal" x="46.56655466666666" y="227.989175904" text-anchor="start" dominant-baseline="alphabetic" xml:space="preserve"></text></g><g><path fill="none" stroke="black" paint-order="fill stroke markers" d=" M 73.90489528333333 232.01014902400001 L 27.50471705533333 232.01014902400001" stroke-miterlimit="10" stroke-width="0.8377027333333333" stroke-dasharray=""/><g transform="translate(19.22821405,232.01014902400001) translate(-19.22821405,-232.01014902400001)"><path fill="black" stroke="none" paint-order="stroke fill markers" d=" M 27.605241383333333 227.82163535733335 L 19.22821405 232.01014902400001 L 27.605241383333333 236.19866269066668 Z"/></g></g><g><g><rect fill="white" stroke="none" x="45.05868974666666" y="247.08879822400004" width="3.01572984" height="13.06816264"/></g><text fill="black" stroke="none" font-family="sans-serif" font-size="7pt" font-style="normal" font-weight="normal" text-decoration="normal" x="46.56655466666666" y="256.13598774400003" text-anchor="start" dominant-baseline="alphabetic" xml:space="preserve"></text></g><g><path fill="none" stroke="black" paint-order="fill stroke markers" d=" M 19.22821405 260.15696086400004 L 65.62839227799999 260.15696086400004" stroke-miterlimit="10" stroke-width="0.8377027333333333" stroke-dasharray="4.02097312"/><g transform="translate(73.90489528333333,260.15696086400004) translate(-73.90489528333333,-260.15696086400004)"><path fill="black" stroke="none" paint-order="stroke fill markers" d=" M 65.52786795 255.96844719733338 L 73.90489528333333 260.15696086400004 L 65.52786795 264.3454745306667 Z"/></g></g><g><g><rect fill="white" stroke="none" x="98.10270689666666" y="275.235610064" width="103.5713939025" height="13.06816264"/></g><text fill="black" stroke="none" font-family="sans-serif" font-size="7pt" font-style="normal" font-weight="normal" text-decoration="normal" x="99.61057181666666" y="284.28279958400003" text-anchor="start" dominant-baseline="alphabetic" xml:space="preserve">returnsgi:ScreeningInfo</text></g><g><path fill="none" stroke="black" paint-order="fill stroke markers" d=" M 83.95732808333332 288.30377270400004 L 207.54297660716668 288.30377270400004" stroke-miterlimit="10" stroke-width="0.8377027333333333" stroke-dasharray=""/><g transform="translate(215.8194796125,288.30377270400004) translate(-215.8194796125,-288.30377270400004)"><path fill="black" stroke="none" paint-order="stroke fill markers" d=" M 207.44245227916667 284.1152590373334 L 215.8194796125 288.30377270400004 L 207.44245227916667 292.4922863706667 Z"/></g></g><g><g><rect fill="white" stroke="none" x="240.28039942583334" y="303.382421904" width="153.11094468375" height="13.06816264"/></g><g><rect fill="white" stroke="none" x="240.28039942583334" y="313.43485470400003" width="123.724714215" height="13.06816264"/></g><g><rect fill="white" stroke="none" x="240.28039942583334" y="323.48728750400005" width="127.56113999625" height="13.06816264"/></g><text fill="black" stroke="none" font-family="sans-serif" font-size="7pt" font-style="normal" font-weight="normal" text-decoration="normal" x="241.78826434583334" y="312.42961142400003" text-anchor="start" dominant-baseline="alphabetic" xml:space="preserve">scheduleScreening(date:LocalDate,</text><text fill="black" stroke="none" font-family="sans-serif" font-size="7pt" font-style="normal" font-weight="normal" text-decoration="normal" x="241.78826434583334" y="322.48204422400005" text-anchor="start" dominant-baseline="alphabetic" xml:space="preserve">time:LocalTime,title:String,</text><text fill="black" stroke="none" font-family="sans-serif" font-size="7pt" font-style="normal" font-weight="normal" text-decoration="normal" x="241.78826434583334" y="332.53447702400007" text-anchor="start" dominant-baseline="alphabetic" xml:space="preserve">year:int,screenName:String)</text></g><g><path fill="none" stroke="black" paint-order="fill stroke markers" d=" M 225.87191241250002 336.555450144 L 399.52332811758333 336.555450144" stroke-miterlimit="10" stroke-width="0.8377027333333333" stroke-dasharray=""/><g transform="translate(407.79983112291666,336.555450144) translate(-407.79983112291666,-336.555450144)"><path fill="black" stroke="none" paint-order="stroke fill markers" d=" M 399.4228037895833 332.36693647733335 L 407.79983112291666 336.555450144 L 399.4228037895833 340.7439638106667 Z"/></g></g><g><g><rect fill="white" stroke="none" x="429.74764273625004" y="378.77566790400004" width="356.84141343375" height="13.06816264"/></g><text fill="black" stroke="none" font-family="sans-serif" font-size="7pt" font-style="normal" font-weight="normal" text-decoration="normal" x="431.25550765625" y="387.82285742400006" text-anchor="start" dominant-baseline="alphabetic" xml:space="preserve">checkDoubleScreening(time:LocalTime,screenName:String,sg:PersistentScreening)</text></g><g><path fill="none" stroke="black" paint-order="fill stroke markers" d=" M 417.8522639229167 391.843830544 L 458.0619951229167 391.843830544 L 458.0619951229167 404.91199318400004 L 426.12876692825 404.91199318400004" stroke-miterlimit="10" stroke-width="0.8377027333333333" stroke-dasharray=""/><g transform="translate(417.8522639229167,404.91199318400004) translate(-417.8522639229167,-404.91199318400004)"><path fill="black" stroke="none" paint-order="stroke fill markers" d=" M 426.22929125625 400.7234795173334 L 417.8522639229167 404.91199318400004 L 426.22929125625 409.1005068506667 Z"/></g></g><g><g><rect fill="white" stroke="none" x="429.74764273625004" y="462.21086014400004" width="431.1221751525" height="13.06816264"/></g><text fill="black" stroke="none" font-family="sans-serif" font-size="7pt" font-style="normal" font-weight="normal" text-decoration="normal" x="431.25550765625" y="471.25804966400005" text-anchor="start" dominant-baseline="alphabetic" xml:space="preserve">checkTimeAvailable()</text></g><g><path fill="none" stroke="black" paint-order="fill stroke markers" d=" M 417.8522639229167 475.279022784 L 458.0619951229167 475.279022784 L 458.0619951229167 488.34718542400003 L 426.12876692825 488.34718542400003" stroke-miterlimit="10" stroke-width="0.8377027333333333" stroke-dasharray=""/><g transform="translate(417.8522639229167,488.34718542400003) translate(-417.8522639229167,-488.34718542400003)"><path fill="black" stroke="none" paint-order="stroke fill markers" d=" M 426.22929125625 484.15867175733337 L 417.8522639229167 488.34718542400003 L 426.22929125625 492.5356990906667 Z"/></g></g><g><g><rect fill="white" stroke="none" x="574.6171771039584" y="518.504483824" width="153.11094468375" height="13.06816264"/></g><g><rect fill="white" stroke="none" x="574.6171771039584" y="528.556916624" width="123.724714215" height="13.06816264"/></g><g><rect fill="white" stroke="none" x="574.6171771039584" y="538.609349424" width="127.56113999625" height="13.06816264"/></g><text fill="black" stroke="none" font-family="sans-serif" font-size="7pt" font-style="normal" font-weight="normal" text-decoration="normal" x="576.1250420239584" y="527.551673344" text-anchor="start" dominant-baseline="alphabetic" xml:space="preserve">scheduleScreening(date:LocalDate,</text><text fill="black" stroke="none" font-family="sans-serif" font-size="7pt" font-style="normal" font-weight="normal" text-decoration="normal" x="576.1250420239584" y="537.6041061440001" text-anchor="start" dominant-baseline="alphabetic" xml:space="preserve">time:LocalTime,title:String,</text><text fill="black" stroke="none" font-family="sans-serif" font-size="7pt" font-style="normal" font-weight="normal" text-decoration="normal" x="576.1250420239584" y="547.6565389440001" text-anchor="start" dominant-baseline="alphabetic" xml:space="preserve">year:int,screenName:String)</text></g><g><path fill="none" stroke="black" paint-order="fill stroke markers" d=" M 417.8522639229167 551.677512064 L 876.2165319634167 551.677512064" stroke-miterlimit="10" stroke-width="0.8377027333333333" stroke-dasharray=""/><g transform="translate(884.4930349687501,551.677512064) translate(-884.4930349687501,-551.677512064)"><path fill="black" stroke="none" paint-order="stroke fill markers" d=" M 876.1160076354167 547.4889983973333 L 884.4930349687501 551.677512064 L 876.1160076354167 555.8660257306667 Z"/></g></g><g><g><rect fill="white" stroke="none" x="906.4408465820834" y="566.7561612640001" width="132.06992905875" height="13.06816264"/></g><text fill="black" stroke="none" font-family="sans-serif" font-size="7pt" font-style="normal" font-weight="normal" text-decoration="normal" x="907.9487115020834" y="575.8033507840001" text-anchor="start" dominant-baseline="alphabetic" xml:space="preserve">getScreen(screenName:String)</text></g><g><path fill="none" stroke="black" paint-order="fill stroke markers" d=" M 894.54546776875 579.824323904 L 1042.1296514488333 579.824323904" stroke-miterlimit="10" stroke-width="0.8377027333333333" stroke-dasharray=""/><g transform="translate(1050.4061544541667,579.824323904) translate(-1050.4061544541667,-579.824323904)"><path fill="black" stroke="none" paint-order="stroke fill markers" d=" M 1042.0291271208332 575.6358102373333 L 1050.4061544541667 579.824323904 L 1042.0291271208332 584.0128375706668 Z"/></g></g><g><g><rect fill="white" stroke="none" x="1072.3539660675003" y="594.902973104" width="154.064557965" height="13.06816264"/></g><text fill="black" stroke="none" font-family="sans-serif" font-size="7pt" font-style="normal" font-weight="normal" text-decoration="normal" x="1073.8618309875003" y="603.9501626240001" text-anchor="start" dominant-baseline="alphabetic" xml:space="preserve">getFromCacheByName(screenName)</text></g><g><path fill="none" stroke="black" paint-order="fill stroke markers" d=" M 1060.4585872541668 607.9711357440001 L 1100.6683184541669 607.9711357440001 L 1100.6683184541669 621.0392983840001 L 1068.7350902595 621.0392983840001" stroke-miterlimit="10" stroke-width="0.8377027333333333" stroke-dasharray=""/><g transform="translate(1060.4585872541668,621.0392983840001) translate(-1060.4585872541668,-621.0392983840001)"><path fill="black" stroke="none" paint-order="stroke fill markers" d=" M 1068.8356145875002 616.8507847173333 L 1060.4585872541668 621.0392983840001 L 1068.8356145875002 625.2278120506668 Z"/></g></g><g><g><rect fill="white" stroke="none" x="937.7035418945834" y="636.1179475840001" width="69.54453843375" height="13.06816264"/></g><text fill="black" stroke="none" font-family="sans-serif" font-size="7pt" font-style="normal" font-weight="normal" text-decoration="normal" x="939.2114068145834" y="645.1651371040002" text-anchor="start" dominant-baseline="alphabetic" xml:space="preserve">returns:Screen</text></g><g><path fill="none" stroke="black" paint-order="fill stroke markers" d=" M 1050.4061544541667 649.1861102240001 L 902.8219707740833 649.1861102240001" stroke-miterlimit="10" stroke-width="0.8377027333333333" stroke-dasharray="4.02097312"/><g transform="translate(894.54546776875,649.1861102240001) translate(-894.54546776875,-649.1861102240001)"><path fill="black" stroke="none" paint-order="stroke fill markers" d=" M 902.9224951020833 644.9975965573334 L 894.54546776875 649.1861102240001 L 902.9224951020833 653.3746238906668 Z"/></g></g><g><g><rect fill="white" stroke="none" x="987.08316023625" y="691.4063279840002" width="150.31602280875" height="13.06816264"/></g><text fill="black" stroke="none" font-family="sans-serif" font-size="7pt" font-style="normal" font-weight="normal" text-decoration="normal" x="988.59102515625" y="700.4535175040003" text-anchor="start" dominant-baseline="alphabetic" xml:space="preserve">m:=getMovie(title:String,year:int)</text></g><g><path fill="none" stroke="black" paint-order="fill stroke markers" d=" M 894.54546776875 704.4744906240002 L 1221.6603725071668 704.4744906240002" stroke-miterlimit="10" stroke-width="0.8377027333333333" stroke-dasharray=""/><g transform="translate(1229.9368755125001,704.4744906240002) translate(-1229.9368755125001,-704.4744906240002)"><path fill="black" stroke="none" paint-order="stroke fill markers" d=" M 1221.5598481791667 700.2859769573334 L 1229.9368755125001 704.4744906240002 L 1221.5598481791667 708.6630042906669 Z"/></g></g><g><g><rect fill="white" stroke="none" x="951.3909754070626" y="734.6317890240002" width="311.32285874625" height="13.06816264"/></g><text fill="black" stroke="none" font-family="sans-serif" font-size="7pt" font-style="normal" font-weight="normal" text-decoration="normal" x="952.8988403270625" y="743.6789785440003" text-anchor="start" dominant-baseline="alphabetic" xml:space="preserve">scheduleScreening(date:LocalDate,m:Movie,s:Screen,time:LocalTime)</text></g><g><path fill="none" stroke="black" paint-order="fill stroke markers" d=" M 894.54546776875 747.6999516640002 L 1311.2828387862917 747.6999516640002" stroke-miterlimit="10" stroke-width="0.8377027333333333" stroke-dasharray=""/><g transform="translate(1319.559341791625,747.6999516640002) translate(-1319.559341791625,-747.6999516640002)"><path fill="black" stroke="none" paint-order="stroke fill markers" d=" M 1311.1823144582916 743.5114379973335 L 1319.559341791625 747.6999516640002 L 1311.1823144582916 751.8884653306669 Z"/></g></g><g><g><rect fill="white" stroke="none" x="1373.1582010580835" y="762.7786008640003" width="53.79453843375" height="13.06816264"/></g><text fill="black" stroke="none" font-family="sans-serif" font-size="7pt" font-style="normal" font-weight="normal" text-decoration="normal" x="1374.6660659780835" y="771.8257903840004" text-anchor="start" dominant-baseline="alphabetic" xml:space="preserve">oid:=getId()</text></g><g><path fill="none" stroke="black" paint-order="fill stroke markers" d=" M 1329.6117745916251 775.8467635040003 L 1462.2226629529584 775.8467635040003" stroke-miterlimit="10" stroke-width="0.8377027333333333" stroke-dasharray=""/><g transform="translate(1470.4991659582918,775.8467635040003) translate(-1470.4991659582918,-775.8467635040003)"><path fill="black" stroke="none" paint-order="stroke fill markers" d=" M 1462.1221386249583 771.6582498373335 L 1470.4991659582918 775.8467635040003 L 1462.1221386249583 780.035277170667 Z"/></g></g><g><g><rect fill="white" stroke="none" x="1346.5333698049585" y="790.9254127040002" width="111.55625718375" height="13.06816264"/></g><text fill="black" stroke="none" font-family="sans-serif" font-size="7pt" font-style="normal" font-weight="normal" text-decoration="normal" x="1348.0412347249585" y="799.9726022240003" text-anchor="start" dominant-baseline="alphabetic" xml:space="preserve">performUpdate(sql:String)</text></g><g><path fill="none" stroke="black" paint-order="fill stroke markers" d=" M 1329.6117745916251 803.9935753440003 L 1374.847722191625 803.9935753440003 L 1374.847722191625 817.0617379840003 L 1342.9144939969583 817.0617379840003" stroke-miterlimit="10" stroke-width="0.8377027333333333" stroke-dasharray=""/><g transform="translate(1334.637990991625,817.0617379840003) translate(-1334.637990991625,-817.0617379840003)"><path fill="black" stroke="none" paint-order="stroke fill markers" d=" M 1343.0150183249584 812.8732243173336 L 1334.637990991625 817.0617379840003 L 1343.0150183249584 821.250251650667 Z"/></g></g><g><g><rect fill="white" stroke="none" x="1346.5333698049585" y="832.1403871840004" width="112.07041734" height="13.06816264"/></g><text fill="black" stroke="none" font-family="sans-serif" font-size="7pt" font-style="normal" font-weight="normal" text-decoration="normal" x="1348.0412347249585" y="841.1875767040004" text-anchor="start" dominant-baseline="alphabetic" xml:space="preserve">executeUpdate(sql:String)</text></g><g><path fill="none" stroke="black" paint-order="fill stroke markers" d=" M 1334.637990991625 845.2085498240003 L 1462.2226629529584 845.2085498240003" stroke-miterlimit="10" stroke-width="0.8377027333333333" stroke-dasharray=""/><g transform="translate(1470.4991659582918,845.2085498240003) translate(-1470.4991659582918,-845.2085498240003)"><path fill="black" stroke="none" paint-order="stroke fill markers" d=" M 1462.1221386249583 841.0200361573336 L 1470.4991659582918 845.2085498240003 L 1462.1221386249583 849.397063490667 Z"/></g></g><g><g><rect fill="white" stroke="none" x="1346.5333698049585" y="860.2871990240003" width="3.01572984" height="13.06816264"/></g><text fill="black" stroke="none" font-family="sans-serif" font-size="7pt" font-style="normal" font-weight="normal" text-decoration="normal" x="1348.0412347249585" y="869.3343885440004" text-anchor="start" dominant-baseline="alphabetic" xml:space="preserve"></text></g><g><path fill="none" stroke="black" paint-order="fill stroke markers" d=" M 1334.637990991625 873.3553616640004 L 1374.847722191625 873.3553616640004 L 1374.847722191625 886.4235243040004 L 1337.8882775969582 886.4235243040004" stroke-miterlimit="10" stroke-width="0.8377027333333333" stroke-dasharray="4.02097312"/><g transform="translate(1329.611774591625,886.4235243040004) translate(-1329.611774591625,-886.4235243040004)"><path fill="black" stroke="none" paint-order="stroke fill markers" d=" M 1337.9888019249584 882.2350106373336 L 1329.611774591625 886.4235243040004 L 1337.9888019249584 890.6120379706671 Z"/></g></g><g><path fill="white" stroke="black" paint-order="fill stroke markers" d=" M 1657.4704426662915 926.6030982056004 A 14.927862708000001 14.927862708000001 0 1 1 1657.4704352023607 926.5881703453804 M 1626.7602604622914 942.8980917744004 L 1658.3248994542917 942.8980917744004" stroke-miterlimit="10" stroke-width="1.708913576" stroke-dasharray=""/></g><g><g/><text fill="black" stroke="none" font-family="sans-serif" font-size="7pt" font-style="normal" font-weight="normal" text-decoration="normal" x="1602.2710955832915" y="953.8049813624004" text-anchor="start" dominant-baseline="alphabetic" xml:space="preserve">PersistentScreening</text></g><g><g><rect fill="white" stroke="none" x="1397.8937752455834" y="901.5021735040003" width="136.09531968375" height="13.06816264"/></g><g><rect fill="white" stroke="none" x="1397.8937752455834" y="911.5546063040003" width="117.56797593375" height="13.06816264"/></g><g><rect fill="white" stroke="none" x="1397.8937752455834" y="921.6070391040004" width="117.220807965" height="13.06816264"/></g><text fill="black" stroke="none" font-family="sans-serif" font-size="7pt" font-style="normal" font-weight="normal" text-decoration="normal" x="1399.4016401655833" y="910.5493630240004" text-anchor="start" dominant-baseline="alphabetic" xml:space="preserve">PersistentScreening(oid:Integer,</text><text fill="black" stroke="none" font-family="sans-serif" font-size="7pt" font-style="normal" font-weight="normal" text-decoration="normal" x="1399.4016401655833" y="920.6017958240004" text-anchor="start" dominant-baseline="alphabetic" xml:space="preserve">date:LocalDate,m:Movie,</text><text fill="black" stroke="none" font-family="sans-serif" font-size="7pt" font-style="normal" font-weight="normal" text-decoration="normal" x="1399.4016401655833" y="930.6542286240004" text-anchor="start" dominant-baseline="alphabetic" xml:space="preserve">s:Screen,time:LocalTime)</text></g><g><path fill="none" stroke="black" paint-order="fill stroke markers" d=" M 1329.6117745916251 934.6752017440003 L 1593.9945925779582 934.6752017440003" stroke-miterlimit="10" stroke-width="0.8377027333333333" stroke-dasharray=""/><g transform="translate(1602.2710955832915,934.6752017440003) translate(-1602.2710955832915,-934.6752017440003)"><path fill="black" stroke="none" paint-order="stroke fill markers" d=" M 1593.894068249958 930.4866880773336 L 1602.2710955832915 934.6752017440003 L 1593.894068249958 938.863715410667 Z"/></g></g><g><g><rect fill="white" stroke="none" x="1482.0562041549583" y="972.7538171904005" width="3.01572984" height="13.06816264"/></g><text fill="black" stroke="none" font-family="sans-serif" font-size="7pt" font-style="normal" font-weight="normal" text-decoration="normal" x="1483.5640690749583" y="981.8010067104005" text-anchor="start" dominant-baseline="alphabetic" xml:space="preserve"></text></g><g><path fill="none" stroke="black" paint-order="fill stroke markers" d=" M 1637.5163635582915 985.8219798304004 L 1337.8882775969585 985.8219798304004" stroke-miterlimit="10" stroke-width="0.8377027333333333" stroke-dasharray="4.02097312"/><g transform="translate(1329.6117745916251,985.8219798304004) translate(-1329.6117745916251,-985.8219798304004)"><path fill="black" stroke="none" paint-order="stroke fill markers" d=" M 1337.9888019249586 981.6334661637337 L 1329.6117745916251 985.8219798304004 L 1337.9888019249586 990.0104934970672 Z"/></g></g><g><g><rect fill="white" stroke="none" x="1105.5445398601876" y="1000.9006290304005" width="3.01572984" height="13.06816264"/></g><text fill="black" stroke="none" font-family="sans-serif" font-size="7pt" font-style="normal" font-weight="normal" text-decoration="normal" x="1107.0524047801875" y="1009.9478185504006" text-anchor="start" dominant-baseline="alphabetic" xml:space="preserve"></text></g><g><path fill="none" stroke="black" paint-order="fill stroke markers" d=" M 1319.559341791625 1013.9687916704005 L 902.8219707740833 1013.9687916704005" stroke-miterlimit="10" stroke-width="0.8377027333333333" stroke-dasharray="4.02097312"/><g transform="translate(894.54546776875,1013.9687916704005) translate(-894.54546776875,-1013.9687916704005)"><path fill="black" stroke="none" paint-order="stroke fill markers" d=" M 902.9224951020833 1009.7802780037338 L 894.54546776875 1013.9687916704005 L 902.9224951020833 1018.1573053370672 Z"/></g></g><g><g><rect fill="white" stroke="none" x="649.6647845258334" y="1029.0474408704004" width="3.01572984" height="13.06816264"/></g><text fill="black" stroke="none" font-family="sans-serif" font-size="7pt" font-style="normal" font-weight="normal" text-decoration="normal" x="651.1726494458334" y="1038.0946303904002" text-anchor="start" dominant-baseline="alphabetic" xml:space="preserve"></text></g><g><path fill="none" stroke="black" paint-order="fill stroke markers" d=" M 884.4930349687501 1042.1156035104004 L 426.12876692825 1042.1156035104004" stroke-miterlimit="10" stroke-width="0.8377027333333333" stroke-dasharray="4.02097312"/><g transform="translate(417.8522639229167,1042.1156035104004) translate(-417.8522639229167,-1042.1156035104004)"><path fill="black" stroke="none" paint-order="stroke fill markers" d=" M 426.22929125625 1037.9270898437337 L 417.8522639229167 1042.1156035104004 L 426.22929125625 1046.3041171770672 Z"/></g></g><g><g><rect fill="white" stroke="none" x="434.77385913625005" y="1057.1942527104004" width="72.03184312125" height="13.06816264"/></g><text fill="black" stroke="none" font-family="sans-serif" font-size="7pt" font-style="normal" font-weight="normal" text-decoration="normal" x="436.28172405625" y="1066.2414422304003" text-anchor="start" dominant-baseline="alphabetic" xml:space="preserve">notifyObservers()</text></g><g><path fill="none" stroke="black" paint-order="fill stroke markers" d=" M 417.8522639229167 1070.2624153504003 L 463.0882115229167 1070.2624153504003 L 463.0882115229167 1083.3305779904003 L 431.15498332825 1083.3305779904003" stroke-miterlimit="10" stroke-width="0.8377027333333333" stroke-dasharray=""/><g transform="translate(422.8784803229167,1083.3305779904003) translate(-422.8784803229167,-1083.3305779904003)"><path fill="black" stroke="none" paint-order="stroke fill markers" d=" M 431.25550765625 1079.1420643237336 L 422.8784803229167 1083.3305779904003 L 431.25550765625 1087.519091657067 Z"/></g></g><g><g><rect fill="white" stroke="none" x="303.5934810602084" y="1098.4092271904003" width="36.537214215" height="13.06816264"/></g><text fill="black" stroke="none" font-family="sans-serif" font-size="7pt" font-style="normal" font-weight="normal" text-decoration="normal" x="305.10134598020835" y="1107.4564167104002" text-anchor="start" dominant-baseline="alphabetic" xml:space="preserve">update()</text></g><g><path fill="none" stroke="black" paint-order="fill stroke markers" d=" M 412.82604752291667 1111.4773898304004 L 239.17463181783333 1111.4773898304004" stroke-miterlimit="10" stroke-width="0.8377027333333333" stroke-dasharray=""/><g transform="translate(230.8981288125,1111.4773898304004) translate(-230.8981288125,-1111.4773898304004)"><path fill="black" stroke="none" paint-order="stroke fill markers" d=" M 239.27515614583334 1107.2888761637337 L 230.8981288125 1111.4773898304004 L 239.27515614583334 1115.6659034970671 Z"/></g></g><g><g><rect fill="white" stroke="none" x="304.10927480708335" y="1126.5560390304004" width="40.53184312125" height="13.06816264"/></g><text fill="black" stroke="none" font-family="sans-serif" font-size="7pt" font-style="normal" font-weight="normal" text-decoration="normal" x="305.6171397270833" y="1135.6032285504002" text-anchor="start" dominant-baseline="alphabetic" xml:space="preserve">getDate()</text></g><g><path fill="none" stroke="black" paint-order="fill stroke markers" d=" M 230.8981288125 1139.6242016704005 L 409.57576091758335 1139.6242016704005" stroke-miterlimit="10" stroke-width="0.8377027333333333" stroke-dasharray=""/><g transform="translate(417.8522639229167,1139.6242016704005) translate(-417.8522639229167,-1139.6242016704005)"><path fill="black" stroke="none" paint-order="stroke fill markers" d=" M 409.47523658958335 1135.4356880037337 L 417.8522639229167 1139.6242016704005 L 409.47523658958335 1143.8127153370672 Z"/></g></g><g><g><rect fill="white" stroke="none" x="301.10341543208335" y="1154.7028508704004" width="46.54356187125" height="13.06816264"/></g><text fill="black" stroke="none" font-family="sans-serif" font-size="7pt" font-style="normal" font-weight="normal" text-decoration="normal" x="302.6112803520833" y="1163.7500403904003" text-anchor="start" dominant-baseline="alphabetic" xml:space="preserve">returndate</text></g><g><path fill="none" stroke="black" paint-order="fill stroke markers" d=" M 417.8522639229167 1167.7710135104005 L 239.17463181783333 1167.7710135104005" stroke-miterlimit="10" stroke-width="0.8377027333333333" stroke-dasharray="4.02097312"/><g transform="translate(230.8981288125,1167.7710135104005) translate(-230.8981288125,-1167.7710135104005)"><path fill="black" stroke="none" paint-order="stroke fill markers" d=" M 239.27515614583334 1163.5824998437338 L 230.8981288125 1167.7710135104005 L 239.27515614583334 1171.9595271770672 Z"/></g></g><g><g><rect fill="white" stroke="none" x="291.10146230708335" y="1182.8496627104005" width="66.54746812125" height="13.06816264"/></g><text fill="black" stroke="none" font-family="sans-serif" font-size="7pt" font-style="normal" font-weight="normal" text-decoration="normal" x="292.6093272270833" y="1191.8968522304003" text-anchor="start" dominant-baseline="alphabetic" xml:space="preserve">getScreenings()</text></g><g><path fill="none" stroke="black" paint-order="fill stroke markers" d=" M 230.8981288125 1195.9178253504006 L 409.57576091758335 1195.9178253504006" stroke-miterlimit="10" stroke-width="0.8377027333333333" stroke-dasharray=""/><g transform="translate(417.8522639229167,1195.9178253504006) translate(-417.8522639229167,-1195.9178253504006)"><path fill="black" stroke="none" paint-order="stroke fill markers" d=" M 409.47523658958335 1191.7293116837338 L 417.8522639229167 1195.9178253504006 L 409.47523658958335 1200.1063390170673 Z"/></g></g><g><g><rect fill="white" stroke="none" x="288.09999746333335" y="1210.9964745504005" width="72.55039780875" height="13.06816264"/></g><text fill="black" stroke="none" font-family="sans-serif" font-size="7pt" font-style="normal" font-weight="normal" text-decoration="normal" x="289.6078623833333" y="1220.0436640704004" text-anchor="start" dominant-baseline="alphabetic" xml:space="preserve">returnscreenings</text></g><g><path fill="none" stroke="black" paint-order="fill stroke markers" d=" M 417.8522639229167 1224.0646371904006 L 239.17463181783333 1224.0646371904006" stroke-miterlimit="10" stroke-width="0.8377027333333333" stroke-dasharray="4.02097312"/><g transform="translate(230.8981288125,1224.0646371904006) translate(-230.8981288125,-1224.0646371904006)"><path fill="black" stroke="none" paint-order="stroke fill markers" d=" M 239.27515614583334 1219.876123523734 L 230.8981288125 1224.0646371904006 L 239.27515614583334 1228.2531508570673 Z"/></g></g><g><g><rect fill="white" stroke="none" x="320.3542232477084" y="1239.1432863904006" width="3.01572984" height="13.06816264"/></g><text fill="black" stroke="none" font-family="sans-serif" font-size="7pt" font-style="normal" font-weight="normal" text-decoration="normal" x="321.86208816770835" y="1248.1904759104004" text-anchor="start" dominant-baseline="alphabetic" xml:space="preserve"></text></g><g><path fill="none" stroke="black" paint-order="fill stroke markers" d=" M 230.8981288125 1252.2114490304007 L 404.54954451758334 1252.2114490304007" stroke-miterlimit="10" stroke-width="0.8377027333333333" stroke-dasharray="4.02097312"/><g transform="translate(412.82604752291667,1252.2114490304007) translate(-412.82604752291667,-1252.2114490304007)"><path fill="black" stroke="none" paint-order="stroke fill markers" d=" M 404.44902018958334 1248.022935363734 L 412.82604752291667 1252.2114490304007 L 404.44902018958334 1256.3999626970674 Z"/></g></g><g><g><rect fill="white" stroke="none" x="315.32800684770837" y="1267.2900982304006" width="3.01572984" height="13.06816264"/></g><text fill="black" stroke="none" font-family="sans-serif" font-size="7pt" font-style="normal" font-weight="normal" text-decoration="normal" x="316.83587176770834" y="1276.3372877504005" text-anchor="start" dominant-baseline="alphabetic" xml:space="preserve"></text></g><g><path fill="none" stroke="black" paint-order="fill stroke markers" d=" M 407.79983112291666 1280.3582608704007 L 234.14841541783335 1280.3582608704007" stroke-miterlimit="10" stroke-width="0.8377027333333333" stroke-dasharray="4.02097312"/><g transform="translate(225.87191241250002,1280.3582608704007) translate(-225.87191241250002,-1280.3582608704007)"><path fill="black" stroke="none" paint-order="stroke fill markers" d=" M 234.24893974583335 1276.169747203734 L 225.87191241250002 1280.3582608704007 L 234.24893974583335 1284.5467745370674 Z"/></g></g><g><g><rect fill="white" stroke="none" x="113.50287371124999" y="1295.4369100704007" width="3.01572984" height="13.06816264"/></g><text fill="black" stroke="none" font-family="sans-serif" font-size="7pt" font-style="normal" font-weight="normal" text-decoration="normal" x="115.01073863124999" y="1304.4840995904005" text-anchor="start" dominant-baseline="alphabetic" xml:space="preserve"></text></g><g><path fill="none" stroke="black" paint-order="fill stroke markers" d=" M 215.8194796125 1308.5050727104008 L 22.478500655333335 1308.5050727104008" stroke-miterlimit="10" stroke-width="0.8377027333333333" stroke-dasharray="4.02097312"/><g transform="translate(14.20199765,1308.5050727104008) translate(-14.20199765,-1308.5050727104008)"><path fill="black" stroke="none" paint-order="stroke fill markers" d=" M 22.579024983333333 1304.316559043734 L 14.20199765 1308.5050727104008 L 22.579024983333333 1312.6935863770675 Z"/></g></g><g><g/><path fill="none" stroke="black" paint-order="fill stroke markers" d=" M 377.64253272291666 351.634099344 L 790.10740765 351.634099344 L 790.10740765 419.990642384 L 377.64253272291666 419.990642384 L 377.64253272291666 351.634099344 Z" stroke-miterlimit="10" stroke-width="1.4360618285714286" stroke-dasharray=""/><path fill="white" stroke="black" paint-order="fill stroke markers" d=" M 377.64253272291666 351.634099344 L 377.64253272291666 363.697018704 L 438.59212488541664 363.697018704 L 444.62358456541665 357.665559024 L 444.62358456541665 351.634099344 L 377.64253272291666 351.634099344" stroke-miterlimit="10" stroke-width="1.4360618285714286" stroke-dasharray=""/><text fill="black" stroke="none" font-family="sans-serif" font-size="5.6000000000000005pt" font-style="normal" font-weight="bold" text-decoration="normal" x="387.6949655229167" y="359.676045584" text-anchor="start" dominant-baseline="alphabetic" xml:space="preserve">expandable-</text><text fill="black" stroke="none" font-family="sans-serif" font-size="5.6000000000000005pt" font-style="normal" font-weight="bold" text-decoration="normal" x="454.67601736541667" y="359.676045584" text-anchor="start" dominant-baseline="alphabetic" xml:space="preserve">[seediagram03-SchedulePersistentScreeningECE(doublescreening)]</text></g><g><g/><path fill="none" stroke="black" paint-order="fill stroke markers" d=" M 377.64253272291666 435.069291584 L 864.38816936875 435.069291584 L 864.38816936875 503.425834624 L 377.64253272291666 503.425834624 L 377.64253272291666 435.069291584 Z" stroke-miterlimit="10" stroke-width="1.4360618285714286" stroke-dasharray=""/><path fill="white" stroke="black" paint-order="fill stroke markers" d=" M 377.64253272291666 435.069291584 L 377.64253272291666 447.132210944 L 438.59212488541664 447.132210944 L 444.62358456541665 441.100751264 L 444.62358456541665 435.069291584 L 377.64253272291666 435.069291584" stroke-miterlimit="10" stroke-width="1.4360618285714286" stroke-dasharray=""/><text fill="black" stroke="none" font-family="sans-serif" font-size="5.6000000000000005pt" font-style="normal" font-weight="bold" text-decoration="normal" x="387.6949655229167" y="443.111237824" text-anchor="start" dominant-baseline="alphabetic" xml:space="preserve">expandable-</text><text fill="black" stroke="none" font-family="sans-serif" font-size="5.6000000000000005pt" font-style="normal" font-weight="bold" text-decoration="normal" x="454.67601736541667" y="443.111237824" text-anchor="start" dominant-baseline="alphabetic" xml:space="preserve">[seediagrams03-SchedulePersistentScreeningACE(runningtimeofmovieislongerthanavailabletime)]</text></g><g><g/><path fill="none" stroke="black" paint-order="fill stroke markers" d=" M 854.33573656875 664.2647594240001 L 1265.1203903125001 664.2647594240001 L 1265.1203903125001 719.5531398240001 L 854.33573656875 719.5531398240001 L 854.33573656875 664.2647594240001 Z" stroke-miterlimit="10" stroke-width="1.4360618285714286" stroke-dasharray=""/><path fill="white" stroke="black" paint-order="fill stroke markers" d=" M 854.33573656875 664.2647594240001 L 854.33573656875 676.3276787840001 L 915.28532873125 676.3276787840001 L 921.3167884112501 670.2962191040001 L 921.3167884112501 664.2647594240001 L 854.33573656875 664.2647594240001" stroke-miterlimit="10" stroke-width="1.4360618285714286" stroke-dasharray=""/><text fill="black" stroke="none" font-family="sans-serif" font-size="5.6000000000000005pt" font-style="normal" font-weight="bold" text-decoration="normal" x="864.38816936875" y="672.3067056640001" text-anchor="start" dominant-baseline="alphabetic" xml:space="preserve">expandable-</text><text fill="black" stroke="none" font-family="sans-serif" font-size="5.6000000000000005pt" font-style="normal" font-weight="bold" text-decoration="normal" x="931.3692212112501" y="672.3067056640001" text-anchor="start" dominant-baseline="alphabetic" xml:space="preserve">[[see02-getMovieExpandedfordetailsofthegetMoviefunctionality]]</text></g></g><g/><g/><g/><g/><g/><g/><g/><g/><g/><g/></g></svg>