<svg version="1.1" xmlns="http://www.w3.org/2000/svg" xmlns:xlink="http://www.w3.org/1999/xlink" width="2982" height="2351"><desc>actor%20Staff%0Aboundary%20ScreeningDialog%0Aboundary%20StaffUI%0A%0Acontrol%20ManagementSystem%0Aparticipant%20Cinema%0Aparticipant%20ScreenMapper%0Aparticipant%20MovieMapper%0Aparticipant%20ScreeningMapper%0Adatabase%20Database%0Aentity%20s%20(Screen)%0Aentity%20m%20(Movie)%0Aentity%20PersistentScreening%0A%0AStaff-%3EStaffUI%3AscheduleScreening()%0Aactivate%20StaffUI%0A%0AStaffUI-%3E*ScreeningDialog%3AScreeningDialog()%0Aactivate%20ScreeningDialog%0AScreeningDialog--%3EStaffUI%3A%0Adeactivate%20ScreeningDialog%0A%0AStaffUI-%3EScreeningDialog%3AshowAndWait()%0Aactivate%20ScreeningDialog%0AScreeningDialog-%3EStaff%3A%0AStaff--%3EScreeningDialog%3A%0AScreeningDialog-%3EStaffUI%3Areturn%20sg%20%3A%20ScreeningInfo%0Adeactivate%20ScreeningDialog%0A%0AStaffUI-%3EManagementSystem%3AscheduleScreening(date%20%3A%20LocalDate%2C%20%5Cntime%20%3A%20LocalTime%2C%20title%20%3A%20String%2C%20%5Cnyear%20%3A%20int%2C%20screenName%20%3A%20String)%0Aactivate%20ManagementSystem%0A%0Aexpandable-%20see%20diagrams%2003%20-%20Schedule%20PersistentScreening%20ACE%20(1)%20(running%20time%20of%20movie%20is%20longer%20than%20scheduled%20screening%20time)%0A%0A%09ManagementSystem-%3EManagementSystem%3AcheckLongerScreening()%20%20%20%20%20%20%20%20%20%20%20%20%20%20%20%20%20%20%20%20%20%20%20%20%20%20%20%20%20%20%20%20%20%20%20%20%20%20%20%20%20%20%20%20%20%20%20%20%20%20%20%20%20%20%20%20%20%20%20%20%20%20%20%20%20%20%20%20%20%20%20%20%20%20%20%20%20%20%20%20%20%20%20%20%20%20%20%20%20%20%20%20%20%20%20%20%20%20%20%20%20%20%20%20%20%20%20%20%20%20%20%20%20%20%20%20%20%20%20%20%20%20%20%20%20%20%20%20%20%20%20%20%20%20%20%20%20%0Aend%20%0Aexpandable-%20see%20diagram%2003%20-%20Schedule%20PersistentScreening%20ACE(2)%20(double%20screening)%0A%0AManagementSystem-%3EManagementSystem%3AcheckDoubleScreening(time%20%3A%20LocalTime%2C%20screenName%20%3A%20int%2C%20sg%20%3A%20Screening)%0Aend%20%0A%0AManagementSystem-%3ECinema%3AscheduleScreening(date%20%3A%20LocalDate%2C%20%5Cntime%20%3A%20LocalTime%2C%20title%20%3A%20String%2C%20%5Cnyear%20%3A%20int%2C%20screenName%20%3A%20String)%0Aactivate%20Cinema%0A%0ACinema-%3EScreenMapper%3AgetScreen(screenName%20%3A%20String)%0Aactivate%20ScreenMapper%0AScreenMapper-%3EScreenMapper%3AgetFromCacheByName(screenName%20%3A%20String)%0AScreenMapper--%3ECinema%3Areturn%20s%20%3A%20Screen%0Adeactivate%20ScreenMapper%0A%0Aexpandable-%20%5Bsee%2002%20-%20getMovie%20Expanded%20for%20details%20of%20the%20getMovie%20functionality%5D%0A%0ACinema-%3EMovieMapper%3Am%20%3A%3D%20getMovie(title%20%3A%20String%2C%20year%20%3A%20int)%0Aend%20%0A%0A%0A%0ACinema-%3EScreeningMapper%3AscheduleScreening(date%20%3A%20LocalDate%2C%20m%20%3A%20Movie%2C%20s%20%3A%20Screen%2C%20time%20%3A%20LocalTime)%0Aactivate%20ScreeningMapper%0AScreeningMapper-%3EDatabase%3Aoid%20%3A%3D%20getId()%0AScreeningMapper-%3EScreeningMapper%3AperformUpdate(sql%20%3A%20String)%0Aactivate%20ScreeningMapper%0A%0A%0AScreeningMapper-%3EDatabase%3AexecuteUpdate(sql%20%3A%20String)%0AScreeningMapper--%3EScreeningMapper%3A%0Adeactivate%20ScreeningMapper%0A%0A%0AScreeningMapper-%3E*PersistentScreening%3APersistentScreening(oid%20%3A%20Integer%2C%5Cndate%20%3A%20LocalDate%2C%20m%20%3A%20Movie%2C%20%5Cns%20%3A%20Screen%2C%20time%20%3A%20LocalTime)%0Aactivate%20PersistentScreening%0APersistentScreening--%3EScreeningMapper%3A%0Adeactivate%20PersistentScreening%0AScreeningMapper--%3ECinema%3A%0Adeactivate%20ScreeningMapper%0ACinema--%3EManagementSystem%3A%0Adeactivate%20Cinema%0AManagementSystem-%3EManagementSystem%3AnotifyObservers()%0Aactivate%20ManagementSystem%0AManagementSystem-%3EStaffUI%3Aupdate()%0Aactivate%20StaffUI%0AStaffUI-%3EManagementSystem%3AgetDate()%0Aactivate%20ManagementSystem%0AManagementSystem--%3EStaffUI%3Areturn%20date%0Adeactivate%20ManagementSystem%0AStaffUI-%3EManagementSystem%3AgetScreenings()%0Aactivate%20ManagementSystem%0AManagementSystem--%3EStaffUI%3Areturn%20screenings%0Adeactivate%20ManagementSystem%0AStaffUI--%3EManagementSystem%3A%0Adeactivate%20StaffUI%0Adeactivateafter%20ManagementSystem%0A%0A%0AManagementSystem--%3EStaffUI%3A%0Adeactivate%20ManagementSystem%0AStaffUI--%3EStaff%3A%0Adeactivate%20StaffUI</desc><defs/><g><g/><g/><g/><g/><g/><g/><g/><g/><g/><g/><g/><g/><g/><g/><g/><g/><g/><g/><g/><g/><g/><g/><g/><g/><g/><g/><g/><g/><g/><g/><g/><g/><g/><g/><g/><g/><g/><g/><g/><g/><g/><g/><g/><g/><g/><g><rect fill="white" stroke="none" x="0" y="0" width="2982" height="2351"/></g><g/><g><path fill="none" stroke="black" paint-order="fill stroke markers" d=" M 24.636958411914062 95.699160256 L 24.636958411914062 2351.455028143199" stroke-miterlimit="10" stroke-width="1.4659797833333332" stroke-dasharray="13.532121076923076,5.863919133333333"/><path fill="none" stroke="black" paint-order="fill stroke markers" d=" M 127.43254288108724 258.246998632 L 127.43254288108724 2351.455028143199" stroke-miterlimit="10" stroke-width="1.4659797833333332" stroke-dasharray="13.532121076923076,5.863919133333333"/><path fill="none" stroke="black" paint-order="fill stroke markers" d=" M 374.15828670957035 95.699160256 L 374.15828670957035 2351.455028143199" stroke-miterlimit="10" stroke-width="1.4659797833333332" stroke-dasharray="13.532121076923076,5.863919133333333"/><path fill="none" stroke="black" paint-order="fill stroke markers" d=" M 703.9855351535807 95.699160256 L 703.9855351535807 2351.455028143199" stroke-miterlimit="10" stroke-width="1.4659797833333332" stroke-dasharray="13.532121076923076,5.863919133333333"/><path fill="none" stroke="black" paint-order="fill stroke markers" d=" M 1551.4756194228517 95.699160256 L 1551.4756194228517 2351.455028143199" stroke-miterlimit="10" stroke-width="1.4659797833333332" stroke-dasharray="13.532121076923076,5.863919133333333"/><path fill="none" stroke="black" paint-order="fill stroke markers" d=" M 1836.601456329948 95.699160256 L 1836.601456329948 2351.455028143199" stroke-miterlimit="10" stroke-width="1.4659797833333332" stroke-dasharray="13.532121076923076,5.863919133333333"/><path fill="none" stroke="black" paint-order="fill stroke markers" d=" M 2189.273798710547 95.699160256 L 2189.273798710547 2351.455028143199" stroke-miterlimit="10" stroke-width="1.4659797833333332" stroke-dasharray="13.532121076923076,5.863919133333333"/><path fill="none" stroke="black" paint-order="fill stroke markers" d=" M 2356.4784666656174 95.699160256 L 2356.4784666656174 2351.455028143199" stroke-miterlimit="10" stroke-width="1.4659797833333332" stroke-dasharray="13.532121076923076,5.863919133333333"/><path fill="none" stroke="black" paint-order="fill stroke markers" d=" M 2609.800409529745 95.699160256 L 2609.800409529745 2351.455028143199" stroke-miterlimit="10" stroke-width="1.4659797833333332" stroke-dasharray="13.532121076923076,5.863919133333333"/><path fill="none" stroke="black" paint-order="fill stroke markers" d=" M 2696.4697323278897 95.699160256 L 2696.4697323278897 2351.455028143199" stroke-miterlimit="10" stroke-width="1.4659797833333332" stroke-dasharray="13.532121076923076,5.863919133333333"/><path fill="none" stroke="black" paint-order="fill stroke markers" d=" M 2783.667797711288 95.699160256 L 2783.667797711288 2351.455028143199" stroke-miterlimit="10" stroke-width="1.4659797833333332" stroke-dasharray="13.532121076923076,5.863919133333333"/><path fill="none" stroke="black" paint-order="fill stroke markers" d=" M 2905.5795166591397 1675.9315439831998 L 2905.5795166591397 2351.455028143199" stroke-miterlimit="10" stroke-width="1.4659797833333332" stroke-dasharray="13.532121076923076,5.863919133333333"/></g><g><g><path fill="white" stroke="black" paint-order="fill stroke markers" d=" M 34.66426012991406 21.286026454 A 10.027301717999999 10.027301717999999 0 1 1 34.66425511626362 21.27599915395321 M 24.636958411914062 31.313328172000002 L 24.636958411914062 52.7752722 M 11.970893083914063 39.053701428000004 L 37.30302373991406 39.053701428000004 M 24.636958411914062 52.7752722 L 11.970893083914063 72.829875636 M 24.636958411914062 52.7752722 L 37.30302373991406 72.829875636" stroke-miterlimit="10" stroke-width="2.990598758" stroke-dasharray=""/></g><g><g/><text fill="black" stroke="none" font-family="sans-serif" font-size="11pt" font-style="normal" font-weight="normal" text-decoration="normal" x="8.7958787" y="90.421633036" text-anchor="start" dominant-baseline="alphabetic" xml:space="preserve">Staff</text></g><g><path fill="white" stroke="black" paint-order="fill stroke markers" d=" M 409.07792514857033 45.210816517999994 A 26.123759739 26.123759739 0 1 1 409.0779120866916 45.18469276261494 M 340.7339476495704 17.591757399999995 L 340.7339476495704 72.829875636 M 339.23864827057037 45.210816517999994 L 356.83040567057037 45.210816517999994" stroke-miterlimit="10" stroke-width="2.990598758" stroke-dasharray=""/></g><g><g/><text fill="black" stroke="none" font-family="sans-serif" font-size="11pt" font-style="normal" font-weight="normal" text-decoration="normal" x="350.69014706113285" y="90.421633036" text-anchor="start" dominant-baseline="alphabetic" xml:space="preserve">StaffUI</text></g><g><path fill="white" stroke="black" paint-order="fill stroke markers" d=" M 730.1092948925807 45.210816517999994 A 26.123759739 26.123759739 0 1 1 730.1092818307019 45.18469276261494 M 700.4671836735807 19.087056778999994 L 711.0222381135808 10.291178078999994 M 700.4671836735807 19.087056778999994 L 711.0222381135808 27.882935478999993" stroke-miterlimit="10" stroke-width="2.990598758" stroke-dasharray=""/></g><g><g/><text fill="black" stroke="none" font-family="sans-serif" font-size="11pt" font-style="normal" font-weight="normal" text-decoration="normal" x="632.0635609714518" y="90.421633036" text-anchor="start" dominant-baseline="alphabetic" xml:space="preserve">ManagementSystem</text></g><path fill="none" stroke="none"/><g><path fill="white" stroke="black" paint-order="fill stroke markers" d=" M 1505.9390234592813 48.201415276000006 L 1597.012215386422 48.201415276000006 L 1597.012215386422 95.699160256 L 1505.9390234592813 95.699160256 L 1505.9390234592813 48.201415276000006 Z" stroke-miterlimit="10" stroke-width="2.814681184" stroke-dasharray=""/></g><g><g/><text fill="black" stroke="none" font-family="sans-serif" font-size="11pt" font-style="normal" font-weight="normal" text-decoration="normal" x="1525.0260802382813" y="78.107402856" text-anchor="start" dominant-baseline="alphabetic" xml:space="preserve">Cinema</text></g><path fill="none" stroke="none"/><g><path fill="white" stroke="black" paint-order="fill stroke markers" d=" M 1766.5444746241901 48.201415276000006 L 1906.6584380357058 48.201415276000006 L 1906.6584380357058 95.699160256 L 1766.5444746241901 95.699160256 L 1766.5444746241901 48.201415276000006 Z" stroke-miterlimit="10" stroke-width="2.814681184" stroke-dasharray=""/></g><g><g/><text fill="black" stroke="none" font-family="sans-serif" font-size="11pt" font-style="normal" font-weight="normal" text-decoration="normal" x="1785.6315314031901" y="78.107402856" text-anchor="start" dominant-baseline="alphabetic" xml:space="preserve">ScreenMapper</text></g><path fill="none" stroke="none"/><g><path fill="white" stroke="black" paint-order="fill stroke markers" d=" M 2120.873921496977 48.201415276000006 L 2257.6736759241176 48.201415276000006 L 2257.6736759241176 95.699160256 L 2120.873921496977 95.699160256 L 2120.873921496977 48.201415276000006 Z" stroke-miterlimit="10" stroke-width="2.814681184" stroke-dasharray=""/></g><g><g/><text fill="black" stroke="none" font-family="sans-serif" font-size="11pt" font-style="normal" font-weight="normal" text-decoration="normal" x="2139.9609782759767" y="78.107402856" text-anchor="start" dominant-baseline="alphabetic" xml:space="preserve">MovieMapper</text></g><path fill="none" stroke="none"/><g><path fill="white" stroke="black" paint-order="fill stroke markers" d=" M 2275.2654333241176 48.201415276000006 L 2437.6915000071176 48.201415276000006 L 2437.6915000071176 95.699160256 L 2275.2654333241176 95.699160256 L 2275.2654333241176 48.201415276000006 Z" stroke-miterlimit="10" stroke-width="2.814681184" stroke-dasharray=""/></g><g><g/><text fill="black" stroke="none" font-family="sans-serif" font-size="11pt" font-style="normal" font-weight="normal" text-decoration="normal" x="2294.3524901031174" y="78.107402856" text-anchor="start" dominant-baseline="alphabetic" xml:space="preserve">ScreeningMapper</text></g><g><path fill="white" stroke="black" paint-order="fill stroke markers" d=" M 2584.1164437257453 61.219315752 L 2584.1164437257453 24.276625212000003 L 2635.484375333745 24.276625212000003 L 2635.484375333745 61.219315752" stroke-miterlimit="10" stroke-width="2.990598758" stroke-dasharray=""/><path fill="white" stroke="black" paint-order="fill stroke markers" d=" M 2635.484375333745 22.992426921800003 L 2635.4830911461568 23.108530585556366 L 2635.4792387118086 23.224622639043105 L 2635.472818415941 23.34069147315161 L 2635.463830900579 23.45672548109521 L 2635.4522770644658 23.572713059569786 L 2635.438158062975 23.688642609914158 L 2635.4214753079964 23.804502539269897 L 2635.4022304677906 23.920281261740616 L 2635.3804254668257 24.03596719955055 L 2635.3560624855836 24.151548784202323 L 2635.329143960342 24.26701445763379 L 2635.2996725829316 24.382352673373823 L 2635.2676513004653 24.497551897696965 L 2635.2330833150445 24.612600610776788 L 2635.195972083439 24.72748730783785 L 2635.1563213167406 24.84220050030619 L 2635.1141349799937 24.956728716958153 L 2635.0694172917965 25.07106050506751 L 2635.0221727238804 25.18518443155073 L 2634.972406000663 25.299089084110268 L 2634.920122098775 25.412763072375785 L 2634.865326246563 25.526195029043187 L 2634.8080239235674 25.63937361101133 L 2634.7482208599713 25.75228750051633 L 2634.6859230360324 25.86492540626334 L 2634.6211366814805 25.97727606455564 L 2634.553868274897 26.089328240421032 L 2634.484124543067 26.201070728735306 L 2634.4119124603058 26.312492355342748 L 2634.3372392477604 26.423581978173544 L 2634.260112372691 26.53432848835799 L 2634.1805395477204 26.644720811337358 L 2634.098528730064 26.754747907971336 L 2634.0140881207367 26.864398775641956 L 2633.927226163728 26.973662449353824 L 2633.8379515451616 27.08252800283062 L 2633.7462731924247 27.190984549607727 L 2633.6522002732763 27.29902124412083 L 2633.55574219493 27.406627282790524 L 2633.4569086031133 27.513791905102604 L 2633.355709381103 27.620504394684144 L 2633.252154648737 27.726754080375116 L 2633.146254761402 27.83253033729549 L 2633.038020308999 27.93782258790772 L 2632.927462114882 28.04262030307449 L 2632.8145912347795 28.14691300311161 L 2632.699418955685 28.25069025883599 L 2632.58195679473 28.353941692608544 L 2632.462216498033 28.456656979371925 L 2632.340210039524 28.55882584768306 L 2632.2159496197473 28.660438080740256 L 2632.0894476646413 28.761483517404887 L 2631.9607168242956 28.861952053217486 L 2631.8297699716877 28.961833641408198 L 2631.6966202013928 29.061118293901444 L 2631.561280828278 29.1597960823147 L 2631.423765386167 29.257857138951366 L 2631.28408762649 29.355291657787486 L 2631.1422615169063 29.452089895452378 L 2630.9983012399084 29.54824217220294 L 2630.8522211914046 29.643738872891625 L 2630.704035979278 29.73857044792794 L 2630.5537604219257 29.83272741423341 L 2630.4014095467787 29.92620035618987 L 2630.2469985887974 30.018979926581018 L 2630.090542988949 30.111056847527124 L 2629.9320583926633 30.20242191141283 L 2629.7715606482675 30.293065981807885 L 2629.609065805402 30.382979994380786 L 2629.4445901134163 30.472154957805202 L 2629.2781500197425 30.560581954659103 L 2629.109762168251 30.648252142316494 L 2628.9394433975867 30.735156753831664 L 2628.767210739485 30.821287098815887 L 2628.593081417068 30.906634564306433 L 2628.4170728431222 30.991190615627882 L 2628.2392026183593 31.074946797245563 L 2628.059488529653 31.15789473361111 L 2627.877948548263 31.24002613000001 L 2627.694600828035 31.321332773341062 L 2627.5094637035895 31.4018065330377 L 2627.3225556884836 31.481439361781 L 2627.133895473364 31.560223296354458 L 2626.9435019240946 31.638150458430268 L 2626.7513940798713 31.715213055357157 L 2626.557591151319 31.791403380939656 L 2626.3621125185687 31.8667138162087 L 2626.164977729321 31.941136830183517 L 2625.96620649689 32.01466498062472 L 2625.7658186982344 32.08729091477856 L 2625.563834371966 32.15900737011212 L 2625.3602737163496 32.22980717503965 L 2625.155157087281 32.29968324963964 L 2624.9485049962527 32.368628606362876 L 2624.7403381083004 32.43663635073112 L 2624.530677239941 32.50369968202662 L 2624.319543357085 32.569811893972144 L 2624.1069575729457 32.63496637540157 L 2623.892941145924 32.69915661092105 L 2623.6775154774846 32.76237618156054 L 2623.460702110015 32.82461876541566 L 2623.2425227246704 32.88587813827987 L 2623.0229991392084 32.94614817426695 L 2622.802153305804 33.005422846423535 L 2622.5800073088567 33.06369622733178 L 2622.3565833627813 33.12096248970218 L 2622.131903809786 33.1772159069562 L 2621.9059911176387 33.232450853798994 L 2621.6788678774205 33.28666180678192 L 2621.450556801267 33.339843344854856 L 2621.221080720094 33.391990149908295 L 2620.990462581319 33.4430970073052 L 2620.7587254465643 33.49315880640242 L 2620.52589248935 33.54217054106175 L 2620.2919869927773 33.590127310150585 L 2620.057032347201 33.637024318031976 L 2619.8210520478906 33.68285687504421 L 2619.584069692679 33.72762039796977 L 2619.3461089796037 33.77131041049369 L 2619.107193704538 33.81392254365112 L 2618.867347758811 33.85545253626423 L 2618.6265951268165 33.8958962353684 L 2618.3849598836177 33.9352495966274 L 2618.142466192537 33.9735086847379 L 2617.899138302742 34.01066967382299 L 2617.655000546818 34.046728847814705 L 2617.4100773383384 34.081682600825715 L 2617.164393169419 34.11552743750983 L 2616.9179726082725 34.1482599734116 L 2616.6708402967492 34.179876935304705 L 2616.4230209478746 34.210375161519295 L 2616.174539343377 34.23975160225818 L 2615.92542033121 34.26800331990176 L 2615.6756888230666 34.295127489301805 L 2615.4253697918903 34.321121398063994 L 2615.1744882693747 34.34598244681909 L 2614.9230693434642 34.36970814948297 L 2614.6711381558407 34.3922961335051 L 2614.4187198994136 34.413744140105926 L 2614.1658398157983 34.43405002450265 L 2613.9125231927924 34.453211756123764 L 2613.658795361847 34.47122741881206 L 2613.4046816955333 34.4880952110163 L 2613.1502076050065 34.5038134459713 L 2612.8953985374637 34.518380551866684 L 2612.6402799735997 34.53179507200398 L 2612.3848774250573 34.54405566494237 L 2612.1292164318797 34.555161104632774 L 2611.873322559952 34.565110280540466 L 2611.617221398449 34.573902197756155 L 2611.360938557273 34.58153597709545 L 2611.104499664495 34.58801085518677 L 2610.84793036379 34.59332618454771 L 2610.5912563118745 34.59748143364976 L 2610.33450317594 34.60047618697147 L 2610.0776966310855 34.60231014504 L 2609.8208623577525 34.60298312446108 L 2609.5640260391533 34.60249505793733 L 2609.3072133587066 34.600845994274984 L 2609.050449997466 34.59803609837904 L 2608.793761631553 34.594065651236754 L 2608.5371739295915 34.58893504988952 L 2608.280712550137 34.5826448073932 L 2608.0244031391144 34.57519555276681 L 2607.7682713272507 34.566588030929594 L 2607.512342727514 34.556823102626566 L 2607.2566429325507 34.545901744342416 L 2607.0011975121274 34.53382504820388 L 2606.746032010573 34.52059422187051 L 2606.4911719442252 34.5062105884139 L 2606.236642798878 34.49067558618542 L 2605.9824700272347 34.47399076867234 L 2605.72867904636 34.45615780434251 L 2605.47529523514 34.4371784764775 L 2605.222343931746 34.41705468299429 L 2604.969850431096 34.395788436255444 L 2604.7178399823306 34.37338186286793 L 2604.466337786285 34.34983720347041 L 2604.215368992968 34.32515681250919 L 2603.964958699051 34.29934315800281 L 2603.7151319453537 34.27239882129521 L 2603.465913714344 34.24432649679761 L 2603.217328927637 34.21512899171906 L 2602.969402443505 34.18480922578574 L 2602.7221590543886 34.15337023094897 L 2602.4756234844212 34.12081515108205 L 2602.229820386954 34.08714724166582 L 2601.984774342093 34.05236986946318 L 2601.7405098542376 34.016486512182354 L 2601.497051349633 33.97950075812918 L 2601.254423173927 33.94141630584823 L 2601.012649589735 33.90223696375301 L 2600.7717547742136 33.86196664974507 L 2600.5317628166445 33.820609390822256 L 2600.2926977160223 33.77816932267599 L 2600.0545833786587 33.734650689277736 L 2599.8174436157888 33.69005784245455 L 2599.581302141191 33.644395241453964 L 2599.346182568816 33.59766745249802 L 2599.1121084104257 33.54987914832668 L 2598.87910307324 33.50103510773054 L 2598.647189857599 33.45114021507295 L 2598.4163919546313 33.40019945980159 L 2598.186732443934 33.34821793594955 L 2597.958234291267 33.29520084162589 L 2597.7309203462564 33.24115347849587 L 2597.5048133401056 33.18608125125075 L 2597.2799358833277 33.12998966706737 L 2597.0563104634803 33.07288433505741 L 2596.83395944292 33.01477096570647 L 2596.612905056563 32.95565537030307 L 2596.393169409663 32.89554346035748 L 2596.174774475603 32.8344412470106 L 2595.957742093694 32.772354840432854 L 2595.742093966993 32.709290449213164 L 2595.5278516601325 32.645254379738084 L 2595.3150365971655 32.580253035561206 L 2595.103670059421 32.514292916762784 L 2594.8937731833757 32.44738061929973 L 2594.685366958543 32.37952283434602 L 2594.4784722253717 32.310726347623614 L 2594.2731096731627 32.24099803872385 L 2594.069299838 32.17034488041951 L 2593.867063100697 32.09877393796755 L 2593.6664196847596 32.026292368402565 L 2593.4673896543613 31.952907419821116 L 2593.26999291234 31.87862643065691 L 2593.074249198205 31.803456828946963 L 2592.880178086165 31.727406131588797 L 2592.687798983169 31.65048194358878 L 2592.4971311269674 31.572691957301604 L 2592.3081935841865 31.494043951661077 L 2592.1210052484234 31.41454579140222 L 2591.9355848383557 31.334205426274806 L 2591.75195089587 31.25303089024841 L 2591.570121784207 31.171030300708985 L 2591.3901156861266 31.088211857647146 L 2591.211950602089 31.004583842838187 L 2591.035644348454 30.9201546190139 L 2590.8612145556995 30.834932629026305 L 2590.68867866666 30.748926395003394 L 2590.5180539347803 30.662144517496888 L 2590.3493574223917 30.574595674622223 L 2590.1826059990044 30.486288621190724 L 2590.017816339622 30.397232187834156 L 2589.8550049230735 30.307435280121634 L 2589.6941880303643 30.216906877669096 L 2589.5353817430505 30.125656033241356 L 2589.378601941627 30.033691871846806 L 2589.223864303945 29.941023589824955 L 2589.071184303638 29.84766045392678 L 2588.9205772085797 29.753611800388065 L 2588.7720580793534 29.658887033995796 L 2588.6256417677487 29.563495627147667 L 2588.4813429152746 29.467447118904882 L 2588.3391759516962 29.370751114038217 L 2588.199155093591 29.27341728206758 L 2588.0612943429287 29.175455356295057 L 2587.925607485669 29.07687513283159 L 2587.792108090385 28.977686469617378 L 2587.6608095069046 28.877899285436083 L 2587.531724864977 28.777523558922972 L 2587.4048670729585 28.67656932756704 L 2587.280248816523 28.575046686707307 L 2587.157882557392 28.472965788523247 L 2587.0377805320895 28.37033684101962 L 2586.9199547507183 28.267170107005644 L 2586.8044169957575 28.16347590306875 L 2586.691178820887 28.059264598542924 L 2586.58025154983 27.954546614471777 L 2586.471646275221 27.849332422566448 L 2586.3653738574963 27.743632544158448 L 2586.2614449238104 27.637457549147538 L 2586.1598698669686 27.53081805494474 L 2586.0606588443934 27.423724725410608 L 2585.963821777103 27.316188269788846 L 2585.8693683487245 27.208219441635414 L 2585.7773080045217 27.099829037743145 L 2585.687649950452 26.991027897062104 L 2585.6004031522466 26.881826899615692 L 2585.5155763345124 26.77223696541266 L 2585.43317797986 26.662269053355093 L 2585.353216328057 26.55193416014256 L 2585.2756993752014 26.441243319172447 L 2585.200634872924 26.330207599436594 L 2585.1280303276126 26.218838104414456 L 2585.0578929996614 26.10714597096272 L 2584.9902299027444 25.99514236820166 L 2584.925047803115 25.882838496398215 L 2584.8623532189285 25.770245585845977 L 2584.802152419592 25.657374895742176 L 2584.7444514251342 25.544237713061765 L 2584.689256005607 25.43084535142873 L 2584.6365716805067 25.317209149984738 L 2584.5864037182214 25.203340472255242 L 2584.538757135506 25.08925070501312 L 2584.4936366969782 24.974951257140024 L 2584.451046914645 24.860453558485496 L 2584.4109920474484 24.74576905872398 L 2584.3734761008427 24.630909226209884 L 2584.338502826391 24.515885546830745 L 2584.306075721391 24.40070952285865 L 2584.2761980285272 24.28539267180001 L 2584.248872735543 24.169946525243844 L 2584.2241025749454 24.05438262770859 L 2584.20189002373 23.93871253548771 L 2584.1822373031328 23.82294781549403 L 2584.16514637841 23.707100044103075 L 2584.15061895864 23.591180805995453 L 2584.138656496552 23.47520169299837 L 2584.1292601883824 23.359174302926476 L 2584.122430973755 23.243110238422094 L 2584.1181695355845 23.12702110579495 L 2584.1164763000115 23.01091851386157 L 2584.1173514363586 22.894814072784392 L 2584.1207948571127 22.77871939291077 L 2584.1268062179342 22.66264608361195 L 2584.135384917692 22.546605752122133 L 2584.146530098524 22.430610002377765 L 2584.160240645921 22.314670433857163 L 2584.1765151888394 22.19879864042056 L 2584.1953520998386 22.08300620915074 L 2584.2167494952437 21.967304719194335 L 2584.2407052353324 21.851705740603922 L 2584.2672169245507 21.736220833181036 L 2584.296281911752 21.620861545320174 L 2584.327897290462 21.505639412853995 L 2584.362059899169 21.390565957899724 L 2584.39876632164 21.275652687706962 L 2584.438012887264 21.16091109350697 L 2584.479795671417 21.046352649363552 L 2584.5241104958554 20.93198881102565 L 2584.570952929134 20.817831014781802 L 2584.6203182870477 20.703890676316497 L 2584.6722016331028 20.590179189568637 L 2584.726597779007 20.47670792559213 L 2584.7835012851915 20.36348823141882 L 2584.8429064613533 20.25053142892377 L 2584.904807367024 20.137848813693108 L 2584.969197812165 20.025451653894443 L 2585.036071357785 19.913351189150102 L 2585.1054213165853 19.801558629413137 L 2585.1772407536278 19.69008515384636 L 2585.2515224870285 19.57894190970444 L 2585.3282590886765 19.468140011219166 L 2585.407442884975 19.357690538488054 L 2585.4890659576104 19.24760453636634 L 2585.573120144344 19.13789301336249 L 2585.6595970398266 19.028566940537385 L 2585.748487996441 18.9196372504072 L 2585.8397841251654 18.811114835850173 L 2585.933476296463 18.703010549017325 L 2586.0295551411955 18.595335200247256 L 2586.128011051557 18.488099556985112 L 2586.22883418204 18.381314342705853 L 2586.3320144504146 18.274990235841926 L 2586.4375415387403 18.169137868715406 L 2586.545404894396 18.063767826474802 L 2586.6555937311364 17.95889064603653 L 2586.7680970301694 17.854516815031236 L 2586.8829035412587 17.750656770755036 L 2587.000001783849 17.647320899125816 L 2587.1193800482133 17.544519533644625 L 2587.2410263966253 17.44226295436234 L 2587.364928664551 17.34056138685168 L 2587.4910744618674 17.239425001184642 L 2587.619451174099 17.13886391091551 L 2587.7500459636826 17.038888172069516 L 2587.882845771247 16.939507782137227 L 2588.0178373169233 16.840732679074826 L 2588.1550071016686 16.742572740310298 L 2588.2943414086185 16.645037781755725 L 2588.435826304459 16.548137556825687 L 2588.5794476408187 16.45188175546192 L 2588.725191055683 16.35628000316435 L 2588.873041974832 16.261341860028544 L 2589.0229856132974 16.167076819789692 L 2589.1750069768395 16.073494308873272 L 2589.3290908634494 15.980603685452383 L 2589.4852218648666 15.888414238511963 L 2589.6433843681207 15.79693518691988 L 2589.8035625570938 15.706175678505064 L 2589.9657404141003 15.61614478914272 L 2590.129901721489 15.526851521846762 L 2590.296030063267 15.438304805869507 L 2590.4641088267376 15.350513495808762 L 2590.6341212041652 15.26348637072238 L 2590.8060501944537 15.177232133250339 L 2590.9798786048473 15.091759408744515 L 2591.1555890526492 15.00707674440613 L 2591.3331639669614 14.923192608431044 L 2591.512585590441 14.840115389162959 L 2591.6938359810747 14.757853394254566 L 2591.876897013974 14.676414849836805 L 2592.061750383189 14.595807899696254 L 2592.248377603537 14.516040604460756 L 2592.43676001245 14.437120940793358 L 2592.626878771846 14.359056800594665 L 2592.818714870006 14.281855990213637 L 2593.0122491234806 14.205526229666987 L 2593.2074621790057 14.130075151867153 L 2593.4043345154387 14.055510301859046 L 2593.60284644571 13.981839136065528 L 2593.802978118791 13.909069021541786 L 2594.004709521683 13.837207235238628 L 2594.208020481412 13.766260963274803 L 2594.412890667052 13.696237300218385 L 2594.6192995917563 13.627143248377326 L 2594.827226614803 13.558985717099231 L 2595.0366509436635 13.491771522080432 L 2595.2475516360796 13.425507384684419 L 2595.4599076021577 13.360199931269712 L 2595.673697606478 13.295855692527226 L 2595.888900270219 13.23248110282722 L 2596.1054940732924 13.170082499575852 L 2596.3234573564996 13.108666122581443 L 2596.542768323693 13.04823811343052 L 2596.763405043959 12.988804514873634 L 2596.9853454538097 12.930371270221118 L 2597.208567359389 12.87294422274874 L 2597.4330484386915 12.816529115113394 L 2597.6587662437973 12.76113158877883 L 2597.885698203114 12.706757183451517 L 2598.113821623634 12.653411336526675 L 2598.343113693206 12.601099382544545 L 2598.573551482814 12.549826552656928 L 2598.805111948871 12.499597974104088 L 2599.0377719355233 12.450418669702023 L 2599.271508176966 12.402293557340188 L 2599.5062972997703 12.35522744948972 L 2599.742115825219 12.309225052722176 L 2599.9789401716566 12.264290967238905 L 2600.2167466568453 12.220429686411006 L 2600.4555115003345 12.17764559633001 L 2600.6952108258397 12.135942975369273 L 2600.9358206636275 12.09532599375614 L 2601.177316952915 12.055798713154925 L 2601.419675544274 12.017365086260746 L 2601.6628722020478 11.980028956404269 L 2601.9068826067733 11.943794057167361 L 2602.1516823576126 11.908664012009755 L 2602.3972469747955 11.874642333906689 L 2602.6435519020647 11.841732424997623 L 2602.8905725091327 11.809937576246021 L 2603.138284094144 11.779260967110266 L 2603.386661886148 11.749705665225706 L 2603.635681047571 11.7212746260979 L 2603.8853166767053 11.693970692807069 L 2604.1355438101955 11.667796595723788 L 2604.386337425537 11.642754952235952 L 2604.6376724435772 11.618848266487047 L 2604.8895237310235 11.59607892912572 L 2605.1418661029575 11.57444921706674 L 2605.394674325352 11.55396129326328 L 2605.647923117596 11.534617206490651 L 2605.90158715502 11.51641889114141 L 2606.155641071433 11.499368167031927 L 2606.4100594616543 11.483466739220404 L 2606.664816884057 11.46871619783637 L 2606.919887863112 11.455118017921672 L 2607.175246891932 11.44267355928297 L 2607.4308684348293 11.431384066355758 L 2607.686726929861 11.421250668079919 L 2607.942796791391 11.412274377786838 L 2608.1990524126477 11.404456093098062 L 2608.455468168281 11.397796595835548 L 2608.71201841693 11.392296551943469 L 2608.968677503783 11.387956511421633 L 2609.2254197631455 11.384776908270476 L 2609.4822195210054 11.382758060447662 L 2609.7390510976015 11.38190016983629 L 2609.995888809989 11.38220332222471 L 2610.252706974612 11.38366748729793 L 2610.509479909867 11.38629251864067 L 2610.7661819386753 11.390078153751977 L 2611.022787391047 11.395024014071499 L 2611.2792706066516 11.40112960501732 L 2611.5356059373808 11.40839431603544 L 2611.7917677499154 11.41681742066081 L 2612.047730428287 11.42639807658998 L 2612.3034683764417 11.437135325765349 L 2612.5589560207977 11.449028094470941 L 2612.8141678128036 11.462075193439802 L 2613.0690782314923 11.476275317972902 L 2613.323661786035 11.491627048069626 L 2613.577893018288 11.508128848569752 L 2613.8317465053397 11.525779069306987 L 2614.0851968620536 11.544575945273964 L 2614.3382187436046 11.564517596798748 L 2614.5907868480163 11.585602029732806 L 2614.8428759186877 11.607827135650416 L 2615.0944607469223 11.631190692059505 L 2615.345516174447 11.655690362623902 L 2615.596017095928 11.68132369739697 L 2615.845938461482 11.708088133066587 L 2616.095255279181 11.735980993211495 L 2616.3439426175505 11.764999488568922 L 2616.591975608064 11.795140717313513 L 2616.8393294476296 11.826401665347511 L 2617.085979401069 11.858779206602165 L 2617.331900803593 11.89227010335033 L 2617.5770690632653 11.92687100653024 L 2617.821459663465 11.962578456080411 L 2618.065048165335 11.999388881285645 L 2618.307810210229 12.037298601134095 L 2618.549721522145 12.076303824685368 L 2618.790757910152 12.116400651449613 L 2619.0308952708133 12.15758507177757 L 2619.2701095905923 12.199852967261522 L 2619.508376948257 12.243200111147148 L 2619.7456735172696 12.28762216875618 L 2619.981975568171 12.333114697919875 L 2620.217259470953 12.379673149423226 L 2620.451501697422 12.427292867459885 L 2620.68467882355 12.47596909009773 L 2620.9167675318186 12.525696949755057 L 2621.147744613551 12.576471473687343 L 2621.377586971231 12.628287584484506 L 2621.606271620814 12.681140100578647 L 2621.8337756940264 12.735023736762198 L 2622.06007644065 12.789933104716448 L 2622.2851512307993 12.845862713550355 L 2622.508977557182 12.902806970349646 L 2622.7315330373526 12.960760180736091 L 2622.952795415948 13.01971654943695 L 2623.1727425669155 13.07967018086448 L 2623.3913524957225 13.140615079705501 L 2623.608603341559 13.202545151520916 L 2623.824473379521 13.265454203355151 L 2624.0389410227845 13.329335944355446 L 2624.2519848247643 13.394183986400938 L 2624.4635834812575 13.459991844741461 L 2624.6737158325745 13.52675293864602 L 2624.882360865656 13.594460592060857 L 2625.089497716172 13.663108034277055 L 2625.29510567061 13.732688400607602 L 2625.499164168347 13.803194733073843 L 2625.7016528037016 13.87461998110129 L 2625.90255132798 13.946957002224657 L 2626.101839651497 14.020198562802118 L 2626.299497845586 14.094337338738645 L 2626.495506144593 14.16936591621843 L 2626.689844947851 14.245276792446244 L 2626.8824948216416 14.322062376397728 L 2627.0734365011376 14.399714989578472 L 2627.2626508923313 14.478226866791868 L 2627.45011907394 14.557590156915623 L 2627.6358222993026 14.637796923686858 L 2627.819741998251 14.718839146495737 L 2628.001859778969 14.800708721187512 L 2628.1821574298297 14.88339746087294 L 2628.360616921218 14.966897096746958 L 2628.537220407334 15.051199278915561 L 2628.711950227977 15.136295577230786 L 2628.884788910309 15.222177482133715 L 2629.0557191706066 15.30883640550542 L 2629.2247239159865 15.396263681525788 L 2629.3917862461144 15.484450567540065 L 2629.556889454897 15.573388244933145 L 2629.7200170321503 15.663067820011399 L 2629.8811526652535 15.753480324892053 L 2630.0402802407766 15.844616718399962 L 2630.1973838460954 15.936467886971723 L 2630.35244777098 16.02902464556702 L 2630.505456509167 16.122277738587123 L 2630.65639475991 16.216217840800443 L 2630.80524742951 16.31083555827504 L 2630.951999632824 16.40612142931802 L 2631.096636694754 16.502065925421675 L 2631.2391441517148 16.59865945221635 L 2631.3795077530785 16.695892350429865 L 2631.5177134626024 16.793754896853418 L 2631.6537474598304 16.892237305313927 L 2631.787596141477 16.991329727652605 L 2631.919246122785 17.091022254709806 L 2632.0486842388655 17.191304917315893 L 2632.1758975460157 17.292167687288174 L 2632.30087332301 17.393600478433708 L 2632.4235990723755 17.495593147557905 L 2632.5440625216397 17.59813549547885 L 2632.6622516245575 17.701217268047195 L 2632.778154562317 17.80482815717159 L 2632.8917597447216 17.90895780184946 L 2633.003055811347 18.01359578920312 L 2633.11203163268 18.118731655521024 L 2633.2186763112295 18.22435488730416 L 2633.322979182615 18.330454922317365 L 2633.4249298166383 18.437021150645553 L 2633.524518018319 18.544042915754694 L 2633.6217338289216 18.65150951555747 L 2633.7165675269453 18.75941020348345 L 2633.809009629099 18.86773418955376 L 2633.89905089125 18.97647064146006 L 2633.986682309347 19.085608685647777 L 2634.071895120321 19.19513740840344 L 2634.1546808029625 19.305045856946045 L 2634.2350310787715 19.415323040522324 L 2634.3129379127877 19.525957931505822 L 2634.388393514393 19.636939466499637 L 2634.4613903380896 19.74825654744275 L 2634.531921084256 19.859898042719834 L 2634.5999786998764 19.97185278827439 L 2634.665556379246 20.084109588725166 L 2634.7286475646515 20.196657218485658 L 2634.789245947027 20.309484422886683 L 2634.8473454665855 20.422579919301818 L 2634.902940313422 20.535932398275673 L 2634.9560249280985 20.649530524654807 L 2635.0065940021987 20.76336293872125 L 2635.0546424788567 20.877418257328454 L 2635.1001655532646 20.991685075039605 L 2635.1431586731533 21.10615196526815 L 2635.183617539247 21.220807481420458 L 2635.2215381056917 21.33564015804046 L 2635.2569165804634 21.450638511956186 L 2635.2897494257436 21.565791043428078 L 2635.320033358275 21.68108623729895 L 2635.3477653496902 21.796512564145488 L 2635.372942626813 21.9120584814312 L 2635.3955626719357 22.027712434660646 L 2635.415623223074 22.14346285853488 L 2635.4331222741885 22.259298178107972 L 2635.4480580753893 22.375206809944494 L 2635.460429133109 22.491177163277854 L 2635.470234210251 22.60719764116936 L 2635.4774723263163 22.723256641667906 L 2635.4821427575 22.839342558970156 L 2635.484245036762 22.95544378458112 M 2635.484375333745 59.9351174618 L 2635.4830911461568 60.05122112555636 L 2635.4792387118086 60.1673131790431 L 2635.472818415941 60.28338201315161 L 2635.463830900579 60.3994160210952 L 2635.4522770644658 60.51540359956978 L 2635.438158062975 60.631333149914155 L 2635.4214753079964 60.74719307926989 L 2635.4022304677906 60.86297180174061 L 2635.3804254668257 60.97865773955054 L 2635.3560624855836 61.09423932420232 L 2635.329143960342 61.209704997633786 L 2635.2996725829316 61.32504321337382 L 2635.2676513004653 61.44024243769696 L 2635.2330833150445 61.55529115077678 L 2635.195972083439 61.67017784783785 L 2635.1563213167406 61.784891040306185 L 2635.1141349799937 61.89941925695815 L 2635.0694172917965 62.01375104506751 L 2635.0221727238804 62.127874971550725 L 2634.972406000663 62.241779624110265 L 2634.920122098775 62.35545361237578 L 2634.865326246563 62.46888556904318 L 2634.8080239235674 62.58206415101132 L 2634.7482208599713 62.694978040516325 L 2634.6859230360324 62.80761594626333 L 2634.6211366814805 62.91996660455563 L 2634.553868274897 63.032018780421026 L 2634.484124543067 63.1437612687353 L 2634.4119124603058 63.25518289534274 L 2634.3372392477604 63.36627251817354 L 2634.260112372691 63.47701902835799 L 2634.1805395477204 63.58741135133735 L 2634.098528730064 63.69743844797133 L 2634.0140881207367 63.80708931564195 L 2633.927226163728 63.91635298935382 L 2633.8379515451616 64.02521854283061 L 2633.7462731924247 64.13367508960772 L 2633.6522002732763 64.24171178412082 L 2633.55574219493 64.34931782279051 L 2633.4569086031133 64.4564824451026 L 2633.355709381103 64.56319493468413 L 2633.252154648737 64.66944462037512 L 2633.146254761402 64.77522087729548 L 2633.038020308999 64.88051312790772 L 2632.927462114882 64.98531084307449 L 2632.8145912347795 65.08960354311161 L 2632.699418955685 65.19338079883599 L 2632.58195679473 65.29663223260853 L 2632.462216498033 65.39934751937191 L 2632.340210039524 65.50151638768305 L 2632.2159496197473 65.60312862074025 L 2632.0894476646413 65.70417405740488 L 2631.9607168242956 65.80464259321748 L 2631.8297699716877 65.90452418140819 L 2631.6966202013928 66.00380883390143 L 2631.561280828278 66.1024866223147 L 2631.423765386167 66.20054767895135 L 2631.28408762649 66.29798219778748 L 2631.1422615169063 66.39478043545238 L 2630.9983012399084 66.49093271220293 L 2630.8522211914046 66.58642941289162 L 2630.704035979278 66.68126098792794 L 2630.5537604219257 66.7754179542334 L 2630.4014095467787 66.86889089618987 L 2630.2469985887974 66.96167046658101 L 2630.090542988949 67.05374738752711 L 2629.9320583926633 67.14511245141283 L 2629.7715606482675 67.23575652180789 L 2629.609065805402 67.32567053438078 L 2629.4445901134163 67.4148454978052 L 2629.2781500197425 67.5032724946591 L 2629.109762168251 67.59094268231648 L 2628.9394433975867 67.67784729383166 L 2628.767210739485 67.76397763881587 L 2628.593081417068 67.84932510430643 L 2628.4170728431222 67.93388115562787 L 2628.2392026183593 68.01763733724556 L 2628.059488529653 68.1005852736111 L 2627.877948548263 68.18271667 L 2627.694600828035 68.26402331334106 L 2627.5094637035895 68.34449707303769 L 2627.3225556884836 68.42412990178099 L 2627.133895473364 68.50291383635445 L 2626.9435019240946 68.58084099843026 L 2626.7513940798713 68.65790359535715 L 2626.557591151319 68.73409392093966 L 2626.3621125185687 68.80940435620869 L 2626.164977729321 68.88382737018351 L 2625.96620649689 68.95735552062472 L 2625.7658186982344 69.02998145477855 L 2625.563834371966 69.10169791011212 L 2625.3602737163496 69.17249771503964 L 2625.155157087281 69.24237378963963 L 2624.9485049962527 69.31131914636286 L 2624.7403381083004 69.37932689073111 L 2624.530677239941 69.44639022202662 L 2624.319543357085 69.51250243397213 L 2624.1069575729457 69.57765691540156 L 2623.892941145924 69.64184715092105 L 2623.6775154774846 69.70506672156054 L 2623.460702110015 69.76730930541565 L 2623.2425227246704 69.82856867827986 L 2623.0229991392084 69.88883871426695 L 2622.802153305804 69.94811338642353 L 2622.5800073088567 70.00638676733178 L 2622.3565833627813 70.06365302970217 L 2622.131903809786 70.1199064469562 L 2621.9059911176387 70.175141393799 L 2621.6788678774205 70.22935234678192 L 2621.450556801267 70.28253388485484 L 2621.221080720094 70.33468068990828 L 2620.990462581319 70.3857875473052 L 2620.7587254465643 70.4358493464024 L 2620.52589248935 70.48486108106175 L 2620.2919869927773 70.53281785015058 L 2620.057032347201 70.57971485803196 L 2619.8210520478906 70.6255474150442 L 2619.584069692679 70.67031093796977 L 2619.3461089796037 70.71400095049368 L 2619.107193704538 70.7566130836511 L 2618.867347758811 70.79814307626422 L 2618.6265951268165 70.83858677536838 L 2618.3849598836177 70.87794013662739 L 2618.142466192537 70.9161992247379 L 2617.899138302742 70.95336021382298 L 2617.655000546818 70.9894193878147 L 2617.4100773383384 71.0243731408257 L 2617.164393169419 71.05821797750983 L 2616.9179726082725 71.0909505134116 L 2616.6708402967492 71.12256747530469 L 2616.4230209478746 71.1530657015193 L 2616.174539343377 71.18244214225817 L 2615.92542033121 71.21069385990175 L 2615.6756888230666 71.2378180293018 L 2615.4253697918903 71.26381193806398 L 2615.1744882693747 71.2886729868191 L 2614.9230693434642 71.31239868948296 L 2614.6711381558407 71.3349866735051 L 2614.4187198994136 71.35643468010592 L 2614.1658398157983 71.37674056450265 L 2613.9125231927924 71.39590229612375 L 2613.658795361847 71.41391795881206 L 2613.4046816955333 71.43078575101629 L 2613.1502076050065 71.4465039859713 L 2612.8953985374637 71.46107109186667 L 2612.6402799735997 71.47448561200397 L 2612.3848774250573 71.48674620494236 L 2612.1292164318797 71.49785164463276 L 2611.873322559952 71.50780082054045 L 2611.617221398449 71.51659273775616 L 2611.360938557273 71.52422651709544 L 2611.104499664495 71.53070139518677 L 2610.84793036379 71.53601672454771 L 2610.5912563118745 71.54017197364975 L 2610.33450317594 71.54316672697146 L 2610.0776966310855 71.54500068504 L 2609.8208623577525 71.54567366446108 L 2609.5640260391533 71.54518559793732 L 2609.3072133587066 71.54353653427498 L 2609.050449997466 71.54072663837904 L 2608.793761631553 71.53675619123675 L 2608.5371739295915 71.53162558988952 L 2608.280712550137 71.5253353473932 L 2608.0244031391144 71.5178860927668 L 2607.7682713272507 71.50927857092958 L 2607.512342727514 71.49951364262655 L 2607.2566429325507 71.48859228434242 L 2607.0011975121274 71.47651558820388 L 2606.746032010573 71.4632847618705 L 2606.4911719442252 71.4489011284139 L 2606.236642798878 71.4333661261854 L 2605.9824700272347 71.41668130867232 L 2605.72867904636 71.3988483443425 L 2605.47529523514 71.3798690164775 L 2605.222343931746 71.35974522299428 L 2604.969850431096 71.33847897625544 L 2604.7178399823306 71.31607240286793 L 2604.466337786285 71.2925277434704 L 2604.215368992968 71.26784735250918 L 2603.964958699051 71.24203369800281 L 2603.7151319453537 71.21508936129521 L 2603.465913714344 71.18701703679761 L 2603.217328927637 71.15781953171906 L 2602.969402443505 71.12749976578573 L 2602.7221590543886 71.09606077094897 L 2602.4756234844212 71.06350569108204 L 2602.229820386954 71.02983778166582 L 2601.984774342093 70.99506040946316 L 2601.7405098542376 70.95917705218234 L 2601.497051349633 70.92219129812916 L 2601.254423173927 70.88410684584822 L 2601.012649589735 70.844927503753 L 2600.7717547742136 70.80465718974506 L 2600.5317628166445 70.76329993082226 L 2600.2926977160223 70.720859862676 L 2600.0545833786587 70.67734122927773 L 2599.8174436157888 70.63274838245455 L 2599.581302141191 70.58708578145396 L 2599.346182568816 70.54035799249802 L 2599.1121084104257 70.49256968832668 L 2598.87910307324 70.44372564773053 L 2598.647189857599 70.39383075507294 L 2598.4163919546313 70.34288999980159 L 2598.186732443934 70.29090847594955 L 2597.958234291267 70.23789138162589 L 2597.7309203462564 70.18384401849586 L 2597.5048133401056 70.12877179125074 L 2597.2799358833277 70.07268020706736 L 2597.0563104634803 70.0155748750574 L 2596.83395944292 69.95746150570646 L 2596.612905056563 69.89834591030306 L 2596.393169409663 69.83823400035747 L 2596.174774475603 69.7771317870106 L 2595.957742093694 69.71504538043285 L 2595.742093966993 69.65198098921316 L 2595.5278516601325 69.58794491973808 L 2595.3150365971655 69.5229435755612 L 2595.103670059421 69.45698345676277 L 2594.8937731833757 69.39007115929972 L 2594.685366958543 69.32221337434602 L 2594.4784722253717 69.25341688762362 L 2594.2731096731627 69.18368857872385 L 2594.069299838 69.11303542041951 L 2593.867063100697 69.04146447796754 L 2593.6664196847596 68.96898290840255 L 2593.4673896543613 68.89559795982112 L 2593.26999291234 68.82131697065691 L 2593.074249198205 68.74614736894696 L 2592.880178086165 68.6700966715888 L 2592.687798983169 68.59317248358877 L 2592.4971311269674 68.5153824973016 L 2592.3081935841865 68.43673449166107 L 2592.1210052484234 68.3572363314022 L 2591.9355848383557 68.27689596627481 L 2591.75195089587 68.19572143024841 L 2591.570121784207 68.11372084070898 L 2591.3901156861266 68.03090239764714 L 2591.211950602089 67.94727438283817 L 2591.035644348454 67.86284515901389 L 2590.8612145556995 67.7776231690263 L 2590.68867866666 67.69161693500338 L 2590.5180539347803 67.60483505749689 L 2590.3493574223917 67.51728621462222 L 2590.1826059990044 67.42897916119072 L 2590.017816339622 67.33992272783415 L 2589.8550049230735 67.25012582012162 L 2589.6941880303643 67.15959741766909 L 2589.5353817430505 67.06834657324134 L 2589.378601941627 66.9763824118468 L 2589.223864303945 66.88371412982495 L 2589.071184303638 66.79035099392678 L 2588.9205772085797 66.69630234038806 L 2588.7720580793534 66.60157757399578 L 2588.6256417677487 66.50618616714766 L 2588.4813429152746 66.41013765890487 L 2588.3391759516962 66.31344165403821 L 2588.199155093591 66.21610782206757 L 2588.0612943429287 66.11814589629505 L 2587.925607485669 66.01956567283159 L 2587.792108090385 65.92037700961737 L 2587.6608095069046 65.82058982543607 L 2587.531724864977 65.72021409892297 L 2587.4048670729585 65.61925986756704 L 2587.280248816523 65.5177372267073 L 2587.157882557392 65.41565632852324 L 2587.0377805320895 65.31302738101961 L 2586.9199547507183 65.20986064700564 L 2586.8044169957575 65.10616644306874 L 2586.691178820887 65.00195513854293 L 2586.58025154983 64.89723715447177 L 2586.471646275221 64.79202296256643 L 2586.3653738574963 64.68632308415845 L 2586.2614449238104 64.58014808914753 L 2586.1598698669686 64.47350859494473 L 2586.0606588443934 64.3664152654106 L 2585.963821777103 64.25887880978884 L 2585.8693683487245 64.15090998163541 L 2585.7773080045217 64.04251957774314 L 2585.687649950452 63.9337184370621 L 2585.6004031522466 63.82451743961569 L 2585.5155763345124 63.71492750541265 L 2585.43317797986 63.60495959335508 L 2585.353216328057 63.49462470014256 L 2585.2756993752014 63.38393385917244 L 2585.200634872924 63.272898139436585 L 2585.1280303276126 63.161528644414446 L 2585.0578929996614 63.04983651096271 L 2584.9902299027444 62.937832908201656 L 2584.925047803115 62.82552903639821 L 2584.8623532189285 62.71293612584597 L 2584.802152419592 62.600065435742174 L 2584.7444514251342 62.486928253061755 L 2584.689256005607 62.37353589142872 L 2584.6365716805067 62.259899689984735 L 2584.5864037182214 62.146031012255236 L 2584.538757135506 62.031941245013115 L 2584.4936366969782 61.91764179714002 L 2584.451046914645 61.80314409848549 L 2584.4109920474484 61.68845959872397 L 2584.3734761008427 61.57359976620988 L 2584.338502826391 61.45857608683074 L 2584.306075721391 61.34340006285864 L 2584.2761980285272 61.228083211800005 L 2584.248872735543 61.11263706524384 L 2584.2241025749454 60.997073167708585 L 2584.20189002373 60.881403075487704 L 2584.1822373031328 60.765638355494026 L 2584.16514637841 60.64979058410307 L 2584.15061895864 60.53387134599544 L 2584.138656496552 60.41789223299836 L 2584.1292601883824 60.30186484292647 L 2584.122430973755 60.185800778422085 L 2584.1181695355845 60.069711645794946 L 2584.1164763000115 59.95360905386156" stroke-miterlimit="10" stroke-width="2.990598758" stroke-dasharray=""/></g><g><g/><text fill="black" stroke="none" font-family="sans-serif" font-size="11pt" font-style="normal" font-weight="normal" text-decoration="normal" x="2577.2019979696865" y="90.421633036" text-anchor="start" dominant-baseline="alphabetic" xml:space="preserve">Database</text></g><g><path fill="white" stroke="black" paint-order="fill stroke markers" d=" M 2722.5934920668897 42.81833751159999 A 26.123759739 26.123759739 0 1 1 2722.593479005011 42.792213756214935 M 2668.85067320989 71.334576257 L 2724.0887914458895 71.334576257" stroke-miterlimit="10" stroke-width="2.990598758" stroke-dasharray=""/></g><g><g/><text fill="black" stroke="none" font-family="sans-serif" font-size="11pt" font-style="normal" font-weight="normal" text-decoration="normal" x="2662.575681729745" y="90.421633036" text-anchor="start" dominant-baseline="alphabetic" xml:space="preserve">s(Screen)</text></g><g><path fill="white" stroke="black" paint-order="fill stroke markers" d=" M 2809.791557450288 42.81833751159999 A 26.123759739 26.123759739 0 1 1 2809.7915443884094 42.792213756214935 M 2756.0487385932884 71.334576257 L 2811.286856829288 71.334576257" stroke-miterlimit="10" stroke-width="2.990598758" stroke-dasharray=""/></g><g><g/><text fill="black" stroke="none" font-family="sans-serif" font-size="11pt" font-style="normal" font-weight="normal" text-decoration="normal" x="2747.955540326034" y="90.421633036" text-anchor="start" dominant-baseline="alphabetic" xml:space="preserve">m(Movie)</text></g></g><g><path fill="white" stroke="black" paint-order="fill stroke markers" d=" M 365.36240800957034 153.751959676 L 382.95416540957035 153.751959676 L 382.95416540957035 2289.883877243199 L 365.36240800957034 2289.883877243199 L 365.36240800957034 153.751959676" stroke-miterlimit="10" stroke-width="1.4659797833333332" stroke-dasharray=""/><path fill="white" stroke="black" paint-order="fill stroke markers" d=" M 118.63666418108724 258.246998632 L 136.22842158108725 258.246998632 L 136.22842158108725 307.50391935199997 L 118.63666418108724 307.50391935199997 L 118.63666418108724 258.246998632" stroke-miterlimit="10" stroke-width="1.4659797833333332" stroke-dasharray=""/><path fill="white" stroke="black" paint-order="fill stroke markers" d=" M 118.63666418108724 356.76084007199995 L 136.22842158108725 356.76084007199995 L 136.22842158108725 504.5316022319999 L 118.63666418108724 504.5316022319999 L 118.63666418108724 356.76084007199995" stroke-miterlimit="10" stroke-width="1.4659797833333332" stroke-dasharray=""/><path fill="white" stroke="black" paint-order="fill stroke markers" d=" M 695.1896564535807 588.9720377519999 L 712.7814138535807 588.9720377519999 L 712.7814138535807 2240.626956523199 L 695.1896564535807 2240.626956523199 L 695.1896564535807 588.9720377519999" stroke-miterlimit="10" stroke-width="1.4659797833333332" stroke-dasharray=""/><path fill="white" stroke="black" paint-order="fill stroke markers" d=" M 1542.6797407228516 965.4356461119999 L 1560.2714981228517 965.4356461119999 L 1560.2714981228517 1823.7023061431996 L 1542.6797407228516 1823.7023061431996 L 1542.6797407228516 965.4356461119999" stroke-miterlimit="10" stroke-width="1.4659797833333332" stroke-dasharray=""/><path fill="white" stroke="black" paint-order="fill stroke markers" d=" M 1827.805577629948 1014.6925668319999 L 1845.397335029948 1014.6925668319999 L 1845.397335029948 1136.0756928919998 L 1827.805577629948 1136.0756928919998 L 1827.805577629948 1014.6925668319999" stroke-miterlimit="10" stroke-width="1.4659797833333332" stroke-dasharray=""/><path fill="white" stroke="black" paint-order="fill stroke markers" d=" M 2347.6825879656176 1308.4749154119997 L 2365.274345365617 1308.4749154119997 L 2365.274345365617 1774.4453854231997 L 2347.6825879656176 1774.4453854231997 L 2347.6825879656176 1308.4749154119997" stroke-miterlimit="10" stroke-width="1.4659797833333332" stroke-dasharray=""/><path fill="white" stroke="black" paint-order="fill stroke markers" d=" M 2356.4784666656174 1429.8580414719997 L 2374.070224065617 1429.8580414719997 L 2374.070224065617 1528.3718829119998 L 2356.4784666656174 1528.3718829119998 L 2356.4784666656174 1429.8580414719997" stroke-miterlimit="10" stroke-width="1.4659797833333332" stroke-dasharray=""/><path fill="white" stroke="black" paint-order="fill stroke markers" d=" M 2896.78363795914 1675.9315439831998 L 2914.3753953591395 1675.9315439831998 L 2914.3753953591395 1725.1884647031998 L 2896.78363795914 1725.1884647031998 L 2896.78363795914 1675.9315439831998" stroke-miterlimit="10" stroke-width="1.4659797833333332" stroke-dasharray=""/><path fill="white" stroke="black" paint-order="fill stroke markers" d=" M 703.9855351535807 1895.8285114831997 L 721.5772925535807 1895.8285114831997 L 721.5772925535807 2203.684265983199 L 703.9855351535807 2203.684265983199 L 703.9855351535807 1895.8285114831997" stroke-miterlimit="10" stroke-width="1.4659797833333332" stroke-dasharray=""/><path fill="white" stroke="black" paint-order="fill stroke markers" d=" M 374.15828670957035 1945.0854322031996 L 391.75004410957035 1945.0854322031996 L 391.75004410957035 2191.3700358031992 L 374.15828670957035 2191.3700358031992 L 374.15828670957035 1945.0854322031996" stroke-miterlimit="10" stroke-width="1.4659797833333332" stroke-dasharray=""/><path fill="white" stroke="black" paint-order="fill stroke markers" d=" M 712.7814138535807 1994.3423529231995 L 730.3731712535807 1994.3423529231995 L 730.3731712535807 2043.5992736431995 L 712.7814138535807 2043.5992736431995 L 712.7814138535807 1994.3423529231995" stroke-miterlimit="10" stroke-width="1.4659797833333332" stroke-dasharray=""/><path fill="white" stroke="black" paint-order="fill stroke markers" d=" M 712.7814138535807 2092.8561943631994 L 730.3731712535807 2092.8561943631994 L 730.3731712535807 2142.1131150831993 L 712.7814138535807 2142.1131150831993 L 712.7814138535807 2092.8561943631994" stroke-miterlimit="10" stroke-width="1.4659797833333332" stroke-dasharray=""/><g><g><rect fill="white" stroke="none" x="121.81689036490236" y="130.882675056" width="146.36558569167968" height="22.86928462"/></g><text fill="black" stroke="none" font-family="sans-serif" font-size="11pt" font-style="normal" font-weight="normal" text-decoration="normal" x="124.45565397490236" y="146.71525671600003" text-anchor="start" dominant-baseline="alphabetic" xml:space="preserve">scheduleScreening()</text></g><g><path fill="none" stroke="black" paint-order="fill stroke markers" d=" M 24.636958411914062 153.751959676 L 350.878527750237 153.751959676" stroke-miterlimit="10" stroke-width="1.4659797833333332" stroke-dasharray=""/><g transform="translate(365.36240800957034,153.751959676) translate(-365.36240800957034,-153.751959676)"><path fill="black" stroke="none" paint-order="stroke fill markers" d=" M 350.702610176237 146.42206075933333 L 365.36240800957034 153.751959676 L 350.702610176237 161.0818585926667 Z"/></g></g><g><path fill="white" stroke="black" paint-order="fill stroke markers" d=" M 162.35218132008725 206.26335551499997 A 26.123759739 26.123759739 0 1 1 162.35216825820845 206.23723175961493 M 94.00820382108724 178.64429639699998 L 94.00820382108724 233.88241463299997 M 92.51290444208723 206.26335551499997 L 110.10466184208724 206.26335551499997" stroke-miterlimit="10" stroke-width="2.990598758" stroke-dasharray=""/></g><g><g/><text fill="black" stroke="none" font-family="sans-serif" font-size="11pt" font-style="normal" font-weight="normal" text-decoration="normal" x="69.95580490501303" y="251.47417203299997" text-anchor="start" dominant-baseline="alphabetic" xml:space="preserve">ScreeningDialog</text></g><g><g><rect fill="white" stroke="none" x="210.12413313049478" y="196.32401258399997" width="130.02342260574218" height="22.86928462"/></g><text fill="black" stroke="none" font-family="sans-serif" font-size="11pt" font-style="normal" font-weight="normal" text-decoration="normal" x="212.7628967404948" y="212.156594244" text-anchor="start" dominant-baseline="alphabetic" xml:space="preserve">ScreeningDialog()</text></g><g><path fill="none" stroke="black" paint-order="fill stroke markers" d=" M 365.36240800957034 219.19329720399998 L 199.3931611164948 219.19329720399998" stroke-miterlimit="10" stroke-width="1.4659797833333332" stroke-dasharray=""/><g transform="translate(184.90928085716146,219.19329720399998) translate(-184.90928085716146,-219.19329720399998)"><path fill="black" stroke="none" paint-order="stroke fill markers" d=" M 199.5690786904948 211.8633982873333 L 184.90928085716146 219.19329720399998 L 199.5690786904948 226.52319612066665 Z"/></g></g><g><g><rect fill="white" stroke="none" x="248.15665118532877" y="284.634634732" width="5.27752722" height="22.86928462"/></g><text fill="black" stroke="none" font-family="sans-serif" font-size="11pt" font-style="normal" font-weight="normal" text-decoration="normal" x="250.79541479532878" y="300.467216392" text-anchor="start" dominant-baseline="alphabetic" xml:space="preserve"></text></g><g><path fill="none" stroke="black" paint-order="fill stroke markers" d=" M 136.22842158108725 307.50391935199997 L 350.878527750237 307.50391935199997" stroke-miterlimit="10" stroke-width="1.4659797833333332" stroke-dasharray="7.0367029599999995"/><g transform="translate(365.36240800957034,307.50391935199997) translate(-365.36240800957034,-307.50391935199997)"><path fill="black" stroke="none" paint-order="stroke fill markers" d=" M 350.702610176237 300.1740204353333 L 365.36240800957034 307.50391935199997 L 350.702610176237 314.8338182686666 Z"/></g></g><g><g><rect fill="white" stroke="none" x="194.64554278689127" y="333.891555452" width="112.299744016875" height="22.86928462"/></g><text fill="black" stroke="none" font-family="sans-serif" font-size="11pt" font-style="normal" font-weight="normal" text-decoration="normal" x="197.28430639689128" y="349.724137112" text-anchor="start" dominant-baseline="alphabetic" xml:space="preserve">showAndWait()</text></g><g><path fill="none" stroke="black" paint-order="fill stroke markers" d=" M 365.36240800957034 356.76084007199995 L 150.7123018404206 356.76084007199995" stroke-miterlimit="10" stroke-width="1.4659797833333332" stroke-dasharray=""/><g transform="translate(136.22842158108725,356.76084007199995) translate(-136.22842158108725,-356.76084007199995)"><path fill="black" stroke="none" paint-order="stroke fill markers" d=" M 150.88821941442058 349.4309411553333 L 136.22842158108725 356.76084007199995 L 150.88821941442058 364.0907389886666 Z"/></g></g><g><g><rect fill="white" stroke="none" x="68.99804768650066" y="383.14847617199996" width="5.27752722" height="22.86928462"/></g><text fill="black" stroke="none" font-family="sans-serif" font-size="11pt" font-style="normal" font-weight="normal" text-decoration="normal" x="71.63681129650065" y="398.981057832" text-anchor="start" dominant-baseline="alphabetic" xml:space="preserve"></text></g><g><path fill="none" stroke="black" paint-order="fill stroke markers" d=" M 118.63666418108724 406.01776079199993 L 39.1208386712474 406.01776079199993" stroke-miterlimit="10" stroke-width="1.4659797833333332" stroke-dasharray=""/><g transform="translate(24.636958411914062,406.01776079199993) translate(-24.636958411914062,-406.01776079199993)"><path fill="black" stroke="none" paint-order="stroke fill markers" d=" M 39.296756245247394 398.6878618753333 L 24.636958411914062 406.01776079199993 L 39.296756245247394 413.3476597086666 Z"/></g></g><g><g><rect fill="white" stroke="none" x="68.99804768650066" y="432.40539689199994" width="5.27752722" height="22.86928462"/></g><text fill="black" stroke="none" font-family="sans-serif" font-size="11pt" font-style="normal" font-weight="normal" text-decoration="normal" x="71.63681129650065" y="448.23797855199996" text-anchor="start" dominant-baseline="alphabetic" xml:space="preserve"></text></g><g><path fill="none" stroke="black" paint-order="fill stroke markers" d=" M 24.636958411914062 455.2746815119999 L 104.15278392175391 455.2746815119999" stroke-miterlimit="10" stroke-width="1.4659797833333332" stroke-dasharray="7.0367029599999995"/><g transform="translate(118.63666418108724,455.2746815119999) translate(-118.63666418108724,-455.2746815119999)"><path fill="black" stroke="none" paint-order="stroke fill markers" d=" M 103.97686634775391 447.94478259533327 L 118.63666418108724 455.2746815119999 L 103.97686634775391 462.60458042866657 Z"/></g></g><g><g><rect fill="white" stroke="none" x="161.9361998303483" y="481.6623176119999" width="177.71842992996093" height="22.86928462"/></g><text fill="black" stroke="none" font-family="sans-serif" font-size="11pt" font-style="normal" font-weight="normal" text-decoration="normal" x="164.5749634403483" y="497.49489927199994" text-anchor="start" dominant-baseline="alphabetic" xml:space="preserve">returnsg:ScreeningInfo</text></g><g><path fill="none" stroke="black" paint-order="fill stroke markers" d=" M 136.22842158108725 504.5316022319999 L 350.878527750237 504.5316022319999" stroke-miterlimit="10" stroke-width="1.4659797833333332" stroke-dasharray=""/><g transform="translate(365.36240800957034,504.5316022319999) translate(-365.36240800957034,-504.5316022319999)"><path fill="black" stroke="none" paint-order="stroke fill markers" d=" M 350.702610176237 497.20170331533325 L 365.36240800957034 504.5316022319999 L 350.702610176237 511.86150114866655 Z"/></g></g><g><g><rect fill="white" stroke="none" x="408.16901768290364" y="530.9192383319998" width="261.8057864973438" height="22.86928462"/></g><g><rect fill="white" stroke="none" x="408.16901768290364" y="548.5109957319999" width="215.76423681472656" height="22.86928462"/></g><g><rect fill="white" stroke="none" x="408.16901768290364" y="566.1027531319999" width="219.1428836653125" height="22.86928462"/></g><text fill="black" stroke="none" font-family="sans-serif" font-size="11pt" font-style="normal" font-weight="normal" text-decoration="normal" x="410.80778129290366" y="546.7518199919998" text-anchor="start" dominant-baseline="alphabetic" xml:space="preserve">scheduleScreening(date:LocalDate,</text><text fill="black" stroke="none" font-family="sans-serif" font-size="11pt" font-style="normal" font-weight="normal" text-decoration="normal" x="410.80778129290366" y="564.3435773919998" text-anchor="start" dominant-baseline="alphabetic" xml:space="preserve">time:LocalTime,title:String,</text><text fill="black" stroke="none" font-family="sans-serif" font-size="11pt" font-style="normal" font-weight="normal" text-decoration="normal" x="410.80778129290366" y="581.9353347919998" text-anchor="start" dominant-baseline="alphabetic" xml:space="preserve">year:int,screenName:String)</text></g><g><path fill="none" stroke="black" paint-order="fill stroke markers" d=" M 382.95416540957035 588.9720377519999 L 680.7057761942474 588.9720377519999" stroke-miterlimit="10" stroke-width="1.4659797833333332" stroke-dasharray=""/><g transform="translate(695.1896564535807,588.9720377519999) translate(-695.1896564535807,-588.9720377519999)"><path fill="black" stroke="none" paint-order="stroke fill markers" d=" M 680.5298586202474 581.6421388353332 L 695.1896564535807 588.9720377519999 L 680.5298586202474 596.3019366686666 Z"/></g></g><g><g><rect fill="white" stroke="none" x="733.5983267769141" y="662.8574188319999" width="767.7407840559375" height="22.86928462"/></g><text fill="black" stroke="none" font-family="sans-serif" font-size="11pt" font-style="normal" font-weight="normal" text-decoration="normal" x="736.237090386914" y="678.6900004919999" text-anchor="start" dominant-baseline="alphabetic" xml:space="preserve">checkLongerScreening()</text></g><g><path fill="none" stroke="black" paint-order="fill stroke markers" d=" M 712.7814138535807 685.7267034519998 L 783.1484434535807 685.7267034519998 L 783.1484434535807 708.5959880719998 L 727.265294112914 708.5959880719998" stroke-miterlimit="10" stroke-width="1.4659797833333332" stroke-dasharray=""/><g transform="translate(712.7814138535807,708.5959880719998) translate(-712.7814138535807,-708.5959880719998)"><path fill="black" stroke="none" paint-order="stroke fill markers" d=" M 727.441211686914 701.2660891553331 L 712.7814138535807 708.5959880719998 L 727.441211686914 715.9258869886665 Z"/></g></g><g><g><rect fill="white" stroke="none" x="733.5983267769141" y="808.8690052519999" width="520.7248538801563" height="22.86928462"/></g><text fill="black" stroke="none" font-family="sans-serif" font-size="11pt" font-style="normal" font-weight="normal" text-decoration="normal" x="736.237090386914" y="824.7015869119998" text-anchor="start" dominant-baseline="alphabetic" xml:space="preserve">checkDoubleScreening(time:LocalTime,screenName:int,sg:Screening)</text></g><g><path fill="none" stroke="black" paint-order="fill stroke markers" d=" M 712.7814138535807 831.7382898719998 L 783.1484434535807 831.7382898719998 L 783.1484434535807 854.6075744919998 L 727.265294112914 854.6075744919998" stroke-miterlimit="10" stroke-width="1.4659797833333332" stroke-dasharray=""/><g transform="translate(712.7814138535807,854.6075744919998) translate(-712.7814138535807,-854.6075744919998)"><path fill="black" stroke="none" paint-order="stroke fill markers" d=" M 727.441211686914 847.2776755753331 L 712.7814138535807 854.6075744919998 L 727.441211686914 861.9374734086665 Z"/></g></g><g><g><rect fill="white" stroke="none" x="996.8276840395444" y="907.3828466919998" width="261.8057864973438" height="22.86928462"/></g><g><rect fill="white" stroke="none" x="996.8276840395444" y="924.9746040919998" width="215.76423681472656" height="22.86928462"/></g><g><rect fill="white" stroke="none" x="996.8276840395444" y="942.5663614919998" width="219.1428836653125" height="22.86928462"/></g><text fill="black" stroke="none" font-family="sans-serif" font-size="11pt" font-style="normal" font-weight="normal" text-decoration="normal" x="999.4664476495443" y="923.2154283519998" text-anchor="start" dominant-baseline="alphabetic" xml:space="preserve">scheduleScreening(date:LocalDate,</text><text fill="black" stroke="none" font-family="sans-serif" font-size="11pt" font-style="normal" font-weight="normal" text-decoration="normal" x="999.4664476495443" y="940.8071857519998" text-anchor="start" dominant-baseline="alphabetic" xml:space="preserve">time:LocalTime,title:String,</text><text fill="black" stroke="none" font-family="sans-serif" font-size="11pt" font-style="normal" font-weight="normal" text-decoration="normal" x="999.4664476495443" y="958.3989431519998" text-anchor="start" dominant-baseline="alphabetic" xml:space="preserve">year:int,screenName:String)</text></g><g><path fill="none" stroke="black" paint-order="fill stroke markers" d=" M 712.7814138535807 965.4356461119999 L 1528.1958604635183 965.4356461119999" stroke-miterlimit="10" stroke-width="1.4659797833333332" stroke-dasharray=""/><g transform="translate(1542.6797407228516,965.4356461119999) translate(-1542.6797407228516,-965.4356461119999)"><path fill="black" stroke="none" paint-order="stroke fill markers" d=" M 1528.0199428895182 958.1057471953332 L 1542.6797407228516 965.4356461119999 L 1528.0199428895182 972.7655450286666 Z"/></g></g><g><g><rect fill="white" stroke="none" x="1581.088411046185" y="991.8232822119999" width="225.90025366042968" height="22.86928462"/></g><text fill="black" stroke="none" font-family="sans-serif" font-size="11pt" font-style="normal" font-weight="normal" text-decoration="normal" x="1583.727174656185" y="1007.6558638719998" text-anchor="start" dominant-baseline="alphabetic" xml:space="preserve">getScreen(screenName:String)</text></g><g><path fill="none" stroke="black" paint-order="fill stroke markers" d=" M 1560.2714981228517 1014.6925668319999 L 1813.3216973706146 1014.6925668319999" stroke-miterlimit="10" stroke-width="1.4659797833333332" stroke-dasharray=""/><g transform="translate(1827.805577629948,1014.6925668319999) translate(-1827.805577629948,-1014.6925668319999)"><path fill="black" stroke="none" paint-order="stroke fill markers" d=" M 1813.1457797966145 1007.3626679153332 L 1827.805577629948 1014.6925668319999 L 1813.1457797966145 1022.0224657486666 Z"/></g></g><g><g><rect fill="white" stroke="none" x="1866.2142479532813" y="1041.0802029319998" width="316.90243566726565" height="22.86928462"/></g><text fill="black" stroke="none" font-family="sans-serif" font-size="11pt" font-style="normal" font-weight="normal" text-decoration="normal" x="1868.8530115632814" y="1056.9127845919998" text-anchor="start" dominant-baseline="alphabetic" xml:space="preserve">getFromCacheByName(screenName:String)</text></g><g><path fill="none" stroke="black" paint-order="fill stroke markers" d=" M 1845.397335029948 1063.949487552 L 1915.764364629948 1063.949487552 L 1915.764364629948 1086.8187721719999 L 1859.8812152892813 1086.8187721719999" stroke-miterlimit="10" stroke-width="1.4659797833333332" stroke-dasharray=""/><g transform="translate(1845.397335029948,1086.8187721719999) translate(-1845.397335029948,-1086.8187721719999)"><path fill="black" stroke="none" paint-order="stroke fill markers" d=" M 1860.0571328632814 1079.4888732553331 L 1845.397335029948 1086.8187721719999 L 1860.0571328632814 1094.1486710886666 Z"/></g></g><g><g><rect fill="white" stroke="none" x="1634.8965851794858" y="1113.2064082719999" width="118.28390539382812" height="22.86928462"/></g><text fill="black" stroke="none" font-family="sans-serif" font-size="11pt" font-style="normal" font-weight="normal" text-decoration="normal" x="1637.5353487894859" y="1129.0389899319998" text-anchor="start" dominant-baseline="alphabetic" xml:space="preserve">returns:Screen</text></g><g><path fill="none" stroke="black" paint-order="fill stroke markers" d=" M 1827.805577629948 1136.0756928919998 L 1574.755378382185 1136.0756928919998" stroke-miterlimit="10" stroke-width="1.4659797833333332" stroke-dasharray="7.0367029599999995"/><g transform="translate(1560.2714981228517,1136.0756928919998) translate(-1560.2714981228517,-1136.0756928919998)"><path fill="black" stroke="none" paint-order="stroke fill markers" d=" M 1574.931295956185 1128.745793975333 L 1560.2714981228517 1136.0756928919998 L 1574.931295956185 1143.4055918086665 Z"/></g></g><g><g><rect fill="white" stroke="none" x="1741.1031230879491" y="1209.961073972" width="267.3390506575" height="22.86928462"/></g><text fill="black" stroke="none" font-family="sans-serif" font-size="11pt" font-style="normal" font-weight="normal" text-decoration="normal" x="1743.7418866979492" y="1225.7936556319999" text-anchor="start" dominant-baseline="alphabetic" xml:space="preserve">m:=getMovie(title:String,year:int)</text></g><g><path fill="none" stroke="black" paint-order="fill stroke markers" d=" M 1560.2714981228517 1232.8303585919998 L 2174.7899184512135 1232.8303585919998" stroke-miterlimit="10" stroke-width="1.4659797833333332" stroke-dasharray=""/><g transform="translate(2189.273798710547,1232.8303585919998) translate(-2189.273798710547,-1232.8303585919998)"><path fill="black" stroke="none" paint-order="stroke fill markers" d=" M 2174.6140008772136 1225.500459675333 L 2189.273798710547 1232.8303585919998 L 2174.6140008772136 1240.1602575086665 Z"/></g></g><g><g><rect fill="white" stroke="none" x="1687.9882733307188" y="1285.6056307919998" width="531.9775394270313" height="22.86928462"/></g><text fill="black" stroke="none" font-family="sans-serif" font-size="11pt" font-style="normal" font-weight="normal" text-decoration="normal" x="1690.6270369407189" y="1301.4382124519998" text-anchor="start" dominant-baseline="alphabetic" xml:space="preserve">scheduleScreening(date:LocalDate,m:Movie,s:Screen,time:LocalTime)</text></g><g><path fill="none" stroke="black" paint-order="fill stroke markers" d=" M 1560.2714981228517 1308.4749154119997 L 2333.198707706284 1308.4749154119997" stroke-miterlimit="10" stroke-width="1.4659797833333332" stroke-dasharray=""/><g transform="translate(2347.6825879656176,1308.4749154119997) translate(-2347.6825879656176,-1308.4749154119997)"><path fill="black" stroke="none" paint-order="stroke fill markers" d=" M 2333.022790132284 1301.145016495333 L 2347.6825879656176 1308.4749154119997 L 2333.022790132284 1315.8048143286665 Z"/></g></g><g><g><rect fill="white" stroke="none" x="2438.7425545725446" y="1334.8625515119998" width="97.58964575027343" height="22.86928462"/></g><text fill="black" stroke="none" font-family="sans-serif" font-size="11pt" font-style="normal" font-weight="normal" text-decoration="normal" x="2441.3813181825444" y="1350.6951331719997" text-anchor="start" dominant-baseline="alphabetic" xml:space="preserve">oid:=getId()</text></g><g><path fill="none" stroke="black" paint-order="fill stroke markers" d=" M 2365.274345365617 1357.7318361319997 L 2595.3165292704116 1357.7318361319997" stroke-miterlimit="10" stroke-width="1.4659797833333332" stroke-dasharray=""/><g transform="translate(2609.800409529745,1357.7318361319997) translate(-2609.800409529745,-1357.7318361319997)"><path fill="black" stroke="none" paint-order="stroke fill markers" d=" M 2595.1406116964117 1350.401937215333 L 2609.800409529745 1357.7318361319997 L 2595.1406116964117 1365.0617350486664 Z"/></g></g><g><g><rect fill="white" stroke="none" x="2394.8871369889507" y="1384.1194722319997" width="197.3963016340625" height="22.86928462"/></g><text fill="black" stroke="none" font-family="sans-serif" font-size="11pt" font-style="normal" font-weight="normal" text-decoration="normal" x="2397.5259005989506" y="1399.9520538919996" text-anchor="start" dominant-baseline="alphabetic" xml:space="preserve">performUpdate(sql:String)</text></g><g><path fill="none" stroke="black" paint-order="fill stroke markers" d=" M 2365.274345365617 1406.9887568519998 L 2444.4372536656174 1406.9887568519998 L 2444.4372536656174 1429.8580414719997 L 2388.554104324951 1429.8580414719997" stroke-miterlimit="10" stroke-width="1.4659797833333332" stroke-dasharray=""/><g transform="translate(2374.0702240656174,1429.8580414719997) translate(-2374.0702240656174,-1429.8580414719997)"><path fill="black" stroke="none" paint-order="stroke fill markers" d=" M 2388.730021898951 1422.528142555333 L 2374.0702240656174 1429.8580414719997 L 2388.730021898951 1437.1879403886664 Z"/></g></g><g><g><rect fill="white" stroke="none" x="2394.887136988951" y="1456.2456775719997" width="194.09635961746093" height="22.86928462"/></g><text fill="black" stroke="none" font-family="sans-serif" font-size="11pt" font-style="normal" font-weight="normal" text-decoration="normal" x="2397.525900598951" y="1472.0782592319997" text-anchor="start" dominant-baseline="alphabetic" xml:space="preserve">executeUpdate(sql:String)</text></g><g><path fill="none" stroke="black" paint-order="fill stroke markers" d=" M 2374.0702240656174 1479.1149621919997 L 2595.3165292704116 1479.1149621919997" stroke-miterlimit="10" stroke-width="1.4659797833333332" stroke-dasharray=""/><g transform="translate(2609.800409529745,1479.1149621919997) translate(-2609.800409529745,-1479.1149621919997)"><path fill="black" stroke="none" paint-order="stroke fill markers" d=" M 2595.1406116964117 1471.785063275333 L 2609.800409529745 1479.1149621919997 L 2595.1406116964117 1486.4448611086664 Z"/></g></g><g><g><rect fill="white" stroke="none" x="2394.8871369889507" y="1505.5025982919997" width="5.27752722" height="22.86928462"/></g><text fill="black" stroke="none" font-family="sans-serif" font-size="11pt" font-style="normal" font-weight="normal" text-decoration="normal" x="2397.5259005989506" y="1521.3351799519996" text-anchor="start" dominant-baseline="alphabetic" xml:space="preserve"></text></g><g><path fill="none" stroke="black" paint-order="fill stroke markers" d=" M 2374.0702240656174 1528.3718829119998 L 2444.4372536656174 1528.3718829119998 L 2444.4372536656174 1551.2411675319997 L 2379.758225624951 1551.2411675319997" stroke-miterlimit="10" stroke-width="1.4659797833333332" stroke-dasharray="7.0367029599999995"/><g transform="translate(2365.2743453656176,1551.2411675319997) translate(-2365.2743453656176,-1551.2411675319997)"><path fill="black" stroke="none" paint-order="stroke fill markers" d=" M 2379.934143198951 1543.911268615333 L 2365.2743453656176 1551.2411675319997 L 2379.934143198951 1558.5710664486664 Z"/></g></g><g><path fill="white" stroke="black" paint-order="fill stroke markers" d=" M 2931.7032763981397 1621.5554218598 A 26.123759739 26.123759739 0 1 1 2931.703263336261 1621.529298104415 M 2877.96045754114 1650.0716606052 L 2933.1985757771395 1650.0716606052" stroke-miterlimit="10" stroke-width="2.990598758" stroke-dasharray=""/></g><g><g/><text fill="black" stroke="none" font-family="sans-serif" font-size="11pt" font-style="normal" font-weight="normal" text-decoration="normal" x="2836.971812496542" y="1669.1587173842" text-anchor="start" dominant-baseline="alphabetic" xml:space="preserve">PersistentScreening</text></g><g><g><rect fill="white" stroke="none" x="2483.727731153599" y="1577.628803632" width="234.79069555496093" height="22.86928462"/></g><g><rect fill="white" stroke="none" x="2483.727731153599" y="1595.220561032" width="202.97972143386718" height="22.86928462"/></g><g><rect fill="white" stroke="none" x="2483.727731153599" y="1612.812318432" width="198.0835117170703" height="22.86928462"/></g><text fill="black" stroke="none" font-family="sans-serif" font-size="11pt" font-style="normal" font-weight="normal" text-decoration="normal" x="2486.366494763599" y="1593.461385292" text-anchor="start" dominant-baseline="alphabetic" xml:space="preserve">PersistentScreening(oid:Integer,</text><text fill="black" stroke="none" font-family="sans-serif" font-size="11pt" font-style="normal" font-weight="normal" text-decoration="normal" x="2486.366494763599" y="1611.053142692" text-anchor="start" dominant-baseline="alphabetic" xml:space="preserve">date:LocalDate,m:Movie,</text><text fill="black" stroke="none" font-family="sans-serif" font-size="11pt" font-style="normal" font-weight="normal" text-decoration="normal" x="2486.366494763599" y="1628.644900092" text-anchor="start" dominant-baseline="alphabetic" xml:space="preserve">s:Screen,time:LocalTime)</text></g><g><path fill="none" stroke="black" paint-order="fill stroke markers" d=" M 2365.274345365617 1635.681603052 L 2822.4879322372085 1635.681603052" stroke-miterlimit="10" stroke-width="1.4659797833333332" stroke-dasharray=""/><g transform="translate(2836.971812496542,1635.681603052) translate(-2836.971812496542,-1635.681603052)"><path fill="black" stroke="none" paint-order="stroke fill markers" d=" M 2822.3120146632086 1628.3517041353332 L 2836.971812496542 1635.681603052 L 2822.3120146632086 1643.0115019686666 Z"/></g></g><g><g><rect fill="white" stroke="none" x="2628.390228052379" y="1702.3191800831999" width="5.27752722" height="22.86928462"/></g><text fill="black" stroke="none" font-family="sans-serif" font-size="11pt" font-style="normal" font-weight="normal" text-decoration="normal" x="2631.0289916623788" y="1718.1517617431998" text-anchor="start" dominant-baseline="alphabetic" xml:space="preserve"></text></g><g><path fill="none" stroke="black" paint-order="fill stroke markers" d=" M 2896.78363795914 1725.1884647031998 L 2379.7582256249507 1725.1884647031998" stroke-miterlimit="10" stroke-width="1.4659797833333332" stroke-dasharray="7.0367029599999995"/><g transform="translate(2365.274345365617,1725.1884647031998) translate(-2365.274345365617,-1725.1884647031998)"><path fill="black" stroke="none" paint-order="stroke fill markers" d=" M 2379.9341431989506 1717.858565786533 L 2365.274345365617 1725.1884647031998 L 2379.9341431989506 1732.5183636198665 Z"/></g></g><g><g><rect fill="white" stroke="none" x="1951.3382794342344" y="1751.5761008031998" width="5.27752722" height="22.86928462"/></g><text fill="black" stroke="none" font-family="sans-serif" font-size="11pt" font-style="normal" font-weight="normal" text-decoration="normal" x="1953.9770430442345" y="1767.4086824631997" text-anchor="start" dominant-baseline="alphabetic" xml:space="preserve"></text></g><g><path fill="none" stroke="black" paint-order="fill stroke markers" d=" M 2347.6825879656176 1774.4453854231997 L 1574.755378382185 1774.4453854231997" stroke-miterlimit="10" stroke-width="1.4659797833333332" stroke-dasharray="7.0367029599999995"/><g transform="translate(1560.2714981228517,1774.4453854231997) translate(-1560.2714981228517,-1774.4453854231997)"><path fill="black" stroke="none" paint-order="stroke fill markers" d=" M 1574.931295956185 1767.115486506533 L 1560.2714981228517 1774.4453854231997 L 1574.931295956185 1781.7752843398664 Z"/></g></g><g><g><rect fill="white" stroke="none" x="1125.091813678216" y="1800.8330215231997" width="5.27752722" height="22.86928462"/></g><text fill="black" stroke="none" font-family="sans-serif" font-size="11pt" font-style="normal" font-weight="normal" text-decoration="normal" x="1127.7305772882162" y="1816.6656031831997" text-anchor="start" dominant-baseline="alphabetic" xml:space="preserve"></text></g><g><path fill="none" stroke="black" paint-order="fill stroke markers" d=" M 1542.6797407228516 1823.7023061431996 L 727.265294112914 1823.7023061431996" stroke-miterlimit="10" stroke-width="1.4659797833333332" stroke-dasharray="7.0367029599999995"/><g transform="translate(712.7814138535807,1823.7023061431996) translate(-712.7814138535807,-1823.7023061431996)"><path fill="black" stroke="none" paint-order="stroke fill markers" d=" M 727.441211686914 1816.372407226533 L 712.7814138535807 1823.7023061431996 L 727.441211686914 1831.0322050598663 Z"/></g></g><g><g><rect fill="white" stroke="none" x="742.3942054769141" y="1850.0899422431996" width="126.94535864089843" height="22.86928462"/></g><text fill="black" stroke="none" font-family="sans-serif" font-size="11pt" font-style="normal" font-weight="normal" text-decoration="normal" x="745.032969086914" y="1865.9225239031996" text-anchor="start" dominant-baseline="alphabetic" xml:space="preserve">notifyObservers()</text></g><g><path fill="none" stroke="black" paint-order="fill stroke markers" d=" M 712.7814138535807 1872.9592268631998 L 791.9443221535807 1872.9592268631998 L 791.9443221535807 1895.8285114831997 L 736.061172812914 1895.8285114831997" stroke-miterlimit="10" stroke-width="1.4659797833333332" stroke-dasharray=""/><g transform="translate(721.5772925535807,1895.8285114831997) translate(-721.5772925535807,-1895.8285114831997)"><path fill="black" stroke="none" paint-order="stroke fill markers" d=" M 736.237090386914 1888.498612566533 L 721.5772925535807 1895.8285114831997 L 736.237090386914 1903.1584103998664 Z"/></g></g><g><g><rect fill="white" stroke="none" x="515.5654670616146" y="1922.2161475831997" width="64.60464513992187" height="22.86928462"/></g><text fill="black" stroke="none" font-family="sans-serif" font-size="11pt" font-style="normal" font-weight="normal" text-decoration="normal" x="518.2042306716146" y="1938.0487292431997" text-anchor="start" dominant-baseline="alphabetic" xml:space="preserve">update()</text></g><g><path fill="none" stroke="black" paint-order="fill stroke markers" d=" M 703.9855351535807 1945.0854322031996 L 406.2339243689037 1945.0854322031996" stroke-miterlimit="10" stroke-width="1.4659797833333332" stroke-dasharray=""/><g transform="translate(391.75004410957035,1945.0854322031996) translate(-391.75004410957035,-1945.0854322031996)"><path fill="black" stroke="none" paint-order="stroke fill markers" d=" M 406.4098419429037 1937.755533286533 L 391.75004410957035 1945.0854322031996 L 406.4098419429037 1952.4153311198663 Z"/></g></g><g><g><rect fill="white" stroke="none" x="516.6885269560482" y="1971.4730683031996" width="71.15440405105468" height="22.86928462"/></g><text fill="black" stroke="none" font-family="sans-serif" font-size="11pt" font-style="normal" font-weight="normal" text-decoration="normal" x="519.3272905660482" y="1987.3056499631996" text-anchor="start" dominant-baseline="alphabetic" xml:space="preserve">getDate()</text></g><g><path fill="none" stroke="black" paint-order="fill stroke markers" d=" M 391.75004410957035 1994.3423529231995 L 698.2975335942474 1994.3423529231995" stroke-miterlimit="10" stroke-width="1.4659797833333332" stroke-dasharray=""/><g transform="translate(712.7814138535807,1994.3423529231995) translate(-712.7814138535807,-1994.3423529231995)"><path fill="black" stroke="none" paint-order="stroke fill markers" d=" M 698.1216160202474 1987.0124540065328 L 712.7814138535807 1994.3423529231995 L 698.1216160202474 2001.6722518398662 Z"/></g></g><g><g><rect fill="white" stroke="none" x="510.485974160638" y="2020.7299890231996" width="83.559509641875" height="22.86928462"/></g><text fill="black" stroke="none" font-family="sans-serif" font-size="11pt" font-style="normal" font-weight="normal" text-decoration="normal" x="513.124737770638" y="2036.5625706831995" text-anchor="start" dominant-baseline="alphabetic" xml:space="preserve">returndate</text></g><g><path fill="none" stroke="black" paint-order="fill stroke markers" d=" M 712.7814138535807 2043.5992736431995 L 406.2339243689037 2043.5992736431995" stroke-miterlimit="10" stroke-width="1.4659797833333332" stroke-dasharray="7.0367029599999995"/><g transform="translate(391.75004410957035,2043.5992736431995) translate(-391.75004410957035,-2043.5992736431995)"><path fill="black" stroke="none" paint-order="stroke fill markers" d=" M 406.4098419429037 2036.2693747265328 L 391.75004410957035 2043.5992736431995 L 406.4098419429037 2050.929172559866 Z"/></g></g><g><g><rect fill="white" stroke="none" x="495.1674087919857" y="2069.9869097431992" width="114.19664037917968" height="22.86928462"/></g><text fill="black" stroke="none" font-family="sans-serif" font-size="11pt" font-style="normal" font-weight="normal" text-decoration="normal" x="497.8061724019857" y="2085.819491403199" text-anchor="start" dominant-baseline="alphabetic" xml:space="preserve">getScreenings()</text></g><g><path fill="none" stroke="black" paint-order="fill stroke markers" d=" M 391.75004410957035 2092.8561943631994 L 698.2975335942474 2092.8561943631994" stroke-miterlimit="10" stroke-width="1.4659797833333332" stroke-dasharray=""/><g transform="translate(712.7814138535807,2092.8561943631994) translate(-712.7814138535807,-2092.8561943631994)"><path fill="black" stroke="none" paint-order="stroke fill markers" d=" M 698.1216160202474 2085.526295446533 L 712.7814138535807 2092.8561943631994 L 698.1216160202474 2100.186093279866 Z"/></g></g><g><g><rect fill="white" stroke="none" x="488.90758976122396" y="2119.243830463199" width="126.71627844070312" height="22.86928462"/></g><text fill="black" stroke="none" font-family="sans-serif" font-size="11pt" font-style="normal" font-weight="normal" text-decoration="normal" x="491.546353371224" y="2135.076412123199" text-anchor="start" dominant-baseline="alphabetic" xml:space="preserve">returnscreenings</text></g><g><path fill="none" stroke="black" paint-order="fill stroke markers" d=" M 712.7814138535807 2142.1131150831993 L 406.2339243689037 2142.1131150831993" stroke-miterlimit="10" stroke-width="1.4659797833333332" stroke-dasharray="7.0367029599999995"/><g transform="translate(391.75004410957035,2142.1131150831993) translate(-391.75004410957035,-2142.1131150831993)"><path fill="black" stroke="none" paint-order="stroke fill markers" d=" M 406.4098419429037 2134.783216166533 L 391.75004410957035 2142.1131150831993 L 406.4098419429037 2149.443013999866 Z"/></g></g><g><g><rect fill="white" stroke="none" x="545.2290260215756" y="2168.500751183199" width="5.27752722" height="22.86928462"/></g><text fill="black" stroke="none" font-family="sans-serif" font-size="11pt" font-style="normal" font-weight="normal" text-decoration="normal" x="547.8677896315755" y="2184.333332843199" text-anchor="start" dominant-baseline="alphabetic" xml:space="preserve"></text></g><g><path fill="none" stroke="black" paint-order="fill stroke markers" d=" M 391.75004410957035 2191.3700358031992 L 689.5016548942474 2191.3700358031992" stroke-miterlimit="10" stroke-width="1.4659797833333332" stroke-dasharray="7.0367029599999995"/><g transform="translate(703.9855351535807,2191.3700358031992) translate(-703.9855351535807,-2191.3700358031992)"><path fill="black" stroke="none" paint-order="stroke fill markers" d=" M 689.3257373202474 2184.0401368865328 L 703.9855351535807 2191.3700358031992 L 689.3257373202474 2198.6999347198657 Z"/></g></g><g><g><rect fill="white" stroke="none" x="536.4331473215756" y="2217.757671903199" width="5.27752722" height="22.86928462"/></g><text fill="black" stroke="none" font-family="sans-serif" font-size="11pt" font-style="normal" font-weight="normal" text-decoration="normal" x="539.0719109315755" y="2233.590253563199" text-anchor="start" dominant-baseline="alphabetic" xml:space="preserve"></text></g><g><path fill="none" stroke="black" paint-order="fill stroke markers" d=" M 695.1896564535807 2240.626956523199 L 397.43804566890367 2240.626956523199" stroke-miterlimit="10" stroke-width="1.4659797833333332" stroke-dasharray="7.0367029599999995"/><g transform="translate(382.95416540957035,2240.626956523199) translate(-382.95416540957035,-2240.626956523199)"><path fill="black" stroke="none" paint-order="stroke fill markers" d=" M 397.6139632429037 2233.2970576065327 L 382.95416540957035 2240.626956523199 L 397.6139632429037 2247.9568554398656 Z"/></g></g><g><g><rect fill="white" stroke="none" x="192.3609196007422" y="2267.014592623199" width="5.27752722" height="22.86928462"/></g><text fill="black" stroke="none" font-family="sans-serif" font-size="11pt" font-style="normal" font-weight="normal" text-decoration="normal" x="194.9996832107422" y="2282.847174283199" text-anchor="start" dominant-baseline="alphabetic" xml:space="preserve"></text></g><g><path fill="none" stroke="black" paint-order="fill stroke markers" d=" M 365.36240800957034 2289.883877243199 L 39.1208386712474 2289.883877243199" stroke-miterlimit="10" stroke-width="1.4659797833333332" stroke-dasharray="7.0367029599999995"/><g transform="translate(24.636958411914062,2289.883877243199) translate(-24.636958411914062,-2289.883877243199)"><path fill="black" stroke="none" paint-order="stroke fill markers" d=" M 39.296756245247394 2282.5539783265326 L 24.636958411914062 2289.883877243199 L 39.296756245247394 2297.2137761598656 Z"/></g></g><g><g/><path fill="none" stroke="black" paint-order="fill stroke markers" d=" M 642.4143842535807 615.3596738519999 L 1507.4962259228516 615.3596738519999 L 1507.4962259228516 734.9836241719998 L 642.4143842535807 734.9836241719998 L 642.4143842535807 615.3596738519999 Z" stroke-miterlimit="10" stroke-width="2.5131082" stroke-dasharray=""/><path fill="white" stroke="black" paint-order="fill stroke markers" d=" M 642.4143842535807 615.3596738519999 L 642.4143842535807 636.4697827319999 L 751.1394182186198 636.4697827319999 L 761.6944726586198 625.914728292 L 761.6944726586198 615.3596738519999 L 642.4143842535807 615.3596738519999" stroke-miterlimit="10" stroke-width="2.5131082" stroke-dasharray=""/><text fill="black" stroke="none" font-family="sans-serif" font-size="8.8pt" font-style="normal" font-weight="bold" text-decoration="normal" x="660.0061416535807" y="629.4330797719999" text-anchor="start" dominant-baseline="alphabetic" xml:space="preserve">expandable-</text><text fill="black" stroke="none" font-family="sans-serif" font-size="8.8pt" font-style="normal" font-weight="bold" text-decoration="normal" x="779.2862300586198" y="629.4330797719999" text-anchor="start" dominant-baseline="alphabetic" xml:space="preserve">[seediagrams03-SchedulePersistentScreeningACE(1)(runningtimeofmovieislongerthanscheduledscreeningtime)]</text></g><g><g/><path fill="none" stroke="black" paint-order="fill stroke markers" d=" M 642.4143842535807 761.3712602719999 L 1260.4802957470704 761.3712602719999 L 1260.4802957470704 880.9952105919998 L 642.4143842535807 880.9952105919998 L 642.4143842535807 761.3712602719999 Z" stroke-miterlimit="10" stroke-width="2.5131082" stroke-dasharray=""/><path fill="white" stroke="black" paint-order="fill stroke markers" d=" M 642.4143842535807 761.3712602719999 L 642.4143842535807 782.4813691519998 L 751.1394182186198 782.4813691519998 L 761.6944726586198 771.9263147119999 L 761.6944726586198 761.3712602719999 L 642.4143842535807 761.3712602719999" stroke-miterlimit="10" stroke-width="2.5131082" stroke-dasharray=""/><text fill="black" stroke="none" font-family="sans-serif" font-size="8.8pt" font-style="normal" font-weight="bold" text-decoration="normal" x="660.0061416535807" y="775.4446661919999" text-anchor="start" dominant-baseline="alphabetic" xml:space="preserve">expandable-</text><text fill="black" stroke="none" font-family="sans-serif" font-size="8.8pt" font-style="normal" font-weight="bold" text-decoration="normal" x="779.2862300586198" y="775.4446661919999" text-anchor="start" dominant-baseline="alphabetic" xml:space="preserve">[seediagram03-SchedulePersistentScreeningACE(2)(doublescreening)]</text></g><g><g/><path fill="none" stroke="black" paint-order="fill stroke markers" d=" M 1489.9044685228516 1162.4633289919998 L 2250.844949610547 1162.4633289919998 L 2250.844949610547 1259.2179946919998 L 1489.9044685228516 1259.2179946919998 L 1489.9044685228516 1162.4633289919998 Z" stroke-miterlimit="10" stroke-width="2.5131082" stroke-dasharray=""/><path fill="white" stroke="black" paint-order="fill stroke markers" d=" M 1489.9044685228516 1162.4633289919998 L 1489.9044685228516 1183.5734378719999 L 1598.6295024878907 1183.5734378719999 L 1609.1845569278908 1173.0183834319998 L 1609.1845569278908 1162.4633289919998 L 1489.9044685228516 1162.4633289919998" stroke-miterlimit="10" stroke-width="2.5131082" stroke-dasharray=""/><text fill="black" stroke="none" font-family="sans-serif" font-size="8.8pt" font-style="normal" font-weight="bold" text-decoration="normal" x="1507.4962259228516" y="1176.536734912" text-anchor="start" dominant-baseline="alphabetic" xml:space="preserve">expandable-</text><text fill="black" stroke="none" font-family="sans-serif" font-size="8.8pt" font-style="normal" font-weight="bold" text-decoration="normal" x="1626.7763143278908" y="1176.536734912" text-anchor="start" dominant-baseline="alphabetic" xml:space="preserve">[[see02-getMovieExpandedfordetailsofthegetMoviefunctionality]]</text></g></g><g/><g/><g/><g/><g/><g/><g/><g/><g/><g/></g></svg>