<svg version="1.1" xmlns="http://www.w3.org/2000/svg" xmlns:xlink="http://www.w3.org/1999/xlink" width="1623" height="1839"><desc>actor%20Staff%0Aboundary%20Alert%0Aboundary%20StaffUI%0A%0Acontrol%20ManagementSystem%0Aparticipant%20Cinema%0Aentity%20Screening%20(current)%0Aentity%20Screening%20(selected)%0Aparticipant%20ScreeningMapper%0Adatabase%20Database%0AStaff-%3EStaffUI%3AmousePressed(x%20%3A%20Integer%2C%20y%20%3A%20Integer)%0Aactivate%20StaffUI%0A%0AStaffUI-%3EStaffUI%3Asn%20%3A%3D%20yToScreen(y%20%3A%20Integer)%0AStaffUI-%3EStaffUI%3Atime%20%3A%3D%20xToTime(x%20%3A%20Integer)%0AStaffUI-%3EManagementSystem%3AselectScreening(sn%20%3A%20String%2C%20time%20%3A%20LocalTime)%0Aactivate%20ManagementSystem%0A%0Aloop%20for%20each%20current%20Screening%0AManagementSystem-%3EScreening%20(current)%3AgetScreenName()%0AManagementSystem-%3EScreening%20(current)%3AgetTime()%0Aend%0AManagementSystem-%3EManagementSystem%3AnotifyObservers()%0Aactivate%20ManagementSystem%0AManagementSystem-%3EStaffUI%3Aupdate()%0Adeactivate%20ManagementSystem%0A%0AManagementSystem--%3EStaffUI%3A%0Adeactivate%20ManagementSystem%0AStaffUI--%3EStaff%3A%0Adeactivate%20StaffUI%0Aactivate%20Staff%0AStaff-%3EStaffUI%3AcancelScreening()%0Adeactivate%20Staff%0Aactivate%20StaffUI%0AStaffUI-%3EManagementSystem%3AcancelSelected()%0Aactivate%20ManagementSystem%0A%0AManagementSystem-%3EManagementSystem%3AobserverMessage(s%20%3A%20String%2C%20true%20%3A%20Boolean)%0Aactivate%20ManagementSystem%0AManagementSystem-%3EStaffUI%3Amessage(message%20%3A%20String%2C%20true%20%3A%20Boolean)%0Aactivate%20StaffUI%0AStaffUI-%3E*Alert%3AAlert(%20confirmation%20%3A%20AlertType)%0Aactivate%20Alert%0AAlert--%3EStaffUI%3A%0Adeactivate%20Alert%0A%0AStaffUI-%3EAlert%3AshowAndWait()%3B%0Aactivate%20Alert%0AAlert-%3EStaff%3A%0Aactivate%20Staff%0AStaff--%3EAlert%3A%0Adeactivate%20Staff%0Anote%20over%20Alert%3Auser%20selects%20OK%0AAlert--%3EStaffUI%3Areturn%20true%0Adeactivate%20Alert%0AStaffUI--%3EManagementSystem%3Areturn%20true%0Adeactivate%20StaffUI%0A%0Aexpandable-%20see%20diagram%2004%20Cancel%20Screening%20ACE%20(sold%20screening)%0A%0AManagementSystem-%3EManagementSystem%3AcheckSold(time%20%3A%20LocalTime%2C%20screenName%20%3A%20String%2C%20sg%20%3A%20PersistentScreening)%0Aend%20%0A%0AManagementSystem-%3ECinema%3AcancelScreening(selectedScreening%20%3A%20Screening)%0Aactivate%20Cinema%0ACinema-%3EScreeningMapper%3AdeleteScreening(sg%20%3A%20Screening)%0Aactivate%20ScreeningMapper%0AScreeningMapper-%3EScreeningMapper%3AperformUpdate(sql%20%3A%20String)%0Aactivate%20ScreeningMapper%0AScreeningMapper-%3EDatabase%3AexecuteUpdate(sql%20%3A%20String)%0AScreeningMapper--%3EScreeningMapper%3A%0Adeactivate%20ScreeningMapper%0AScreeningMapper--%3ECinema%3A%0Adeactivate%20ScreeningMapper%0ACinema--%3EManagementSystem%3A%0Adeactivate%20Cinema%0Aexpandable%E2%88%92%20see%2001%20-%20Display%20Screening%20BCE%0AManagementSystem-%3EManagementSystem%3AnotifyObservers()%20%20%20%20%20%20%20%20%20%20%20%20%20%20%20%20%20%20%20%20%20%20%20%20%0Aend%0AManagementSystem--%3EManagementSystem%3A%0Adeactivate%20ManagementSystem%0AManagementSystem--%3EStaffUI%3A%0Adeactivate%20ManagementSystem%0A%0AStaffUI--%3EStaff%3A%0Adeactivate%20StaffUI%0A</desc><defs/><g><g/><g/><g/><g/><g/><g/><g/><g/><g/><g/><g/><g/><g/><g/><g/><g/><g/><g/><g/><g/><g/><g/><g/><g/><g/><g/><g/><g/><g/><g/><g/><g/><g/><g/><g/><g/><g/><g/><g><rect fill="white" stroke="none" x="0" y="0" width="1623" height="1839"/></g><g/><g><path fill="none" stroke="black" paint-order="fill stroke markers" d=" M 18.1258913 75.19219734400001 L 18.1258913 1839.4444159080006" stroke-miterlimit="10" stroke-width="1.1518412583333333" stroke-dasharray="10.632380846153845,4.607365033333333"/><path fill="none" stroke="black" paint-order="fill stroke markers" d=" M 142.39502465833334 835.9603116479999 L 142.39502465833334 1839.4444159080006" stroke-miterlimit="10" stroke-width="1.1518412583333333" stroke-dasharray="10.632380846153845,4.607365033333333"/><path fill="none" stroke="black" paint-order="fill stroke markers" d=" M 366.7859640445 75.19219734400001 L 366.7859640445 1839.4444159080006" stroke-miterlimit="10" stroke-width="1.1518412583333333" stroke-dasharray="10.632380846153845,4.607365033333333"/><path fill="none" stroke="black" paint-order="fill stroke markers" d=" M 645.8926753986666 75.19219734400001 L 645.8926753986666 1839.4444159080006" stroke-miterlimit="10" stroke-width="1.1518412583333333" stroke-dasharray="10.632380846153845,4.607365033333333"/><path fill="none" stroke="black" paint-order="fill stroke markers" d=" M 1075.8675223945 75.19219734400001 L 1075.8675223945 1839.4444159080006" stroke-miterlimit="10" stroke-width="1.1518412583333333" stroke-dasharray="10.632380846153845,4.607365033333333"/><path fill="none" stroke="black" paint-order="fill stroke markers" d=" M 1170.71344614675 75.19219734400001 L 1170.71344614675 1839.4444159080006" stroke-miterlimit="10" stroke-width="1.1518412583333333" stroke-dasharray="10.632380846153845,4.607365033333333"/><path fill="none" stroke="black" paint-order="fill stroke markers" d=" M 1282.05311937175 75.19219734400001 L 1282.05311937175 1839.4444159080006" stroke-miterlimit="10" stroke-width="1.1518412583333333" stroke-dasharray="10.632380846153845,4.607365033333333"/><path fill="none" stroke="black" paint-order="fill stroke markers" d=" M 1404.729365389625 75.19219734400001 L 1404.729365389625 1839.4444159080006" stroke-miterlimit="10" stroke-width="1.1518412583333333" stroke-dasharray="10.632380846153845,4.607365033333333"/><path fill="none" stroke="black" paint-order="fill stroke markers" d=" M 1588.6994432562917 75.19219734400001 L 1588.6994432562917 1839.4444159080006" stroke-miterlimit="10" stroke-width="1.1518412583333333" stroke-dasharray="10.632380846153845,4.607365033333333"/></g><g><g><path fill="white" stroke="black" paint-order="fill stroke markers" d=" M 26.004485507 16.724735071000005 A 7.878594207 7.878594207 0 1 1 26.004481567703223 16.7168564781061 M 18.1258913 24.603329278000004 L 18.1258913 41.4662853 M 8.173982828 30.685051122000004 L 28.077799772 30.685051122000004 M 18.1258913 41.4662853 L 8.173982828 57.22347371400001 M 18.1258913 41.4662853 L 28.077799772 57.22347371400001" stroke-miterlimit="10" stroke-width="2.3497561670000002" stroke-dasharray=""/></g><g><g/><text fill="black" stroke="none" font-family="sans-serif" font-size="8pt" font-style="normal" font-weight="normal" text-decoration="normal" x="6.911047549999999" y="71.045568814" text-anchor="start" dominant-baseline="alphabetic" xml:space="preserve">Staff</text></g><g><path fill="white" stroke="black" paint-order="fill stroke markers" d=" M 394.222822818 35.52278440700001 A 20.5258112235 20.5258112235 0 1 1 394.22281255509523 35.50225859919747 M 340.52398335450005 13.822095100000011 L 340.52398335450005 57.22347371400001 M 339.34910527100004 35.52278440700001 L 353.171200371 35.52278440700001" stroke-miterlimit="10" stroke-width="2.3497561670000002" stroke-dasharray=""/></g><g><g/><text fill="black" stroke="none" font-family="sans-serif" font-size="8pt" font-style="normal" font-weight="normal" text-decoration="normal" x="350.0711202945" y="71.045568814" text-anchor="start" dominant-baseline="alphabetic" xml:space="preserve">StaffUI</text></g><g><path fill="white" stroke="black" paint-order="fill stroke markers" d=" M 666.4184866221666 35.52278440700001 A 20.5258112235 20.5258112235 0 1 1 666.4184763592618 35.50225859919747 M 643.1282563786666 14.99697318350001 L 651.4215134386666 8.085925633500011 M 643.1282563786666 14.99697318350001 L 651.4215134386666 21.90802073350001" stroke-miterlimit="10" stroke-width="2.3497561670000002" stroke-dasharray=""/></g><g><g/><text fill="black" stroke="none" font-family="sans-serif" font-size="8pt" font-style="normal" font-weight="normal" text-decoration="normal" x="595.4527339924166" y="71.045568814" text-anchor="start" dominant-baseline="alphabetic" xml:space="preserve">ManagementSystem</text></g><path fill="none" stroke="none"/><g><path fill="white" stroke="black" paint-order="fill stroke markers" d=" M 1041.918644914125 37.87254057400001 L 1109.816399874875 37.87254057400001 L 1109.816399874875 75.19219734400001 L 1041.918644914125 75.19219734400001 L 1041.918644914125 37.87254057400001 Z" stroke-miterlimit="10" stroke-width="2.211535216" stroke-dasharray=""/></g><g><g/><text fill="black" stroke="none" font-family="sans-serif" font-size="8pt" font-style="normal" font-weight="normal" text-decoration="normal" x="1056.915618097625" y="61.370102243999995" text-anchor="start" dominant-baseline="alphabetic" xml:space="preserve">Cinema</text></g><g><path fill="white" stroke="black" paint-order="fill stroke markers" d=" M 1191.23925737025 33.64297947340001 A 20.5258112235 20.5258112235 0 1 1 1191.2392471073451 33.62245366559747 M 1149.0127568397497 56.04859563050001 L 1192.41413545375 56.04859563050001" stroke-miterlimit="10" stroke-width="2.3497561670000002" stroke-dasharray=""/></g><g><g/><text fill="black" stroke="none" font-family="sans-serif" font-size="8pt" font-style="normal" font-weight="normal" text-decoration="normal" x="1123.638494974875" y="71.045568814" text-anchor="start" dominant-baseline="alphabetic" xml:space="preserve">Screening (current)</text></g><g><path fill="white" stroke="black" paint-order="fill stroke markers" d=" M 1302.5789305952499 33.64297947340001 A 20.5258112235 20.5258112235 0 1 1 1302.5789203323452 33.62245366559747 M 1260.35243006475 56.04859563050001 L 1303.75380867875 56.04859563050001" stroke-miterlimit="10" stroke-width="2.3497561670000002" stroke-dasharray=""/></g><g><g/><text fill="black" stroke="none" font-family="sans-serif" font-size="8pt" font-style="normal" font-weight="normal" text-decoration="normal" x="1231.610492418625" y="71.045568814" text-anchor="start" dominant-baseline="alphabetic" xml:space="preserve">Screening (selected)</text></g><path fill="none" stroke="none"/><g><path fill="white" stroke="black" paint-order="fill stroke markers" d=" M 1346.317841424875 37.87254057400001 L 1463.140889354375 37.87254057400001 L 1463.140889354375 75.19219734400001 L 1346.317841424875 75.19219734400001 L 1346.317841424875 37.87254057400001 Z" stroke-miterlimit="10" stroke-width="2.211535216" stroke-dasharray=""/></g><g><g/><text fill="black" stroke="none" font-family="sans-serif" font-size="8pt" font-style="normal" font-weight="normal" text-decoration="normal" x="1361.314814608375" y="61.370102243999995" text-anchor="start" dominant-baseline="alphabetic" xml:space="preserve">ScreeningMapper</text></g><g><path fill="white" stroke="black" paint-order="fill stroke markers" d=" M 1568.5191844102917 48.10089094800001 L 1568.5191844102917 19.074491238000007 L 1608.8797021022917 19.074491238000007 L 1608.8797021022917 48.10089094800001" stroke-miterlimit="10" stroke-width="2.3497561670000002" stroke-dasharray=""/><path fill="white" stroke="black" paint-order="fill stroke markers" d=" M 1608.8797021022917 18.065478295700007 L 1608.8786930977578 18.15670260293715 L 1608.8756661850557 18.247917787819585 L 1608.8706216668743 18.339114728904843 L 1608.8635600476612 18.430284306574812 L 1608.8544820335721 18.521417403947694 L 1608.8433885324011 18.612504907789702 L 1608.8302806534891 18.703537709426353 L 1608.815159707613 18.794506705653347 L 1608.7980272068548 18.885402799646865 L 1608.7788848644504 18.976216901873258 L 1608.757734594618 19.066939930997982 L 1608.7345785123669 19.15756281479372 L 1608.709418933286 19.248076491047623 L 1608.6822583733124 19.338471908467483 L 1608.6530995484795 19.42874002758689 L 1608.6219453746453 19.518871821669155 L 1608.5887989672012 19.608858277609983 L 1608.5536636407605 19.698690396838764 L 1608.5165429088265 19.788359196218437 L 1608.4774404834413 19.877855708943788 L 1608.4363602748151 19.967170985438123 L 1608.3933063909344 20.05629609424822 L 1608.3482831371518 20.145222122937476 L 1608.3012950157552 20.23394017897712 L 1608.2523467255173 20.322441390635486 L 1608.2014431612265 20.41071690786515 L 1608.1485894131968 20.498757903187958 L 1608.093790766759 20.586555572577744 L 1608.0370527017321 20.674101136340735 L 1607.9783808918753 20.7613858399935 L 1607.9177812043206 20.848400955138427 L 1607.8552596989864 20.935137780336497 L 1607.790822627971 21.021587641977483 L 1607.724476434928 21.107741895147257 L 1607.656227754421 21.193591924492296 L 1607.5860834112616 21.279129145081207 L 1607.5140504198255 21.364345003263217 L 1607.4401359833519 21.449230977523516 L 1607.3643474932228 21.533778579335415 L 1607.286692528224 21.617979354009194 L 1607.2071788537874 21.701824881537547 L 1607.125814421214 21.785306777437597 L 1607.0426073668793 21.868416693589317 L 1606.9575660114197 21.951146319070357 L 1606.8706988588995 22.033487380987104 L 1606.7820145959615 22.115431645301985 L 1606.6915220909586 22.196970917656856 L 1606.5992303930655 22.278097044192428 L 1606.5051487313751 22.35880191236366 L 1606.4092865139753 22.43907745175098 L 1606.311653327008 22.518915634867348 L 1606.21225893371 22.598308477960988 L 1606.1111132734386 22.677248041813744 L 1606.008226460675 22.75572643253502 L 1605.903608784015 22.83373580235114 L 1605.797270705139 22.911268350390124 L 1605.689222857766 22.988316323461788 L 1605.5794760465913 23.06487201683303 L 1605.468041246204 23.140927774998303 L 1605.3549295999917 23.216475992445172 L 1605.2401524190243 23.291509114414854 L 1605.1237211809246 23.366019637657672 L 1605.0056475287195 23.4400001111834 L 1604.8859432696752 23.51344313700633 L 1604.7646203741185 23.586341370885087 L 1604.6416909742377 23.658687523057033 L 1604.5171673628702 23.73047435896723 L 1604.3910619922733 23.801694699991916 L 1604.2633874728792 23.872341424156335 L 1604.1341565720336 23.942407466846948 L 1604.0033822127184 24.011885821517872 L 1603.8710774722608 24.080769540391536 L 1603.7372555810246 24.149051735153456 L 1603.6019299210873 24.216725577641057 L 1603.4651140249023 24.283784300526488 L 1603.3268215739452 24.350221197993342 L 1603.1870663973457 24.416029626407234 L 1603.0458624705052 24.481203004980163 L 1602.9032239136984 24.54573481642858 L 1602.7591649906624 24.609618607625126 L 1602.6137001071693 24.67284799024391 L 1602.4668438095864 24.73541664139936 L 1602.3186107834208 24.797318304278505 L 1602.169015851852 24.858546788766642 L 1602.018073974248 24.919095972066344 L 1601.8658002446712 24.978959799309735 L 1601.7122098903674 25.038132284163982 L 1601.5573182702442 25.09660750942991 L 1601.4011408733343 25.154379627633716 L 1601.2436933172476 25.21144286161173 L 1601.0849913466081 25.267791505088102 L 1600.925050831481 25.323419923245446 L 1600.7638877657844 25.378322553288296 L 1600.6015182656904 25.432493904999404 L 1600.4379585680138 25.48592856128874 L 1600.2732250285883 25.53862117873521 L 1600.1073341206302 25.59056648812097 L 1599.940302433092 25.641759294958376 L 1599.7721466690039 25.692194480009405 L 1599.6028836438015 25.741866999797576 L 1599.4325302836464 25.790771887112307 L 1599.261103623733 25.838904251505618 L 1599.0886208065842 25.886259279781186 L 1598.9150990803378 25.932832236475637 L 1598.7405557970221 25.978618464332122 L 1598.5650084108202 26.023613384766 L 1598.3884744763236 26.06781249832273 L 1598.2109716467796 26.11121138512779 L 1598.0325176723225 26.153805705328658 L 1597.8531303982015 26.195591199528817 L 1597.6728277629943 26.236563689213664 L 1597.4916277968143 26.276719077168373 L 1597.3095486195068 26.316053347887618 L 1597.1266084388383 26.354562567977098 L 1596.9428255486741 26.392242886546896 L 1596.7582183271502 26.429090535596558 L 1596.5728052348347 26.46510183039188 L 1596.3866048128825 26.5002731698334 L 1596.1996356811806 26.534601036816476 L 1596.0119165364863 26.568081998583022 L 1595.8234661505578 26.60071270706476 L 1595.6343033682763 26.63248989921803 L 1595.444447105763 26.663410397350102 L 1595.2539163484853 26.693471109436928 L 1595.0627301493605 26.722669029432353 L 1594.870907626849 26.7510012375687 L 1594.6784679630434 26.77846490064878 L 1594.4854304017497 26.805057272329158 L 1594.291814246563 26.830775693394834 L 1594.0976388589377 26.855617592025126 L 1593.9029236562506 26.879580484050884 L 1593.7076881098596 26.90266197320286 L 1593.5119517431567 26.924859751351384 L 1593.3157341296157 26.946171598737138 L 1593.1190548908341 26.96659538419314 L 1592.9219336945723 26.986129065357865 L 1592.7243902527853 27.00477068887948 L 1592.5264443196527 27.022518390611154 L 1592.3281156896028 27.03937039579752 L 1592.1294241953337 27.055325019252088 L 1591.930389705829 27.070380665525818 L 1591.7310321243715 27.084535829066628 L 1591.5313713865537 27.097789094369954 L 1591.3314274582829 27.110139136120317 L 1591.131220333785 27.121584719323828 L 1590.930770033606 27.132124699431706 L 1590.7300966026085 27.141758022454724 L 1590.5292201079687 27.15048372506861 L 1590.3281606371686 27.15830093471037 L 1590.1269382959877 27.165208869665555 L 1589.9255732064923 27.17120683914643 L 1589.7240855050236 27.176294243361042 L 1589.522495340184 27.180470573573206 L 1589.320822870822 27.18373541215339 L 1589.119088264016 27.186088432620444 L 1588.9173116930592 27.18752939967429 L 1588.7155133354402 27.188058169219428 L 1588.5137133708267 27.187674688379335 L 1588.3119319790471 27.186378995501777 L 1588.1101893380721 27.184171220154965 L 1587.908505621998 27.181051583114595 L 1587.7069009990282 27.17702039634177 L 1587.5053956294569 27.172078062951805 L 1587.3040096636535 27.166225077173927 L 1587.1027632400462 27.159462024301828 L 1586.9016764831101 27.15178958063516 L 1586.7007695013533 27.143208513411906 L 1586.5000623853061 27.13371968073163 L 1586.2995752055135 27.12332403146969 L 1586.099328010526 27.112022605182354 L 1585.8993408248964 27.099816532002833 L 1585.6996336471764 27.086707032528267 L 1585.5002264479176 27.072695417697688 L 1585.3011391676735 27.057783088660898 L 1585.1023917150064 27.041971536638375 L 1584.904003964496 27.025262342772145 L 1584.7059957547517 27.007657177967666 L 1584.50838688643 26.98915780272675 L 1584.3111971202525 26.96976606697151 L 1584.1144461750318 26.94948390985936 L 1583.9181537256984 26.928313359589104 L 1583.7223394013338 26.906256533198132 L 1583.527022783207 26.883315636350694 L 1583.3322234028171 26.859492963117372 L 1583.13796073994 26.834790895745627 L 1582.94425422068 26.809211904421616 L 1582.7511232155275 26.78275854702315 L 1582.5585870374223 26.755433468863927 L 1582.3666649398215 26.727239402428996 L 1582.175376114775 26.6981791671015 L 1581.9847396910059 26.668255668880757 L 1581.794774731998 26.637471900091654 L 1581.6055002340886 26.605830939085415 L 1581.4169351245696 26.573335949931778 L 1581.2290982597951 26.53999018210257 L 1581.0420084232953 26.505796970146797 L 1580.8556843238973 26.470759733357152 L 1580.6701445938563 26.43488197542812 L 1580.4854077869902 26.398167284105593 L 1580.3014923768262 26.360619330828115 L 1580.118416754752 26.32224187035971 L 1579.936199228177 26.28303874041446 L 1579.7548580187022 26.243013861272683 L 1579.5744112602972 26.20217123538894 L 1579.3948769974877 26.160514946991775 L 1579.2162731835504 26.11804916167533 L 1579.0386176787176 26.07477812598274 L 1578.8619282483921 26.03070616698151 L 1578.6862225613693 25.985837691830824 L 1578.5115181880717 25.940177187340804 L 1578.3378325987912 25.893729219523845 L 1578.1651831619417 25.846498433138024 L 1577.9935871423231 25.798489551222623 L 1577.8230616993942 25.74970737462582 L 1577.6536238855576 25.700156781524633 L 1577.4852906444532 25.64984272693707 L 1577.3180788092648 25.59877024222667 L 1577.1520051010368 25.546944434599336 L 1576.9870861270015 25.49437048659265 L 1576.8233383789186 25.441053655557596 L 1576.660778231427 25.386999273132844 L 1576.4994219404057 25.3322127447116 L 1576.339285641349 25.27669954890105 L 1576.180385347754 25.220465236974505 L 1576.0227369495174 25.163515432316306 L 1575.8663562113475 25.105855829859454 L 1575.7112587711879 25.04749219551615 L 1575.5574601386531 24.98843036560119 L 1575.4049756934787 24.928676246248344 L 1575.253820683982 24.86823581281976 L 1575.1040102255376 24.807115109308405 L 1574.955559299067 24.74532024773371 L 1574.8084827495388 24.68285740753032 L 1574.6627952844856 24.61973283493021 L 1574.5185114725325 24.555952842338044 L 1574.3756457419402 24.49152380769992 L 1574.234212379163 24.42645217386562 L 1574.094225527419 24.360744447944292 L 1573.9556991852771 24.294407200653783 L 1573.8186472052557 24.227447065663533 L 1573.683083292439 24.159870738931243 L 1573.549021003105 24.09168497803327 L 1573.416473743371 24.022896601488892 L 1573.2854547678526 23.95351248807843 L 1573.155977178338 23.883539576155414 L 1573.0280539224784 23.812984862952717 L 1572.9016977924928 23.741855403882866 L 1572.7769214238886 23.6701583118325 L 1572.6537372941991 23.597900756451068 L 1572.5321577217344 23.5250899634339 L 1572.4121948643506 23.451733213799617 L 1572.293860718233 23.377837843162055 L 1572.1771671166982 23.303411240996702 L 1572.0621257290088 23.228460849901744 L 1571.9487480592077 23.15299416485384 L 1571.8370454449673 23.077018732458605 L 1571.7270290564563 23.00054215019596 L 1571.6187098952216 22.923572065660405 L 1571.512098793089 22.846116175796254 L 1571.4072064110803 22.768182226127944 L 1571.3040432383457 22.6897780099855 L 1571.202619591117 22.610911367725194 L 1571.1029456116737 22.53159018594554 L 1571.0050312673316 22.451822396698603 L 1570.908886349443 22.37161597669684 L 1570.8145204724196 22.29097894651542 L 1570.7219430727705 22.209919369790153 L 1570.6311634081587 22.128445352411166 L 1570.5421905564747 22.046565041712302 L 1570.4550334149299 21.9642866256564 L 1570.3697006991654 21.881618332016497 L 1570.286200942382 21.79856842755307 L 1570.2045424944856 21.715145217187356 L 1570.1247335212531 21.631357043170873 L 1570.0467820035153 21.547212284251195 L 1569.9706957363587 21.4627193548341 L 1569.896482328347 21.377886704142114 L 1569.824149200759 21.29272281536962 L 1569.7537035868472 21.207236204834516 L 1569.6851525311142 21.12143542112662 L 1569.6185028886086 21.03532904425281 L 1569.553761324239 20.948925684779006 L 1569.490934312108 20.862233982969162 L 1569.4300281348644 20.77526260792121 L 1569.3710488830752 20.688020256700185 L 1569.3140024546162 20.600515653468506 L 1569.258894554083 20.51275754861357 L 1569.2057306922195 20.424754717872737 L 1569.1545161853678 20.336515961455746 L 1569.105256154936 20.2480501031647 L 1569.0579555268855 20.159365989511716 L 1569.0126190312403 20.07047248883425 L 1568.969251201612 19.98137849040829 L 1568.9278563747473 19.89209290355944 L 1568.8884386900945 19.80262465677198 L 1568.8510020893893 19.712982696796026 L 1568.8155503162604 19.62317598775288 L 1568.7820869158556 19.533213510238607 L 1568.7506152344872 19.443104260425986 L 1568.721138419297 19.352857249164913 L 1568.693659417942 19.262481501081304 L 1568.6681809782992 19.171986053674658 L 1568.6447056481918 19.0813799564143 L 1568.6232357751328 18.99067226983445 L 1568.603773506092 18.899872064628184 L 1568.5863207872796 18.80898842074035 L 1568.5708793639535 18.7180304264596 L 1568.5574507802428 18.627007177509565 L 1568.5460363789946 18.53592777613929 L 1568.5366373016398 18.44480133021301 L 1568.5292544880783 18.35363695229938 L 1568.523888676585 18.26244375876022 L 1568.520540403737 18.171230868838894 L 1568.5192100043582 18.08000740374838 L 1568.519897611488 17.98878248575917 L 1568.5226031563661 17.89756523728704 L 1568.52732636844 17.80636477998082 L 1568.5340667753928 17.71519023381025 L 1568.5428237031895 17.624050716153963 L 1568.553596276144 17.532955340887774 L 1568.5663834170086 17.4419132174733 L 1568.5811838470795 17.350933450047012 L 1568.5979960863262 17.26002513650984 L 1568.6168184535388 17.16919736761737 L 1568.6376490664961 17.07845922607082 L 1568.6604858421542 16.987819785608714 L 1568.685326496855 16.897288110099574 L 1568.7121685465531 16.8068732526355 L 1568.7410093070662 16.716584254626905 L 1568.7718458943423 16.62643014489834 L 1568.8046752247483 16.536419938785652 L 1568.8394940153785 16.446562637234447 L 1568.8762987843827 16.356867225899993 L 1568.915085851315 16.26734267424868 L 1568.9558513375011 16.177997934661075 L 1568.998591166426 16.08884194153668 L 1569.0433010641425 15.999883610400506 L 1569.0899765596982 15.911131837011538 L 1569.1386129855825 15.82259549647316 L 1569.1892054781931 15.734283442345639 L 1569.2417489783231 15.6462045057608 L 1569.2962382316662 15.558367494538897 L 1569.3526677893424 15.47078119230786 L 1569.411032008443 15.383454357624922 L 1569.471325052595 15.296395723100778 L 1569.5335408925437 15.209613994526332 L 1569.5976733067573 15.123117850002128 L 1569.6637158820479 15.036915939070532 L 1569.7316620142128 14.951016881850805 L 1569.8015049086955 14.865429268177088 L 1569.8732375812647 14.780161656739425 L 1569.946852858713 14.695222574227904 L 1570.022343379574 14.610620514479992 L 1570.0997015948583 14.526363937631164 L 1570.1789197688092 14.44246126926889 L 1570.259989979675 14.358920899590089 L 1570.3429041205022 14.27575118256211 L 1570.427653899946 14.19296043508735 L 1570.5142308430993 14.110556936171564 L 1570.6026262923392 14.028548926095976 L 1570.6928314081952 13.946944605593249 L 1570.7848371702303 13.865752135027433 L 1570.8786343779452 13.784979633577926 L 1570.9742136516975 13.704635178427559 L 1571.0715654336393 13.624726803954896 L 1571.1706799886733 13.545262500930793 L 1571.2715474054269 13.466250215719334 L 1571.3741575972424 13.387697849483194 L 1571.4785003031861 13.30961325739354 L 1571.5845650890744 13.23200424784451 L 1571.6923413485172 13.154878581672381 L 1571.801818303978 13.078243971379504 L 1571.912985007853 13.002108080363044 L 1572.025830343564 12.926478522148656 L 1572.1403430266716 12.851362859629138 L 1572.256511606003 12.776768604308145 L 1572.374324464797 12.702703215549048 L 1572.493769821866 12.629174099829003 L 1572.6148357327736 12.556188609998305 L 1572.73751009103 12.483754044545117 L 1572.8617806293012 12.411877646865625 L 1572.9876349206372 12.340566604539697 L 1573.1150603797134 12.26982804861214 L 1573.2440442640907 12.199669052879603 L 1573.3745736754875 12.130096633183188 L 1573.5066355610718 12.06111774670689 L 1573.6402167147648 11.992739291281874 L 1573.7753037785628 11.924968104696699 L 1573.911883243872 11.857810964013552 L 1574.0499414528592 11.791274584890534 L 1574.1894645998188 11.725365620910111 L 1574.3304387325527 11.660090662913756 L 1574.4728497537649 11.595456238342878 L 1574.6166834224716 11.531468810586066 L 1574.7619253554262 11.468134778332775 L 1574.9085610285565 11.405460474933456 L 1575.056575778417 11.343452167766216 L 1575.2059548036564 11.282116057610097 L 1575.3566831664966 11.221458278025008 L 1575.5087457942268 11.16148489473835 L 1575.6621274807108 11.10220190503848 L 1575.816812887908 11.043615237174969 L 1575.9727865474067 10.985730749765775 L 1576.130032861971 10.928554231211407 L 1576.2885361070998 10.87209139911607 L 1576.4482804326012 10.816347899715922 L 1576.609249864176 10.76132930731445 L 1576.7714283050145 10.707041123725045 L 1576.9347995374085 10.653488777720831 L 1577.0993472243704 10.600677624491773 L 1577.2650549112686 10.548612945109191 L 1577.431906027473 10.497299945997636 L 1577.5998838880105 10.446743758414254 L 1577.7689716952352 10.396949437935678 L 1577.9391525405076 10.347921963952459 L 1578.1104094058844 10.299666239171138 L 1578.282725165822 10.252187089123984 L 1578.4560825888884 10.20548926168643 L 1578.6304643394853 10.159577426602311 L 1578.805852979583 10.114456175016873 L 1578.982230970464 10.070130019017672 L 1579.1595806744756 10.026603391183372 L 1579.3378843567957 9.983880644140482 L 1579.5171241872044 9.941966050128107 L 1579.6972822418682 9.900863800570718 L 1579.8783405051315 9.86057800565902 L 1580.0602808713193 9.82111269393893 L 1580.243085146546 9.782471811908737 L 1580.426735050537 9.744659223624438 L 1580.6112122184545 9.707678710313356 L 1580.7964982027356 9.671533969996 L 1580.9825744749364 9.636228617116288 L 1581.1694224275845 9.60176618218008 L 1581.3570233760406 9.568150111402154 L 1581.5453585603661 9.535383766361576 L 1581.7344091471994 9.503470423665544 L 1581.9241562316395 9.472413274621731 L 1582.114580839136 9.442215424919162 L 1582.3056639273866 9.412879894317644 L 1582.4973863882421 9.384409616345788 L 1582.6897290496163 9.35680743800767 L 1582.8826726774028 9.330076119498116 L 1583.0761979774 9.304218333926707 L 1583.270285597239 9.27923666705045 L 1583.4649161283196 9.255133617015213 L 1583.6600701077512 9.231911594105915 L 1583.8557280202979 9.209572920505497 L 1584.0518703003318 9.1881198300627 L 1584.2484773337883 9.167554468068694 L 1584.445529460128 9.147878891042538 L 1584.6430069743026 9.129095066525542 L 1584.8408901287248 9.1112048728845 L 1585.0391591352443 9.09421009912387 L 1585.2377941671257 9.078112444706866 L 1585.4367753610313 9.062913519385516 L 1585.6360828190077 9.048614843039683 L 1585.835696610475 9.03521784552509 L 1586.0355967742203 9.022723866530322 L 1586.235763320394 9.011134155442866 L 1586.4361762325082 9.000449871224175 L 1586.6368154694387 8.990672082293766 L 1586.8376609674292 8.981801766422386 L 1587.038692642097 8.973839810634226 L 1587.2398903904423 8.966787011118234 L 1587.441234092858 8.960644073148481 L 1587.6427036151413 8.955411611013648 L 1587.8442788105083 8.951090147955588 L 1588.0459395216071 8.947680116117002 L 1588.2476655825349 8.945181856498236 L 1588.4494368208534 8.943595618923167 L 1588.6512330596074 8.942921562014233 L 1588.8530341193407 8.94315975317656 L 1589.0548198201157 8.944310168591237 L 1589.2565699835304 8.946372693217674 L 1589.4582644347367 8.949347120805129 L 1589.6598830044577 8.953233153913324 L 1589.861405531004 8.958030403942185 L 1590.0628118622913 8.963738391170708 L 1590.264081857854 8.970356544804925 L 1590.4651953908603 8.97788420303499 L 1590.6661323501248 8.98632061310135 L 1590.8668726421188 8.99566493137003 L 1591.0673961929804 9.00591622341699 L 1591.2676829505217 9.017073464121571 L 1591.4677128862336 9.029135537768996 L 1591.6674659972894 9.042101238161953 L 1591.8669223085446 9.055969268741208 L 1592.066061874534 9.070738242715262 L 1592.2648647814672 9.086406683199021 L 1592.463311149219 9.102973023361494 L 1592.661381133318 9.120435606582474 L 1592.8590549269309 9.138792686618187 L 1593.056312762843 9.158042427775927 L 1593.2531349154353 9.178182905097621 L 1593.4495017026563 9.199212104552322 L 1593.6453934879912 9.221127923237606 L 1593.8407906824243 9.243928169589871 L 1594.0356737463994 9.267610563603478 L 1594.2300231917723 9.292172737058763 L 1594.4238195837604 9.317612233758847 L 1594.6170435428862 9.343926509775264 L 1594.8096757469145 9.371112933702335 L 1595.0016969327858 9.399168786920328 L 1595.193087898541 9.428091263867296 L 1595.3838295052435 9.45787747231965 L 1595.5739026788915 9.488524433681365 L 1595.7632884123257 9.520029083281843 L 1595.951967767131 9.55238827068238 L 1596.139921875529 9.585598759991202 L 1596.3271319422652 9.619657230187048 L 1596.5135792464894 9.654560275451288 L 1596.6992451436263 9.690304405508478 L 1596.8841110672408 9.726886045975398 L 1597.068158530895 9.764301538718486 L 1597.2513691299955 9.802547142219648 L 1597.4337245436352 9.841619031950406 L 1597.6152065364247 9.881513300754346 L 1597.795796960316 9.92222595923783 L 1597.9754777564174 9.963752936168941 L 1598.1542309567985 10.00609007888459 L 1598.3320386862886 10.049233153705785 L 1598.5088831642627 10.093177846360998 L 1598.6847467064206 10.137919762417582 L 1598.8596117265547 10.18345442772122 L 1599.0334607383083 10.229777288843323 L 1599.2062763569254 10.276883713536382 L 1599.3780413009883 10.324768991197185 L 1599.5487383941454 10.373428333337866 L 1599.7183505668297 10.422856874064767 L 1599.8868608579655 10.473049670564997 L 1600.0542524166638 10.52400170360074 L 1600.2205085039084 10.575707878011151 L 1600.3856124942292 10.628163023221877 L 1600.5495478773646 10.681361893762105 L 1600.7122982599128 10.73529916978912 L 1600.8738473669714 10.789969457620263 L 1601.0341790437644 10.84536729027231 L 1601.1932772572575 10.90148712800816 L 1601.3511260977618 10.958323358890807 L 1601.5077097805251 11.015870299344526 L 1601.6630126473096 11.074122194723225 L 1601.8170191679578 11.133073219885913 L 1601.969713941946 11.192717479779198 L 1602.1210816999244 11.253049010026789 L 1602.271107305243 11.314061777525946 L 1602.4197757554666 11.375749681050758 L 1602.5670721838735 11.43810655186228 L 1602.7129818609442 11.501126154325393 L 1602.8574901958323 11.564802186532368 L 1603.0005827378247 11.629128280933049 L 1603.1422451777867 11.6940980049716 L 1603.2824633495918 11.759704861729757 L 1603.4212232315404 11.825942290576517 L 1603.5585109477595 11.892803667824193 L 1603.694312769592 11.96028230739078 L 1603.8286151169686 12.02837146146855 L 1603.961404559767 12.097064321198838 L 1604.0926678191533 12.166354017352914 L 1604.222391768911 12.236233621018904 L 1604.350563436753 12.306696144294676 L 1604.4771700056197 12.377734540986618 L 1604.6021988149594 12.449341707314261 L 1604.7256373619955 12.521510482620645 L 1604.8474733029761 12.594233650088377 L 1604.9676944544087 12.667503937461316 L 1605.0862887942783 12.741314017771781 L 1605.2032444632498 12.815656510073252 L 1605.3185497658537 12.890523980178447 L 1605.432193171656 12.965908941402748 L 1605.5441633164105 13.04180385531285 L 1605.6544490031963 13.11820113248061 L 1605.7630392035367 13.195093133241976 L 1605.8699230585016 13.272472168460947 L 1605.9750898797952 13.350330500298481 L 1606.0785291508228 13.42866034298628 L 1606.1802305277433 13.507453863605349 L 1606.2801838405042 13.586703182869286 L 1606.3783790938571 13.666400375912204 L 1606.4748064683586 13.746537473081217 L 1606.5694563213517 13.827106460733386 L 1606.6623191879298 13.908099282037085 L 1606.753385781884 13.989507837777682 L 1606.8426469966303 14.071323987167439 L 1606.930093906122 14.1535395486596 L 1607.0157177657409 14.236146300766524 L 1607.0995100131722 14.319135982881845 L 1607.1814622692611 14.402500296106505 L 1607.2615663388506 14.486230904078653 L 1607.3398142116 14.570319433807267 L 1607.4161980627875 14.654757476509447 L 1607.4907102540917 14.739536588451287 L 1607.5633433343555 14.824648291792245 L 1607.6340900403313 14.910084075432911 L 1607.7029432974075 14.995835395866116 L 1607.7698962203158 15.081893678031278 L 1607.8349421138196 15.168250316171896 L 1607.898074473384 15.254896674696116 L 1607.9592869858252 15.341824089040294 L 1608.0185735299435 15.429023866535433 L 1608.0759281771336 15.516487287276451 L 1608.1313451919787 15.604205604994158 L 1608.1848190328233 15.692170047929883 L 1608.2363443523282 15.780371819712634 L 1608.2859159980042 15.868802100238737 L 1608.3335290127277 15.957452046553826 L 1608.3791786352376 16.046312793737147 L 1608.422860300609 16.135375455788033 L 1608.4645696407124 16.2246311265145 L 1608.5043024846482 16.314070880423845 L 1608.5420548591649 16.40368577361522 L 1608.577822989057 16.49346684467398 L 1608.611603297541 16.583405115567835 L 1608.6433924066143 16.67349159254465 L 1608.6731871373925 16.763717267031794 L 1608.7009845104274 16.85407311653701 L 1608.7267817460047 16.944550105550636 L 1608.7505762644223 17.03513918644918 L 1608.7723656862486 17.12583130040003 L 1608.792147832559 17.216617378267376 L 1608.8099207251557 17.307488341519083 L 1608.8256825867643 17.398435103134553 L 1608.8394318412115 17.48944856851341 L 1608.8511671135836 17.580519636384963 L 1608.860887230363 17.67163919971832 L 1608.8685912195463 17.762798146633074 L 1608.8742783107405 17.8539873613105 L 1608.8779479352418 17.945197724905128 L 1608.8795997260904 18.0364201164566 M 1608.8797021022917 47.09187800570001 L 1608.8786930977578 47.18310231293715 L 1608.8756661850557 47.27431749781959 L 1608.8706216668743 47.365514438904846 L 1608.8635600476612 47.45668401657481 L 1608.8544820335721 47.547817113947694 L 1608.8433885324011 47.638904617789706 L 1608.8302806534891 47.729937419426356 L 1608.815159707613 47.82090641565335 L 1608.7980272068548 47.91180250964687 L 1608.7788848644504 48.002616611873265 L 1608.757734594618 48.09333964099798 L 1608.7345785123669 48.18396252479373 L 1608.709418933286 48.27447620104763 L 1608.6822583733124 48.36487161846748 L 1608.6530995484795 48.45513973758689 L 1608.6219453746453 48.54527153166916 L 1608.5887989672012 48.63525798760998 L 1608.5536636407605 48.72509010683876 L 1608.5165429088265 48.81475890621844 L 1608.4774404834413 48.90425541894379 L 1608.4363602748151 48.99357069543812 L 1608.3933063909344 49.082695804248225 L 1608.3482831371518 49.17162183293748 L 1608.3012950157552 49.26033988897713 L 1608.2523467255173 49.34884110063549 L 1608.2014431612265 49.43711661786516 L 1608.1485894131968 49.525157613187965 L 1608.093790766759 49.61295528257775 L 1608.0370527017321 49.70050084634074 L 1607.9783808918753 49.78778554999351 L 1607.9177812043206 49.87480066513843 L 1607.8552596989864 49.961537490336504 L 1607.790822627971 50.04798735197749 L 1607.724476434928 50.134141605147256 L 1607.656227754421 50.2199916344923 L 1607.5860834112616 50.305528855081214 L 1607.5140504198255 50.39074471326322 L 1607.4401359833519 50.47563068752352 L 1607.3643474932228 50.56017828933542 L 1607.286692528224 50.64437906400919 L 1607.2071788537874 50.72822459153755 L 1607.125814421214 50.8117064874376 L 1607.0426073668793 50.894816403589324 L 1606.9575660114197 50.97754602907036 L 1606.8706988588995 51.059887090987104 L 1606.7820145959615 51.14183135530199 L 1606.6915220909586 51.22337062765686 L 1606.5992303930655 51.304496754192435 L 1606.5051487313751 51.38520162236367 L 1606.4092865139753 51.46547716175098 L 1606.311653327008 51.545315344867355 L 1606.21225893371 51.62470818796099 L 1606.1111132734386 51.70364775181375 L 1606.008226460675 51.78212614253502 L 1605.903608784015 51.86013551235114 L 1605.797270705139 51.93766806039013 L 1605.689222857766 52.014716033461795 L 1605.5794760465913 52.09127172683303 L 1605.468041246204 52.1673274849983 L 1605.3549295999917 52.242875702445176 L 1605.2401524190243 52.31790882441486 L 1605.1237211809246 52.39241934765768 L 1605.0056475287195 52.4663998211834 L 1604.8859432696752 52.539842847006334 L 1604.7646203741185 52.612741080885094 L 1604.6416909742377 52.68508723305703 L 1604.5171673628702 52.756874068967235 L 1604.3910619922733 52.82809440999192 L 1604.2633874728792 52.89874113415634 L 1604.1341565720336 52.96880717684695 L 1604.0033822127184 53.03828553151787 L 1603.8710774722608 53.107169250391536 L 1603.7372555810246 53.175451445153456 L 1603.6019299210873 53.243125287641064 L 1603.4651140249023 53.31018401052649 L 1603.3268215739452 53.37662090799334 L 1603.1870663973457 53.44242933640724 L 1603.0458624705052 53.507602714980166 L 1602.9032239136984 53.572134526428584 L 1602.7591649906624 53.63601831762513 L 1602.6137001071693 53.699247700243916 L 1602.4668438095864 53.76181635139937 L 1602.3186107834208 53.82371801427851 L 1602.169015851852 53.884946498766645 L 1602.018073974248 53.945495682066344 L 1601.8658002446712 54.00535950930974 L 1601.7122098903674 54.064531994163985 L 1601.5573182702442 54.123007219429915 L 1601.4011408733343 54.18077933763372 L 1601.2436933172476 54.237842571611736 L 1601.0849913466081 54.294191215088105 L 1600.925050831481 54.349819633245446 L 1600.7638877657844 54.4047222632883 L 1600.6015182656904 54.45889361499941 L 1600.4379585680138 54.512328271288744 L 1600.2732250285883 54.56502088873521 L 1600.1073341206302 54.61696619812098 L 1599.940302433092 54.66815900495838 L 1599.7721466690039 54.718594190009405 L 1599.6028836438015 54.76826670979758 L 1599.4325302836464 54.817171597112306 L 1599.261103623733 54.865303961505624 L 1599.0886208065842 54.912658989781185 L 1598.9150990803378 54.95923194647564 L 1598.7405557970221 55.00501817433212 L 1598.5650084108202 55.050013094766 L 1598.3884744763236 55.09421220832273 L 1598.2109716467796 55.137611095127795 L 1598.0325176723225 55.180205415328665 L 1597.8531303982015 55.22199090952882 L 1597.6728277629943 55.26296339921367 L 1597.4916277968143 55.30311878716838 L 1597.3095486195068 55.342453057887624 L 1597.1266084388383 55.3809622779771 L 1596.9428255486741 55.418642596546896 L 1596.7582183271502 55.45549024559656 L 1596.5728052348347 55.49150154039188 L 1596.3866048128825 55.5266728798334 L 1596.1996356811806 55.56100074681648 L 1596.0119165364863 55.594481708583025 L 1595.8234661505578 55.627112417064765 L 1595.6343033682763 55.658889609218036 L 1595.444447105763 55.689810107350105 L 1595.2539163484853 55.719870819436935 L 1595.0627301493605 55.74906873943235 L 1594.870907626849 55.77740094756871 L 1594.6784679630434 55.80486461064878 L 1594.4854304017497 55.83145698232916 L 1594.291814246563 55.857175403394834 L 1594.0976388589377 55.88201730202513 L 1593.9029236562506 55.90598019405088 L 1593.7076881098596 55.92906168320286 L 1593.5119517431567 55.95125946135139 L 1593.3157341296157 55.972571308737145 L 1593.1190548908341 55.99299509419315 L 1592.9219336945723 56.01252877535787 L 1592.7243902527853 56.03117039887948 L 1592.5264443196527 56.04891810061116 L 1592.3281156896028 56.065770105797526 L 1592.1294241953337 56.081724729252095 L 1591.930389705829 56.096780375525825 L 1591.7310321243715 56.11093553906663 L 1591.5313713865537 56.12418880436996 L 1591.3314274582829 56.13653884612032 L 1591.131220333785 56.14798442932383 L 1590.930770033606 56.158524409431706 L 1590.7300966026085 56.16815773245473 L 1590.5292201079687 56.17688343506861 L 1590.3281606371686 56.184700644710375 L 1590.1269382959877 56.19160857966556 L 1589.9255732064923 56.197606549146435 L 1589.7240855050236 56.20269395336105 L 1589.522495340184 56.20687028357321 L 1589.320822870822 56.21013512215339 L 1589.119088264016 56.212488142620444 L 1588.9173116930592 56.2139291096743 L 1588.7155133354402 56.21445787921943 L 1588.5137133708267 56.21407439837934 L 1588.3119319790471 56.21277870550178 L 1588.1101893380721 56.21057093015497 L 1587.908505621998 56.2074512931146 L 1587.7069009990282 56.203420106341774 L 1587.5053956294569 56.19847777295181 L 1587.3040096636535 56.192624787173926 L 1587.1027632400462 56.18586173430183 L 1586.9016764831101 56.17818929063517 L 1586.7007695013533 56.16960822341191 L 1586.5000623853061 56.16011939073163 L 1586.2995752055135 56.14972374146969 L 1586.099328010526 56.13842231518235 L 1585.8993408248964 56.12621624200283 L 1585.6996336471764 56.113106742528274 L 1585.5002264479176 56.099095127697694 L 1585.3011391676735 56.084182798660905 L 1585.1023917150064 56.06837124663838 L 1584.904003964496 56.051662052772144 L 1584.7059957547517 56.034056887967665 L 1584.50838688643 56.01555751272676 L 1584.3111971202525 55.996165776971516 L 1584.1144461750318 55.97588361985936 L 1583.9181537256984 55.954713069589104 L 1583.7223394013338 55.93265624319813 L 1583.527022783207 55.9097153463507 L 1583.3322234028171 55.885892673117375 L 1583.13796073994 55.861190605745634 L 1582.94425422068 55.835611614421616 L 1582.7511232155275 55.80915825702316 L 1582.5585870374223 55.781833178863934 L 1582.3666649398215 55.753639112429 L 1582.175376114775 55.72457887710151 L 1581.9847396910059 55.69465537888076 L 1581.794774731998 55.66387161009166 L 1581.6055002340886 55.63223064908542 L 1581.4169351245696 55.59973565993178 L 1581.2290982597951 55.56638989210258 L 1581.0420084232953 55.5321966801468 L 1580.8556843238973 55.497159443357155 L 1580.6701445938563 55.46128168542812 L 1580.4854077869902 55.4245669941056 L 1580.3014923768262 55.387019040828115 L 1580.118416754752 55.34864158035972 L 1579.936199228177 55.30943845041446 L 1579.7548580187022 55.269413571272686 L 1579.5744112602972 55.22857094538894 L 1579.3948769974877 55.18691465699178 L 1579.2162731835504 55.14444887167533 L 1579.0386176787176 55.10117783598274 L 1578.8619282483921 55.05710587698152 L 1578.6862225613693 55.01223740183083 L 1578.5115181880717 54.96657689734081 L 1578.3378325987912 54.92012892952385 L 1578.1651831619417 54.87289814313803 L 1577.9935871423231 54.82488926122262 L 1577.8230616993942 54.77610708462583 L 1577.6536238855576 54.72655649152463 L 1577.4852906444532 54.67624243693707 L 1577.3180788092648 54.62516995222667 L 1577.1520051010368 54.57334414459934 L 1576.9870861270015 54.52077019659265 L 1576.8233383789186 54.467453365557596 L 1576.660778231427 54.41339898313285 L 1576.4994219404057 54.358612454711604 L 1576.339285641349 54.30309925890105 L 1576.180385347754 54.24686494697451 L 1576.0227369495174 54.18991514231631 L 1575.8663562113475 54.13225553985946 L 1575.7112587711879 54.073891905516156 L 1575.5574601386531 54.014830075601196 L 1575.4049756934787 53.95507595624835 L 1575.253820683982 53.89463552281976 L 1575.1040102255376 53.83351481930841 L 1574.955559299067 53.77171995773371 L 1574.8084827495388 53.70925711753032 L 1574.6627952844856 53.64613254493022 L 1574.5185114725325 53.582352552338044 L 1574.3756457419402 53.51792351769993 L 1574.234212379163 53.45285188386562 L 1574.094225527419 53.3871441579443 L 1573.9556991852771 53.320806910653786 L 1573.8186472052557 53.25384677566353 L 1573.683083292439 53.186270448931246 L 1573.549021003105 53.11808468803328 L 1573.416473743371 53.049296311488895 L 1573.2854547678526 52.97991219807844 L 1573.155977178338 52.909939286155414 L 1573.0280539224784 52.83938457295272 L 1572.9016977924928 52.76825511388287 L 1572.7769214238886 52.6965580218325 L 1572.6537372941991 52.62430046645107 L 1572.5321577217344 52.5514896734339 L 1572.4121948643506 52.47813292379962 L 1572.293860718233 52.40423755316206 L 1572.1771671166982 52.3298109509967 L 1572.0621257290088 52.25486055990175 L 1571.9487480592077 52.179393874853844 L 1571.8370454449673 52.103418442458604 L 1571.7270290564563 52.02694186019596 L 1571.6187098952216 51.94997177566041 L 1571.512098793089 51.87251588579626 L 1571.4072064110803 51.79458193612795 L 1571.3040432383457 51.7161777199855 L 1571.202619591117 51.6373110777252 L 1571.1029456116737 51.55798989594554 L 1571.0050312673316 51.47822210669861 L 1570.908886349443 51.398015686696844 L 1570.8145204724196 51.31737865651542 L 1570.7219430727705 51.23631907979016 L 1570.6311634081587 51.15484506241117 L 1570.5421905564747 51.072964751712306 L 1570.4550334149299 50.990686335656406 L 1570.3697006991654 50.9080180420165 L 1570.286200942382 50.82496813755307 L 1570.2045424944856 50.74154492718736 L 1570.1247335212531 50.65775675317087 L 1570.0467820035153 50.573611994251195 L 1569.9706957363587 50.4891190648341 L 1569.896482328347 50.40428641414212 L 1569.824149200759 50.31912252536962 L 1569.7537035868472 50.233635914834515 L 1569.6851525311142 50.14783513112663 L 1569.6185028886086 50.06172875425281 L 1569.553761324239 49.975325394779006 L 1569.490934312108 49.888633692969165 L 1569.4300281348644 49.80166231792121 L 1569.3710488830752 49.71441996670019 L 1569.3140024546162 49.626915363468505 L 1569.258894554083 49.53915725861357 L 1569.2057306922195 49.45115442787274 L 1569.1545161853678 49.362915671455745 L 1569.105256154936 49.27444981316471 L 1569.0579555268855 49.18576569951172 L 1569.0126190312403 49.09687219883425 L 1568.969251201612 49.007778200408296 L 1568.9278563747473 48.918492613559444 L 1568.8884386900945 48.82902436677198 L 1568.8510020893893 48.73938240679603 L 1568.8155503162604 48.64957569775289 L 1568.7820869158556 48.55961322023861 L 1568.7506152344872 48.46950397042599 L 1568.721138419297 48.37925695916492 L 1568.693659417942 48.28888121108131 L 1568.6681809782992 48.198385763674665 L 1568.6447056481918 48.1077796664143 L 1568.6232357751328 48.017071979834455 L 1568.603773506092 47.92627177462819 L 1568.5863207872796 47.835388130740355 L 1568.5708793639535 47.744430136459606 L 1568.5574507802428 47.65340688750957 L 1568.5460363789946 47.562327486139296 L 1568.5366373016398 47.47120104021301 L 1568.5292544880783 47.38003666229938 L 1568.523888676585 47.28884346876023 L 1568.520540403737 47.1976305788389 L 1568.5192100043582 47.10640711374838" stroke-miterlimit="10" stroke-width="2.3497561670000002" stroke-dasharray=""/></g><g><g/><text fill="black" stroke="none" font-family="sans-serif" font-size="8pt" font-style="normal" font-weight="normal" text-decoration="normal" x="1565.1552538031667" y="71.045568814" text-anchor="start" dominant-baseline="alphabetic" xml:space="preserve">Database</text></g></g><g><path fill="white" stroke="black" paint-order="fill stroke markers" d=" M 359.87491649450004 120.80511117400002 L 373.6970115945 120.80511117400002 L 373.6970115945 581.0808780039999 L 359.87491649450004 581.0808780039999 L 359.87491649450004 120.80511117400002" stroke-miterlimit="10" stroke-width="1.1518412583333333" stroke-dasharray=""/><path fill="white" stroke="black" paint-order="fill stroke markers" d=" M 638.9816278486666 272.848157274 L 652.8037229486666 272.848157274 L 652.8037229486666 542.379011724 L 638.9816278486666 542.379011724 L 638.9816278486666 272.848157274" stroke-miterlimit="10" stroke-width="1.1518412583333333" stroke-dasharray=""/><path fill="white" stroke="black" paint-order="fill stroke markers" d=" M 645.8926753986666 464.97527916399997 L 659.7147704986667 464.97527916399997 L 659.7147704986667 503.67714544399996 L 645.8926753986666 503.67714544399996 L 645.8926753986666 464.97527916399997" stroke-miterlimit="10" stroke-width="1.1518412583333333" stroke-dasharray=""/><path fill="white" stroke="black" paint-order="fill stroke markers" d=" M 11.21484375 581.0808780039999 L 25.03693885 581.0808780039999 L 25.03693885 619.7827442839999 L 11.21484375 619.7827442839999 L 11.21484375 581.0808780039999" stroke-miterlimit="10" stroke-width="1.1518412583333333" stroke-dasharray=""/><path fill="white" stroke="black" paint-order="fill stroke markers" d=" M 359.87491649450004 619.7827442839999 L 373.6970115945 619.7827442839999 L 373.6970115945 1791.0670830580007 L 359.87491649450004 1791.0670830580007 L 359.87491649450004 619.7827442839999" stroke-miterlimit="10" stroke-width="1.1518412583333333" stroke-dasharray=""/><path fill="white" stroke="black" paint-order="fill stroke markers" d=" M 638.9816278486666 658.4846105639999 L 652.8037229486666 658.4846105639999 L 652.8037229486666 1752.3652167780006 L 638.9816278486666 1752.3652167780006 L 638.9816278486666 658.4846105639999" stroke-miterlimit="10" stroke-width="1.1518412583333333" stroke-dasharray=""/><path fill="white" stroke="black" paint-order="fill stroke markers" d=" M 645.8926753986666 715.1552004739999 L 659.7147704986667 715.1552004739999 L 659.7147704986667 1695.6946268680003 L 645.8926753986666 1695.6946268680003 L 645.8926753986666 715.1552004739999" stroke-miterlimit="10" stroke-width="1.1518412583333333" stroke-dasharray=""/><path fill="white" stroke="black" paint-order="fill stroke markers" d=" M 366.7859640445 753.8570667539999 L 380.6080591445 753.8570667539999 L 380.6080591445 1120.6954707080001 L 366.7859640445 1120.6954707080001 L 366.7859640445 753.8570667539999" stroke-miterlimit="10" stroke-width="1.1518412583333333" stroke-dasharray=""/><path fill="white" stroke="black" paint-order="fill stroke markers" d=" M 135.48397710833333 835.9603116479999 L 149.30607220833335 835.9603116479999 L 149.30607220833335 874.6621779279999 L 135.48397710833333 874.6621779279999 L 135.48397710833333 835.9603116479999" stroke-miterlimit="10" stroke-width="1.1518412583333333" stroke-dasharray=""/><path fill="white" stroke="black" paint-order="fill stroke markers" d=" M 135.48397710833333 913.3640442079999 L 149.30607220833335 913.3640442079999 L 149.30607220833335 1081.993604428 L 135.48397710833333 1081.993604428 L 135.48397710833333 913.3640442079999" stroke-miterlimit="10" stroke-width="1.1518412583333333" stroke-dasharray=""/><path fill="white" stroke="black" paint-order="fill stroke markers" d=" M 11.21484375 952.0659104879999 L 25.03693885 952.0659104879999 L 25.03693885 990.7677767679999 L 11.21484375 990.7677767679999 L 11.21484375 952.0659104879999" stroke-miterlimit="10" stroke-width="1.1518412583333333" stroke-dasharray=""/><path fill="white" stroke="black" paint-order="fill stroke markers" d=" M 1068.9564748445 1274.1207263180002 L 1082.7785699444998 1274.1207263180002 L 1082.7785699444998 1542.2693712580005 L 1068.9564748445 1542.2693712580005 L 1068.9564748445 1274.1207263180002" stroke-miterlimit="10" stroke-width="1.1518412583333333" stroke-dasharray=""/><path fill="white" stroke="black" paint-order="fill stroke markers" d=" M 1397.818317839625 1312.8225925980003 L 1411.6404129396249 1312.8225925980003 L 1411.6404129396249 1503.5675049780004 L 1397.818317839625 1503.5675049780004 L 1397.818317839625 1312.8225925980003" stroke-miterlimit="10" stroke-width="1.1518412583333333" stroke-dasharray=""/><path fill="white" stroke="black" paint-order="fill stroke markers" d=" M 1404.729365389625 1369.4931825080002 L 1418.5514604896248 1369.4931825080002 L 1418.5514604896248 1446.8969150680005 L 1404.729365389625 1446.8969150680005 L 1404.729365389625 1369.4931825080002" stroke-miterlimit="10" stroke-width="1.1518412583333333" stroke-dasharray=""/><g><g><rect fill="white" stroke="none" x="94.90951150725004" y="102.83638754400002" width="188.18178478" height="17.96872363"/></g><text fill="black" stroke="none" font-family="sans-serif" font-size="8pt" font-style="normal" font-weight="normal" text-decoration="normal" x="96.98282577225004" y="115.27627313400002" text-anchor="start" dominant-baseline="alphabetic" xml:space="preserve">mousePressed(x : Integer, y : Integer)</text></g><g><path fill="none" stroke="black" paint-order="fill stroke markers" d=" M 18.1258913 120.80511117400002 L 348.4947248621667 120.80511117400002" stroke-miterlimit="10" stroke-width="1.1518412583333333" stroke-dasharray=""/><g transform="translate(359.87491649450004,120.80511117400002) translate(-359.87491649450004,-120.80511117400002)"><path fill="black" stroke="none" paint-order="stroke fill markers" d=" M 348.3565039111667 115.04590488233335 L 359.87491649450004 120.80511117400002 L 348.3565039111667 126.56431746566669 Z"/></g></g><g><g><rect fill="white" stroke="none" x="390.05315746283327" y="141.53825382400004" width="139.56801524875" height="17.96872363"/></g><text fill="black" stroke="none" font-family="sans-serif" font-size="8pt" font-style="normal" font-weight="normal" text-decoration="normal" x="392.1264717278333" y="153.97813941400005" text-anchor="start" dominant-baseline="alphabetic" xml:space="preserve">sn := yToScreen(y : Integer)</text></g><g><path fill="none" stroke="black" paint-order="fill stroke markers" d=" M 373.6970115945 159.50697745400004 L 428.9853919945 159.50697745400004 L 428.9853919945 177.47570108400004 L 385.0772032268333 177.47570108400004" stroke-miterlimit="10" stroke-width="1.1518412583333333" stroke-dasharray=""/><g transform="translate(373.6970115945,177.47570108400004) translate(-373.6970115945,-177.47570108400004)"><path fill="black" stroke="none" paint-order="stroke fill markers" d=" M 385.2154241778333 171.71649479233338 L 373.6970115945 177.47570108400004 L 385.2154241778333 183.2349073756667 Z"/></g></g><g><g><rect fill="white" stroke="none" x="390.05315746283327" y="198.20884373400003" width="137.9190894675" height="17.96872363"/></g><text fill="black" stroke="none" font-family="sans-serif" font-size="8pt" font-style="normal" font-weight="normal" text-decoration="normal" x="392.1264717278333" y="210.64872932400004" text-anchor="start" dominant-baseline="alphabetic" xml:space="preserve">time := xToTime(x : Integer)</text></g><g><path fill="none" stroke="black" paint-order="fill stroke markers" d=" M 373.6970115945 216.17756736400003 L 428.9853919945 216.17756736400003 L 428.9853919945 234.14629099400003 L 385.0772032268333 234.14629099400003" stroke-miterlimit="10" stroke-width="1.1518412583333333" stroke-dasharray=""/><g transform="translate(373.6970115945,234.14629099400003) translate(-373.6970115945,-234.14629099400003)"><path fill="black" stroke="none" paint-order="stroke fill markers" d=" M 385.2154241778333 228.38708470233337 L 373.6970115945 234.14629099400003 L 385.2154241778333 239.90549728566668 Z"/></g></g><g><g><rect fill="white" stroke="none" x="393.50868123783323" y="254.87943364400002" width="225.6612769675" height="17.96872363"/></g><text fill="black" stroke="none" font-family="sans-serif" font-size="8pt" font-style="normal" font-weight="normal" text-decoration="normal" x="395.58199550283325" y="267.31931923400003" text-anchor="start" dominant-baseline="alphabetic" xml:space="preserve">selectScreening(sn : String, time : LocalTime)</text></g><g><path fill="none" stroke="black" paint-order="fill stroke markers" d=" M 373.6970115945 272.848157274 L 627.6014362163332 272.848157274" stroke-miterlimit="10" stroke-width="1.1518412583333333" stroke-dasharray=""/><g transform="translate(638.9816278486666,272.848157274) translate(-638.9816278486666,-272.848157274)"><path fill="black" stroke="none" paint-order="stroke fill markers" d=" M 627.4632152653332 267.08895098233336 L 638.9816278486666 272.848157274 L 627.4632152653332 278.6073635656667 Z"/></g></g><g><g><rect fill="white" stroke="none" x="866.2787761420833" y="330.900956694" width="90.95961681125" height="17.96872363"/></g><text fill="black" stroke="none" font-family="sans-serif" font-size="8pt" font-style="normal" font-weight="normal" text-decoration="normal" x="868.3520904070833" y="343.340842284" text-anchor="start" dominant-baseline="alphabetic" xml:space="preserve">getScreenName()</text></g><g><path fill="none" stroke="black" paint-order="fill stroke markers" d=" M 652.8037229486666 348.869680324 L 1159.3332545144165 348.869680324" stroke-miterlimit="10" stroke-width="1.1518412583333333" stroke-dasharray=""/><g transform="translate(1170.71344614675,348.869680324) translate(-1170.71344614675,-348.869680324)"><path fill="black" stroke="none" paint-order="stroke fill markers" d=" M 1159.1950335634165 343.11047403233334 L 1170.71344614675 348.869680324 L 1159.1950335634165 354.62888661566666 Z"/></g></g><g><g><rect fill="white" stroke="none" x="886.3559245795833" y="369.602822974" width="50.80531993625" height="17.96872363"/></g><text fill="black" stroke="none" font-family="sans-serif" font-size="8pt" font-style="normal" font-weight="normal" text-decoration="normal" x="888.4292388445833" y="382.042708564" text-anchor="start" dominant-baseline="alphabetic" xml:space="preserve">getTime()</text></g><g><path fill="none" stroke="black" paint-order="fill stroke markers" d=" M 652.8037229486666 387.571546604 L 1159.3332545144165 387.571546604" stroke-miterlimit="10" stroke-width="1.1518412583333333" stroke-dasharray=""/><g transform="translate(1170.71344614675,387.571546604) translate(-1170.71344614675,-387.571546604)"><path fill="black" stroke="none" paint-order="stroke fill markers" d=" M 1159.1950335634165 381.81234031233333 L 1170.71344614675 387.571546604 L 1159.1950335634165 393.33075289566665 Z"/></g></g><g><g><rect fill="white" stroke="none" x="676.0709163669999" y="429.037831904" width="88.49965587375" height="17.96872363"/></g><text fill="black" stroke="none" font-family="sans-serif" font-size="8pt" font-style="normal" font-weight="normal" text-decoration="normal" x="678.1442306319999" y="441.477717494" text-anchor="start" dominant-baseline="alphabetic" xml:space="preserve">notifyObservers()</text></g><g><path fill="none" stroke="black" paint-order="fill stroke markers" d=" M 652.8037229486666 447.006555534 L 715.0031508986666 447.006555534 L 715.0031508986666 464.97527916399997 L 671.0949621309999 464.97527916399997" stroke-miterlimit="10" stroke-width="1.1518412583333333" stroke-dasharray=""/><g transform="translate(659.7147704986666,464.97527916399997) translate(-659.7147704986666,-464.97527916399997)"><path fill="black" stroke="none" paint-order="stroke fill markers" d=" M 671.2331830819999 459.2160728723333 L 659.7147704986666 464.97527916399997 L 671.2331830819999 470.73448545566663 Z"/></g></g><g><g><rect fill="white" stroke="none" x="487.2361776690833" y="485.70842181399996" width="45.117331655" height="17.96872363"/></g><text fill="black" stroke="none" font-family="sans-serif" font-size="8pt" font-style="normal" font-weight="normal" text-decoration="normal" x="489.3094919340833" y="498.148307404" text-anchor="start" dominant-baseline="alphabetic" xml:space="preserve">update()</text></g><g><path fill="none" stroke="black" paint-order="fill stroke markers" d=" M 645.8926753986666 503.67714544399996 L 385.0772032268333 503.67714544399996" stroke-miterlimit="10" stroke-width="1.1518412583333333" stroke-dasharray=""/><g transform="translate(373.6970115945,503.67714544399996) translate(-373.6970115945,-503.67714544399996)"><path fill="black" stroke="none" paint-order="stroke fill markers" d=" M 385.2154241778333 497.9179391523333 L 373.6970115945 503.67714544399996 L 385.2154241778333 509.4363517356666 Z"/></g></g><g><g><rect fill="white" stroke="none" x="504.26600545658323" y="524.410288094" width="4.14662853" height="17.96872363"/></g><text fill="black" stroke="none" font-family="sans-serif" font-size="8pt" font-style="normal" font-weight="normal" text-decoration="normal" x="506.33931972158325" y="536.8501736839999" text-anchor="start" dominant-baseline="alphabetic" xml:space="preserve"></text></g><g><path fill="none" stroke="black" paint-order="fill stroke markers" d=" M 638.9816278486666 542.379011724 L 385.0772032268333 542.379011724" stroke-miterlimit="10" stroke-width="1.1518412583333333" stroke-dasharray="5.52883804"/><g transform="translate(373.6970115945,542.379011724) translate(-373.6970115945,-542.379011724)"><path fill="black" stroke="none" paint-order="stroke fill markers" d=" M 385.2154241778333 536.6198054323332 L 373.6970115945 542.379011724 L 385.2154241778333 548.1382180156667 Z"/></g></g><g><g><rect fill="white" stroke="none" x="190.38261340725003" y="563.1121543739999" width="4.14662853" height="17.96872363"/></g><text fill="black" stroke="none" font-family="sans-serif" font-size="8pt" font-style="normal" font-weight="normal" text-decoration="normal" x="192.45592767225003" y="575.5520399639998" text-anchor="start" dominant-baseline="alphabetic" xml:space="preserve"></text></g><g><path fill="none" stroke="black" paint-order="fill stroke markers" d=" M 359.87491649450004 581.0808780039999 L 36.417130482333334 581.0808780039999" stroke-miterlimit="10" stroke-width="1.1518412583333333" stroke-dasharray="5.52883804"/><g transform="translate(25.03693885,581.0808780039999) translate(-25.03693885,-581.0808780039999)"><path fill="black" stroke="none" paint-order="stroke fill markers" d=" M 36.55535143333333 575.3216717123332 L 25.03693885 581.0808780039999 L 36.55535143333333 586.8400842956667 Z"/></g></g><g><g><rect fill="white" stroke="none" x="146.05497668850003" y="601.8140206539999" width="92.8019019675" height="17.96872363"/></g><text fill="black" stroke="none" font-family="sans-serif" font-size="8pt" font-style="normal" font-weight="normal" text-decoration="normal" x="148.12829095350003" y="614.2539062439998" text-anchor="start" dominant-baseline="alphabetic" xml:space="preserve">cancelScreening()</text></g><g><path fill="none" stroke="black" paint-order="fill stroke markers" d=" M 25.03693885 619.7827442839999 L 348.4947248621667 619.7827442839999" stroke-miterlimit="10" stroke-width="1.1518412583333333" stroke-dasharray=""/><g transform="translate(359.87491649450004,619.7827442839999) translate(-359.87491649450004,-619.7827442839999)"><path fill="black" stroke="none" paint-order="stroke fill markers" d=" M 348.3565039111667 614.0235379923332 L 359.87491649450004 619.7827442839999 L 348.3565039111667 625.5419505756666 Z"/></g></g><g><g><rect fill="white" stroke="none" x="463.30067342533323" y="640.5158869339999" width="86.0772925925" height="17.96872363"/></g><text fill="black" stroke="none" font-family="sans-serif" font-size="8pt" font-style="normal" font-weight="normal" text-decoration="normal" x="465.37398769033325" y="652.9557725239998" text-anchor="start" dominant-baseline="alphabetic" xml:space="preserve">cancelSelected()</text></g><g><path fill="none" stroke="black" paint-order="fill stroke markers" d=" M 373.6970115945 658.4846105639999 L 627.6014362163332 658.4846105639999" stroke-miterlimit="10" stroke-width="1.1518412583333333" stroke-dasharray=""/><g transform="translate(638.9816278486666,658.4846105639999) translate(-638.9816278486666,-658.4846105639999)"><path fill="black" stroke="none" paint-order="stroke fill markers" d=" M 627.4632152653332 652.7254042723332 L 638.9816278486666 658.4846105639999 L 627.4632152653332 664.2438168556666 Z"/></g></g><g><g><rect fill="white" stroke="none" x="676.0709163669999" y="679.2177532139999" width="216.91176524875" height="17.96872363"/></g><text fill="black" stroke="none" font-family="sans-serif" font-size="8pt" font-style="normal" font-weight="normal" text-decoration="normal" x="678.1442306319999" y="691.6576388039998" text-anchor="start" dominant-baseline="alphabetic" xml:space="preserve">observerMessage(s : String, true : Boolean)</text></g><g><path fill="none" stroke="black" paint-order="fill stroke markers" d=" M 652.8037229486666 697.1864768439999 L 715.0031508986666 697.1864768439999 L 715.0031508986666 715.1552004739999 L 671.0949621309999 715.1552004739999" stroke-miterlimit="10" stroke-width="1.1518412583333333" stroke-dasharray=""/><g transform="translate(659.7147704986666,715.1552004739999) translate(-659.7147704986666,-715.1552004739999)"><path fill="black" stroke="none" paint-order="stroke fill markers" d=" M 671.2331830819999 709.3959941823332 L 659.7147704986666 715.1552004739999 L 671.2331830819999 720.9144067656666 Z"/></g></g><g><g><rect fill="white" stroke="none" x="406.62602761595826" y="735.8883431239999" width="213.24867931125" height="17.96872363"/></g><text fill="black" stroke="none" font-family="sans-serif" font-size="8pt" font-style="normal" font-weight="normal" text-decoration="normal" x="408.6993418809583" y="748.3282287139998" text-anchor="start" dominant-baseline="alphabetic" xml:space="preserve">message(message : String, true : Boolean)</text></g><g><path fill="none" stroke="black" paint-order="fill stroke markers" d=" M 645.8926753986666 753.8570667539999 L 391.98825077683335 753.8570667539999" stroke-miterlimit="10" stroke-width="1.1518412583333333" stroke-dasharray=""/><g transform="translate(380.60805914450003,753.8570667539999) translate(-380.60805914450003,-753.8570667539999)"><path fill="black" stroke="none" paint-order="stroke fill markers" d=" M 392.12647172783335 748.0978604623332 L 380.60805914450003 753.8570667539999 L 392.12647172783335 759.6162730456666 Z"/></g></g><g><path fill="white" stroke="black" paint-order="fill stroke markers" d=" M 169.83188343183335 795.1160206275 A 20.5258112235 20.5258112235 0 1 1 169.83187316892858 795.0954948196975 M 116.13304396833334 773.4153313205001 L 116.13304396833334 816.8167099345 M 114.95816588483333 795.1160206275 L 128.78026098483335 795.1160206275" stroke-miterlimit="10" stroke-width="2.3497561670000002" stroke-dasharray=""/></g><g><g/><text fill="black" stroke="none" font-family="sans-serif" font-size="8pt" font-style="normal" font-weight="normal" text-decoration="normal" x="131.08618676770834" y="830.6388050344999" text-anchor="start" dominant-baseline="alphabetic" xml:space="preserve">Alert</text></g><g><g><rect fill="white" stroke="none" x="190.8184311586667" y="787.3065368959999" width="152.7003394675" height="17.96872363"/></g><text fill="black" stroke="none" font-family="sans-serif" font-size="8pt" font-style="normal" font-weight="normal" text-decoration="normal" x="192.8917454236667" y="799.7464224859998" text-anchor="start" dominant-baseline="alphabetic" xml:space="preserve">Alert( confirmation : AlertType)</text></g><g><path fill="none" stroke="black" paint-order="fill stroke markers" d=" M 366.7859640445 805.2752605259999 L 178.93142937266666 805.2752605259999" stroke-miterlimit="10" stroke-width="1.1518412583333333" stroke-dasharray=""/><g transform="translate(167.55123774033333,805.2752605259999) translate(-167.55123774033333,-805.2752605259999)"><path fill="black" stroke="none" paint-order="stroke fill markers" d=" M 179.06965032366668 799.5160542343332 L 167.55123774033333 805.2752605259999 L 179.06965032366668 811.0344668176666 Z"/></g></g><g><g><rect fill="white" stroke="none" x="255.9727038614167" y="856.6934542979999" width="4.14662853" height="17.96872363"/></g><text fill="black" stroke="none" font-family="sans-serif" font-size="8pt" font-style="normal" font-weight="normal" text-decoration="normal" x="258.0460181264167" y="869.1333398879998" text-anchor="start" dominant-baseline="alphabetic" xml:space="preserve"></text></g><g><path fill="none" stroke="black" paint-order="fill stroke markers" d=" M 149.30607220833335 874.6621779279999 L 355.4057724121667 874.6621779279999" stroke-miterlimit="10" stroke-width="1.1518412583333333" stroke-dasharray="5.52883804"/><g transform="translate(366.7859640445,874.6621779279999) translate(-366.7859640445,-874.6621779279999)"><path fill="black" stroke="none" paint-order="stroke fill markers" d=" M 355.2675514611667 868.9029716363332 L 366.7859640445 874.6621779279999 L 355.2675514611667 880.4213842196666 Z"/></g></g><g><g><rect fill="white" stroke="none" x="217.3572253457917" y="895.3953205779999" width="81.37758556125" height="17.96872363"/></g><text fill="black" stroke="none" font-family="sans-serif" font-size="8pt" font-style="normal" font-weight="normal" text-decoration="normal" x="219.4305396107917" y="907.8352061679998" text-anchor="start" dominant-baseline="alphabetic" xml:space="preserve">showAndWait();</text></g><g><path fill="none" stroke="black" paint-order="fill stroke markers" d=" M 366.7859640445 913.3640442079999 L 160.68626384066667 913.3640442079999" stroke-miterlimit="10" stroke-width="1.1518412583333333" stroke-dasharray=""/><g transform="translate(149.30607220833335,913.3640442079999) translate(-149.30607220833335,-913.3640442079999)"><path fill="black" stroke="none" paint-order="stroke fill markers" d=" M 160.8244847916667 907.6048379163332 L 149.30607220833335 913.3640442079999 L 160.8244847916667 919.1232504996666 Z"/></g></g><g><g><rect fill="white" stroke="none" x="78.18714371416667" y="934.0971868579999" width="4.14662853" height="17.96872363"/></g><text fill="black" stroke="none" font-family="sans-serif" font-size="8pt" font-style="normal" font-weight="normal" text-decoration="normal" x="80.26045797916666" y="946.5370724479998" text-anchor="start" dominant-baseline="alphabetic" xml:space="preserve"></text></g><g><path fill="none" stroke="black" paint-order="fill stroke markers" d=" M 135.48397710833333 952.0659104879999 L 36.417130482333334 952.0659104879999" stroke-miterlimit="10" stroke-width="1.1518412583333333" stroke-dasharray=""/><g transform="translate(25.03693885,952.0659104879999) translate(-25.03693885,-952.0659104879999)"><path fill="black" stroke="none" paint-order="stroke fill markers" d=" M 36.55535143333333 946.3067041963332 L 25.03693885 952.0659104879999 L 36.55535143333333 957.8251167796666 Z"/></g></g><g><g><rect fill="white" stroke="none" x="78.18714371416667" y="972.7990531379999" width="4.14662853" height="17.96872363"/></g><text fill="black" stroke="none" font-family="sans-serif" font-size="8pt" font-style="normal" font-weight="normal" text-decoration="normal" x="80.26045797916666" y="985.2389387279998" text-anchor="start" dominant-baseline="alphabetic" xml:space="preserve"></text></g><g><path fill="none" stroke="black" paint-order="fill stroke markers" d=" M 25.03693885 990.7677767679999 L 124.103785476 990.7677767679999" stroke-miterlimit="10" stroke-width="1.1518412583333333" stroke-dasharray="5.52883804"/><g transform="translate(135.48397710833333,990.7677767679999) translate(-135.48397710833333,-990.7677767679999)"><path fill="black" stroke="none" paint-order="stroke fill markers" d=" M 123.965564525 985.0085704763331 L 135.48397710833333 990.7677767679999 L 123.965564525 996.5269830596666 Z"/></g></g><path fill="white" stroke="black" paint-order="fill stroke markers" d=" M 84.22451144020835 1011.500919418 L 188.12565228645835 1011.500919418 L 200.56553787645834 1023.940805008 L 200.56553787645834 1043.291738148 L 84.22451144020835 1043.291738148 L 84.22451144020835 1011.500919418 M 188.12565228645835 1011.500919418 L 188.12565228645835 1023.940805008 L 200.56553787645834 1023.940805008" stroke-miterlimit="10" stroke-width="1.1518412583333333" stroke-dasharray=""/><g><text fill="black" stroke="none" font-family="sans-serif" font-size="8pt" font-style="normal" font-weight="normal" text-decoration="normal" x="103.57544458020834" y="1030.8518525579998" text-anchor="start" dominant-baseline="alphabetic" xml:space="preserve">user selects OK</text></g><g><g><rect fill="white" stroke="none" x="230.5996569864167" y="1064.0248807980001" width="54.89272228" height="17.96872363"/></g><text fill="black" stroke="none" font-family="sans-serif" font-size="8pt" font-style="normal" font-weight="normal" text-decoration="normal" x="232.6729712514167" y="1076.4647663880003" text-anchor="start" dominant-baseline="alphabetic" xml:space="preserve">return true</text></g><g><path fill="none" stroke="black" paint-order="fill stroke markers" d=" M 149.30607220833335 1081.993604428 L 355.4057724121667 1081.993604428" stroke-miterlimit="10" stroke-width="1.1518412583333333" stroke-dasharray="5.52883804"/><g transform="translate(366.7859640445,1081.993604428) translate(-366.7859640445,-1081.993604428)"><path fill="black" stroke="none" paint-order="stroke fill markers" d=" M 355.2675514611667 1076.2343981363333 L 366.7859640445 1081.993604428 L 355.2675514611667 1087.7528107196667 Z"/></g></g><g><g><rect fill="white" stroke="none" x="485.80400613158326" y="1102.7267470780002" width="54.89272228" height="17.96872363"/></g><text fill="black" stroke="none" font-family="sans-serif" font-size="8pt" font-style="normal" font-weight="normal" text-decoration="normal" x="487.8773203965833" y="1115.1666326680004" text-anchor="start" dominant-baseline="alphabetic" xml:space="preserve">return true</text></g><g><path fill="none" stroke="black" paint-order="fill stroke markers" d=" M 380.60805914450003 1120.6954707080001 L 634.5124837663333 1120.6954707080001" stroke-miterlimit="10" stroke-width="1.1518412583333333" stroke-dasharray="5.52883804"/><g transform="translate(645.8926753986666,1120.6954707080001) translate(-645.8926753986666,-1120.6954707080001)"><path fill="black" stroke="none" paint-order="stroke fill markers" d=" M 634.3742628153333 1114.9362644163334 L 645.8926753986666 1120.6954707080001 L 634.3742628153333 1126.4546769996668 Z"/></g></g><g><g><rect fill="white" stroke="none" x="676.0709163669999" y="1178.748270128" width="374.2257300925" height="17.96872363"/></g><text fill="black" stroke="none" font-family="sans-serif" font-size="8pt" font-style="normal" font-weight="normal" text-decoration="normal" x="678.1442306319999" y="1191.1881557180002" text-anchor="start" dominant-baseline="alphabetic" xml:space="preserve">checkSold(time : LocalTime, screenName : String, sg : PersistentScreening)</text></g><g><path fill="none" stroke="black" paint-order="fill stroke markers" d=" M 659.7147704986666 1196.7169937580002 L 715.0031508986666 1196.7169937580002 L 715.0031508986666 1214.685717388 L 671.0949621309999 1214.685717388" stroke-miterlimit="10" stroke-width="1.1518412583333333" stroke-dasharray=""/><g transform="translate(659.7147704986666,1214.685717388) translate(-659.7147704986666,-1214.685717388)"><path fill="black" stroke="none" paint-order="stroke fill markers" d=" M 671.2331830819999 1208.9265110963333 L 659.7147704986666 1214.685717388 L 671.2331830819999 1220.4449236796668 Z"/></g></g><g><g><rect fill="white" stroke="none" x="743.3328650472082" y="1256.1520026880003" width="242.00551524875" height="17.96872363"/></g><text fill="black" stroke="none" font-family="sans-serif" font-size="8pt" font-style="normal" font-weight="normal" text-decoration="normal" x="745.4061793122082" y="1268.5918882780004" text-anchor="start" dominant-baseline="alphabetic" xml:space="preserve">cancelScreening(selectedScreening : Screening)</text></g><g><path fill="none" stroke="black" paint-order="fill stroke markers" d=" M 659.7147704986666 1274.1207263180002 L 1057.5762832121666 1274.1207263180002" stroke-miterlimit="10" stroke-width="1.1518412583333333" stroke-dasharray=""/><g transform="translate(1068.9564748445,1274.1207263180002) translate(-1068.9564748445,-1274.1207263180002)"><path fill="black" stroke="none" paint-order="stroke fill markers" d=" M 1057.4380622611666 1268.3615200263334 L 1068.9564748445 1274.1207263180002 L 1057.4380622611666 1279.8799326096669 Z"/></g></g><g><g><rect fill="white" stroke="none" x="1159.6513991583126" y="1294.8538689680004" width="161.2940894675" height="17.96872363"/></g><text fill="black" stroke="none" font-family="sans-serif" font-size="8pt" font-style="normal" font-weight="normal" text-decoration="normal" x="1161.7247134233126" y="1307.2937545580005" text-anchor="start" dominant-baseline="alphabetic" xml:space="preserve">deleteScreening(sg : Screening)</text></g><g><path fill="none" stroke="black" paint-order="fill stroke markers" d=" M 1082.7785699444998 1312.8225925980003 L 1386.4381262072916 1312.8225925980003" stroke-miterlimit="10" stroke-width="1.1518412583333333" stroke-dasharray=""/><g transform="translate(1397.818317839625,1312.8225925980003) translate(-1397.818317839625,-1312.8225925980003)"><path fill="black" stroke="none" paint-order="stroke fill markers" d=" M 1386.2999052562916 1307.0633863063335 L 1397.818317839625 1312.8225925980003 L 1386.2999052562916 1318.581798889667 Z"/></g></g><g><g><rect fill="white" stroke="none" x="1434.9076063579585" y="1333.5557352480002" width="136.80727306125" height="17.96872363"/></g><text fill="black" stroke="none" font-family="sans-serif" font-size="8pt" font-style="normal" font-weight="normal" text-decoration="normal" x="1436.9809206229584" y="1345.9956208380004" text-anchor="start" dominant-baseline="alphabetic" xml:space="preserve">performUpdate(sql : String)</text></g><g><path fill="none" stroke="black" paint-order="fill stroke markers" d=" M 1411.6404129396249 1351.5244588780001 L 1473.839840889625 1351.5244588780001 L 1473.839840889625 1369.4931825080002 L 1429.9316521219585 1369.4931825080002" stroke-miterlimit="10" stroke-width="1.1518412583333333" stroke-dasharray=""/><g transform="translate(1418.551460489625,1369.4931825080002) translate(-1418.551460489625,-1369.4931825080002)"><path fill="black" stroke="none" paint-order="stroke fill markers" d=" M 1430.0698730729584 1363.7339762163335 L 1418.551460489625 1369.4931825080002 L 1430.0698730729584 1375.252388799667 Z"/></g></g><g><g><rect fill="white" stroke="none" x="1434.9076063579585" y="1390.2263251580002" width="137.43569103" height="17.96872363"/></g><text fill="black" stroke="none" font-family="sans-serif" font-size="8pt" font-style="normal" font-weight="normal" text-decoration="normal" x="1436.9809206229584" y="1402.6662107480004" text-anchor="start" dominant-baseline="alphabetic" xml:space="preserve">executeUpdate(sql : String)</text></g><g><path fill="none" stroke="black" paint-order="fill stroke markers" d=" M 1418.551460489625 1408.1950487880003 L 1577.3192516239583 1408.1950487880003" stroke-miterlimit="10" stroke-width="1.1518412583333333" stroke-dasharray=""/><g transform="translate(1588.6994432562917,1408.1950487880003) translate(-1588.6994432562917,-1408.1950487880003)"><path fill="black" stroke="none" paint-order="stroke fill markers" d=" M 1577.1810306729583 1402.4358424963336 L 1588.6994432562917 1408.1950487880003 L 1577.1810306729583 1413.954255079667 Z"/></g></g><g><g><rect fill="white" stroke="none" x="1434.9076063579585" y="1428.9281914380003" width="4.14662853" height="17.96872363"/></g><text fill="black" stroke="none" font-family="sans-serif" font-size="8pt" font-style="normal" font-weight="normal" text-decoration="normal" x="1436.9809206229584" y="1441.3680770280005" text-anchor="start" dominant-baseline="alphabetic" xml:space="preserve"></text></g><g><path fill="none" stroke="black" paint-order="fill stroke markers" d=" M 1418.551460489625 1446.8969150680005 L 1473.839840889625 1446.8969150680005 L 1473.839840889625 1464.8656386980003 L 1423.0206045719585 1464.8656386980003" stroke-miterlimit="10" stroke-width="1.1518412583333333" stroke-dasharray="5.52883804"/><g transform="translate(1411.640412939625,1464.8656386980003) translate(-1411.640412939625,-1464.8656386980003)"><path fill="black" stroke="none" paint-order="stroke fill markers" d=" M 1423.1588255229585 1459.1064324063336 L 1411.640412939625 1464.8656386980003 L 1423.1588255229585 1470.624844989667 Z"/></g></g><g><g><rect fill="white" stroke="none" x="1238.2251296270626" y="1485.5987813480006" width="4.14662853" height="17.96872363"/></g><text fill="black" stroke="none" font-family="sans-serif" font-size="8pt" font-style="normal" font-weight="normal" text-decoration="normal" x="1240.2984438920626" y="1498.0386669380007" text-anchor="start" dominant-baseline="alphabetic" xml:space="preserve"></text></g><g><path fill="none" stroke="black" paint-order="fill stroke markers" d=" M 1397.818317839625 1503.5675049780004 L 1094.1587615768333 1503.5675049780004" stroke-miterlimit="10" stroke-width="1.1518412583333333" stroke-dasharray="5.52883804"/><g transform="translate(1082.7785699444998,1503.5675049780004) translate(-1082.7785699444998,-1503.5675049780004)"><path fill="black" stroke="none" paint-order="stroke fill markers" d=" M 1094.2969825278333 1497.8082986863337 L 1082.7785699444998 1503.5675049780004 L 1094.2969825278333 1509.3267112696672 Z"/></g></g><g><g><rect fill="white" stroke="none" x="862.2623084065832" y="1524.3006476280007" width="4.14662853" height="17.96872363"/></g><text fill="black" stroke="none" font-family="sans-serif" font-size="8pt" font-style="normal" font-weight="normal" text-decoration="normal" x="864.3356226715832" y="1536.7405332180008" text-anchor="start" dominant-baseline="alphabetic" xml:space="preserve"></text></g><g><path fill="none" stroke="black" paint-order="fill stroke markers" d=" M 1068.9564748445 1542.2693712580005 L 671.0949621309999 1542.2693712580005" stroke-miterlimit="10" stroke-width="1.1518412583333333" stroke-dasharray="5.52883804"/><g transform="translate(659.7147704986666,1542.2693712580005) translate(-659.7147704986666,-1542.2693712580005)"><path fill="black" stroke="none" paint-order="stroke fill markers" d=" M 671.2331830819999 1536.5101649663338 L 659.7147704986666 1542.2693712580005 L 671.2331830819999 1548.0285775496673 Z"/></g></g><g><g><rect fill="white" stroke="none" x="676.0709163669999" y="1600.3221706780005" width="161.84731212375" height="17.96872363"/></g><text fill="black" stroke="none" font-family="sans-serif" font-size="8pt" font-style="normal" font-weight="normal" text-decoration="normal" x="678.1442306319999" y="1612.7620562680006" text-anchor="start" dominant-baseline="alphabetic" xml:space="preserve">notifyObservers()                        </text></g><g><path fill="none" stroke="black" paint-order="fill stroke markers" d=" M 659.7147704986666 1618.2908943080006 L 715.0031508986666 1618.2908943080006 L 715.0031508986666 1636.2596179380005 L 671.0949621309999 1636.2596179380005" stroke-miterlimit="10" stroke-width="1.1518412583333333" stroke-dasharray=""/><g transform="translate(659.7147704986666,1636.2596179380005) translate(-659.7147704986666,-1636.2596179380005)"><path fill="black" stroke="none" paint-order="stroke fill markers" d=" M 671.2331830819999 1630.5004116463338 L 659.7147704986666 1636.2596179380005 L 671.2331830819999 1642.0188242296672 Z"/></g></g><g><g><rect fill="white" stroke="none" x="676.0709163669999" y="1677.7259032380005" width="4.14662853" height="17.96872363"/></g><text fill="black" stroke="none" font-family="sans-serif" font-size="8pt" font-style="normal" font-weight="normal" text-decoration="normal" x="678.1442306319999" y="1690.1657888280006" text-anchor="start" dominant-baseline="alphabetic" xml:space="preserve"></text></g><g><path fill="none" stroke="black" paint-order="fill stroke markers" d=" M 659.7147704986666 1695.6946268680003 L 715.0031508986666 1695.6946268680003 L 715.0031508986666 1713.6633504980005 L 664.1839145809998 1713.6633504980005" stroke-miterlimit="10" stroke-width="1.1518412583333333" stroke-dasharray="5.52883804"/><g transform="translate(652.8037229486665,1713.6633504980005) translate(-652.8037229486665,-1713.6633504980005)"><path fill="black" stroke="none" paint-order="stroke fill markers" d=" M 664.3221355319998 1707.9041442063337 L 652.8037229486665 1713.6633504980005 L 664.3221355319998 1719.4225567896672 Z"/></g></g><g><g><rect fill="white" stroke="none" x="504.26600545658323" y="1734.3964931480004" width="4.14662853" height="17.96872363"/></g><text fill="black" stroke="none" font-family="sans-serif" font-size="8pt" font-style="normal" font-weight="normal" text-decoration="normal" x="506.33931972158325" y="1746.8363787380006" text-anchor="start" dominant-baseline="alphabetic" xml:space="preserve"></text></g><g><path fill="none" stroke="black" paint-order="fill stroke markers" d=" M 638.9816278486666 1752.3652167780006 L 385.0772032268333 1752.3652167780006" stroke-miterlimit="10" stroke-width="1.1518412583333333" stroke-dasharray="5.52883804"/><g transform="translate(373.6970115945,1752.3652167780006) translate(-373.6970115945,-1752.3652167780006)"><path fill="black" stroke="none" paint-order="stroke fill markers" d=" M 385.2154241778333 1746.6060104863338 L 373.6970115945 1752.3652167780006 L 385.2154241778333 1758.1244230696673 Z"/></g></g><g><g><rect fill="white" stroke="none" x="186.92708963225004" y="1773.0983594280005" width="4.14662853" height="17.96872363"/></g><text fill="black" stroke="none" font-family="sans-serif" font-size="8pt" font-style="normal" font-weight="normal" text-decoration="normal" x="189.00040389725004" y="1785.5382450180007" text-anchor="start" dominant-baseline="alphabetic" xml:space="preserve"></text></g><g><path fill="none" stroke="black" paint-order="fill stroke markers" d=" M 359.87491649450004 1791.0670830580007 L 29.506082932333335 1791.0670830580007" stroke-miterlimit="10" stroke-width="1.1518412583333333" stroke-dasharray="5.52883804"/><g transform="translate(18.1258913,1791.0670830580007) translate(-18.1258913,-1791.0670830580007)"><path fill="black" stroke="none" paint-order="stroke fill markers" d=" M 29.644303883333333 1785.307876766334 L 18.1258913 1791.0670830580007 L 29.644303883333333 1796.8262893496674 Z"/></g></g><g><g/><path fill="none" stroke="black" paint-order="fill stroke markers" d=" M 597.5153425486666 293.581299924 L 1219.0907789967498 293.581299924 L 1219.0907789967498 408.304689254 L 597.5153425486666 408.304689254 L 597.5153425486666 293.581299924 Z" stroke-miterlimit="10" stroke-width="1.9745850142857144" stroke-dasharray=""/><path fill="white" stroke="black" paint-order="fill stroke markers" d=" M 597.5153425486666 293.581299924 L 597.5153425486666 310.167814044 L 644.1526968111666 310.167814044 L 652.4459538711666 301.874556984 L 652.4459538711666 293.581299924 L 597.5153425486666 293.581299924" stroke-miterlimit="10" stroke-width="1.9745850142857144" stroke-dasharray=""/><text fill="black" stroke="none" font-family="sans-serif" font-size="6.4pt" font-style="normal" font-weight="bold" text-decoration="normal" x="611.3374376486665" y="304.638976004" text-anchor="start" dominant-baseline="alphabetic" xml:space="preserve">loop</text><text fill="black" stroke="none" font-family="sans-serif" font-size="6.4pt" font-style="normal" font-weight="bold" text-decoration="normal" x="666.2680489711665" y="304.638976004" text-anchor="start" dominant-baseline="alphabetic" xml:space="preserve">[for each current Screening]</text></g><g><g/><path fill="none" stroke="black" paint-order="fill stroke markers" d=" M 597.5153425486666 1141.4286133580001 L 1055.1343797445 1141.4286133580001 L 1055.1343797445 1235.418860038 L 597.5153425486666 1235.418860038 L 597.5153425486666 1141.4286133580001 Z" stroke-miterlimit="10" stroke-width="1.9745850142857144" stroke-dasharray=""/><path fill="white" stroke="black" paint-order="fill stroke markers" d=" M 597.5153425486666 1141.4286133580001 L 597.5153425486666 1158.015127478 L 677.6741811861666 1158.015127478 L 685.9674382461666 1149.7218704180002 L 685.9674382461666 1141.4286133580001 L 597.5153425486666 1141.4286133580001" stroke-miterlimit="10" stroke-width="1.9745850142857144" stroke-dasharray=""/><text fill="black" stroke="none" font-family="sans-serif" font-size="6.4pt" font-style="normal" font-weight="bold" text-decoration="normal" x="611.3374376486665" y="1152.486289438" text-anchor="start" dominant-baseline="alphabetic" xml:space="preserve">expandable-</text><text fill="black" stroke="none" font-family="sans-serif" font-size="6.4pt" font-style="normal" font-weight="bold" text-decoration="normal" x="699.7895333461665" y="1152.486289438" text-anchor="start" dominant-baseline="alphabetic" xml:space="preserve">[see diagram 04 Cancel Screening ACE (sold screening)]</text></g><g><g/><path fill="none" stroke="black" paint-order="fill stroke markers" d=" M 597.5153425486666 1563.0025139080005 L 842.7559617757499 1563.0025139080005 L 842.7559617757499 1656.9927605880005 L 597.5153425486666 1656.9927605880005 L 597.5153425486666 1563.0025139080005 Z" stroke-miterlimit="10" stroke-width="1.9745850142857144" stroke-dasharray=""/><path fill="white" stroke="black" paint-order="fill stroke markers" d=" M 597.5153425486666 1563.0025139080005 L 597.5153425486666 1579.5890280280005 L 679.9329702486666 1579.5890280280005 L 688.2262273086666 1571.2957709680006 L 688.2262273086666 1563.0025139080005 L 597.5153425486666 1563.0025139080005" stroke-miterlimit="10" stroke-width="1.9745850142857144" stroke-dasharray=""/><text fill="black" stroke="none" font-family="sans-serif" font-size="6.4pt" font-style="normal" font-weight="bold" text-decoration="normal" x="611.3374376486665" y="1574.0601899880005" text-anchor="start" dominant-baseline="alphabetic" xml:space="preserve">expandable−</text><text fill="black" stroke="none" font-family="sans-serif" font-size="6.4pt" font-style="normal" font-weight="bold" text-decoration="normal" x="702.0483224086665" y="1574.0601899880005" text-anchor="start" dominant-baseline="alphabetic" xml:space="preserve">[see 01 - Display Screening BCE]</text></g></g><g/><g/><g/><g/><g/><g/><g/><g/></g></svg>