<svg version="1.1" xmlns="http://www.w3.org/2000/svg" xmlns:xlink="http://www.w3.org/1999/xlink" width="1525" height="1935"><desc>actor%20Staff%0Aboundary%20Alert%0Aboundary%20StaffUI%0A%0Acontrol%20ManagementSystem%0Aparticipant%20Cinema%0Aentity%20Screening%20(current)%0Aentity%20Screening%20(selected)%0Aparticipant%20ScreeningMapper%0Adatabase%20Database%0AStaff-%3EStaffUI%3AmousePressed(x%20%3A%20Integer%2C%20y%20%3A%20Integer)%0Aactivate%20StaffUI%0A%0AStaffUI-%3EStaffUI%3Asn%20%3A%3D%20yToScreen(y%20%3A%20Integer)%0AStaffUI-%3EStaffUI%3Atime%20%3A%3D%20xToTime(x%20%3A%20Integer)%0AStaffUI-%3EManagementSystem%3AselectScreening(sn%20%3A%20String%2C%20time%20%3A%20LocalTime)%0Aactivate%20ManagementSystem%0A%0Aloop%20for%20each%20current%20Screening%0AManagementSystem-%3EScreening%20(current)%3AgetScreenName()%0AManagementSystem-%3EScreening%20(current)%3AgetTime()%0Aend%0AManagementSystem-%3EManagementSystem%3AnotifyObservers()%0Aactivate%20ManagementSystem%0AManagementSystem-%3EStaffUI%3Aupdate()%0Adeactivate%20ManagementSystem%0A%0AManagementSystem--%3EStaffUI%3A%0Adeactivate%20ManagementSystem%0AStaffUI--%3EStaff%3A%0Adeactivate%20StaffUI%0Aactivate%20Staff%0AStaff-%3EStaffUI%3AcancelScreening()%0Adeactivate%20Staff%0Aactivate%20StaffUI%0AStaffUI-%3EManagementSystem%3AcancelSelected()%0Aactivate%20ManagementSystem%0A%0AManagementSystem-%3EManagementSystem%3AobserverMessage(s%20%3A%20String%2C%20true%20%3A%20Boolean)%0Aactivate%20ManagementSystem%0AManagementSystem-%3EStaffUI%3Amessage(message%20%3A%20String%2C%20true%20%3A%20Boolean)%0Aactivate%20StaffUI%0AStaffUI-%3E*Alert%3AAlert(%20confirmation%20%3A%20AlertType)%0Aactivate%20Alert%0AAlert--%3EStaffUI%3A%0Adeactivate%20Alert%0A%0AStaffUI-%3EAlert%3AshowAndWait()%3B%0Aactivate%20Alert%0AAlert-%3EStaff%3A%0Aactivate%20Staff%0AStaff--%3EAlert%3A%0Adeactivate%20Staff%0Anote%20over%20Alert%3Auser%20selects%20OK%0AAlert--%3EStaffUI%3Areturn%20true%0Adeactivate%20Alert%0AStaffUI--%3EManagementSystem%3Areturn%20true%0Adeactivate%20StaffUI%0AManagementSystem--%3EManagementSystem%3Areturn%20true%0Adeactivate%20ManagementSystem%0A%0AManagementSystem-%3EManagementSystem%3AcheckSold(time%20%3A%20LocalTime%2C%20screenName%20%3A%20String%2C%20sg%20%3A%20PersistentScreening)%0A%0Aactivate%20ManagementSystem%0Anote%20over%20ManagementSystem%3Afound%20the%20screening%20has%20been%20sold%0A%0AManagementSystem-%3EManagementSystem%3AobserverMessage(message%20%3A%20String%2C%20false%20%3A%20Boolean)%0Aactivate%20ManagementSystem%0AManagementSystem-%3EStaffUI%3Amessage(message%20%3A%20String%2C%20false%20%3A%20Boolean)%0Aactivate%20StaffUI%0AStaffUI-%3E*Alert%3AAlert(%20warning%20%3A%20AlertType)%0Aactivate%20Alert%0AAlert--%3EStaffUI%3A%0Adeactivate%20Alert%0AStaffUI-%3EAlert%3AshowAndWait()%3B%0AAlert-%3EStaff%3A%0Aactivate%20Staff%0AStaff--%3EAlert%3A%0Adeactivate%20Staff%0AAlert--%3EStaffUI%3Areturn%20result%0AStaffUI--%3EManagementSystem%3Areturn%20false%0Adeactivate%20StaffUI%0AManagementSystem--%3EManagementSystem%3Areturn%20false%0Adeactivate%20ManagementSystem%0AManagementSystem--%3EManagementSystem%3Areturn%20false%0Adeactivate%20ManagementSystem%0AManagementSystem--%3EStaffUI%3Areturn%20false%0Adeactivate%20ManagementSystem%0AStaffUI--%3EStaff%3A%0Adeactivate%20StaffUI%0A%0A</desc><defs/><g><g/><g/><g/><g/><g/><g/><g/><g/><g/><g/><g/><g/><g/><g/><g/><g/><g/><g/><g/><g/><g/><g/><g/><g/><g/><g/><g/><g/><g/><g/><g/><g/><g/><g/><g/><g/><g/><g/><g><rect fill="white" stroke="none" x="0" y="0" width="1525" height="1935"/></g><g/><g><path fill="none" stroke="black" paint-order="fill stroke markers" d=" M 18.1258913 75.19219734400001 L 18.1258913 1935.3697559020009" stroke-miterlimit="10" stroke-width="1.1518412583333333" stroke-dasharray="10.632380846153845,4.607365033333333"/><path fill="none" stroke="black" paint-order="fill stroke markers" d=" M 142.39502465833334 835.9603116479999 L 142.39502465833334 1935.3697559020009" stroke-miterlimit="10" stroke-width="1.1518412583333333" stroke-dasharray="10.632380846153845,4.607365033333333"/><path fill="none" stroke="black" paint-order="fill stroke markers" d=" M 142.39502465833334 1464.0363129920001 L 142.39502465833334 1935.3697559020009" stroke-miterlimit="10" stroke-width="1.1518412583333333" stroke-dasharray="10.632380846153845,4.607365033333333"/><path fill="none" stroke="black" paint-order="fill stroke markers" d=" M 366.7859640445 75.19219734400001 L 366.7859640445 1935.3697559020009" stroke-miterlimit="10" stroke-width="1.1518412583333333" stroke-dasharray="10.632380846153845,4.607365033333333"/><path fill="none" stroke="black" paint-order="fill stroke markers" d=" M 645.8926753986666 75.19219734400001 L 645.8926753986666 1935.3697559020009" stroke-miterlimit="10" stroke-width="1.1518412583333333" stroke-dasharray="10.632380846153845,4.607365033333333"/><path fill="none" stroke="black" paint-order="fill stroke markers" d=" M 1062.0454272944999 75.19219734400001 L 1062.0454272944999 1935.3697559020009" stroke-miterlimit="10" stroke-width="1.1518412583333333" stroke-dasharray="10.632380846153845,4.607365033333333"/><path fill="none" stroke="black" paint-order="fill stroke markers" d=" M 1156.8913510467498 75.19219734400001 L 1156.8913510467498 1935.3697559020009" stroke-miterlimit="10" stroke-width="1.1518412583333333" stroke-dasharray="10.632380846153845,4.607365033333333"/><path fill="none" stroke="black" paint-order="fill stroke markers" d=" M 1268.23102427175 75.19219734400001 L 1268.23102427175 1935.3697559020009" stroke-miterlimit="10" stroke-width="1.1518412583333333" stroke-dasharray="10.632380846153845,4.607365033333333"/><path fill="none" stroke="black" paint-order="fill stroke markers" d=" M 1390.9072702896249 75.19219734400001 L 1390.9072702896249 1935.3697559020009" stroke-miterlimit="10" stroke-width="1.1518412583333333" stroke-dasharray="10.632380846153845,4.607365033333333"/><path fill="none" stroke="black" paint-order="fill stroke markers" d=" M 1490.785079554375 75.19219734400001 L 1490.785079554375 1935.3697559020009" stroke-miterlimit="10" stroke-width="1.1518412583333333" stroke-dasharray="10.632380846153845,4.607365033333333"/></g><g><g><path fill="white" stroke="black" paint-order="fill stroke markers" d=" M 26.004485507 16.724735071000005 A 7.878594207 7.878594207 0 1 1 26.004481567703223 16.7168564781061 M 18.1258913 24.603329278000004 L 18.1258913 41.4662853 M 8.173982828 30.685051122000004 L 28.077799772 30.685051122000004 M 18.1258913 41.4662853 L 8.173982828 57.22347371400001 M 18.1258913 41.4662853 L 28.077799772 57.22347371400001" stroke-miterlimit="10" stroke-width="2.3497561670000002" stroke-dasharray=""/></g><g><g/><text fill="black" stroke="none" font-family="sans-serif" font-size="8pt" font-style="normal" font-weight="normal" text-decoration="normal" x="6.911047549999999" y="71.045568814" text-anchor="start" dominant-baseline="alphabetic" xml:space="preserve">Staff</text></g><g><path fill="white" stroke="black" paint-order="fill stroke markers" d=" M 394.222822818 35.52278440700001 A 20.5258112235 20.5258112235 0 1 1 394.22281255509523 35.50225859919747 M 340.52398335450005 13.822095100000011 L 340.52398335450005 57.22347371400001 M 339.34910527100004 35.52278440700001 L 353.171200371 35.52278440700001" stroke-miterlimit="10" stroke-width="2.3497561670000002" stroke-dasharray=""/></g><g><g/><text fill="black" stroke="none" font-family="sans-serif" font-size="8pt" font-style="normal" font-weight="normal" text-decoration="normal" x="350.0711202945" y="71.045568814" text-anchor="start" dominant-baseline="alphabetic" xml:space="preserve">StaffUI</text></g><g><path fill="white" stroke="black" paint-order="fill stroke markers" d=" M 666.4184866221666 35.52278440700001 A 20.5258112235 20.5258112235 0 1 1 666.4184763592618 35.50225859919747 M 643.1282563786666 14.99697318350001 L 651.4215134386666 8.085925633500011 M 643.1282563786666 14.99697318350001 L 651.4215134386666 21.90802073350001" stroke-miterlimit="10" stroke-width="2.3497561670000002" stroke-dasharray=""/></g><g><g/><text fill="black" stroke="none" font-family="sans-serif" font-size="8pt" font-style="normal" font-weight="normal" text-decoration="normal" x="595.4527339924166" y="71.045568814" text-anchor="start" dominant-baseline="alphabetic" xml:space="preserve">ManagementSystem</text></g><path fill="none" stroke="none"/><g><path fill="white" stroke="black" paint-order="fill stroke markers" d=" M 1028.096549814125 37.87254057400001 L 1095.994304774875 37.87254057400001 L 1095.994304774875 75.19219734400001 L 1028.096549814125 75.19219734400001 L 1028.096549814125 37.87254057400001 Z" stroke-miterlimit="10" stroke-width="2.211535216" stroke-dasharray=""/></g><g><g/><text fill="black" stroke="none" font-family="sans-serif" font-size="8pt" font-style="normal" font-weight="normal" text-decoration="normal" x="1043.0935229976249" y="61.370102243999995" text-anchor="start" dominant-baseline="alphabetic" xml:space="preserve">Cinema</text></g><g><path fill="white" stroke="black" paint-order="fill stroke markers" d=" M 1177.4171622702497 33.64297947340001 A 20.5258112235 20.5258112235 0 1 1 1177.417152007345 33.62245366559747 M 1135.1906617397499 56.04859563050001 L 1178.5920403537498 56.04859563050001" stroke-miterlimit="10" stroke-width="2.3497561670000002" stroke-dasharray=""/></g><g><g/><text fill="black" stroke="none" font-family="sans-serif" font-size="8pt" font-style="normal" font-weight="normal" text-decoration="normal" x="1109.8163998748748" y="71.045568814" text-anchor="start" dominant-baseline="alphabetic" xml:space="preserve">Screening (current)</text></g><g><path fill="white" stroke="black" paint-order="fill stroke markers" d=" M 1288.75683549525 33.64297947340001 A 20.5258112235 20.5258112235 0 1 1 1288.7568252323451 33.62245366559747 M 1246.5303349647497 56.04859563050001 L 1289.93171357875 56.04859563050001" stroke-miterlimit="10" stroke-width="2.3497561670000002" stroke-dasharray=""/></g><g><g/><text fill="black" stroke="none" font-family="sans-serif" font-size="8pt" font-style="normal" font-weight="normal" text-decoration="normal" x="1217.788397318625" y="71.045568814" text-anchor="start" dominant-baseline="alphabetic" xml:space="preserve">Screening (selected)</text></g><path fill="none" stroke="none"/><g><path fill="white" stroke="black" paint-order="fill stroke markers" d=" M 1332.495746324875 37.87254057400001 L 1449.318794254375 37.87254057400001 L 1449.318794254375 75.19219734400001 L 1332.495746324875 75.19219734400001 L 1332.495746324875 37.87254057400001 Z" stroke-miterlimit="10" stroke-width="2.211535216" stroke-dasharray=""/></g><g><g/><text fill="black" stroke="none" font-family="sans-serif" font-size="8pt" font-style="normal" font-weight="normal" text-decoration="normal" x="1347.4927195083749" y="61.370102243999995" text-anchor="start" dominant-baseline="alphabetic" xml:space="preserve">ScreeningMapper</text></g><g><path fill="white" stroke="black" paint-order="fill stroke markers" d=" M 1470.604820708375 48.10089094800001 L 1470.604820708375 19.074491238000007 L 1510.965338400375 19.074491238000007 L 1510.965338400375 48.10089094800001" stroke-miterlimit="10" stroke-width="2.3497561670000002" stroke-dasharray=""/><path fill="white" stroke="black" paint-order="fill stroke markers" d=" M 1510.965338400375 18.065478295700007 L 1510.964329395841 18.15670260293715 L 1510.961302483139 18.247917787819585 L 1510.9562579649576 18.339114728904843 L 1510.9491963457444 18.430284306574812 L 1510.9401183316554 18.521417403947694 L 1510.9290248304844 18.612504907789702 L 1510.9159169515724 18.703537709426353 L 1510.9007960056963 18.794506705653347 L 1510.883663504938 18.885402799646865 L 1510.8645211625337 18.976216901873258 L 1510.8433708927012 19.066939930997982 L 1510.8202148104501 19.15756281479372 L 1510.7950552313694 19.248076491047623 L 1510.7678946713959 19.338471908467483 L 1510.7387358465628 19.42874002758689 L 1510.7075816727286 19.518871821669155 L 1510.6744352652845 19.608858277609983 L 1510.6392999388438 19.698690396838764 L 1510.6021792069098 19.788359196218437 L 1510.5630767815246 19.877855708943788 L 1510.5219965728984 19.967170985438123 L 1510.4789426890177 20.05629609424822 L 1510.433919435235 20.145222122937476 L 1510.3869313138384 20.23394017897712 L 1510.3379830236006 20.322441390635486 L 1510.2870794593098 20.41071690786515 L 1510.23422571128 20.498757903187958 L 1510.1794270648422 20.586555572577744 L 1510.1226889998154 20.674101136340735 L 1510.0640171899586 20.7613858399935 L 1510.0034175024039 20.848400955138427 L 1509.9408959970697 20.935137780336497 L 1509.8764589260543 21.021587641977483 L 1509.8101127330112 21.107741895147257 L 1509.7418640525043 21.193591924492296 L 1509.6717197093449 21.279129145081207 L 1509.5996867179088 21.364345003263217 L 1509.5257722814351 21.449230977523516 L 1509.449983791306 21.533778579335415 L 1509.3723288263072 21.617979354009194 L 1509.2928151518706 21.701824881537547 L 1509.2114507192973 21.785306777437597 L 1509.1282436649626 21.868416693589317 L 1509.043202309503 21.951146319070357 L 1508.9563351569827 22.033487380987104 L 1508.8676508940448 22.115431645301985 L 1508.777158389042 22.196970917656856 L 1508.6848666911487 22.278097044192428 L 1508.5907850294584 22.35880191236366 L 1508.4949228120586 22.43907745175098 L 1508.3972896250912 22.518915634867348 L 1508.2978952317933 22.598308477960988 L 1508.1967495715219 22.677248041813744 L 1508.0938627587584 22.75572643253502 L 1507.9892450820983 22.83373580235114 L 1507.8829070032223 22.911268350390124 L 1507.7748591558493 22.988316323461788 L 1507.6651123446745 23.06487201683303 L 1507.5536775442872 23.140927774998303 L 1507.440565898075 23.216475992445172 L 1507.3257887171076 23.291509114414854 L 1507.2093574790078 23.366019637657672 L 1507.0912838268027 23.4400001111834 L 1506.9715795677585 23.51344313700633 L 1506.8502566722018 23.586341370885087 L 1506.727327272321 23.658687523057033 L 1506.6028036609534 23.73047435896723 L 1506.4766982903566 23.801694699991916 L 1506.3490237709625 23.872341424156335 L 1506.2197928701169 23.942407466846948 L 1506.0890185108017 24.011885821517872 L 1505.956713770344 24.080769540391536 L 1505.8228918791078 24.149051735153456 L 1505.6875662191705 24.216725577641057 L 1505.5507503229856 24.283784300526488 L 1505.4124578720284 24.350221197993342 L 1505.272702695429 24.416029626407234 L 1505.1314987685885 24.481203004980163 L 1504.9888602117817 24.54573481642858 L 1504.8448012887457 24.609618607625126 L 1504.6993364052526 24.67284799024391 L 1504.5524801076697 24.73541664139936 L 1504.404247081504 24.797318304278505 L 1504.2546521499353 24.858546788766642 L 1504.1037102723312 24.919095972066344 L 1503.9514365427544 24.978959799309735 L 1503.7978461884506 25.038132284163982 L 1503.6429545683275 25.09660750942991 L 1503.4867771714175 25.154379627633716 L 1503.3293296153308 25.21144286161173 L 1503.1706276446914 25.267791505088102 L 1503.0106871295643 25.323419923245446 L 1502.8495240638676 25.378322553288296 L 1502.6871545637737 25.432493904999404 L 1502.523594866097 25.48592856128874 L 1502.3588613266716 25.53862117873521 L 1502.1929704187135 25.59056648812097 L 1502.0259387311753 25.641759294958376 L 1501.8577829670871 25.692194480009405 L 1501.6885199418848 25.741866999797576 L 1501.5181665817297 25.790771887112307 L 1501.3467399218164 25.838904251505618 L 1501.1742571046675 25.886259279781186 L 1501.000735378421 25.932832236475637 L 1500.8261920951054 25.978618464332122 L 1500.6506447089034 26.023613384766 L 1500.4741107744069 26.06781249832273 L 1500.296607944863 26.11121138512779 L 1500.1181539704057 26.153805705328658 L 1499.9387666962848 26.195591199528817 L 1499.7584640610776 26.236563689213664 L 1499.5772640948976 26.276719077168373 L 1499.39518491759 26.316053347887618 L 1499.2122447369215 26.354562567977098 L 1499.0284618467574 26.392242886546896 L 1498.8438546252335 26.429090535596558 L 1498.658441532918 26.46510183039188 L 1498.4722411109658 26.5002731698334 L 1498.2852719792638 26.534601036816476 L 1498.0975528345696 26.568081998583022 L 1497.909102448641 26.60071270706476 L 1497.7199396663596 26.63248989921803 L 1497.5300834038462 26.663410397350102 L 1497.3395526465686 26.693471109436928 L 1497.1483664474438 26.722669029432353 L 1496.9565439249322 26.7510012375687 L 1496.7641042611267 26.77846490064878 L 1496.571066699833 26.805057272329158 L 1496.3774505446463 26.830775693394834 L 1496.183275157021 26.855617592025126 L 1495.9885599543338 26.879580484050884 L 1495.793324407943 26.90266197320286 L 1495.59758804124 26.924859751351384 L 1495.401370427699 26.946171598737138 L 1495.2046911889174 26.96659538419314 L 1495.0075699926556 26.986129065357865 L 1494.8100265508685 27.00477068887948 L 1494.612080617736 27.022518390611154 L 1494.413751987686 27.03937039579752 L 1494.215060493417 27.055325019252088 L 1494.0160260039122 27.070380665525818 L 1493.8166684224548 27.084535829066628 L 1493.617007684637 27.097789094369954 L 1493.4170637563661 27.110139136120317 L 1493.2168566318683 27.121584719323828 L 1493.0164063316893 27.132124699431706 L 1492.8157329006917 27.141758022454724 L 1492.614856406052 27.15048372506861 L 1492.4137969352519 27.15830093471037 L 1492.212574594071 27.165208869665555 L 1492.0112095045756 27.17120683914643 L 1491.8097218031069 27.176294243361042 L 1491.6081316382672 27.180470573573206 L 1491.4064591689053 27.18373541215339 L 1491.2047245620993 27.186088432620444 L 1491.0029479911425 27.18752939967429 L 1490.8011496335234 27.188058169219428 L 1490.59934966891 27.187674688379335 L 1490.3975682771304 27.186378995501777 L 1490.1958256361554 27.184171220154965 L 1489.9941419200813 27.181051583114595 L 1489.7925372971115 27.17702039634177 L 1489.5910319275401 27.172078062951805 L 1489.3896459617367 27.166225077173927 L 1489.1883995381295 27.159462024301828 L 1488.9873127811934 27.15178958063516 L 1488.7864057994366 27.143208513411906 L 1488.5856986833894 27.13371968073163 L 1488.3852115035968 27.12332403146969 L 1488.1849643086093 27.112022605182354 L 1487.9849771229797 27.099816532002833 L 1487.7852699452596 27.086707032528267 L 1487.5858627460009 27.072695417697688 L 1487.3867754657567 27.057783088660898 L 1487.1880280130897 27.041971536638375 L 1486.989640262579 27.025262342772145 L 1486.791632052835 27.007657177967666 L 1486.5940231845132 26.98915780272675 L 1486.3968334183357 26.96976606697151 L 1486.2000824731151 26.94948390985936 L 1486.0037900237817 26.928313359589104 L 1485.807975699417 26.906256533198132 L 1485.6126590812903 26.883315636350694 L 1485.4178597009004 26.859492963117372 L 1485.2235970380232 26.834790895745627 L 1485.0298905187633 26.809211904421616 L 1484.8367595136108 26.78275854702315 L 1484.6442233355056 26.755433468863927 L 1484.4523012379047 26.727239402428996 L 1484.2610124128582 26.6981791671015 L 1484.0703759890891 26.668255668880757 L 1483.8804110300812 26.637471900091654 L 1483.6911365321719 26.605830939085415 L 1483.5025714226529 26.573335949931778 L 1483.3147345578784 26.53999018210257 L 1483.1276447213786 26.505796970146797 L 1482.9413206219806 26.470759733357152 L 1482.7557808919396 26.43488197542812 L 1482.5710440850735 26.398167284105593 L 1482.3871286749095 26.360619330828115 L 1482.2040530528352 26.32224187035971 L 1482.0218355262602 26.28303874041446 L 1481.8404943167855 26.243013861272683 L 1481.6600475583805 26.20217123538894 L 1481.480513295571 26.160514946991775 L 1481.3019094816336 26.11804916167533 L 1481.124253976801 26.07477812598274 L 1480.9475645464754 26.03070616698151 L 1480.7718588594525 25.985837691830824 L 1480.597154486155 25.940177187340804 L 1480.4234688968745 25.893729219523845 L 1480.250819460025 25.846498433138024 L 1480.0792234404064 25.798489551222623 L 1479.9086979974775 25.74970737462582 L 1479.739260183641 25.700156781524633 L 1479.5709269425365 25.64984272693707 L 1479.403715107348 25.59877024222667 L 1479.23764139912 25.546944434599336 L 1479.0727224250847 25.49437048659265 L 1478.9089746770019 25.441053655557596 L 1478.7464145295103 25.386999273132844 L 1478.585058238489 25.3322127447116 L 1478.4249219394324 25.27669954890105 L 1478.2660216458373 25.220465236974505 L 1478.1083732476006 25.163515432316306 L 1477.9519925094307 25.105855829859454 L 1477.7968950692712 25.04749219551615 L 1477.6430964367364 24.98843036560119 L 1477.490611991562 24.928676246248344 L 1477.3394569820653 24.86823581281976 L 1477.189646523621 24.807115109308405 L 1477.0411955971504 24.74532024773371 L 1476.894119047622 24.68285740753032 L 1476.7484315825689 24.61973283493021 L 1476.6041477706158 24.555952842338044 L 1476.4612820400234 24.49152380769992 L 1476.3198486772462 24.42645217386562 L 1476.1798618255023 24.360744447944292 L 1476.0413354833604 24.294407200653783 L 1475.904283503339 24.227447065663533 L 1475.7687195905223 24.159870738931243 L 1475.6346573011883 24.09168497803327 L 1475.5021100414542 24.022896601488892 L 1475.3710910659358 23.95351248807843 L 1475.2416134764212 23.883539576155414 L 1475.1136902205617 23.812984862952717 L 1474.987334090576 23.741855403882866 L 1474.8625577219718 23.6701583118325 L 1474.7393735922824 23.597900756451068 L 1474.6177940198177 23.5250899634339 L 1474.4978311624338 23.451733213799617 L 1474.3794970163162 23.377837843162055 L 1474.2628034147815 23.303411240996702 L 1474.147762027092 23.228460849901744 L 1474.034384357291 23.15299416485384 L 1473.9226817430506 23.077018732458605 L 1473.8126653545396 23.00054215019596 L 1473.704346193305 22.923572065660405 L 1473.5977350911724 22.846116175796254 L 1473.4928427091636 22.768182226127944 L 1473.389679536429 22.6897780099855 L 1473.2882558892002 22.610911367725194 L 1473.188581909757 22.53159018594554 L 1473.0906675654148 22.451822396698603 L 1472.9945226475263 22.37161597669684 L 1472.900156770503 22.29097894651542 L 1472.8075793708538 22.209919369790153 L 1472.716799706242 22.128445352411166 L 1472.627826854558 22.046565041712302 L 1472.5406697130131 21.9642866256564 L 1472.4553369972487 21.881618332016497 L 1472.3718372404653 21.79856842755307 L 1472.290178792569 21.715145217187356 L 1472.2103698193364 21.631357043170873 L 1472.1324183015986 21.547212284251195 L 1472.056332034442 21.4627193548341 L 1471.9821186264303 21.377886704142114 L 1471.9097854988422 21.29272281536962 L 1471.8393398849305 21.207236204834516 L 1471.7707888291975 21.12143542112662 L 1471.704139186692 21.03532904425281 L 1471.6393976223223 20.948925684779006 L 1471.5765706101913 20.862233982969162 L 1471.5156644329477 20.77526260792121 L 1471.4566851811585 20.688020256700185 L 1471.3996387526995 20.600515653468506 L 1471.3445308521664 20.51275754861357 L 1471.2913669903028 20.424754717872737 L 1471.240152483451 20.336515961455746 L 1471.1908924530192 20.2480501031647 L 1471.1435918249688 20.159365989511716 L 1471.0982553293236 20.07047248883425 L 1471.0548874996953 19.98137849040829 L 1471.0134926728306 19.89209290355944 L 1470.9740749881778 19.80262465677198 L 1470.9366383874726 19.712982696796026 L 1470.9011866143437 19.62317598775288 L 1470.867723213939 19.533213510238607 L 1470.8362515325705 19.443104260425986 L 1470.8067747173802 19.352857249164913 L 1470.7792957160252 19.262481501081304 L 1470.7538172763825 19.171986053674658 L 1470.730341946275 19.0813799564143 L 1470.708872073216 18.99067226983445 L 1470.6894098041753 18.899872064628184 L 1470.671957085363 18.80898842074035 L 1470.6565156620368 18.7180304264596 L 1470.643087078326 18.627007177509565 L 1470.6316726770779 18.53592777613929 L 1470.622273599723 18.44480133021301 L 1470.6148907861616 18.35363695229938 L 1470.6095249746684 18.26244375876022 L 1470.6061767018202 18.171230868838894 L 1470.6048463024415 18.08000740374838 L 1470.6055339095712 17.98878248575917 L 1470.6082394544494 17.89756523728704 L 1470.6129626665233 17.80636477998082 L 1470.619703073476 17.71519023381025 L 1470.6284600012727 17.624050716153963 L 1470.6392325742272 17.532955340887774 L 1470.652019715092 17.4419132174733 L 1470.6668201451628 17.350933450047012 L 1470.6836323844095 17.26002513650984 L 1470.702454751622 17.16919736761737 L 1470.7232853645794 17.07845922607082 L 1470.7461221402375 16.987819785608714 L 1470.7709627949382 16.897288110099574 L 1470.7978048446364 16.8068732526355 L 1470.8266456051495 16.716584254626905 L 1470.8574821924256 16.62643014489834 L 1470.8903115228316 16.536419938785652 L 1470.9251303134618 16.446562637234447 L 1470.961935082466 16.356867225899993 L 1471.0007221493984 16.26734267424868 L 1471.0414876355844 16.177997934661075 L 1471.0842274645092 16.08884194153668 L 1471.1289373622258 15.999883610400506 L 1471.1756128577815 15.911131837011538 L 1471.2242492836658 15.82259549647316 L 1471.2748417762764 15.734283442345639 L 1471.3273852764064 15.6462045057608 L 1471.3818745297494 15.558367494538897 L 1471.4383040874256 15.47078119230786 L 1471.4966683065263 15.383454357624922 L 1471.5569613506782 15.296395723100778 L 1471.619177190627 15.209613994526332 L 1471.6833096048406 15.123117850002128 L 1471.7493521801312 15.036915939070532 L 1471.817298312296 14.951016881850805 L 1471.8871412067788 14.865429268177088 L 1471.958873879348 14.780161656739425 L 1472.0324891567964 14.695222574227904 L 1472.1079796776573 14.610620514479992 L 1472.1853378929416 14.526363937631164 L 1472.2645560668925 14.44246126926889 L 1472.3456262777584 14.358920899590089 L 1472.4285404185855 14.27575118256211 L 1472.5132901980294 14.19296043508735 L 1472.5998671411826 14.110556936171564 L 1472.6882625904225 14.028548926095976 L 1472.7784677062784 13.946944605593249 L 1472.8704734683135 13.865752135027433 L 1472.9642706760285 13.784979633577926 L 1473.0598499497808 13.704635178427559 L 1473.1572017317226 13.624726803954896 L 1473.2563162867566 13.545262500930793 L 1473.3571837035101 13.466250215719334 L 1473.4597938953257 13.387697849483194 L 1473.5641366012694 13.30961325739354 L 1473.6702013871577 13.23200424784451 L 1473.7779776466004 13.154878581672381 L 1473.8874546020613 13.078243971379504 L 1473.9986213059362 13.002108080363044 L 1474.1114666416472 12.926478522148656 L 1474.225979324755 12.851362859629138 L 1474.3421479040862 12.776768604308145 L 1474.4599607628802 12.702703215549048 L 1474.5794061199492 12.629174099829003 L 1474.7004720308569 12.556188609998305 L 1474.8231463891132 12.483754044545117 L 1474.9474169273844 12.411877646865625 L 1475.0732712187205 12.340566604539697 L 1475.2006966777967 12.26982804861214 L 1475.329680562174 12.199669052879603 L 1475.4602099735707 12.130096633183188 L 1475.592271859155 12.06111774670689 L 1475.7258530128481 11.992739291281874 L 1475.860940076646 11.924968104696699 L 1475.9975195419552 11.857810964013552 L 1476.1355777509425 11.791274584890534 L 1476.2751008979021 11.725365620910111 L 1476.416075030636 11.660090662913756 L 1476.5584860518481 11.595456238342878 L 1476.702319720555 11.531468810586066 L 1476.8475616535097 11.468134778332775 L 1476.9941973266398 11.405460474933456 L 1477.1422120765003 11.343452167766216 L 1477.2915911017396 11.282116057610097 L 1477.44231946458 11.221458278025008 L 1477.59438209231 11.16148489473835 L 1477.747763778794 11.10220190503848 L 1477.9024491859914 11.043615237174969 L 1478.05842284549 10.985730749765775 L 1478.2156691600542 10.928554231211407 L 1478.3741724051831 10.87209139911607 L 1478.5339167306845 10.816347899715922 L 1478.6948861622593 10.76132930731445 L 1478.8570646030978 10.707041123725045 L 1479.0204358354918 10.653488777720831 L 1479.1849835224536 10.600677624491773 L 1479.3506912093521 10.548612945109191 L 1479.5175423255562 10.497299945997636 L 1479.6855201860938 10.446743758414254 L 1479.8546079933185 10.396949437935678 L 1480.024788838591 10.347921963952459 L 1480.1960457039677 10.299666239171138 L 1480.3683614639053 10.252187089123984 L 1480.5417188869717 10.20548926168643 L 1480.7161006375686 10.159577426602311 L 1480.8914892776663 10.114456175016873 L 1481.0678672685472 10.070130019017672 L 1481.2452169725589 10.026603391183372 L 1481.423520654879 9.983880644140482 L 1481.6027604852877 9.941966050128107 L 1481.7829185399514 9.900863800570718 L 1481.9639768032148 9.86057800565902 L 1482.1459171694025 9.82111269393893 L 1482.3287214446293 9.782471811908737 L 1482.5123713486203 9.744659223624438 L 1482.6968485165378 9.707678710313356 L 1482.882134500819 9.671533969996 L 1483.0682107730197 9.636228617116288 L 1483.2550587256678 9.60176618218008 L 1483.442659674124 9.568150111402154 L 1483.6309948584494 9.535383766361576 L 1483.8200454452826 9.503470423665544 L 1484.0097925297227 9.472413274621731 L 1484.2002171372192 9.442215424919162 L 1484.3913002254699 9.412879894317644 L 1484.5830226863254 9.384409616345788 L 1484.7753653476996 9.35680743800767 L 1484.968308975486 9.330076119498116 L 1485.1618342754832 9.304218333926707 L 1485.3559218953224 9.27923666705045 L 1485.5505524264029 9.255133617015213 L 1485.7457064058344 9.231911594105915 L 1485.9413643183811 9.209572920505497 L 1486.137506598415 9.1881198300627 L 1486.3341136318716 9.167554468068694 L 1486.5311657582113 9.147878891042538 L 1486.7286432723859 9.129095066525542 L 1486.926526426808 9.1112048728845 L 1487.1247954333276 9.09421009912387 L 1487.323430465209 9.078112444706866 L 1487.5224116591146 9.062913519385516 L 1487.721719117091 9.048614843039683 L 1487.9213329085583 9.03521784552509 L 1488.1212330723035 9.022723866530322 L 1488.3213996184772 9.011134155442866 L 1488.5218125305914 9.000449871224175 L 1488.722451767522 8.990672082293766 L 1488.9232972655125 8.981801766422386 L 1489.1243289401802 8.973839810634226 L 1489.3255266885255 8.966787011118234 L 1489.5268703909412 8.960644073148481 L 1489.7283399132245 8.955411611013648 L 1489.9299151085916 8.951090147955588 L 1490.1315758196904 8.947680116117002 L 1490.3333018806181 8.945181856498236 L 1490.5350731189367 8.943595618923167 L 1490.7368693576907 8.942921562014233 L 1490.938670417424 8.94315975317656 L 1491.140456118199 8.944310168591237 L 1491.3422062816137 8.946372693217674 L 1491.54390073282 8.949347120805129 L 1491.745519302541 8.953233153913324 L 1491.9470418290873 8.958030403942185 L 1492.1484481603745 8.963738391170708 L 1492.3497181559374 8.970356544804925 L 1492.5508316889436 8.97788420303499 L 1492.751768648208 8.98632061310135 L 1492.952508940202 8.99566493137003 L 1493.1530324910636 9.00591622341699 L 1493.353319248605 9.017073464121571 L 1493.5533491843169 9.029135537768996 L 1493.7531022953726 9.042101238161953 L 1493.952558606628 9.055969268741208 L 1494.1516981726172 9.070738242715262 L 1494.3505010795504 9.086406683199021 L 1494.5489474473022 9.102973023361494 L 1494.7470174314012 9.120435606582474 L 1494.9446912250141 9.138792686618187 L 1495.1419490609262 9.158042427775927 L 1495.3387712135186 9.178182905097621 L 1495.5351380007396 9.199212104552322 L 1495.7310297860745 9.221127923237606 L 1495.9264269805076 9.243928169589871 L 1496.1213100444827 9.267610563603478 L 1496.3156594898555 9.292172737058763 L 1496.5094558818437 9.317612233758847 L 1496.7026798409695 9.343926509775264 L 1496.8953120449978 9.371112933702335 L 1497.087333230869 9.399168786920328 L 1497.2787241966244 9.428091263867296 L 1497.4694658033268 9.45787747231965 L 1497.6595389769748 9.488524433681365 L 1497.848924710409 9.520029083281843 L 1498.0376040652143 9.55238827068238 L 1498.2255581736122 9.585598759991202 L 1498.4127682403484 9.619657230187048 L 1498.5992155445726 9.654560275451288 L 1498.7848814417096 9.690304405508478 L 1498.969747365324 9.726886045975398 L 1499.1537948289783 9.764301538718486 L 1499.3370054280788 9.802547142219648 L 1499.5193608417185 9.841619031950406 L 1499.700842834508 9.881513300754346 L 1499.8814332583993 9.92222595923783 L 1500.0611140545006 9.963752936168941 L 1500.2398672548818 10.00609007888459 L 1500.4176749843718 10.049233153705785 L 1500.594519462346 10.093177846360998 L 1500.7703830045039 10.137919762417582 L 1500.945248024638 10.18345442772122 L 1501.1190970363916 10.229777288843323 L 1501.2919126550087 10.276883713536382 L 1501.4636775990716 10.324768991197185 L 1501.6343746922287 10.373428333337866 L 1501.803986864913 10.422856874064767 L 1501.9724971560488 10.473049670564997 L 1502.139888714747 10.52400170360074 L 1502.3061448019916 10.575707878011151 L 1502.4712487923125 10.628163023221877 L 1502.6351841754479 10.681361893762105 L 1502.797934557996 10.73529916978912 L 1502.9594836650547 10.789969457620263 L 1503.1198153418477 10.84536729027231 L 1503.2789135553408 10.90148712800816 L 1503.436762395845 10.958323358890807 L 1503.5933460786084 11.015870299344526 L 1503.748648945393 11.074122194723225 L 1503.902655466041 11.133073219885913 L 1504.0553502400294 11.192717479779198 L 1504.2067179980077 11.253049010026789 L 1504.3567436033263 11.314061777525946 L 1504.50541205355 11.375749681050758 L 1504.6527084819568 11.43810655186228 L 1504.7986181590275 11.501126154325393 L 1504.9431264939155 11.564802186532368 L 1505.086219035908 11.629128280933049 L 1505.22788147587 11.6940980049716 L 1505.368099647675 11.759704861729757 L 1505.5068595296236 11.825942290576517 L 1505.6441472458428 11.892803667824193 L 1505.7799490676753 11.96028230739078 L 1505.914251415052 12.02837146146855 L 1506.0470408578503 12.097064321198838 L 1506.1783041172366 12.166354017352914 L 1506.3080280669942 12.236233621018904 L 1506.4361997348362 12.306696144294676 L 1506.562806303703 12.377734540986618 L 1506.6878351130426 12.449341707314261 L 1506.8112736600788 12.521510482620645 L 1506.9331096010594 12.594233650088377 L 1507.053330752492 12.667503937461316 L 1507.1719250923616 12.741314017771781 L 1507.288880761333 12.815656510073252 L 1507.404186063937 12.890523980178447 L 1507.5178294697394 12.965908941402748 L 1507.6297996144938 13.04180385531285 L 1507.7400853012796 13.11820113248061 L 1507.84867550162 13.195093133241976 L 1507.955559356585 13.272472168460947 L 1508.0607261778785 13.350330500298481 L 1508.164165448906 13.42866034298628 L 1508.2658668258266 13.507453863605349 L 1508.3658201385874 13.586703182869286 L 1508.4640153919404 13.666400375912204 L 1508.5604427664418 13.746537473081217 L 1508.655092619435 13.827106460733386 L 1508.747955486013 13.908099282037085 L 1508.8390220799672 13.989507837777682 L 1508.9282832947135 14.071323987167439 L 1509.0157302042053 14.1535395486596 L 1509.1013540638241 14.236146300766524 L 1509.1851463112555 14.319135982881845 L 1509.2670985673444 14.402500296106505 L 1509.3472026369338 14.486230904078653 L 1509.4254505096833 14.570319433807267 L 1509.5018343608708 14.654757476509447 L 1509.576346552175 14.739536588451287 L 1509.6489796324388 14.824648291792245 L 1509.7197263384146 14.910084075432911 L 1509.7885795954908 14.995835395866116 L 1509.855532518399 15.081893678031278 L 1509.9205784119029 15.168250316171896 L 1509.983710771467 15.254896674696116 L 1510.0449232839085 15.341824089040294 L 1510.1042098280268 15.429023866535433 L 1510.161564475217 15.516487287276451 L 1510.216981490062 15.604205604994158 L 1510.2704553309065 15.692170047929883 L 1510.3219806504114 15.780371819712634 L 1510.3715522960874 15.868802100238737 L 1510.419165310811 15.957452046553826 L 1510.464814933321 16.046312793737147 L 1510.5084965986923 16.135375455788033 L 1510.5502059387957 16.2246311265145 L 1510.5899387827315 16.314070880423845 L 1510.6276911572481 16.40368577361522 L 1510.6634592871403 16.49346684467398 L 1510.6972395956243 16.583405115567835 L 1510.7290287046976 16.67349159254465 L 1510.7588234354757 16.763717267031794 L 1510.7866208085106 16.85407311653701 L 1510.812418044088 16.944550105550636 L 1510.8362125625056 17.03513918644918 L 1510.8580019843318 17.12583130040003 L 1510.8777841306423 17.216617378267376 L 1510.895557023239 17.307488341519083 L 1510.9113188848476 17.398435103134553 L 1510.9250681392948 17.48944856851341 L 1510.936803411667 17.580519636384963 L 1510.9465235284463 17.67163919971832 L 1510.9542275176295 17.762798146633074 L 1510.9599146088237 17.8539873613105 L 1510.963584233325 17.945197724905128 L 1510.9652360241737 18.0364201164566 M 1510.965338400375 47.09187800570001 L 1510.964329395841 47.18310231293715 L 1510.961302483139 47.27431749781959 L 1510.9562579649576 47.365514438904846 L 1510.9491963457444 47.45668401657481 L 1510.9401183316554 47.547817113947694 L 1510.9290248304844 47.638904617789706 L 1510.9159169515724 47.729937419426356 L 1510.9007960056963 47.82090641565335 L 1510.883663504938 47.91180250964687 L 1510.8645211625337 48.002616611873265 L 1510.8433708927012 48.09333964099798 L 1510.8202148104501 48.18396252479373 L 1510.7950552313694 48.27447620104763 L 1510.7678946713959 48.36487161846748 L 1510.7387358465628 48.45513973758689 L 1510.7075816727286 48.54527153166916 L 1510.6744352652845 48.63525798760998 L 1510.6392999388438 48.72509010683876 L 1510.6021792069098 48.81475890621844 L 1510.5630767815246 48.90425541894379 L 1510.5219965728984 48.99357069543812 L 1510.4789426890177 49.082695804248225 L 1510.433919435235 49.17162183293748 L 1510.3869313138384 49.26033988897713 L 1510.3379830236006 49.34884110063549 L 1510.2870794593098 49.43711661786516 L 1510.23422571128 49.525157613187965 L 1510.1794270648422 49.61295528257775 L 1510.1226889998154 49.70050084634074 L 1510.0640171899586 49.78778554999351 L 1510.0034175024039 49.87480066513843 L 1509.9408959970697 49.961537490336504 L 1509.8764589260543 50.04798735197749 L 1509.8101127330112 50.134141605147256 L 1509.7418640525043 50.2199916344923 L 1509.6717197093449 50.305528855081214 L 1509.5996867179088 50.39074471326322 L 1509.5257722814351 50.47563068752352 L 1509.449983791306 50.56017828933542 L 1509.3723288263072 50.64437906400919 L 1509.2928151518706 50.72822459153755 L 1509.2114507192973 50.8117064874376 L 1509.1282436649626 50.894816403589324 L 1509.043202309503 50.97754602907036 L 1508.9563351569827 51.059887090987104 L 1508.8676508940448 51.14183135530199 L 1508.777158389042 51.22337062765686 L 1508.6848666911487 51.304496754192435 L 1508.5907850294584 51.38520162236367 L 1508.4949228120586 51.46547716175098 L 1508.3972896250912 51.545315344867355 L 1508.2978952317933 51.62470818796099 L 1508.1967495715219 51.70364775181375 L 1508.0938627587584 51.78212614253502 L 1507.9892450820983 51.86013551235114 L 1507.8829070032223 51.93766806039013 L 1507.7748591558493 52.014716033461795 L 1507.6651123446745 52.09127172683303 L 1507.5536775442872 52.1673274849983 L 1507.440565898075 52.242875702445176 L 1507.3257887171076 52.31790882441486 L 1507.2093574790078 52.39241934765768 L 1507.0912838268027 52.4663998211834 L 1506.9715795677585 52.539842847006334 L 1506.8502566722018 52.612741080885094 L 1506.727327272321 52.68508723305703 L 1506.6028036609534 52.756874068967235 L 1506.4766982903566 52.82809440999192 L 1506.3490237709625 52.89874113415634 L 1506.2197928701169 52.96880717684695 L 1506.0890185108017 53.03828553151787 L 1505.956713770344 53.107169250391536 L 1505.8228918791078 53.175451445153456 L 1505.6875662191705 53.243125287641064 L 1505.5507503229856 53.31018401052649 L 1505.4124578720284 53.37662090799334 L 1505.272702695429 53.44242933640724 L 1505.1314987685885 53.507602714980166 L 1504.9888602117817 53.572134526428584 L 1504.8448012887457 53.63601831762513 L 1504.6993364052526 53.699247700243916 L 1504.5524801076697 53.76181635139937 L 1504.404247081504 53.82371801427851 L 1504.2546521499353 53.884946498766645 L 1504.1037102723312 53.945495682066344 L 1503.9514365427544 54.00535950930974 L 1503.7978461884506 54.064531994163985 L 1503.6429545683275 54.123007219429915 L 1503.4867771714175 54.18077933763372 L 1503.3293296153308 54.237842571611736 L 1503.1706276446914 54.294191215088105 L 1503.0106871295643 54.349819633245446 L 1502.8495240638676 54.4047222632883 L 1502.6871545637737 54.45889361499941 L 1502.523594866097 54.512328271288744 L 1502.3588613266716 54.56502088873521 L 1502.1929704187135 54.61696619812098 L 1502.0259387311753 54.66815900495838 L 1501.8577829670871 54.718594190009405 L 1501.6885199418848 54.76826670979758 L 1501.5181665817297 54.817171597112306 L 1501.3467399218164 54.865303961505624 L 1501.1742571046675 54.912658989781185 L 1501.000735378421 54.95923194647564 L 1500.8261920951054 55.00501817433212 L 1500.6506447089034 55.050013094766 L 1500.4741107744069 55.09421220832273 L 1500.296607944863 55.137611095127795 L 1500.1181539704057 55.180205415328665 L 1499.9387666962848 55.22199090952882 L 1499.7584640610776 55.26296339921367 L 1499.5772640948976 55.30311878716838 L 1499.39518491759 55.342453057887624 L 1499.2122447369215 55.3809622779771 L 1499.0284618467574 55.418642596546896 L 1498.8438546252335 55.45549024559656 L 1498.658441532918 55.49150154039188 L 1498.4722411109658 55.5266728798334 L 1498.2852719792638 55.56100074681648 L 1498.0975528345696 55.594481708583025 L 1497.909102448641 55.627112417064765 L 1497.7199396663596 55.658889609218036 L 1497.5300834038462 55.689810107350105 L 1497.3395526465686 55.719870819436935 L 1497.1483664474438 55.74906873943235 L 1496.9565439249322 55.77740094756871 L 1496.7641042611267 55.80486461064878 L 1496.571066699833 55.83145698232916 L 1496.3774505446463 55.857175403394834 L 1496.183275157021 55.88201730202513 L 1495.9885599543338 55.90598019405088 L 1495.793324407943 55.92906168320286 L 1495.59758804124 55.95125946135139 L 1495.401370427699 55.972571308737145 L 1495.2046911889174 55.99299509419315 L 1495.0075699926556 56.01252877535787 L 1494.8100265508685 56.03117039887948 L 1494.612080617736 56.04891810061116 L 1494.413751987686 56.065770105797526 L 1494.215060493417 56.081724729252095 L 1494.0160260039122 56.096780375525825 L 1493.8166684224548 56.11093553906663 L 1493.617007684637 56.12418880436996 L 1493.4170637563661 56.13653884612032 L 1493.2168566318683 56.14798442932383 L 1493.0164063316893 56.158524409431706 L 1492.8157329006917 56.16815773245473 L 1492.614856406052 56.17688343506861 L 1492.4137969352519 56.184700644710375 L 1492.212574594071 56.19160857966556 L 1492.0112095045756 56.197606549146435 L 1491.8097218031069 56.20269395336105 L 1491.6081316382672 56.20687028357321 L 1491.4064591689053 56.21013512215339 L 1491.2047245620993 56.212488142620444 L 1491.0029479911425 56.2139291096743 L 1490.8011496335234 56.21445787921943 L 1490.59934966891 56.21407439837934 L 1490.3975682771304 56.21277870550178 L 1490.1958256361554 56.21057093015497 L 1489.9941419200813 56.2074512931146 L 1489.7925372971115 56.203420106341774 L 1489.5910319275401 56.19847777295181 L 1489.3896459617367 56.192624787173926 L 1489.1883995381295 56.18586173430183 L 1488.9873127811934 56.17818929063517 L 1488.7864057994366 56.16960822341191 L 1488.5856986833894 56.16011939073163 L 1488.3852115035968 56.14972374146969 L 1488.1849643086093 56.13842231518235 L 1487.9849771229797 56.12621624200283 L 1487.7852699452596 56.113106742528274 L 1487.5858627460009 56.099095127697694 L 1487.3867754657567 56.084182798660905 L 1487.1880280130897 56.06837124663838 L 1486.989640262579 56.051662052772144 L 1486.791632052835 56.034056887967665 L 1486.5940231845132 56.01555751272676 L 1486.3968334183357 55.996165776971516 L 1486.2000824731151 55.97588361985936 L 1486.0037900237817 55.954713069589104 L 1485.807975699417 55.93265624319813 L 1485.6126590812903 55.9097153463507 L 1485.4178597009004 55.885892673117375 L 1485.2235970380232 55.861190605745634 L 1485.0298905187633 55.835611614421616 L 1484.8367595136108 55.80915825702316 L 1484.6442233355056 55.781833178863934 L 1484.4523012379047 55.753639112429 L 1484.2610124128582 55.72457887710151 L 1484.0703759890891 55.69465537888076 L 1483.8804110300812 55.66387161009166 L 1483.6911365321719 55.63223064908542 L 1483.5025714226529 55.59973565993178 L 1483.3147345578784 55.56638989210258 L 1483.1276447213786 55.5321966801468 L 1482.9413206219806 55.497159443357155 L 1482.7557808919396 55.46128168542812 L 1482.5710440850735 55.4245669941056 L 1482.3871286749095 55.387019040828115 L 1482.2040530528352 55.34864158035972 L 1482.0218355262602 55.30943845041446 L 1481.8404943167855 55.269413571272686 L 1481.6600475583805 55.22857094538894 L 1481.480513295571 55.18691465699178 L 1481.3019094816336 55.14444887167533 L 1481.124253976801 55.10117783598274 L 1480.9475645464754 55.05710587698152 L 1480.7718588594525 55.01223740183083 L 1480.597154486155 54.96657689734081 L 1480.4234688968745 54.92012892952385 L 1480.250819460025 54.87289814313803 L 1480.0792234404064 54.82488926122262 L 1479.9086979974775 54.77610708462583 L 1479.739260183641 54.72655649152463 L 1479.5709269425365 54.67624243693707 L 1479.403715107348 54.62516995222667 L 1479.23764139912 54.57334414459934 L 1479.0727224250847 54.52077019659265 L 1478.9089746770019 54.467453365557596 L 1478.7464145295103 54.41339898313285 L 1478.585058238489 54.358612454711604 L 1478.4249219394324 54.30309925890105 L 1478.2660216458373 54.24686494697451 L 1478.1083732476006 54.18991514231631 L 1477.9519925094307 54.13225553985946 L 1477.7968950692712 54.073891905516156 L 1477.6430964367364 54.014830075601196 L 1477.490611991562 53.95507595624835 L 1477.3394569820653 53.89463552281976 L 1477.189646523621 53.83351481930841 L 1477.0411955971504 53.77171995773371 L 1476.894119047622 53.70925711753032 L 1476.7484315825689 53.64613254493022 L 1476.6041477706158 53.582352552338044 L 1476.4612820400234 53.51792351769993 L 1476.3198486772462 53.45285188386562 L 1476.1798618255023 53.3871441579443 L 1476.0413354833604 53.320806910653786 L 1475.904283503339 53.25384677566353 L 1475.7687195905223 53.186270448931246 L 1475.6346573011883 53.11808468803328 L 1475.5021100414542 53.049296311488895 L 1475.3710910659358 52.97991219807844 L 1475.2416134764212 52.909939286155414 L 1475.1136902205617 52.83938457295272 L 1474.987334090576 52.76825511388287 L 1474.8625577219718 52.6965580218325 L 1474.7393735922824 52.62430046645107 L 1474.6177940198177 52.5514896734339 L 1474.4978311624338 52.47813292379962 L 1474.3794970163162 52.40423755316206 L 1474.2628034147815 52.3298109509967 L 1474.147762027092 52.25486055990175 L 1474.034384357291 52.179393874853844 L 1473.9226817430506 52.103418442458604 L 1473.8126653545396 52.02694186019596 L 1473.704346193305 51.94997177566041 L 1473.5977350911724 51.87251588579626 L 1473.4928427091636 51.79458193612795 L 1473.389679536429 51.7161777199855 L 1473.2882558892002 51.6373110777252 L 1473.188581909757 51.55798989594554 L 1473.0906675654148 51.47822210669861 L 1472.9945226475263 51.398015686696844 L 1472.900156770503 51.31737865651542 L 1472.8075793708538 51.23631907979016 L 1472.716799706242 51.15484506241117 L 1472.627826854558 51.072964751712306 L 1472.5406697130131 50.990686335656406 L 1472.4553369972487 50.9080180420165 L 1472.3718372404653 50.82496813755307 L 1472.290178792569 50.74154492718736 L 1472.2103698193364 50.65775675317087 L 1472.1324183015986 50.573611994251195 L 1472.056332034442 50.4891190648341 L 1471.9821186264303 50.40428641414212 L 1471.9097854988422 50.31912252536962 L 1471.8393398849305 50.233635914834515 L 1471.7707888291975 50.14783513112663 L 1471.704139186692 50.06172875425281 L 1471.6393976223223 49.975325394779006 L 1471.5765706101913 49.888633692969165 L 1471.5156644329477 49.80166231792121 L 1471.4566851811585 49.71441996670019 L 1471.3996387526995 49.626915363468505 L 1471.3445308521664 49.53915725861357 L 1471.2913669903028 49.45115442787274 L 1471.240152483451 49.362915671455745 L 1471.1908924530192 49.27444981316471 L 1471.1435918249688 49.18576569951172 L 1471.0982553293236 49.09687219883425 L 1471.0548874996953 49.007778200408296 L 1471.0134926728306 48.918492613559444 L 1470.9740749881778 48.82902436677198 L 1470.9366383874726 48.73938240679603 L 1470.9011866143437 48.64957569775289 L 1470.867723213939 48.55961322023861 L 1470.8362515325705 48.46950397042599 L 1470.8067747173802 48.37925695916492 L 1470.7792957160252 48.28888121108131 L 1470.7538172763825 48.198385763674665 L 1470.730341946275 48.1077796664143 L 1470.708872073216 48.017071979834455 L 1470.6894098041753 47.92627177462819 L 1470.671957085363 47.835388130740355 L 1470.6565156620368 47.744430136459606 L 1470.643087078326 47.65340688750957 L 1470.6316726770779 47.562327486139296 L 1470.622273599723 47.47120104021301 L 1470.6148907861616 47.38003666229938 L 1470.6095249746684 47.28884346876023 L 1470.6061767018202 47.1976305788389 L 1470.6048463024415 47.10640711374838" stroke-miterlimit="10" stroke-width="2.3497561670000002" stroke-dasharray=""/></g><g><g/><text fill="black" stroke="none" font-family="sans-serif" font-size="8pt" font-style="normal" font-weight="normal" text-decoration="normal" x="1467.24089010125" y="71.045568814" text-anchor="start" dominant-baseline="alphabetic" xml:space="preserve">Database</text></g></g><g><path fill="white" stroke="black" paint-order="fill stroke markers" d=" M 359.87491649450004 120.80511117400002 L 373.6970115945 120.80511117400002 L 373.6970115945 581.0808780039999 L 359.87491649450004 581.0808780039999 L 359.87491649450004 120.80511117400002" stroke-miterlimit="10" stroke-width="1.1518412583333333" stroke-dasharray=""/><path fill="white" stroke="black" paint-order="fill stroke markers" d=" M 638.9816278486666 272.848157274 L 652.8037229486666 272.848157274 L 652.8037229486666 542.379011724 L 638.9816278486666 542.379011724 L 638.9816278486666 272.848157274" stroke-miterlimit="10" stroke-width="1.1518412583333333" stroke-dasharray=""/><path fill="white" stroke="black" paint-order="fill stroke markers" d=" M 645.8926753986666 464.97527916399997 L 659.7147704986667 464.97527916399997 L 659.7147704986667 503.67714544399996 L 645.8926753986666 503.67714544399996 L 645.8926753986666 464.97527916399997" stroke-miterlimit="10" stroke-width="1.1518412583333333" stroke-dasharray=""/><path fill="white" stroke="black" paint-order="fill stroke markers" d=" M 11.21484375 581.0808780039999 L 25.03693885 581.0808780039999 L 25.03693885 619.7827442839999 L 11.21484375 619.7827442839999 L 11.21484375 581.0808780039999" stroke-miterlimit="10" stroke-width="1.1518412583333333" stroke-dasharray=""/><path fill="white" stroke="black" paint-order="fill stroke markers" d=" M 359.87491649450004 619.7827442839999 L 373.6970115945 619.7827442839999 L 373.6970115945 1886.992423052001 L 359.87491649450004 1886.992423052001 L 359.87491649450004 619.7827442839999" stroke-miterlimit="10" stroke-width="1.1518412583333333" stroke-dasharray=""/><path fill="white" stroke="black" paint-order="fill stroke markers" d=" M 638.9816278486666 658.4846105639999 L 652.8037229486666 658.4846105639999 L 652.8037229486666 1848.2905567720009 L 638.9816278486666 1848.2905567720009 L 638.9816278486666 658.4846105639999" stroke-miterlimit="10" stroke-width="1.1518412583333333" stroke-dasharray=""/><path fill="white" stroke="black" paint-order="fill stroke markers" d=" M 645.8926753986666 715.1552004739999 L 659.7147704986667 715.1552004739999 L 659.7147704986667 1159.397336988 L 645.8926753986666 1159.397336988 L 645.8926753986666 715.1552004739999" stroke-miterlimit="10" stroke-width="1.1518412583333333" stroke-dasharray=""/><path fill="white" stroke="black" paint-order="fill stroke markers" d=" M 366.7859640445 753.8570667539999 L 380.6080591445 753.8570667539999 L 380.6080591445 1120.6954707080001 L 366.7859640445 1120.6954707080001 L 366.7859640445 753.8570667539999" stroke-miterlimit="10" stroke-width="1.1518412583333333" stroke-dasharray=""/><path fill="white" stroke="black" paint-order="fill stroke markers" d=" M 135.48397710833333 835.9603116479999 L 149.30607220833335 835.9603116479999 L 149.30607220833335 874.6621779279999 L 135.48397710833333 874.6621779279999 L 135.48397710833333 835.9603116479999" stroke-miterlimit="10" stroke-width="1.1518412583333333" stroke-dasharray=""/><path fill="white" stroke="black" paint-order="fill stroke markers" d=" M 135.48397710833333 913.3640442079999 L 149.30607220833335 913.3640442079999 L 149.30607220833335 1081.993604428 L 135.48397710833333 1081.993604428 L 135.48397710833333 913.3640442079999" stroke-miterlimit="10" stroke-width="1.1518412583333333" stroke-dasharray=""/><path fill="white" stroke="black" paint-order="fill stroke markers" d=" M 11.21484375 952.0659104879999 L 25.03693885 952.0659104879999 L 25.03693885 990.7677767679999 L 11.21484375 990.7677767679999 L 11.21484375 952.0659104879999" stroke-miterlimit="10" stroke-width="1.1518412583333333" stroke-dasharray=""/><path fill="white" stroke="black" paint-order="fill stroke markers" d=" M 645.8926753986666 1234.036650528 L 659.7147704986667 1234.036650528 L 659.7147704986667 1791.6199668620006 L 645.8926753986666 1791.6199668620006 L 645.8926753986666 1234.036650528" stroke-miterlimit="10" stroke-width="1.1518412583333333" stroke-dasharray=""/><path fill="white" stroke="black" paint-order="fill stroke markers" d=" M 652.8037229486665 1343.231201818 L 666.6258180486666 1343.231201818 L 666.6258180486666 1734.9493769520009 L 652.8037229486665 1734.9493769520009 L 652.8037229486665 1343.231201818" stroke-miterlimit="10" stroke-width="1.1518412583333333" stroke-dasharray=""/><path fill="white" stroke="black" paint-order="fill stroke markers" d=" M 366.7859640445 1381.9330680980001 L 380.6080591445 1381.9330680980001 L 380.6080591445 1696.2475106720008 L 366.7859640445 1696.2475106720008 L 366.7859640445 1381.9330680980001" stroke-miterlimit="10" stroke-width="1.1518412583333333" stroke-dasharray=""/><path fill="white" stroke="black" paint-order="fill stroke markers" d=" M 135.48397710833333 1464.0363129920001 L 149.30607220833335 1464.0363129920001 L 149.30607220833335 1502.7381792720003 L 135.48397710833333 1502.7381792720003 L 135.48397710833333 1464.0363129920001" stroke-miterlimit="10" stroke-width="1.1518412583333333" stroke-dasharray=""/><path fill="white" stroke="black" paint-order="fill stroke markers" d=" M 11.21484375 1580.1419118320005 L 25.03693885 1580.1419118320005 L 25.03693885 1618.8437781120006 L 11.21484375 1618.8437781120006 L 11.21484375 1580.1419118320005" stroke-miterlimit="10" stroke-width="1.1518412583333333" stroke-dasharray=""/><g><g><rect fill="white" stroke="none" x="94.90951150725004" y="102.83638754400002" width="188.18178478" height="17.96872363"/></g><text fill="black" stroke="none" font-family="sans-serif" font-size="8pt" font-style="normal" font-weight="normal" text-decoration="normal" x="96.98282577225004" y="115.27627313400002" text-anchor="start" dominant-baseline="alphabetic" xml:space="preserve">mousePressed(x : Integer, y : Integer)</text></g><g><path fill="none" stroke="black" paint-order="fill stroke markers" d=" M 18.1258913 120.80511117400002 L 348.4947248621667 120.80511117400002" stroke-miterlimit="10" stroke-width="1.1518412583333333" stroke-dasharray=""/><g transform="translate(359.87491649450004,120.80511117400002) translate(-359.87491649450004,-120.80511117400002)"><path fill="black" stroke="none" paint-order="stroke fill markers" d=" M 348.3565039111667 115.04590488233335 L 359.87491649450004 120.80511117400002 L 348.3565039111667 126.56431746566669 Z"/></g></g><g><g><rect fill="white" stroke="none" x="390.05315746283327" y="141.53825382400004" width="139.56801524875" height="17.96872363"/></g><text fill="black" stroke="none" font-family="sans-serif" font-size="8pt" font-style="normal" font-weight="normal" text-decoration="normal" x="392.1264717278333" y="153.97813941400005" text-anchor="start" dominant-baseline="alphabetic" xml:space="preserve">sn := yToScreen(y : Integer)</text></g><g><path fill="none" stroke="black" paint-order="fill stroke markers" d=" M 373.6970115945 159.50697745400004 L 428.9853919945 159.50697745400004 L 428.9853919945 177.47570108400004 L 385.0772032268333 177.47570108400004" stroke-miterlimit="10" stroke-width="1.1518412583333333" stroke-dasharray=""/><g transform="translate(373.6970115945,177.47570108400004) translate(-373.6970115945,-177.47570108400004)"><path fill="black" stroke="none" paint-order="stroke fill markers" d=" M 385.2154241778333 171.71649479233338 L 373.6970115945 177.47570108400004 L 385.2154241778333 183.2349073756667 Z"/></g></g><g><g><rect fill="white" stroke="none" x="390.05315746283327" y="198.20884373400003" width="137.9190894675" height="17.96872363"/></g><text fill="black" stroke="none" font-family="sans-serif" font-size="8pt" font-style="normal" font-weight="normal" text-decoration="normal" x="392.1264717278333" y="210.64872932400004" text-anchor="start" dominant-baseline="alphabetic" xml:space="preserve">time := xToTime(x : Integer)</text></g><g><path fill="none" stroke="black" paint-order="fill stroke markers" d=" M 373.6970115945 216.17756736400003 L 428.9853919945 216.17756736400003 L 428.9853919945 234.14629099400003 L 385.0772032268333 234.14629099400003" stroke-miterlimit="10" stroke-width="1.1518412583333333" stroke-dasharray=""/><g transform="translate(373.6970115945,234.14629099400003) translate(-373.6970115945,-234.14629099400003)"><path fill="black" stroke="none" paint-order="stroke fill markers" d=" M 385.2154241778333 228.38708470233337 L 373.6970115945 234.14629099400003 L 385.2154241778333 239.90549728566668 Z"/></g></g><g><g><rect fill="white" stroke="none" x="393.50868123783323" y="254.87943364400002" width="225.6612769675" height="17.96872363"/></g><text fill="black" stroke="none" font-family="sans-serif" font-size="8pt" font-style="normal" font-weight="normal" text-decoration="normal" x="395.58199550283325" y="267.31931923400003" text-anchor="start" dominant-baseline="alphabetic" xml:space="preserve">selectScreening(sn : String, time : LocalTime)</text></g><g><path fill="none" stroke="black" paint-order="fill stroke markers" d=" M 373.6970115945 272.848157274 L 627.6014362163332 272.848157274" stroke-miterlimit="10" stroke-width="1.1518412583333333" stroke-dasharray=""/><g transform="translate(638.9816278486666,272.848157274) translate(-638.9816278486666,-272.848157274)"><path fill="black" stroke="none" paint-order="stroke fill markers" d=" M 627.4632152653332 267.08895098233336 L 638.9816278486666 272.848157274 L 627.4632152653332 278.6073635656667 Z"/></g></g><g><g><rect fill="white" stroke="none" x="859.3677285920832" y="330.900956694" width="90.95961681125" height="17.96872363"/></g><text fill="black" stroke="none" font-family="sans-serif" font-size="8pt" font-style="normal" font-weight="normal" text-decoration="normal" x="861.4410428570832" y="343.340842284" text-anchor="start" dominant-baseline="alphabetic" xml:space="preserve">getScreenName()</text></g><g><path fill="none" stroke="black" paint-order="fill stroke markers" d=" M 652.8037229486666 348.869680324 L 1145.5111594144164 348.869680324" stroke-miterlimit="10" stroke-width="1.1518412583333333" stroke-dasharray=""/><g transform="translate(1156.8913510467498,348.869680324) translate(-1156.8913510467498,-348.869680324)"><path fill="black" stroke="none" paint-order="stroke fill markers" d=" M 1145.3729384634164 343.11047403233334 L 1156.8913510467498 348.869680324 L 1145.3729384634164 354.62888661566666 Z"/></g></g><g><g><rect fill="white" stroke="none" x="879.4448770295832" y="369.602822974" width="50.80531993625" height="17.96872363"/></g><text fill="black" stroke="none" font-family="sans-serif" font-size="8pt" font-style="normal" font-weight="normal" text-decoration="normal" x="881.5181912945832" y="382.042708564" text-anchor="start" dominant-baseline="alphabetic" xml:space="preserve">getTime()</text></g><g><path fill="none" stroke="black" paint-order="fill stroke markers" d=" M 652.8037229486666 387.571546604 L 1145.5111594144164 387.571546604" stroke-miterlimit="10" stroke-width="1.1518412583333333" stroke-dasharray=""/><g transform="translate(1156.8913510467498,387.571546604) translate(-1156.8913510467498,-387.571546604)"><path fill="black" stroke="none" paint-order="stroke fill markers" d=" M 1145.3729384634164 381.81234031233333 L 1156.8913510467498 387.571546604 L 1145.3729384634164 393.33075289566665 Z"/></g></g><g><g><rect fill="white" stroke="none" x="676.0709163669999" y="429.037831904" width="88.49965587375" height="17.96872363"/></g><text fill="black" stroke="none" font-family="sans-serif" font-size="8pt" font-style="normal" font-weight="normal" text-decoration="normal" x="678.1442306319999" y="441.477717494" text-anchor="start" dominant-baseline="alphabetic" xml:space="preserve">notifyObservers()</text></g><g><path fill="none" stroke="black" paint-order="fill stroke markers" d=" M 652.8037229486666 447.006555534 L 715.0031508986666 447.006555534 L 715.0031508986666 464.97527916399997 L 671.0949621309999 464.97527916399997" stroke-miterlimit="10" stroke-width="1.1518412583333333" stroke-dasharray=""/><g transform="translate(659.7147704986666,464.97527916399997) translate(-659.7147704986666,-464.97527916399997)"><path fill="black" stroke="none" paint-order="stroke fill markers" d=" M 671.2331830819999 459.2160728723333 L 659.7147704986666 464.97527916399997 L 671.2331830819999 470.73448545566663 Z"/></g></g><g><g><rect fill="white" stroke="none" x="487.2361776690833" y="485.70842181399996" width="45.117331655" height="17.96872363"/></g><text fill="black" stroke="none" font-family="sans-serif" font-size="8pt" font-style="normal" font-weight="normal" text-decoration="normal" x="489.3094919340833" y="498.148307404" text-anchor="start" dominant-baseline="alphabetic" xml:space="preserve">update()</text></g><g><path fill="none" stroke="black" paint-order="fill stroke markers" d=" M 645.8926753986666 503.67714544399996 L 385.0772032268333 503.67714544399996" stroke-miterlimit="10" stroke-width="1.1518412583333333" stroke-dasharray=""/><g transform="translate(373.6970115945,503.67714544399996) translate(-373.6970115945,-503.67714544399996)"><path fill="black" stroke="none" paint-order="stroke fill markers" d=" M 385.2154241778333 497.9179391523333 L 373.6970115945 503.67714544399996 L 385.2154241778333 509.4363517356666 Z"/></g></g><g><g><rect fill="white" stroke="none" x="504.26600545658323" y="524.410288094" width="4.14662853" height="17.96872363"/></g><text fill="black" stroke="none" font-family="sans-serif" font-size="8pt" font-style="normal" font-weight="normal" text-decoration="normal" x="506.33931972158325" y="536.8501736839999" text-anchor="start" dominant-baseline="alphabetic" xml:space="preserve"></text></g><g><path fill="none" stroke="black" paint-order="fill stroke markers" d=" M 638.9816278486666 542.379011724 L 385.0772032268333 542.379011724" stroke-miterlimit="10" stroke-width="1.1518412583333333" stroke-dasharray="5.52883804"/><g transform="translate(373.6970115945,542.379011724) translate(-373.6970115945,-542.379011724)"><path fill="black" stroke="none" paint-order="stroke fill markers" d=" M 385.2154241778333 536.6198054323332 L 373.6970115945 542.379011724 L 385.2154241778333 548.1382180156667 Z"/></g></g><g><g><rect fill="white" stroke="none" x="190.38261340725003" y="563.1121543739999" width="4.14662853" height="17.96872363"/></g><text fill="black" stroke="none" font-family="sans-serif" font-size="8pt" font-style="normal" font-weight="normal" text-decoration="normal" x="192.45592767225003" y="575.5520399639998" text-anchor="start" dominant-baseline="alphabetic" xml:space="preserve"></text></g><g><path fill="none" stroke="black" paint-order="fill stroke markers" d=" M 359.87491649450004 581.0808780039999 L 36.417130482333334 581.0808780039999" stroke-miterlimit="10" stroke-width="1.1518412583333333" stroke-dasharray="5.52883804"/><g transform="translate(25.03693885,581.0808780039999) translate(-25.03693885,-581.0808780039999)"><path fill="black" stroke="none" paint-order="stroke fill markers" d=" M 36.55535143333333 575.3216717123332 L 25.03693885 581.0808780039999 L 36.55535143333333 586.8400842956667 Z"/></g></g><g><g><rect fill="white" stroke="none" x="146.05497668850003" y="601.8140206539999" width="92.8019019675" height="17.96872363"/></g><text fill="black" stroke="none" font-family="sans-serif" font-size="8pt" font-style="normal" font-weight="normal" text-decoration="normal" x="148.12829095350003" y="614.2539062439998" text-anchor="start" dominant-baseline="alphabetic" xml:space="preserve">cancelScreening()</text></g><g><path fill="none" stroke="black" paint-order="fill stroke markers" d=" M 25.03693885 619.7827442839999 L 348.4947248621667 619.7827442839999" stroke-miterlimit="10" stroke-width="1.1518412583333333" stroke-dasharray=""/><g transform="translate(359.87491649450004,619.7827442839999) translate(-359.87491649450004,-619.7827442839999)"><path fill="black" stroke="none" paint-order="stroke fill markers" d=" M 348.3565039111667 614.0235379923332 L 359.87491649450004 619.7827442839999 L 348.3565039111667 625.5419505756666 Z"/></g></g><g><g><rect fill="white" stroke="none" x="463.30067342533323" y="640.5158869339999" width="86.0772925925" height="17.96872363"/></g><text fill="black" stroke="none" font-family="sans-serif" font-size="8pt" font-style="normal" font-weight="normal" text-decoration="normal" x="465.37398769033325" y="652.9557725239998" text-anchor="start" dominant-baseline="alphabetic" xml:space="preserve">cancelSelected()</text></g><g><path fill="none" stroke="black" paint-order="fill stroke markers" d=" M 373.6970115945 658.4846105639999 L 627.6014362163332 658.4846105639999" stroke-miterlimit="10" stroke-width="1.1518412583333333" stroke-dasharray=""/><g transform="translate(638.9816278486666,658.4846105639999) translate(-638.9816278486666,-658.4846105639999)"><path fill="black" stroke="none" paint-order="stroke fill markers" d=" M 627.4632152653332 652.7254042723332 L 638.9816278486666 658.4846105639999 L 627.4632152653332 664.2438168556666 Z"/></g></g><g><g><rect fill="white" stroke="none" x="676.0709163669999" y="679.2177532139999" width="216.91176524875" height="17.96872363"/></g><text fill="black" stroke="none" font-family="sans-serif" font-size="8pt" font-style="normal" font-weight="normal" text-decoration="normal" x="678.1442306319999" y="691.6576388039998" text-anchor="start" dominant-baseline="alphabetic" xml:space="preserve">observerMessage(s : String, true : Boolean)</text></g><g><path fill="none" stroke="black" paint-order="fill stroke markers" d=" M 652.8037229486666 697.1864768439999 L 715.0031508986666 697.1864768439999 L 715.0031508986666 715.1552004739999 L 671.0949621309999 715.1552004739999" stroke-miterlimit="10" stroke-width="1.1518412583333333" stroke-dasharray=""/><g transform="translate(659.7147704986666,715.1552004739999) translate(-659.7147704986666,-715.1552004739999)"><path fill="black" stroke="none" paint-order="stroke fill markers" d=" M 671.2331830819999 709.3959941823332 L 659.7147704986666 715.1552004739999 L 671.2331830819999 720.9144067656666 Z"/></g></g><g><g><rect fill="white" stroke="none" x="406.62602761595826" y="735.8883431239999" width="213.24867931125" height="17.96872363"/></g><text fill="black" stroke="none" font-family="sans-serif" font-size="8pt" font-style="normal" font-weight="normal" text-decoration="normal" x="408.6993418809583" y="748.3282287139998" text-anchor="start" dominant-baseline="alphabetic" xml:space="preserve">message(message : String, true : Boolean)</text></g><g><path fill="none" stroke="black" paint-order="fill stroke markers" d=" M 645.8926753986666 753.8570667539999 L 391.98825077683335 753.8570667539999" stroke-miterlimit="10" stroke-width="1.1518412583333333" stroke-dasharray=""/><g transform="translate(380.60805914450003,753.8570667539999) translate(-380.60805914450003,-753.8570667539999)"><path fill="black" stroke="none" paint-order="stroke fill markers" d=" M 392.12647172783335 748.0978604623332 L 380.60805914450003 753.8570667539999 L 392.12647172783335 759.6162730456666 Z"/></g></g><g><path fill="white" stroke="black" paint-order="fill stroke markers" d=" M 169.83188343183335 795.1160206275 A 20.5258112235 20.5258112235 0 1 1 169.83187316892858 795.0954948196975 M 116.13304396833334 773.4153313205001 L 116.13304396833334 816.8167099345 M 114.95816588483333 795.1160206275 L 128.78026098483335 795.1160206275" stroke-miterlimit="10" stroke-width="2.3497561670000002" stroke-dasharray=""/></g><g><g/><text fill="black" stroke="none" font-family="sans-serif" font-size="8pt" font-style="normal" font-weight="normal" text-decoration="normal" x="131.08618676770834" y="830.6388050344999" text-anchor="start" dominant-baseline="alphabetic" xml:space="preserve">Alert</text></g><g><g><rect fill="white" stroke="none" x="190.8184311586667" y="787.3065368959999" width="152.7003394675" height="17.96872363"/></g><text fill="black" stroke="none" font-family="sans-serif" font-size="8pt" font-style="normal" font-weight="normal" text-decoration="normal" x="192.8917454236667" y="799.7464224859998" text-anchor="start" dominant-baseline="alphabetic" xml:space="preserve">Alert( confirmation : AlertType)</text></g><g><path fill="none" stroke="black" paint-order="fill stroke markers" d=" M 366.7859640445 805.2752605259999 L 178.93142937266666 805.2752605259999" stroke-miterlimit="10" stroke-width="1.1518412583333333" stroke-dasharray=""/><g transform="translate(167.55123774033333,805.2752605259999) translate(-167.55123774033333,-805.2752605259999)"><path fill="black" stroke="none" paint-order="stroke fill markers" d=" M 179.06965032366668 799.5160542343332 L 167.55123774033333 805.2752605259999 L 179.06965032366668 811.0344668176666 Z"/></g></g><g><g><rect fill="white" stroke="none" x="255.9727038614167" y="856.6934542979999" width="4.14662853" height="17.96872363"/></g><text fill="black" stroke="none" font-family="sans-serif" font-size="8pt" font-style="normal" font-weight="normal" text-decoration="normal" x="258.0460181264167" y="869.1333398879998" text-anchor="start" dominant-baseline="alphabetic" xml:space="preserve"></text></g><g><path fill="none" stroke="black" paint-order="fill stroke markers" d=" M 149.30607220833335 874.6621779279999 L 355.4057724121667 874.6621779279999" stroke-miterlimit="10" stroke-width="1.1518412583333333" stroke-dasharray="5.52883804"/><g transform="translate(366.7859640445,874.6621779279999) translate(-366.7859640445,-874.6621779279999)"><path fill="black" stroke="none" paint-order="stroke fill markers" d=" M 355.2675514611667 868.9029716363332 L 366.7859640445 874.6621779279999 L 355.2675514611667 880.4213842196666 Z"/></g></g><g><g><rect fill="white" stroke="none" x="217.3572253457917" y="895.3953205779999" width="81.37758556125" height="17.96872363"/></g><text fill="black" stroke="none" font-family="sans-serif" font-size="8pt" font-style="normal" font-weight="normal" text-decoration="normal" x="219.4305396107917" y="907.8352061679998" text-anchor="start" dominant-baseline="alphabetic" xml:space="preserve">showAndWait();</text></g><g><path fill="none" stroke="black" paint-order="fill stroke markers" d=" M 366.7859640445 913.3640442079999 L 160.68626384066667 913.3640442079999" stroke-miterlimit="10" stroke-width="1.1518412583333333" stroke-dasharray=""/><g transform="translate(149.30607220833335,913.3640442079999) translate(-149.30607220833335,-913.3640442079999)"><path fill="black" stroke="none" paint-order="stroke fill markers" d=" M 160.8244847916667 907.6048379163332 L 149.30607220833335 913.3640442079999 L 160.8244847916667 919.1232504996666 Z"/></g></g><g><g><rect fill="white" stroke="none" x="78.18714371416667" y="934.0971868579999" width="4.14662853" height="17.96872363"/></g><text fill="black" stroke="none" font-family="sans-serif" font-size="8pt" font-style="normal" font-weight="normal" text-decoration="normal" x="80.26045797916666" y="946.5370724479998" text-anchor="start" dominant-baseline="alphabetic" xml:space="preserve"></text></g><g><path fill="none" stroke="black" paint-order="fill stroke markers" d=" M 135.48397710833333 952.0659104879999 L 36.417130482333334 952.0659104879999" stroke-miterlimit="10" stroke-width="1.1518412583333333" stroke-dasharray=""/><g transform="translate(25.03693885,952.0659104879999) translate(-25.03693885,-952.0659104879999)"><path fill="black" stroke="none" paint-order="stroke fill markers" d=" M 36.55535143333333 946.3067041963332 L 25.03693885 952.0659104879999 L 36.55535143333333 957.8251167796666 Z"/></g></g><g><g><rect fill="white" stroke="none" x="78.18714371416667" y="972.7990531379999" width="4.14662853" height="17.96872363"/></g><text fill="black" stroke="none" font-family="sans-serif" font-size="8pt" font-style="normal" font-weight="normal" text-decoration="normal" x="80.26045797916666" y="985.2389387279998" text-anchor="start" dominant-baseline="alphabetic" xml:space="preserve"></text></g><g><path fill="none" stroke="black" paint-order="fill stroke markers" d=" M 25.03693885 990.7677767679999 L 124.103785476 990.7677767679999" stroke-miterlimit="10" stroke-width="1.1518412583333333" stroke-dasharray="5.52883804"/><g transform="translate(135.48397710833333,990.7677767679999) translate(-135.48397710833333,-990.7677767679999)"><path fill="black" stroke="none" paint-order="stroke fill markers" d=" M 123.965564525 985.0085704763331 L 135.48397710833333 990.7677767679999 L 123.965564525 996.5269830596666 Z"/></g></g><path fill="white" stroke="black" paint-order="fill stroke markers" d=" M 84.22451144020835 1011.500919418 L 188.12565228645835 1011.500919418 L 200.56553787645834 1023.940805008 L 200.56553787645834 1043.291738148 L 84.22451144020835 1043.291738148 L 84.22451144020835 1011.500919418 M 188.12565228645835 1011.500919418 L 188.12565228645835 1023.940805008 L 200.56553787645834 1023.940805008" stroke-miterlimit="10" stroke-width="1.1518412583333333" stroke-dasharray=""/><g><text fill="black" stroke="none" font-family="sans-serif" font-size="8pt" font-style="normal" font-weight="normal" text-decoration="normal" x="103.57544458020834" y="1030.8518525579998" text-anchor="start" dominant-baseline="alphabetic" xml:space="preserve">user selects OK</text></g><g><g><rect fill="white" stroke="none" x="230.5996569864167" y="1064.0248807980001" width="54.89272228" height="17.96872363"/></g><text fill="black" stroke="none" font-family="sans-serif" font-size="8pt" font-style="normal" font-weight="normal" text-decoration="normal" x="232.6729712514167" y="1076.4647663880003" text-anchor="start" dominant-baseline="alphabetic" xml:space="preserve">return true</text></g><g><path fill="none" stroke="black" paint-order="fill stroke markers" d=" M 149.30607220833335 1081.993604428 L 355.4057724121667 1081.993604428" stroke-miterlimit="10" stroke-width="1.1518412583333333" stroke-dasharray="5.52883804"/><g transform="translate(366.7859640445,1081.993604428) translate(-366.7859640445,-1081.993604428)"><path fill="black" stroke="none" paint-order="stroke fill markers" d=" M 355.2675514611667 1076.2343981363333 L 366.7859640445 1081.993604428 L 355.2675514611667 1087.7528107196667 Z"/></g></g><g><g><rect fill="white" stroke="none" x="485.80400613158326" y="1102.7267470780002" width="54.89272228" height="17.96872363"/></g><text fill="black" stroke="none" font-family="sans-serif" font-size="8pt" font-style="normal" font-weight="normal" text-decoration="normal" x="487.8773203965833" y="1115.1666326680004" text-anchor="start" dominant-baseline="alphabetic" xml:space="preserve">return true</text></g><g><path fill="none" stroke="black" paint-order="fill stroke markers" d=" M 380.60805914450003 1120.6954707080001 L 634.5124837663333 1120.6954707080001" stroke-miterlimit="10" stroke-width="1.1518412583333333" stroke-dasharray="5.52883804"/><g transform="translate(645.8926753986666,1120.6954707080001) translate(-645.8926753986666,-1120.6954707080001)"><path fill="black" stroke="none" paint-order="stroke fill markers" d=" M 634.3742628153333 1114.9362644163334 L 645.8926753986666 1120.6954707080001 L 634.3742628153333 1126.4546769996668 Z"/></g></g><g><g><rect fill="white" stroke="none" x="676.0709163669999" y="1141.4286133580001" width="54.89272228" height="17.96872363"/></g><text fill="black" stroke="none" font-family="sans-serif" font-size="8pt" font-style="normal" font-weight="normal" text-decoration="normal" x="678.1442306319999" y="1153.8684989480003" text-anchor="start" dominant-baseline="alphabetic" xml:space="preserve">return true</text></g><g><path fill="none" stroke="black" paint-order="fill stroke markers" d=" M 659.7147704986666 1159.397336988 L 715.0031508986666 1159.397336988 L 715.0031508986666 1177.3660606180001 L 664.1839145809998 1177.3660606180001" stroke-miterlimit="10" stroke-width="1.1518412583333333" stroke-dasharray="5.52883804"/><g transform="translate(652.8037229486665,1177.3660606180001) translate(-652.8037229486665,-1177.3660606180001)"><path fill="black" stroke="none" paint-order="stroke fill markers" d=" M 664.3221355319998 1171.6068543263334 L 652.8037229486665 1177.3660606180001 L 664.3221355319998 1183.1252669096668 Z"/></g></g><g><g><rect fill="white" stroke="none" x="676.0709163669999" y="1198.099203268" width="374.2257300925" height="17.96872363"/></g><text fill="black" stroke="none" font-family="sans-serif" font-size="8pt" font-style="normal" font-weight="normal" text-decoration="normal" x="678.1442306319999" y="1210.5390888580002" text-anchor="start" dominant-baseline="alphabetic" xml:space="preserve">checkSold(time : LocalTime, screenName : String, sg : PersistentScreening)</text></g><g><path fill="none" stroke="black" paint-order="fill stroke markers" d=" M 652.8037229486666 1216.0679268980002 L 715.0031508986666 1216.0679268980002 L 715.0031508986666 1234.036650528 L 671.0949621309999 1234.036650528" stroke-miterlimit="10" stroke-width="1.1518412583333333" stroke-dasharray=""/><g transform="translate(659.7147704986666,1234.036650528) translate(-659.7147704986666,-1234.036650528)"><path fill="black" stroke="none" paint-order="stroke fill markers" d=" M 671.2331830819999 1228.2774442363334 L 659.7147704986666 1234.036650528 L 671.2331830819999 1239.7958568196668 Z"/></g></g><path fill="white" stroke="black" paint-order="fill stroke markers" d=" M 542.4518985086667 1254.769793178 L 736.8935666986666 1254.769793178 L 749.3334522886666 1267.209678768 L 749.3334522886666 1286.560611908 L 542.4518985086667 1286.560611908 L 542.4518985086667 1254.769793178 M 736.8935666986666 1254.769793178 L 736.8935666986666 1267.209678768 L 749.3334522886666 1267.209678768" stroke-miterlimit="10" stroke-width="1.1518412583333333" stroke-dasharray=""/><g><text fill="black" stroke="none" font-family="sans-serif" font-size="8pt" font-style="normal" font-weight="normal" text-decoration="normal" x="561.8028316486666" y="1274.1207263180002" text-anchor="start" dominant-baseline="alphabetic" xml:space="preserve">found the screening has been sold</text></g><g><g><rect fill="white" stroke="none" x="682.9819639169999" y="1307.293754558" width="260.32631603" height="17.96872363"/></g><text fill="black" stroke="none" font-family="sans-serif" font-size="8pt" font-style="normal" font-weight="normal" text-decoration="normal" x="685.0552781819999" y="1319.7336401480002" text-anchor="start" dominant-baseline="alphabetic" xml:space="preserve">observerMessage(message : String, false : Boolean)</text></g><g><path fill="none" stroke="black" paint-order="fill stroke markers" d=" M 659.7147704986666 1325.262478188 L 721.9141984486666 1325.262478188 L 721.9141984486666 1343.231201818 L 678.0060096809999 1343.231201818" stroke-miterlimit="10" stroke-width="1.1518412583333333" stroke-dasharray=""/><g transform="translate(666.6258180486666,1343.231201818) translate(-666.6258180486666,-1343.231201818)"><path fill="black" stroke="none" paint-order="stroke fill markers" d=" M 678.1442306319999 1337.4719955263333 L 666.6258180486666 1343.231201818 L 678.1442306319999 1348.9904081096668 Z"/></g></g><g><g><rect fill="white" stroke="none" x="407.94117053158334" y="1363.964344468" width="217.52944103" height="17.96872363"/></g><text fill="black" stroke="none" font-family="sans-serif" font-size="8pt" font-style="normal" font-weight="normal" text-decoration="normal" x="410.01448479658336" y="1376.4042300580002" text-anchor="start" dominant-baseline="alphabetic" xml:space="preserve">message(message : String, false : Boolean)</text></g><g><path fill="none" stroke="black" paint-order="fill stroke markers" d=" M 652.8037229486666 1381.9330680980001 L 391.98825077683335 1381.9330680980001" stroke-miterlimit="10" stroke-width="1.1518412583333333" stroke-dasharray=""/><g transform="translate(380.60805914450003,1381.9330680980001) translate(-380.60805914450003,-1381.9330680980001)"><path fill="black" stroke="none" paint-order="stroke fill markers" d=" M 392.12647172783335 1376.1738618063334 L 380.60805914450003 1381.9330680980001 L 392.12647172783335 1387.6922743896669 Z"/></g></g><g><path fill="white" stroke="black" paint-order="fill stroke markers" d=" M 169.83188343183335 1423.1920219714998 A 20.5258112235 20.5258112235 0 1 1 169.83187316892858 1423.1714961636972 M 116.13304396833334 1401.4913326644996 L 116.13304396833334 1444.8927112785 M 114.95816588483333 1423.1920219714998 L 128.78026098483335 1423.1920219714998" stroke-miterlimit="10" stroke-width="2.3497561670000002" stroke-dasharray=""/></g><g><g/><text fill="black" stroke="none" font-family="sans-serif" font-size="8pt" font-style="normal" font-weight="normal" text-decoration="normal" x="131.08618676770834" y="1458.7148063785" text-anchor="start" dominant-baseline="alphabetic" xml:space="preserve">Alert</text></g><g><g><rect fill="white" stroke="none" x="201.5149643617917" y="1415.38253824" width="131.30727306125" height="17.96872363"/></g><text fill="black" stroke="none" font-family="sans-serif" font-size="8pt" font-style="normal" font-weight="normal" text-decoration="normal" x="203.5882786267917" y="1427.8224238300002" text-anchor="start" dominant-baseline="alphabetic" xml:space="preserve">Alert( warning : AlertType)</text></g><g><path fill="none" stroke="black" paint-order="fill stroke markers" d=" M 366.7859640445 1433.3512618700001 L 178.93142937266666 1433.3512618700001" stroke-miterlimit="10" stroke-width="1.1518412583333333" stroke-dasharray=""/><g transform="translate(167.55123774033333,1433.3512618700001) translate(-167.55123774033333,-1433.3512618700001)"><path fill="black" stroke="none" paint-order="stroke fill markers" d=" M 179.06965032366668 1427.5920555783334 L 167.55123774033333 1433.3512618700001 L 179.06965032366668 1439.1104681616669 Z"/></g></g><g><g><rect fill="white" stroke="none" x="255.9727038614167" y="1484.7694556420001" width="4.14662853" height="17.96872363"/></g><text fill="black" stroke="none" font-family="sans-serif" font-size="8pt" font-style="normal" font-weight="normal" text-decoration="normal" x="258.0460181264167" y="1497.2093412320003" text-anchor="start" dominant-baseline="alphabetic" xml:space="preserve"></text></g><g><path fill="none" stroke="black" paint-order="fill stroke markers" d=" M 149.30607220833335 1502.7381792720003 L 355.4057724121667 1502.7381792720003" stroke-miterlimit="10" stroke-width="1.1518412583333333" stroke-dasharray="5.52883804"/><g transform="translate(366.7859640445,1502.7381792720003) translate(-366.7859640445,-1502.7381792720003)"><path fill="black" stroke="none" paint-order="stroke fill markers" d=" M 355.2675514611667 1496.9789729803335 L 366.7859640445 1502.7381792720003 L 355.2675514611667 1508.497385563667 Z"/></g></g><g><g><rect fill="white" stroke="none" x="213.9017015707917" y="1523.4713219220002" width="81.37758556125" height="17.96872363"/></g><text fill="black" stroke="none" font-family="sans-serif" font-size="8pt" font-style="normal" font-weight="normal" text-decoration="normal" x="215.97501583579168" y="1535.9112075120004" text-anchor="start" dominant-baseline="alphabetic" xml:space="preserve">showAndWait();</text></g><g><path fill="none" stroke="black" paint-order="fill stroke markers" d=" M 366.7859640445 1541.4400455520004 L 153.77521629066666 1541.4400455520004" stroke-miterlimit="10" stroke-width="1.1518412583333333" stroke-dasharray=""/><g transform="translate(142.39502465833334,1541.4400455520004) translate(-142.39502465833334,-1541.4400455520004)"><path fill="black" stroke="none" paint-order="stroke fill markers" d=" M 153.91343724166668 1535.6808392603336 L 142.39502465833334 1541.4400455520004 L 153.91343724166668 1547.199251843667 Z"/></g></g><g><g><rect fill="white" stroke="none" x="81.64266748916668" y="1562.1731882020003" width="4.14662853" height="17.96872363"/></g><text fill="black" stroke="none" font-family="sans-serif" font-size="8pt" font-style="normal" font-weight="normal" text-decoration="normal" x="83.71598175416668" y="1574.6130737920005" text-anchor="start" dominant-baseline="alphabetic" xml:space="preserve"></text></g><g><path fill="none" stroke="black" paint-order="fill stroke markers" d=" M 142.39502465833334 1580.1419118320005 L 36.417130482333334 1580.1419118320005" stroke-miterlimit="10" stroke-width="1.1518412583333333" stroke-dasharray=""/><g transform="translate(25.03693885,1580.1419118320005) translate(-25.03693885,-1580.1419118320005)"><path fill="black" stroke="none" paint-order="stroke fill markers" d=" M 36.55535143333333 1574.3827055403337 L 25.03693885 1580.1419118320005 L 36.55535143333333 1585.9011181236672 Z"/></g></g><g><g><rect fill="white" stroke="none" x="81.64266748916668" y="1600.8750544820005" width="4.14662853" height="17.96872363"/></g><text fill="black" stroke="none" font-family="sans-serif" font-size="8pt" font-style="normal" font-weight="normal" text-decoration="normal" x="83.71598175416668" y="1613.3149400720006" text-anchor="start" dominant-baseline="alphabetic" xml:space="preserve"></text></g><g><path fill="none" stroke="black" paint-order="fill stroke markers" d=" M 25.03693885 1618.8437781120006 L 131.01483302600002 1618.8437781120006" stroke-miterlimit="10" stroke-width="1.1518412583333333" stroke-dasharray="5.52883804"/><g transform="translate(142.39502465833334,1618.8437781120006) translate(-142.39502465833334,-1618.8437781120006)"><path fill="black" stroke="none" paint-order="stroke fill markers" d=" M 130.876612075 1613.0845718203338 L 142.39502465833334 1618.8437781120006 L 130.876612075 1624.6029844036673 Z"/></g></g><g><g><rect fill="white" stroke="none" x="223.1722093832917" y="1639.5769207620006" width="62.83656993625" height="17.96872363"/></g><text fill="black" stroke="none" font-family="sans-serif" font-size="8pt" font-style="normal" font-weight="normal" text-decoration="normal" x="225.24552364829168" y="1652.0168063520007" text-anchor="start" dominant-baseline="alphabetic" xml:space="preserve">return result</text></g><g><path fill="none" stroke="black" paint-order="fill stroke markers" d=" M 142.39502465833334 1657.5456443920007 L 355.4057724121667 1657.5456443920007" stroke-miterlimit="10" stroke-width="1.1518412583333333" stroke-dasharray="5.52883804"/><g transform="translate(366.7859640445,1657.5456443920007) translate(-366.7859640445,-1657.5456443920007)"><path fill="black" stroke="none" paint-order="stroke fill markers" d=" M 355.2675514611667 1651.786438100334 L 366.7859640445 1657.5456443920007 L 355.2675514611667 1663.3048506836674 Z"/></g></g><g><g><rect fill="white" stroke="none" x="487.11914904720834" y="1678.2787870420007" width="59.17348399875" height="17.96872363"/></g><text fill="black" stroke="none" font-family="sans-serif" font-size="8pt" font-style="normal" font-weight="normal" text-decoration="normal" x="489.19246331220836" y="1690.7186726320008" text-anchor="start" dominant-baseline="alphabetic" xml:space="preserve">return false</text></g><g><path fill="none" stroke="black" paint-order="fill stroke markers" d=" M 380.60805914450003 1696.2475106720008 L 641.4235313163333 1696.2475106720008" stroke-miterlimit="10" stroke-width="1.1518412583333333" stroke-dasharray="5.52883804"/><g transform="translate(652.8037229486666,1696.2475106720008) translate(-652.8037229486666,-1696.2475106720008)"><path fill="black" stroke="none" paint-order="stroke fill markers" d=" M 641.2853103653333 1690.488304380334 L 652.8037229486666 1696.2475106720008 L 641.2853103653333 1702.0067169636675 Z"/></g></g><g><g><rect fill="white" stroke="none" x="682.9819639169999" y="1716.9806533220008" width="59.17348399875" height="17.96872363"/></g><text fill="black" stroke="none" font-family="sans-serif" font-size="8pt" font-style="normal" font-weight="normal" text-decoration="normal" x="685.0552781819999" y="1729.420538912001" text-anchor="start" dominant-baseline="alphabetic" xml:space="preserve">return false</text></g><g><path fill="none" stroke="black" paint-order="fill stroke markers" d=" M 666.6258180486666 1734.9493769520009 L 721.9141984486666 1734.9493769520009 L 721.9141984486666 1752.9181005820008 L 671.0949621309999 1752.9181005820008" stroke-miterlimit="10" stroke-width="1.1518412583333333" stroke-dasharray="5.52883804"/><g transform="translate(659.7147704986666,1752.9181005820008) translate(-659.7147704986666,-1752.9181005820008)"><path fill="black" stroke="none" paint-order="stroke fill markers" d=" M 671.2331830819999 1747.158894290334 L 659.7147704986666 1752.9181005820008 L 671.2331830819999 1758.6773068736675 Z"/></g></g><g><g><rect fill="white" stroke="none" x="676.0709163669999" y="1773.6512432320008" width="59.17348399875" height="17.96872363"/></g><text fill="black" stroke="none" font-family="sans-serif" font-size="8pt" font-style="normal" font-weight="normal" text-decoration="normal" x="678.1442306319999" y="1786.0911288220009" text-anchor="start" dominant-baseline="alphabetic" xml:space="preserve">return false</text></g><g><path fill="none" stroke="black" paint-order="fill stroke markers" d=" M 659.7147704986666 1791.6199668620006 L 715.0031508986666 1791.6199668620006 L 715.0031508986666 1809.5886904920008 L 664.1839145809998 1809.5886904920008" stroke-miterlimit="10" stroke-width="1.1518412583333333" stroke-dasharray="5.52883804"/><g transform="translate(652.8037229486665,1809.5886904920008) translate(-652.8037229486665,-1809.5886904920008)"><path fill="black" stroke="none" paint-order="stroke fill markers" d=" M 664.3221355319998 1803.829484200334 L 652.8037229486665 1809.5886904920008 L 664.3221355319998 1815.3478967836675 Z"/></g></g><g><g><rect fill="white" stroke="none" x="476.75257772220823" y="1830.3218331420007" width="59.17348399875" height="17.96872363"/></g><text fill="black" stroke="none" font-family="sans-serif" font-size="8pt" font-style="normal" font-weight="normal" text-decoration="normal" x="478.82589198720825" y="1842.7617187320009" text-anchor="start" dominant-baseline="alphabetic" xml:space="preserve">return false</text></g><g><path fill="none" stroke="black" paint-order="fill stroke markers" d=" M 638.9816278486666 1848.2905567720009 L 385.0772032268333 1848.2905567720009" stroke-miterlimit="10" stroke-width="1.1518412583333333" stroke-dasharray="5.52883804"/><g transform="translate(373.6970115945,1848.2905567720009) translate(-373.6970115945,-1848.2905567720009)"><path fill="black" stroke="none" paint-order="stroke fill markers" d=" M 385.2154241778333 1842.5313504803341 L 373.6970115945 1848.2905567720009 L 385.2154241778333 1854.0497630636676 Z"/></g></g><g><g><rect fill="white" stroke="none" x="186.92708963225004" y="1869.0236994220008" width="4.14662853" height="17.96872363"/></g><text fill="black" stroke="none" font-family="sans-serif" font-size="8pt" font-style="normal" font-weight="normal" text-decoration="normal" x="189.00040389725004" y="1881.463585012001" text-anchor="start" dominant-baseline="alphabetic" xml:space="preserve"></text></g><g><path fill="none" stroke="black" paint-order="fill stroke markers" d=" M 359.87491649450004 1886.992423052001 L 29.506082932333335 1886.992423052001" stroke-miterlimit="10" stroke-width="1.1518412583333333" stroke-dasharray="5.52883804"/><g transform="translate(18.1258913,1886.992423052001) translate(-18.1258913,-1886.992423052001)"><path fill="black" stroke="none" paint-order="stroke fill markers" d=" M 29.644303883333333 1881.2332167603342 L 18.1258913 1886.992423052001 L 29.644303883333333 1892.7516293436677 Z"/></g></g><g><g/><path fill="none" stroke="black" paint-order="fill stroke markers" d=" M 597.5153425486666 293.581299924 L 1205.2686838967497 293.581299924 L 1205.2686838967497 408.304689254 L 597.5153425486666 408.304689254 L 597.5153425486666 293.581299924 Z" stroke-miterlimit="10" stroke-width="1.9745850142857144" stroke-dasharray=""/><path fill="white" stroke="black" paint-order="fill stroke markers" d=" M 597.5153425486666 293.581299924 L 597.5153425486666 310.167814044 L 644.1526968111666 310.167814044 L 652.4459538711666 301.874556984 L 652.4459538711666 293.581299924 L 597.5153425486666 293.581299924" stroke-miterlimit="10" stroke-width="1.9745850142857144" stroke-dasharray=""/><text fill="black" stroke="none" font-family="sans-serif" font-size="6.4pt" font-style="normal" font-weight="bold" text-decoration="normal" x="611.3374376486665" y="304.638976004" text-anchor="start" dominant-baseline="alphabetic" xml:space="preserve">loop</text><text fill="black" stroke="none" font-family="sans-serif" font-size="6.4pt" font-style="normal" font-weight="bold" text-decoration="normal" x="666.2680489711665" y="304.638976004" text-anchor="start" dominant-baseline="alphabetic" xml:space="preserve">[for each current Screening]</text></g></g><g/><g/><g/><g/><g/><g/><g/><g/></g></svg>