<svg version="1.1" xmlns="http://www.w3.org/2000/svg" xmlns:xlink="http://www.w3.org/1999/xlink" width="2039" height="2195"><desc>actor%20Staff%0Aboundary%20Alert%0Aboundary%20StaffUI%0A%0Acontrol%20ManagementSystem%0Aparticipant%20Cinema%0Aentity%20Screening%20(current)%0Aentity%20Screening%20(selected)%0Aparticipant%20ScreeningMapper%0Adatabase%20Database%0AStaff-%3EStaffUI%3AmousePressed(x%20%3A%20Integer%2C%20y%20%3A%20Integer)%0Aactivate%20StaffUI%0A%0AStaffUI-%3EStaffUI%3Asn%20%3A%3D%20yToScreen(y%20%3A%20Integer)%0AStaffUI-%3EStaffUI%3Atime%20%3A%3D%20xToTime(x%20%3A%20Integer)%0AStaffUI-%3EManagementSystem%3AselectScreening(sn%20%3A%20String%2C%20time%20%3A%20LocalTime)%0Aactivate%20ManagementSystem%0A%0Aloop%20for%20each%20current%20Screening%0AManagementSystem-%3EScreening%20(current)%3AgetScreenName()%0AManagementSystem-%3EScreening%20(current)%3AgetTime()%0Aend%0AManagementSystem-%3EManagementSystem%3AnotifyObservers()%0AManagementSystem-%3EStaffUI%3Aupdate()%0A%0AManagementSystem--%3EStaffUI%3A%0Adeactivate%20ManagementSystem%0AStaffUI--%3EStaff%3A%0Adeactivate%20StaffUI%0A%0A%0A%0A%0AStaff-%3EStaffUI%3AcancelScreening()%0Aactivate%20StaffUI%0AStaffUI-%3EManagementSystem%3AcancelSelected()%0Aactivate%20ManagementSystem%0A%0AManagementSystem-%3EManagementSystem%3AobserverMessage(s%20%3A%20String%2C%20true%20%3A%20Boolean)%0Aactivate%20ManagementSystem%0AManagementSystem-%3EStaffUI%3Amessage(message%20%3A%20String%2C%20true%20%3A%20Boolean)%0Aactivate%20StaffUI%0AStaffUI-%3E*Alert%3AAlert(%20confirmation%20%3A%20AlertType)%0Aactivate%20Alert%0AAlert--%3EStaffUI%3A%0Adeactivate%20Alert%0A%0AStaffUI-%3EAlert%3AshowAndWait()%3B%0Aactivate%20Alert%0AAlert-%3EStaff%3A%0AStaff--%3EAlert%3A%0Anote%20over%20Alert%3Auser%20selects%20OK%0AAlert--%3EStaffUI%3Areturn%20true%0Adeactivate%20Alert%0AStaffUI--%3EManagementSystem%3Areturn%20true%0Adeactivate%20StaffUI%0A%0A%0A%0AManagementSystem-%3ECinema%3AcancelScreening(selectedScreening%20%3A%20Screening)%0Aactivate%20Cinema%0ACinema-%3EScreeningMapper%3AdeleteScreening(sg%20%3A%20Screening)%0Aactivate%20ScreeningMapper%0AScreeningMapper-%3EScreeningMapper%3AperformUpdate(sql%20%3A%20String)%0Aactivate%20ScreeningMapper%0AScreeningMapper-%3EDatabase%3AexecuteUpdate(sql%20%3A%20String)%0AScreeningMapper--%3EScreeningMapper%3A%0Adeactivate%20ScreeningMapper%0AScreeningMapper--%3ECinema%3A%0Adeactivate%20ScreeningMapper%0ACinema--%3EManagementSystem%3A%0Adeactivate%20Cinema%0Aexpandable%E2%88%92%20see%2001%20-%20Display%20Screening%20BCE%0AManagementSystem-%3EManagementSystem%3AnotifyObservers()%20%20%20%20%20%20%20%20%20%20%20%20%20%20%20%20%20%20%20%20%20%20%20%20%0Aend%0AManagementSystem--%3EManagementSystem%3A%0Adeactivate%20ManagementSystem%0AManagementSystem--%3EStaffUI%3A%0Adeactivate%20ManagementSystem%0A%0AStaffUI--%3EStaff%3A%0Adeactivate%20StaffUI%0A</desc><defs/><g><g/><g/><g/><g/><g/><g/><g/><g/><g/><g/><g/><g/><g/><g/><g/><g/><g/><g/><g/><g/><g/><g/><g/><g/><g/><g/><g/><g/><g/><g/><g/><g/><g/><g/><g/><g><rect fill="white" stroke="none" x="0" y="0" width="2039" height="2195"/></g><g/><g><path fill="none" stroke="black" paint-order="fill stroke markers" d=" M 24.636958411914062 95.699160256 L 24.636958411914062 2195.0994883719995" stroke-miterlimit="10" stroke-width="1.4659797833333332" stroke-dasharray="13.532121076923076,5.863919133333333"/><path fill="none" stroke="black" paint-order="fill stroke markers" d=" M 185.7682286110677 1063.9494875520002 L 185.7682286110677 2195.0994883719995" stroke-miterlimit="10" stroke-width="1.4659797833333332" stroke-dasharray="13.532121076923076,5.863919133333333"/><path fill="none" stroke="black" paint-order="fill stroke markers" d=" M 499.51088698421097 95.699160256 L 499.51088698421097 2195.0994883719995" stroke-miterlimit="10" stroke-width="1.4659797833333332" stroke-dasharray="13.532121076923076,5.863919133333333"/><path fill="none" stroke="black" paint-order="fill stroke markers" d=" M 883.3180548618152 95.699160256 L 883.3180548618152 2195.0994883719995" stroke-miterlimit="10" stroke-width="1.4659797833333332" stroke-dasharray="13.532121076923076,5.863919133333333"/><path fill="none" stroke="black" paint-order="fill stroke markers" d=" M 1287.9341216652006 95.699160256 L 1287.9341216652006 2195.0994883719995" stroke-miterlimit="10" stroke-width="1.4659797833333332" stroke-dasharray="13.532121076923076,5.863919133333333"/><path fill="none" stroke="black" paint-order="fill stroke markers" d=" M 1417.8126428754506 95.699160256 L 1417.8126428754506 2195.0994883719995" stroke-miterlimit="10" stroke-width="1.4659797833333332" stroke-dasharray="13.532121076923076,5.863919133333333"/><path fill="none" stroke="black" paint-order="fill stroke markers" d=" M 1572.6663707954701 95.699160256 L 1572.6663707954701 2195.0994883719995" stroke-miterlimit="10" stroke-width="1.4659797833333332" stroke-dasharray="13.532121076923076,5.863919133333333"/><path fill="none" stroke="black" paint-order="fill stroke markers" d=" M 1741.98296421031 95.699160256 L 1741.98296421031 2195.0994883719995" stroke-miterlimit="10" stroke-width="1.4659797833333332" stroke-dasharray="13.532121076923076,5.863919133333333"/><path fill="none" stroke="black" paint-order="fill stroke markers" d=" M 1995.3049070744376 95.699160256 L 1995.3049070744376 2195.0994883719995" stroke-miterlimit="10" stroke-width="1.4659797833333332" stroke-dasharray="13.532121076923076,5.863919133333333"/></g><g><g><path fill="white" stroke="black" paint-order="fill stroke markers" d=" M 34.66426012991406 21.286026454 A 10.027301717999999 10.027301717999999 0 1 1 34.66425511626362 21.27599915395321 M 24.636958411914062 31.313328172000002 L 24.636958411914062 52.7752722 M 11.970893083914063 39.053701428000004 L 37.30302373991406 39.053701428000004 M 24.636958411914062 52.7752722 L 11.970893083914063 72.829875636 M 24.636958411914062 52.7752722 L 37.30302373991406 72.829875636" stroke-miterlimit="10" stroke-width="2.990598758" stroke-dasharray=""/></g><g><g/><text fill="black" stroke="none" font-family="sans-serif" font-size="11pt" font-style="normal" font-weight="normal" text-decoration="normal" x="8.7958787" y="90.421633036" text-anchor="start" dominant-baseline="alphabetic" xml:space="preserve">Staff</text></g><g><path fill="white" stroke="black" paint-order="fill stroke markers" d=" M 534.430525423211 45.210816517999994 A 26.123759739 26.123759739 0 1 1 534.4305123613321 45.18469276261494 M 466.086547924211 17.591757399999995 L 466.086547924211 72.829875636 M 464.591248545211 45.210816517999994 L 482.183005945211 45.210816517999994" stroke-miterlimit="10" stroke-width="2.990598758" stroke-dasharray=""/></g><g><g/><text fill="black" stroke="none" font-family="sans-serif" font-size="11pt" font-style="normal" font-weight="normal" text-decoration="normal" x="476.04274733577347" y="90.421633036" text-anchor="start" dominant-baseline="alphabetic" xml:space="preserve">StaffUI</text></g><g><path fill="white" stroke="black" paint-order="fill stroke markers" d=" M 909.4418146008152 45.210816517999994 A 26.123759739 26.123759739 0 1 1 909.4418015389364 45.18469276261494 M 879.7997033818152 19.087056778999994 L 890.3547578218153 10.291178078999994 M 879.7997033818152 19.087056778999994 L 890.3547578218153 27.882935478999993" stroke-miterlimit="10" stroke-width="2.990598758" stroke-dasharray=""/></g><g><g/><text fill="black" stroke="none" font-family="sans-serif" font-size="11pt" font-style="normal" font-weight="normal" text-decoration="normal" x="811.3960806796863" y="90.421633036" text-anchor="start" dominant-baseline="alphabetic" xml:space="preserve">ManagementSystem</text></g><path fill="none" stroke="none"/><g><path fill="white" stroke="black" paint-order="fill stroke markers" d=" M 1242.3975257016302 48.201415276000006 L 1333.470717628771 48.201415276000006 L 1333.470717628771 95.699160256 L 1242.3975257016302 95.699160256 L 1242.3975257016302 48.201415276000006 Z" stroke-miterlimit="10" stroke-width="2.814681184" stroke-dasharray=""/></g><g><g/><text fill="black" stroke="none" font-family="sans-serif" font-size="11pt" font-style="normal" font-weight="normal" text-decoration="normal" x="1261.4845824806303" y="78.107402856" text-anchor="start" dominant-baseline="alphabetic" xml:space="preserve">Cinema</text></g><g><path fill="white" stroke="black" paint-order="fill stroke markers" d=" M 1443.9364026144506 42.81833751159999 A 26.123759739 26.123759739 0 1 1 1443.9363895525719 42.792213756214935 M 1390.1935837574506 71.334576257 L 1445.4317019934506 71.334576257" stroke-miterlimit="10" stroke-width="2.990598758" stroke-dasharray=""/></g><g><g/><text fill="black" stroke="none" font-family="sans-serif" font-size="11pt" font-style="normal" font-weight="normal" text-decoration="normal" x="1351.062475028771" y="90.421633036" text-anchor="start" dominant-baseline="alphabetic" xml:space="preserve">Screening (current)</text></g><g><path fill="white" stroke="black" paint-order="fill stroke markers" d=" M 1598.79013053447 42.81833751159999 A 26.123759739 26.123759739 0 1 1 1598.7901174725914 42.792213756214935 M 1545.0473116774701 71.334576257 L 1600.2854299134701 71.334576257" stroke-miterlimit="10" stroke-width="2.990598758" stroke-dasharray=""/></g><g><g/><text fill="black" stroke="none" font-family="sans-serif" font-size="11pt" font-style="normal" font-weight="normal" text-decoration="normal" x="1502.1545681221303" y="90.421633036" text-anchor="start" dominant-baseline="alphabetic" xml:space="preserve">Screening (selected)</text></g><path fill="none" stroke="none"/><g><path fill="white" stroke="black" paint-order="fill stroke markers" d=" M 1660.76993086881 48.201415276000006 L 1823.19599755181 48.201415276000006 L 1823.19599755181 95.699160256 L 1660.76993086881 95.699160256 L 1660.76993086881 48.201415276000006 Z" stroke-miterlimit="10" stroke-width="2.814681184" stroke-dasharray=""/></g><g><g/><text fill="black" stroke="none" font-family="sans-serif" font-size="11pt" font-style="normal" font-weight="normal" text-decoration="normal" x="1679.85698764781" y="78.107402856" text-anchor="start" dominant-baseline="alphabetic" xml:space="preserve">ScreeningMapper</text></g><g><path fill="white" stroke="black" paint-order="fill stroke markers" d=" M 1969.6209412704375 61.219315752 L 1969.6209412704375 24.276625212000003 L 2020.9888728784376 24.276625212000003 L 2020.9888728784376 61.219315752" stroke-miterlimit="10" stroke-width="2.990598758" stroke-dasharray=""/><path fill="white" stroke="black" paint-order="fill stroke markers" d=" M 2020.9888728784376 22.992426921800003 L 2020.987588690849 23.108530585556366 L 2020.9837362565008 23.224622639043105 L 2020.9773159606336 23.34069147315161 L 2020.9683284452713 23.45672548109521 L 2020.956774609158 23.572713059569786 L 2020.9426556076676 23.688642609914158 L 2020.9259728526888 23.804502539269897 L 2020.906728012483 23.920281261740616 L 2020.884923011518 24.03596719955055 L 2020.860560030276 24.151548784202323 L 2020.8336415050346 24.26701445763379 L 2020.804170127624 24.382352673373823 L 2020.7721488451577 24.497551897696965 L 2020.7375808597367 24.612600610776788 L 2020.700469628131 24.72748730783785 L 2020.660818861433 24.84220050030619 L 2020.618632524686 24.956728716958153 L 2020.5739148364887 25.07106050506751 L 2020.5266702685726 25.18518443155073 L 2020.4769035453553 25.299089084110268 L 2020.4246196434674 25.412763072375785 L 2020.3698237912556 25.526195029043187 L 2020.3125214682595 25.63937361101133 L 2020.2527184046637 25.75228750051633 L 2020.1904205807245 25.86492540626334 L 2020.1256342261727 25.97727606455564 L 2020.0583658195894 26.089328240421032 L 2019.9886220877597 26.201070728735306 L 2019.9164100049982 26.312492355342748 L 2019.841736792453 26.423581978173544 L 2019.7646099173835 26.53432848835799 L 2019.6850370924126 26.644720811337358 L 2019.6030262747568 26.754747907971336 L 2019.518585665429 26.864398775641956 L 2019.4317237084203 26.973662449353824 L 2019.3424490898537 27.08252800283062 L 2019.250770737117 27.190984549607727 L 2019.1566978179687 27.29902124412083 L 2019.0602397396226 27.406627282790524 L 2018.961406147806 27.513791905102604 L 2018.8602069257956 27.620504394684144 L 2018.7566521934295 27.726754080375116 L 2018.6507523060945 27.83253033729549 L 2018.5425178536912 27.93782258790772 L 2018.4319596595747 28.04262030307449 L 2018.319088779472 28.14691300311161 L 2018.203916500377 28.25069025883599 L 2018.0864543394223 28.353941692608544 L 2017.9667140427255 28.456656979371925 L 2017.8447075842166 28.55882584768306 L 2017.7204471644397 28.660438080740256 L 2017.5939452093337 28.761483517404887 L 2017.465214368988 28.861952053217486 L 2017.33426751638 28.961833641408198 L 2017.2011177460854 29.061118293901444 L 2017.0657783729703 29.1597960823147 L 2016.9282629308595 29.257857138951366 L 2016.7885851711824 29.355291657787486 L 2016.6467590615987 29.452089895452378 L 2016.502798784601 29.54824217220294 L 2016.3567187360973 29.643738872891625 L 2016.2085335239703 29.73857044792794 L 2016.0582579666182 29.83272741423341 L 2015.9059070914711 29.92620035618987 L 2015.7514961334898 30.018979926581018 L 2015.5950405336416 30.111056847527124 L 2015.4365559373555 30.20242191141283 L 2015.2760581929597 30.293065981807885 L 2015.1135633500944 30.382979994380786 L 2014.949087658109 30.472154957805202 L 2014.7826475644351 30.560581954659103 L 2014.6142597129435 30.648252142316494 L 2014.4439409422794 30.735156753831664 L 2014.2717082841775 30.821287098815887 L 2014.0975789617603 30.906634564306433 L 2013.9215703878147 30.991190615627882 L 2013.7437001630517 31.074946797245563 L 2013.5639860743456 31.15789473361111 L 2013.3824460929552 31.24002613000001 L 2013.1990983727276 31.321332773341062 L 2013.0139612482817 31.4018065330377 L 2012.8270532331762 31.481439361781 L 2012.6383930180564 31.560223296354458 L 2012.447999468787 31.638150458430268 L 2012.2558916245637 31.715213055357157 L 2012.0620886960114 31.791403380939656 L 2011.866610063261 31.8667138162087 L 2011.6694752740134 31.941136830183517 L 2011.4707040415826 32.01466498062472 L 2011.2703162429268 32.08729091477856 L 2011.0683319166585 32.15900737011212 L 2010.864771261042 32.22980717503965 L 2010.6596546319736 32.29968324963964 L 2010.453002540945 32.368628606362876 L 2010.244835652993 32.43663635073112 L 2010.035174784633 32.50369968202662 L 2009.8240409017774 32.569811893972144 L 2009.6114551176381 32.63496637540157 L 2009.3974386906166 32.69915661092105 L 2009.1820130221772 32.76237618156054 L 2008.9651996547072 32.82461876541566 L 2008.7470202693628 32.88587813827987 L 2008.5274966839006 32.94614817426695 L 2008.3066508504962 33.005422846423535 L 2008.084504853549 33.06369622733178 L 2007.8610809074737 33.12096248970218 L 2007.6364013544783 33.1772159069562 L 2007.410488662331 33.232450853798994 L 2007.1833654221132 33.28666180678192 L 2006.955054345959 33.339843344854856 L 2006.7255782647862 33.391990149908295 L 2006.4949601260116 33.4430970073052 L 2006.263222991257 33.49315880640242 L 2006.0303900340423 33.54217054106175 L 2005.7964845374697 33.590127310150585 L 2005.5615298918938 33.637024318031976 L 2005.3255495925832 33.68285687504421 L 2005.0885672373713 33.72762039796977 L 2004.8506065242962 33.77131041049369 L 2004.6116912492307 33.81392254365112 L 2004.3718453035033 33.85545253626423 L 2004.131092671509 33.8958962353684 L 2003.88945742831 33.9352495966274 L 2003.6469637372293 33.9735086847379 L 2003.403635847434 34.01066967382299 L 2003.1594980915106 34.046728847814705 L 2002.9145748830306 34.081682600825715 L 2002.6688907141113 34.11552743750983 L 2002.4224701529647 34.1482599734116 L 2002.1753378414414 34.179876935304705 L 2001.9275184925668 34.210375161519295 L 2001.6790368880693 34.23975160225818 L 2001.4299178759022 34.26800331990176 L 2001.180186367759 34.295127489301805 L 2000.9298673365824 34.321121398063994 L 2000.6789858140673 34.34598244681909 L 2000.4275668881564 34.36970814948297 L 2000.1756357005333 34.3922961335051 L 1999.9232174441063 34.413744140105926 L 1999.670337360491 34.43405002450265 L 1999.4170207374848 34.453211756123764 L 1999.163292906539 34.47122741881206 L 1998.9091792402255 34.4880952110163 L 1998.6547051496989 34.5038134459713 L 1998.3998960821564 34.518380551866684 L 1998.144777518292 34.53179507200398 L 1997.88937496975 34.54405566494237 L 1997.633713976572 34.555161104632774 L 1997.3778201046446 34.565110280540466 L 1997.1217189431416 34.573902197756155 L 1996.8654361019655 34.58153597709545 L 1996.6089972091872 34.58801085518677 L 1996.3524279084822 34.59332618454771 L 1996.095753856567 34.59748143364976 L 1995.8390007206322 34.60047618697147 L 1995.582194175778 34.60231014504 L 1995.325359902445 34.60298312446108 L 1995.0685235838457 34.60249505793733 L 1994.811710903399 34.600845994274984 L 1994.554947542158 34.59803609837904 L 1994.2982591762454 34.594065651236754 L 1994.041671474284 34.58893504988952 L 1993.7852100948296 34.5826448073932 L 1993.528900683807 34.57519555276681 L 1993.2727688719433 34.566588030929594 L 1993.0168402722065 34.556823102626566 L 1992.761140477243 34.545901744342416 L 1992.5056950568196 34.53382504820388 L 1992.2505295552653 34.52059422187051 L 1991.9956694889177 34.5062105884139 L 1991.7411403435708 34.49067558618542 L 1991.4869675719272 34.47399076867234 L 1991.2331765910521 34.45615780434251 L 1990.9797927798325 34.4371784764775 L 1990.726841476438 34.41705468299429 L 1990.4743479757883 34.395788436255444 L 1990.222337527023 34.37338186286793 L 1989.970835330977 34.34983720347041 L 1989.7198665376604 34.32515681250919 L 1989.469456243743 34.29934315800281 L 1989.2196294900461 34.27239882129521 L 1988.9704112590364 34.24432649679761 L 1988.7218264723297 34.21512899171906 L 1988.4738999881972 34.18480922578574 L 1988.2266565990808 34.15337023094897 L 1987.9801210291134 34.12081515108205 L 1987.7343179316467 34.08714724166582 L 1987.4892718867854 34.05236986946318 L 1987.2450073989298 34.016486512182354 L 1987.0015488943254 33.97950075812918 L 1986.7589207186193 33.94141630584823 L 1986.5171471344272 33.90223696375301 L 1986.2762523189062 33.86196664974507 L 1986.0362603613366 33.820609390822256 L 1985.7971952607147 33.77816932267599 L 1985.559080923351 33.734650689277736 L 1985.321941160481 33.69005784245455 L 1985.0857996858833 33.644395241453964 L 1984.8506801135086 33.59766745249802 L 1984.6166059551178 33.54987914832668 L 1984.3836006179324 33.50103510773054 L 1984.1516874022916 33.45114021507295 L 1983.9208894993235 33.40019945980159 L 1983.6912299886264 33.34821793594955 L 1983.4627318359599 33.29520084162589 L 1983.2354178909486 33.24115347849587 L 1983.009310884798 33.18608125125075 L 1982.7844334280198 33.12998966706737 L 1982.5608080081727 33.07288433505741 L 1982.3384569876123 33.01477096570647 L 1982.117402601255 32.95565537030307 L 1981.8976669543556 32.89554346035748 L 1981.6792720202955 32.8344412470106 L 1981.4622396383863 32.772354840432854 L 1981.246591511685 32.709290449213164 L 1981.0323492048249 32.645254379738084 L 1980.819534141858 32.580253035561206 L 1980.608167604113 32.514292916762784 L 1980.3982707280682 32.44738061929973 L 1980.1898645032354 32.37952283434602 L 1979.9829697700643 32.310726347623614 L 1979.7776072178551 32.24099803872385 L 1979.5737973826924 32.17034488041951 L 1979.3715606453898 32.09877393796755 L 1979.170917229452 32.026292368402565 L 1978.971887199054 31.952907419821116 L 1978.7744904570325 31.87862643065691 L 1978.5787467428977 31.803456828946963 L 1978.3846756308574 31.727406131588797 L 1978.1922965278616 31.65048194358878 L 1978.0016286716598 31.572691957301604 L 1977.812691128879 31.494043951661077 L 1977.6255027931159 31.41454579140222 L 1977.440082383048 31.334205426274806 L 1977.256448440562 31.25303089024841 L 1977.0746193288992 31.171030300708985 L 1976.894613230819 31.088211857647146 L 1976.7164481467814 31.004583842838187 L 1976.5401418931463 30.9201546190139 L 1976.3657121003919 30.834932629026305 L 1976.1931762113522 30.748926395003394 L 1976.0225514794727 30.662144517496888 L 1975.8538549670839 30.574595674622223 L 1975.6871035436968 30.486288621190724 L 1975.5223138843146 30.397232187834156 L 1975.359502467766 30.307435280121634 L 1975.198685575057 30.216906877669096 L 1975.0398792877427 30.125656033241356 L 1974.8830994863197 30.033691871846806 L 1974.7283618486374 29.941023589824955 L 1974.5756818483305 29.84766045392678 L 1974.425074753272 29.753611800388065 L 1974.2765556240458 29.658887033995796 L 1974.130139312441 29.563495627147667 L 1973.985840459967 29.467447118904882 L 1973.8436734963884 29.370751114038217 L 1973.7036526382835 29.27341728206758 L 1973.5657918876211 29.175455356295057 L 1973.4301050303616 29.07687513283159 L 1973.2966056350774 28.977686469617378 L 1973.1653070515972 28.877899285436083 L 1973.0362224096696 28.777523558922972 L 1972.9093646176511 28.67656932756704 L 1972.7847463612156 28.575046686707307 L 1972.6623801020846 28.472965788523247 L 1972.5422780767822 28.37033684101962 L 1972.4244522954107 28.267170107005644 L 1972.3089145404501 28.16347590306875 L 1972.1956763655796 28.059264598542924 L 1972.0847490945225 27.954546614471777 L 1971.9761438199132 27.849332422566448 L 1971.869871402189 27.743632544158448 L 1971.7659424685025 27.637457549147538 L 1971.6643674116613 27.53081805494474 L 1971.5651563890856 27.423724725410608 L 1971.4683193217957 27.316188269788846 L 1971.3738658934171 27.208219441635414 L 1971.2818055492141 27.099829037743145 L 1971.1921474951446 26.991027897062104 L 1971.104900696939 26.881826899615692 L 1971.0200738792046 26.77223696541266 L 1970.9376755245526 26.662269053355093 L 1970.8577138727494 26.55193416014256 L 1970.7801969198938 26.441243319172447 L 1970.7051324176164 26.330207599436594 L 1970.6325278723052 26.218838104414456 L 1970.5623905443538 26.10714597096272 L 1970.4947274474366 25.99514236820166 L 1970.429545347807 25.882838496398215 L 1970.366850763621 25.770245585845977 L 1970.3066499642841 25.657374895742176 L 1970.2489489698266 25.544237713061765 L 1970.1937535502998 25.43084535142873 L 1970.1410692251993 25.317209149984738 L 1970.0909012629138 25.203340472255242 L 1970.043254680198 25.08925070501312 L 1969.9981342416704 24.974951257140024 L 1969.955544459337 24.860453558485496 L 1969.9154895921408 24.74576905872398 L 1969.8779736455351 24.630909226209884 L 1969.8430003710832 24.515885546830745 L 1969.8105732660836 24.40070952285865 L 1969.7806955732194 24.28539267180001 L 1969.7533702802355 24.169946525243844 L 1969.7286001196378 24.05438262770859 L 1969.7063875684223 23.93871253548771 L 1969.6867348478252 23.82294781549403 L 1969.6696439231025 23.707100044103075 L 1969.6551165033322 23.591180805995453 L 1969.6431540412443 23.47520169299837 L 1969.6337577330748 23.359174302926476 L 1969.6269285184471 23.243110238422094 L 1969.6226670802769 23.12702110579495 L 1969.6209738447042 23.01091851386157 L 1969.621848981051 22.894814072784392 L 1969.625292401805 22.77871939291077 L 1969.6313037626264 22.66264608361195 L 1969.6398824623845 22.546605752122133 L 1969.6510276432164 22.430610002377765 L 1969.6647381906132 22.314670433857163 L 1969.6810127335316 22.19879864042056 L 1969.699849644531 22.08300620915074 L 1969.721247039936 21.967304719194335 L 1969.7452027800248 21.851705740603922 L 1969.771714469243 21.736220833181036 L 1969.8007794564446 21.620861545320174 L 1969.8323948351544 21.505639412853995 L 1969.866557443861 21.390565957899724 L 1969.9032638663323 21.275652687706962 L 1969.9425104319564 21.16091109350697 L 1969.9842932161093 21.046352649363552 L 1970.0286080405479 20.93198881102565 L 1970.0754504738263 20.817831014781802 L 1970.12481583174 20.703890676316497 L 1970.176699177795 20.590179189568637 L 1970.2310953236993 20.47670792559213 L 1970.2879988298841 20.36348823141882 L 1970.347404006046 20.25053142892377 L 1970.4093049117166 20.137848813693108 L 1970.4736953568574 20.025451653894443 L 1970.5405689024774 19.913351189150102 L 1970.6099188612777 19.801558629413137 L 1970.6817382983202 19.69008515384636 L 1970.7560200317212 19.57894190970444 L 1970.832756633369 19.468140011219166 L 1970.9119404296673 19.357690538488054 L 1970.993563502303 19.24760453636634 L 1971.0776176890363 19.13789301336249 L 1971.164094584519 19.028566940537385 L 1971.2529855411333 18.9196372504072 L 1971.3442816698578 18.811114835850173 L 1971.4379738411556 18.703010549017325 L 1971.5340526858877 18.595335200247256 L 1971.6325085962496 18.488099556985112 L 1971.7333317267326 18.381314342705853 L 1971.8365119951072 18.274990235841926 L 1971.942039083433 18.169137868715406 L 1972.0499024390888 18.063767826474802 L 1972.160091275829 17.95889064603653 L 1972.2725945748618 17.854516815031236 L 1972.387401085951 17.750656770755036 L 1972.5044993285412 17.647320899125816 L 1972.6238775929057 17.544519533644625 L 1972.7455239413177 17.44226295436234 L 1972.8694262092436 17.34056138685168 L 1972.9955720065595 17.239425001184642 L 1973.1239487187916 17.13886391091551 L 1973.2545435083748 17.038888172069516 L 1973.3873433159397 16.939507782137227 L 1973.5223348616157 16.840732679074826 L 1973.6595046463608 16.742572740310298 L 1973.7988389533111 16.645037781755725 L 1973.9403238491518 16.548137556825687 L 1974.0839451855113 16.45188175546192 L 1974.2296886003755 16.35628000316435 L 1974.3775395195246 16.261341860028544 L 1974.5274831579898 16.167076819789692 L 1974.679504521532 16.073494308873272 L 1974.8335884081418 15.980603685452383 L 1974.989719409559 15.888414238511963 L 1975.1478819128133 15.79693518691988 L 1975.3080601017864 15.706175678505064 L 1975.4702379587925 15.61614478914272 L 1975.6343992661816 15.526851521846762 L 1975.8005276079593 15.438304805869507 L 1975.9686063714303 15.350513495808762 L 1976.1386187488579 15.26348637072238 L 1976.3105477391462 15.177232133250339 L 1976.4843761495395 15.091759408744515 L 1976.6600865973414 15.00707674440613 L 1976.837661511654 14.923192608431044 L 1977.0170831351334 14.840115389162959 L 1977.1983335257669 14.757853394254566 L 1977.3813945586667 14.676414849836805 L 1977.5662479278817 14.595807899696254 L 1977.7528751482291 14.516040604460756 L 1977.9412575571425 14.437120940793358 L 1978.131376316538 14.359056800594665 L 1978.3232124146982 14.281855990213637 L 1978.516746668173 14.205526229666987 L 1978.7119597236983 14.130075151867153 L 1978.908832060131 14.055510301859046 L 1979.1073439904021 13.981839136065528 L 1979.3074756634837 13.909069021541786 L 1979.5092070663752 13.837207235238628 L 1979.7125180261044 13.766260963274803 L 1979.9173882117448 13.696237300218385 L 1980.1237971364485 13.627143248377326 L 1980.3317241594953 13.558985717099231 L 1980.541148488356 13.491771522080432 L 1980.752049180772 13.425507384684419 L 1980.9644051468501 13.360199931269712 L 1981.1781951511707 13.295855692527226 L 1981.3933978149112 13.23248110282722 L 1981.6099916179849 13.170082499575852 L 1981.8279549011918 13.108666122581443 L 1982.0472658683855 13.04823811343052 L 1982.2679025886516 12.988804514873634 L 1982.4898429985021 12.930371270221118 L 1982.713064904081 12.87294422274874 L 1982.9375459833839 12.816529115113394 L 1983.1632637884898 12.76113158877883 L 1983.3901957478063 12.706757183451517 L 1983.6183191683265 12.653411336526675 L 1983.8476112378985 12.601099382544545 L 1984.0780490275065 12.549826552656928 L 1984.3096094935634 12.499597974104088 L 1984.5422694802157 12.450418669702023 L 1984.7760057216587 12.402293557340188 L 1985.010794844463 12.35522744948972 L 1985.2466133699115 12.309225052722176 L 1985.483437716349 12.264290967238905 L 1985.7212442015375 12.220429686411006 L 1985.9600090450272 12.17764559633001 L 1986.199708370532 12.135942975369273 L 1986.44031820832 12.09532599375614 L 1986.6818144976073 12.055798713154925 L 1986.9241730889664 12.017365086260746 L 1987.1673697467402 11.980028956404269 L 1987.4113801514654 11.943794057167361 L 1987.656179902305 11.908664012009755 L 1987.901744519488 11.874642333906689 L 1988.148049446757 11.841732424997623 L 1988.395070053825 11.809937576246021 L 1988.6427816388368 11.779260967110266 L 1988.8911594308404 11.749705665225706 L 1989.1401785922635 11.7212746260979 L 1989.3898142213977 11.693970692807069 L 1989.640041354888 11.667796595723788 L 1989.8908349702292 11.642754952235952 L 1990.1421699882694 11.618848266487047 L 1990.3940212757159 11.59607892912572 L 1990.6463636476499 11.57444921706674 L 1990.8991718700445 11.55396129326328 L 1991.152420662288 11.534617206490651 L 1991.4060846997124 11.51641889114141 L 1991.6601386161253 11.499368167031927 L 1991.9145570063467 11.483466739220404 L 1992.1693144287497 11.46871619783637 L 1992.424385407804 11.455118017921672 L 1992.6797444366248 11.44267355928297 L 1992.9353659795217 11.431384066355758 L 1993.1912244745533 11.421250668079919 L 1993.4472943360838 11.412274377786838 L 1993.7035499573399 11.404456093098062 L 1993.9599657129734 11.397796595835548 L 1994.2165159616222 11.392296551943469 L 1994.4731750484752 11.387956511421633 L 1994.729917307838 11.384776908270476 L 1994.986717065698 11.382758060447662 L 1995.2435486422937 11.38190016983629 L 1995.5003863546817 11.38220332222471 L 1995.7572045193044 11.38366748729793 L 1996.0139774545596 11.38629251864067 L 1996.2706794833678 11.390078153751977 L 1996.5272849357395 11.395024014071499 L 1996.783768151344 11.40112960501732 L 1997.0401034820734 11.40839431603544 L 1997.2962652946078 11.41681742066081 L 1997.5522279729796 11.42639807658998 L 1997.8079659211344 11.437135325765349 L 1998.0634535654904 11.449028094470941 L 1998.318665357496 11.462075193439802 L 1998.5735757761847 11.476275317972902 L 1998.8281593307272 11.491627048069626 L 1999.0823905629802 11.508128848569752 L 1999.336244050032 11.525779069306987 L 1999.5896944067458 11.544575945273964 L 1999.8427162882972 11.564517596798748 L 2000.0952843927084 11.585602029732806 L 2000.3473734633799 11.607827135650416 L 2000.5989582916145 11.631190692059505 L 2000.8500137191393 11.655690362623902 L 2001.1005146406203 11.68132369739697 L 2001.3504360061743 11.708088133066587 L 2001.5997528238731 11.735980993211495 L 2001.8484401622427 11.764999488568922 L 2002.0964731527565 11.795140717313513 L 2002.343826992322 11.826401665347511 L 2002.5904769457613 11.858779206602165 L 2002.836398348285 11.89227010335033 L 2003.0815666079575 11.92687100653024 L 2003.3259572081572 11.962578456080411 L 2003.5695457100276 11.999388881285645 L 2003.8123077549217 12.037298601134095 L 2004.054219066837 12.076303824685368 L 2004.2952554548444 12.116400651449613 L 2004.5353928155057 12.15758507177757 L 2004.774607135285 12.199852967261522 L 2005.0128744929493 12.243200111147148 L 2005.250171061962 12.28762216875618 L 2005.4864731128635 12.333114697919875 L 2005.7217570156456 12.379673149423226 L 2005.9559992421146 12.427292867459885 L 2006.1891763682424 12.47596909009773 L 2006.4212650765112 12.525696949755057 L 2006.6522421582433 12.576471473687343 L 2006.8820845159232 12.628287584484506 L 2007.1107691655066 12.681140100578647 L 2007.3382732387188 12.735023736762198 L 2007.5645739853426 12.789933104716448 L 2007.7896487754915 12.845862713550355 L 2008.0134751018743 12.902806970349646 L 2008.2360305820448 12.960760180736091 L 2008.4572929606404 13.01971654943695 L 2008.6772401116077 13.07967018086448 L 2008.895850040415 13.140615079705501 L 2009.1131008862512 13.202545151520916 L 2009.3289709242133 13.265454203355151 L 2009.5434385674769 13.329335944355446 L 2009.7564823694565 13.394183986400938 L 2009.9680810259497 13.459991844741461 L 2010.178213377267 13.52675293864602 L 2010.3868584103484 13.594460592060857 L 2010.5939952608644 13.663108034277055 L 2010.7996032153028 13.732688400607602 L 2011.003661713039 13.803194733073843 L 2011.2061503483937 13.87461998110129 L 2011.4070488726722 13.946957002224657 L 2011.606337196189 14.020198562802118 L 2011.8039953902785 14.094337338738645 L 2012.0000036892852 14.16936591621843 L 2012.1943424925432 14.245276792446244 L 2012.3869923663337 14.322062376397728 L 2012.5779340458303 14.399714989578472 L 2012.7671484370237 14.478226866791868 L 2012.9546166186326 14.557590156915623 L 2013.1403198439953 14.637796923686858 L 2013.3242395429436 14.718839146495737 L 2013.5063573236614 14.800708721187512 L 2013.6866549745218 14.88339746087294 L 2013.8651144659104 14.966897096746958 L 2014.0417179520268 15.051199278915561 L 2014.2164477726692 15.136295577230786 L 2014.3892864550014 15.222177482133715 L 2014.5602167152992 15.30883640550542 L 2014.729221460679 15.396263681525788 L 2014.8962837908068 15.484450567540065 L 2015.0613869995893 15.573388244933145 L 2015.224514576843 15.663067820011399 L 2015.3856502099457 15.753480324892053 L 2015.544777785469 15.844616718399962 L 2015.7018813907878 15.936467886971723 L 2015.8569453156722 16.02902464556702 L 2016.0099540538592 16.122277738587123 L 2016.1608923046024 16.216217840800443 L 2016.3097449742024 16.31083555827504 L 2016.4564971775167 16.40612142931802 L 2016.6011342394468 16.502065925421675 L 2016.743641696407 16.59865945221635 L 2016.8840052977707 16.695892350429865 L 2017.0222110072946 16.793754896853418 L 2017.158245004523 16.892237305313927 L 2017.2920936861694 16.991329727652605 L 2017.423743667477 17.091022254709806 L 2017.5531817835579 17.191304917315893 L 2017.6803950907079 17.292167687288174 L 2017.8053708677025 17.393600478433708 L 2017.9280966170681 17.495593147557905 L 2018.0485600663321 17.59813549547885 L 2018.1667491692497 17.701217268047195 L 2018.2826521070094 17.80482815717159 L 2018.396257289414 17.90895780184946 L 2018.5075533560396 18.01359578920312 L 2018.6165291773727 18.118731655521024 L 2018.7231738559217 18.22435488730416 L 2018.8274767273078 18.330454922317365 L 2018.9294273613307 18.437021150645553 L 2019.0290155630119 18.544042915754694 L 2019.1262313736142 18.65150951555747 L 2019.2210650716377 18.75941020348345 L 2019.3135071737915 18.86773418955376 L 2019.4035484359424 18.97647064146006 L 2019.4911798540393 19.085608685647777 L 2019.5763926650136 19.19513740840344 L 2019.659178347655 19.305045856946045 L 2019.739528623464 19.415323040522324 L 2019.8174354574803 19.525957931505822 L 2019.8928910590853 19.636939466499637 L 2019.9658878827818 19.74825654744275 L 2020.0364186289482 19.859898042719834 L 2020.1044762445688 19.97185278827439 L 2020.1700539239384 20.084109588725166 L 2020.2331451093442 20.196657218485658 L 2020.2937434917199 20.309484422886683 L 2020.3518430112777 20.422579919301818 L 2020.4074378581142 20.535932398275673 L 2020.4605224727911 20.649530524654807 L 2020.511091546891 20.76336293872125 L 2020.559140023549 20.877418257328454 L 2020.604663097957 20.991685075039605 L 2020.647656217846 21.10615196526815 L 2020.688115083939 21.220807481420458 L 2020.7260356503841 21.33564015804046 L 2020.7614141251556 21.450638511956186 L 2020.7942469704358 21.565791043428078 L 2020.8245309029676 21.68108623729895 L 2020.8522628943826 21.796512564145488 L 2020.877440171505 21.9120584814312 L 2020.9000602166282 22.027712434660646 L 2020.9201207677663 22.14346285853488 L 2020.937619818881 22.259298178107972 L 2020.9525556200817 22.375206809944494 L 2020.964926677801 22.491177163277854 L 2020.9747317549432 22.60719764116936 L 2020.9819698710087 22.723256641667906 L 2020.9866403021922 22.839342558970156 L 2020.988742581454 22.95544378458112 M 2020.9888728784376 59.9351174618 L 2020.987588690849 60.05122112555636 L 2020.9837362565008 60.1673131790431 L 2020.9773159606336 60.28338201315161 L 2020.9683284452713 60.3994160210952 L 2020.956774609158 60.51540359956978 L 2020.9426556076676 60.631333149914155 L 2020.9259728526888 60.74719307926989 L 2020.906728012483 60.86297180174061 L 2020.884923011518 60.97865773955054 L 2020.860560030276 61.09423932420232 L 2020.8336415050346 61.209704997633786 L 2020.804170127624 61.32504321337382 L 2020.7721488451577 61.44024243769696 L 2020.7375808597367 61.55529115077678 L 2020.700469628131 61.67017784783785 L 2020.660818861433 61.784891040306185 L 2020.618632524686 61.89941925695815 L 2020.5739148364887 62.01375104506751 L 2020.5266702685726 62.127874971550725 L 2020.4769035453553 62.241779624110265 L 2020.4246196434674 62.35545361237578 L 2020.3698237912556 62.46888556904318 L 2020.3125214682595 62.58206415101132 L 2020.2527184046637 62.694978040516325 L 2020.1904205807245 62.80761594626333 L 2020.1256342261727 62.91996660455563 L 2020.0583658195894 63.032018780421026 L 2019.9886220877597 63.1437612687353 L 2019.9164100049982 63.25518289534274 L 2019.841736792453 63.36627251817354 L 2019.7646099173835 63.47701902835799 L 2019.6850370924126 63.58741135133735 L 2019.6030262747568 63.69743844797133 L 2019.518585665429 63.80708931564195 L 2019.4317237084203 63.91635298935382 L 2019.3424490898537 64.02521854283061 L 2019.250770737117 64.13367508960772 L 2019.1566978179687 64.24171178412082 L 2019.0602397396226 64.34931782279051 L 2018.961406147806 64.4564824451026 L 2018.8602069257956 64.56319493468413 L 2018.7566521934295 64.66944462037512 L 2018.6507523060945 64.77522087729548 L 2018.5425178536912 64.88051312790772 L 2018.4319596595747 64.98531084307449 L 2018.319088779472 65.08960354311161 L 2018.203916500377 65.19338079883599 L 2018.0864543394223 65.29663223260853 L 2017.9667140427255 65.39934751937191 L 2017.8447075842166 65.50151638768305 L 2017.7204471644397 65.60312862074025 L 2017.5939452093337 65.70417405740488 L 2017.465214368988 65.80464259321748 L 2017.33426751638 65.90452418140819 L 2017.2011177460854 66.00380883390143 L 2017.0657783729703 66.1024866223147 L 2016.9282629308595 66.20054767895135 L 2016.7885851711824 66.29798219778748 L 2016.6467590615987 66.39478043545238 L 2016.502798784601 66.49093271220293 L 2016.3567187360973 66.58642941289162 L 2016.2085335239703 66.68126098792794 L 2016.0582579666182 66.7754179542334 L 2015.9059070914711 66.86889089618987 L 2015.7514961334898 66.96167046658101 L 2015.5950405336416 67.05374738752711 L 2015.4365559373555 67.14511245141283 L 2015.2760581929597 67.23575652180789 L 2015.1135633500944 67.32567053438078 L 2014.949087658109 67.4148454978052 L 2014.7826475644351 67.5032724946591 L 2014.6142597129435 67.59094268231648 L 2014.4439409422794 67.67784729383166 L 2014.2717082841775 67.76397763881587 L 2014.0975789617603 67.84932510430643 L 2013.9215703878147 67.93388115562787 L 2013.7437001630517 68.01763733724556 L 2013.5639860743456 68.1005852736111 L 2013.3824460929552 68.18271667 L 2013.1990983727276 68.26402331334106 L 2013.0139612482817 68.34449707303769 L 2012.8270532331762 68.42412990178099 L 2012.6383930180564 68.50291383635445 L 2012.447999468787 68.58084099843026 L 2012.2558916245637 68.65790359535715 L 2012.0620886960114 68.73409392093966 L 2011.866610063261 68.80940435620869 L 2011.6694752740134 68.88382737018351 L 2011.4707040415826 68.95735552062472 L 2011.2703162429268 69.02998145477855 L 2011.0683319166585 69.10169791011212 L 2010.864771261042 69.17249771503964 L 2010.6596546319736 69.24237378963963 L 2010.453002540945 69.31131914636286 L 2010.244835652993 69.37932689073111 L 2010.035174784633 69.44639022202662 L 2009.8240409017774 69.51250243397213 L 2009.6114551176381 69.57765691540156 L 2009.3974386906166 69.64184715092105 L 2009.1820130221772 69.70506672156054 L 2008.9651996547072 69.76730930541565 L 2008.7470202693628 69.82856867827986 L 2008.5274966839006 69.88883871426695 L 2008.3066508504962 69.94811338642353 L 2008.084504853549 70.00638676733178 L 2007.8610809074737 70.06365302970217 L 2007.6364013544783 70.1199064469562 L 2007.410488662331 70.175141393799 L 2007.1833654221132 70.22935234678192 L 2006.955054345959 70.28253388485484 L 2006.7255782647862 70.33468068990828 L 2006.4949601260116 70.3857875473052 L 2006.263222991257 70.4358493464024 L 2006.0303900340423 70.48486108106175 L 2005.7964845374697 70.53281785015058 L 2005.5615298918938 70.57971485803196 L 2005.3255495925832 70.6255474150442 L 2005.0885672373713 70.67031093796977 L 2004.8506065242962 70.71400095049368 L 2004.6116912492307 70.7566130836511 L 2004.3718453035033 70.79814307626422 L 2004.131092671509 70.83858677536838 L 2003.88945742831 70.87794013662739 L 2003.6469637372293 70.9161992247379 L 2003.403635847434 70.95336021382298 L 2003.1594980915106 70.9894193878147 L 2002.9145748830306 71.0243731408257 L 2002.6688907141113 71.05821797750983 L 2002.4224701529647 71.0909505134116 L 2002.1753378414414 71.12256747530469 L 2001.9275184925668 71.1530657015193 L 2001.6790368880693 71.18244214225817 L 2001.4299178759022 71.21069385990175 L 2001.180186367759 71.2378180293018 L 2000.9298673365824 71.26381193806398 L 2000.6789858140673 71.2886729868191 L 2000.4275668881564 71.31239868948296 L 2000.1756357005333 71.3349866735051 L 1999.9232174441063 71.35643468010592 L 1999.670337360491 71.37674056450265 L 1999.4170207374848 71.39590229612375 L 1999.163292906539 71.41391795881206 L 1998.9091792402255 71.43078575101629 L 1998.6547051496989 71.4465039859713 L 1998.3998960821564 71.46107109186667 L 1998.144777518292 71.47448561200397 L 1997.88937496975 71.48674620494236 L 1997.633713976572 71.49785164463276 L 1997.3778201046446 71.50780082054045 L 1997.1217189431416 71.51659273775616 L 1996.8654361019655 71.52422651709544 L 1996.6089972091872 71.53070139518677 L 1996.3524279084822 71.53601672454771 L 1996.095753856567 71.54017197364975 L 1995.8390007206322 71.54316672697146 L 1995.582194175778 71.54500068504 L 1995.325359902445 71.54567366446108 L 1995.0685235838457 71.54518559793732 L 1994.811710903399 71.54353653427498 L 1994.554947542158 71.54072663837904 L 1994.2982591762454 71.53675619123675 L 1994.041671474284 71.53162558988952 L 1993.7852100948296 71.5253353473932 L 1993.528900683807 71.5178860927668 L 1993.2727688719433 71.50927857092958 L 1993.0168402722065 71.49951364262655 L 1992.761140477243 71.48859228434242 L 1992.5056950568196 71.47651558820388 L 1992.2505295552653 71.4632847618705 L 1991.9956694889177 71.4489011284139 L 1991.7411403435708 71.4333661261854 L 1991.4869675719272 71.41668130867232 L 1991.2331765910521 71.3988483443425 L 1990.9797927798325 71.3798690164775 L 1990.726841476438 71.35974522299428 L 1990.4743479757883 71.33847897625544 L 1990.222337527023 71.31607240286793 L 1989.970835330977 71.2925277434704 L 1989.7198665376604 71.26784735250918 L 1989.469456243743 71.24203369800281 L 1989.2196294900461 71.21508936129521 L 1988.9704112590364 71.18701703679761 L 1988.7218264723297 71.15781953171906 L 1988.4738999881972 71.12749976578573 L 1988.2266565990808 71.09606077094897 L 1987.9801210291134 71.06350569108204 L 1987.7343179316467 71.02983778166582 L 1987.4892718867854 70.99506040946316 L 1987.2450073989298 70.95917705218234 L 1987.0015488943254 70.92219129812916 L 1986.7589207186193 70.88410684584822 L 1986.5171471344272 70.844927503753 L 1986.2762523189062 70.80465718974506 L 1986.0362603613366 70.76329993082226 L 1985.7971952607147 70.720859862676 L 1985.559080923351 70.67734122927773 L 1985.321941160481 70.63274838245455 L 1985.0857996858833 70.58708578145396 L 1984.8506801135086 70.54035799249802 L 1984.6166059551178 70.49256968832668 L 1984.3836006179324 70.44372564773053 L 1984.1516874022916 70.39383075507294 L 1983.9208894993235 70.34288999980159 L 1983.6912299886264 70.29090847594955 L 1983.4627318359599 70.23789138162589 L 1983.2354178909486 70.18384401849586 L 1983.009310884798 70.12877179125074 L 1982.7844334280198 70.07268020706736 L 1982.5608080081727 70.0155748750574 L 1982.3384569876123 69.95746150570646 L 1982.117402601255 69.89834591030306 L 1981.8976669543556 69.83823400035747 L 1981.6792720202955 69.7771317870106 L 1981.4622396383863 69.71504538043285 L 1981.246591511685 69.65198098921316 L 1981.0323492048249 69.58794491973808 L 1980.819534141858 69.5229435755612 L 1980.608167604113 69.45698345676277 L 1980.3982707280682 69.39007115929972 L 1980.1898645032354 69.32221337434602 L 1979.9829697700643 69.25341688762362 L 1979.7776072178551 69.18368857872385 L 1979.5737973826924 69.11303542041951 L 1979.3715606453898 69.04146447796754 L 1979.170917229452 68.96898290840255 L 1978.971887199054 68.89559795982112 L 1978.7744904570325 68.82131697065691 L 1978.5787467428977 68.74614736894696 L 1978.3846756308574 68.6700966715888 L 1978.1922965278616 68.59317248358877 L 1978.0016286716598 68.5153824973016 L 1977.812691128879 68.43673449166107 L 1977.6255027931159 68.3572363314022 L 1977.440082383048 68.27689596627481 L 1977.256448440562 68.19572143024841 L 1977.0746193288992 68.11372084070898 L 1976.894613230819 68.03090239764714 L 1976.7164481467814 67.94727438283817 L 1976.5401418931463 67.86284515901389 L 1976.3657121003919 67.7776231690263 L 1976.1931762113522 67.69161693500338 L 1976.0225514794727 67.60483505749689 L 1975.8538549670839 67.51728621462222 L 1975.6871035436968 67.42897916119072 L 1975.5223138843146 67.33992272783415 L 1975.359502467766 67.25012582012162 L 1975.198685575057 67.15959741766909 L 1975.0398792877427 67.06834657324134 L 1974.8830994863197 66.9763824118468 L 1974.7283618486374 66.88371412982495 L 1974.5756818483305 66.79035099392678 L 1974.425074753272 66.69630234038806 L 1974.2765556240458 66.60157757399578 L 1974.130139312441 66.50618616714766 L 1973.985840459967 66.41013765890487 L 1973.8436734963884 66.31344165403821 L 1973.7036526382835 66.21610782206757 L 1973.5657918876211 66.11814589629505 L 1973.4301050303616 66.01956567283159 L 1973.2966056350774 65.92037700961737 L 1973.1653070515972 65.82058982543607 L 1973.0362224096696 65.72021409892297 L 1972.9093646176511 65.61925986756704 L 1972.7847463612156 65.5177372267073 L 1972.6623801020846 65.41565632852324 L 1972.5422780767822 65.31302738101961 L 1972.4244522954107 65.20986064700564 L 1972.3089145404501 65.10616644306874 L 1972.1956763655796 65.00195513854293 L 1972.0847490945225 64.89723715447177 L 1971.9761438199132 64.79202296256643 L 1971.869871402189 64.68632308415845 L 1971.7659424685025 64.58014808914753 L 1971.6643674116613 64.47350859494473 L 1971.5651563890856 64.3664152654106 L 1971.4683193217957 64.25887880978884 L 1971.3738658934171 64.15090998163541 L 1971.2818055492141 64.04251957774314 L 1971.1921474951446 63.9337184370621 L 1971.104900696939 63.82451743961569 L 1971.0200738792046 63.71492750541265 L 1970.9376755245526 63.60495959335508 L 1970.8577138727494 63.49462470014256 L 1970.7801969198938 63.38393385917244 L 1970.7051324176164 63.272898139436585 L 1970.6325278723052 63.161528644414446 L 1970.5623905443538 63.04983651096271 L 1970.4947274474366 62.937832908201656 L 1970.429545347807 62.82552903639821 L 1970.366850763621 62.71293612584597 L 1970.3066499642841 62.600065435742174 L 1970.2489489698266 62.486928253061755 L 1970.1937535502998 62.37353589142872 L 1970.1410692251993 62.259899689984735 L 1970.0909012629138 62.146031012255236 L 1970.043254680198 62.031941245013115 L 1969.9981342416704 61.91764179714002 L 1969.955544459337 61.80314409848549 L 1969.9154895921408 61.68845959872397 L 1969.8779736455351 61.57359976620988 L 1969.8430003710832 61.45857608683074 L 1969.8105732660836 61.34340006285864 L 1969.7806955732194 61.228083211800005 L 1969.7533702802355 61.11263706524384 L 1969.7286001196378 60.997073167708585 L 1969.7063875684223 60.881403075487704 L 1969.6867348478252 60.765638355494026 L 1969.6696439231025 60.64979058410307 L 1969.6551165033322 60.53387134599544 L 1969.6431540412443 60.41789223299836 L 1969.6337577330748 60.30186484292647 L 1969.6269285184471 60.185800778422085 L 1969.6226670802769 60.069711645794946 L 1969.6209738447042 59.95360905386156" stroke-miterlimit="10" stroke-width="2.990598758" stroke-dasharray=""/></g><g><g/><text fill="black" stroke="none" font-family="sans-serif" font-size="11pt" font-style="normal" font-weight="normal" text-decoration="normal" x="1962.706495514379" y="90.421633036" text-anchor="start" dominant-baseline="alphabetic" xml:space="preserve">Database</text></g></g><g><path fill="white" stroke="black" paint-order="fill stroke markers" d=" M 490.71500828421097 153.751959676 L 508.306765684211 153.751959676 L 508.306765684211 739.5574810960001 L 490.71500828421097 739.5574810960001 L 490.71500828421097 153.751959676" stroke-miterlimit="10" stroke-width="1.4659797833333332" stroke-dasharray=""/><path fill="white" stroke="black" paint-order="fill stroke markers" d=" M 874.5221761618152 347.261291076 L 892.1139335618152 347.261291076 L 892.1139335618152 690.300560376 L 874.5221761618152 690.300560376 L 874.5221761618152 347.261291076" stroke-miterlimit="10" stroke-width="1.4659797833333332" stroke-dasharray=""/><path fill="white" stroke="black" paint-order="fill stroke markers" d=" M 490.71500828421097 788.8144018160001 L 508.306765684211 788.8144018160001 L 508.306765684211 2133.5283374719997 L 490.71500828421097 2133.5283374719997 L 490.71500828421097 788.8144018160001" stroke-miterlimit="10" stroke-width="1.4659797833333332" stroke-dasharray=""/><path fill="white" stroke="black" paint-order="fill stroke markers" d=" M 874.5221761618152 838.0713225360001 L 892.1139335618152 838.0713225360001 L 892.1139335618152 2084.271416752 L 874.5221761618152 2084.271416752 L 874.5221761618152 838.0713225360001" stroke-miterlimit="10" stroke-width="1.4659797833333332" stroke-dasharray=""/><path fill="white" stroke="black" paint-order="fill stroke markers" d=" M 883.3180548618152 910.1975278760001 L 900.9098122618152 910.1975278760001 L 900.9098122618152 2012.1452114119998 L 883.3180548618152 2012.1452114119998 L 883.3180548618152 910.1975278760001" stroke-miterlimit="10" stroke-width="1.4659797833333332" stroke-dasharray=""/><path fill="white" stroke="black" paint-order="fill stroke markers" d=" M 499.51088698421097 959.4544485960001 L 517.102644384211 959.4544485960001 L 517.102644384211 1426.3396899919996 L 499.51088698421097 1426.3396899919996 L 499.51088698421097 959.4544485960001" stroke-miterlimit="10" stroke-width="1.4659797833333332" stroke-dasharray=""/><path fill="white" stroke="black" paint-order="fill stroke markers" d=" M 176.9723499110677 1063.9494875520002 L 194.56410731106772 1063.9494875520002 L 194.56410731106772 1113.206408272 L 176.9723499110677 1113.206408272 L 176.9723499110677 1063.9494875520002" stroke-miterlimit="10" stroke-width="1.4659797833333332" stroke-dasharray=""/><path fill="white" stroke="black" paint-order="fill stroke markers" d=" M 176.9723499110677 1162.463328992 L 194.56410731106772 1162.463328992 L 194.56410731106772 1377.0827692719997 L 176.9723499110677 1377.0827692719997 L 176.9723499110677 1162.463328992" stroke-miterlimit="10" stroke-width="1.4659797833333332" stroke-dasharray=""/><path fill="white" stroke="black" paint-order="fill stroke markers" d=" M 1279.1382429652006 1475.5966107119996 L 1296.7300003652006 1475.5966107119996 L 1296.7300003652006 1816.8767042719994 L 1279.1382429652006 1816.8767042719994 L 1279.1382429652006 1475.5966107119996" stroke-miterlimit="10" stroke-width="1.4659797833333332" stroke-dasharray=""/><path fill="white" stroke="black" paint-order="fill stroke markers" d=" M 1733.18708551031 1524.8535314319995 L 1750.77884291031 1524.8535314319995 L 1750.77884291031 1767.6197835519995 L 1733.18708551031 1767.6197835519995 L 1733.18708551031 1524.8535314319995" stroke-miterlimit="10" stroke-width="1.4659797833333332" stroke-dasharray=""/><path fill="white" stroke="black" paint-order="fill stroke markers" d=" M 1741.98296421031 1596.9797367719996 L 1759.57472161031 1596.9797367719996 L 1759.57472161031 1695.4935782119996 L 1741.98296421031 1695.4935782119996 L 1741.98296421031 1596.9797367719996" stroke-miterlimit="10" stroke-width="1.4659797833333332" stroke-dasharray=""/><g><g><rect fill="white" stroke="none" x="126.1575047722422" y="130.882675056" width="263.03695715164065" height="22.86928462"/></g><text fill="black" stroke="none" font-family="sans-serif" font-size="11pt" font-style="normal" font-weight="normal" text-decoration="normal" x="128.7962683822422" y="146.71525671600003" text-anchor="start" dominant-baseline="alphabetic" xml:space="preserve">mousePressed(x : Integer, y : Integer)</text></g><g><path fill="none" stroke="black" paint-order="fill stroke markers" d=" M 24.636958411914062 153.751959676 L 476.23112802487765 153.751959676" stroke-miterlimit="10" stroke-width="1.4659797833333332" stroke-dasharray=""/><g transform="translate(490.71500828421097,153.751959676) translate(-490.71500828421097,-153.751959676)"><path fill="black" stroke="none" paint-order="stroke fill markers" d=" M 476.0552104508776 146.42206075933333 L 490.71500828421097 153.751959676 L 476.0552104508776 161.0818585926667 Z"/></g></g><g><g><rect fill="white" stroke="none" x="529.1236786075443" y="180.13959577600002" width="194.94821203445312" height="22.86928462"/></g><text fill="black" stroke="none" font-family="sans-serif" font-size="11pt" font-style="normal" font-weight="normal" text-decoration="normal" x="531.7624422175443" y="195.97217743600004" text-anchor="start" dominant-baseline="alphabetic" xml:space="preserve">sn := yToScreen(y : Integer)</text></g><g><path fill="none" stroke="black" paint-order="fill stroke markers" d=" M 508.306765684211 203.00888039600002 L 578.673795284211 203.00888039600002 L 578.673795284211 225.87816501600003 L 522.7906459435443 225.87816501600003" stroke-miterlimit="10" stroke-width="1.4659797833333332" stroke-dasharray=""/><g transform="translate(508.306765684211,225.87816501600003) translate(-508.306765684211,-225.87816501600003)"><path fill="black" stroke="none" paint-order="stroke fill markers" d=" M 522.9665635175443 218.54826609933335 L 508.306765684211 225.87816501600003 L 522.9665635175443 233.2080639326667 Z"/></g></g><g><g><rect fill="white" stroke="none" x="529.1236786075443" y="252.26580111600003" width="197.37484777664062" height="22.86928462"/></g><text fill="black" stroke="none" font-family="sans-serif" font-size="11pt" font-style="normal" font-weight="normal" text-decoration="normal" x="531.7624422175443" y="268.09838277600005" text-anchor="start" dominant-baseline="alphabetic" xml:space="preserve">time := xToTime(x : Integer)</text></g><g><path fill="none" stroke="black" paint-order="fill stroke markers" d=" M 508.306765684211 275.13508573600006 L 578.673795284211 275.13508573600006 L 578.673795284211 298.00437035600004 L 522.7906459435443 298.00437035600004" stroke-miterlimit="10" stroke-width="1.4659797833333332" stroke-dasharray=""/><g transform="translate(508.306765684211,298.00437035600004) translate(-508.306765684211,-298.00437035600004)"><path fill="black" stroke="none" paint-order="stroke fill markers" d=" M 522.9665635175443 290.6744714393334 L 508.306765684211 298.00437035600004 L 522.9665635175443 305.3342692726667 Z"/></g></g><g><g><rect fill="white" stroke="none" x="533.5216179575444" y="324.39200645600005" width="315.7857059309375" height="22.86928462"/></g><text fill="black" stroke="none" font-family="sans-serif" font-size="11pt" font-style="normal" font-weight="normal" text-decoration="normal" x="536.1603815675444" y="340.22458811600006" text-anchor="start" dominant-baseline="alphabetic" xml:space="preserve">selectScreening(sn : String, time : LocalTime)</text></g><g><path fill="none" stroke="black" paint-order="fill stroke markers" d=" M 508.306765684211 347.261291076 L 860.0382959024819 347.261291076" stroke-miterlimit="10" stroke-width="1.4659797833333332" stroke-dasharray=""/><g transform="translate(874.5221761618152,347.261291076) translate(-874.5221761618152,-347.261291076)"><path fill="black" stroke="none" paint-order="stroke fill markers" d=" M 859.8623783284819 339.93139215933337 L 874.5221761618152 347.261291076 L 859.8623783284819 354.59118999266667 Z"/></g></g><g><g><rect fill="white" stroke="none" x="1091.3760611686914" y="421.146672156" width="127.17445409988281" height="22.86928462"/></g><text fill="black" stroke="none" font-family="sans-serif" font-size="11pt" font-style="normal" font-weight="normal" text-decoration="normal" x="1094.0148247786915" y="436.97925381600004" text-anchor="start" dominant-baseline="alphabetic" xml:space="preserve">getScreenName()</text></g><g><path fill="none" stroke="black" paint-order="fill stroke markers" d=" M 892.1139335618152 444.015956776 L 1403.3287626161173 444.015956776" stroke-miterlimit="10" stroke-width="1.4659797833333332" stroke-dasharray=""/><g transform="translate(1417.8126428754506,444.015956776) translate(-1417.8126428754506,-444.015956776)"><path fill="black" stroke="none" paint-order="stroke fill markers" d=" M 1403.1528450421172 436.68605785933335 L 1417.8126428754506 444.015956776 L 1403.1528450421172 451.34585569266665 Z"/></g></g><g><g><rect fill="white" stroke="none" x="1118.670258251211" y="470.403592876" width="72.58605993484375" height="22.86928462"/></g><text fill="black" stroke="none" font-family="sans-serif" font-size="11pt" font-style="normal" font-weight="normal" text-decoration="normal" x="1121.309021861211" y="486.236174536" text-anchor="start" dominant-baseline="alphabetic" xml:space="preserve">getTime()</text></g><g><path fill="none" stroke="black" paint-order="fill stroke markers" d=" M 892.1139335618152 493.272877496 L 1403.3287626161173 493.272877496" stroke-miterlimit="10" stroke-width="1.4659797833333332" stroke-dasharray=""/><g transform="translate(1417.8126428754506,493.272877496) translate(-1417.8126428754506,-493.272877496)"><path fill="black" stroke="none" paint-order="stroke fill markers" d=" M 1403.1528450421172 485.9429785793333 L 1417.8126428754506 493.272877496 L 1403.1528450421172 500.6027764126666 Z"/></g></g><g><g><rect fill="white" stroke="none" x="912.9308464851485" y="546.048149696" width="126.94535864089843" height="22.86928462"/></g><text fill="black" stroke="none" font-family="sans-serif" font-size="11pt" font-style="normal" font-weight="normal" text-decoration="normal" x="915.5696100951485" y="561.880731356" text-anchor="start" dominant-baseline="alphabetic" xml:space="preserve">notifyObservers()</text></g><g><path fill="none" stroke="black" paint-order="fill stroke markers" d=" M 892.1139335618152 568.9174343159999 L 962.4809631618152 568.9174343159999 L 962.4809631618152 591.7867189359999 L 906.5978138211485 591.7867189359999" stroke-miterlimit="10" stroke-width="1.4659797833333332" stroke-dasharray=""/><g transform="translate(892.1139335618152,591.7867189359999) translate(-892.1139335618152,-591.7867189359999)"><path fill="black" stroke="none" paint-order="stroke fill markers" d=" M 906.7737313951485 584.4568200193332 L 892.1139335618152 591.7867189359999 L 906.7737313951485 599.1166178526666 Z"/></g></g><g><g><rect fill="white" stroke="none" x="659.1121483530522" y="618.174355036" width="64.60464513992187" height="22.86928462"/></g><text fill="black" stroke="none" font-family="sans-serif" font-size="11pt" font-style="normal" font-weight="normal" text-decoration="normal" x="661.7509119630522" y="634.0069366959999" text-anchor="start" dominant-baseline="alphabetic" xml:space="preserve">update()</text></g><g><path fill="none" stroke="black" paint-order="fill stroke markers" d=" M 874.5221761618152 641.043639656 L 522.7906459435443 641.043639656" stroke-miterlimit="10" stroke-width="1.4659797833333332" stroke-dasharray=""/><g transform="translate(508.306765684211,641.043639656) translate(-508.306765684211,-641.043639656)"><path fill="black" stroke="none" paint-order="stroke fill markers" d=" M 522.9665635175443 633.7137407393333 L 508.306765684211 641.043639656 L 522.9665635175443 648.3735385726667 Z"/></g></g><g><g><rect fill="white" stroke="none" x="688.7757073130132" y="667.431275756" width="5.27752722" height="22.86928462"/></g><text fill="black" stroke="none" font-family="sans-serif" font-size="11pt" font-style="normal" font-weight="normal" text-decoration="normal" x="691.4144709230131" y="683.263857416" text-anchor="start" dominant-baseline="alphabetic" xml:space="preserve"></text></g><g><path fill="none" stroke="black" paint-order="fill stroke markers" d=" M 874.5221761618152 690.300560376 L 522.7906459435443 690.300560376" stroke-miterlimit="10" stroke-width="1.4659797833333332" stroke-dasharray="7.0367029599999995"/><g transform="translate(508.306765684211,690.300560376) translate(-508.306765684211,-690.300560376)"><path fill="black" stroke="none" paint-order="stroke fill markers" d=" M 522.9665635175443 682.9706614593333 L 508.306765684211 690.300560376 L 522.9665635175443 697.6304592926667 Z"/></g></g><g><g><rect fill="white" stroke="none" x="255.0372197380625" y="716.688196476" width="5.27752722" height="22.86928462"/></g><text fill="black" stroke="none" font-family="sans-serif" font-size="11pt" font-style="normal" font-weight="normal" text-decoration="normal" x="257.6759833480625" y="732.520778136" text-anchor="start" dominant-baseline="alphabetic" xml:space="preserve"></text></g><g><path fill="none" stroke="black" paint-order="fill stroke markers" d=" M 490.71500828421097 739.5574810960001 L 39.1208386712474 739.5574810960001" stroke-miterlimit="10" stroke-width="1.4659797833333332" stroke-dasharray="7.0367029599999995"/><g transform="translate(24.636958411914062,739.5574810960001) translate(-24.636958411914062,-739.5574810960001)"><path fill="black" stroke="none" paint-order="stroke fill markers" d=" M 39.296756245247394 732.2275821793334 L 24.636958411914062 739.5574810960001 L 39.296756245247394 746.8873800126668 Z"/></g></g><g><g><rect fill="white" stroke="none" x="193.51967976003516" y="765.9451171960001" width="128.31260717605468" height="22.86928462"/></g><text fill="black" stroke="none" font-family="sans-serif" font-size="11pt" font-style="normal" font-weight="normal" text-decoration="normal" x="196.15844337003517" y="781.777698856" text-anchor="start" dominant-baseline="alphabetic" xml:space="preserve">cancelScreening()</text></g><g><path fill="none" stroke="black" paint-order="fill stroke markers" d=" M 24.636958411914062 788.8144018160001 L 476.23112802487765 788.8144018160001" stroke-miterlimit="10" stroke-width="1.4659797833333332" stroke-dasharray=""/><g transform="translate(490.71500828421097,788.8144018160001) translate(-490.71500828421097,-788.8144018160001)"><path fill="black" stroke="none" paint-order="stroke fill markers" d=" M 476.0552104508776 781.4845028993334 L 490.71500828421097 788.8144018160001 L 476.0552104508776 796.1443007326668 Z"/></g></g><g><g><rect fill="white" stroke="none" x="632.1579552378179" y="815.2020379160001" width="118.51303137039062" height="22.86928462"/></g><text fill="black" stroke="none" font-family="sans-serif" font-size="11pt" font-style="normal" font-weight="normal" text-decoration="normal" x="634.7967188478178" y="831.0346195760001" text-anchor="start" dominant-baseline="alphabetic" xml:space="preserve">cancelSelected()</text></g><g><path fill="none" stroke="black" paint-order="fill stroke markers" d=" M 508.306765684211 838.0713225360001 L 860.0382959024819 838.0713225360001" stroke-miterlimit="10" stroke-width="1.4659797833333332" stroke-dasharray=""/><g transform="translate(874.5221761618152,838.0713225360001) translate(-874.5221761618152,-838.0713225360001)"><path fill="black" stroke="none" paint-order="stroke fill markers" d=" M 859.8623783284819 830.7414236193334 L 874.5221761618152 838.0713225360001 L 859.8623783284819 845.4012214526668 Z"/></g></g><g><g><rect fill="white" stroke="none" x="921.7267251851486" y="864.4589586360001" width="304.611755735625" height="22.86928462"/></g><text fill="black" stroke="none" font-family="sans-serif" font-size="11pt" font-style="normal" font-weight="normal" text-decoration="normal" x="924.3654887951485" y="880.2915402960001" text-anchor="start" dominant-baseline="alphabetic" xml:space="preserve">observerMessage(s : String, true : Boolean)</text></g><g><path fill="none" stroke="black" paint-order="fill stroke markers" d=" M 892.1139335618152 887.3282432560001 L 971.2768418618152 887.3282432560001 L 971.2768418618152 910.1975278760001 L 915.3936925211485 910.1975278760001" stroke-miterlimit="10" stroke-width="1.4659797833333332" stroke-dasharray=""/><g transform="translate(900.9098122618152,910.1975278760001) translate(-900.9098122618152,-910.1975278760001)"><path fill="black" stroke="none" paint-order="stroke fill markers" d=" M 915.5696100951485 902.8676289593334 L 900.9098122618152 910.1975278760001 L 915.5696100951485 917.5274267926668 Z"/></g></g><g><g><rect fill="white" stroke="none" x="551.6481851341069" y="936.5851639760001" width="297.1243289778125" height="22.86928462"/></g><text fill="black" stroke="none" font-family="sans-serif" font-size="11pt" font-style="normal" font-weight="normal" text-decoration="normal" x="554.2869487441069" y="952.4177456360001" text-anchor="start" dominant-baseline="alphabetic" xml:space="preserve">message(message : String, true : Boolean)</text></g><g><path fill="none" stroke="black" paint-order="fill stroke markers" d=" M 883.3180548618152 959.4544485960001 L 531.5865246435443 959.4544485960001" stroke-miterlimit="10" stroke-width="1.4659797833333332" stroke-dasharray=""/><g transform="translate(517.102644384211,959.4544485960001) translate(-517.102644384211,-959.4544485960001)"><path fill="black" stroke="none" paint-order="stroke fill markers" d=" M 531.7624422175443 952.1245496793334 L 517.102644384211 959.4544485960001 L 531.7624422175443 966.7843475126668 Z"/></g></g><g><path fill="white" stroke="black" paint-order="fill stroke markers" d=" M 220.68786705006772 1011.965844435 A 26.123759739 26.123759739 0 1 1 220.68785398818892 1011.939720679615 M 152.3438895510677 984.346785317 L 152.3438895510677 1039.584903553 M 150.8485901720677 1011.965844435 L 168.4403475720677 1011.965844435" stroke-miterlimit="10" stroke-width="2.990598758" stroke-dasharray=""/></g><g><g/><text fill="black" stroke="none" font-family="sans-serif" font-size="11pt" font-style="normal" font-weight="normal" text-decoration="normal" x="168.7424717751302" y="1057.176660953" text-anchor="start" dominant-baseline="alphabetic" xml:space="preserve">Alert</text></g><g><g><rect fill="white" stroke="none" x="247.3980187024011" y="1002.0265015040001" width="222.50007665847656" height="22.86928462"/></g><text fill="black" stroke="none" font-family="sans-serif" font-size="11pt" font-style="normal" font-weight="normal" text-decoration="normal" x="250.0367823124011" y="1017.859083164" text-anchor="start" dominant-baseline="alphabetic" xml:space="preserve">Alert( confirmation : AlertType)</text></g><g><path fill="none" stroke="black" paint-order="fill stroke markers" d=" M 499.51088698421097 1024.895786124 L 232.26910733840106 1024.895786124" stroke-miterlimit="10" stroke-width="1.4659797833333332" stroke-dasharray=""/><g transform="translate(217.7852270790677,1024.895786124) translate(-217.7852270790677,-1024.895786124)"><path fill="black" stroke="none" paint-order="stroke fill markers" d=" M 232.44502491240104 1017.5658872073334 L 217.7852270790677 1024.895786124 L 232.44502491240104 1032.2256850406668 Z"/></g></g><g><g><rect fill="white" stroke="none" x="344.3987335376393" y="1090.3371236520002" width="5.27752722" height="22.86928462"/></g><text fill="black" stroke="none" font-family="sans-serif" font-size="11pt" font-style="normal" font-weight="normal" text-decoration="normal" x="347.03749714763933" y="1106.1697053120001" text-anchor="start" dominant-baseline="alphabetic" xml:space="preserve"></text></g><g><path fill="none" stroke="black" paint-order="fill stroke markers" d=" M 194.56410731106772 1113.206408272 L 485.02700672487765 1113.206408272" stroke-miterlimit="10" stroke-width="1.4659797833333332" stroke-dasharray="7.0367029599999995"/><g transform="translate(499.51088698421097,1113.206408272) translate(-499.51088698421097,-1113.206408272)"><path fill="black" stroke="none" paint-order="stroke fill markers" d=" M 484.8510891508776 1105.8765093553334 L 499.51088698421097 1113.206408272 L 484.8510891508776 1120.5363071886668 Z"/></g></g><g><g><rect fill="white" stroke="none" x="289.12312928959244" y="1139.594044372" width="115.82873571609375" height="22.86928462"/></g><text fill="black" stroke="none" font-family="sans-serif" font-size="11pt" font-style="normal" font-weight="normal" text-decoration="normal" x="291.76189289959245" y="1155.426626032" text-anchor="start" dominant-baseline="alphabetic" xml:space="preserve">showAndWait();</text></g><g><path fill="none" stroke="black" paint-order="fill stroke markers" d=" M 499.51088698421097 1162.463328992 L 209.04798757040106 1162.463328992" stroke-miterlimit="10" stroke-width="1.4659797833333332" stroke-dasharray=""/><g transform="translate(194.56410731106772,1162.463328992) translate(-194.56410731106772,-1162.463328992)"><path fill="black" stroke="none" paint-order="stroke fill markers" d=" M 209.22390514440104 1155.1334300753333 L 194.56410731106772 1162.463328992 L 209.22390514440104 1169.7932279086667 Z"/></g></g><g><g><rect fill="white" stroke="none" x="98.16589055149089" y="1188.850965092" width="5.27752722" height="22.86928462"/></g><text fill="black" stroke="none" font-family="sans-serif" font-size="11pt" font-style="normal" font-weight="normal" text-decoration="normal" x="100.80465416149089" y="1204.683546752" text-anchor="start" dominant-baseline="alphabetic" xml:space="preserve"></text></g><g><path fill="none" stroke="black" paint-order="fill stroke markers" d=" M 176.9723499110677 1211.720249712 L 39.1208386712474 1211.720249712" stroke-miterlimit="10" stroke-width="1.4659797833333332" stroke-dasharray=""/><g transform="translate(24.636958411914062,1211.720249712) translate(-24.636958411914062,-1211.720249712)"><path fill="black" stroke="none" paint-order="stroke fill markers" d=" M 39.296756245247394 1204.3903507953332 L 24.636958411914062 1211.720249712 L 39.296756245247394 1219.0501486286666 Z"/></g></g><g><g><rect fill="white" stroke="none" x="98.16589055149089" y="1238.107885812" width="5.27752722" height="22.86928462"/></g><text fill="black" stroke="none" font-family="sans-serif" font-size="11pt" font-style="normal" font-weight="normal" text-decoration="normal" x="100.80465416149089" y="1253.940467472" text-anchor="start" dominant-baseline="alphabetic" xml:space="preserve"></text></g><g><path fill="none" stroke="black" paint-order="fill stroke markers" d=" M 24.636958411914062 1260.9771704319999 L 162.48846965173436 1260.9771704319999" stroke-miterlimit="10" stroke-width="1.4659797833333332" stroke-dasharray="7.0367029599999995"/><g transform="translate(176.9723499110677,1260.9771704319999) translate(-176.9723499110677,-1260.9771704319999)"><path fill="black" stroke="none" paint-order="stroke fill markers" d=" M 162.31255207773438 1253.6472715153332 L 176.9723499110677 1260.9771704319999 L 162.31255207773438 1268.3070693486666 Z"/></g></g><path fill="white" stroke="black" paint-order="fill stroke markers" d=" M 107.84700549472005 1287.3648065319999 L 247.85687006741537 1287.3648065319999 L 263.68945172741536 1303.1973881919998 L 263.68945172741536 1327.8258485519998 L 107.84700549472005 1327.8258485519998 L 107.84700549472005 1287.3648065319999 M 247.85687006741537 1287.3648065319999 L 247.85687006741537 1303.1973881919998 L 263.68945172741536 1303.1973881919998" stroke-miterlimit="10" stroke-width="1.4659797833333332" stroke-dasharray=""/><g><text fill="black" stroke="none" font-family="sans-serif" font-size="11pt" font-style="normal" font-weight="normal" text-decoration="normal" x="132.47546585472006" y="1311.9932668919996" text-anchor="start" dominant-baseline="alphabetic" xml:space="preserve">user selects OK</text></g><g><g><rect fill="white" stroke="none" x="306.62137452885025" y="1354.2134846519998" width="80.83224523757812" height="22.86928462"/></g><text fill="black" stroke="none" font-family="sans-serif" font-size="11pt" font-style="normal" font-weight="normal" text-decoration="normal" x="309.26013813885027" y="1370.0460663119998" text-anchor="start" dominant-baseline="alphabetic" xml:space="preserve">return true</text></g><g><path fill="none" stroke="black" paint-order="fill stroke markers" d=" M 194.56410731106772 1377.0827692719997 L 485.02700672487765 1377.0827692719997" stroke-miterlimit="10" stroke-width="1.4659797833333332" stroke-dasharray="7.0367029599999995"/><g transform="translate(499.51088698421097,1377.0827692719997) translate(-499.51088698421097,-1377.0827692719997)"><path fill="black" stroke="none" paint-order="stroke fill markers" d=" M 484.8510891508776 1369.752870355333 L 499.51088698421097 1377.0827692719997 L 484.8510891508776 1384.4126681886664 Z"/></g></g><g><g><rect fill="white" stroke="none" x="659.7942270042241" y="1403.4704053719997" width="80.83224523757812" height="22.86928462"/></g><text fill="black" stroke="none" font-family="sans-serif" font-size="11pt" font-style="normal" font-weight="normal" text-decoration="normal" x="662.4329906142241" y="1419.3029870319997" text-anchor="start" dominant-baseline="alphabetic" xml:space="preserve">return true</text></g><g><path fill="none" stroke="black" paint-order="fill stroke markers" d=" M 517.102644384211 1426.3396899919996 L 868.8341746024819 1426.3396899919996" stroke-miterlimit="10" stroke-width="1.4659797833333332" stroke-dasharray="7.0367029599999995"/><g transform="translate(883.3180548618152,1426.3396899919996) translate(-883.3180548618152,-1426.3396899919996)"><path fill="black" stroke="none" paint-order="stroke fill markers" d=" M 868.6582570284819 1419.009791075333 L 883.3180548618152 1426.3396899919996 L 868.6582570284819 1433.6695889086664 Z"/></g></g><g><g><rect fill="white" stroke="none" x="921.7267251851484" y="1452.7273260919997" width="336.5946048567188" height="22.86928462"/></g><text fill="black" stroke="none" font-family="sans-serif" font-size="11pt" font-style="normal" font-weight="normal" text-decoration="normal" x="924.3654887951484" y="1468.5599077519996" text-anchor="start" dominant-baseline="alphabetic" xml:space="preserve">cancelScreening(selectedScreening : Screening)</text></g><g><path fill="none" stroke="black" paint-order="fill stroke markers" d=" M 900.9098122618152 1475.5966107119996 L 1264.6543627058672 1475.5966107119996" stroke-miterlimit="10" stroke-width="1.4659797833333332" stroke-dasharray=""/><g transform="translate(1279.1382429652006,1475.5966107119996) translate(-1279.1382429652006,-1475.5966107119996)"><path fill="black" stroke="none" paint-order="stroke fill markers" d=" M 1264.4784451318671 1468.2667117953329 L 1279.1382429652006 1475.5966107119996 L 1264.4784451318671 1482.9265096286663 Z"/></g></g><g><g><rect fill="white" stroke="none" x="1402.269684723263" y="1501.9842468119996" width="225.37771642898437" height="22.86928462"/></g><text fill="black" stroke="none" font-family="sans-serif" font-size="11pt" font-style="normal" font-weight="normal" text-decoration="normal" x="1404.908448333263" y="1517.8168284719995" text-anchor="start" dominant-baseline="alphabetic" xml:space="preserve">deleteScreening(sg : Screening)</text></g><g><path fill="none" stroke="black" paint-order="fill stroke markers" d=" M 1296.7300003652006 1524.8535314319995 L 1718.7032052509767 1524.8535314319995" stroke-miterlimit="10" stroke-width="1.4659797833333332" stroke-dasharray=""/><g transform="translate(1733.18708551031,1524.8535314319995) translate(-1733.18708551031,-1524.8535314319995)"><path fill="black" stroke="none" paint-order="stroke fill markers" d=" M 1718.5272876769766 1517.5236325153328 L 1733.18708551031 1524.8535314319995 L 1718.5272876769766 1532.1834303486662 Z"/></g></g><g><g><rect fill="white" stroke="none" x="1780.3916345336434" y="1551.2411675319995" width="197.3963016340625" height="22.86928462"/></g><text fill="black" stroke="none" font-family="sans-serif" font-size="11pt" font-style="normal" font-weight="normal" text-decoration="normal" x="1783.0303981436434" y="1567.0737491919995" text-anchor="start" dominant-baseline="alphabetic" xml:space="preserve">performUpdate(sql : String)</text></g><g><path fill="none" stroke="black" paint-order="fill stroke markers" d=" M 1750.77884291031 1574.1104521519997 L 1829.94175121031 1574.1104521519997 L 1829.94175121031 1596.9797367719996 L 1774.0586018696433 1596.9797367719996" stroke-miterlimit="10" stroke-width="1.4659797833333332" stroke-dasharray=""/><g transform="translate(1759.57472161031,1596.9797367719996) translate(-1759.57472161031,-1596.9797367719996)"><path fill="black" stroke="none" paint-order="stroke fill markers" d=" M 1774.2345194436434 1589.6498378553329 L 1759.57472161031 1596.9797367719996 L 1774.2345194436434 1604.3096356886663 Z"/></g></g><g><g><rect fill="white" stroke="none" x="1780.3916345336431" y="1623.3673728719996" width="194.09635961746093" height="22.86928462"/></g><text fill="black" stroke="none" font-family="sans-serif" font-size="11pt" font-style="normal" font-weight="normal" text-decoration="normal" x="1783.0303981436432" y="1639.1999545319995" text-anchor="start" dominant-baseline="alphabetic" xml:space="preserve">executeUpdate(sql : String)</text></g><g><path fill="none" stroke="black" paint-order="fill stroke markers" d=" M 1759.57472161031 1646.2366574919995 L 1980.8210268151042 1646.2366574919995" stroke-miterlimit="10" stroke-width="1.4659797833333332" stroke-dasharray=""/><g transform="translate(1995.3049070744376,1646.2366574919995) translate(-1995.3049070744376,-1646.2366574919995)"><path fill="black" stroke="none" paint-order="stroke fill markers" d=" M 1980.6451092411041 1638.9067585753328 L 1995.3049070744376 1646.2366574919995 L 1980.6451092411041 1653.5665564086662 Z"/></g></g><g><g><rect fill="white" stroke="none" x="1780.3916345336434" y="1672.6242935919995" width="5.27752722" height="22.86928462"/></g><text fill="black" stroke="none" font-family="sans-serif" font-size="11pt" font-style="normal" font-weight="normal" text-decoration="normal" x="1783.0303981436434" y="1688.4568752519995" text-anchor="start" dominant-baseline="alphabetic" xml:space="preserve"></text></g><g><path fill="none" stroke="black" paint-order="fill stroke markers" d=" M 1759.57472161031 1695.4935782119996 L 1829.94175121031 1695.4935782119996 L 1829.94175121031 1718.3628628319996 L 1765.2627231696433 1718.3628628319996" stroke-miterlimit="10" stroke-width="1.4659797833333332" stroke-dasharray="7.0367029599999995"/><g transform="translate(1750.77884291031,1718.3628628319996) translate(-1750.77884291031,-1718.3628628319996)"><path fill="black" stroke="none" paint-order="stroke fill markers" d=" M 1765.4386407436434 1711.0329639153329 L 1750.77884291031 1718.3628628319996 L 1765.4386407436434 1725.6927617486663 Z"/></g></g><g><g><rect fill="white" stroke="none" x="1512.3197793277552" y="1744.7504989319996" width="5.27752722" height="22.86928462"/></g><text fill="black" stroke="none" font-family="sans-serif" font-size="11pt" font-style="normal" font-weight="normal" text-decoration="normal" x="1514.9585429377553" y="1760.5830805919995" text-anchor="start" dominant-baseline="alphabetic" xml:space="preserve"></text></g><g><path fill="none" stroke="black" paint-order="fill stroke markers" d=" M 1733.18708551031 1767.6197835519995 L 1311.2138806245339 1767.6197835519995" stroke-miterlimit="10" stroke-width="1.4659797833333332" stroke-dasharray="7.0367029599999995"/><g transform="translate(1296.7300003652006,1767.6197835519995) translate(-1296.7300003652006,-1767.6197835519995)"><path fill="black" stroke="none" paint-order="stroke fill markers" d=" M 1311.389798198534 1760.2898846353328 L 1296.7300003652006 1767.6197835519995 L 1311.389798198534 1774.9496824686662 Z"/></g></g><g><g><rect fill="white" stroke="none" x="1087.3852640035077" y="1794.0074196519995" width="5.27752722" height="22.86928462"/></g><text fill="black" stroke="none" font-family="sans-serif" font-size="11pt" font-style="normal" font-weight="normal" text-decoration="normal" x="1090.0240276135078" y="1809.8400013119995" text-anchor="start" dominant-baseline="alphabetic" xml:space="preserve"></text></g><g><path fill="none" stroke="black" paint-order="fill stroke markers" d=" M 1279.1382429652006 1816.8767042719994 L 915.3936925211485 1816.8767042719994" stroke-miterlimit="10" stroke-width="1.4659797833333332" stroke-dasharray="7.0367029599999995"/><g transform="translate(900.9098122618152,1816.8767042719994) translate(-900.9098122618152,-1816.8767042719994)"><path fill="black" stroke="none" paint-order="stroke fill markers" d=" M 915.5696100951485 1809.5468053553327 L 900.9098122618152 1816.8767042719994 L 915.5696100951485 1824.2066031886661 Z"/></g></g><g><g><rect fill="white" stroke="none" x="921.7267251851486" y="1890.7620853519995" width="231.05400121902343" height="22.86928462"/></g><text fill="black" stroke="none" font-family="sans-serif" font-size="11pt" font-style="normal" font-weight="normal" text-decoration="normal" x="924.3654887951485" y="1906.5946670119995" text-anchor="start" dominant-baseline="alphabetic" xml:space="preserve">notifyObservers()                        </text></g><g><path fill="none" stroke="black" paint-order="fill stroke markers" d=" M 900.9098122618152 1913.6313699719997 L 971.2768418618152 1913.6313699719997 L 971.2768418618152 1936.5006545919996 L 915.3936925211485 1936.5006545919996" stroke-miterlimit="10" stroke-width="1.4659797833333332" stroke-dasharray=""/><g transform="translate(900.9098122618152,1936.5006545919996) translate(-900.9098122618152,-1936.5006545919996)"><path fill="black" stroke="none" paint-order="stroke fill markers" d=" M 915.5696100951485 1929.1707556753329 L 900.9098122618152 1936.5006545919996 L 915.5696100951485 1943.8305535086663 Z"/></g></g><g><g><rect fill="white" stroke="none" x="921.7267251851486" y="1989.2759267919996" width="5.27752722" height="22.86928462"/></g><text fill="black" stroke="none" font-family="sans-serif" font-size="11pt" font-style="normal" font-weight="normal" text-decoration="normal" x="924.3654887951485" y="2005.1085084519996" text-anchor="start" dominant-baseline="alphabetic" xml:space="preserve"></text></g><g><path fill="none" stroke="black" paint-order="fill stroke markers" d=" M 900.9098122618152 2012.1452114119998 L 971.2768418618152 2012.1452114119998 L 971.2768418618152 2035.0144960319997 L 906.5978138211485 2035.0144960319997" stroke-miterlimit="10" stroke-width="1.4659797833333332" stroke-dasharray="7.0367029599999995"/><g transform="translate(892.1139335618152,2035.0144960319997) translate(-892.1139335618152,-2035.0144960319997)"><path fill="black" stroke="none" paint-order="stroke fill markers" d=" M 906.7737313951485 2027.684597115333 L 892.1139335618152 2035.0144960319997 L 906.7737313951485 2042.3443949486664 Z"/></g></g><g><g><rect fill="white" stroke="none" x="688.7757073130132" y="2061.4021321319997" width="5.27752722" height="22.86928462"/></g><text fill="black" stroke="none" font-family="sans-serif" font-size="11pt" font-style="normal" font-weight="normal" text-decoration="normal" x="691.4144709230131" y="2077.2347137919996" text-anchor="start" dominant-baseline="alphabetic" xml:space="preserve"></text></g><g><path fill="none" stroke="black" paint-order="fill stroke markers" d=" M 874.5221761618152 2084.271416752 L 522.7906459435443 2084.271416752" stroke-miterlimit="10" stroke-width="1.4659797833333332" stroke-dasharray="7.0367029599999995"/><g transform="translate(508.306765684211,2084.271416752) translate(-508.306765684211,-2084.271416752)"><path fill="black" stroke="none" paint-order="stroke fill markers" d=" M 522.9665635175443 2076.9415178353333 L 508.306765684211 2084.271416752 L 522.9665635175443 2091.6013156686663 Z"/></g></g><g><g><rect fill="white" stroke="none" x="255.0372197380625" y="2110.6590528519996" width="5.27752722" height="22.86928462"/></g><text fill="black" stroke="none" font-family="sans-serif" font-size="11pt" font-style="normal" font-weight="normal" text-decoration="normal" x="257.6759833480625" y="2126.4916345119996" text-anchor="start" dominant-baseline="alphabetic" xml:space="preserve"></text></g><g><path fill="none" stroke="black" paint-order="fill stroke markers" d=" M 490.71500828421097 2133.5283374719997 L 39.1208386712474 2133.5283374719997" stroke-miterlimit="10" stroke-width="1.4659797833333332" stroke-dasharray="7.0367029599999995"/><g transform="translate(24.636958411914062,2133.5283374719997) translate(-24.636958411914062,-2133.5283374719997)"><path fill="black" stroke="none" paint-order="stroke fill markers" d=" M 39.296756245247394 2126.1984385553333 L 24.636958411914062 2133.5283374719997 L 39.296756245247394 2140.8582363886662 Z"/></g></g><g><g/><path fill="none" stroke="black" paint-order="fill stroke markers" d=" M 821.7469039618152 373.64892717600003 L 1479.3837937754506 373.64892717600003 L 1479.3837937754506 519.660513596 L 821.7469039618152 519.660513596 L 821.7469039618152 373.64892717600003 Z" stroke-miterlimit="10" stroke-width="2.5131082" stroke-dasharray=""/><path fill="white" stroke="black" paint-order="fill stroke markers" d=" M 821.7469039618152 373.64892717600003 L 821.7469039618152 394.759036056 L 883.6321857295886 394.759036056 L 894.1872401695887 384.203981616 L 894.1872401695887 373.64892717600003 L 821.7469039618152 373.64892717600003" stroke-miterlimit="10" stroke-width="2.5131082" stroke-dasharray=""/><text fill="black" stroke="none" font-family="sans-serif" font-size="8.8pt" font-style="normal" font-weight="bold" text-decoration="normal" x="839.3386613618152" y="387.722333096" text-anchor="start" dominant-baseline="alphabetic" xml:space="preserve">loop</text><text fill="black" stroke="none" font-family="sans-serif" font-size="8.8pt" font-style="normal" font-weight="bold" text-decoration="normal" x="911.7789975695887" y="387.722333096" text-anchor="start" dominant-baseline="alphabetic" xml:space="preserve">[for each current Screening]</text></g><g><g/><path fill="none" stroke="black" paint-order="fill stroke markers" d=" M 821.7469039618152 1843.2643403719994 L 1158.937841494172 1843.2643403719994 L 1158.937841494172 1962.8882906919996 L 821.7469039618152 1962.8882906919996 L 821.7469039618152 1843.2643403719994 Z" stroke-miterlimit="10" stroke-width="2.5131082" stroke-dasharray=""/><path fill="white" stroke="black" paint-order="fill stroke markers" d=" M 821.7469039618152 1843.2643403719994 L 821.7469039618152 1864.3744492519995 L 934.2807605586902 1864.3744492519995 L 944.8358149986902 1853.8193948119995 L 944.8358149986902 1843.2643403719994 L 821.7469039618152 1843.2643403719994" stroke-miterlimit="10" stroke-width="2.5131082" stroke-dasharray=""/><text fill="black" stroke="none" font-family="sans-serif" font-size="8.8pt" font-style="normal" font-weight="bold" text-decoration="normal" x="839.3386613618152" y="1857.3377462919996" text-anchor="start" dominant-baseline="alphabetic" xml:space="preserve">expandable−</text><text fill="black" stroke="none" font-family="sans-serif" font-size="8.8pt" font-style="normal" font-weight="bold" text-decoration="normal" x="962.4275723986902" y="1857.3377462919996" text-anchor="start" dominant-baseline="alphabetic" xml:space="preserve">[see 01 - Display Screening BCE]</text></g></g><g/><g/><g/><g/><g/><g/><g/><g/></g></svg>