<svg version="1.1" xmlns="http://www.w3.org/2000/svg" xmlns:xlink="http://www.w3.org/1999/xlink" width="1691" height="1971"><desc>actor%20Staff%0Aboundary%20StaffUI%0A%0Acontrol%20ManagementSystem%0Aparticipant%20Cinema%0Aentity%20Screening%20(current)%0Aentity%20Screening%20(selected)%0Aparticipant%20ScreeningMapper%0Adatabase%20Database%0AStaff-%3EStaffUI%3AmousePressed(x%20%3A%20Integer%2C%20y%20%3A%20Integer)%0Aactivate%20StaffUI%0A%0AStaffUI-%3EStaffUI%3Asn%20%3A%3D%20yToScreen(y%20%3A%20Integer)%0AStaffUI-%3EStaffUI%3Atime%20%3A%3D%20xToTime(x%20%3A%20Integer)%0AStaffUI-%3EManagementSystem%3AselectScreening(sn%20%3A%20String%2C%20time%20%3A%20LocalTime)%0Aactivate%20ManagementSystem%0A%0Aloop%20for%20each%20current%20Screening%0AManagementSystem-%3EScreening%20(current)%3AgetScreenName()%0AManagementSystem-%3EScreening%20(current)%3AgetTime()%0Aend%0AManagementSystem-%3EManagementSystem%3AnotifyObservers()%0Aactivate%20ManagementSystem%0AManagementSystem-%3EStaffUI%3Aupdate()%0Adeactivate%20ManagementSystem%0AManagementSystem--%3EStaffUI%3A%0Adeactivate%20ManagementSystem%0AStaffUI--%3EStaff%3A%0Adeactivate%20StaffUI%0A%0A%0Aloop%20for%20every%20time%20the%20mouse%20is%20moved%0AStaff-%3EStaffUI%3AmouseMoved(x%20%3A%20integer%2C%20y%20%3A%20integer)%0Aactivate%20StaffUI%0AStaffUI-%3EStaffUI%3Aupdate()%0AStaffUI--%3EStaff%3A%0Adeactivate%20StaffUI%0Aend%0A%0AStaff-%3EStaffUI%3AmouseReleased(x%20%3A%20Integer%2C%20y%20%3A%20Integer)%0Aactivate%20StaffUI%0AStaffUI-%3EStaffUI%3Asn%20%3A%3D%20yToScreen(y%20%3A%20Integer)%0AStaffUI-%3EStaffUI%3Atime%20%3A%3D%20xToTime(x%20%3A%20Integer)%0AStaffUI-%3EManagementSystem%3AchangeSelected(time%20%3A%20LocalTime%2C%20sn%20%3A%20ScreenName)%0Aactivate%20ManagementSystem%0A%0Aexpandable-%20see%20diagram%2004%20-%20Cancel%20Screening%20ACE%20(sold%20screening)%0AManagementSystem-%3EManagementSystem%3AcheckSold()%20%20%20%20%20%20%20%20%20%20%20%20%20%20%20%20%20%20%20%20%20%20%20%20%20%20%20%20%20%20%20%20%20%20%20%20%20%20%20%20%20%20%20%20%20%20%20%20%20%20%20%20%20%20%20%20%20%20%20%20%20%20%20%20%20%20%20%20%20%20%20%20%20%20%20%20%20%20%20%20%20%20%20%20%20%20%20%20%20%20%20%20%20%20%20%20%20%20%20%20%20%20%20%20%20%20%20%20%20%20%20%20%20%20%20%20%20%20%20%20%20%20%20%20%20%20%20%20%20%20%20%20%20%20%20%20%20%20%0Aend%20%0A%0Aexpandable-%20see%20diagram%2003%20-%20schedule%20Screening%20ECE%20(double%20screening)%0A%0AManagementSystem-%3EManagementSystem%3AcheckDoubleScreening(time%20%3A%20LocalTime%2C%20screenName%20%3A%20String%2C%20sg%20%3A%20PersistentScreening)%20%20%0Aend%20%0A%0Aexpandable-%20see%20diagrams%2003%20-%20Update%20Screening%20ACE%20(not%20available)%0A%0AManagementSystem-%3EManagementSystem%3AcheckTimeAvailable()%20%20%20%20%20%20%20%20%20%20%20%20%20%20%20%20%20%20%20%20%20%20%20%20%20%20%20%20%20%20%20%20%20%20%20%20%20%20%20%20%20%20%20%20%20%20%20%20%20%20%20%20%20%20%20%0Aend%20%0A%0AManagementSystem-%3ECinema%3Ascreen%20%3A%3D%20getScreen(sn%20%3A%20String)%0AManagementSystem-%3EScreening%20(selected)%3AsetTime(time%20%3A%20LocalTime)%0AManagementSystem-%3EScreening%20(selected)%3AsetScreen(screen%20%3A%20Screen)%0AManagementSystem-%3ECinema%3AupdateScreening(selected%20%3A%20Screening)%0Aactivate%20Cinema%0ACinema-%3EScreeningMapper%3AupdateScreening(sg%20%3A%20Screening)%0Aactivate%20ScreeningMapper%0AScreeningMapper-%3EScreeningMapper%3AperformUpdate(sql%20%3A%20String)%0Aactivate%20ScreeningMapper%0AScreeningMapper-%3EDatabase%3AexecuteUpdate(sql%20%3A%20String)%0AScreeningMapper--%3EScreeningMapper%3A%0Adeactivate%20ScreeningMapper%0AScreeningMapper--%3ECinema%3A%0A%0A%0ACinema--%3EManagementSystem%3A%0Adeactivate%20Cinema%0Aexpandable-%20see%2001%20-%20Display%20Date%20BCE%0AManagementSystem-%3EManagementSystem%3AnotifyObservers()%20%20%20%20%20%20%20%20%20%20%20%20%20%20%20%20%20%20%20%20%0Aend%0AManagementSystem--%3EStaffUI%3A%0Adeactivate%20ManagementSystem%0A%0AStaffUI--%3EStaff%3A%0Adeactivate%20StaffUI%0A</desc><defs/><g><g/><g/><g/><g/><g/><g/><g/><g/><g/><g/><g/><g/><g/><g/><g/><g/><g/><g/><g/><g/><g/><g/><g/><g/><g/><g/><g/><g/><g/><g/><g/><g/><g/><g/><g/><g/><g/><g/><g/><g/><g/><g><rect fill="white" stroke="none" x="0" y="0" width="1691" height="1971"/></g><g/><g><path fill="none" stroke="black" paint-order="fill stroke markers" d=" M 62.19942795 75.19219734400001 L 62.19942795 1971.5836450640006" stroke-miterlimit="10" stroke-width="1.1518412583333333" stroke-dasharray="10.632380846153845,4.607365033333333"/><path fill="none" stroke="black" paint-order="fill stroke markers" d=" M 296.1275988916667 75.19219734400001 L 296.1275988916667 1971.5836450640006" stroke-miterlimit="10" stroke-width="1.1518412583333333" stroke-dasharray="10.632380846153845,4.607365033333333"/><path fill="none" stroke="black" paint-order="fill stroke markers" d=" M 604.4116416020834 75.19219734400001 L 604.4116416020834 1971.5836450640006" stroke-miterlimit="10" stroke-width="1.1518412583333333" stroke-dasharray="10.632380846153845,4.607365033333333"/><path fill="none" stroke="black" paint-order="fill stroke markers" d=" M 1144.1340471916665 75.19219734400001 L 1144.1340471916665 1971.5836450640006" stroke-miterlimit="10" stroke-width="1.1518412583333333" stroke-dasharray="10.632380846153845,4.607365033333333"/><path fill="none" stroke="black" paint-order="fill stroke markers" d=" M 1238.9799709439164 75.19219734400001 L 1238.9799709439164 1971.5836450640006" stroke-miterlimit="10" stroke-width="1.1518412583333333" stroke-dasharray="10.632380846153845,4.607365033333333"/><path fill="none" stroke="black" paint-order="fill stroke markers" d=" M 1350.3196441689165 75.19219734400001 L 1350.3196441689165 1971.5836450640006" stroke-miterlimit="10" stroke-width="1.1518412583333333" stroke-dasharray="10.632380846153845,4.607365033333333"/><path fill="none" stroke="black" paint-order="fill stroke markers" d=" M 1472.9958901867915 75.19219734400001 L 1472.9958901867915 1971.5836450640006" stroke-miterlimit="10" stroke-width="1.1518412583333333" stroke-dasharray="10.632380846153845,4.607365033333333"/><path fill="none" stroke="black" paint-order="fill stroke markers" d=" M 1656.9659680534583 75.19219734400001 L 1656.9659680534583 1971.5836450640006" stroke-miterlimit="10" stroke-width="1.1518412583333333" stroke-dasharray="10.632380846153845,4.607365033333333"/></g><g><g><path fill="white" stroke="black" paint-order="fill stroke markers" d=" M 70.078022157 16.724735071000005 A 7.878594207 7.878594207 0 1 1 70.07801821770323 16.7168564781061 M 62.19942795 24.603329278000004 L 62.19942795 41.4662853 M 52.247519478 30.685051122000004 L 72.151336422 30.685051122000004 M 62.19942795 41.4662853 L 52.247519478 57.22347371400001 M 62.19942795 41.4662853 L 72.151336422 57.22347371400001" stroke-miterlimit="10" stroke-width="2.3497561670000002" stroke-dasharray=""/></g><g><g/><text fill="black" stroke="none" font-family="sans-serif" font-size="8pt" font-style="normal" font-weight="normal" text-decoration="normal" x="50.9845842" y="71.045568814" text-anchor="start" dominant-baseline="alphabetic" xml:space="preserve">Staff</text></g><g><path fill="white" stroke="black" paint-order="fill stroke markers" d=" M 323.5644576651667 35.52278440700001 A 20.5258112235 20.5258112235 0 1 1 323.5644474022619 35.50225859919747 M 269.86561820166673 13.822095100000011 L 269.86561820166673 57.22347371400001 M 268.69074011816673 35.52278440700001 L 282.5128352181667 35.52278440700001" stroke-miterlimit="10" stroke-width="2.3497561670000002" stroke-dasharray=""/></g><g><g/><text fill="black" stroke="none" font-family="sans-serif" font-size="8pt" font-style="normal" font-weight="normal" text-decoration="normal" x="279.4127551416667" y="71.045568814" text-anchor="start" dominant-baseline="alphabetic" xml:space="preserve">StaffUI</text></g><g><path fill="white" stroke="black" paint-order="fill stroke markers" d=" M 624.9374528255834 35.52278440700001 A 20.5258112235 20.5258112235 0 1 1 624.9374425626786 35.50225859919747 M 601.6472225820834 14.99697318350001 L 609.9404796420833 8.085925633500011 M 601.6472225820834 14.99697318350001 L 609.9404796420833 21.90802073350001" stroke-miterlimit="10" stroke-width="2.3497561670000002" stroke-dasharray=""/></g><g><g/><text fill="black" stroke="none" font-family="sans-serif" font-size="8pt" font-style="normal" font-weight="normal" text-decoration="normal" x="553.9717001958334" y="71.045568814" text-anchor="start" dominant-baseline="alphabetic" xml:space="preserve">ManagementSystem</text></g><path fill="none" stroke="none"/><g><path fill="white" stroke="black" paint-order="fill stroke markers" d=" M 1110.1851697112916 37.87254057400001 L 1178.0829246720416 37.87254057400001 L 1178.0829246720416 75.19219734400001 L 1110.1851697112916 75.19219734400001 L 1110.1851697112916 37.87254057400001 Z" stroke-miterlimit="10" stroke-width="2.211535216" stroke-dasharray=""/></g><g><g/><text fill="black" stroke="none" font-family="sans-serif" font-size="8pt" font-style="normal" font-weight="normal" text-decoration="normal" x="1125.1821428947915" y="61.370102243999995" text-anchor="start" dominant-baseline="alphabetic" xml:space="preserve">Cinema</text></g><g><path fill="white" stroke="black" paint-order="fill stroke markers" d=" M 1259.5057821674163 33.64297947340001 A 20.5258112235 20.5258112235 0 1 1 1259.5057719045117 33.62245366559747 M 1217.2792816369165 56.04859563050001 L 1260.6806602509164 56.04859563050001" stroke-miterlimit="10" stroke-width="2.3497561670000002" stroke-dasharray=""/></g><g><g/><text fill="black" stroke="none" font-family="sans-serif" font-size="8pt" font-style="normal" font-weight="normal" text-decoration="normal" x="1191.9050197720414" y="71.045568814" text-anchor="start" dominant-baseline="alphabetic" xml:space="preserve">Screening (current)</text></g><g><path fill="white" stroke="black" paint-order="fill stroke markers" d=" M 1370.8454553924166 33.64297947340001 A 20.5258112235 20.5258112235 0 1 1 1370.8454451295117 33.62245366559747 M 1328.6189548619163 56.04859563050001 L 1372.0203334759167 56.04859563050001" stroke-miterlimit="10" stroke-width="2.3497561670000002" stroke-dasharray=""/></g><g><g/><text fill="black" stroke="none" font-family="sans-serif" font-size="8pt" font-style="normal" font-weight="normal" text-decoration="normal" x="1299.8770172157915" y="71.045568814" text-anchor="start" dominant-baseline="alphabetic" xml:space="preserve">Screening (selected)</text></g><path fill="none" stroke="none"/><g><path fill="white" stroke="black" paint-order="fill stroke markers" d=" M 1414.5843662220416 37.87254057400001 L 1531.4074141515416 37.87254057400001 L 1531.4074141515416 75.19219734400001 L 1414.5843662220416 75.19219734400001 L 1414.5843662220416 37.87254057400001 Z" stroke-miterlimit="10" stroke-width="2.211535216" stroke-dasharray=""/></g><g><g/><text fill="black" stroke="none" font-family="sans-serif" font-size="8pt" font-style="normal" font-weight="normal" text-decoration="normal" x="1429.5813394055415" y="61.370102243999995" text-anchor="start" dominant-baseline="alphabetic" xml:space="preserve">ScreeningMapper</text></g><g><path fill="white" stroke="black" paint-order="fill stroke markers" d=" M 1636.7857092074582 48.10089094800001 L 1636.7857092074582 19.074491238000007 L 1677.1462268994583 19.074491238000007 L 1677.1462268994583 48.10089094800001" stroke-miterlimit="10" stroke-width="2.3497561670000002" stroke-dasharray=""/><path fill="white" stroke="black" paint-order="fill stroke markers" d=" M 1677.1462268994583 18.065478295700007 L 1677.1452178949244 18.15670260293715 L 1677.1421909822222 18.247917787819585 L 1677.1371464640408 18.339114728904843 L 1677.1300848448277 18.430284306574812 L 1677.1210068307387 18.521417403947694 L 1677.1099133295677 18.612504907789702 L 1677.0968054506557 18.703537709426353 L 1677.0816845047796 18.794506705653347 L 1677.0645520040214 18.885402799646865 L 1677.045409661617 18.976216901873258 L 1677.0242593917844 19.066939930997982 L 1677.0011033095334 19.15756281479372 L 1676.9759437304526 19.248076491047623 L 1676.9487831704791 19.338471908467483 L 1676.919624345646 19.42874002758689 L 1676.8884701718118 19.518871821669155 L 1676.8553237643678 19.608858277609983 L 1676.820188437927 19.698690396838764 L 1676.783067705993 19.788359196218437 L 1676.7439652806079 19.877855708943788 L 1676.7028850719817 19.967170985438123 L 1676.659831188101 20.05629609424822 L 1676.6148079343184 20.145222122937476 L 1676.5678198129217 20.23394017897712 L 1676.5188715226839 20.322441390635486 L 1676.467967958393 20.41071690786515 L 1676.4151142103633 20.498757903187958 L 1676.3603155639255 20.586555572577744 L 1676.3035774988987 20.674101136340735 L 1676.2449056890418 20.7613858399935 L 1676.1843060014871 20.848400955138427 L 1676.121784496153 20.935137780336497 L 1676.0573474251376 21.021587641977483 L 1675.9910012320945 21.107741895147257 L 1675.9227525515876 21.193591924492296 L 1675.8526082084281 21.279129145081207 L 1675.780575216992 21.364345003263217 L 1675.7066607805184 21.449230977523516 L 1675.6308722903893 21.533778579335415 L 1675.5532173253905 21.617979354009194 L 1675.473703650954 21.701824881537547 L 1675.3923392183806 21.785306777437597 L 1675.3091321640459 21.868416693589317 L 1675.2240908085862 21.951146319070357 L 1675.137223656066 22.033487380987104 L 1675.048539393128 22.115431645301985 L 1674.9580468881252 22.196970917656856 L 1674.865755190232 22.278097044192428 L 1674.7716735285417 22.35880191236366 L 1674.6758113111418 22.43907745175098 L 1674.5781781241744 22.518915634867348 L 1674.4787837308766 22.598308477960988 L 1674.3776380706051 22.677248041813744 L 1674.2747512578417 22.75572643253502 L 1674.1701335811815 22.83373580235114 L 1674.0637955023055 22.911268350390124 L 1673.9557476549326 22.988316323461788 L 1673.8460008437578 23.06487201683303 L 1673.7345660433705 23.140927774998303 L 1673.6214543971582 23.216475992445172 L 1673.5066772161908 23.291509114414854 L 1673.3902459780911 23.366019637657672 L 1673.272172325886 23.4400001111834 L 1673.1524680668417 23.51344313700633 L 1673.031145171285 23.586341370885087 L 1672.9082157714042 23.658687523057033 L 1672.7836921600367 23.73047435896723 L 1672.6575867894398 23.801694699991916 L 1672.5299122700458 23.872341424156335 L 1672.4006813692001 23.942407466846948 L 1672.269907009885 24.011885821517872 L 1672.1376022694274 24.080769540391536 L 1672.003780378191 24.149051735153456 L 1671.8684547182538 24.216725577641057 L 1671.7316388220688 24.283784300526488 L 1671.5933463711117 24.350221197993342 L 1671.4535911945122 24.416029626407234 L 1671.3123872676717 24.481203004980163 L 1671.169748710865 24.54573481642858 L 1671.025689787829 24.609618607625126 L 1670.8802249043358 24.67284799024391 L 1670.733368606753 24.73541664139936 L 1670.5851355805873 24.797318304278505 L 1670.4355406490185 24.858546788766642 L 1670.2845987714145 24.919095972066344 L 1670.1323250418377 24.978959799309735 L 1669.978734687534 25.038132284163982 L 1669.8238430674107 25.09660750942991 L 1669.6676656705008 25.154379627633716 L 1669.510218114414 25.21144286161173 L 1669.3515161437747 25.267791505088102 L 1669.1915756286476 25.323419923245446 L 1669.030412562951 25.378322553288296 L 1668.868043062857 25.432493904999404 L 1668.7044833651803 25.48592856128874 L 1668.5397498257548 25.53862117873521 L 1668.3738589177967 25.59056648812097 L 1668.2068272302586 25.641759294958376 L 1668.0386714661704 25.692194480009405 L 1667.869408440968 25.741866999797576 L 1667.699055080813 25.790771887112307 L 1667.5276284208996 25.838904251505618 L 1667.3551456037508 25.886259279781186 L 1667.1816238775043 25.932832236475637 L 1667.0070805941887 25.978618464332122 L 1666.8315332079867 26.023613384766 L 1666.6549992734901 26.06781249832273 L 1666.4774964439462 26.11121138512779 L 1666.299042469489 26.153805705328658 L 1666.119655195368 26.195591199528817 L 1665.9393525601608 26.236563689213664 L 1665.7581525939809 26.276719077168373 L 1665.5760734166734 26.316053347887618 L 1665.3931332360048 26.354562567977098 L 1665.2093503458407 26.392242886546896 L 1665.0247431243167 26.429090535596558 L 1664.8393300320013 26.46510183039188 L 1664.653129610049 26.5002731698334 L 1664.466160478347 26.534601036816476 L 1664.2784413336528 26.568081998583022 L 1664.0899909477243 26.60071270706476 L 1663.9008281654428 26.63248989921803 L 1663.7109719029295 26.663410397350102 L 1663.5204411456518 26.693471109436928 L 1663.329254946527 26.722669029432353 L 1663.1374324240155 26.7510012375687 L 1662.94499276021 26.77846490064878 L 1662.7519551989162 26.805057272329158 L 1662.5583390437296 26.830775693394834 L 1662.3641636561042 26.855617592025126 L 1662.169448453417 26.879580484050884 L 1661.9742129070262 26.90266197320286 L 1661.7784765403233 26.924859751351384 L 1661.5822589267823 26.946171598737138 L 1661.3855796880007 26.96659538419314 L 1661.1884584917389 26.986129065357865 L 1660.9909150499518 27.00477068887948 L 1660.7929691168192 27.022518390611154 L 1660.5946404867693 27.03937039579752 L 1660.3959489925003 27.055325019252088 L 1660.1969145029955 27.070380665525818 L 1659.997556921538 27.084535829066628 L 1659.7978961837202 27.097789094369954 L 1659.5979522554494 27.110139136120317 L 1659.3977451309515 27.121584719323828 L 1659.1972948307725 27.132124699431706 L 1658.996621399775 27.141758022454724 L 1658.7957449051353 27.15048372506861 L 1658.5946854343351 27.15830093471037 L 1658.3934630931542 27.165208869665555 L 1658.1920980036589 27.17120683914643 L 1657.9906103021901 27.176294243361042 L 1657.7890201373505 27.180470573573206 L 1657.5873476679885 27.18373541215339 L 1657.3856130611825 27.186088432620444 L 1657.1838364902258 27.18752939967429 L 1656.9820381326067 27.188058169219428 L 1656.7802381679933 27.187674688379335 L 1656.5784567762137 27.186378995501777 L 1656.3767141352387 27.184171220154965 L 1656.1750304191646 27.181051583114595 L 1655.9734257961948 27.17702039634177 L 1655.7719204266234 27.172078062951805 L 1655.57053446082 27.166225077173927 L 1655.3692880372128 27.159462024301828 L 1655.1682012802767 27.15178958063516 L 1654.9672942985198 27.143208513411906 L 1654.7665871824727 27.13371968073163 L 1654.56610000268 27.12332403146969 L 1654.3658528076926 27.112022605182354 L 1654.165865622063 27.099816532002833 L 1653.966158444343 27.086707032528267 L 1653.7667512450842 27.072695417697688 L 1653.56766396484 27.057783088660898 L 1653.368916512173 27.041971536638375 L 1653.1705287616624 27.025262342772145 L 1652.9725205519183 27.007657177967666 L 1652.7749116835964 26.98915780272675 L 1652.577721917419 26.96976606697151 L 1652.3809709721984 26.94948390985936 L 1652.184678522865 26.928313359589104 L 1651.9888641985003 26.906256533198132 L 1651.7935475803736 26.883315636350694 L 1651.5987481999837 26.859492963117372 L 1651.4044855371064 26.834790895745627 L 1651.2107790178466 26.809211904421616 L 1651.017648012694 26.78275854702315 L 1650.8251118345888 26.755433468863927 L 1650.633189736988 26.727239402428996 L 1650.4419009119415 26.6981791671015 L 1650.2512644881724 26.668255668880757 L 1650.0612995291644 26.637471900091654 L 1649.8720250312551 26.605830939085415 L 1649.6834599217361 26.573335949931778 L 1649.4956230569617 26.53999018210257 L 1649.3085332204619 26.505796970146797 L 1649.1222091210639 26.470759733357152 L 1648.9366693910229 26.43488197542812 L 1648.7519325841567 26.398167284105593 L 1648.5680171739928 26.360619330828115 L 1648.3849415519185 26.32224187035971 L 1648.2027240253435 26.28303874041446 L 1648.0213828158687 26.243013861272683 L 1647.8409360574638 26.20217123538894 L 1647.6614017946542 26.160514946991775 L 1647.482797980717 26.11804916167533 L 1647.3051424758842 26.07477812598274 L 1647.1284530455587 26.03070616698151 L 1646.9527473585358 25.985837691830824 L 1646.7780429852382 25.940177187340804 L 1646.6043573959578 25.893729219523845 L 1646.4317079591083 25.846498433138024 L 1646.2601119394897 25.798489551222623 L 1646.0895864965607 25.74970737462582 L 1645.9201486827242 25.700156781524633 L 1645.7518154416198 25.64984272693707 L 1645.5846036064313 25.59877024222667 L 1645.4185298982034 25.546944434599336 L 1645.253610924168 25.49437048659265 L 1645.0898631760851 25.441053655557596 L 1644.9273030285935 25.386999273132844 L 1644.7659467375722 25.3322127447116 L 1644.6058104385156 25.27669954890105 L 1644.4469101449206 25.220465236974505 L 1644.289261746684 25.163515432316306 L 1644.132881008514 25.105855829859454 L 1643.9777835683544 25.04749219551615 L 1643.8239849358197 24.98843036560119 L 1643.6715004906453 24.928676246248344 L 1643.5203454811485 24.86823581281976 L 1643.3705350227042 24.807115109308405 L 1643.2220840962336 24.74532024773371 L 1643.0750075467054 24.68285740753032 L 1642.9293200816521 24.61973283493021 L 1642.785036269699 24.555952842338044 L 1642.6421705391067 24.49152380769992 L 1642.5007371763295 24.42645217386562 L 1642.3607503245855 24.360744447944292 L 1642.2222239824437 24.294407200653783 L 1642.0851720024223 24.227447065663533 L 1641.9496080896056 24.159870738931243 L 1641.8155458002716 24.09168497803327 L 1641.6829985405375 24.022896601488892 L 1641.551979565019 23.95351248807843 L 1641.4225019755045 23.883539576155414 L 1641.294578719645 23.812984862952717 L 1641.1682225896593 23.741855403882866 L 1641.043446221055 23.6701583118325 L 1640.9202620913657 23.597900756451068 L 1640.798682518901 23.5250899634339 L 1640.678719661517 23.451733213799617 L 1640.5603855153995 23.377837843162055 L 1640.4436919138648 23.303411240996702 L 1640.3286505261754 23.228460849901744 L 1640.2152728563742 23.15299416485384 L 1640.1035702421339 23.077018732458605 L 1639.9935538536229 23.00054215019596 L 1639.8852346923882 22.923572065660405 L 1639.7786235902556 22.846116175796254 L 1639.6737312082469 22.768182226127944 L 1639.5705680355122 22.6897780099855 L 1639.4691443882834 22.610911367725194 L 1639.3694704088402 22.53159018594554 L 1639.271556064498 22.451822396698603 L 1639.1754111466096 22.37161597669684 L 1639.0810452695862 22.29097894651542 L 1638.988467869937 22.209919369790153 L 1638.8976882053253 22.128445352411166 L 1638.8087153536412 22.046565041712302 L 1638.7215582120964 21.9642866256564 L 1638.636225496332 21.881618332016497 L 1638.5527257395486 21.79856842755307 L 1638.4710672916522 21.715145217187356 L 1638.3912583184197 21.631357043170873 L 1638.3133068006819 21.547212284251195 L 1638.2372205335253 21.4627193548341 L 1638.1630071255136 21.377886704142114 L 1638.0906739979255 21.29272281536962 L 1638.0202283840138 21.207236204834516 L 1637.9516773282808 21.12143542112662 L 1637.8850276857752 21.03532904425281 L 1637.8202861214056 20.948925684779006 L 1637.7574591092746 20.862233982969162 L 1637.696552932031 20.77526260792121 L 1637.6375736802418 20.688020256700185 L 1637.5805272517828 20.600515653468506 L 1637.5254193512496 20.51275754861357 L 1637.472255489386 20.424754717872737 L 1637.4210409825344 20.336515961455746 L 1637.3717809521024 20.2480501031647 L 1637.324480324052 20.159365989511716 L 1637.2791438284069 20.07047248883425 L 1637.2357759987785 19.98137849040829 L 1637.1943811719138 19.89209290355944 L 1637.154963487261 19.80262465677198 L 1637.1175268865559 19.712982696796026 L 1637.082075113427 19.62317598775288 L 1637.0486117130222 19.533213510238607 L 1637.0171400316538 19.443104260425986 L 1636.9876632164635 19.352857249164913 L 1636.9601842151085 19.262481501081304 L 1636.9347057754658 19.171986053674658 L 1636.9112304453583 19.0813799564143 L 1636.8897605722993 18.99067226983445 L 1636.8702983032586 18.899872064628184 L 1636.8528455844462 18.80898842074035 L 1636.83740416112 18.7180304264596 L 1636.8239755774093 18.627007177509565 L 1636.8125611761611 18.53592777613929 L 1636.8031620988063 18.44480133021301 L 1636.7957792852449 18.35363695229938 L 1636.7904134737516 18.26244375876022 L 1636.7870652009035 18.171230868838894 L 1636.7857348015248 18.08000740374838 L 1636.7864224086545 17.98878248575917 L 1636.7891279535327 17.89756523728704 L 1636.7938511656066 17.80636477998082 L 1636.8005915725594 17.71519023381025 L 1636.809348500356 17.624050716153963 L 1636.8201210733105 17.532955340887774 L 1636.8329082141752 17.4419132174733 L 1636.847708644246 17.350933450047012 L 1636.8645208834928 17.26002513650984 L 1636.8833432507054 17.16919736761737 L 1636.9041738636627 17.07845922607082 L 1636.9270106393208 16.987819785608714 L 1636.9518512940215 16.897288110099574 L 1636.9786933437197 16.8068732526355 L 1637.0075341042327 16.716584254626905 L 1637.0383706915088 16.62643014489834 L 1637.0712000219148 16.536419938785652 L 1637.106018812545 16.446562637234447 L 1637.1428235815492 16.356867225899993 L 1637.1816106484816 16.26734267424868 L 1637.2223761346677 16.177997934661075 L 1637.2651159635925 16.08884194153668 L 1637.309825861309 15.999883610400506 L 1637.3565013568648 15.911131837011538 L 1637.405137782749 15.82259549647316 L 1637.4557302753597 15.734283442345639 L 1637.5082737754897 15.6462045057608 L 1637.5627630288327 15.558367494538897 L 1637.619192586509 15.47078119230786 L 1637.6775568056096 15.383454357624922 L 1637.7378498497615 15.296395723100778 L 1637.8000656897102 15.209613994526332 L 1637.8641981039239 15.123117850002128 L 1637.9302406792144 15.036915939070532 L 1637.9981868113794 14.951016881850805 L 1638.068029705862 14.865429268177088 L 1638.1397623784312 14.780161656739425 L 1638.2133776558796 14.695222574227904 L 1638.2888681767406 14.610620514479992 L 1638.3662263920248 14.526363937631164 L 1638.4454445659758 14.44246126926889 L 1638.5265147768416 14.358920899590089 L 1638.6094289176688 14.27575118256211 L 1638.6941786971126 14.19296043508735 L 1638.7807556402659 14.110556936171564 L 1638.8691510895057 14.028548926095976 L 1638.9593562053617 13.946944605593249 L 1639.0513619673968 13.865752135027433 L 1639.1451591751118 13.784979633577926 L 1639.240738448864 13.704635178427559 L 1639.3380902308058 13.624726803954896 L 1639.4372047858399 13.545262500930793 L 1639.5380722025934 13.466250215719334 L 1639.640682394409 13.387697849483194 L 1639.7450251003527 13.30961325739354 L 1639.851089886241 13.23200424784451 L 1639.9588661456837 13.154878581672381 L 1640.0683431011446 13.078243971379504 L 1640.1795098050195 13.002108080363044 L 1640.2923551407305 12.926478522148656 L 1640.4068678238382 12.851362859629138 L 1640.5230364031695 12.776768604308145 L 1640.6408492619635 12.702703215549048 L 1640.7602946190325 12.629174099829003 L 1640.8813605299401 12.556188609998305 L 1641.0040348881964 12.483754044545117 L 1641.1283054264677 12.411877646865625 L 1641.2541597178038 12.340566604539697 L 1641.38158517688 12.26982804861214 L 1641.5105690612572 12.199669052879603 L 1641.641098472654 12.130096633183188 L 1641.7731603582383 12.06111774670689 L 1641.9067415119314 11.992739291281874 L 1642.0418285757294 11.924968104696699 L 1642.1784080410384 11.857810964013552 L 1642.3164662500258 11.791274584890534 L 1642.4559893969854 11.725365620910111 L 1642.5969635297192 11.660090662913756 L 1642.7393745509314 11.595456238342878 L 1642.8832082196382 11.531468810586066 L 1643.028450152593 11.468134778332775 L 1643.175085825723 11.405460474933456 L 1643.3231005755836 11.343452167766216 L 1643.472479600823 11.282116057610097 L 1643.6232079636632 11.221458278025008 L 1643.7752705913933 11.16148489473835 L 1643.9286522778773 11.10220190503848 L 1644.0833376850746 11.043615237174969 L 1644.2393113445733 10.985730749765775 L 1644.3965576591374 10.928554231211407 L 1644.5550609042664 10.87209139911607 L 1644.7148052297678 10.816347899715922 L 1644.8757746613426 10.76132930731445 L 1645.037953102181 10.707041123725045 L 1645.201324334575 10.653488777720831 L 1645.365872021537 10.600677624491773 L 1645.5315797084354 10.548612945109191 L 1645.6984308246394 10.497299945997636 L 1645.866408685177 10.446743758414254 L 1646.0354964924018 10.396949437935678 L 1646.2056773376742 10.347921963952459 L 1646.376934203051 10.299666239171138 L 1646.5492499629886 10.252187089123984 L 1646.722607386055 10.20548926168643 L 1646.8969891366519 10.159577426602311 L 1647.0723777767496 10.114456175016873 L 1647.2487557676304 10.070130019017672 L 1647.4261054716421 10.026603391183372 L 1647.6044091539623 9.983880644140482 L 1647.783648984371 9.941966050128107 L 1647.9638070390347 9.900863800570718 L 1648.144865302298 9.86057800565902 L 1648.3268056684858 9.82111269393893 L 1648.5096099437126 9.782471811908737 L 1648.6932598477035 9.744659223624438 L 1648.877737015621 9.707678710313356 L 1649.0630229999022 9.671533969996 L 1649.249099272103 9.636228617116288 L 1649.435947224751 9.60176618218008 L 1649.6235481732072 9.568150111402154 L 1649.8118833575327 9.535383766361576 L 1650.000933944366 9.503470423665544 L 1650.190681028806 9.472413274621731 L 1650.3811056363024 9.442215424919162 L 1650.5721887245531 9.412879894317644 L 1650.7639111854087 9.384409616345788 L 1650.9562538467828 9.35680743800767 L 1651.1491974745693 9.330076119498116 L 1651.3427227745665 9.304218333926707 L 1651.5368103944056 9.27923666705045 L 1651.7314409254861 9.255133617015213 L 1651.9265949049177 9.231911594105915 L 1652.1222528174644 9.209572920505497 L 1652.3183950974983 9.1881198300627 L 1652.5150021309548 9.167554468068694 L 1652.7120542572945 9.147878891042538 L 1652.9095317714691 9.129095066525542 L 1653.1074149258914 9.1112048728845 L 1653.3056839324108 9.09421009912387 L 1653.5043189642922 9.078112444706866 L 1653.7033001581979 9.062913519385516 L 1653.9026076161742 9.048614843039683 L 1654.1022214076415 9.03521784552509 L 1654.3021215713868 9.022723866530322 L 1654.5022881175605 9.011134155442866 L 1654.7027010296747 9.000449871224175 L 1654.9033402666053 8.990672082293766 L 1655.1041857645957 8.981801766422386 L 1655.3052174392635 8.973839810634226 L 1655.5064151876088 8.966787011118234 L 1655.7077588900245 8.960644073148481 L 1655.9092284123078 8.955411611013648 L 1656.1108036076748 8.951090147955588 L 1656.3124643187737 8.947680116117002 L 1656.5141903797014 8.945181856498236 L 1656.71596161802 8.943595618923167 L 1656.917757856774 8.942921562014233 L 1657.1195589165072 8.94315975317656 L 1657.3213446172822 8.944310168591237 L 1657.523094780697 8.946372693217674 L 1657.7247892319033 8.949347120805129 L 1657.9264078016242 8.953233153913324 L 1658.1279303281706 8.958030403942185 L 1658.3293366594578 8.963738391170708 L 1658.5306066550206 8.970356544804925 L 1658.7317201880269 8.97788420303499 L 1658.9326571472914 8.98632061310135 L 1659.1333974392853 8.99566493137003 L 1659.333920990147 9.00591622341699 L 1659.5342077476882 9.017073464121571 L 1659.7342376834001 9.029135537768996 L 1659.933990794456 9.042101238161953 L 1660.1334471057112 9.055969268741208 L 1660.3325866717005 9.070738242715262 L 1660.5313895786337 9.086406683199021 L 1660.7298359463855 9.102973023361494 L 1660.9279059304845 9.120435606582474 L 1661.1255797240974 9.138792686618187 L 1661.3228375600095 9.158042427775927 L 1661.5196597126019 9.178182905097621 L 1661.7160264998229 9.199212104552322 L 1661.9119182851578 9.221127923237606 L 1662.1073154795909 9.243928169589871 L 1662.302198543566 9.267610563603478 L 1662.4965479889388 9.292172737058763 L 1662.690344380927 9.317612233758847 L 1662.8835683400528 9.343926509775264 L 1663.076200544081 9.371112933702335 L 1663.2682217299523 9.399168786920328 L 1663.4596126957076 9.428091263867296 L 1663.65035430241 9.45787747231965 L 1663.840427476058 9.488524433681365 L 1664.0298132094922 9.520029083281843 L 1664.2184925642975 9.55238827068238 L 1664.4064466726954 9.585598759991202 L 1664.5936567394317 9.619657230187048 L 1664.780104043656 9.654560275451288 L 1664.9657699407928 9.690304405508478 L 1665.1506358644074 9.726886045975398 L 1665.3346833280616 9.764301538718486 L 1665.517893927162 9.802547142219648 L 1665.7002493408017 9.841619031950406 L 1665.8817313335912 9.881513300754346 L 1666.0623217574826 9.92222595923783 L 1666.242002553584 9.963752936168941 L 1666.420755753965 10.00609007888459 L 1666.598563483455 10.049233153705785 L 1666.7754079614292 10.093177846360998 L 1666.9512715035871 10.137919762417582 L 1667.1261365237212 10.18345442772122 L 1667.299985535475 10.229777288843323 L 1667.472801154092 10.276883713536382 L 1667.6445660981549 10.324768991197185 L 1667.815263191312 10.373428333337866 L 1667.9848753639963 10.422856874064767 L 1668.153385655132 10.473049670564997 L 1668.3207772138303 10.52400170360074 L 1668.487033301075 10.575707878011151 L 1668.6521372913958 10.628163023221877 L 1668.8160726745311 10.681361893762105 L 1668.9788230570794 10.73529916978912 L 1669.140372164138 10.789969457620263 L 1669.300703840931 10.84536729027231 L 1669.459802054424 10.90148712800816 L 1669.6176508949284 10.958323358890807 L 1669.7742345776917 11.015870299344526 L 1669.9295374444762 11.074122194723225 L 1670.0835439651244 11.133073219885913 L 1670.2362387391127 11.192717479779198 L 1670.387606497091 11.253049010026789 L 1670.5376321024096 11.314061777525946 L 1670.6863005526332 11.375749681050758 L 1670.83359698104 11.43810655186228 L 1670.9795066581107 11.501126154325393 L 1671.1240149929988 11.564802186532368 L 1671.2671075349913 11.629128280933049 L 1671.4087699749532 11.6940980049716 L 1671.5489881467583 11.759704861729757 L 1671.687748028707 11.825942290576517 L 1671.825035744926 11.892803667824193 L 1671.9608375667585 11.96028230739078 L 1672.0951399141352 12.02837146146855 L 1672.2279293569336 12.097064321198838 L 1672.35919261632 12.166354017352914 L 1672.4889165660775 12.236233621018904 L 1672.6170882339195 12.306696144294676 L 1672.7436948027862 12.377734540986618 L 1672.868723612126 12.449341707314261 L 1672.992162159162 12.521510482620645 L 1673.1139981001427 12.594233650088377 L 1673.2342192515753 12.667503937461316 L 1673.3528135914448 12.741314017771781 L 1673.4697692604163 12.815656510073252 L 1673.5850745630203 12.890523980178447 L 1673.6987179688226 12.965908941402748 L 1673.810688113577 13.04180385531285 L 1673.9209738003628 13.11820113248061 L 1674.0295640007032 13.195093133241976 L 1674.1364478556682 13.272472168460947 L 1674.2416146769617 13.350330500298481 L 1674.3450539479893 13.42866034298628 L 1674.4467553249099 13.507453863605349 L 1674.5467086376707 13.586703182869286 L 1674.6449038910237 13.666400375912204 L 1674.741331265525 13.746537473081217 L 1674.8359811185182 13.827106460733386 L 1674.9288439850964 13.908099282037085 L 1675.0199105790505 13.989507837777682 L 1675.1091717937968 14.071323987167439 L 1675.1966187032886 14.1535395486596 L 1675.2822425629074 14.236146300766524 L 1675.3660348103388 14.319135982881845 L 1675.4479870664277 14.402500296106505 L 1675.528091136017 14.486230904078653 L 1675.6063390087666 14.570319433807267 L 1675.682722859954 14.654757476509447 L 1675.7572350512582 14.739536588451287 L 1675.829868131522 14.824648291792245 L 1675.9006148374979 14.910084075432911 L 1675.969468094574 14.995835395866116 L 1676.0364210174823 15.081893678031278 L 1676.1014669109861 15.168250316171896 L 1676.1645992705503 15.254896674696116 L 1676.2258117829917 15.341824089040294 L 1676.28509832711 15.429023866535433 L 1676.3424529743002 15.516487287276451 L 1676.3978699891452 15.604205604994158 L 1676.4513438299898 15.692170047929883 L 1676.5028691494947 15.780371819712634 L 1676.5524407951707 15.868802100238737 L 1676.6000538098942 15.957452046553826 L 1676.6457034324042 16.046312793737147 L 1676.6893850977756 16.135375455788033 L 1676.731094437879 16.2246311265145 L 1676.7708272818147 16.314070880423845 L 1676.8085796563314 16.40368577361522 L 1676.8443477862236 16.49346684467398 L 1676.8781280947076 16.583405115567835 L 1676.9099172037809 16.67349159254465 L 1676.939711934559 16.763717267031794 L 1676.967509307594 16.85407311653701 L 1676.9933065431712 16.944550105550636 L 1677.0171010615888 17.03513918644918 L 1677.0388904834151 17.12583130040003 L 1677.0586726297256 17.216617378267376 L 1677.0764455223223 17.307488341519083 L 1677.0922073839308 17.398435103134553 L 1677.105956638378 17.48944856851341 L 1677.1176919107502 17.580519636384963 L 1677.1274120275295 17.67163919971832 L 1677.1351160167128 17.762798146633074 L 1677.140803107907 17.8539873613105 L 1677.1444727324083 17.945197724905128 L 1677.146124523257 18.0364201164566 M 1677.1462268994583 47.09187800570001 L 1677.1452178949244 47.18310231293715 L 1677.1421909822222 47.27431749781959 L 1677.1371464640408 47.365514438904846 L 1677.1300848448277 47.45668401657481 L 1677.1210068307387 47.547817113947694 L 1677.1099133295677 47.638904617789706 L 1677.0968054506557 47.729937419426356 L 1677.0816845047796 47.82090641565335 L 1677.0645520040214 47.91180250964687 L 1677.045409661617 48.002616611873265 L 1677.0242593917844 48.09333964099798 L 1677.0011033095334 48.18396252479373 L 1676.9759437304526 48.27447620104763 L 1676.9487831704791 48.36487161846748 L 1676.919624345646 48.45513973758689 L 1676.8884701718118 48.54527153166916 L 1676.8553237643678 48.63525798760998 L 1676.820188437927 48.72509010683876 L 1676.783067705993 48.81475890621844 L 1676.7439652806079 48.90425541894379 L 1676.7028850719817 48.99357069543812 L 1676.659831188101 49.082695804248225 L 1676.6148079343184 49.17162183293748 L 1676.5678198129217 49.26033988897713 L 1676.5188715226839 49.34884110063549 L 1676.467967958393 49.43711661786516 L 1676.4151142103633 49.525157613187965 L 1676.3603155639255 49.61295528257775 L 1676.3035774988987 49.70050084634074 L 1676.2449056890418 49.78778554999351 L 1676.1843060014871 49.87480066513843 L 1676.121784496153 49.961537490336504 L 1676.0573474251376 50.04798735197749 L 1675.9910012320945 50.134141605147256 L 1675.9227525515876 50.2199916344923 L 1675.8526082084281 50.305528855081214 L 1675.780575216992 50.39074471326322 L 1675.7066607805184 50.47563068752352 L 1675.6308722903893 50.56017828933542 L 1675.5532173253905 50.64437906400919 L 1675.473703650954 50.72822459153755 L 1675.3923392183806 50.8117064874376 L 1675.3091321640459 50.894816403589324 L 1675.2240908085862 50.97754602907036 L 1675.137223656066 51.059887090987104 L 1675.048539393128 51.14183135530199 L 1674.9580468881252 51.22337062765686 L 1674.865755190232 51.304496754192435 L 1674.7716735285417 51.38520162236367 L 1674.6758113111418 51.46547716175098 L 1674.5781781241744 51.545315344867355 L 1674.4787837308766 51.62470818796099 L 1674.3776380706051 51.70364775181375 L 1674.2747512578417 51.78212614253502 L 1674.1701335811815 51.86013551235114 L 1674.0637955023055 51.93766806039013 L 1673.9557476549326 52.014716033461795 L 1673.8460008437578 52.09127172683303 L 1673.7345660433705 52.1673274849983 L 1673.6214543971582 52.242875702445176 L 1673.5066772161908 52.31790882441486 L 1673.3902459780911 52.39241934765768 L 1673.272172325886 52.4663998211834 L 1673.1524680668417 52.539842847006334 L 1673.031145171285 52.612741080885094 L 1672.9082157714042 52.68508723305703 L 1672.7836921600367 52.756874068967235 L 1672.6575867894398 52.82809440999192 L 1672.5299122700458 52.89874113415634 L 1672.4006813692001 52.96880717684695 L 1672.269907009885 53.03828553151787 L 1672.1376022694274 53.107169250391536 L 1672.003780378191 53.175451445153456 L 1671.8684547182538 53.243125287641064 L 1671.7316388220688 53.31018401052649 L 1671.5933463711117 53.37662090799334 L 1671.4535911945122 53.44242933640724 L 1671.3123872676717 53.507602714980166 L 1671.169748710865 53.572134526428584 L 1671.025689787829 53.63601831762513 L 1670.8802249043358 53.699247700243916 L 1670.733368606753 53.76181635139937 L 1670.5851355805873 53.82371801427851 L 1670.4355406490185 53.884946498766645 L 1670.2845987714145 53.945495682066344 L 1670.1323250418377 54.00535950930974 L 1669.978734687534 54.064531994163985 L 1669.8238430674107 54.123007219429915 L 1669.6676656705008 54.18077933763372 L 1669.510218114414 54.237842571611736 L 1669.3515161437747 54.294191215088105 L 1669.1915756286476 54.349819633245446 L 1669.030412562951 54.4047222632883 L 1668.868043062857 54.45889361499941 L 1668.7044833651803 54.512328271288744 L 1668.5397498257548 54.56502088873521 L 1668.3738589177967 54.61696619812098 L 1668.2068272302586 54.66815900495838 L 1668.0386714661704 54.718594190009405 L 1667.869408440968 54.76826670979758 L 1667.699055080813 54.817171597112306 L 1667.5276284208996 54.865303961505624 L 1667.3551456037508 54.912658989781185 L 1667.1816238775043 54.95923194647564 L 1667.0070805941887 55.00501817433212 L 1666.8315332079867 55.050013094766 L 1666.6549992734901 55.09421220832273 L 1666.4774964439462 55.137611095127795 L 1666.299042469489 55.180205415328665 L 1666.119655195368 55.22199090952882 L 1665.9393525601608 55.26296339921367 L 1665.7581525939809 55.30311878716838 L 1665.5760734166734 55.342453057887624 L 1665.3931332360048 55.3809622779771 L 1665.2093503458407 55.418642596546896 L 1665.0247431243167 55.45549024559656 L 1664.8393300320013 55.49150154039188 L 1664.653129610049 55.5266728798334 L 1664.466160478347 55.56100074681648 L 1664.2784413336528 55.594481708583025 L 1664.0899909477243 55.627112417064765 L 1663.9008281654428 55.658889609218036 L 1663.7109719029295 55.689810107350105 L 1663.5204411456518 55.719870819436935 L 1663.329254946527 55.74906873943235 L 1663.1374324240155 55.77740094756871 L 1662.94499276021 55.80486461064878 L 1662.7519551989162 55.83145698232916 L 1662.5583390437296 55.857175403394834 L 1662.3641636561042 55.88201730202513 L 1662.169448453417 55.90598019405088 L 1661.9742129070262 55.92906168320286 L 1661.7784765403233 55.95125946135139 L 1661.5822589267823 55.972571308737145 L 1661.3855796880007 55.99299509419315 L 1661.1884584917389 56.01252877535787 L 1660.9909150499518 56.03117039887948 L 1660.7929691168192 56.04891810061116 L 1660.5946404867693 56.065770105797526 L 1660.3959489925003 56.081724729252095 L 1660.1969145029955 56.096780375525825 L 1659.997556921538 56.11093553906663 L 1659.7978961837202 56.12418880436996 L 1659.5979522554494 56.13653884612032 L 1659.3977451309515 56.14798442932383 L 1659.1972948307725 56.158524409431706 L 1658.996621399775 56.16815773245473 L 1658.7957449051353 56.17688343506861 L 1658.5946854343351 56.184700644710375 L 1658.3934630931542 56.19160857966556 L 1658.1920980036589 56.197606549146435 L 1657.9906103021901 56.20269395336105 L 1657.7890201373505 56.20687028357321 L 1657.5873476679885 56.21013512215339 L 1657.3856130611825 56.212488142620444 L 1657.1838364902258 56.2139291096743 L 1656.9820381326067 56.21445787921943 L 1656.7802381679933 56.21407439837934 L 1656.5784567762137 56.21277870550178 L 1656.3767141352387 56.21057093015497 L 1656.1750304191646 56.2074512931146 L 1655.9734257961948 56.203420106341774 L 1655.7719204266234 56.19847777295181 L 1655.57053446082 56.192624787173926 L 1655.3692880372128 56.18586173430183 L 1655.1682012802767 56.17818929063517 L 1654.9672942985198 56.16960822341191 L 1654.7665871824727 56.16011939073163 L 1654.56610000268 56.14972374146969 L 1654.3658528076926 56.13842231518235 L 1654.165865622063 56.12621624200283 L 1653.966158444343 56.113106742528274 L 1653.7667512450842 56.099095127697694 L 1653.56766396484 56.084182798660905 L 1653.368916512173 56.06837124663838 L 1653.1705287616624 56.051662052772144 L 1652.9725205519183 56.034056887967665 L 1652.7749116835964 56.01555751272676 L 1652.577721917419 55.996165776971516 L 1652.3809709721984 55.97588361985936 L 1652.184678522865 55.954713069589104 L 1651.9888641985003 55.93265624319813 L 1651.7935475803736 55.9097153463507 L 1651.5987481999837 55.885892673117375 L 1651.4044855371064 55.861190605745634 L 1651.2107790178466 55.835611614421616 L 1651.017648012694 55.80915825702316 L 1650.8251118345888 55.781833178863934 L 1650.633189736988 55.753639112429 L 1650.4419009119415 55.72457887710151 L 1650.2512644881724 55.69465537888076 L 1650.0612995291644 55.66387161009166 L 1649.8720250312551 55.63223064908542 L 1649.6834599217361 55.59973565993178 L 1649.4956230569617 55.56638989210258 L 1649.3085332204619 55.5321966801468 L 1649.1222091210639 55.497159443357155 L 1648.9366693910229 55.46128168542812 L 1648.7519325841567 55.4245669941056 L 1648.5680171739928 55.387019040828115 L 1648.3849415519185 55.34864158035972 L 1648.2027240253435 55.30943845041446 L 1648.0213828158687 55.269413571272686 L 1647.8409360574638 55.22857094538894 L 1647.6614017946542 55.18691465699178 L 1647.482797980717 55.14444887167533 L 1647.3051424758842 55.10117783598274 L 1647.1284530455587 55.05710587698152 L 1646.9527473585358 55.01223740183083 L 1646.7780429852382 54.96657689734081 L 1646.6043573959578 54.92012892952385 L 1646.4317079591083 54.87289814313803 L 1646.2601119394897 54.82488926122262 L 1646.0895864965607 54.77610708462583 L 1645.9201486827242 54.72655649152463 L 1645.7518154416198 54.67624243693707 L 1645.5846036064313 54.62516995222667 L 1645.4185298982034 54.57334414459934 L 1645.253610924168 54.52077019659265 L 1645.0898631760851 54.467453365557596 L 1644.9273030285935 54.41339898313285 L 1644.7659467375722 54.358612454711604 L 1644.6058104385156 54.30309925890105 L 1644.4469101449206 54.24686494697451 L 1644.289261746684 54.18991514231631 L 1644.132881008514 54.13225553985946 L 1643.9777835683544 54.073891905516156 L 1643.8239849358197 54.014830075601196 L 1643.6715004906453 53.95507595624835 L 1643.5203454811485 53.89463552281976 L 1643.3705350227042 53.83351481930841 L 1643.2220840962336 53.77171995773371 L 1643.0750075467054 53.70925711753032 L 1642.9293200816521 53.64613254493022 L 1642.785036269699 53.582352552338044 L 1642.6421705391067 53.51792351769993 L 1642.5007371763295 53.45285188386562 L 1642.3607503245855 53.3871441579443 L 1642.2222239824437 53.320806910653786 L 1642.0851720024223 53.25384677566353 L 1641.9496080896056 53.186270448931246 L 1641.8155458002716 53.11808468803328 L 1641.6829985405375 53.049296311488895 L 1641.551979565019 52.97991219807844 L 1641.4225019755045 52.909939286155414 L 1641.294578719645 52.83938457295272 L 1641.1682225896593 52.76825511388287 L 1641.043446221055 52.6965580218325 L 1640.9202620913657 52.62430046645107 L 1640.798682518901 52.5514896734339 L 1640.678719661517 52.47813292379962 L 1640.5603855153995 52.40423755316206 L 1640.4436919138648 52.3298109509967 L 1640.3286505261754 52.25486055990175 L 1640.2152728563742 52.179393874853844 L 1640.1035702421339 52.103418442458604 L 1639.9935538536229 52.02694186019596 L 1639.8852346923882 51.94997177566041 L 1639.7786235902556 51.87251588579626 L 1639.6737312082469 51.79458193612795 L 1639.5705680355122 51.7161777199855 L 1639.4691443882834 51.6373110777252 L 1639.3694704088402 51.55798989594554 L 1639.271556064498 51.47822210669861 L 1639.1754111466096 51.398015686696844 L 1639.0810452695862 51.31737865651542 L 1638.988467869937 51.23631907979016 L 1638.8976882053253 51.15484506241117 L 1638.8087153536412 51.072964751712306 L 1638.7215582120964 50.990686335656406 L 1638.636225496332 50.9080180420165 L 1638.5527257395486 50.82496813755307 L 1638.4710672916522 50.74154492718736 L 1638.3912583184197 50.65775675317087 L 1638.3133068006819 50.573611994251195 L 1638.2372205335253 50.4891190648341 L 1638.1630071255136 50.40428641414212 L 1638.0906739979255 50.31912252536962 L 1638.0202283840138 50.233635914834515 L 1637.9516773282808 50.14783513112663 L 1637.8850276857752 50.06172875425281 L 1637.8202861214056 49.975325394779006 L 1637.7574591092746 49.888633692969165 L 1637.696552932031 49.80166231792121 L 1637.6375736802418 49.71441996670019 L 1637.5805272517828 49.626915363468505 L 1637.5254193512496 49.53915725861357 L 1637.472255489386 49.45115442787274 L 1637.4210409825344 49.362915671455745 L 1637.3717809521024 49.27444981316471 L 1637.324480324052 49.18576569951172 L 1637.2791438284069 49.09687219883425 L 1637.2357759987785 49.007778200408296 L 1637.1943811719138 48.918492613559444 L 1637.154963487261 48.82902436677198 L 1637.1175268865559 48.73938240679603 L 1637.082075113427 48.64957569775289 L 1637.0486117130222 48.55961322023861 L 1637.0171400316538 48.46950397042599 L 1636.9876632164635 48.37925695916492 L 1636.9601842151085 48.28888121108131 L 1636.9347057754658 48.198385763674665 L 1636.9112304453583 48.1077796664143 L 1636.8897605722993 48.017071979834455 L 1636.8702983032586 47.92627177462819 L 1636.8528455844462 47.835388130740355 L 1636.83740416112 47.744430136459606 L 1636.8239755774093 47.65340688750957 L 1636.8125611761611 47.562327486139296 L 1636.8031620988063 47.47120104021301 L 1636.7957792852449 47.38003666229938 L 1636.7904134737516 47.28884346876023 L 1636.7870652009035 47.1976305788389 L 1636.7857348015248 47.10640711374838" stroke-miterlimit="10" stroke-width="2.3497561670000002" stroke-dasharray=""/></g><g><g/><text fill="black" stroke="none" font-family="sans-serif" font-size="8pt" font-style="normal" font-weight="normal" text-decoration="normal" x="1633.4217786003333" y="71.045568814" text-anchor="start" dominant-baseline="alphabetic" xml:space="preserve">Database</text></g></g><g><path fill="white" stroke="black" paint-order="fill stroke markers" d=" M 289.21655134166673 120.80511117400002 L 303.0386464416667 120.80511117400002 L 303.0386464416667 581.0808780039999 L 289.21655134166673 581.0808780039999 L 289.21655134166673 120.80511117400002" stroke-miterlimit="10" stroke-width="1.1518412583333333" stroke-dasharray=""/><path fill="white" stroke="black" paint-order="fill stroke markers" d=" M 597.5005940520833 272.848157274 L 611.3226891520834 272.848157274 L 611.3226891520834 542.379011724 L 597.5005940520833 542.379011724 L 597.5005940520833 272.848157274" stroke-miterlimit="10" stroke-width="1.1518412583333333" stroke-dasharray=""/><path fill="white" stroke="black" paint-order="fill stroke markers" d=" M 604.4116416020834 464.97527916399997 L 618.2337367020834 464.97527916399997 L 618.2337367020834 503.67714544399996 L 604.4116416020834 503.67714544399996 L 604.4116416020834 464.97527916399997" stroke-miterlimit="10" stroke-width="1.1518412583333333" stroke-dasharray=""/><path fill="white" stroke="black" paint-order="fill stroke markers" d=" M 289.21655134166673 657.102401054 L 303.0386464416667 657.102401054 L 303.0386464416667 752.474857244 L 289.21655134166673 752.474857244 L 289.21655134166673 657.102401054" stroke-miterlimit="10" stroke-width="1.1518412583333333" stroke-dasharray=""/><path fill="white" stroke="black" paint-order="fill stroke markers" d=" M 289.21655134166673 811.909866174 L 303.0386464416667 811.909866174 L 303.0386464416667 1923.2063122140007 L 289.21655134166673 1923.2063122140007 L 289.21655134166673 811.909866174" stroke-miterlimit="10" stroke-width="1.1518412583333333" stroke-dasharray=""/><path fill="white" stroke="black" paint-order="fill stroke markers" d=" M 597.5005940520833 963.9529122739999 L 611.3226891520834 963.9529122739999 L 611.3226891520834 1884.5044459340006 L 597.5005940520833 1884.5044459340006 L 597.5005940520833 963.9529122739999" stroke-miterlimit="10" stroke-width="1.1518412583333333" stroke-dasharray=""/><path fill="white" stroke="black" paint-order="fill stroke markers" d=" M 1137.2229996416665 1462.9305453840002 L 1151.0450947416664 1462.9305453840002 L 1151.0450947416664 1731.0791903240006 L 1137.2229996416665 1731.0791903240006 L 1137.2229996416665 1462.9305453840002" stroke-miterlimit="10" stroke-width="1.1518412583333333" stroke-dasharray=""/><path fill="white" stroke="black" paint-order="fill stroke markers" d=" M 1466.0848426367916 1501.6324116640003 L 1479.9069377367914 1501.6324116640003 L 1479.9069377367914 1957.7615499640006 L 1466.0848426367916 1957.7615499640006 L 1466.0848426367916 1501.6324116640003" stroke-miterlimit="10" stroke-width="1.1518412583333333" stroke-dasharray=""/><path fill="white" stroke="black" paint-order="fill stroke markers" d=" M 1472.9958901867915 1558.3030015740003 L 1486.8179852867913 1558.3030015740003 L 1486.8179852867913 1635.7067341340003 L 1472.9958901867915 1635.7067341340003 L 1472.9958901867915 1558.3030015740003" stroke-miterlimit="10" stroke-width="1.1518412583333333" stroke-dasharray=""/><g><g><rect fill="white" stroke="none" x="81.61709725583339" y="102.83638754400002" width="188.18178478" height="17.96872363"/></g><text fill="black" stroke="none" font-family="sans-serif" font-size="8pt" font-style="normal" font-weight="normal" text-decoration="normal" x="83.69041152083338" y="115.27627313400002" text-anchor="start" dominant-baseline="alphabetic" xml:space="preserve">mousePressed(x : Integer, y : Integer)</text></g><g><path fill="none" stroke="black" paint-order="fill stroke markers" d=" M 62.19942795 120.80511117400002 L 277.8363597093334 120.80511117400002" stroke-miterlimit="10" stroke-width="1.1518412583333333" stroke-dasharray=""/><g transform="translate(289.21655134166673,120.80511117400002) translate(-289.21655134166673,-120.80511117400002)"><path fill="black" stroke="none" paint-order="stroke fill markers" d=" M 277.6981387583334 115.04590488233335 L 289.21655134166673 120.80511117400002 L 277.6981387583334 126.56431746566669 Z"/></g></g><g><g><rect fill="white" stroke="none" x="319.39479230999996" y="141.53825382400004" width="139.56801524875" height="17.96872363"/></g><text fill="black" stroke="none" font-family="sans-serif" font-size="8pt" font-style="normal" font-weight="normal" text-decoration="normal" x="321.468106575" y="153.97813941400005" text-anchor="start" dominant-baseline="alphabetic" xml:space="preserve">sn := yToScreen(y : Integer)</text></g><g><path fill="none" stroke="black" paint-order="fill stroke markers" d=" M 303.0386464416667 159.50697745400004 L 358.3270268416667 159.50697745400004 L 358.3270268416667 177.47570108400004 L 314.418838074 177.47570108400004" stroke-miterlimit="10" stroke-width="1.1518412583333333" stroke-dasharray=""/><g transform="translate(303.0386464416667,177.47570108400004) translate(-303.0386464416667,-177.47570108400004)"><path fill="black" stroke="none" paint-order="stroke fill markers" d=" M 314.557059025 171.71649479233338 L 303.0386464416667 177.47570108400004 L 314.557059025 183.2349073756667 Z"/></g></g><g><g><rect fill="white" stroke="none" x="319.39479230999996" y="198.20884373400003" width="137.9190894675" height="17.96872363"/></g><text fill="black" stroke="none" font-family="sans-serif" font-size="8pt" font-style="normal" font-weight="normal" text-decoration="normal" x="321.468106575" y="210.64872932400004" text-anchor="start" dominant-baseline="alphabetic" xml:space="preserve">time := xToTime(x : Integer)</text></g><g><path fill="none" stroke="black" paint-order="fill stroke markers" d=" M 303.0386464416667 216.17756736400003 L 358.3270268416667 216.17756736400003 L 358.3270268416667 234.14629099400003 L 314.418838074 234.14629099400003" stroke-miterlimit="10" stroke-width="1.1518412583333333" stroke-dasharray=""/><g transform="translate(303.0386464416667,234.14629099400003) translate(-303.0386464416667,-234.14629099400003)"><path fill="black" stroke="none" paint-order="stroke fill markers" d=" M 314.557059025 228.38708470233337 L 303.0386464416667 234.14629099400003 L 314.557059025 239.90549728566668 Z"/></g></g><g><g><rect fill="white" stroke="none" x="337.43898176312496" y="254.87943364400002" width="225.6612769675" height="17.96872363"/></g><text fill="black" stroke="none" font-family="sans-serif" font-size="8pt" font-style="normal" font-weight="normal" text-decoration="normal" x="339.512296028125" y="267.31931923400003" text-anchor="start" dominant-baseline="alphabetic" xml:space="preserve">selectScreening(sn : String, time : LocalTime)</text></g><g><path fill="none" stroke="black" paint-order="fill stroke markers" d=" M 303.0386464416667 272.848157274 L 586.12040241975 272.848157274" stroke-miterlimit="10" stroke-width="1.1518412583333333" stroke-dasharray=""/><g transform="translate(597.5005940520833,272.848157274) translate(-597.5005940520833,-272.848157274)"><path fill="black" stroke="none" paint-order="stroke fill markers" d=" M 585.98218146875 267.08895098233336 L 597.5005940520833 272.848157274 L 585.98218146875 278.6073635656667 Z"/></g></g><g><g><rect fill="white" stroke="none" x="879.6715216423748" y="330.900956694" width="90.95961681125" height="17.96872363"/></g><text fill="black" stroke="none" font-family="sans-serif" font-size="8pt" font-style="normal" font-weight="normal" text-decoration="normal" x="881.7448359073749" y="343.340842284" text-anchor="start" dominant-baseline="alphabetic" xml:space="preserve">getScreenName()</text></g><g><path fill="none" stroke="black" paint-order="fill stroke markers" d=" M 611.3226891520834 348.869680324 L 1227.599779311583 348.869680324" stroke-miterlimit="10" stroke-width="1.1518412583333333" stroke-dasharray=""/><g transform="translate(1238.9799709439164,348.869680324) translate(-1238.9799709439164,-348.869680324)"><path fill="black" stroke="none" paint-order="stroke fill markers" d=" M 1227.461558360583 343.11047403233334 L 1238.9799709439164 348.869680324 L 1227.461558360583 354.62888661566666 Z"/></g></g><g><g><rect fill="white" stroke="none" x="899.7486700798748" y="369.602822974" width="50.80531993625" height="17.96872363"/></g><text fill="black" stroke="none" font-family="sans-serif" font-size="8pt" font-style="normal" font-weight="normal" text-decoration="normal" x="901.8219843448749" y="382.042708564" text-anchor="start" dominant-baseline="alphabetic" xml:space="preserve">getTime()</text></g><g><path fill="none" stroke="black" paint-order="fill stroke markers" d=" M 611.3226891520834 387.571546604 L 1227.599779311583 387.571546604" stroke-miterlimit="10" stroke-width="1.1518412583333333" stroke-dasharray=""/><g transform="translate(1238.9799709439164,387.571546604) translate(-1238.9799709439164,-387.571546604)"><path fill="black" stroke="none" paint-order="stroke fill markers" d=" M 1227.461558360583 381.81234031233333 L 1238.9799709439164 387.571546604 L 1227.461558360583 393.33075289566665 Z"/></g></g><g><g><rect fill="white" stroke="none" x="634.5898825704166" y="429.037831904" width="88.49965587375" height="17.96872363"/></g><text fill="black" stroke="none" font-family="sans-serif" font-size="8pt" font-style="normal" font-weight="normal" text-decoration="normal" x="636.6631968354167" y="441.477717494" text-anchor="start" dominant-baseline="alphabetic" xml:space="preserve">notifyObservers()</text></g><g><path fill="none" stroke="black" paint-order="fill stroke markers" d=" M 611.3226891520834 447.006555534 L 673.5221171020834 447.006555534 L 673.5221171020834 464.97527916399997 L 629.6139283344166 464.97527916399997" stroke-miterlimit="10" stroke-width="1.1518412583333333" stroke-dasharray=""/><g transform="translate(618.2337367020833,464.97527916399997) translate(-618.2337367020833,-464.97527916399997)"><path fill="black" stroke="none" paint-order="stroke fill markers" d=" M 629.7521492854166 459.2160728723333 L 618.2337367020833 464.97527916399997 L 629.7521492854166 470.73448545566663 Z"/></g></g><g><g><rect fill="white" stroke="none" x="431.16647819437503" y="485.70842181399996" width="45.117331655" height="17.96872363"/></g><text fill="black" stroke="none" font-family="sans-serif" font-size="8pt" font-style="normal" font-weight="normal" text-decoration="normal" x="433.23979245937505" y="498.148307404" text-anchor="start" dominant-baseline="alphabetic" xml:space="preserve">update()</text></g><g><path fill="none" stroke="black" paint-order="fill stroke markers" d=" M 604.4116416020834 503.67714544399996 L 314.418838074 503.67714544399996" stroke-miterlimit="10" stroke-width="1.1518412583333333" stroke-dasharray=""/><g transform="translate(303.0386464416667,503.67714544399996) translate(-303.0386464416667,-503.67714544399996)"><path fill="black" stroke="none" paint-order="stroke fill markers" d=" M 314.557059025 497.9179391523333 L 303.0386464416667 503.67714544399996 L 314.557059025 509.4363517356666 Z"/></g></g><g><g><rect fill="white" stroke="none" x="448.19630598187496" y="524.410288094" width="4.14662853" height="17.96872363"/></g><text fill="black" stroke="none" font-family="sans-serif" font-size="8pt" font-style="normal" font-weight="normal" text-decoration="normal" x="450.269620246875" y="536.8501736839999" text-anchor="start" dominant-baseline="alphabetic" xml:space="preserve"></text></g><g><path fill="none" stroke="black" paint-order="fill stroke markers" d=" M 597.5005940520833 542.379011724 L 314.418838074 542.379011724" stroke-miterlimit="10" stroke-width="1.1518412583333333" stroke-dasharray="5.52883804"/><g transform="translate(303.0386464416667,542.379011724) translate(-303.0386464416667,-542.379011724)"><path fill="black" stroke="none" paint-order="stroke fill markers" d=" M 314.557059025 536.6198054323332 L 303.0386464416667 542.379011724 L 314.557059025 548.1382180156667 Z"/></g></g><g><g><rect fill="white" stroke="none" x="173.6346753808334" y="563.1121543739999" width="4.14662853" height="17.96872363"/></g><text fill="black" stroke="none" font-family="sans-serif" font-size="8pt" font-style="normal" font-weight="normal" text-decoration="normal" x="175.70798964583338" y="575.5520399639998" text-anchor="start" dominant-baseline="alphabetic" xml:space="preserve"></text></g><g><path fill="none" stroke="black" paint-order="fill stroke markers" d=" M 289.21655134166673 581.0808780039999 L 73.57961958233334 581.0808780039999" stroke-miterlimit="10" stroke-width="1.1518412583333333" stroke-dasharray="5.52883804"/><g transform="translate(62.19942795,581.0808780039999) translate(-62.19942795,-581.0808780039999)"><path fill="black" stroke="none" paint-order="stroke fill markers" d=" M 73.71784053333333 575.3216717123332 L 62.19942795 581.0808780039999 L 73.71784053333333 586.8400842956667 Z"/></g></g><g><g><rect fill="white" stroke="none" x="85.89785897458339" y="639.133677424" width="179.6202613425" height="17.96872363"/></g><text fill="black" stroke="none" font-family="sans-serif" font-size="8pt" font-style="normal" font-weight="normal" text-decoration="normal" x="87.97117323958338" y="651.5735630139999" text-anchor="start" dominant-baseline="alphabetic" xml:space="preserve">mouseMoved(x : integer, y : integer)</text></g><g><path fill="none" stroke="black" paint-order="fill stroke markers" d=" M 62.19942795 657.102401054 L 277.8363597093334 657.102401054" stroke-miterlimit="10" stroke-width="1.1518412583333333" stroke-dasharray=""/><g transform="translate(289.21655134166673,657.102401054) translate(-289.21655134166673,-657.102401054)"><path fill="black" stroke="none" paint-order="stroke fill markers" d=" M 277.6981387583334 651.3431947623333 L 289.21655134166673 657.102401054 L 277.6981387583334 662.8616073456667 Z"/></g></g><g><g><rect fill="white" stroke="none" x="319.39479230999996" y="677.835543704" width="45.117331655" height="17.96872363"/></g><text fill="black" stroke="none" font-family="sans-serif" font-size="8pt" font-style="normal" font-weight="normal" text-decoration="normal" x="321.468106575" y="690.2754292939999" text-anchor="start" dominant-baseline="alphabetic" xml:space="preserve">update()</text></g><g><path fill="none" stroke="black" paint-order="fill stroke markers" d=" M 303.0386464416667 695.804267334 L 358.3270268416667 695.804267334 L 358.3270268416667 713.772990964 L 314.418838074 713.772990964" stroke-miterlimit="10" stroke-width="1.1518412583333333" stroke-dasharray=""/><g transform="translate(303.0386464416667,713.772990964) translate(-303.0386464416667,-713.772990964)"><path fill="black" stroke="none" paint-order="stroke fill markers" d=" M 314.557059025 708.0137846723333 L 303.0386464416667 713.772990964 L 314.557059025 719.5321972556667 Z"/></g></g><g><g><rect fill="white" stroke="none" x="173.6346753808334" y="734.506133614" width="4.14662853" height="17.96872363"/></g><text fill="black" stroke="none" font-family="sans-serif" font-size="8pt" font-style="normal" font-weight="normal" text-decoration="normal" x="175.70798964583338" y="746.9460192039999" text-anchor="start" dominant-baseline="alphabetic" xml:space="preserve"></text></g><g><path fill="none" stroke="black" paint-order="fill stroke markers" d=" M 289.21655134166673 752.474857244 L 73.57961958233334 752.474857244" stroke-miterlimit="10" stroke-width="1.1518412583333333" stroke-dasharray="5.52883804"/><g transform="translate(62.19942795,752.474857244) translate(-62.19942795,-752.474857244)"><path fill="black" stroke="none" paint-order="stroke fill markers" d=" M 73.71784053333333 746.7156509523332 L 62.19942795 752.474857244 L 73.71784053333333 758.2340635356667 Z"/></g></g><g><g><rect fill="white" stroke="none" x="78.55557381833339" y="793.941142544" width="194.304831655" height="17.96872363"/></g><text fill="black" stroke="none" font-family="sans-serif" font-size="8pt" font-style="normal" font-weight="normal" text-decoration="normal" x="80.62888808333338" y="806.3810281339998" text-anchor="start" dominant-baseline="alphabetic" xml:space="preserve">mouseReleased(x : Integer, y : Integer)</text></g><g><path fill="none" stroke="black" paint-order="fill stroke markers" d=" M 62.19942795 811.909866174 L 277.8363597093334 811.909866174" stroke-miterlimit="10" stroke-width="1.1518412583333333" stroke-dasharray=""/><g transform="translate(289.21655134166673,811.909866174) translate(-289.21655134166673,-811.909866174)"><path fill="black" stroke="none" paint-order="stroke fill markers" d=" M 277.6981387583334 806.1506598823332 L 289.21655134166673 811.909866174 L 277.6981387583334 817.6690724656667 Z"/></g></g><g><g><rect fill="white" stroke="none" x="319.39479230999996" y="832.6430088239999" width="139.56801524875" height="17.96872363"/></g><text fill="black" stroke="none" font-family="sans-serif" font-size="8pt" font-style="normal" font-weight="normal" text-decoration="normal" x="321.468106575" y="845.0828944139998" text-anchor="start" dominant-baseline="alphabetic" xml:space="preserve">sn := yToScreen(y : Integer)</text></g><g><path fill="none" stroke="black" paint-order="fill stroke markers" d=" M 303.0386464416667 850.6117324539999 L 358.3270268416667 850.6117324539999 L 358.3270268416667 868.5804560839999 L 314.418838074 868.5804560839999" stroke-miterlimit="10" stroke-width="1.1518412583333333" stroke-dasharray=""/><g transform="translate(303.0386464416667,868.5804560839999) translate(-303.0386464416667,-868.5804560839999)"><path fill="black" stroke="none" paint-order="stroke fill markers" d=" M 314.557059025 862.8212497923332 L 303.0386464416667 868.5804560839999 L 314.557059025 874.3396623756666 Z"/></g></g><g><g><rect fill="white" stroke="none" x="319.39479230999996" y="889.3135987339999" width="137.9190894675" height="17.96872363"/></g><text fill="black" stroke="none" font-family="sans-serif" font-size="8pt" font-style="normal" font-weight="normal" text-decoration="normal" x="321.468106575" y="901.7534843239998" text-anchor="start" dominant-baseline="alphabetic" xml:space="preserve">time := xToTime(x : Integer)</text></g><g><path fill="none" stroke="black" paint-order="fill stroke markers" d=" M 303.0386464416667 907.2823223639999 L 358.3270268416667 907.2823223639999 L 358.3270268416667 925.2510459939999 L 314.418838074 925.2510459939999" stroke-miterlimit="10" stroke-width="1.1518412583333333" stroke-dasharray=""/><g transform="translate(303.0386464416667,925.2510459939999) translate(-303.0386464416667,-925.2510459939999)"><path fill="black" stroke="none" paint-order="stroke fill markers" d=" M 314.557059025 919.4918397023332 L 303.0386464416667 925.2510459939999 L 314.557059025 931.0102522856666 Z"/></g></g><g><g><rect fill="white" stroke="none" x="319.39479230999996" y="945.9841886439999" width="261.74965587375" height="17.96872363"/></g><text fill="black" stroke="none" font-family="sans-serif" font-size="8pt" font-style="normal" font-weight="normal" text-decoration="normal" x="321.468106575" y="958.4240742339998" text-anchor="start" dominant-baseline="alphabetic" xml:space="preserve">changeSelected(time : LocalTime, sn : ScreenName)</text></g><g><path fill="none" stroke="black" paint-order="fill stroke markers" d=" M 303.0386464416667 963.9529122739999 L 586.12040241975 963.9529122739999" stroke-miterlimit="10" stroke-width="1.1518412583333333" stroke-dasharray=""/><g transform="translate(597.5005940520833,963.9529122739999) translate(-597.5005940520833,-963.9529122739999)"><path fill="black" stroke="none" paint-order="stroke fill markers" d=" M 585.98218146875 958.1937059823332 L 597.5005940520833 963.9529122739999 L 585.98218146875 969.7121185656666 Z"/></g></g><g><g><rect fill="white" stroke="none" x="627.6788350204167" y="1022.005711694" width="483.97328868625" height="17.96872363"/></g><text fill="black" stroke="none" font-family="sans-serif" font-size="8pt" font-style="normal" font-weight="normal" text-decoration="normal" x="629.7521492854167" y="1034.4455972839999" text-anchor="start" dominant-baseline="alphabetic" xml:space="preserve">checkSold()                                                                                                                                          </text></g><g><path fill="none" stroke="black" paint-order="fill stroke markers" d=" M 611.3226891520834 1039.9744353239998 L 666.6110695520834 1039.9744353239998 L 666.6110695520834 1057.943158954 L 622.7028807844167 1057.943158954" stroke-miterlimit="10" stroke-width="1.1518412583333333" stroke-dasharray=""/><g transform="translate(611.3226891520834,1057.943158954) translate(-611.3226891520834,-1057.943158954)"><path fill="black" stroke="none" paint-order="stroke fill markers" d=" M 622.8411017354167 1052.1839526623332 L 611.3226891520834 1057.943158954 L 622.8411017354167 1063.7023652456667 Z"/></g></g><g><g><rect fill="white" stroke="none" x="627.6788350204167" y="1136.7291010239999" width="442.71254649875" height="17.96872363"/></g><text fill="black" stroke="none" font-family="sans-serif" font-size="8pt" font-style="normal" font-weight="normal" text-decoration="normal" x="629.7521492854167" y="1149.168986614" text-anchor="start" dominant-baseline="alphabetic" xml:space="preserve">checkDoubleScreening(time : LocalTime, screenName : String, sg : PersistentScreening)  </text></g><g><path fill="none" stroke="black" paint-order="fill stroke markers" d=" M 611.3226891520834 1154.6978246539998 L 666.6110695520834 1154.6978246539998 L 666.6110695520834 1172.6665482839999 L 622.7028807844167 1172.6665482839999" stroke-miterlimit="10" stroke-width="1.1518412583333333" stroke-dasharray=""/><g transform="translate(611.3226891520834,1172.6665482839999) translate(-611.3226891520834,-1172.6665482839999)"><path fill="black" stroke="none" paint-order="stroke fill markers" d=" M 622.8411017354167 1166.9073419923332 L 611.3226891520834 1172.6665482839999 L 622.8411017354167 1178.4257545756666 Z"/></g></g><g><g><rect fill="white" stroke="none" x="627.6788350204167" y="1251.4524903539998" width="276.78334728" height="17.96872363"/></g><text fill="black" stroke="none" font-family="sans-serif" font-size="8pt" font-style="normal" font-weight="normal" text-decoration="normal" x="629.7521492854167" y="1263.892375944" text-anchor="start" dominant-baseline="alphabetic" xml:space="preserve">checkTimeAvailable()                                                       </text></g><g><path fill="none" stroke="black" paint-order="fill stroke markers" d=" M 611.3226891520834 1269.4212139839997 L 666.6110695520834 1269.4212139839997 L 666.6110695520834 1287.3899376139998 L 622.7028807844167 1287.3899376139998" stroke-miterlimit="10" stroke-width="1.1518412583333333" stroke-dasharray=""/><g transform="translate(611.3226891520834,1287.3899376139998) translate(-611.3226891520834,-1287.3899376139998)"><path fill="black" stroke="none" paint-order="stroke fill markers" d=" M 622.8411017354167 1281.630731322333 L 611.3226891520834 1287.3899376139998 L 622.8411017354167 1293.1491439056665 Z"/></g></g><g><g><rect fill="white" stroke="none" x="797.854760938125" y="1328.8562229139998" width="159.7472144675" height="17.96872363"/></g><text fill="black" stroke="none" font-family="sans-serif" font-size="8pt" font-style="normal" font-weight="normal" text-decoration="normal" x="799.928075203125" y="1341.296108504" text-anchor="start" dominant-baseline="alphabetic" xml:space="preserve">screen := getScreen(sn : String)</text></g><g><path fill="none" stroke="black" paint-order="fill stroke markers" d=" M 611.3226891520834 1346.8249465439999 L 1132.753855559333 1346.8249465439999" stroke-miterlimit="10" stroke-width="1.1518412583333333" stroke-dasharray=""/><g transform="translate(1144.1340471916665,1346.8249465439999) translate(-1144.1340471916665,-1346.8249465439999)"><path fill="black" stroke="none" paint-order="stroke fill markers" d=" M 1132.615634608333 1341.0657402523332 L 1144.1340471916665 1346.8249465439999 L 1132.615634608333 1352.5841528356666 Z"/></g></g><g><g><rect fill="white" stroke="none" x="915.5837898955" y="1367.5580891939999" width="130.47475353" height="17.96872363"/></g><text fill="black" stroke="none" font-family="sans-serif" font-size="8pt" font-style="normal" font-weight="normal" text-decoration="normal" x="917.6571041605" y="1379.997974784" text-anchor="start" dominant-baseline="alphabetic" xml:space="preserve">setTime(time : LocalTime)</text></g><g><path fill="none" stroke="black" paint-order="fill stroke markers" d=" M 611.3226891520834 1385.526812824 L 1338.939452536583 1385.526812824" stroke-miterlimit="10" stroke-width="1.1518412583333333" stroke-dasharray=""/><g transform="translate(1350.3196441689165,1385.526812824) translate(-1350.3196441689165,-1385.526812824)"><path fill="black" stroke="none" paint-order="stroke fill markers" d=" M 1338.801231585583 1379.7676065323333 L 1350.3196441689165 1385.526812824 L 1338.801231585583 1391.2860191156667 Z"/></g></g><g><g><rect fill="white" stroke="none" x="911.8025398955" y="1406.259955474" width="138.03725353" height="17.96872363"/></g><text fill="black" stroke="none" font-family="sans-serif" font-size="8pt" font-style="normal" font-weight="normal" text-decoration="normal" x="913.8758541605" y="1418.699841064" text-anchor="start" dominant-baseline="alphabetic" xml:space="preserve">setScreen(screen : Screen)</text></g><g><path fill="none" stroke="black" paint-order="fill stroke markers" d=" M 611.3226891520834 1424.228679104 L 1338.939452536583 1424.228679104" stroke-miterlimit="10" stroke-width="1.1518412583333333" stroke-dasharray=""/><g transform="translate(1350.3196441689165,1424.228679104) translate(-1350.3196441689165,-1424.228679104)"><path fill="black" stroke="none" paint-order="stroke fill markers" d=" M 1338.801231585583 1418.4694728123334 L 1350.3196441689165 1424.228679104 L 1338.801231585583 1429.9878853956668 Z"/></g></g><g><g><rect fill="white" stroke="none" x="777.1123719287499" y="1444.961821754" width="194.32094493625" height="17.96872363"/></g><text fill="black" stroke="none" font-family="sans-serif" font-size="8pt" font-style="normal" font-weight="normal" text-decoration="normal" x="779.1856861937499" y="1457.4017073440002" text-anchor="start" dominant-baseline="alphabetic" xml:space="preserve">updateScreening(selected : Screening)</text></g><g><path fill="none" stroke="black" paint-order="fill stroke markers" d=" M 611.3226891520834 1462.9305453840002 L 1125.842808009333 1462.9305453840002" stroke-miterlimit="10" stroke-width="1.1518412583333333" stroke-dasharray=""/><g transform="translate(1137.2229996416665,1462.9305453840002) translate(-1137.2229996416665,-1462.9305453840002)"><path fill="black" stroke="none" paint-order="stroke fill markers" d=" M 1125.7045870583331 1457.1713390923335 L 1137.2229996416665 1462.9305453840002 L 1125.7045870583331 1468.689751675667 Z"/></g></g><g><g><rect fill="white" stroke="none" x="1226.081009892979" y="1483.6636880340002" width="164.9679175925" height="17.96872363"/></g><text fill="black" stroke="none" font-family="sans-serif" font-size="8pt" font-style="normal" font-weight="normal" text-decoration="normal" x="1228.1543241579789" y="1496.1035736240003" text-anchor="start" dominant-baseline="alphabetic" xml:space="preserve">updateScreening(sg : Screening)</text></g><g><path fill="none" stroke="black" paint-order="fill stroke markers" d=" M 1151.0450947416664 1501.6324116640003 L 1454.7046510044581 1501.6324116640003" stroke-miterlimit="10" stroke-width="1.1518412583333333" stroke-dasharray=""/><g transform="translate(1466.0848426367916,1501.6324116640003) translate(-1466.0848426367916,-1501.6324116640003)"><path fill="black" stroke="none" paint-order="stroke fill markers" d=" M 1454.5664300534581 1495.8732053723336 L 1466.0848426367916 1501.6324116640003 L 1454.5664300534581 1507.391617955667 Z"/></g></g><g><g><rect fill="white" stroke="none" x="1503.174131155125" y="1522.3655543140003" width="136.80727306125" height="17.96872363"/></g><text fill="black" stroke="none" font-family="sans-serif" font-size="8pt" font-style="normal" font-weight="normal" text-decoration="normal" x="1505.247445420125" y="1534.8054399040004" text-anchor="start" dominant-baseline="alphabetic" xml:space="preserve">performUpdate(sql : String)</text></g><g><path fill="none" stroke="black" paint-order="fill stroke markers" d=" M 1479.9069377367914 1540.3342779440004 L 1542.1063656867916 1540.3342779440004 L 1542.1063656867916 1558.3030015740003 L 1498.198176919125 1558.3030015740003" stroke-miterlimit="10" stroke-width="1.1518412583333333" stroke-dasharray=""/><g transform="translate(1486.8179852867916,1558.3030015740003) translate(-1486.8179852867916,-1558.3030015740003)"><path fill="black" stroke="none" paint-order="stroke fill markers" d=" M 1498.336397870125 1552.5437952823336 L 1486.8179852867916 1558.3030015740003 L 1498.336397870125 1564.062207865667 Z"/></g></g><g><g><rect fill="white" stroke="none" x="1503.174131155125" y="1579.0361442240005" width="137.43569103" height="17.96872363"/></g><text fill="black" stroke="none" font-family="sans-serif" font-size="8pt" font-style="normal" font-weight="normal" text-decoration="normal" x="1505.247445420125" y="1591.4760298140006" text-anchor="start" dominant-baseline="alphabetic" xml:space="preserve">executeUpdate(sql : String)</text></g><g><path fill="none" stroke="black" paint-order="fill stroke markers" d=" M 1486.8179852867916 1597.0048678540004 L 1645.5857764211248 1597.0048678540004" stroke-miterlimit="10" stroke-width="1.1518412583333333" stroke-dasharray=""/><g transform="translate(1656.9659680534583,1597.0048678540004) translate(-1656.9659680534583,-1597.0048678540004)"><path fill="black" stroke="none" paint-order="stroke fill markers" d=" M 1645.4475554701248 1591.2456615623337 L 1656.9659680534583 1597.0048678540004 L 1645.4475554701248 1602.764074145667 Z"/></g></g><g><g><rect fill="white" stroke="none" x="1503.174131155125" y="1617.7380105040004" width="4.14662853" height="17.96872363"/></g><text fill="black" stroke="none" font-family="sans-serif" font-size="8pt" font-style="normal" font-weight="normal" text-decoration="normal" x="1505.247445420125" y="1630.1778960940005" text-anchor="start" dominant-baseline="alphabetic" xml:space="preserve"></text></g><g><path fill="none" stroke="black" paint-order="fill stroke markers" d=" M 1486.8179852867916 1635.7067341340003 L 1542.1063656867916 1635.7067341340003 L 1542.1063656867916 1653.6754577640004 L 1491.287129369125 1653.6754577640004" stroke-miterlimit="10" stroke-width="1.1518412583333333" stroke-dasharray="5.52883804"/><g transform="translate(1479.9069377367916,1653.6754577640004) translate(-1479.9069377367916,-1653.6754577640004)"><path fill="black" stroke="none" paint-order="stroke fill markers" d=" M 1491.425350320125 1647.9162514723337 L 1479.9069377367916 1653.6754577640004 L 1491.425350320125 1659.434664055667 Z"/></g></g><g><g><rect fill="white" stroke="none" x="1306.491654424229" y="1674.4086004140004" width="4.14662853" height="17.96872363"/></g><text fill="black" stroke="none" font-family="sans-serif" font-size="8pt" font-style="normal" font-weight="normal" text-decoration="normal" x="1308.5649686892289" y="1686.8484860040005" text-anchor="start" dominant-baseline="alphabetic" xml:space="preserve"></text></g><g><path fill="none" stroke="black" paint-order="fill stroke markers" d=" M 1466.0848426367916 1692.3773240440005 L 1162.4252863739998 1692.3773240440005" stroke-miterlimit="10" stroke-width="1.1518412583333333" stroke-dasharray="5.52883804"/><g transform="translate(1151.0450947416664,1692.3773240440005) translate(-1151.0450947416664,-1692.3773240440005)"><path fill="black" stroke="none" paint-order="stroke fill markers" d=" M 1162.5635073249998 1686.6181177523338 L 1151.0450947416664 1692.3773240440005 L 1162.5635073249998 1698.1365303356672 Z"/></g></g><g><g><rect fill="white" stroke="none" x="872.1995301318749" y="1713.1104666940005" width="4.14662853" height="17.96872363"/></g><text fill="black" stroke="none" font-family="sans-serif" font-size="8pt" font-style="normal" font-weight="normal" text-decoration="normal" x="874.2728443968749" y="1725.5503522840006" text-anchor="start" dominant-baseline="alphabetic" xml:space="preserve"></text></g><g><path fill="none" stroke="black" paint-order="fill stroke markers" d=" M 1137.2229996416665 1731.0791903240006 L 622.7028807844167 1731.0791903240006" stroke-miterlimit="10" stroke-width="1.1518412583333333" stroke-dasharray="5.52883804"/><g transform="translate(611.3226891520834,1731.0791903240006) translate(-611.3226891520834,-1731.0791903240006)"><path fill="black" stroke="none" paint-order="stroke fill markers" d=" M 622.8411017354167 1725.3199840323339 L 611.3226891520834 1731.0791903240006 L 622.8411017354167 1736.8383966156673 Z"/></g></g><g><g><rect fill="white" stroke="none" x="627.6788350204167" y="1789.1319897440005" width="149.62270274875" height="17.96872363"/></g><text fill="black" stroke="none" font-family="sans-serif" font-size="8pt" font-style="normal" font-weight="normal" text-decoration="normal" x="629.7521492854167" y="1801.5718753340007" text-anchor="start" dominant-baseline="alphabetic" xml:space="preserve">notifyObservers()                    </text></g><g><path fill="none" stroke="black" paint-order="fill stroke markers" d=" M 611.3226891520834 1807.1007133740004 L 666.6110695520834 1807.1007133740004 L 666.6110695520834 1825.0694370040005 L 622.7028807844167 1825.0694370040005" stroke-miterlimit="10" stroke-width="1.1518412583333333" stroke-dasharray=""/><g transform="translate(611.3226891520834,1825.0694370040005) translate(-611.3226891520834,-1825.0694370040005)"><path fill="black" stroke="none" paint-order="stroke fill markers" d=" M 622.8411017354167 1819.3102307123338 L 611.3226891520834 1825.0694370040005 L 622.8411017354167 1830.8286432956672 Z"/></g></g><g><g><rect fill="white" stroke="none" x="448.19630598187496" y="1866.5357223040005" width="4.14662853" height="17.96872363"/></g><text fill="black" stroke="none" font-family="sans-serif" font-size="8pt" font-style="normal" font-weight="normal" text-decoration="normal" x="450.269620246875" y="1878.9756078940006" text-anchor="start" dominant-baseline="alphabetic" xml:space="preserve"></text></g><g><path fill="none" stroke="black" paint-order="fill stroke markers" d=" M 597.5005940520833 1884.5044459340006 L 314.418838074 1884.5044459340006" stroke-miterlimit="10" stroke-width="1.1518412583333333" stroke-dasharray="5.52883804"/><g transform="translate(303.0386464416667,1884.5044459340006) translate(-303.0386464416667,-1884.5044459340006)"><path fill="black" stroke="none" paint-order="stroke fill markers" d=" M 314.557059025 1878.745239642334 L 303.0386464416667 1884.5044459340006 L 314.557059025 1890.2636522256673 Z"/></g></g><g><g><rect fill="white" stroke="none" x="173.6346753808334" y="1905.2375885840006" width="4.14662853" height="17.96872363"/></g><text fill="black" stroke="none" font-family="sans-serif" font-size="8pt" font-style="normal" font-weight="normal" text-decoration="normal" x="175.70798964583338" y="1917.6774741740007" text-anchor="start" dominant-baseline="alphabetic" xml:space="preserve"></text></g><g><path fill="none" stroke="black" paint-order="fill stroke markers" d=" M 289.21655134166673 1923.2063122140007 L 73.57961958233334 1923.2063122140007" stroke-miterlimit="10" stroke-width="1.1518412583333333" stroke-dasharray="5.52883804"/><g transform="translate(62.19942795,1923.2063122140007) translate(-62.19942795,-1923.2063122140007)"><path fill="black" stroke="none" paint-order="stroke fill markers" d=" M 73.71784053333333 1917.447105922334 L 62.19942795 1923.2063122140007 L 73.71784053333333 1928.9655185056674 Z"/></g></g><g><g/><path fill="none" stroke="black" paint-order="fill stroke markers" d=" M 556.0343087520833 293.581299924 L 1287.3573037939163 293.581299924 L 1287.3573037939163 408.304689254 L 556.0343087520833 408.304689254 L 556.0343087520833 293.581299924 Z" stroke-miterlimit="10" stroke-width="1.9745850142857144" stroke-dasharray=""/><path fill="white" stroke="black" paint-order="fill stroke markers" d=" M 556.0343087520833 293.581299924 L 556.0343087520833 310.167814044 L 602.6716630145834 310.167814044 L 610.9649200745833 301.874556984 L 610.9649200745833 293.581299924 L 556.0343087520833 293.581299924" stroke-miterlimit="10" stroke-width="1.9745850142857144" stroke-dasharray=""/><text fill="black" stroke="none" font-family="sans-serif" font-size="6.4pt" font-style="normal" font-weight="bold" text-decoration="normal" x="569.8564038520833" y="304.638976004" text-anchor="start" dominant-baseline="alphabetic" xml:space="preserve">loop</text><text fill="black" stroke="none" font-family="sans-serif" font-size="6.4pt" font-style="normal" font-weight="bold" text-decoration="normal" x="624.7870151745833" y="304.638976004" text-anchor="start" dominant-baseline="alphabetic" xml:space="preserve">[for each current Screening]</text></g><g><g/><path fill="none" stroke="black" paint-order="fill stroke markers" d=" M 13.822095099999999 601.814020654 L 369.34985725 601.814020654 L 369.34985725 773.207999894 L 13.822095099999999 773.207999894 L 13.822095099999999 601.814020654 Z" stroke-miterlimit="10" stroke-width="1.9745850142857144" stroke-dasharray=""/><path fill="white" stroke="black" paint-order="fill stroke markers" d=" M 13.822095099999999 601.814020654 L 13.822095099999999 618.400534774 L 60.459449362499996 618.400534774 L 68.7527064225 610.107277714 L 68.7527064225 601.814020654 L 13.822095099999999 601.814020654" stroke-miterlimit="10" stroke-width="1.9745850142857144" stroke-dasharray=""/><text fill="black" stroke="none" font-family="sans-serif" font-size="6.4pt" font-style="normal" font-weight="bold" text-decoration="normal" x="27.644190199999997" y="612.871696734" text-anchor="start" dominant-baseline="alphabetic" xml:space="preserve">loop</text><text fill="black" stroke="none" font-family="sans-serif" font-size="6.4pt" font-style="normal" font-weight="bold" text-decoration="normal" x="82.5748015225" y="612.871696734" text-anchor="start" dominant-baseline="alphabetic" xml:space="preserve">[for every time the mouse is moved]</text></g><g><g/><path fill="none" stroke="black" paint-order="fill stroke markers" d=" M 556.0343087520833 984.686054924 L 1116.4898569916666 984.686054924 L 1116.4898569916666 1078.676301604 L 556.0343087520833 1078.676301604 L 556.0343087520833 984.686054924 Z" stroke-miterlimit="10" stroke-width="1.9745850142857144" stroke-dasharray=""/><path fill="white" stroke="black" paint-order="fill stroke markers" d=" M 556.0343087520833 984.686054924 L 556.0343087520833 1001.272569044 L 636.1931473895834 1001.272569044 L 644.4864044495833 992.979311984 L 644.4864044495833 984.686054924 L 556.0343087520833 984.686054924" stroke-miterlimit="10" stroke-width="1.9745850142857144" stroke-dasharray=""/><text fill="black" stroke="none" font-family="sans-serif" font-size="6.4pt" font-style="normal" font-weight="bold" text-decoration="normal" x="569.8564038520833" y="995.743731004" text-anchor="start" dominant-baseline="alphabetic" xml:space="preserve">expandable-</text><text fill="black" stroke="none" font-family="sans-serif" font-size="6.4pt" font-style="normal" font-weight="bold" text-decoration="normal" x="658.3084995495833" y="995.743731004" text-anchor="start" dominant-baseline="alphabetic" xml:space="preserve">[see diagram 04 - Cancel Screening ACE (sold screening)]</text></g><g><g/><path fill="none" stroke="black" paint-order="fill stroke markers" d=" M 556.0343087520833 1099.409444254 L 1075.2291148041666 1099.409444254 L 1075.2291148041666 1193.3996909339999 L 556.0343087520833 1193.3996909339999 L 556.0343087520833 1099.409444254 Z" stroke-miterlimit="10" stroke-width="1.9745850142857144" stroke-dasharray=""/><path fill="white" stroke="black" paint-order="fill stroke markers" d=" M 556.0343087520833 1099.409444254 L 556.0343087520833 1115.9959583739999 L 636.1931473895834 1115.9959583739999 L 644.4864044495833 1107.702701314 L 644.4864044495833 1099.409444254 L 556.0343087520833 1099.409444254" stroke-miterlimit="10" stroke-width="1.9745850142857144" stroke-dasharray=""/><text fill="black" stroke="none" font-family="sans-serif" font-size="6.4pt" font-style="normal" font-weight="bold" text-decoration="normal" x="569.8564038520833" y="1110.467120334" text-anchor="start" dominant-baseline="alphabetic" xml:space="preserve">expandable-</text><text fill="black" stroke="none" font-family="sans-serif" font-size="6.4pt" font-style="normal" font-weight="bold" text-decoration="normal" x="658.3084995495833" y="1110.467120334" text-anchor="start" dominant-baseline="alphabetic" xml:space="preserve">[see diagram 03 - schedule Screening ECE (double screening)]</text></g><g><g/><path fill="none" stroke="black" paint-order="fill stroke markers" d=" M 556.0343087520833 1214.1328335839999 L 909.2999155854167 1214.1328335839999 L 909.2999155854167 1308.1230802639998 L 556.0343087520833 1308.1230802639998 L 556.0343087520833 1214.1328335839999 Z" stroke-miterlimit="10" stroke-width="1.9745850142857144" stroke-dasharray=""/><path fill="white" stroke="black" paint-order="fill stroke markers" d=" M 556.0343087520833 1214.1328335839999 L 556.0343087520833 1230.7193477039998 L 636.1931473895834 1230.7193477039998 L 644.4864044495833 1222.426090644 L 644.4864044495833 1214.1328335839999 L 556.0343087520833 1214.1328335839999" stroke-miterlimit="10" stroke-width="1.9745850142857144" stroke-dasharray=""/><text fill="black" stroke="none" font-family="sans-serif" font-size="6.4pt" font-style="normal" font-weight="bold" text-decoration="normal" x="569.8564038520833" y="1225.1905096639998" text-anchor="start" dominant-baseline="alphabetic" xml:space="preserve">expandable-</text><text fill="black" stroke="none" font-family="sans-serif" font-size="6.4pt" font-style="normal" font-weight="bold" text-decoration="normal" x="658.3084995495833" y="1225.1905096639998" text-anchor="start" dominant-baseline="alphabetic" xml:space="preserve">[see diagrams 03 - Update Screening ACE (not available)]</text></g><g><g/><path fill="none" stroke="black" paint-order="fill stroke markers" d=" M 556.0343087520833 1751.8123329740006 L 782.1392710541668 1751.8123329740006 L 782.1392710541668 1845.8025796540005 L 556.0343087520833 1845.8025796540005 L 556.0343087520833 1751.8123329740006 Z" stroke-miterlimit="10" stroke-width="1.9745850142857144" stroke-dasharray=""/><path fill="white" stroke="black" paint-order="fill stroke markers" d=" M 556.0343087520833 1751.8123329740006 L 556.0343087520833 1768.3988470940005 L 636.1931473895834 1768.3988470940005 L 644.4864044495833 1760.1055900340007 L 644.4864044495833 1751.8123329740006 L 556.0343087520833 1751.8123329740006" stroke-miterlimit="10" stroke-width="1.9745850142857144" stroke-dasharray=""/><text fill="black" stroke="none" font-family="sans-serif" font-size="6.4pt" font-style="normal" font-weight="bold" text-decoration="normal" x="569.8564038520833" y="1762.8700090540005" text-anchor="start" dominant-baseline="alphabetic" xml:space="preserve">expandable-</text><text fill="black" stroke="none" font-family="sans-serif" font-size="6.4pt" font-style="normal" font-weight="bold" text-decoration="normal" x="658.3084995495833" y="1762.8700090540005" text-anchor="start" dominant-baseline="alphabetic" xml:space="preserve">[see 01 - Display Date BCE]</text></g></g><g/><g/><g/><g/><g/><g/><g/><g/></g></svg>