<svg version="1.1" xmlns="http://www.w3.org/2000/svg" xmlns:xlink="http://www.w3.org/1999/xlink" width="2433" height="2509"><desc>actor%20Staff%0Aboundary%20StaffUI%0A%0Acontrol%20ManagementSystem%0Aparticipant%20Cinema%0Aentity%20Screening%20(current)%0Aentity%20Screening%20(selected)%0Aparticipant%20ScreeningMapper%0Adatabase%20Database%0AStaff-%3EStaffUI%3AmousePressed(x%20%3A%20Integer%2C%20y%20%3A%20Integer)%0Aactivate%20StaffUI%0A%0AStaffUI-%3EStaffUI%3Asn%20%3A%3D%20yToScreen(y%20%3A%20Integer)%0AStaffUI-%3EStaffUI%3Atime%20%3A%3D%20xToTime(x%20%3A%20Integer)%0AStaffUI-%3EManagementSystem%3AselectScreening(sn%20%3A%20String%2C%20time%20%3A%20LocalTime)%0Aactivate%20ManagementSystem%0A%0Aloop%20for%20each%20current%20Screening%0AManagementSystem-%3EScreening%20(current)%3AgetScreenName()%0AManagementSystem-%3EScreening%20(current)%3AgetTime()%0Aend%0AManagementSystem-%3EManagementSystem%3AnotifyObservers()%0AManagementSystem-%3EStaffUI%3Aupdate()%0A%0AManagementSystem--%3EStaffUI%3A%0Adeactivate%20ManagementSystem%0AStaffUI--%3EStaff%3A%0Adeactivate%20StaffUI%0A%0A%0Aloop%20for%20every%20time%20the%20mouse%20is%20moved%0AStaff-%3EStaffUI%3AmouseMoved(x%20%3A%20integer%2C%20y%20%3A%20integer)%0Aactivate%20StaffUI%0AStaffUI-%3EStaffUI%3Aupdate()%0AStaffUI--%3EStaff%3A%0Adeactivate%20StaffUI%0Aend%0A%0AStaff-%3EStaffUI%3AmouseReleased(x%20%3A%20Integer%2C%20y%20%3A%20Integer)%0Aactivate%20StaffUI%0AStaffUI-%3EStaffUI%3Asn%20%3A%3D%20yToScreen(y%20%3A%20Integer)%0AStaffUI-%3EStaffUI%3Atime%20%3A%3D%20xToTime(x%20%3A%20Integer)%0AStaffUI-%3EManagementSystem%3AchangeSelected(time%20%3A%20LocalTime%2C%20sn%20%3A%20ScreenName)%0Aactivate%20ManagementSystem%0A%0Aexpandable-%20see%20diagram%2005%20-%20Update%20Screening%20ACE(1)%20(tickets%20already%20began%20sold%20so%20this%20screening%20cannot%20be%20updated)%0A%20%0AManagementSystem-%3EManagementSystem%3AcheckScreeningSoldTicket()%20%20%20%20%20%20%20%20%20%20%20%20%20%20%20%20%20%20%20%20%20%20%20%20%20%20%20%20%20%20%20%20%20%20%20%20%20%20%20%20%20%20%20%20%20%20%20%20%20%20%20%20%20%20%20%20%20%20%20%20%20%20%20%20%20%20%20%20%20%20%20%20%20%20%20%20%20%20%20%20%20%20%20%20%20%20%20%20%20%20%20%20%20%20%20%20%20%20%20%20%20%20%20%20%20%20%20%20%20%20%20%20%20%20%20%20%20%20%20%20%20%20%20%20%20%20%20%20%20%20%20%20%20%20%20%20%20%20%0Aend%20%0A%0Aexpandable-%20see%20diagrams%2005%20-%20Update%20Screening%20ACE(2)%20(running%20time%20of%20movie%20is%20longer%20than%20scheduled%20screening%20time)%0A%0A%09ManagementSystem-%3EManagementSystem%3AcheckLongerScreening()%20%20%20%20%20%20%20%20%20%20%20%20%20%20%20%20%20%20%20%20%20%20%20%20%20%20%20%20%20%20%20%20%20%20%20%20%20%20%20%20%20%20%20%20%20%20%20%20%20%20%20%20%20%20%20%20%20%20%20%20%20%20%20%20%20%20%20%20%20%20%20%20%20%20%20%20%20%20%20%20%20%20%20%20%20%20%20%20%20%20%20%20%20%20%20%20%20%20%20%20%20%20%20%20%20%20%20%20%20%20%20%20%20%20%20%20%20%20%20%20%20%20%20%20%20%20%20%20%20%20%20%20%20%20%0Aend%20%0Aexpandable-%20see%20diagram%2005%20-%20Update%20Screening%20ECE%20(double%20screening)%0A%0AManagementSystem-%3EManagementSystem%3AcheckDoubleScreening(time%20%3A%20LocalTime%2C%20sn%20%3A%20String%2C%20sg%20%3A%20Screening)%20%20%20%20%0Aend%20%0AManagementSystem-%3ECinema%3Ascreen%20%3A%3D%20getScreen(sn%20%3A%20String)%0AManagementSystem-%3EScreening%20(selected)%3AsetTime(time%20%3A%20LocalTime)%0AManagementSystem-%3EScreening%20(selected)%3AsetScreen(screen%20%3A%20Screen)%0AManagementSystem-%3ECinema%3AupdateScreening(selected%20%3A%20Screening)%0Aactivate%20Cinema%0ACinema-%3EScreeningMapper%3AupdateScreening(sg%20%3A%20Screening)%0Aactivate%20ScreeningMapper%0AScreeningMapper-%3EScreeningMapper%3AperformUpdate(sql%20%3A%20String)%0Aactivate%20ScreeningMapper%0AScreeningMapper-%3EDatabase%3AexecuteUpdate(sql%20%3A%20String)%0AScreeningMapper--%3EScreeningMapper%3A%0Adeactivate%20ScreeningMapper%0AScreeningMapper--%3ECinema%3A%0A%0A%0ACinema--%3EManagementSystem%3A%0Adeactivate%20Cinema%0Aexpandable-%20see%2001%20-%20Display%20Date%20BCE%0AManagementSystem-%3EManagementSystem%3AnotifyObservers()%20%20%20%20%20%20%20%20%20%20%20%20%20%20%20%20%20%20%20%20%0Aend%0AManagementSystem--%3EStaffUI%3A%0Adeactivate%20ManagementSystem%0A%0AStaffUI--%3EStaff%3A%0Adeactivate%20StaffUI%0A</desc><defs/><g><g/><g/><g/><g/><g/><g/><g/><g/><g/><g/><g/><g/><g/><g/><g/><g/><g/><g/><g/><g/><g/><g/><g/><g/><g/><g/><g/><g/><g/><g/><g/><g/><g/><g/><g/><g/><g/><g/><g/><g/><g/><g><rect fill="white" stroke="none" x="0" y="0" width="2433" height="2509"/></g><g/><g><path fill="none" stroke="black" paint-order="fill stroke markers" d=" M 79.1629083 95.699160256 L 79.1629083 2509.288275535999" stroke-miterlimit="10" stroke-width="1.4659797833333332" stroke-dasharray="13.532121076923076,5.863919133333333"/><path fill="none" stroke="black" paint-order="fill stroke markers" d=" M 400.9330673127604 95.699160256 L 400.9330673127604 2509.288275535999" stroke-miterlimit="10" stroke-width="1.4659797833333332" stroke-dasharray="13.532121076923076,5.863919133333333"/><path fill="none" stroke="black" paint-order="fill stroke markers" d=" M 824.8420615684895 95.699160256 L 824.8420615684895 2509.288275535999" stroke-miterlimit="10" stroke-width="1.4659797833333332" stroke-dasharray="13.532121076923076,5.863919133333333"/><path fill="none" stroke="black" paint-order="fill stroke markers" d=" M 1682.070588633073 95.699160256 L 1682.070588633073 2509.288275535999" stroke-miterlimit="10" stroke-width="1.4659797833333332" stroke-dasharray="13.532121076923076,5.863919133333333"/><path fill="none" stroke="black" paint-order="fill stroke markers" d=" M 1811.949109843323 95.699160256 L 1811.949109843323 2509.288275535999" stroke-miterlimit="10" stroke-width="1.4659797833333332" stroke-dasharray="13.532121076923076,5.863919133333333"/><path fill="none" stroke="black" paint-order="fill stroke markers" d=" M 1966.8028377633425 95.699160256 L 1966.8028377633425 2509.288275535999" stroke-miterlimit="10" stroke-width="1.4659797833333332" stroke-dasharray="13.532121076923076,5.863919133333333"/><path fill="none" stroke="black" paint-order="fill stroke markers" d=" M 2136.1194311781824 95.699160256 L 2136.1194311781824 2509.288275535999" stroke-miterlimit="10" stroke-width="1.4659797833333332" stroke-dasharray="13.532121076923076,5.863919133333333"/><path fill="none" stroke="black" paint-order="fill stroke markers" d=" M 2389.44137404231 95.699160256 L 2389.44137404231 2509.288275535999" stroke-miterlimit="10" stroke-width="1.4659797833333332" stroke-dasharray="13.532121076923076,5.863919133333333"/></g><g><g><path fill="white" stroke="black" paint-order="fill stroke markers" d=" M 89.190210018 21.286026454 A 10.027301717999999 10.027301717999999 0 1 1 89.19020500434955 21.27599915395321 M 79.1629083 31.313328172000002 L 79.1629083 52.7752722 M 66.496842972 39.053701428000004 L 91.828973628 39.053701428000004 M 79.1629083 52.7752722 L 66.496842972 72.829875636 M 79.1629083 52.7752722 L 91.828973628 72.829875636" stroke-miterlimit="10" stroke-width="2.990598758" stroke-dasharray=""/></g><g><g/><text fill="black" stroke="none" font-family="sans-serif" font-size="11pt" font-style="normal" font-weight="normal" text-decoration="normal" x="63.321828588085936" y="90.421633036" text-anchor="start" dominant-baseline="alphabetic" xml:space="preserve">Staff</text></g><g><path fill="white" stroke="black" paint-order="fill stroke markers" d=" M 435.85270575176037 45.210816517999994 A 26.123759739 26.123759739 0 1 1 435.8526926898816 45.18469276261494 M 367.5087282527604 17.591757399999995 L 367.5087282527604 72.829875636 M 366.0134288737604 45.210816517999994 L 383.6051862737604 45.210816517999994" stroke-miterlimit="10" stroke-width="2.990598758" stroke-dasharray=""/></g><g><g/><text fill="black" stroke="none" font-family="sans-serif" font-size="11pt" font-style="normal" font-weight="normal" text-decoration="normal" x="377.4649276643229" y="90.421633036" text-anchor="start" dominant-baseline="alphabetic" xml:space="preserve">StaffUI</text></g><g><path fill="white" stroke="black" paint-order="fill stroke markers" d=" M 850.9658213074895 45.210816517999994 A 26.123759739 26.123759739 0 1 1 850.9658082456107 45.18469276261494 M 821.3237100884895 19.087056778999994 L 831.8787645284896 10.291178078999994 M 821.3237100884895 19.087056778999994 L 831.8787645284896 27.882935478999993" stroke-miterlimit="10" stroke-width="2.990598758" stroke-dasharray=""/></g><g><g/><text fill="black" stroke="none" font-family="sans-serif" font-size="11pt" font-style="normal" font-weight="normal" text-decoration="normal" x="752.9200873863606" y="90.421633036" text-anchor="start" dominant-baseline="alphabetic" xml:space="preserve">ManagementSystem</text></g><path fill="none" stroke="none"/><g><path fill="white" stroke="black" paint-order="fill stroke markers" d=" M 1636.5339926695026 48.201415276000006 L 1727.6071845966433 48.201415276000006 L 1727.6071845966433 95.699160256 L 1636.5339926695026 95.699160256 L 1636.5339926695026 48.201415276000006 Z" stroke-miterlimit="10" stroke-width="2.814681184" stroke-dasharray=""/></g><g><g/><text fill="black" stroke="none" font-family="sans-serif" font-size="11pt" font-style="normal" font-weight="normal" text-decoration="normal" x="1655.6210494485026" y="78.107402856" text-anchor="start" dominant-baseline="alphabetic" xml:space="preserve">Cinema</text></g><g><path fill="white" stroke="black" paint-order="fill stroke markers" d=" M 1838.072869582323 42.81833751159999 A 26.123759739 26.123759739 0 1 1 1838.0728565204442 42.792213756214935 M 1784.330050725323 71.334576257 L 1839.568168961323 71.334576257" stroke-miterlimit="10" stroke-width="2.990598758" stroke-dasharray=""/></g><g><g/><text fill="black" stroke="none" font-family="sans-serif" font-size="11pt" font-style="normal" font-weight="normal" text-decoration="normal" x="1745.1989419966433" y="90.421633036" text-anchor="start" dominant-baseline="alphabetic" xml:space="preserve">Screening (current)</text></g><g><path fill="white" stroke="black" paint-order="fill stroke markers" d=" M 1992.9265975023425 42.81833751159999 A 26.123759739 26.123759739 0 1 1 1992.9265844404638 42.792213756214935 M 1939.1837786453425 71.334576257 L 1994.4218968813425 71.334576257" stroke-miterlimit="10" stroke-width="2.990598758" stroke-dasharray=""/></g><g><g/><text fill="black" stroke="none" font-family="sans-serif" font-size="11pt" font-style="normal" font-weight="normal" text-decoration="normal" x="1896.2910350900027" y="90.421633036" text-anchor="start" dominant-baseline="alphabetic" xml:space="preserve">Screening (selected)</text></g><path fill="none" stroke="none"/><g><path fill="white" stroke="black" paint-order="fill stroke markers" d=" M 2054.9063978366826 48.201415276000006 L 2217.3324645196826 48.201415276000006 L 2217.3324645196826 95.699160256 L 2054.9063978366826 95.699160256 L 2054.9063978366826 48.201415276000006 Z" stroke-miterlimit="10" stroke-width="2.814681184" stroke-dasharray=""/></g><g><g/><text fill="black" stroke="none" font-family="sans-serif" font-size="11pt" font-style="normal" font-weight="normal" text-decoration="normal" x="2073.9934546156824" y="78.107402856" text-anchor="start" dominant-baseline="alphabetic" xml:space="preserve">ScreeningMapper</text></g><g><path fill="white" stroke="black" paint-order="fill stroke markers" d=" M 2363.7574082383103 61.219315752 L 2363.7574082383103 24.276625212000003 L 2415.12533984631 24.276625212000003 L 2415.12533984631 61.219315752" stroke-miterlimit="10" stroke-width="2.990598758" stroke-dasharray=""/><path fill="white" stroke="black" paint-order="fill stroke markers" d=" M 2415.12533984631 22.992426921800003 L 2415.1240556587218 23.108530585556366 L 2415.1202032243737 23.224622639043105 L 2415.113782928506 23.34069147315161 L 2415.104795413144 23.45672548109521 L 2415.0932415770308 23.572713059569786 L 2415.07912257554 23.688642609914158 L 2415.0624398205614 23.804502539269897 L 2415.0431949803556 23.920281261740616 L 2415.0213899793907 24.03596719955055 L 2414.9970269981486 24.151548784202323 L 2414.970108472907 24.26701445763379 L 2414.9406370954966 24.382352673373823 L 2414.9086158130303 24.497551897696965 L 2414.8740478276095 24.612600610776788 L 2414.836936596004 24.72748730783785 L 2414.7972858293056 24.84220050030619 L 2414.7550994925587 24.956728716958153 L 2414.7103818043615 25.07106050506751 L 2414.6631372364454 25.18518443155073 L 2414.613370513228 25.299089084110268 L 2414.56108661134 25.412763072375785 L 2414.506290759128 25.526195029043187 L 2414.4489884361324 25.63937361101133 L 2414.3891853725363 25.75228750051633 L 2414.3268875485974 25.86492540626334 L 2414.2621011940455 25.97727606455564 L 2414.194832787462 26.089328240421032 L 2414.125089055632 26.201070728735306 L 2414.0528769728708 26.312492355342748 L 2413.9782037603254 26.423581978173544 L 2413.901076885256 26.53432848835799 L 2413.8215040602854 26.644720811337358 L 2413.739493242629 26.754747907971336 L 2413.6550526333017 26.864398775641956 L 2413.568190676293 26.973662449353824 L 2413.4789160577266 27.08252800283062 L 2413.3872377049897 27.190984549607727 L 2413.2931647858413 27.29902124412083 L 2413.196706707495 27.406627282790524 L 2413.0978731156783 27.513791905102604 L 2412.9966738936682 27.620504394684144 L 2412.893119161302 27.726754080375116 L 2412.787219273967 27.83253033729549 L 2412.678984821564 27.93782258790772 L 2412.568426627447 28.04262030307449 L 2412.4555557473445 28.14691300311161 L 2412.34038346825 28.25069025883599 L 2412.222921307295 28.353941692608544 L 2412.103181010598 28.456656979371925 L 2411.981174552089 28.55882584768306 L 2411.8569141323123 28.660438080740256 L 2411.7304121772063 28.761483517404887 L 2411.6016813368606 28.861952053217486 L 2411.4707344842527 28.961833641408198 L 2411.3375847139578 29.061118293901444 L 2411.202245340843 29.1597960823147 L 2411.064729898732 29.257857138951366 L 2410.925052139055 29.355291657787486 L 2410.7832260294713 29.452089895452378 L 2410.6392657524734 29.54824217220294 L 2410.4931857039696 29.643738872891625 L 2410.345000491843 29.73857044792794 L 2410.1947249344908 29.83272741423341 L 2410.0423740593437 29.92620035618987 L 2409.8879631013624 30.018979926581018 L 2409.731507501514 30.111056847527124 L 2409.5730229052283 30.20242191141283 L 2409.4125251608325 30.293065981807885 L 2409.2500303179672 30.382979994380786 L 2409.0855546259813 30.472154957805202 L 2408.9191145323075 30.560581954659103 L 2408.750726680816 30.648252142316494 L 2408.5804079101517 30.735156753831664 L 2408.40817525205 30.821287098815887 L 2408.234045929633 30.906634564306433 L 2408.0580373556872 30.991190615627882 L 2407.8801671309243 31.074946797245563 L 2407.700453042218 31.15789473361111 L 2407.518913060828 31.24002613000001 L 2407.3355653406 31.321332773341062 L 2407.1504282161545 31.4018065330377 L 2406.9635202010486 31.481439361781 L 2406.774859985929 31.560223296354458 L 2406.5844664366596 31.638150458430268 L 2406.3923585924363 31.715213055357157 L 2406.198555663884 31.791403380939656 L 2406.0030770311337 31.8667138162087 L 2405.805942241886 31.941136830183517 L 2405.607171009455 32.01466498062472 L 2405.4067832107994 32.08729091477856 L 2405.204798884531 32.15900737011212 L 2405.0012382289146 32.22980717503965 L 2404.796121599846 32.29968324963964 L 2404.5894695088177 32.368628606362876 L 2404.3813026208654 32.43663635073112 L 2404.171641752506 32.50369968202662 L 2403.96050786965 32.569811893972144 L 2403.7479220855107 32.63496637540157 L 2403.533905658489 32.69915661092105 L 2403.3184799900496 32.76237618156054 L 2403.10166662258 32.82461876541566 L 2402.8834872372354 32.88587813827987 L 2402.6639636517734 32.94614817426695 L 2402.443117818369 33.005422846423535 L 2402.2209718214217 33.06369622733178 L 2401.9975478753463 33.12096248970218 L 2401.772868322351 33.1772159069562 L 2401.5469556302037 33.232450853798994 L 2401.3198323899855 33.28666180678192 L 2401.091521313832 33.339843344854856 L 2400.862045232659 33.391990149908295 L 2400.631427093884 33.4430970073052 L 2400.3996899591293 33.49315880640242 L 2400.166857001915 33.54217054106175 L 2399.9329515053423 33.590127310150585 L 2399.697996859766 33.637024318031976 L 2399.4620165604556 33.68285687504421 L 2399.225034205244 33.72762039796977 L 2398.9870734921687 33.77131041049369 L 2398.748158217103 33.81392254365112 L 2398.508312271376 33.85545253626423 L 2398.2675596393815 33.8958962353684 L 2398.0259243961827 33.9352495966274 L 2397.783430705102 33.9735086847379 L 2397.540102815307 34.01066967382299 L 2397.295965059383 34.046728847814705 L 2397.0510418509034 34.081682600825715 L 2396.805357681984 34.11552743750983 L 2396.5589371208375 34.1482599734116 L 2396.3118048093143 34.179876935304705 L 2396.0639854604397 34.210375161519295 L 2395.815503855942 34.23975160225818 L 2395.566384843775 34.26800331990176 L 2395.3166533356316 34.295127489301805 L 2395.0663343044553 34.321121398063994 L 2394.8154527819397 34.34598244681909 L 2394.5640338560293 34.36970814948297 L 2394.3121026684057 34.3922961335051 L 2394.0596844119787 34.413744140105926 L 2393.8068043283633 34.43405002450265 L 2393.5534877053574 34.453211756123764 L 2393.299759874412 34.47122741881206 L 2393.0456462080983 34.4880952110163 L 2392.7911721175715 34.5038134459713 L 2392.5363630500287 34.518380551866684 L 2392.2812444861647 34.53179507200398 L 2392.0258419376223 34.54405566494237 L 2391.7701809444447 34.555161104632774 L 2391.514287072517 34.565110280540466 L 2391.258185911014 34.573902197756155 L 2391.001903069838 34.58153597709545 L 2390.74546417706 34.58801085518677 L 2390.488894876355 34.59332618454771 L 2390.2322208244395 34.59748143364976 L 2389.975467688505 34.60047618697147 L 2389.7186611436505 34.60231014504 L 2389.4618268703175 34.60298312446108 L 2389.2049905517183 34.60249505793733 L 2388.9481778712716 34.600845994274984 L 2388.691414510031 34.59803609837904 L 2388.434726144118 34.594065651236754 L 2388.1781384421565 34.58893504988952 L 2387.921677062702 34.5826448073932 L 2387.6653676516794 34.57519555276681 L 2387.4092358398157 34.566588030929594 L 2387.153307240079 34.556823102626566 L 2386.8976074451157 34.545901744342416 L 2386.6421620246924 34.53382504820388 L 2386.386996523138 34.52059422187051 L 2386.1321364567902 34.5062105884139 L 2385.877607311443 34.49067558618542 L 2385.6234345397997 34.47399076867234 L 2385.369643558925 34.45615780434251 L 2385.116259747705 34.4371784764775 L 2384.863308444311 34.41705468299429 L 2384.610814943661 34.395788436255444 L 2384.3588044948956 34.37338186286793 L 2384.10730229885 34.34983720347041 L 2383.856333505533 34.32515681250919 L 2383.605923211616 34.29934315800281 L 2383.3560964579187 34.27239882129521 L 2383.106878226909 34.24432649679761 L 2382.858293440202 34.21512899171906 L 2382.61036695607 34.18480922578574 L 2382.3631235669536 34.15337023094897 L 2382.1165879969863 34.12081515108205 L 2381.870784899519 34.08714724166582 L 2381.625738854658 34.05236986946318 L 2381.3814743668026 34.016486512182354 L 2381.138015862198 33.97950075812918 L 2380.895387686492 33.94141630584823 L 2380.6536141023 33.90223696375301 L 2380.4127192867786 33.86196664974507 L 2380.1727273292095 33.820609390822256 L 2379.9336622285873 33.77816932267599 L 2379.6955478912237 33.734650689277736 L 2379.4584081283538 33.69005784245455 L 2379.222266653756 33.644395241453964 L 2378.987147081381 33.59766745249802 L 2378.7530729229907 33.54987914832668 L 2378.520067585805 33.50103510773054 L 2378.288154370164 33.45114021507295 L 2378.0573564671963 33.40019945980159 L 2377.827696956499 33.34821793594955 L 2377.599198803832 33.29520084162589 L 2377.3718848588214 33.24115347849587 L 2377.1457778526706 33.18608125125075 L 2376.9209003958927 33.12998966706737 L 2376.6972749760453 33.07288433505741 L 2376.474923955485 33.01477096570647 L 2376.253869569128 32.95565537030307 L 2376.034133922228 32.89554346035748 L 2375.815738988168 32.8344412470106 L 2375.598706606259 32.772354840432854 L 2375.383058479558 32.709290449213164 L 2375.1688161726975 32.645254379738084 L 2374.9560011097306 32.580253035561206 L 2374.744634571986 32.514292916762784 L 2374.5347376959407 32.44738061929973 L 2374.326331471108 32.37952283434602 L 2374.1194367379367 32.310726347623614 L 2373.9140741857277 32.24099803872385 L 2373.710264350565 32.17034488041951 L 2373.508027613262 32.09877393796755 L 2373.3073841973246 32.026292368402565 L 2373.1083541669263 31.952907419821116 L 2372.910957424905 31.87862643065691 L 2372.71521371077 31.803456828946963 L 2372.52114259873 31.727406131588797 L 2372.328763495734 31.65048194358878 L 2372.1380956395324 31.572691957301604 L 2371.9491580967515 31.494043951661077 L 2371.7619697609884 31.41454579140222 L 2371.5765493509207 31.334205426274806 L 2371.392915408435 31.25303089024841 L 2371.211086296772 31.171030300708985 L 2371.0310801986916 31.088211857647146 L 2370.852915114654 31.004583842838187 L 2370.676608861019 30.9201546190139 L 2370.5021790682645 30.834932629026305 L 2370.329643179225 30.748926395003394 L 2370.1590184473453 30.662144517496888 L 2369.9903219349567 30.574595674622223 L 2369.8235705115694 30.486288621190724 L 2369.658780852187 30.397232187834156 L 2369.4959694356385 30.307435280121634 L 2369.3351525429293 30.216906877669096 L 2369.1763462556155 30.125656033241356 L 2369.019566454192 30.033691871846806 L 2368.86482881651 29.941023589824955 L 2368.712148816203 29.84766045392678 L 2368.5615417211447 29.753611800388065 L 2368.4130225919184 29.658887033995796 L 2368.2666062803137 29.563495627147667 L 2368.1223074278396 29.467447118904882 L 2367.9801404642612 29.370751114038217 L 2367.840119606156 29.27341728206758 L 2367.7022588554937 29.175455356295057 L 2367.566571998234 29.07687513283159 L 2367.4330726029502 28.977686469617378 L 2367.3017740194696 28.877899285436083 L 2367.172689377542 28.777523558922972 L 2367.0458315855235 28.67656932756704 L 2366.921213329088 28.575046686707307 L 2366.798847069957 28.472965788523247 L 2366.6787450446545 28.37033684101962 L 2366.5609192632833 28.267170107005644 L 2366.4453815083225 28.16347590306875 L 2366.332143333452 28.059264598542924 L 2366.221216062395 27.954546614471777 L 2366.112610787786 27.849332422566448 L 2366.0063383700613 27.743632544158448 L 2365.9024094363754 27.637457549147538 L 2365.8008343795336 27.53081805494474 L 2365.7016233569584 27.423724725410608 L 2365.604786289668 27.316188269788846 L 2365.5103328612895 27.208219441635414 L 2365.4182725170867 27.099829037743145 L 2365.328614463017 26.991027897062104 L 2365.2413676648116 26.881826899615692 L 2365.1565408470774 26.77223696541266 L 2365.074142492425 26.662269053355093 L 2364.994180840622 26.55193416014256 L 2364.9166638877664 26.441243319172447 L 2364.841599385489 26.330207599436594 L 2364.7689948401776 26.218838104414456 L 2364.6988575122264 26.10714597096272 L 2364.6311944153094 25.99514236820166 L 2364.56601231568 25.882838496398215 L 2364.5033177314936 25.770245585845977 L 2364.443116932157 25.657374895742176 L 2364.3854159376992 25.544237713061765 L 2364.330220518172 25.43084535142873 L 2364.2775361930717 25.317209149984738 L 2364.2273682307864 25.203340472255242 L 2364.179721648071 25.08925070501312 L 2364.1346012095432 24.974951257140024 L 2364.09201142721 24.860453558485496 L 2364.0519565600134 24.74576905872398 L 2364.0144406134077 24.630909226209884 L 2363.979467338956 24.515885546830745 L 2363.947040233956 24.40070952285865 L 2363.9171625410922 24.28539267180001 L 2363.889837248108 24.169946525243844 L 2363.8650670875104 24.05438262770859 L 2363.842854536295 23.93871253548771 L 2363.8232018156978 23.82294781549403 L 2363.806110890975 23.707100044103075 L 2363.791583471205 23.591180805995453 L 2363.779621009117 23.47520169299837 L 2363.7702247009474 23.359174302926476 L 2363.76339548632 23.243110238422094 L 2363.7591340481495 23.12702110579495 L 2363.7574408125765 23.01091851386157 L 2363.7583159489236 22.894814072784392 L 2363.7617593696777 22.77871939291077 L 2363.7677707304993 22.66264608361195 L 2363.776349430257 22.546605752122133 L 2363.787494611089 22.430610002377765 L 2363.801205158486 22.314670433857163 L 2363.8174797014044 22.19879864042056 L 2363.8363166124036 22.08300620915074 L 2363.8577140078087 21.967304719194335 L 2363.8816697478974 21.851705740603922 L 2363.9081814371157 21.736220833181036 L 2363.937246424317 21.620861545320174 L 2363.968861803027 21.505639412853995 L 2364.003024411734 21.390565957899724 L 2364.039730834205 21.275652687706962 L 2364.078977399829 21.16091109350697 L 2364.120760183982 21.046352649363552 L 2364.1650750084204 20.93198881102565 L 2364.211917441699 20.817831014781802 L 2364.2612827996127 20.703890676316497 L 2364.3131661456678 20.590179189568637 L 2364.367562291572 20.47670792559213 L 2364.4244657977565 20.36348823141882 L 2364.4838709739183 20.25053142892377 L 2364.545771879589 20.137848813693108 L 2364.61016232473 20.025451653894443 L 2364.67703587035 19.913351189150102 L 2364.7463858291503 19.801558629413137 L 2364.8182052661928 19.69008515384636 L 2364.8924869995935 19.57894190970444 L 2364.9692236012415 19.468140011219166 L 2365.04840739754 19.357690538488054 L 2365.1300304701754 19.24760453636634 L 2365.214084656909 19.13789301336249 L 2365.3005615523916 19.028566940537385 L 2365.389452509006 18.9196372504072 L 2365.4807486377304 18.811114835850173 L 2365.574440809028 18.703010549017325 L 2365.6705196537605 18.595335200247256 L 2365.7689755641222 18.488099556985112 L 2365.869798694605 18.381314342705853 L 2365.9729789629796 18.274990235841926 L 2366.0785060513053 18.169137868715406 L 2366.186369406961 18.063767826474802 L 2366.2965582437014 17.95889064603653 L 2366.4090615427344 17.854516815031236 L 2366.5238680538237 17.750656770755036 L 2366.640966296414 17.647320899125816 L 2366.7603445607783 17.544519533644625 L 2366.8819909091903 17.44226295436234 L 2367.005893177116 17.34056138685168 L 2367.1320389744324 17.239425001184642 L 2367.260415686664 17.13886391091551 L 2367.3910104762476 17.038888172069516 L 2367.523810283812 16.939507782137227 L 2367.6588018294883 16.840732679074826 L 2367.7959716142336 16.742572740310298 L 2367.9353059211835 16.645037781755725 L 2368.076790817024 16.548137556825687 L 2368.2204121533837 16.45188175546192 L 2368.366155568248 16.35628000316435 L 2368.514006487397 16.261341860028544 L 2368.6639501258624 16.167076819789692 L 2368.8159714894045 16.073494308873272 L 2368.9700553760144 15.980603685452383 L 2369.1261863774316 15.888414238511963 L 2369.2843488806857 15.79693518691988 L 2369.4445270696588 15.706175678505064 L 2369.6067049266653 15.61614478914272 L 2369.770866234054 15.526851521846762 L 2369.936994575832 15.438304805869507 L 2370.1050733393026 15.350513495808762 L 2370.2750857167302 15.26348637072238 L 2370.4470147070188 15.177232133250339 L 2370.6208431174123 15.091759408744515 L 2370.7965535652143 15.00707674440613 L 2370.9741284795264 14.923192608431044 L 2371.153550103006 14.840115389162959 L 2371.3348004936397 14.757853394254566 L 2371.517861526539 14.676414849836805 L 2371.702714895754 14.595807899696254 L 2371.889342116102 14.516040604460756 L 2372.077724525015 14.437120940793358 L 2372.267843284411 14.359056800594665 L 2372.459679382571 14.281855990213637 L 2372.6532136360456 14.205526229666987 L 2372.8484266915707 14.130075151867153 L 2373.0452990280037 14.055510301859046 L 2373.243810958275 13.981839136065528 L 2373.443942631356 13.909069021541786 L 2373.645674034248 13.837207235238628 L 2373.848984993977 13.766260963274803 L 2374.053855179617 13.696237300218385 L 2374.2602641043213 13.627143248377326 L 2374.468191127368 13.558985717099231 L 2374.6776154562285 13.491771522080432 L 2374.8885161486446 13.425507384684419 L 2375.1008721147227 13.360199931269712 L 2375.314662119043 13.295855692527226 L 2375.529864782784 13.23248110282722 L 2375.7464585858575 13.170082499575852 L 2375.9644218690646 13.108666122581443 L 2376.183732836258 13.04823811343052 L 2376.404369556524 12.988804514873634 L 2376.6263099663747 12.930371270221118 L 2376.849531871954 12.87294422274874 L 2377.0740129512565 12.816529115113394 L 2377.2997307563624 12.76113158877883 L 2377.526662715679 12.706757183451517 L 2377.754786136199 12.653411336526675 L 2377.984078205771 12.601099382544545 L 2378.214515995379 12.549826552656928 L 2378.446076461436 12.499597974104088 L 2378.6787364480883 12.450418669702023 L 2378.912472689531 12.402293557340188 L 2379.1472618123353 12.35522744948972 L 2379.383080337784 12.309225052722176 L 2379.6199046842216 12.264290967238905 L 2379.8577111694103 12.220429686411006 L 2380.0964760128995 12.17764559633001 L 2380.3361753384047 12.135942975369273 L 2380.5767851761925 12.09532599375614 L 2380.81828146548 12.055798713154925 L 2381.060640056839 12.017365086260746 L 2381.3038367146128 11.980028956404269 L 2381.5478471193383 11.943794057167361 L 2381.7926468701776 11.908664012009755 L 2382.0382114873605 11.874642333906689 L 2382.2845164146297 11.841732424997623 L 2382.5315370216977 11.809937576246021 L 2382.779248606709 11.779260967110266 L 2383.027626398713 11.749705665225706 L 2383.276645560136 11.7212746260979 L 2383.5262811892703 11.693970692807069 L 2383.7765083227605 11.667796595723788 L 2384.027301938102 11.642754952235952 L 2384.2786369561422 11.618848266487047 L 2384.5304882435885 11.59607892912572 L 2384.7828306155225 11.57444921706674 L 2385.035638837917 11.55396129326328 L 2385.288887630161 11.534617206490651 L 2385.542551667585 11.51641889114141 L 2385.796605583998 11.499368167031927 L 2386.0510239742193 11.483466739220404 L 2386.305781396622 11.46871619783637 L 2386.560852375677 11.455118017921672 L 2386.816211404497 11.44267355928297 L 2387.0718329473943 11.431384066355758 L 2387.327691442426 11.421250668079919 L 2387.583761303956 11.412274377786838 L 2387.8400169252127 11.404456093098062 L 2388.096432680846 11.397796595835548 L 2388.352982929495 11.392296551943469 L 2388.609642016348 11.387956511421633 L 2388.8663842757105 11.384776908270476 L 2389.1231840335704 11.382758060447662 L 2389.3800156101665 11.38190016983629 L 2389.636853322554 11.38220332222471 L 2389.893671487177 11.38366748729793 L 2390.150444422432 11.38629251864067 L 2390.4071464512404 11.390078153751977 L 2390.663751903612 11.395024014071499 L 2390.9202351192166 11.40112960501732 L 2391.1765704499458 11.40839431603544 L 2391.4327322624804 11.41681742066081 L 2391.688694940852 11.42639807658998 L 2391.9444328890067 11.437135325765349 L 2392.1999205333627 11.449028094470941 L 2392.4551323253686 11.462075193439802 L 2392.7100427440573 11.476275317972902 L 2392.9646262986 11.491627048069626 L 2393.218857530853 11.508128848569752 L 2393.4727110179047 11.525779069306987 L 2393.7261613746186 11.544575945273964 L 2393.9791832561696 11.564517596798748 L 2394.2317513605813 11.585602029732806 L 2394.4838404312527 11.607827135650416 L 2394.7354252594873 11.631190692059505 L 2394.986480687012 11.655690362623902 L 2395.236981608493 11.68132369739697 L 2395.486902974047 11.708088133066587 L 2395.736219791746 11.735980993211495 L 2395.9849071301155 11.764999488568922 L 2396.232940120629 11.795140717313513 L 2396.4802939601946 11.826401665347511 L 2396.726943913634 11.858779206602165 L 2396.972865316158 11.89227010335033 L 2397.2180335758303 11.92687100653024 L 2397.46242417603 11.962578456080411 L 2397.7060126779 11.999388881285645 L 2397.948774722794 12.037298601134095 L 2398.19068603471 12.076303824685368 L 2398.431722422717 12.116400651449613 L 2398.6718597833783 12.15758507177757 L 2398.9110741031573 12.199852967261522 L 2399.149341460822 12.243200111147148 L 2399.3866380298346 12.28762216875618 L 2399.622940080736 12.333114697919875 L 2399.858223983518 12.379673149423226 L 2400.092466209987 12.427292867459885 L 2400.325643336115 12.47596909009773 L 2400.5577320443836 12.525696949755057 L 2400.788709126116 12.576471473687343 L 2401.018551483796 12.628287584484506 L 2401.247236133379 12.681140100578647 L 2401.4747402065914 12.735023736762198 L 2401.701040953215 12.789933104716448 L 2401.9261157433643 12.845862713550355 L 2402.149942069747 12.902806970349646 L 2402.3724975499176 12.960760180736091 L 2402.593759928513 13.01971654943695 L 2402.8137070794805 13.07967018086448 L 2403.0323170082875 13.140615079705501 L 2403.249567854124 13.202545151520916 L 2403.465437892086 13.265454203355151 L 2403.6799055353495 13.329335944355446 L 2403.8929493373294 13.394183986400938 L 2404.1045479938225 13.459991844741461 L 2404.3146803451395 13.52675293864602 L 2404.523325378221 13.594460592060857 L 2404.730462228737 13.663108034277055 L 2404.936070183175 13.732688400607602 L 2405.140128680912 13.803194733073843 L 2405.3426173162666 13.87461998110129 L 2405.543515840545 13.946957002224657 L 2405.742804164062 14.020198562802118 L 2405.940462358151 14.094337338738645 L 2406.136470657158 14.16936591621843 L 2406.330809460416 14.245276792446244 L 2406.5234593342066 14.322062376397728 L 2406.7144010137026 14.399714989578472 L 2406.9036154048963 14.478226866791868 L 2407.091083586505 14.557590156915623 L 2407.2767868118676 14.637796923686858 L 2407.460706510816 14.718839146495737 L 2407.642824291534 14.800708721187512 L 2407.8231219423947 14.88339746087294 L 2408.001581433783 14.966897096746958 L 2408.178184919899 15.051199278915561 L 2408.352914740542 15.136295577230786 L 2408.525753422874 15.222177482133715 L 2408.6966836831716 15.30883640550542 L 2408.8656884285515 15.396263681525788 L 2409.0327507586794 15.484450567540065 L 2409.197853967462 15.573388244933145 L 2409.3609815447153 15.663067820011399 L 2409.5221171778185 15.753480324892053 L 2409.6812447533416 15.844616718399962 L 2409.8383483586604 15.936467886971723 L 2409.993412283545 16.02902464556702 L 2410.146421021732 16.122277738587123 L 2410.297359272475 16.216217840800443 L 2410.446211942075 16.31083555827504 L 2410.592964145389 16.40612142931802 L 2410.737601207319 16.502065925421675 L 2410.8801086642798 16.59865945221635 L 2411.0204722656435 16.695892350429865 L 2411.1586779751674 16.793754896853418 L 2411.2947119723954 16.892237305313927 L 2411.428560654042 16.991329727652605 L 2411.56021063535 17.091022254709806 L 2411.6896487514305 17.191304917315893 L 2411.8168620585807 17.292167687288174 L 2411.941837835575 17.393600478433708 L 2412.0645635849405 17.495593147557905 L 2412.1850270342047 17.59813549547885 L 2412.3032161371225 17.701217268047195 L 2412.419119074882 17.80482815717159 L 2412.5327242572866 17.90895780184946 L 2412.644020323912 18.01359578920312 L 2412.752996145245 18.118731655521024 L 2412.8596408237945 18.22435488730416 L 2412.96394369518 18.330454922317365 L 2413.0658943292033 18.437021150645553 L 2413.165482530884 18.544042915754694 L 2413.2626983414866 18.65150951555747 L 2413.3575320395103 18.75941020348345 L 2413.449974141664 18.86773418955376 L 2413.5400154038152 18.97647064146006 L 2413.627646821912 19.085608685647777 L 2413.712859632886 19.19513740840344 L 2413.7956453155275 19.305045856946045 L 2413.8759955913365 19.415323040522324 L 2413.9539024253527 19.525957931505822 L 2414.029358026958 19.636939466499637 L 2414.1023548506546 19.74825654744275 L 2414.172885596821 19.859898042719834 L 2414.2409432124414 19.97185278827439 L 2414.306520891811 20.084109588725166 L 2414.3696120772165 20.196657218485658 L 2414.430210459592 20.309484422886683 L 2414.4883099791505 20.422579919301818 L 2414.543904825987 20.535932398275673 L 2414.5969894406635 20.649530524654807 L 2414.6475585147637 20.76336293872125 L 2414.6956069914218 20.877418257328454 L 2414.7411300658296 20.991685075039605 L 2414.7841231857183 21.10615196526815 L 2414.824582051812 21.220807481420458 L 2414.8625026182567 21.33564015804046 L 2414.8978810930284 21.450638511956186 L 2414.9307139383086 21.565791043428078 L 2414.96099787084 21.68108623729895 L 2414.9887298622552 21.796512564145488 L 2415.013907139378 21.9120584814312 L 2415.0365271845008 22.027712434660646 L 2415.056587735639 22.14346285853488 L 2415.0740867867535 22.259298178107972 L 2415.0890225879543 22.375206809944494 L 2415.101393645674 22.491177163277854 L 2415.111198722816 22.60719764116936 L 2415.1184368388813 22.723256641667906 L 2415.123107270065 22.839342558970156 L 2415.125209549327 22.95544378458112 M 2415.12533984631 59.9351174618 L 2415.1240556587218 60.05122112555636 L 2415.1202032243737 60.1673131790431 L 2415.113782928506 60.28338201315161 L 2415.104795413144 60.3994160210952 L 2415.0932415770308 60.51540359956978 L 2415.07912257554 60.631333149914155 L 2415.0624398205614 60.74719307926989 L 2415.0431949803556 60.86297180174061 L 2415.0213899793907 60.97865773955054 L 2414.9970269981486 61.09423932420232 L 2414.970108472907 61.209704997633786 L 2414.9406370954966 61.32504321337382 L 2414.9086158130303 61.44024243769696 L 2414.8740478276095 61.55529115077678 L 2414.836936596004 61.67017784783785 L 2414.7972858293056 61.784891040306185 L 2414.7550994925587 61.89941925695815 L 2414.7103818043615 62.01375104506751 L 2414.6631372364454 62.127874971550725 L 2414.613370513228 62.241779624110265 L 2414.56108661134 62.35545361237578 L 2414.506290759128 62.46888556904318 L 2414.4489884361324 62.58206415101132 L 2414.3891853725363 62.694978040516325 L 2414.3268875485974 62.80761594626333 L 2414.2621011940455 62.91996660455563 L 2414.194832787462 63.032018780421026 L 2414.125089055632 63.1437612687353 L 2414.0528769728708 63.25518289534274 L 2413.9782037603254 63.36627251817354 L 2413.901076885256 63.47701902835799 L 2413.8215040602854 63.58741135133735 L 2413.739493242629 63.69743844797133 L 2413.6550526333017 63.80708931564195 L 2413.568190676293 63.91635298935382 L 2413.4789160577266 64.02521854283061 L 2413.3872377049897 64.13367508960772 L 2413.2931647858413 64.24171178412082 L 2413.196706707495 64.34931782279051 L 2413.0978731156783 64.4564824451026 L 2412.9966738936682 64.56319493468413 L 2412.893119161302 64.66944462037512 L 2412.787219273967 64.77522087729548 L 2412.678984821564 64.88051312790772 L 2412.568426627447 64.98531084307449 L 2412.4555557473445 65.08960354311161 L 2412.34038346825 65.19338079883599 L 2412.222921307295 65.29663223260853 L 2412.103181010598 65.39934751937191 L 2411.981174552089 65.50151638768305 L 2411.8569141323123 65.60312862074025 L 2411.7304121772063 65.70417405740488 L 2411.6016813368606 65.80464259321748 L 2411.4707344842527 65.90452418140819 L 2411.3375847139578 66.00380883390143 L 2411.202245340843 66.1024866223147 L 2411.064729898732 66.20054767895135 L 2410.925052139055 66.29798219778748 L 2410.7832260294713 66.39478043545238 L 2410.6392657524734 66.49093271220293 L 2410.4931857039696 66.58642941289162 L 2410.345000491843 66.68126098792794 L 2410.1947249344908 66.7754179542334 L 2410.0423740593437 66.86889089618987 L 2409.8879631013624 66.96167046658101 L 2409.731507501514 67.05374738752711 L 2409.5730229052283 67.14511245141283 L 2409.4125251608325 67.23575652180789 L 2409.2500303179672 67.32567053438078 L 2409.0855546259813 67.4148454978052 L 2408.9191145323075 67.5032724946591 L 2408.750726680816 67.59094268231648 L 2408.5804079101517 67.67784729383166 L 2408.40817525205 67.76397763881587 L 2408.234045929633 67.84932510430643 L 2408.0580373556872 67.93388115562787 L 2407.8801671309243 68.01763733724556 L 2407.700453042218 68.1005852736111 L 2407.518913060828 68.18271667 L 2407.3355653406 68.26402331334106 L 2407.1504282161545 68.34449707303769 L 2406.9635202010486 68.42412990178099 L 2406.774859985929 68.50291383635445 L 2406.5844664366596 68.58084099843026 L 2406.3923585924363 68.65790359535715 L 2406.198555663884 68.73409392093966 L 2406.0030770311337 68.80940435620869 L 2405.805942241886 68.88382737018351 L 2405.607171009455 68.95735552062472 L 2405.4067832107994 69.02998145477855 L 2405.204798884531 69.10169791011212 L 2405.0012382289146 69.17249771503964 L 2404.796121599846 69.24237378963963 L 2404.5894695088177 69.31131914636286 L 2404.3813026208654 69.37932689073111 L 2404.171641752506 69.44639022202662 L 2403.96050786965 69.51250243397213 L 2403.7479220855107 69.57765691540156 L 2403.533905658489 69.64184715092105 L 2403.3184799900496 69.70506672156054 L 2403.10166662258 69.76730930541565 L 2402.8834872372354 69.82856867827986 L 2402.6639636517734 69.88883871426695 L 2402.443117818369 69.94811338642353 L 2402.2209718214217 70.00638676733178 L 2401.9975478753463 70.06365302970217 L 2401.772868322351 70.1199064469562 L 2401.5469556302037 70.175141393799 L 2401.3198323899855 70.22935234678192 L 2401.091521313832 70.28253388485484 L 2400.862045232659 70.33468068990828 L 2400.631427093884 70.3857875473052 L 2400.3996899591293 70.4358493464024 L 2400.166857001915 70.48486108106175 L 2399.9329515053423 70.53281785015058 L 2399.697996859766 70.57971485803196 L 2399.4620165604556 70.6255474150442 L 2399.225034205244 70.67031093796977 L 2398.9870734921687 70.71400095049368 L 2398.748158217103 70.7566130836511 L 2398.508312271376 70.79814307626422 L 2398.2675596393815 70.83858677536838 L 2398.0259243961827 70.87794013662739 L 2397.783430705102 70.9161992247379 L 2397.540102815307 70.95336021382298 L 2397.295965059383 70.9894193878147 L 2397.0510418509034 71.0243731408257 L 2396.805357681984 71.05821797750983 L 2396.5589371208375 71.0909505134116 L 2396.3118048093143 71.12256747530469 L 2396.0639854604397 71.1530657015193 L 2395.815503855942 71.18244214225817 L 2395.566384843775 71.21069385990175 L 2395.3166533356316 71.2378180293018 L 2395.0663343044553 71.26381193806398 L 2394.8154527819397 71.2886729868191 L 2394.5640338560293 71.31239868948296 L 2394.3121026684057 71.3349866735051 L 2394.0596844119787 71.35643468010592 L 2393.8068043283633 71.37674056450265 L 2393.5534877053574 71.39590229612375 L 2393.299759874412 71.41391795881206 L 2393.0456462080983 71.43078575101629 L 2392.7911721175715 71.4465039859713 L 2392.5363630500287 71.46107109186667 L 2392.2812444861647 71.47448561200397 L 2392.0258419376223 71.48674620494236 L 2391.7701809444447 71.49785164463276 L 2391.514287072517 71.50780082054045 L 2391.258185911014 71.51659273775616 L 2391.001903069838 71.52422651709544 L 2390.74546417706 71.53070139518677 L 2390.488894876355 71.53601672454771 L 2390.2322208244395 71.54017197364975 L 2389.975467688505 71.54316672697146 L 2389.7186611436505 71.54500068504 L 2389.4618268703175 71.54567366446108 L 2389.2049905517183 71.54518559793732 L 2388.9481778712716 71.54353653427498 L 2388.691414510031 71.54072663837904 L 2388.434726144118 71.53675619123675 L 2388.1781384421565 71.53162558988952 L 2387.921677062702 71.5253353473932 L 2387.6653676516794 71.5178860927668 L 2387.4092358398157 71.50927857092958 L 2387.153307240079 71.49951364262655 L 2386.8976074451157 71.48859228434242 L 2386.6421620246924 71.47651558820388 L 2386.386996523138 71.4632847618705 L 2386.1321364567902 71.4489011284139 L 2385.877607311443 71.4333661261854 L 2385.6234345397997 71.41668130867232 L 2385.369643558925 71.3988483443425 L 2385.116259747705 71.3798690164775 L 2384.863308444311 71.35974522299428 L 2384.610814943661 71.33847897625544 L 2384.3588044948956 71.31607240286793 L 2384.10730229885 71.2925277434704 L 2383.856333505533 71.26784735250918 L 2383.605923211616 71.24203369800281 L 2383.3560964579187 71.21508936129521 L 2383.106878226909 71.18701703679761 L 2382.858293440202 71.15781953171906 L 2382.61036695607 71.12749976578573 L 2382.3631235669536 71.09606077094897 L 2382.1165879969863 71.06350569108204 L 2381.870784899519 71.02983778166582 L 2381.625738854658 70.99506040946316 L 2381.3814743668026 70.95917705218234 L 2381.138015862198 70.92219129812916 L 2380.895387686492 70.88410684584822 L 2380.6536141023 70.844927503753 L 2380.4127192867786 70.80465718974506 L 2380.1727273292095 70.76329993082226 L 2379.9336622285873 70.720859862676 L 2379.6955478912237 70.67734122927773 L 2379.4584081283538 70.63274838245455 L 2379.222266653756 70.58708578145396 L 2378.987147081381 70.54035799249802 L 2378.7530729229907 70.49256968832668 L 2378.520067585805 70.44372564773053 L 2378.288154370164 70.39383075507294 L 2378.0573564671963 70.34288999980159 L 2377.827696956499 70.29090847594955 L 2377.599198803832 70.23789138162589 L 2377.3718848588214 70.18384401849586 L 2377.1457778526706 70.12877179125074 L 2376.9209003958927 70.07268020706736 L 2376.6972749760453 70.0155748750574 L 2376.474923955485 69.95746150570646 L 2376.253869569128 69.89834591030306 L 2376.034133922228 69.83823400035747 L 2375.815738988168 69.7771317870106 L 2375.598706606259 69.71504538043285 L 2375.383058479558 69.65198098921316 L 2375.1688161726975 69.58794491973808 L 2374.9560011097306 69.5229435755612 L 2374.744634571986 69.45698345676277 L 2374.5347376959407 69.39007115929972 L 2374.326331471108 69.32221337434602 L 2374.1194367379367 69.25341688762362 L 2373.9140741857277 69.18368857872385 L 2373.710264350565 69.11303542041951 L 2373.508027613262 69.04146447796754 L 2373.3073841973246 68.96898290840255 L 2373.1083541669263 68.89559795982112 L 2372.910957424905 68.82131697065691 L 2372.71521371077 68.74614736894696 L 2372.52114259873 68.6700966715888 L 2372.328763495734 68.59317248358877 L 2372.1380956395324 68.5153824973016 L 2371.9491580967515 68.43673449166107 L 2371.7619697609884 68.3572363314022 L 2371.5765493509207 68.27689596627481 L 2371.392915408435 68.19572143024841 L 2371.211086296772 68.11372084070898 L 2371.0310801986916 68.03090239764714 L 2370.852915114654 67.94727438283817 L 2370.676608861019 67.86284515901389 L 2370.5021790682645 67.7776231690263 L 2370.329643179225 67.69161693500338 L 2370.1590184473453 67.60483505749689 L 2369.9903219349567 67.51728621462222 L 2369.8235705115694 67.42897916119072 L 2369.658780852187 67.33992272783415 L 2369.4959694356385 67.25012582012162 L 2369.3351525429293 67.15959741766909 L 2369.1763462556155 67.06834657324134 L 2369.019566454192 66.9763824118468 L 2368.86482881651 66.88371412982495 L 2368.712148816203 66.79035099392678 L 2368.5615417211447 66.69630234038806 L 2368.4130225919184 66.60157757399578 L 2368.2666062803137 66.50618616714766 L 2368.1223074278396 66.41013765890487 L 2367.9801404642612 66.31344165403821 L 2367.840119606156 66.21610782206757 L 2367.7022588554937 66.11814589629505 L 2367.566571998234 66.01956567283159 L 2367.4330726029502 65.92037700961737 L 2367.3017740194696 65.82058982543607 L 2367.172689377542 65.72021409892297 L 2367.0458315855235 65.61925986756704 L 2366.921213329088 65.5177372267073 L 2366.798847069957 65.41565632852324 L 2366.6787450446545 65.31302738101961 L 2366.5609192632833 65.20986064700564 L 2366.4453815083225 65.10616644306874 L 2366.332143333452 65.00195513854293 L 2366.221216062395 64.89723715447177 L 2366.112610787786 64.79202296256643 L 2366.0063383700613 64.68632308415845 L 2365.9024094363754 64.58014808914753 L 2365.8008343795336 64.47350859494473 L 2365.7016233569584 64.3664152654106 L 2365.604786289668 64.25887880978884 L 2365.5103328612895 64.15090998163541 L 2365.4182725170867 64.04251957774314 L 2365.328614463017 63.9337184370621 L 2365.2413676648116 63.82451743961569 L 2365.1565408470774 63.71492750541265 L 2365.074142492425 63.60495959335508 L 2364.994180840622 63.49462470014256 L 2364.9166638877664 63.38393385917244 L 2364.841599385489 63.272898139436585 L 2364.7689948401776 63.161528644414446 L 2364.6988575122264 63.04983651096271 L 2364.6311944153094 62.937832908201656 L 2364.56601231568 62.82552903639821 L 2364.5033177314936 62.71293612584597 L 2364.443116932157 62.600065435742174 L 2364.3854159376992 62.486928253061755 L 2364.330220518172 62.37353589142872 L 2364.2775361930717 62.259899689984735 L 2364.2273682307864 62.146031012255236 L 2364.179721648071 62.031941245013115 L 2364.1346012095432 61.91764179714002 L 2364.09201142721 61.80314409848549 L 2364.0519565600134 61.68845959872397 L 2364.0144406134077 61.57359976620988 L 2363.979467338956 61.45857608683074 L 2363.947040233956 61.34340006285864 L 2363.9171625410922 61.228083211800005 L 2363.889837248108 61.11263706524384 L 2363.8650670875104 60.997073167708585 L 2363.842854536295 60.881403075487704 L 2363.8232018156978 60.765638355494026 L 2363.806110890975 60.64979058410307 L 2363.791583471205 60.53387134599544 L 2363.779621009117 60.41789223299836 L 2363.7702247009474 60.30186484292647 L 2363.76339548632 60.185800778422085 L 2363.7591340481495 60.069711645794946 L 2363.7574408125765 59.95360905386156" stroke-miterlimit="10" stroke-width="2.990598758" stroke-dasharray=""/></g><g><g/><text fill="black" stroke="none" font-family="sans-serif" font-size="11pt" font-style="normal" font-weight="normal" text-decoration="normal" x="2356.8429624822516" y="90.421633036" text-anchor="start" dominant-baseline="alphabetic" xml:space="preserve">Database</text></g></g><g><path fill="white" stroke="black" paint-order="fill stroke markers" d=" M 392.1371886127604 153.751959676 L 409.7289460127604 153.751959676 L 409.7289460127604 739.5574810960001 L 392.1371886127604 739.5574810960001 L 392.1371886127604 153.751959676" stroke-miterlimit="10" stroke-width="1.4659797833333332" stroke-dasharray=""/><path fill="white" stroke="black" paint-order="fill stroke markers" d=" M 816.0461828684895 347.261291076 L 833.6379402684895 347.261291076 L 833.6379402684895 690.300560376 L 816.0461828684895 690.300560376 L 816.0461828684895 347.261291076" stroke-miterlimit="10" stroke-width="1.4659797833333332" stroke-dasharray=""/><path fill="white" stroke="black" paint-order="fill stroke markers" d=" M 392.1371886127604 836.3121467960001 L 409.7289460127604 836.3121467960001 L 409.7289460127604 957.6952728560001 L 392.1371886127604 957.6952728560001 L 392.1371886127604 836.3121467960001" stroke-miterlimit="10" stroke-width="1.4659797833333332" stroke-dasharray=""/><path fill="white" stroke="black" paint-order="fill stroke markers" d=" M 392.1371886127604 1033.3398296760001 L 409.7289460127604 1033.3398296760001 L 409.7289460127604 2447.7171246359994 L 392.1371886127604 2447.7171246359994 L 392.1371886127604 1033.3398296760001" stroke-miterlimit="10" stroke-width="1.4659797833333332" stroke-dasharray=""/><path fill="white" stroke="black" paint-order="fill stroke markers" d=" M 816.0461828684895 1226.8491610760002 L 833.6379402684895 1226.8491610760002 L 833.6379402684895 2398.4602039159995 L 816.0461828684895 2398.4602039159995 L 816.0461828684895 1226.8491610760002" stroke-miterlimit="10" stroke-width="1.4659797833333332" stroke-dasharray=""/><path fill="white" stroke="black" paint-order="fill stroke markers" d=" M 1673.274709933073 1861.9116032160002 L 1690.866467333073 1861.9116032160002 L 1690.866467333073 2203.191696776 L 1673.274709933073 2203.191696776 L 1673.274709933073 1861.9116032160002" stroke-miterlimit="10" stroke-width="1.4659797833333332" stroke-dasharray=""/><path fill="white" stroke="black" paint-order="fill stroke markers" d=" M 2127.3235524781826 1911.1685239360002 L 2144.915309878182 1911.1685239360002 L 2144.915309878182 2491.696518135999 L 2127.3235524781826 2491.696518135999 L 2127.3235524781826 1911.1685239360002" stroke-miterlimit="10" stroke-width="1.4659797833333332" stroke-dasharray=""/><path fill="white" stroke="black" paint-order="fill stroke markers" d=" M 2136.1194311781824 1983.2947292760002 L 2153.711188578182 1983.2947292760002 L 2153.711188578182 2081.808570716 L 2136.1194311781824 2081.808570716 L 2136.1194311781824 1983.2947292760002" stroke-miterlimit="10" stroke-width="1.4659797833333332" stroke-dasharray=""/><g><g><rect fill="white" stroke="none" x="104.13156988055987" y="130.882675056" width="263.03695715164065" height="22.86928462"/></g><text fill="black" stroke="none" font-family="sans-serif" font-size="11pt" font-style="normal" font-weight="normal" text-decoration="normal" x="106.77033349055986" y="146.71525671600003" text-anchor="start" dominant-baseline="alphabetic" xml:space="preserve">mousePressed(x : Integer, y : Integer)</text></g><g><path fill="none" stroke="black" paint-order="fill stroke markers" d=" M 79.1629083 153.751959676 L 377.65330835342706 153.751959676" stroke-miterlimit="10" stroke-width="1.4659797833333332" stroke-dasharray=""/><g transform="translate(392.1371886127604,153.751959676) translate(-392.1371886127604,-153.751959676)"><path fill="black" stroke="none" paint-order="stroke fill markers" d=" M 377.477390779427 146.42206075933333 L 392.1371886127604 153.751959676 L 377.477390779427 161.0818585926667 Z"/></g></g><g><g><rect fill="white" stroke="none" x="430.54585893609374" y="180.13959577600002" width="194.94821203445312" height="22.86928462"/></g><text fill="black" stroke="none" font-family="sans-serif" font-size="11pt" font-style="normal" font-weight="normal" text-decoration="normal" x="433.18462254609375" y="195.97217743600004" text-anchor="start" dominant-baseline="alphabetic" xml:space="preserve">sn := yToScreen(y : Integer)</text></g><g><path fill="none" stroke="black" paint-order="fill stroke markers" d=" M 409.7289460127604 203.00888039600002 L 480.0959756127604 203.00888039600002 L 480.0959756127604 225.87816501600003 L 424.2128262720937 225.87816501600003" stroke-miterlimit="10" stroke-width="1.4659797833333332" stroke-dasharray=""/><g transform="translate(409.7289460127604,225.87816501600003) translate(-409.7289460127604,-225.87816501600003)"><path fill="black" stroke="none" paint-order="stroke fill markers" d=" M 424.38874384609375 218.54826609933335 L 409.7289460127604 225.87816501600003 L 424.38874384609375 233.2080639326667 Z"/></g></g><g><g><rect fill="white" stroke="none" x="430.54585893609374" y="252.26580111600003" width="197.37484777664062" height="22.86928462"/></g><text fill="black" stroke="none" font-family="sans-serif" font-size="11pt" font-style="normal" font-weight="normal" text-decoration="normal" x="433.18462254609375" y="268.09838277600005" text-anchor="start" dominant-baseline="alphabetic" xml:space="preserve">time := xToTime(x : Integer)</text></g><g><path fill="none" stroke="black" paint-order="fill stroke markers" d=" M 409.7289460127604 275.13508573600006 L 480.0959756127604 275.13508573600006 L 480.0959756127604 298.00437035600004 L 424.2128262720937 298.00437035600004" stroke-miterlimit="10" stroke-width="1.4659797833333332" stroke-dasharray=""/><g transform="translate(409.7289460127604,298.00437035600004) translate(-409.7289460127604,-298.00437035600004)"><path fill="black" stroke="none" paint-order="stroke fill markers" d=" M 424.38874384609375 290.6744714393334 L 409.7289460127604 298.00437035600004 L 424.38874384609375 305.3342692726667 Z"/></g></g><g><g><rect fill="white" stroke="none" x="454.9947114751562" y="324.39200645600005" width="315.7857059309375" height="22.86928462"/></g><text fill="black" stroke="none" font-family="sans-serif" font-size="11pt" font-style="normal" font-weight="normal" text-decoration="normal" x="457.6334750851562" y="340.22458811600006" text-anchor="start" dominant-baseline="alphabetic" xml:space="preserve">selectScreening(sn : String, time : LocalTime)</text></g><g><path fill="none" stroke="black" paint-order="fill stroke markers" d=" M 409.7289460127604 347.261291076 L 801.5623026091562 347.261291076" stroke-miterlimit="10" stroke-width="1.4659797833333332" stroke-dasharray=""/><g transform="translate(816.0461828684895,347.261291076) translate(-816.0461828684895,-347.261291076)"><path fill="black" stroke="none" paint-order="stroke fill markers" d=" M 801.3863850351562 339.93139215933337 L 816.0461828684895 347.261291076 L 801.3863850351562 354.59118999266667 Z"/></g></g><g><g><rect fill="white" stroke="none" x="1259.2062980059648" y="421.146672156" width="127.17445409988281" height="22.86928462"/></g><text fill="black" stroke="none" font-family="sans-serif" font-size="11pt" font-style="normal" font-weight="normal" text-decoration="normal" x="1261.8450616159648" y="436.97925381600004" text-anchor="start" dominant-baseline="alphabetic" xml:space="preserve">getScreenName()</text></g><g><path fill="none" stroke="black" paint-order="fill stroke markers" d=" M 833.6379402684895 444.015956776 L 1797.4652295839896 444.015956776" stroke-miterlimit="10" stroke-width="1.4659797833333332" stroke-dasharray=""/><g transform="translate(1811.949109843323,444.015956776) translate(-1811.949109843323,-444.015956776)"><path fill="black" stroke="none" paint-order="stroke fill markers" d=" M 1797.2893120099895 436.68605785933335 L 1811.949109843323 444.015956776 L 1797.2893120099895 451.34585569266665 Z"/></g></g><g><g><rect fill="white" stroke="none" x="1286.5004950884843" y="470.403592876" width="72.58605993484375" height="22.86928462"/></g><text fill="black" stroke="none" font-family="sans-serif" font-size="11pt" font-style="normal" font-weight="normal" text-decoration="normal" x="1289.1392586984844" y="486.236174536" text-anchor="start" dominant-baseline="alphabetic" xml:space="preserve">getTime()</text></g><g><path fill="none" stroke="black" paint-order="fill stroke markers" d=" M 833.6379402684895 493.272877496 L 1797.4652295839896 493.272877496" stroke-miterlimit="10" stroke-width="1.4659797833333332" stroke-dasharray=""/><g transform="translate(1811.949109843323,493.272877496) translate(-1811.949109843323,-493.272877496)"><path fill="black" stroke="none" paint-order="stroke fill markers" d=" M 1797.2893120099895 485.9429785793333 L 1811.949109843323 493.272877496 L 1797.2893120099895 500.6027764126666 Z"/></g></g><g><g><rect fill="white" stroke="none" x="854.4548531918228" y="546.048149696" width="126.94535864089843" height="22.86928462"/></g><text fill="black" stroke="none" font-family="sans-serif" font-size="11pt" font-style="normal" font-weight="normal" text-decoration="normal" x="857.0936168018228" y="561.880731356" text-anchor="start" dominant-baseline="alphabetic" xml:space="preserve">notifyObservers()</text></g><g><path fill="none" stroke="black" paint-order="fill stroke markers" d=" M 833.6379402684895 568.9174343159999 L 904.0049698684895 568.9174343159999 L 904.0049698684895 591.7867189359999 L 848.1218205278228 591.7867189359999" stroke-miterlimit="10" stroke-width="1.4659797833333332" stroke-dasharray=""/><g transform="translate(833.6379402684895,591.7867189359999) translate(-833.6379402684895,-591.7867189359999)"><path fill="black" stroke="none" paint-order="stroke fill markers" d=" M 848.2977381018228 584.4568200193332 L 833.6379402684895 591.7867189359999 L 848.2977381018228 599.1166178526666 Z"/></g></g><g><g><rect fill="white" stroke="none" x="580.585241870664" y="618.174355036" width="64.60464513992187" height="22.86928462"/></g><text fill="black" stroke="none" font-family="sans-serif" font-size="11pt" font-style="normal" font-weight="normal" text-decoration="normal" x="583.224005480664" y="634.0069366959999" text-anchor="start" dominant-baseline="alphabetic" xml:space="preserve">update()</text></g><g><path fill="none" stroke="black" paint-order="fill stroke markers" d=" M 816.0461828684895 641.043639656 L 424.2128262720937 641.043639656" stroke-miterlimit="10" stroke-width="1.4659797833333332" stroke-dasharray=""/><g transform="translate(409.7289460127604,641.043639656) translate(-409.7289460127604,-641.043639656)"><path fill="black" stroke="none" paint-order="stroke fill markers" d=" M 424.38874384609375 633.7137407393333 L 409.7289460127604 641.043639656 L 424.38874384609375 648.3735385726667 Z"/></g></g><g><g><rect fill="white" stroke="none" x="610.248800830625" y="667.431275756" width="5.27752722" height="22.86928462"/></g><text fill="black" stroke="none" font-family="sans-serif" font-size="11pt" font-style="normal" font-weight="normal" text-decoration="normal" x="612.8875644406249" y="683.263857416" text-anchor="start" dominant-baseline="alphabetic" xml:space="preserve"></text></g><g><path fill="none" stroke="black" paint-order="fill stroke markers" d=" M 816.0461828684895 690.300560376 L 424.2128262720937 690.300560376" stroke-miterlimit="10" stroke-width="1.4659797833333332" stroke-dasharray="7.0367029599999995"/><g transform="translate(409.7289460127604,690.300560376) translate(-409.7289460127604,-690.300560376)"><path fill="black" stroke="none" paint-order="stroke fill markers" d=" M 424.38874384609375 682.9706614593333 L 409.7289460127604 690.300560376 L 424.38874384609375 697.6304592926667 Z"/></g></g><g><g><rect fill="white" stroke="none" x="233.01128484638016" y="716.688196476" width="5.27752722" height="22.86928462"/></g><text fill="black" stroke="none" font-family="sans-serif" font-size="11pt" font-style="normal" font-weight="normal" text-decoration="normal" x="235.65004845638018" y="732.520778136" text-anchor="start" dominant-baseline="alphabetic" xml:space="preserve"></text></g><g><path fill="none" stroke="black" paint-order="fill stroke markers" d=" M 392.1371886127604 739.5574810960001 L 93.64678855933333 739.5574810960001" stroke-miterlimit="10" stroke-width="1.4659797833333332" stroke-dasharray="7.0367029599999995"/><g transform="translate(79.1629083,739.5574810960001) translate(-79.1629083,-739.5574810960001)"><path fill="black" stroke="none" paint-order="stroke fill markers" d=" M 93.82270613333333 732.2275821793334 L 79.1629083 739.5574810960001 L 93.82270613333333 746.8873800126668 Z"/></g></g><g><g><rect fill="white" stroke="none" x="107.04135991962237" y="813.4428621760001" width="257.21737707351565" height="22.86928462"/></g><text fill="black" stroke="none" font-family="sans-serif" font-size="11pt" font-style="normal" font-weight="normal" text-decoration="normal" x="109.68012352962236" y="829.275443836" text-anchor="start" dominant-baseline="alphabetic" xml:space="preserve">mouseMoved(x : integer, y : integer)</text></g><g><path fill="none" stroke="black" paint-order="fill stroke markers" d=" M 79.1629083 836.3121467960001 L 377.65330835342706 836.3121467960001" stroke-miterlimit="10" stroke-width="1.4659797833333332" stroke-dasharray=""/><g transform="translate(392.1371886127604,836.3121467960001) translate(-392.1371886127604,-836.3121467960001)"><path fill="black" stroke="none" paint-order="stroke fill markers" d=" M 377.477390779427 828.9822478793334 L 392.1371886127604 836.3121467960001 L 377.477390779427 843.6420457126668 Z"/></g></g><g><g><rect fill="white" stroke="none" x="430.54585893609374" y="862.6997828960001" width="64.60464513992187" height="22.86928462"/></g><text fill="black" stroke="none" font-family="sans-serif" font-size="11pt" font-style="normal" font-weight="normal" text-decoration="normal" x="433.18462254609375" y="878.5323645560001" text-anchor="start" dominant-baseline="alphabetic" xml:space="preserve">update()</text></g><g><path fill="none" stroke="black" paint-order="fill stroke markers" d=" M 409.7289460127604 885.569067516 L 480.0959756127604 885.569067516 L 480.0959756127604 908.438352136 L 424.2128262720937 908.438352136" stroke-miterlimit="10" stroke-width="1.4659797833333332" stroke-dasharray=""/><g transform="translate(409.7289460127604,908.438352136) translate(-409.7289460127604,-908.438352136)"><path fill="black" stroke="none" paint-order="stroke fill markers" d=" M 424.38874384609375 901.1084532193333 L 409.7289460127604 908.438352136 L 424.38874384609375 915.7682510526668 Z"/></g></g><g><g><rect fill="white" stroke="none" x="233.01128484638016" y="934.8259882360001" width="5.27752722" height="22.86928462"/></g><text fill="black" stroke="none" font-family="sans-serif" font-size="11pt" font-style="normal" font-weight="normal" text-decoration="normal" x="235.65004845638018" y="950.658569896" text-anchor="start" dominant-baseline="alphabetic" xml:space="preserve"></text></g><g><path fill="none" stroke="black" paint-order="fill stroke markers" d=" M 392.1371886127604 957.6952728560001 L 93.64678855933333 957.6952728560001" stroke-miterlimit="10" stroke-width="1.4659797833333332" stroke-dasharray="7.0367029599999995"/><g transform="translate(79.1629083,957.6952728560001) translate(-79.1629083,-957.6952728560001)"><path fill="black" stroke="none" paint-order="stroke fill markers" d=" M 93.82270613333333 950.3653739393334 L 79.1629083 957.6952728560001 L 93.82270613333333 965.0251717726668 Z"/></g></g><g><g><rect fill="white" stroke="none" x="99.9798212233333" y="1010.4705450560001" width="271.3404544660938" height="22.86928462"/></g><text fill="black" stroke="none" font-family="sans-serif" font-size="11pt" font-style="normal" font-weight="normal" text-decoration="normal" x="102.6185848333333" y="1026.303126716" text-anchor="start" dominant-baseline="alphabetic" xml:space="preserve">mouseReleased(x : Integer, y : Integer)</text></g><g><path fill="none" stroke="black" paint-order="fill stroke markers" d=" M 79.1629083 1033.3398296760001 L 377.65330835342706 1033.3398296760001" stroke-miterlimit="10" stroke-width="1.4659797833333332" stroke-dasharray=""/><g transform="translate(392.1371886127604,1033.3398296760001) translate(-392.1371886127604,-1033.3398296760001)"><path fill="black" stroke="none" paint-order="stroke fill markers" d=" M 377.477390779427 1026.0099307593334 L 392.1371886127604 1033.3398296760001 L 377.477390779427 1040.6697285926668 Z"/></g></g><g><g><rect fill="white" stroke="none" x="430.54585893609374" y="1059.7274657760001" width="194.94821203445312" height="22.86928462"/></g><text fill="black" stroke="none" font-family="sans-serif" font-size="11pt" font-style="normal" font-weight="normal" text-decoration="normal" x="433.18462254609375" y="1075.560047436" text-anchor="start" dominant-baseline="alphabetic" xml:space="preserve">sn := yToScreen(y : Integer)</text></g><g><path fill="none" stroke="black" paint-order="fill stroke markers" d=" M 409.7289460127604 1082.5967503960003 L 480.0959756127604 1082.5967503960003 L 480.0959756127604 1105.4660350160002 L 424.2128262720937 1105.4660350160002" stroke-miterlimit="10" stroke-width="1.4659797833333332" stroke-dasharray=""/><g transform="translate(409.7289460127604,1105.4660350160002) translate(-409.7289460127604,-1105.4660350160002)"><path fill="black" stroke="none" paint-order="stroke fill markers" d=" M 424.38874384609375 1098.1361360993335 L 409.7289460127604 1105.4660350160002 L 424.38874384609375 1112.795933932667 Z"/></g></g><g><g><rect fill="white" stroke="none" x="430.54585893609374" y="1131.8536711160002" width="197.37484777664062" height="22.86928462"/></g><text fill="black" stroke="none" font-family="sans-serif" font-size="11pt" font-style="normal" font-weight="normal" text-decoration="normal" x="433.18462254609375" y="1147.6862527760002" text-anchor="start" dominant-baseline="alphabetic" xml:space="preserve">time := xToTime(x : Integer)</text></g><g><path fill="none" stroke="black" paint-order="fill stroke markers" d=" M 409.7289460127604 1154.7229557360004 L 480.0959756127604 1154.7229557360004 L 480.0959756127604 1177.5922403560003 L 424.2128262720937 1177.5922403560003" stroke-miterlimit="10" stroke-width="1.4659797833333332" stroke-dasharray=""/><g transform="translate(409.7289460127604,1177.5922403560003) translate(-409.7289460127604,-1177.5922403560003)"><path fill="black" stroke="none" paint-order="stroke fill markers" d=" M 424.38874384609375 1170.2623414393336 L 409.7289460127604 1177.5922403560003 L 424.38874384609375 1184.922139272667 Z"/></g></g><g><g><rect fill="white" stroke="none" x="430.5458589360937" y="1203.9798764560003" width="364.6834110090625" height="22.86928462"/></g><text fill="black" stroke="none" font-family="sans-serif" font-size="11pt" font-style="normal" font-weight="normal" text-decoration="normal" x="433.1846225460937" y="1219.8124581160002" text-anchor="start" dominant-baseline="alphabetic" xml:space="preserve">changeSelected(time : LocalTime, sn : ScreenName)</text></g><g><path fill="none" stroke="black" paint-order="fill stroke markers" d=" M 409.7289460127604 1226.8491610760002 L 801.5623026091562 1226.8491610760002" stroke-miterlimit="10" stroke-width="1.4659797833333332" stroke-dasharray=""/><g transform="translate(816.0461828684895,1226.8491610760002) translate(-816.0461828684895,-1226.8491610760002)"><path fill="black" stroke="none" paint-order="stroke fill markers" d=" M 801.3863850351562 1219.5192621593335 L 816.0461828684895 1226.8491610760002 L 801.3863850351562 1234.179059992667 Z"/></g></g><g><g><rect fill="white" stroke="none" x="854.4548531918228" y="1300.734542156" width="795.07098425125" height="22.86928462"/></g><text fill="black" stroke="none" font-family="sans-serif" font-size="11pt" font-style="normal" font-weight="normal" text-decoration="normal" x="857.0936168018228" y="1316.567123816" text-anchor="start" dominant-baseline="alphabetic" xml:space="preserve">checkScreeningSoldTicket()                                                                                                                                          </text></g><g><path fill="none" stroke="black" paint-order="fill stroke markers" d=" M 833.6379402684895 1323.6038267760002 L 904.0049698684895 1323.6038267760002 L 904.0049698684895 1346.4731113960001 L 848.1218205278228 1346.4731113960001" stroke-miterlimit="10" stroke-width="1.4659797833333332" stroke-dasharray=""/><g transform="translate(833.6379402684895,1346.4731113960001) translate(-833.6379402684895,-1346.4731113960001)"><path fill="black" stroke="none" paint-order="stroke fill markers" d=" M 848.2977381018228 1339.1432124793334 L 833.6379402684895 1346.4731113960001 L 848.2977381018228 1353.8030103126669 Z"/></g></g><g><g><rect fill="white" stroke="none" x="854.4548531918228" y="1446.7461285760003" width="754.7271121809375" height="22.86928462"/></g><text fill="black" stroke="none" font-family="sans-serif" font-size="11pt" font-style="normal" font-weight="normal" text-decoration="normal" x="857.0936168018228" y="1462.5787102360002" text-anchor="start" dominant-baseline="alphabetic" xml:space="preserve">checkLongerScreening()                                                                                                                                      </text></g><g><path fill="none" stroke="black" paint-order="fill stroke markers" d=" M 833.6379402684895 1469.6154131960004 L 904.0049698684895 1469.6154131960004 L 904.0049698684895 1492.4846978160003 L 848.1218205278228 1492.4846978160003" stroke-miterlimit="10" stroke-width="1.4659797833333332" stroke-dasharray=""/><g transform="translate(833.6379402684895,1492.4846978160003) translate(-833.6379402684895,-1492.4846978160003)"><path fill="black" stroke="none" paint-order="stroke fill markers" d=" M 848.2977381018228 1485.1547988993336 L 833.6379402684895 1492.4846978160003 L 848.2977381018228 1499.814596732667 Z"/></g></g><g><g><rect fill="white" stroke="none" x="854.4548531918228" y="1592.7577149960005" width="489.5509036848438" height="22.86928462"/></g><text fill="black" stroke="none" font-family="sans-serif" font-size="11pt" font-style="normal" font-weight="normal" text-decoration="normal" x="857.0936168018228" y="1608.5902966560004" text-anchor="start" dominant-baseline="alphabetic" xml:space="preserve">checkDoubleScreening(time : LocalTime, sn : String, sg : Screening)    </text></g><g><path fill="none" stroke="black" paint-order="fill stroke markers" d=" M 833.6379402684895 1615.6269996160006 L 904.0049698684895 1615.6269996160006 L 904.0049698684895 1638.4962842360005 L 848.1218205278228 1638.4962842360005" stroke-miterlimit="10" stroke-width="1.4659797833333332" stroke-dasharray=""/><g transform="translate(833.6379402684895,1638.4962842360005) translate(-833.6379402684895,-1638.4962842360005)"><path fill="black" stroke="none" paint-order="stroke fill markers" d=" M 848.2977381018228 1631.1663853193338 L 833.6379402684895 1638.4962842360005 L 848.2977381018228 1645.8261831526672 Z"/></g></g><g><g><rect fill="white" stroke="none" x="1146.4932642074803" y="1691.2715564360005" width="222.72200048660156" height="22.86928462"/></g><text fill="black" stroke="none" font-family="sans-serif" font-size="11pt" font-style="normal" font-weight="normal" text-decoration="normal" x="1149.1320278174803" y="1707.1041380960005" text-anchor="start" dominant-baseline="alphabetic" xml:space="preserve">screen := getScreen(sn : String)</text></g><g><path fill="none" stroke="black" paint-order="fill stroke markers" d=" M 833.6379402684895 1714.1408410560005 L 1667.5867083737396 1714.1408410560005" stroke-miterlimit="10" stroke-width="1.4659797833333332" stroke-dasharray=""/><g transform="translate(1682.070588633073,1714.1408410560005) translate(-1682.070588633073,-1714.1408410560005)"><path fill="black" stroke="none" paint-order="stroke fill markers" d=" M 1667.4107907997395 1706.8109421393337 L 1682.070588633073 1714.1408410560005 L 1667.4107907997395 1721.4707399726672 Z"/></g></g><g><g><rect fill="white" stroke="none" x="1308.1328033844316" y="1740.5284771560005" width="184.17517126296875" height="22.86928462"/></g><text fill="black" stroke="none" font-family="sans-serif" font-size="11pt" font-style="normal" font-weight="normal" text-decoration="normal" x="1310.7715669944316" y="1756.3610588160004" text-anchor="start" dominant-baseline="alphabetic" xml:space="preserve">setTime(time : LocalTime)</text></g><g><path fill="none" stroke="black" paint-order="fill stroke markers" d=" M 833.6379402684895 1763.3977617760004 L 1952.3189575040092 1763.3977617760004" stroke-miterlimit="10" stroke-width="1.4659797833333332" stroke-dasharray=""/><g transform="translate(1966.8028377633425,1763.3977617760004) translate(-1966.8028377633425,-1763.3977617760004)"><path fill="black" stroke="none" paint-order="stroke fill markers" d=" M 1952.143039930009 1756.0678628593337 L 1966.8028377633425 1763.3977617760004 L 1952.143039930009 1770.727660692667 Z"/></g></g><g><g><rect fill="white" stroke="none" x="1306.8300384918534" y="1789.7853978760004" width="186.780701048125" height="22.86928462"/></g><text fill="black" stroke="none" font-family="sans-serif" font-size="11pt" font-style="normal" font-weight="normal" text-decoration="normal" x="1309.4688021018535" y="1805.6179795360003" text-anchor="start" dominant-baseline="alphabetic" xml:space="preserve">setScreen(screen : Screen)</text></g><g><path fill="none" stroke="black" paint-order="fill stroke markers" d=" M 833.6379402684895 1812.6546824960003 L 1952.3189575040092 1812.6546824960003" stroke-miterlimit="10" stroke-width="1.4659797833333332" stroke-dasharray=""/><g transform="translate(1966.8028377633425,1812.6546824960003) translate(-1966.8028377633425,-1812.6546824960003)"><path fill="black" stroke="none" paint-order="stroke fill markers" d=" M 1952.143039930009 1805.3247835793336 L 1966.8028377633425 1812.6546824960003 L 1952.143039930009 1819.984581412667 Z"/></g></g><g><g><rect fill="white" stroke="none" x="1117.0129960610936" y="1839.0423185960003" width="272.886658079375" height="22.86928462"/></g><text fill="black" stroke="none" font-family="sans-serif" font-size="11pt" font-style="normal" font-weight="normal" text-decoration="normal" x="1119.6517596710937" y="1854.8749002560003" text-anchor="start" dominant-baseline="alphabetic" xml:space="preserve">updateScreening(selected : Screening)</text></g><g><path fill="none" stroke="black" paint-order="fill stroke markers" d=" M 833.6379402684895 1861.9116032160002 L 1658.7908296737396 1861.9116032160002" stroke-miterlimit="10" stroke-width="1.4659797833333332" stroke-dasharray=""/><g transform="translate(1673.274709933073,1861.9116032160002) translate(-1673.274709933073,-1861.9116032160002)"><path fill="black" stroke="none" paint-order="stroke fill markers" d=" M 1658.6149120997395 1854.5817042993335 L 1673.274709933073 1861.9116032160002 L 1658.6149120997395 1869.241502132667 Z"/></g></g><g><g><rect fill="white" stroke="none" x="1793.4247674137916" y="1888.2992393160002" width="231.34048498367187" height="22.86928462"/></g><text fill="black" stroke="none" font-family="sans-serif" font-size="11pt" font-style="normal" font-weight="normal" text-decoration="normal" x="1796.0635310237917" y="1904.1318209760002" text-anchor="start" dominant-baseline="alphabetic" xml:space="preserve">updateScreening(sg : Screening)</text></g><g><path fill="none" stroke="black" paint-order="fill stroke markers" d=" M 1690.866467333073 1911.1685239360002 L 2112.839672218849 1911.1685239360002" stroke-miterlimit="10" stroke-width="1.4659797833333332" stroke-dasharray=""/><g transform="translate(2127.3235524781826,1911.1685239360002) translate(-2127.3235524781826,-1911.1685239360002)"><path fill="black" stroke="none" paint-order="stroke fill markers" d=" M 2112.663754644849 1903.8386250193334 L 2127.3235524781826 1911.1685239360002 L 2112.663754644849 1918.4984228526669 Z"/></g></g><g><g><rect fill="white" stroke="none" x="2174.5281015015157" y="1937.5561600360002" width="197.3963016340625" height="22.86928462"/></g><text fill="black" stroke="none" font-family="sans-serif" font-size="11pt" font-style="normal" font-weight="normal" text-decoration="normal" x="2177.1668651115156" y="1953.3887416960001" text-anchor="start" dominant-baseline="alphabetic" xml:space="preserve">performUpdate(sql : String)</text></g><g><path fill="none" stroke="black" paint-order="fill stroke markers" d=" M 2144.915309878182 1960.4254446560003 L 2224.0782181781824 1960.4254446560003 L 2224.0782181781824 1983.2947292760002 L 2168.195068837516 1983.2947292760002" stroke-miterlimit="10" stroke-width="1.4659797833333332" stroke-dasharray=""/><g transform="translate(2153.7111885781824,1983.2947292760002) translate(-2153.7111885781824,-1983.2947292760002)"><path fill="black" stroke="none" paint-order="stroke fill markers" d=" M 2168.370986411516 1975.9648303593335 L 2153.7111885781824 1983.2947292760002 L 2168.370986411516 1990.624628192667 Z"/></g></g><g><g><rect fill="white" stroke="none" x="2174.528101501516" y="2009.6823653760002" width="194.09635961746093" height="22.86928462"/></g><text fill="black" stroke="none" font-family="sans-serif" font-size="11pt" font-style="normal" font-weight="normal" text-decoration="normal" x="2177.166865111516" y="2025.5149470360002" text-anchor="start" dominant-baseline="alphabetic" xml:space="preserve">executeUpdate(sql : String)</text></g><g><path fill="none" stroke="black" paint-order="fill stroke markers" d=" M 2153.7111885781824 2032.5516499960002 L 2374.9574937829766 2032.5516499960002" stroke-miterlimit="10" stroke-width="1.4659797833333332" stroke-dasharray=""/><g transform="translate(2389.44137404231,2032.5516499960002) translate(-2389.44137404231,-2032.5516499960002)"><path fill="black" stroke="none" paint-order="stroke fill markers" d=" M 2374.7815762089767 2025.2217510793334 L 2389.44137404231 2032.5516499960002 L 2374.7815762089767 2039.8815489126669 Z"/></g></g><g><g><rect fill="white" stroke="none" x="2174.5281015015157" y="2058.939286096" width="5.27752722" height="22.86928462"/></g><text fill="black" stroke="none" font-family="sans-serif" font-size="11pt" font-style="normal" font-weight="normal" text-decoration="normal" x="2177.1668651115156" y="2074.771867756" text-anchor="start" dominant-baseline="alphabetic" xml:space="preserve"></text></g><g><path fill="none" stroke="black" paint-order="fill stroke markers" d=" M 2153.7111885781824 2081.808570716 L 2224.0782181781824 2081.808570716 L 2224.0782181781824 2104.677855336 L 2159.399190137516 2104.677855336" stroke-miterlimit="10" stroke-width="1.4659797833333332" stroke-dasharray="7.0367029599999995"/><g transform="translate(2144.9153098781826,2104.677855336) translate(-2144.9153098781826,-2104.677855336)"><path fill="black" stroke="none" paint-order="stroke fill markers" d=" M 2159.575107711516 2097.3479564193335 L 2144.9153098781826 2104.677855336 L 2159.575107711516 2112.0077542526665 Z"/></g></g><g><g><rect fill="white" stroke="none" x="1906.4562462956276" y="2131.065491436" width="5.27752722" height="22.86928462"/></g><text fill="black" stroke="none" font-family="sans-serif" font-size="11pt" font-style="normal" font-weight="normal" text-decoration="normal" x="1909.0950099056276" y="2146.8980730959997" text-anchor="start" dominant-baseline="alphabetic" xml:space="preserve"></text></g><g><path fill="none" stroke="black" paint-order="fill stroke markers" d=" M 2127.3235524781826 2153.934776056 L 1705.3503475924063 2153.934776056" stroke-miterlimit="10" stroke-width="1.4659797833333332" stroke-dasharray="7.0367029599999995"/><g transform="translate(1690.866467333073,2153.934776056) translate(-1690.866467333073,-2153.934776056)"><path fill="black" stroke="none" paint-order="stroke fill markers" d=" M 1705.5262651664063 2146.6048771393334 L 1690.866467333073 2153.934776056 L 1705.5262651664063 2161.2646749726664 Z"/></g></g><g><g><rect fill="white" stroke="none" x="1250.8175614907811" y="2180.3224121559997" width="5.27752722" height="22.86928462"/></g><text fill="black" stroke="none" font-family="sans-serif" font-size="11pt" font-style="normal" font-weight="normal" text-decoration="normal" x="1253.4563251007812" y="2196.1549938159997" text-anchor="start" dominant-baseline="alphabetic" xml:space="preserve"></text></g><g><path fill="none" stroke="black" paint-order="fill stroke markers" d=" M 1673.274709933073 2203.191696776 L 848.1218205278228 2203.191696776" stroke-miterlimit="10" stroke-width="1.4659797833333332" stroke-dasharray="7.0367029599999995"/><g transform="translate(833.6379402684895,2203.191696776) translate(-833.6379402684895,-2203.191696776)"><path fill="black" stroke="none" paint-order="stroke fill markers" d=" M 848.2977381018228 2195.8617978593334 L 833.6379402684895 2203.191696776 L 848.2977381018228 2210.5215956926663 Z"/></g></g><g><g><rect fill="white" stroke="none" x="854.4548531918228" y="2277.077077856" width="213.70256078933593" height="22.86928462"/></g><text fill="black" stroke="none" font-family="sans-serif" font-size="11pt" font-style="normal" font-weight="normal" text-decoration="normal" x="857.0936168018228" y="2292.909659516" text-anchor="start" dominant-baseline="alphabetic" xml:space="preserve">notifyObservers()                    </text></g><g><path fill="none" stroke="black" paint-order="fill stroke markers" d=" M 833.6379402684895 2299.9463624759996 L 904.0049698684895 2299.9463624759996 L 904.0049698684895 2322.815647096 L 848.1218205278228 2322.815647096" stroke-miterlimit="10" stroke-width="1.4659797833333332" stroke-dasharray=""/><g transform="translate(833.6379402684895,2322.815647096) translate(-833.6379402684895,-2322.815647096)"><path fill="black" stroke="none" paint-order="stroke fill markers" d=" M 848.2977381018228 2315.4857481793333 L 833.6379402684895 2322.815647096 L 848.2977381018228 2330.1455460126663 Z"/></g></g><g><g><rect fill="white" stroke="none" x="610.248800830625" y="2375.5909192959994" width="5.27752722" height="22.86928462"/></g><text fill="black" stroke="none" font-family="sans-serif" font-size="11pt" font-style="normal" font-weight="normal" text-decoration="normal" x="612.8875644406249" y="2391.4235009559993" text-anchor="start" dominant-baseline="alphabetic" xml:space="preserve"></text></g><g><path fill="none" stroke="black" paint-order="fill stroke markers" d=" M 816.0461828684895 2398.4602039159995 L 424.2128262720937 2398.4602039159995" stroke-miterlimit="10" stroke-width="1.4659797833333332" stroke-dasharray="7.0367029599999995"/><g transform="translate(409.7289460127604,2398.4602039159995) translate(-409.7289460127604,-2398.4602039159995)"><path fill="black" stroke="none" paint-order="stroke fill markers" d=" M 424.38874384609375 2391.130304999333 L 409.7289460127604 2398.4602039159995 L 424.38874384609375 2405.790102832666 Z"/></g></g><g><g><rect fill="white" stroke="none" x="233.01128484638016" y="2424.8478400159993" width="5.27752722" height="22.86928462"/></g><text fill="black" stroke="none" font-family="sans-serif" font-size="11pt" font-style="normal" font-weight="normal" text-decoration="normal" x="235.65004845638018" y="2440.6804216759992" text-anchor="start" dominant-baseline="alphabetic" xml:space="preserve"></text></g><g><path fill="none" stroke="black" paint-order="fill stroke markers" d=" M 392.1371886127604 2447.7171246359994 L 93.64678855933333 2447.7171246359994" stroke-miterlimit="10" stroke-width="1.4659797833333332" stroke-dasharray="7.0367029599999995"/><g transform="translate(79.1629083,2447.7171246359994) translate(-79.1629083,-2447.7171246359994)"><path fill="black" stroke="none" paint-order="stroke fill markers" d=" M 93.82270613333333 2440.387225719333 L 79.1629083 2447.7171246359994 L 93.82270613333333 2455.047023552666 Z"/></g></g><g><g/><path fill="none" stroke="black" paint-order="fill stroke markers" d=" M 763.2709106684895 373.64892717600003 L 1873.520260743323 373.64892717600003 L 1873.520260743323 519.660513596 L 763.2709106684895 519.660513596 L 763.2709106684895 373.64892717600003 Z" stroke-miterlimit="10" stroke-width="2.5131082" stroke-dasharray=""/><path fill="white" stroke="black" paint-order="fill stroke markers" d=" M 763.2709106684895 373.64892717600003 L 763.2709106684895 394.759036056 L 825.1561924362629 394.759036056 L 835.711246876263 384.203981616 L 835.711246876263 373.64892717600003 L 763.2709106684895 373.64892717600003" stroke-miterlimit="10" stroke-width="2.5131082" stroke-dasharray=""/><text fill="black" stroke="none" font-family="sans-serif" font-size="8.8pt" font-style="normal" font-weight="bold" text-decoration="normal" x="780.8626680684895" y="387.722333096" text-anchor="start" dominant-baseline="alphabetic" xml:space="preserve">loop</text><text fill="black" stroke="none" font-family="sans-serif" font-size="8.8pt" font-style="normal" font-weight="bold" text-decoration="normal" x="853.303004276263" y="387.722333096" text-anchor="start" dominant-baseline="alphabetic" xml:space="preserve">[for each current Screening]</text></g><g><g/><path fill="none" stroke="black" paint-order="fill stroke markers" d=" M 17.591757400000006 765.9451171960001 L 501.30761916601557 765.9451171960001 L 501.30761916601557 984.0829089560001 L 17.591757400000006 984.0829089560001 L 17.591757400000006 765.9451171960001 Z" stroke-miterlimit="10" stroke-width="2.5131082" stroke-dasharray=""/><path fill="white" stroke="black" paint-order="fill stroke markers" d=" M 17.591757400000006 765.9451171960001 L 17.591757400000006 787.055226076 L 79.47703916777344 787.055226076 L 90.03209360777345 776.5001716360001 L 90.03209360777345 765.9451171960001 L 17.591757400000006 765.9451171960001" stroke-miterlimit="10" stroke-width="2.5131082" stroke-dasharray=""/><text fill="black" stroke="none" font-family="sans-serif" font-size="8.8pt" font-style="normal" font-weight="bold" text-decoration="normal" x="35.183514800000005" y="780.0185231160001" text-anchor="start" dominant-baseline="alphabetic" xml:space="preserve">loop</text><text fill="black" stroke="none" font-family="sans-serif" font-size="8.8pt" font-style="normal" font-weight="bold" text-decoration="normal" x="107.62385100777345" y="780.0185231160001" text-anchor="start" dominant-baseline="alphabetic" xml:space="preserve">[for every time the mouse is moved]</text></g><g><g/><path fill="none" stroke="black" paint-order="fill stroke markers" d=" M 763.2709106684895 1253.236797176 L 1655.682952533073 1253.236797176 L 1655.682952533073 1372.8607474960002 L 763.2709106684895 1372.8607474960002 L 763.2709106684895 1253.236797176 Z" stroke-miterlimit="10" stroke-width="2.5131082" stroke-dasharray=""/><path fill="white" stroke="black" paint-order="fill stroke markers" d=" M 763.2709106684895 1253.236797176 L 763.2709106684895 1274.346906056 L 871.9959446335286 1274.346906056 L 882.5509990735286 1263.791851616 L 882.5509990735286 1253.236797176 L 763.2709106684895 1253.236797176" stroke-miterlimit="10" stroke-width="2.5131082" stroke-dasharray=""/><text fill="black" stroke="none" font-family="sans-serif" font-size="8.8pt" font-style="normal" font-weight="bold" text-decoration="normal" x="780.8626680684895" y="1267.3102030960001" text-anchor="start" dominant-baseline="alphabetic" xml:space="preserve">expandable-</text><text fill="black" stroke="none" font-family="sans-serif" font-size="8.8pt" font-style="normal" font-weight="bold" text-decoration="normal" x="900.1427564735286" y="1267.3102030960001" text-anchor="start" dominant-baseline="alphabetic" xml:space="preserve">[see diagram 05 - Update Screening ACE(1) (tickets already began sold so this screening cannot be updated)]</text></g><g><g/><path fill="none" stroke="black" paint-order="fill stroke markers" d=" M 763.2709106684895 1399.2483835960002 L 1615.3390804627604 1399.2483835960002 L 1615.3390804627604 1518.8723339160003 L 763.2709106684895 1518.8723339160003 L 763.2709106684895 1399.2483835960002 Z" stroke-miterlimit="10" stroke-width="2.5131082" stroke-dasharray=""/><path fill="white" stroke="black" paint-order="fill stroke markers" d=" M 763.2709106684895 1399.2483835960002 L 763.2709106684895 1420.3584924760003 L 871.9959446335286 1420.3584924760003 L 882.5509990735286 1409.8034380360002 L 882.5509990735286 1399.2483835960002 L 763.2709106684895 1399.2483835960002" stroke-miterlimit="10" stroke-width="2.5131082" stroke-dasharray=""/><text fill="black" stroke="none" font-family="sans-serif" font-size="8.8pt" font-style="normal" font-weight="bold" text-decoration="normal" x="780.8626680684895" y="1413.3217895160003" text-anchor="start" dominant-baseline="alphabetic" xml:space="preserve">expandable-</text><text fill="black" stroke="none" font-family="sans-serif" font-size="8.8pt" font-style="normal" font-weight="bold" text-decoration="normal" x="900.1427564735286" y="1413.3217895160003" text-anchor="start" dominant-baseline="alphabetic" xml:space="preserve">[see diagrams 05 - Update Screening ACE(2) (running time of movie is longer than scheduled screening time)]</text></g><g><g/><path fill="none" stroke="black" paint-order="fill stroke markers" d=" M 763.2709106684895 1545.2599700160004 L 1350.1628719666667 1545.2599700160004 L 1350.1628719666667 1664.8839203360005 L 763.2709106684895 1664.8839203360005 L 763.2709106684895 1545.2599700160004 Z" stroke-miterlimit="10" stroke-width="2.5131082" stroke-dasharray=""/><path fill="white" stroke="black" paint-order="fill stroke markers" d=" M 763.2709106684895 1545.2599700160004 L 763.2709106684895 1566.3700788960005 L 871.9959446335286 1566.3700788960005 L 882.5509990735286 1555.8150244560004 L 882.5509990735286 1545.2599700160004 L 763.2709106684895 1545.2599700160004" stroke-miterlimit="10" stroke-width="2.5131082" stroke-dasharray=""/><text fill="black" stroke="none" font-family="sans-serif" font-size="8.8pt" font-style="normal" font-weight="bold" text-decoration="normal" x="780.8626680684895" y="1559.3333759360005" text-anchor="start" dominant-baseline="alphabetic" xml:space="preserve">expandable-</text><text fill="black" stroke="none" font-family="sans-serif" font-size="8.8pt" font-style="normal" font-weight="bold" text-decoration="normal" x="900.1427564735286" y="1559.3333759360005" text-anchor="start" dominant-baseline="alphabetic" xml:space="preserve">[see diagram 05 - Update Screening ECE (double screening)]</text></g><g><g/><path fill="none" stroke="black" paint-order="fill stroke markers" d=" M 763.2709106684895 2229.5793328759996 L 1074.3145290711589 2229.5793328759996 L 1074.3145290711589 2349.2032831959996 L 763.2709106684895 2349.2032831959996 L 763.2709106684895 2229.5793328759996 Z" stroke-miterlimit="10" stroke-width="2.5131082" stroke-dasharray=""/><path fill="white" stroke="black" paint-order="fill stroke markers" d=" M 763.2709106684895 2229.5793328759996 L 763.2709106684895 2250.6894417559997 L 871.9959446335286 2250.6894417559997 L 882.5509990735286 2240.1343873159994 L 882.5509990735286 2229.5793328759996 L 763.2709106684895 2229.5793328759996" stroke-miterlimit="10" stroke-width="2.5131082" stroke-dasharray=""/><text fill="black" stroke="none" font-family="sans-serif" font-size="8.8pt" font-style="normal" font-weight="bold" text-decoration="normal" x="780.8626680684895" y="2243.6527387959995" text-anchor="start" dominant-baseline="alphabetic" xml:space="preserve">expandable-</text><text fill="black" stroke="none" font-family="sans-serif" font-size="8.8pt" font-style="normal" font-weight="bold" text-decoration="normal" x="900.1427564735286" y="2243.6527387959995" text-anchor="start" dominant-baseline="alphabetic" xml:space="preserve">[see 01 - Display Date BCE]</text></g></g><g/><g/><g/><g/><g/><g/><g/><g/></g></svg>