<svg version="1.1" xmlns="http://www.w3.org/2000/svg" xmlns:xlink="http://www.w3.org/1999/xlink" width="2175" height="2228"><desc>actor%20Staff%0Aboundary%20TicketDialog%0Aboundary%20StaffUI%0A%0Acontrol%20ManagementSystem%0Aparticipant%20Cinema%0Aentity%20Screening%20(current)%0Aentity%20Screening%20(selected)%0Aentity%20%22sc%20%3A%20Screen%22%20as%20sc%0Aparticipant%20ScreeningMapper%0Adatabase%20Database%0AStaff-%3EStaffUI%3AmousePressed(x%20%3A%20Integer%2C%20y%20%3A%20Integer)%0Aactivate%20StaffUI%0A%0AStaffUI-%3EStaffUI%3Asn%20%3A%3D%20yToScreen(y%20%3A%20Integer)%0AStaffUI-%3EStaffUI%3Atime%20%3A%3D%20xToTime(x%20%3A%20Integer)%0AStaffUI-%3EManagementSystem%3AselectScreening(sn%20%3A%20String%2C%20time%20%3A%20LocalTime)%0Aactivate%20ManagementSystem%0A%0Aloop%20for%20each%20current%20Screening%0AManagementSystem-%3EScreening%20(current)%3AgetScreenName()%0AManagementSystem-%3EScreening%20(current)%3AgetTime()%0Aend%0AManagementSystem-%3EManagementSystem%3AnotifyObservers()%0AManagementSystem-%3EStaffUI%3Aupdate()%0A%0AManagementSystem--%3EStaffUI%3A%0Adeactivate%20ManagementSystem%0AStaffUI--%3EStaff%3A%0Adeactivate%20StaffUI%0A%0AStaff-%3EStaffUI%3AsellTickets()%0Aactivate%20StaffUI%0A%0AStaffUI-%3E*TicketDialog%3ATicketDialog()%0Aactivate%20TicketDialog%0ATicketDialog--%3EStaffUI%3A%0Adeactivate%20TicketDialog%0A%0AStaffUI-%3ETicketDialog%3AshowAndWait()%0Aactivate%20TicketDialog%0ATicketDialog-%3EStaff%3A%0AStaff--%3ETicketDialog%3A%0ATicketDialog--%3EStaffUI%3Areturn%20tn%20%3A%20TicketNumber%0Adeactivate%20TicketDialog%0A%0AStaffUI-%3EManagementSystem%3AsellTickets(tn%20%3A%20int%2C%20sg%20%3A%20Screening)%0Aactivate%20ManagementSystem%0A%0AManagementSystem-%3EScreening%20(selected)%3Ants%20%3A%3D%20getNumberTicketsSold()%0AManagementSystem-%3EScreening%20(selected)%3Asc%20%3A%3D%20getScreen()%0AManagementSystem-%3Esc%3Acp%20%3A%3D%20getCapacity()%0A%0Aexpandable-%20see%20diagram%2006%20ACE%20(sold%20ticket%20number%20exceeds%20the%20capacity%20number)%0AManagementSystem-%3EManagementSystem%3AcheckTicketOverSold(tn%20%3A%20int%2C%20cp%20%3A%20int%2C%20nts%20%3A%20int)%20%20%20%20%20%20%20%20%20%20%20%20%20%20%20%20%20%20%20%20%20%20%20%20%20%20%20%20%20%20%20%20%20%20%20%0Aend%20%20%20%20%20%20%20%20%0A%0AManagementSystem-%3EScreening%20(selected)%3AsetNumberTicketsSold(tn%20%3A%20int)%0A%0AManagementSystem-%3ECinema%3AupdateScreening(selected%20%3A%20Screening)%0Aactivate%20Cinema%0ACinema-%3EScreeningMapper%3AupdateScreening(sg%20%3A%20Screening)%0Aactivate%20ScreeningMapper%0AScreeningMapper-%3EScreeningMapper%3AperformUpdate(sql%20%3A%20String)%0Aactivate%20ScreeningMapper%0AScreeningMapper-%3EDatabase%3AexecuteUpdate(sql%20%3A%20String)%0AScreeningMapper--%3EScreeningMapper%3A%0Adeactivate%20ScreeningMapper%0AScreeningMapper--%3ECinema%3A%0A%0A%0ACinema--%3EManagementSystem%3A%0Adeactivate%20Cinema%0Aexpandable-%20see%2001%20-%20Display%20Date%20BCE%0AManagementSystem-%3EManagementSystem%3AnotifyObservers()%20%20%20%20%20%20%20%20%20%20%20%20%20%20%20%20%20%20%20%20%0Aend%0AManagementSystem--%3EStaffUI%3A%0Adeactivate%20ManagementSystem%0A%0AStaffUI--%3EStaff%3A%0Adeactivate%20StaffUI</desc><defs/><g><g/><g/><g/><g/><g/><g/><g/><g/><g/><g/><g/><g/><g/><g/><g/><g/><g/><g/><g/><g/><g/><g/><g/><g/><g/><g/><g/><g/><g/><g/><g/><g/><g/><g/><g/><g/><g/><g/><g><rect fill="white" stroke="none" x="0" y="0" width="2175" height="2228"/></g><g/><g><path fill="none" stroke="black" paint-order="fill stroke markers" d=" M 24.636958411914062 95.699160256 L 24.636958411914062 2228.523827431999" stroke-miterlimit="10" stroke-width="1.4659797833333332" stroke-dasharray="13.532121076923076,5.863919133333333"/><path fill="none" stroke="black" paint-order="fill stroke markers" d=" M 185.7682286110677 893.3094407720001 L 185.7682286110677 2228.523827431999" stroke-miterlimit="10" stroke-width="1.4659797833333332" stroke-dasharray="13.532121076923076,5.863919133333333"/><path fill="none" stroke="black" paint-order="fill stroke markers" d=" M 423.18465389707035 95.699160256 L 423.18465389707035 2228.523827431999" stroke-miterlimit="10" stroke-width="1.4659797833333332" stroke-dasharray="13.532121076923076,5.863919133333333"/><path fill="none" stroke="black" paint-order="fill stroke markers" d=" M 798.1959430746745 95.699160256 L 798.1959430746745 2228.523827431999" stroke-miterlimit="10" stroke-width="1.4659797833333332" stroke-dasharray="13.532121076923076,5.863919133333333"/><path fill="none" stroke="black" paint-order="fill stroke markers" d=" M 1332.9320690162108 95.699160256 L 1332.9320690162108 2228.523827431999" stroke-miterlimit="10" stroke-width="1.4659797833333332" stroke-dasharray="13.532121076923076,5.863919133333333"/><path fill="none" stroke="black" paint-order="fill stroke markers" d=" M 1462.8105902264608 95.699160256 L 1462.8105902264608 2228.523827431999" stroke-miterlimit="10" stroke-width="1.4659797833333332" stroke-dasharray="13.532121076923076,5.863919133333333"/><path fill="none" stroke="black" paint-order="fill stroke markers" d=" M 1617.6643181464804 95.699160256 L 1617.6643181464804 2228.523827431999" stroke-miterlimit="10" stroke-width="1.4659797833333332" stroke-dasharray="13.532121076923076,5.863919133333333"/><path fill="none" stroke="black" paint-order="fill stroke markers" d=" M 1742.374880478121 95.699160256 L 1742.374880478121 2228.523827431999" stroke-miterlimit="10" stroke-width="1.4659797833333332" stroke-dasharray="13.532121076923076,5.863919133333333"/><path fill="none" stroke="black" paint-order="fill stroke markers" d=" M 1877.7866734779218 95.699160256 L 1877.7866734779218 2228.523827431999" stroke-miterlimit="10" stroke-width="1.4659797833333332" stroke-dasharray="13.532121076923076,5.863919133333333"/><path fill="none" stroke="black" paint-order="fill stroke markers" d=" M 2131.1086163420496 95.699160256 L 2131.1086163420496 2228.523827431999" stroke-miterlimit="10" stroke-width="1.4659797833333332" stroke-dasharray="13.532121076923076,5.863919133333333"/></g><g><g><path fill="white" stroke="black" paint-order="fill stroke markers" d=" M 34.66426012991406 21.286026454 A 10.027301717999999 10.027301717999999 0 1 1 34.66425511626362 21.27599915395321 M 24.636958411914062 31.313328172000002 L 24.636958411914062 52.7752722 M 11.970893083914063 39.053701428000004 L 37.30302373991406 39.053701428000004 M 24.636958411914062 52.7752722 L 11.970893083914063 72.829875636 M 24.636958411914062 52.7752722 L 37.30302373991406 72.829875636" stroke-miterlimit="10" stroke-width="2.990598758" stroke-dasharray=""/></g><g><g/><text fill="black" stroke="none" font-family="sans-serif" font-size="11pt" font-style="normal" font-weight="normal" text-decoration="normal" x="8.7958787" y="90.421633036" text-anchor="start" dominant-baseline="alphabetic" xml:space="preserve">Staff</text></g><g><path fill="white" stroke="black" paint-order="fill stroke markers" d=" M 458.10429233607033 45.210816517999994 A 26.123759739 26.123759739 0 1 1 458.1042792741916 45.18469276261494 M 389.7603148370704 17.591757399999995 L 389.7603148370704 72.829875636 M 388.26501545807037 45.210816517999994 L 405.85677285807037 45.210816517999994" stroke-miterlimit="10" stroke-width="2.990598758" stroke-dasharray=""/></g><g><g/><text fill="black" stroke="none" font-family="sans-serif" font-size="11pt" font-style="normal" font-weight="normal" text-decoration="normal" x="399.71651424863285" y="90.421633036" text-anchor="start" dominant-baseline="alphabetic" xml:space="preserve">StaffUI</text></g><g><path fill="white" stroke="black" paint-order="fill stroke markers" d=" M 824.3197028136744 45.210816517999994 A 26.123759739 26.123759739 0 1 1 824.3196897517956 45.18469276261494 M 794.6775915946745 19.087056778999994 L 805.2326460346745 10.291178078999994 M 794.6775915946745 19.087056778999994 L 805.2326460346745 27.882935478999993" stroke-miterlimit="10" stroke-width="2.990598758" stroke-dasharray=""/></g><g><g/><text fill="black" stroke="none" font-family="sans-serif" font-size="11pt" font-style="normal" font-weight="normal" text-decoration="normal" x="726.2739688925456" y="90.421633036" text-anchor="start" dominant-baseline="alphabetic" xml:space="preserve">ManagementSystem</text></g><path fill="none" stroke="none"/><g><path fill="white" stroke="black" paint-order="fill stroke markers" d=" M 1287.3954730526405 48.201415276000006 L 1378.4686649797811 48.201415276000006 L 1378.4686649797811 95.699160256 L 1287.3954730526405 95.699160256 L 1287.3954730526405 48.201415276000006 Z" stroke-miterlimit="10" stroke-width="2.814681184" stroke-dasharray=""/></g><g><g/><text fill="black" stroke="none" font-family="sans-serif" font-size="11pt" font-style="normal" font-weight="normal" text-decoration="normal" x="1306.4825298316405" y="78.107402856" text-anchor="start" dominant-baseline="alphabetic" xml:space="preserve">Cinema</text></g><g><path fill="white" stroke="black" paint-order="fill stroke markers" d=" M 1488.9343499654608 42.81833751159999 A 26.123759739 26.123759739 0 1 1 1488.934336903582 42.792213756214935 M 1435.1915311084608 71.334576257 L 1490.4296493444608 71.334576257" stroke-miterlimit="10" stroke-width="2.990598758" stroke-dasharray=""/></g><g><g/><text fill="black" stroke="none" font-family="sans-serif" font-size="11pt" font-style="normal" font-weight="normal" text-decoration="normal" x="1396.0604223797811" y="90.421633036" text-anchor="start" dominant-baseline="alphabetic" xml:space="preserve">Screening (current)</text></g><g><path fill="white" stroke="black" paint-order="fill stroke markers" d=" M 1643.7880778854803 42.81833751159999 A 26.123759739 26.123759739 0 1 1 1643.7880648236016 42.792213756214935 M 1590.0452590284804 71.334576257 L 1645.2833772644804 71.334576257" stroke-miterlimit="10" stroke-width="2.990598758" stroke-dasharray=""/></g><g><g/><text fill="black" stroke="none" font-family="sans-serif" font-size="11pt" font-style="normal" font-weight="normal" text-decoration="normal" x="1547.1525154731405" y="90.421633036" text-anchor="start" dominant-baseline="alphabetic" xml:space="preserve">Screening (selected)</text></g><g><path fill="white" stroke="black" paint-order="fill stroke markers" d=" M 1768.498640217121 42.81833751159999 A 26.123759739 26.123759739 0 1 1 1768.4986271552423 42.792213756214935 M 1714.755821360121 71.334576257 L 1769.993939596121 71.334576257" stroke-miterlimit="10" stroke-width="2.990598758" stroke-dasharray=""/></g><g><text fill="black" stroke="none" font-family="sans-serif" font-size="11pt" font-style="normal" font-weight="normal" text-decoration="normal" x="1705.7678782198202" y="90.421633036" text-anchor="start" dominant-baseline="alphabetic" xml:space="preserve">sc : Screen</text></g><path fill="none" stroke="none"/><g><path fill="white" stroke="black" paint-order="fill stroke markers" d=" M 1796.5736401364218 48.201415276000006 L 1958.9997068194218 48.201415276000006 L 1958.9997068194218 95.699160256 L 1796.5736401364218 95.699160256 L 1796.5736401364218 48.201415276000006 Z" stroke-miterlimit="10" stroke-width="2.814681184" stroke-dasharray=""/></g><g><g/><text fill="black" stroke="none" font-family="sans-serif" font-size="11pt" font-style="normal" font-weight="normal" text-decoration="normal" x="1815.6606969154218" y="78.107402856" text-anchor="start" dominant-baseline="alphabetic" xml:space="preserve">ScreeningMapper</text></g><g><path fill="white" stroke="black" paint-order="fill stroke markers" d=" M 2105.4246505380497 61.219315752 L 2105.4246505380497 24.276625212000003 L 2156.7925821460494 24.276625212000003 L 2156.7925821460494 61.219315752" stroke-miterlimit="10" stroke-width="2.990598758" stroke-dasharray=""/><path fill="white" stroke="black" paint-order="fill stroke markers" d=" M 2156.7925821460494 22.992426921800003 L 2156.791297958461 23.108530585556366 L 2156.787445524113 23.224622639043105 L 2156.7810252282457 23.34069147315161 L 2156.7720377128835 23.45672548109521 L 2156.76048387677 23.572713059569786 L 2156.7463648752796 23.688642609914158 L 2156.729682120301 23.804502539269897 L 2156.710437280095 23.920281261740616 L 2156.68863227913 24.03596719955055 L 2156.664269297888 24.151548784202323 L 2156.6373507726466 24.26701445763379 L 2156.607879395236 24.382352673373823 L 2156.5758581127698 24.497551897696965 L 2156.541290127349 24.612600610776788 L 2156.5041788957433 24.72748730783785 L 2156.464528129045 24.84220050030619 L 2156.422341792298 24.956728716958153 L 2156.377624104101 25.07106050506751 L 2156.330379536185 25.18518443155073 L 2156.2806128129673 25.299089084110268 L 2156.2283289110796 25.412763072375785 L 2156.1735330588676 25.526195029043187 L 2156.116230735872 25.63937361101133 L 2156.0564276722757 25.75228750051633 L 2155.994129848337 25.86492540626334 L 2155.929343493785 25.97727606455564 L 2155.8620750872014 26.089328240421032 L 2155.7923313553715 26.201070728735306 L 2155.72011927261 26.312492355342748 L 2155.645446060065 26.423581978173544 L 2155.5683191849953 26.53432848835799 L 2155.488746360025 26.644720811337358 L 2155.4067355423686 26.754747907971336 L 2155.322294933041 26.864398775641956 L 2155.2354329760324 26.973662449353824 L 2155.146158357466 27.08252800283062 L 2155.054480004729 27.190984549607727 L 2154.9604070855808 27.29902124412083 L 2154.8639490072346 27.406627282790524 L 2154.7651154154178 27.513791905102604 L 2154.6639161934077 27.620504394684144 L 2154.5603614610413 27.726754080375116 L 2154.4544615737063 27.83253033729549 L 2154.3462271213034 27.93782258790772 L 2154.2356689271865 28.04262030307449 L 2154.122798047084 28.14691300311161 L 2154.0076257679893 28.25069025883599 L 2153.8901636070345 28.353941692608544 L 2153.7704233103377 28.456656979371925 L 2153.6484168518286 28.55882584768306 L 2153.5241564320518 28.660438080740256 L 2153.3976544769457 28.761483517404887 L 2153.2689236366 28.861952053217486 L 2153.137976783992 28.961833641408198 L 2153.004827013697 29.061118293901444 L 2152.8694876405825 29.1597960823147 L 2152.7319721984713 29.257857138951366 L 2152.5922944387944 29.355291657787486 L 2152.4504683292107 29.452089895452378 L 2152.306508052213 29.54824217220294 L 2152.160428003709 29.643738872891625 L 2152.0122427915826 29.73857044792794 L 2151.86196723423 29.83272741423341 L 2151.709616359083 29.92620035618987 L 2151.555205401102 30.018979926581018 L 2151.3987498012534 30.111056847527124 L 2151.2402652049677 30.20242191141283 L 2151.079767460572 30.293065981807885 L 2150.9172726177067 30.382979994380786 L 2150.7527969257208 30.472154957805202 L 2150.586356832047 30.560581954659103 L 2150.4179689805555 30.648252142316494 L 2150.247650209891 30.735156753831664 L 2150.0754175517895 30.821287098815887 L 2149.9012882293723 30.906634564306433 L 2149.7252796554267 30.991190615627882 L 2149.5474094306637 31.074946797245563 L 2149.3676953419576 31.15789473361111 L 2149.186155360567 31.24002613000001 L 2149.0028076403396 31.321332773341062 L 2148.817670515894 31.4018065330377 L 2148.630762500788 31.481439361781 L 2148.4421022856686 31.560223296354458 L 2148.251708736399 31.638150458430268 L 2148.0596008921757 31.715213055357157 L 2147.865797963623 31.791403380939656 L 2147.670319330873 31.8667138162087 L 2147.4731845416254 31.941136830183517 L 2147.2744133091946 32.01466498062472 L 2147.074025510539 32.08729091477856 L 2146.8720411842705 32.15900737011212 L 2146.668480528654 32.22980717503965 L 2146.4633638995856 32.29968324963964 L 2146.256711808557 32.368628606362876 L 2146.048544920605 32.43663635073112 L 2145.8388840522452 32.50369968202662 L 2145.6277501693894 32.569811893972144 L 2145.41516438525 32.63496637540157 L 2145.2011479582284 32.69915661092105 L 2144.985722289789 32.76237618156054 L 2144.7689089223195 32.82461876541566 L 2144.550729536975 32.88587813827987 L 2144.331205951513 32.94614817426695 L 2144.1103601181085 33.005422846423535 L 2143.888214121161 33.06369622733178 L 2143.6647901750857 33.12096248970218 L 2143.4401106220903 33.1772159069562 L 2143.214197929943 33.232450853798994 L 2142.987074689725 33.28666180678192 L 2142.7587636135713 33.339843344854856 L 2142.5292875323985 33.391990149908295 L 2142.2986693936236 33.4430970073052 L 2142.0669322588687 33.49315880640242 L 2141.8340993016545 33.54217054106175 L 2141.6001938050817 33.590127310150585 L 2141.3652391595056 33.637024318031976 L 2141.129258860195 33.68285687504421 L 2140.8922765049833 33.72762039796977 L 2140.654315791908 33.77131041049369 L 2140.4154005168425 33.81392254365112 L 2140.1755545711153 33.85545253626423 L 2139.934801939121 33.8958962353684 L 2139.693166695922 33.9352495966274 L 2139.4506730048415 33.9735086847379 L 2139.2073451150463 34.01066967382299 L 2138.9632073591224 34.046728847814705 L 2138.718284150643 34.081682600825715 L 2138.4725999817233 34.11552743750983 L 2138.226179420577 34.1482599734116 L 2137.9790471090537 34.179876935304705 L 2137.731227760179 34.210375161519295 L 2137.4827461556815 34.23975160225818 L 2137.2336271435142 34.26800331990176 L 2136.983895635371 34.295127489301805 L 2136.7335766041947 34.321121398063994 L 2136.482695081679 34.34598244681909 L 2136.2312761557687 34.36970814948297 L 2135.979344968145 34.3922961335051 L 2135.726926711718 34.413744140105926 L 2135.4740466281028 34.43405002450265 L 2135.220730005097 34.453211756123764 L 2134.9670021741513 34.47122741881206 L 2134.7128885078378 34.4880952110163 L 2134.458414417311 34.5038134459713 L 2134.203605349768 34.518380551866684 L 2133.948486785904 34.53179507200398 L 2133.6930842373617 34.54405566494237 L 2133.437423244184 34.555161104632774 L 2133.1815293722566 34.565110280540466 L 2132.9254282107536 34.573902197756155 L 2132.6691453695776 34.58153597709545 L 2132.4127064767995 34.58801085518677 L 2132.1561371760945 34.59332618454771 L 2131.899463124179 34.59748143364976 L 2131.6427099882444 34.60047618697147 L 2131.38590344339 34.60231014504 L 2131.129069170057 34.60298312446108 L 2130.8722328514577 34.60249505793733 L 2130.615420171011 34.600845994274984 L 2130.3586568097703 34.59803609837904 L 2130.1019684438575 34.594065651236754 L 2129.845380741896 34.58893504988952 L 2129.5889193624416 34.5826448073932 L 2129.332609951419 34.57519555276681 L 2129.076478139555 34.566588030929594 L 2128.8205495398183 34.556823102626566 L 2128.564849744855 34.545901744342416 L 2128.309404324432 34.53382504820388 L 2128.0542388228773 34.52059422187051 L 2127.7993787565297 34.5062105884139 L 2127.5448496111826 34.49067558618542 L 2127.290676839539 34.47399076867234 L 2127.0368858586644 34.45615780434251 L 2126.7835020474445 34.4371784764775 L 2126.5305507440503 34.41705468299429 L 2126.2780572434003 34.395788436255444 L 2126.026046794635 34.37338186286793 L 2125.7745445985893 34.34983720347041 L 2125.5235758052722 34.32515681250919 L 2125.2731655113553 34.29934315800281 L 2125.023338757658 34.27239882129521 L 2124.7741205266484 34.24432649679761 L 2124.5255357399415 34.21512899171906 L 2124.2776092558092 34.18480922578574 L 2124.030365866693 34.15337023094897 L 2123.7838302967257 34.12081515108205 L 2123.5380271992585 34.08714724166582 L 2123.2929811543972 34.05236986946318 L 2123.048716666542 34.016486512182354 L 2122.805258161937 33.97950075812918 L 2122.5626299862315 33.94141630584823 L 2122.320856402039 33.90223696375301 L 2122.079961586518 33.86196664974507 L 2121.839969628949 33.820609390822256 L 2121.6009045283267 33.77816932267599 L 2121.362790190963 33.734650689277736 L 2121.125650428093 33.69005784245455 L 2120.8895089534954 33.644395241453964 L 2120.6543893811204 33.59766745249802 L 2120.42031522273 33.54987914832668 L 2120.1873098855444 33.50103510773054 L 2119.9553966699036 33.45114021507295 L 2119.7245987669357 33.40019945980159 L 2119.4949392562385 33.34821793594955 L 2119.2664411035717 33.29520084162589 L 2119.039127158561 33.24115347849587 L 2118.81302015241 33.18608125125075 L 2118.588142695632 33.12998966706737 L 2118.3645172757847 33.07288433505741 L 2118.1421662552243 33.01477096570647 L 2117.9211118688672 32.95565537030307 L 2117.7013762219676 32.89554346035748 L 2117.4829812879075 32.8344412470106 L 2117.2659489059984 32.772354840432854 L 2117.0503007792972 32.709290449213164 L 2116.836058472437 32.645254379738084 L 2116.62324340947 32.580253035561206 L 2116.4118768717253 32.514292916762784 L 2116.20197999568 32.44738061929973 L 2115.9935737708474 32.37952283434602 L 2115.786679037676 32.310726347623614 L 2115.581316485467 32.24099803872385 L 2115.3775066503044 32.17034488041951 L 2115.1752699130016 32.09877393796755 L 2114.974626497064 32.026292368402565 L 2114.775596466666 31.952907419821116 L 2114.5781997246445 31.87862643065691 L 2114.3824560105095 31.803456828946963 L 2114.1883848984694 31.727406131588797 L 2113.9960057954736 31.65048194358878 L 2113.805337939272 31.572691957301604 L 2113.616400396491 31.494043951661077 L 2113.429212060728 31.41454579140222 L 2113.24379165066 31.334205426274806 L 2113.0601577081743 31.25303089024841 L 2112.8783285965114 31.171030300708985 L 2112.698322498431 31.088211857647146 L 2112.5201574143935 31.004583842838187 L 2112.3438511607583 30.9201546190139 L 2112.169421368004 30.834932629026305 L 2111.9968854789645 30.748926395003394 L 2111.8262607470847 30.662144517496888 L 2111.657564234696 30.574595674622223 L 2111.490812811309 30.486288621190724 L 2111.3260231519266 30.397232187834156 L 2111.163211735378 30.307435280121634 L 2111.0023948426688 30.216906877669096 L 2110.843588555355 30.125656033241356 L 2110.6868087539315 30.033691871846806 L 2110.5320711162494 29.941023589824955 L 2110.3793911159423 29.84766045392678 L 2110.228784020884 29.753611800388065 L 2110.080264891658 29.658887033995796 L 2109.933848580053 29.563495627147667 L 2109.789549727579 29.467447118904882 L 2109.6473827640007 29.370751114038217 L 2109.5073619058953 29.27341728206758 L 2109.369501155233 29.175455356295057 L 2109.2338142979734 29.07687513283159 L 2109.1003149026897 28.977686469617378 L 2108.969016319209 28.877899285436083 L 2108.8399316772816 28.777523558922972 L 2108.713073885263 28.67656932756704 L 2108.5884556288274 28.575046686707307 L 2108.4660893696964 28.472965788523247 L 2108.345987344394 28.37033684101962 L 2108.2281615630227 28.267170107005644 L 2108.112623808062 28.16347590306875 L 2107.9993856331917 28.059264598542924 L 2107.8884583621343 27.954546614471777 L 2107.779853087525 27.849332422566448 L 2107.6735806698007 27.743632544158448 L 2107.569651736115 27.637457549147538 L 2107.468076679273 27.53081805494474 L 2107.368865656698 27.423724725410608 L 2107.2720285894075 27.316188269788846 L 2107.177575161029 27.208219441635414 L 2107.085514816826 27.099829037743145 L 2106.9958567627564 26.991027897062104 L 2106.908609964551 26.881826899615692 L 2106.823783146817 26.77223696541266 L 2106.7413847921644 26.662269053355093 L 2106.6614231403614 26.55193416014256 L 2106.583906187506 26.441243319172447 L 2106.5088416852286 26.330207599436594 L 2106.436237139917 26.218838104414456 L 2106.366099811966 26.10714597096272 L 2106.298436715049 25.99514236820166 L 2106.2332546154194 25.882838496398215 L 2106.170560031233 25.770245585845977 L 2106.1103592318964 25.657374895742176 L 2106.0526582374387 25.544237713061765 L 2105.9974628179116 25.43084535142873 L 2105.944778492811 25.317209149984738 L 2105.894610530526 25.203340472255242 L 2105.8469639478103 25.08925070501312 L 2105.8018435092827 24.974951257140024 L 2105.7592537269493 24.860453558485496 L 2105.719198859753 24.74576905872398 L 2105.681682913147 24.630909226209884 L 2105.6467096386955 24.515885546830745 L 2105.6142825336956 24.40070952285865 L 2105.5844048408317 24.28539267180001 L 2105.5570795478475 24.169946525243844 L 2105.53230938725 24.05438262770859 L 2105.5100968360343 23.93871253548771 L 2105.490444115437 23.82294781549403 L 2105.4733531907145 23.707100044103075 L 2105.4588257709443 23.591180805995453 L 2105.4468633088563 23.47520169299837 L 2105.437467000687 23.359174302926476 L 2105.4306377860594 23.243110238422094 L 2105.426376347889 23.12702110579495 L 2105.424683112316 23.01091851386157 L 2105.425558248663 22.894814072784392 L 2105.429001669417 22.77871939291077 L 2105.4350130302387 22.66264608361195 L 2105.4435917299966 22.546605752122133 L 2105.4547369108286 22.430610002377765 L 2105.4684474582255 22.314670433857163 L 2105.484722001144 22.19879864042056 L 2105.503558912143 22.08300620915074 L 2105.524956307548 21.967304719194335 L 2105.548912047637 21.851705740603922 L 2105.575423736855 21.736220833181036 L 2105.6044887240564 21.620861545320174 L 2105.6361041027662 21.505639412853995 L 2105.6702667114732 21.390565957899724 L 2105.7069731339443 21.275652687706962 L 2105.7462196995684 21.16091109350697 L 2105.7880024837214 21.046352649363552 L 2105.83231730816 20.93198881102565 L 2105.8791597414383 20.817831014781802 L 2105.928525099352 20.703890676316497 L 2105.980408445407 20.590179189568637 L 2106.0348045913115 20.47670792559213 L 2106.091708097496 20.36348823141882 L 2106.1511132736578 20.25053142892377 L 2106.2130141793286 20.137848813693108 L 2106.2774046244695 20.025451653894443 L 2106.3442781700896 19.913351189150102 L 2106.4136281288897 19.801558629413137 L 2106.485447565932 19.69008515384636 L 2106.559729299333 19.57894190970444 L 2106.636465900981 19.468140011219166 L 2106.7156496972793 19.357690538488054 L 2106.797272769915 19.24760453636634 L 2106.8813269566485 19.13789301336249 L 2106.967803852131 19.028566940537385 L 2107.0566948087453 18.9196372504072 L 2107.14799093747 18.811114835850173 L 2107.2416831087676 18.703010549017325 L 2107.3377619535 18.595335200247256 L 2107.4362178638617 18.488099556985112 L 2107.5370409943444 18.381314342705853 L 2107.640221262719 18.274990235841926 L 2107.7457483510448 18.169137868715406 L 2107.8536117067006 18.063767826474802 L 2107.963800543441 17.95889064603653 L 2108.076303842474 17.854516815031236 L 2108.191110353563 17.750656770755036 L 2108.3082085961532 17.647320899125816 L 2108.4275868605177 17.544519533644625 L 2108.5492332089298 17.44226295436234 L 2108.6731354768554 17.34056138685168 L 2108.799281274172 17.239425001184642 L 2108.9276579864036 17.13886391091551 L 2109.058252775987 17.038888172069516 L 2109.1910525835515 16.939507782137227 L 2109.3260441292277 16.840732679074826 L 2109.463213913973 16.742572740310298 L 2109.602548220923 16.645037781755725 L 2109.7440331167636 16.548137556825687 L 2109.887654453123 16.45188175546192 L 2110.0333978679873 16.35628000316435 L 2110.1812487871366 16.261341860028544 L 2110.331192425602 16.167076819789692 L 2110.483213789144 16.073494308873272 L 2110.637297675754 15.980603685452383 L 2110.793428677171 15.888414238511963 L 2110.951591180425 15.79693518691988 L 2111.111769369398 15.706175678505064 L 2111.2739472264047 15.61614478914272 L 2111.4381085337936 15.526851521846762 L 2111.6042368755716 15.438304805869507 L 2111.772315639042 15.350513495808762 L 2111.9423280164697 15.26348637072238 L 2112.114257006758 15.177232133250339 L 2112.2880854171517 15.091759408744515 L 2112.4637958649537 15.00707674440613 L 2112.641370779266 14.923192608431044 L 2112.8207924027456 14.840115389162959 L 2113.002042793379 14.757853394254566 L 2113.1851038262785 14.676414849836805 L 2113.3699571954935 14.595807899696254 L 2113.5565844158414 14.516040604460756 L 2113.7449668247546 14.437120940793358 L 2113.9350855841503 14.359056800594665 L 2114.1269216823102 14.281855990213637 L 2114.320455935785 14.205526229666987 L 2114.51566899131 14.130075151867153 L 2114.712541327743 14.055510301859046 L 2114.9110532580144 13.981839136065528 L 2115.1111849310955 13.909069021541786 L 2115.3129163339872 13.837207235238628 L 2115.5162272937164 13.766260963274803 L 2115.7210974793566 13.696237300218385 L 2115.9275064040608 13.627143248377326 L 2116.1354334271073 13.558985717099231 L 2116.344857755968 13.491771522080432 L 2116.555758448384 13.425507384684419 L 2116.768114414462 13.360199931269712 L 2116.9819044187825 13.295855692527226 L 2117.1971070825234 13.23248110282722 L 2117.413700885597 13.170082499575852 L 2117.631664168804 13.108666122581443 L 2117.8509751359975 13.04823811343052 L 2118.0716118562636 12.988804514873634 L 2118.293552266114 12.930371270221118 L 2118.516774171693 12.87294422274874 L 2118.741255250996 12.816529115113394 L 2118.966973056102 12.76113158877883 L 2119.1939050154183 12.706757183451517 L 2119.4220284359385 12.653411336526675 L 2119.6513205055103 12.601099382544545 L 2119.8817582951183 12.549826552656928 L 2120.1133187611754 12.499597974104088 L 2120.3459787478278 12.450418669702023 L 2120.5797149892705 12.402293557340188 L 2120.8145041120747 12.35522744948972 L 2121.0503226375235 12.309225052722176 L 2121.287146983961 12.264290967238905 L 2121.5249534691498 12.220429686411006 L 2121.763718312639 12.17764559633001 L 2122.003417638144 12.135942975369273 L 2122.244027475932 12.09532599375614 L 2122.4855237652196 12.055798713154925 L 2122.7278823565784 12.017365086260746 L 2122.971079014352 11.980028956404269 L 2123.2150894190772 11.943794057167361 L 2123.459889169917 11.908664012009755 L 2123.7054537871 11.874642333906689 L 2123.951758714369 11.841732424997623 L 2124.198779321437 11.809937576246021 L 2124.4464909064486 11.779260967110266 L 2124.6948686984524 11.749705665225706 L 2124.9438878598758 11.7212746260979 L 2125.1935234890097 11.693970692807069 L 2125.4437506225 11.667796595723788 L 2125.6945442378415 11.642754952235952 L 2125.9458792558817 11.618848266487047 L 2126.197730543328 11.59607892912572 L 2126.450072915262 11.57444921706674 L 2126.7028811376563 11.55396129326328 L 2126.9561299299003 11.534617206490651 L 2127.2097939673245 11.51641889114141 L 2127.4638478837373 11.499368167031927 L 2127.7182662739588 11.483466739220404 L 2127.9730236963615 11.46871619783637 L 2128.2280946754163 11.455118017921672 L 2128.4834537042366 11.44267355928297 L 2128.7390752471338 11.431384066355758 L 2128.9949337421654 11.421250668079919 L 2129.2510036036956 11.412274377786838 L 2129.507259224952 11.404456093098062 L 2129.7636749805856 11.397796595835548 L 2130.0202252292343 11.392296551943469 L 2130.2768843160875 11.387956511421633 L 2130.53362657545 11.384776908270476 L 2130.79042633331 11.382758060447662 L 2131.047257909906 11.38190016983629 L 2131.3040956222935 11.38220332222471 L 2131.5609137869164 11.38366748729793 L 2131.8176867221714 11.38629251864067 L 2132.07438875098 11.390078153751977 L 2132.3309942033516 11.395024014071499 L 2132.587477418956 11.40112960501732 L 2132.843812749685 11.40839431603544 L 2133.09997456222 11.41681742066081 L 2133.3559372405916 11.42639807658998 L 2133.611675188746 11.437135325765349 L 2133.867162833102 11.449028094470941 L 2134.122374625108 11.462075193439802 L 2134.3772850437967 11.476275317972902 L 2134.631868598339 11.491627048069626 L 2134.8860998305922 11.508128848569752 L 2135.139953317644 11.525779069306987 L 2135.393403674358 11.544575945273964 L 2135.646425555909 11.564517596798748 L 2135.8989936603207 11.585602029732806 L 2136.151082730992 11.607827135650416 L 2136.4026675592268 11.631190692059505 L 2136.6537229867513 11.655690362623902 L 2136.9042239082323 11.68132369739697 L 2137.1541452737865 11.708088133066587 L 2137.4034620914854 11.735980993211495 L 2137.652149429855 11.764999488568922 L 2137.9001824203683 11.795140717313513 L 2138.147536259934 11.826401665347511 L 2138.3941862133734 11.858779206602165 L 2138.6401076158973 11.89227010335033 L 2138.8852758755697 11.92687100653024 L 2139.129666475769 11.962578456080411 L 2139.3732549776396 11.999388881285645 L 2139.6160170225335 12.037298601134095 L 2139.8579283344493 12.076303824685368 L 2140.0989647224565 12.116400651449613 L 2140.3391020831177 12.15758507177757 L 2140.5783164028967 12.199852967261522 L 2140.816583760561 12.243200111147148 L 2141.053880329574 12.28762216875618 L 2141.2901823804755 12.333114697919875 L 2141.5254662832576 12.379673149423226 L 2141.7597085097264 12.427292867459885 L 2141.9928856358542 12.47596909009773 L 2142.224974344123 12.525696949755057 L 2142.4559514258553 12.576471473687343 L 2142.6857937835352 12.628287584484506 L 2142.9144784331183 12.681140100578647 L 2143.141982506331 12.735023736762198 L 2143.3682832529544 12.789933104716448 L 2143.5933580431038 12.845862713550355 L 2143.8171843694863 12.902806970349646 L 2144.039739849657 12.960760180736091 L 2144.2610022282524 13.01971654943695 L 2144.48094937922 13.07967018086448 L 2144.699559308027 13.140615079705501 L 2144.9168101538635 13.202545151520916 L 2145.1326801918253 13.265454203355151 L 2145.347147835089 13.329335944355446 L 2145.560191637069 13.394183986400938 L 2145.771790293562 13.459991844741461 L 2145.981922644879 13.52675293864602 L 2146.1905676779606 13.594460592060857 L 2146.3977045284764 13.663108034277055 L 2146.6033124829146 13.732688400607602 L 2146.8073709806513 13.803194733073843 L 2147.009859616006 13.87461998110129 L 2147.2107581402843 13.946957002224657 L 2147.4100464638013 14.020198562802118 L 2147.6077046578903 14.094337338738645 L 2147.8037129568975 14.16936591621843 L 2147.9980517601552 14.245276792446244 L 2148.190701633946 14.322062376397728 L 2148.381643313442 14.399714989578472 L 2148.5708577046357 14.478226866791868 L 2148.7583258862446 14.557590156915623 L 2148.944029111607 14.637796923686858 L 2149.1279488105556 14.718839146495737 L 2149.3100665912734 14.800708721187512 L 2149.490364242134 14.88339746087294 L 2149.6688237335225 14.966897096746958 L 2149.8454272196386 15.051199278915561 L 2150.0201570402814 15.136295577230786 L 2150.1929957226134 15.222177482133715 L 2150.363925982911 15.30883640550542 L 2150.532930728291 15.396263681525788 L 2150.699993058419 15.484450567540065 L 2150.8650962672014 15.573388244933145 L 2151.0282238444547 15.663067820011399 L 2151.189359477558 15.753480324892053 L 2151.348487053081 15.844616718399962 L 2151.5055906584 15.936467886971723 L 2151.660654583284 16.02902464556702 L 2151.8136633214713 16.122277738587123 L 2151.9646015722146 16.216217840800443 L 2152.1134542418145 16.31083555827504 L 2152.2602064451285 16.40612142931802 L 2152.4048435070586 16.502065925421675 L 2152.547350964019 16.59865945221635 L 2152.687714565383 16.695892350429865 L 2152.825920274907 16.793754896853418 L 2152.961954272135 16.892237305313927 L 2153.0958029537815 16.991329727652605 L 2153.2274529350893 17.091022254709806 L 2153.35689105117 17.191304917315893 L 2153.48410435832 17.292167687288174 L 2153.6090801353143 17.393600478433708 L 2153.73180588468 17.495593147557905 L 2153.852269333944 17.59813549547885 L 2153.970458436862 17.701217268047195 L 2154.0863613746214 17.80482815717159 L 2154.199966557026 17.90895780184946 L 2154.3112626236516 18.01359578920312 L 2154.4202384449845 18.118731655521024 L 2154.526883123534 18.22435488730416 L 2154.6311859949196 18.330454922317365 L 2154.7331366289427 18.437021150645553 L 2154.8327248306236 18.544042915754694 L 2154.929940641226 18.65150951555747 L 2155.0247743392497 18.75941020348345 L 2155.1172164414033 18.86773418955376 L 2155.2072577035547 18.97647064146006 L 2155.2948891216515 19.085608685647777 L 2155.3801019326256 19.19513740840344 L 2155.462887615267 19.305045856946045 L 2155.543237891076 19.415323040522324 L 2155.621144725092 19.525957931505822 L 2155.6966003266975 19.636939466499637 L 2155.769597150394 19.74825654744275 L 2155.8401278965603 19.859898042719834 L 2155.908185512181 19.97185278827439 L 2155.9737631915505 20.084109588725166 L 2156.0368543769564 20.196657218485658 L 2156.0974527593316 20.309484422886683 L 2156.1555522788894 20.422579919301818 L 2156.2111471257263 20.535932398275673 L 2156.264231740403 20.649530524654807 L 2156.314800814503 20.76336293872125 L 2156.362849291161 20.877418257328454 L 2156.408372365569 20.991685075039605 L 2156.4513654854577 21.10615196526815 L 2156.4918243515513 21.220807481420458 L 2156.529744917996 21.33564015804046 L 2156.565123392768 21.450638511956186 L 2156.597956238048 21.565791043428078 L 2156.6282401705794 21.68108623729895 L 2156.6559721619947 21.796512564145488 L 2156.6811494391172 21.9120584814312 L 2156.70376948424 22.027712434660646 L 2156.7238300353783 22.14346285853488 L 2156.741329086493 22.259298178107972 L 2156.7562648876938 22.375206809944494 L 2156.7686359454133 22.491177163277854 L 2156.7784410225554 22.60719764116936 L 2156.7856791386207 22.723256641667906 L 2156.790349569804 22.839342558970156 L 2156.7924518490663 22.95544378458112 M 2156.7925821460494 59.9351174618 L 2156.791297958461 60.05122112555636 L 2156.787445524113 60.1673131790431 L 2156.7810252282457 60.28338201315161 L 2156.7720377128835 60.3994160210952 L 2156.76048387677 60.51540359956978 L 2156.7463648752796 60.631333149914155 L 2156.729682120301 60.74719307926989 L 2156.710437280095 60.86297180174061 L 2156.68863227913 60.97865773955054 L 2156.664269297888 61.09423932420232 L 2156.6373507726466 61.209704997633786 L 2156.607879395236 61.32504321337382 L 2156.5758581127698 61.44024243769696 L 2156.541290127349 61.55529115077678 L 2156.5041788957433 61.67017784783785 L 2156.464528129045 61.784891040306185 L 2156.422341792298 61.89941925695815 L 2156.377624104101 62.01375104506751 L 2156.330379536185 62.127874971550725 L 2156.2806128129673 62.241779624110265 L 2156.2283289110796 62.35545361237578 L 2156.1735330588676 62.46888556904318 L 2156.116230735872 62.58206415101132 L 2156.0564276722757 62.694978040516325 L 2155.994129848337 62.80761594626333 L 2155.929343493785 62.91996660455563 L 2155.8620750872014 63.032018780421026 L 2155.7923313553715 63.1437612687353 L 2155.72011927261 63.25518289534274 L 2155.645446060065 63.36627251817354 L 2155.5683191849953 63.47701902835799 L 2155.488746360025 63.58741135133735 L 2155.4067355423686 63.69743844797133 L 2155.322294933041 63.80708931564195 L 2155.2354329760324 63.91635298935382 L 2155.146158357466 64.02521854283061 L 2155.054480004729 64.13367508960772 L 2154.9604070855808 64.24171178412082 L 2154.8639490072346 64.34931782279051 L 2154.7651154154178 64.4564824451026 L 2154.6639161934077 64.56319493468413 L 2154.5603614610413 64.66944462037512 L 2154.4544615737063 64.77522087729548 L 2154.3462271213034 64.88051312790772 L 2154.2356689271865 64.98531084307449 L 2154.122798047084 65.08960354311161 L 2154.0076257679893 65.19338079883599 L 2153.8901636070345 65.29663223260853 L 2153.7704233103377 65.39934751937191 L 2153.6484168518286 65.50151638768305 L 2153.5241564320518 65.60312862074025 L 2153.3976544769457 65.70417405740488 L 2153.2689236366 65.80464259321748 L 2153.137976783992 65.90452418140819 L 2153.004827013697 66.00380883390143 L 2152.8694876405825 66.1024866223147 L 2152.7319721984713 66.20054767895135 L 2152.5922944387944 66.29798219778748 L 2152.4504683292107 66.39478043545238 L 2152.306508052213 66.49093271220293 L 2152.160428003709 66.58642941289162 L 2152.0122427915826 66.68126098792794 L 2151.86196723423 66.7754179542334 L 2151.709616359083 66.86889089618987 L 2151.555205401102 66.96167046658101 L 2151.3987498012534 67.05374738752711 L 2151.2402652049677 67.14511245141283 L 2151.079767460572 67.23575652180789 L 2150.9172726177067 67.32567053438078 L 2150.7527969257208 67.4148454978052 L 2150.586356832047 67.5032724946591 L 2150.4179689805555 67.59094268231648 L 2150.247650209891 67.67784729383166 L 2150.0754175517895 67.76397763881587 L 2149.9012882293723 67.84932510430643 L 2149.7252796554267 67.93388115562787 L 2149.5474094306637 68.01763733724556 L 2149.3676953419576 68.1005852736111 L 2149.186155360567 68.18271667 L 2149.0028076403396 68.26402331334106 L 2148.817670515894 68.34449707303769 L 2148.630762500788 68.42412990178099 L 2148.4421022856686 68.50291383635445 L 2148.251708736399 68.58084099843026 L 2148.0596008921757 68.65790359535715 L 2147.865797963623 68.73409392093966 L 2147.670319330873 68.80940435620869 L 2147.4731845416254 68.88382737018351 L 2147.2744133091946 68.95735552062472 L 2147.074025510539 69.02998145477855 L 2146.8720411842705 69.10169791011212 L 2146.668480528654 69.17249771503964 L 2146.4633638995856 69.24237378963963 L 2146.256711808557 69.31131914636286 L 2146.048544920605 69.37932689073111 L 2145.8388840522452 69.44639022202662 L 2145.6277501693894 69.51250243397213 L 2145.41516438525 69.57765691540156 L 2145.2011479582284 69.64184715092105 L 2144.985722289789 69.70506672156054 L 2144.7689089223195 69.76730930541565 L 2144.550729536975 69.82856867827986 L 2144.331205951513 69.88883871426695 L 2144.1103601181085 69.94811338642353 L 2143.888214121161 70.00638676733178 L 2143.6647901750857 70.06365302970217 L 2143.4401106220903 70.1199064469562 L 2143.214197929943 70.175141393799 L 2142.987074689725 70.22935234678192 L 2142.7587636135713 70.28253388485484 L 2142.5292875323985 70.33468068990828 L 2142.2986693936236 70.3857875473052 L 2142.0669322588687 70.4358493464024 L 2141.8340993016545 70.48486108106175 L 2141.6001938050817 70.53281785015058 L 2141.3652391595056 70.57971485803196 L 2141.129258860195 70.6255474150442 L 2140.8922765049833 70.67031093796977 L 2140.654315791908 70.71400095049368 L 2140.4154005168425 70.7566130836511 L 2140.1755545711153 70.79814307626422 L 2139.934801939121 70.83858677536838 L 2139.693166695922 70.87794013662739 L 2139.4506730048415 70.9161992247379 L 2139.2073451150463 70.95336021382298 L 2138.9632073591224 70.9894193878147 L 2138.718284150643 71.0243731408257 L 2138.4725999817233 71.05821797750983 L 2138.226179420577 71.0909505134116 L 2137.9790471090537 71.12256747530469 L 2137.731227760179 71.1530657015193 L 2137.4827461556815 71.18244214225817 L 2137.2336271435142 71.21069385990175 L 2136.983895635371 71.2378180293018 L 2136.7335766041947 71.26381193806398 L 2136.482695081679 71.2886729868191 L 2136.2312761557687 71.31239868948296 L 2135.979344968145 71.3349866735051 L 2135.726926711718 71.35643468010592 L 2135.4740466281028 71.37674056450265 L 2135.220730005097 71.39590229612375 L 2134.9670021741513 71.41391795881206 L 2134.7128885078378 71.43078575101629 L 2134.458414417311 71.4465039859713 L 2134.203605349768 71.46107109186667 L 2133.948486785904 71.47448561200397 L 2133.6930842373617 71.48674620494236 L 2133.437423244184 71.49785164463276 L 2133.1815293722566 71.50780082054045 L 2132.9254282107536 71.51659273775616 L 2132.6691453695776 71.52422651709544 L 2132.4127064767995 71.53070139518677 L 2132.1561371760945 71.53601672454771 L 2131.899463124179 71.54017197364975 L 2131.6427099882444 71.54316672697146 L 2131.38590344339 71.54500068504 L 2131.129069170057 71.54567366446108 L 2130.8722328514577 71.54518559793732 L 2130.615420171011 71.54353653427498 L 2130.3586568097703 71.54072663837904 L 2130.1019684438575 71.53675619123675 L 2129.845380741896 71.53162558988952 L 2129.5889193624416 71.5253353473932 L 2129.332609951419 71.5178860927668 L 2129.076478139555 71.50927857092958 L 2128.8205495398183 71.49951364262655 L 2128.564849744855 71.48859228434242 L 2128.309404324432 71.47651558820388 L 2128.0542388228773 71.4632847618705 L 2127.7993787565297 71.4489011284139 L 2127.5448496111826 71.4333661261854 L 2127.290676839539 71.41668130867232 L 2127.0368858586644 71.3988483443425 L 2126.7835020474445 71.3798690164775 L 2126.5305507440503 71.35974522299428 L 2126.2780572434003 71.33847897625544 L 2126.026046794635 71.31607240286793 L 2125.7745445985893 71.2925277434704 L 2125.5235758052722 71.26784735250918 L 2125.2731655113553 71.24203369800281 L 2125.023338757658 71.21508936129521 L 2124.7741205266484 71.18701703679761 L 2124.5255357399415 71.15781953171906 L 2124.2776092558092 71.12749976578573 L 2124.030365866693 71.09606077094897 L 2123.7838302967257 71.06350569108204 L 2123.5380271992585 71.02983778166582 L 2123.2929811543972 70.99506040946316 L 2123.048716666542 70.95917705218234 L 2122.805258161937 70.92219129812916 L 2122.5626299862315 70.88410684584822 L 2122.320856402039 70.844927503753 L 2122.079961586518 70.80465718974506 L 2121.839969628949 70.76329993082226 L 2121.6009045283267 70.720859862676 L 2121.362790190963 70.67734122927773 L 2121.125650428093 70.63274838245455 L 2120.8895089534954 70.58708578145396 L 2120.6543893811204 70.54035799249802 L 2120.42031522273 70.49256968832668 L 2120.1873098855444 70.44372564773053 L 2119.9553966699036 70.39383075507294 L 2119.7245987669357 70.34288999980159 L 2119.4949392562385 70.29090847594955 L 2119.2664411035717 70.23789138162589 L 2119.039127158561 70.18384401849586 L 2118.81302015241 70.12877179125074 L 2118.588142695632 70.07268020706736 L 2118.3645172757847 70.0155748750574 L 2118.1421662552243 69.95746150570646 L 2117.9211118688672 69.89834591030306 L 2117.7013762219676 69.83823400035747 L 2117.4829812879075 69.7771317870106 L 2117.2659489059984 69.71504538043285 L 2117.0503007792972 69.65198098921316 L 2116.836058472437 69.58794491973808 L 2116.62324340947 69.5229435755612 L 2116.4118768717253 69.45698345676277 L 2116.20197999568 69.39007115929972 L 2115.9935737708474 69.32221337434602 L 2115.786679037676 69.25341688762362 L 2115.581316485467 69.18368857872385 L 2115.3775066503044 69.11303542041951 L 2115.1752699130016 69.04146447796754 L 2114.974626497064 68.96898290840255 L 2114.775596466666 68.89559795982112 L 2114.5781997246445 68.82131697065691 L 2114.3824560105095 68.74614736894696 L 2114.1883848984694 68.6700966715888 L 2113.9960057954736 68.59317248358877 L 2113.805337939272 68.5153824973016 L 2113.616400396491 68.43673449166107 L 2113.429212060728 68.3572363314022 L 2113.24379165066 68.27689596627481 L 2113.0601577081743 68.19572143024841 L 2112.8783285965114 68.11372084070898 L 2112.698322498431 68.03090239764714 L 2112.5201574143935 67.94727438283817 L 2112.3438511607583 67.86284515901389 L 2112.169421368004 67.7776231690263 L 2111.9968854789645 67.69161693500338 L 2111.8262607470847 67.60483505749689 L 2111.657564234696 67.51728621462222 L 2111.490812811309 67.42897916119072 L 2111.3260231519266 67.33992272783415 L 2111.163211735378 67.25012582012162 L 2111.0023948426688 67.15959741766909 L 2110.843588555355 67.06834657324134 L 2110.6868087539315 66.9763824118468 L 2110.5320711162494 66.88371412982495 L 2110.3793911159423 66.79035099392678 L 2110.228784020884 66.69630234038806 L 2110.080264891658 66.60157757399578 L 2109.933848580053 66.50618616714766 L 2109.789549727579 66.41013765890487 L 2109.6473827640007 66.31344165403821 L 2109.5073619058953 66.21610782206757 L 2109.369501155233 66.11814589629505 L 2109.2338142979734 66.01956567283159 L 2109.1003149026897 65.92037700961737 L 2108.969016319209 65.82058982543607 L 2108.8399316772816 65.72021409892297 L 2108.713073885263 65.61925986756704 L 2108.5884556288274 65.5177372267073 L 2108.4660893696964 65.41565632852324 L 2108.345987344394 65.31302738101961 L 2108.2281615630227 65.20986064700564 L 2108.112623808062 65.10616644306874 L 2107.9993856331917 65.00195513854293 L 2107.8884583621343 64.89723715447177 L 2107.779853087525 64.79202296256643 L 2107.6735806698007 64.68632308415845 L 2107.569651736115 64.58014808914753 L 2107.468076679273 64.47350859494473 L 2107.368865656698 64.3664152654106 L 2107.2720285894075 64.25887880978884 L 2107.177575161029 64.15090998163541 L 2107.085514816826 64.04251957774314 L 2106.9958567627564 63.9337184370621 L 2106.908609964551 63.82451743961569 L 2106.823783146817 63.71492750541265 L 2106.7413847921644 63.60495959335508 L 2106.6614231403614 63.49462470014256 L 2106.583906187506 63.38393385917244 L 2106.5088416852286 63.272898139436585 L 2106.436237139917 63.161528644414446 L 2106.366099811966 63.04983651096271 L 2106.298436715049 62.937832908201656 L 2106.2332546154194 62.82552903639821 L 2106.170560031233 62.71293612584597 L 2106.1103592318964 62.600065435742174 L 2106.0526582374387 62.486928253061755 L 2105.9974628179116 62.37353589142872 L 2105.944778492811 62.259899689984735 L 2105.894610530526 62.146031012255236 L 2105.8469639478103 62.031941245013115 L 2105.8018435092827 61.91764179714002 L 2105.7592537269493 61.80314409848549 L 2105.719198859753 61.68845959872397 L 2105.681682913147 61.57359976620988 L 2105.6467096386955 61.45857608683074 L 2105.6142825336956 61.34340006285864 L 2105.5844048408317 61.228083211800005 L 2105.5570795478475 61.11263706524384 L 2105.53230938725 60.997073167708585 L 2105.5100968360343 60.881403075487704 L 2105.490444115437 60.765638355494026 L 2105.4733531907145 60.64979058410307 L 2105.4588257709443 60.53387134599544 L 2105.4468633088563 60.41789223299836 L 2105.437467000687 60.30186484292647 L 2105.4306377860594 60.185800778422085 L 2105.426376347889 60.069711645794946 L 2105.424683112316 59.95360905386156" stroke-miterlimit="10" stroke-width="2.990598758" stroke-dasharray=""/></g><g><g/><text fill="black" stroke="none" font-family="sans-serif" font-size="11pt" font-style="normal" font-weight="normal" text-decoration="normal" x="2098.510204781991" y="90.421633036" text-anchor="start" dominant-baseline="alphabetic" xml:space="preserve">Database</text></g></g><g><path fill="white" stroke="black" paint-order="fill stroke markers" d=" M 414.38877519707034 153.751959676 L 431.98053259707035 153.751959676 L 431.98053259707035 739.5574810960001 L 414.38877519707034 739.5574810960001 L 414.38877519707034 153.751959676" stroke-miterlimit="10" stroke-width="1.4659797833333332" stroke-dasharray=""/><path fill="white" stroke="black" paint-order="fill stroke markers" d=" M 789.4000643746745 347.261291076 L 806.9918217746745 347.261291076 L 806.9918217746745 690.300560376 L 789.4000643746745 690.300560376 L 789.4000643746745 347.261291076" stroke-miterlimit="10" stroke-width="1.4659797833333332" stroke-dasharray=""/><path fill="white" stroke="black" paint-order="fill stroke markers" d=" M 414.38877519707034 788.8144018160001 L 431.98053259707035 788.8144018160001 L 431.98053259707035 2166.9526765319993 L 414.38877519707034 2166.9526765319993 L 414.38877519707034 788.8144018160001" stroke-miterlimit="10" stroke-width="1.4659797833333332" stroke-dasharray=""/><path fill="white" stroke="black" paint-order="fill stroke markers" d=" M 176.9723499110677 893.3094407720001 L 194.56410731106772 893.3094407720001 L 194.56410731106772 942.5663614920002 L 176.9723499110677 942.5663614920002 L 176.9723499110677 893.3094407720001" stroke-miterlimit="10" stroke-width="1.4659797833333332" stroke-dasharray=""/><path fill="white" stroke="black" paint-order="fill stroke markers" d=" M 176.9723499110677 991.8232822120002 L 194.56410731106772 991.8232822120002 L 194.56410731106772 1139.594044372 L 176.9723499110677 1139.594044372 L 176.9723499110677 991.8232822120002" stroke-miterlimit="10" stroke-width="1.4659797833333332" stroke-dasharray=""/><path fill="white" stroke="black" paint-order="fill stroke markers" d=" M 789.4000643746745 1188.850965092 L 806.9918217746745 1188.850965092 L 806.9918217746745 2117.6957558119993 L 789.4000643746745 2117.6957558119993 L 789.4000643746745 1188.850965092" stroke-miterlimit="10" stroke-width="1.4659797833333332" stroke-dasharray=""/><path fill="white" stroke="black" paint-order="fill stroke markers" d=" M 1324.1361903162108 1581.1471551119996 L 1341.7279477162108 1581.1471551119996 L 1341.7279477162108 1922.4272486719995 L 1324.1361903162108 1922.4272486719995 L 1324.1361903162108 1581.1471551119996" stroke-miterlimit="10" stroke-width="1.4659797833333332" stroke-dasharray=""/><path fill="white" stroke="black" paint-order="fill stroke markers" d=" M 1868.9907947779218 1630.4040758319995 L 1886.5825521779218 1630.4040758319995 L 1886.5825521779218 2210.932070031999 L 1868.9907947779218 2210.932070031999 L 1868.9907947779218 1630.4040758319995" stroke-miterlimit="10" stroke-width="1.4659797833333332" stroke-dasharray=""/><path fill="white" stroke="black" paint-order="fill stroke markers" d=" M 1877.7866734779218 1702.5302811719996 L 1895.3784308779218 1702.5302811719996 L 1895.3784308779218 1801.0441226119997 L 1877.7866734779218 1801.0441226119997 L 1877.7866734779218 1702.5302811719996" stroke-miterlimit="10" stroke-width="1.4659797833333332" stroke-dasharray=""/><g><g><rect fill="white" stroke="none" x="87.9943882286719" y="130.882675056" width="263.03695715164065" height="22.86928462"/></g><text fill="black" stroke="none" font-family="sans-serif" font-size="11pt" font-style="normal" font-weight="normal" text-decoration="normal" x="90.63315183867189" y="146.71525671600003" text-anchor="start" dominant-baseline="alphabetic" xml:space="preserve">mousePressed(x : Integer, y : Integer)</text></g><g><path fill="none" stroke="black" paint-order="fill stroke markers" d=" M 24.636958411914062 153.751959676 L 399.904894937737 153.751959676" stroke-miterlimit="10" stroke-width="1.4659797833333332" stroke-dasharray=""/><g transform="translate(414.38877519707034,153.751959676) translate(-414.38877519707034,-153.751959676)"><path fill="black" stroke="none" paint-order="stroke fill markers" d=" M 399.728977363737 146.42206075933333 L 414.38877519707034 153.751959676 L 399.728977363737 161.0818585926667 Z"/></g></g><g><g><rect fill="white" stroke="none" x="452.7974455204037" y="180.13959577600002" width="194.94821203445312" height="22.86928462"/></g><text fill="black" stroke="none" font-family="sans-serif" font-size="11pt" font-style="normal" font-weight="normal" text-decoration="normal" x="455.4362091304037" y="195.97217743600004" text-anchor="start" dominant-baseline="alphabetic" xml:space="preserve">sn := yToScreen(y : Integer)</text></g><g><path fill="none" stroke="black" paint-order="fill stroke markers" d=" M 431.98053259707035 203.00888039600002 L 502.3475621970704 203.00888039600002 L 502.3475621970704 225.87816501600003 L 446.46441285640367 225.87816501600003" stroke-miterlimit="10" stroke-width="1.4659797833333332" stroke-dasharray=""/><g transform="translate(431.98053259707035,225.87816501600003) translate(-431.98053259707035,-225.87816501600003)"><path fill="black" stroke="none" paint-order="stroke fill markers" d=" M 446.6403304304037 218.54826609933335 L 431.98053259707035 225.87816501600003 L 446.6403304304037 233.2080639326667 Z"/></g></g><g><g><rect fill="white" stroke="none" x="452.7974455204037" y="252.26580111600003" width="197.37484777664062" height="22.86928462"/></g><text fill="black" stroke="none" font-family="sans-serif" font-size="11pt" font-style="normal" font-weight="normal" text-decoration="normal" x="455.4362091304037" y="268.09838277600005" text-anchor="start" dominant-baseline="alphabetic" xml:space="preserve">time := xToTime(x : Integer)</text></g><g><path fill="none" stroke="black" paint-order="fill stroke markers" d=" M 431.98053259707035 275.13508573600006 L 502.3475621970704 275.13508573600006 L 502.3475621970704 298.00437035600004 L 446.46441285640367 298.00437035600004" stroke-miterlimit="10" stroke-width="1.4659797833333332" stroke-dasharray=""/><g transform="translate(431.98053259707035,298.00437035600004) translate(-431.98053259707035,-298.00437035600004)"><path fill="black" stroke="none" paint-order="stroke fill markers" d=" M 446.6403304304037 290.6744714393334 L 431.98053259707035 298.00437035600004 L 446.6403304304037 305.3342692726667 Z"/></g></g><g><g><rect fill="white" stroke="none" x="452.79744552040364" y="324.39200645600005" width="315.7857059309375" height="22.86928462"/></g><text fill="black" stroke="none" font-family="sans-serif" font-size="11pt" font-style="normal" font-weight="normal" text-decoration="normal" x="455.43620913040365" y="340.22458811600006" text-anchor="start" dominant-baseline="alphabetic" xml:space="preserve">selectScreening(sn : String, time : LocalTime)</text></g><g><path fill="none" stroke="black" paint-order="fill stroke markers" d=" M 431.98053259707035 347.261291076 L 774.9161841153411 347.261291076" stroke-miterlimit="10" stroke-width="1.4659797833333332" stroke-dasharray=""/><g transform="translate(789.4000643746745,347.261291076) translate(-789.4000643746745,-347.261291076)"><path fill="black" stroke="none" paint-order="stroke fill markers" d=" M 774.7402665413412 339.93139215933337 L 789.4000643746745 347.261291076 L 774.7402665413412 354.59118999266667 Z"/></g></g><g><g><rect fill="white" stroke="none" x="1071.313978950626" y="421.146672156" width="127.17445409988281" height="22.86928462"/></g><text fill="black" stroke="none" font-family="sans-serif" font-size="11pt" font-style="normal" font-weight="normal" text-decoration="normal" x="1073.9527425606261" y="436.97925381600004" text-anchor="start" dominant-baseline="alphabetic" xml:space="preserve">getScreenName()</text></g><g><path fill="none" stroke="black" paint-order="fill stroke markers" d=" M 806.9918217746745 444.015956776 L 1448.3267099671275 444.015956776" stroke-miterlimit="10" stroke-width="1.4659797833333332" stroke-dasharray=""/><g transform="translate(1462.8105902264608,444.015956776) translate(-1462.8105902264608,-444.015956776)"><path fill="black" stroke="none" paint-order="stroke fill markers" d=" M 1448.1507923931274 436.68605785933335 L 1462.8105902264608 444.015956776 L 1448.1507923931274 451.34585569266665 Z"/></g></g><g><g><rect fill="white" stroke="none" x="1098.6081760331456" y="470.403592876" width="72.58605993484375" height="22.86928462"/></g><text fill="black" stroke="none" font-family="sans-serif" font-size="11pt" font-style="normal" font-weight="normal" text-decoration="normal" x="1101.2469396431457" y="486.236174536" text-anchor="start" dominant-baseline="alphabetic" xml:space="preserve">getTime()</text></g><g><path fill="none" stroke="black" paint-order="fill stroke markers" d=" M 806.9918217746745 493.272877496 L 1448.3267099671275 493.272877496" stroke-miterlimit="10" stroke-width="1.4659797833333332" stroke-dasharray=""/><g transform="translate(1462.8105902264608,493.272877496) translate(-1462.8105902264608,-493.272877496)"><path fill="black" stroke="none" paint-order="stroke fill markers" d=" M 1448.1507923931274 485.9429785793333 L 1462.8105902264608 493.272877496 L 1448.1507923931274 500.6027764126666 Z"/></g></g><g><g><rect fill="white" stroke="none" x="827.8087346980078" y="546.048149696" width="126.94535864089843" height="22.86928462"/></g><text fill="black" stroke="none" font-family="sans-serif" font-size="11pt" font-style="normal" font-weight="normal" text-decoration="normal" x="830.4474983080078" y="561.880731356" text-anchor="start" dominant-baseline="alphabetic" xml:space="preserve">notifyObservers()</text></g><g><path fill="none" stroke="black" paint-order="fill stroke markers" d=" M 806.9918217746745 568.9174343159999 L 877.3588513746745 568.9174343159999 L 877.3588513746745 591.7867189359999 L 821.4757020340078 591.7867189359999" stroke-miterlimit="10" stroke-width="1.4659797833333332" stroke-dasharray=""/><g transform="translate(806.9918217746745,591.7867189359999) translate(-806.9918217746745,-591.7867189359999)"><path fill="black" stroke="none" paint-order="stroke fill markers" d=" M 821.6516196080078 584.4568200193332 L 806.9918217746745 591.7867189359999 L 821.6516196080078 599.1166178526666 Z"/></g></g><g><g><rect fill="white" stroke="none" x="578.3879759159115" y="618.174355036" width="64.60464513992187" height="22.86928462"/></g><text fill="black" stroke="none" font-family="sans-serif" font-size="11pt" font-style="normal" font-weight="normal" text-decoration="normal" x="581.0267395259115" y="634.0069366959999" text-anchor="start" dominant-baseline="alphabetic" xml:space="preserve">update()</text></g><g><path fill="none" stroke="black" paint-order="fill stroke markers" d=" M 789.4000643746745 641.043639656 L 446.46441285640367 641.043639656" stroke-miterlimit="10" stroke-width="1.4659797833333332" stroke-dasharray=""/><g transform="translate(431.98053259707035,641.043639656) translate(-431.98053259707035,-641.043639656)"><path fill="black" stroke="none" paint-order="stroke fill markers" d=" M 446.6403304304037 633.7137407393333 L 431.98053259707035 641.043639656 L 446.6403304304037 648.3735385726667 Z"/></g></g><g><g><rect fill="white" stroke="none" x="608.0515348758724" y="667.431275756" width="5.27752722" height="22.86928462"/></g><text fill="black" stroke="none" font-family="sans-serif" font-size="11pt" font-style="normal" font-weight="normal" text-decoration="normal" x="610.6902984858724" y="683.263857416" text-anchor="start" dominant-baseline="alphabetic" xml:space="preserve"></text></g><g><path fill="none" stroke="black" paint-order="fill stroke markers" d=" M 789.4000643746745 690.300560376 L 446.46441285640367 690.300560376" stroke-miterlimit="10" stroke-width="1.4659797833333332" stroke-dasharray="7.0367029599999995"/><g transform="translate(431.98053259707035,690.300560376) translate(-431.98053259707035,-690.300560376)"><path fill="black" stroke="none" paint-order="stroke fill markers" d=" M 446.6403304304037 682.9706614593333 L 431.98053259707035 690.300560376 L 446.6403304304037 697.6304592926667 Z"/></g></g><g><g><rect fill="white" stroke="none" x="216.8741031944922" y="716.688196476" width="5.27752722" height="22.86928462"/></g><text fill="black" stroke="none" font-family="sans-serif" font-size="11pt" font-style="normal" font-weight="normal" text-decoration="normal" x="219.5128668044922" y="732.520778136" text-anchor="start" dominant-baseline="alphabetic" xml:space="preserve"></text></g><g><path fill="none" stroke="black" paint-order="fill stroke markers" d=" M 414.38877519707034 739.5574810960001 L 39.1208386712474 739.5574810960001" stroke-miterlimit="10" stroke-width="1.4659797833333332" stroke-dasharray="7.0367029599999995"/><g transform="translate(24.636958411914062,739.5574810960001) translate(-24.636958411914062,-739.5574810960001)"><path fill="black" stroke="none" paint-order="stroke fill markers" d=" M 39.296756245247394 732.2275821793334 L 24.636958411914062 739.5574810960001 L 39.296756245247394 746.8873800126668 Z"/></g></g><g><g><rect fill="white" stroke="none" x="176.58063090445313" y="765.9451171960001" width="85.86447180007812" height="22.86928462"/></g><text fill="black" stroke="none" font-family="sans-serif" font-size="11pt" font-style="normal" font-weight="normal" text-decoration="normal" x="179.21939451445314" y="781.777698856" text-anchor="start" dominant-baseline="alphabetic" xml:space="preserve">sellTickets()</text></g><g><path fill="none" stroke="black" paint-order="fill stroke markers" d=" M 24.636958411914062 788.8144018160001 L 399.904894937737 788.8144018160001" stroke-miterlimit="10" stroke-width="1.4659797833333332" stroke-dasharray=""/><g transform="translate(414.38877519707034,788.8144018160001) translate(-414.38877519707034,-788.8144018160001)"><path fill="black" stroke="none" paint-order="stroke fill markers" d=" M 399.728977363737 781.4845028993334 L 414.38877519707034 788.8144018160001 L 399.728977363737 796.1443007326668 Z"/></g></g><g><path fill="white" stroke="black" paint-order="fill stroke markers" d=" M 220.68786705006772 841.3257976550001 A 26.123759739 26.123759739 0 1 1 220.68785398818892 841.2996738996151 M 152.3438895510677 813.7067385370001 L 152.3438895510677 868.9448567730001 M 150.8485901720677 841.3257976550001 L 168.4403475720677 841.3257976550001" stroke-miterlimit="10" stroke-width="2.990598758" stroke-dasharray=""/></g><g><g/><text fill="black" stroke="none" font-family="sans-serif" font-size="11pt" font-style="normal" font-weight="normal" text-decoration="normal" x="142.33230026634115" y="886.5366141730001" text-anchor="start" dominant-baseline="alphabetic" xml:space="preserve">TicketDialog</text></g><g><g><rect fill="white" stroke="none" x="270.82556440490885" y="831.3864547240001" width="101.94180334304687" height="22.86928462"/></g><text fill="black" stroke="none" font-family="sans-serif" font-size="11pt" font-style="normal" font-weight="normal" text-decoration="normal" x="273.46432801490886" y="847.2190363840001" text-anchor="start" dominant-baseline="alphabetic" xml:space="preserve">TicketDialog()</text></g><g><path fill="none" stroke="black" paint-order="fill stroke markers" d=" M 414.38877519707034 854.2557393440002 L 243.68803721512762 854.2557393440002" stroke-miterlimit="10" stroke-width="1.4659797833333332" stroke-dasharray=""/><g transform="translate(229.20415695579428,854.2557393440002) translate(-229.20415695579428,-854.2557393440002)"><path fill="black" stroke="none" paint-order="stroke fill markers" d=" M 243.8639547891276 846.9258404273335 L 229.20415695579428 854.2557393440002 L 243.8639547891276 861.5856382606669 Z"/></g></g><g><g><rect fill="white" stroke="none" x="301.837677644069" y="919.6970768720001" width="5.27752722" height="22.86928462"/></g><text fill="black" stroke="none" font-family="sans-serif" font-size="11pt" font-style="normal" font-weight="normal" text-decoration="normal" x="304.476441254069" y="935.5296585320001" text-anchor="start" dominant-baseline="alphabetic" xml:space="preserve"></text></g><g><path fill="none" stroke="black" paint-order="fill stroke markers" d=" M 194.56410731106772 942.5663614920002 L 399.904894937737 942.5663614920002" stroke-miterlimit="10" stroke-width="1.4659797833333332" stroke-dasharray="7.0367029599999995"/><g transform="translate(414.38877519707034,942.5663614920002) translate(-414.38877519707034,-942.5663614920002)"><path fill="black" stroke="none" paint-order="stroke fill markers" d=" M 399.728977363737 935.2364625753335 L 414.38877519707034 942.5663614920002 L 399.728977363737 949.8962604086669 Z"/></g></g><g><g><rect fill="white" stroke="none" x="248.3265692456315" y="968.9539975920002" width="112.299744016875" height="22.86928462"/></g><text fill="black" stroke="none" font-family="sans-serif" font-size="11pt" font-style="normal" font-weight="normal" text-decoration="normal" x="250.96533285563152" y="984.7865792520001" text-anchor="start" dominant-baseline="alphabetic" xml:space="preserve">showAndWait()</text></g><g><path fill="none" stroke="black" paint-order="fill stroke markers" d=" M 414.38877519707034 991.8232822120002 L 209.04798757040106 991.8232822120002" stroke-miterlimit="10" stroke-width="1.4659797833333332" stroke-dasharray=""/><g transform="translate(194.56410731106772,991.8232822120002) translate(-194.56410731106772,-991.8232822120002)"><path fill="black" stroke="none" paint-order="stroke fill markers" d=" M 209.22390514440104 984.4933832953335 L 194.56410731106772 991.8232822120002 L 209.22390514440104 999.1531811286669 Z"/></g></g><g><g><rect fill="white" stroke="none" x="98.16589055149089" y="1018.2109183120002" width="5.27752722" height="22.86928462"/></g><text fill="black" stroke="none" font-family="sans-serif" font-size="11pt" font-style="normal" font-weight="normal" text-decoration="normal" x="100.80465416149089" y="1034.043499972" text-anchor="start" dominant-baseline="alphabetic" xml:space="preserve"></text></g><g><path fill="none" stroke="black" paint-order="fill stroke markers" d=" M 176.9723499110677 1041.0802029320002 L 39.1208386712474 1041.0802029320002" stroke-miterlimit="10" stroke-width="1.4659797833333332" stroke-dasharray=""/><g transform="translate(24.636958411914062,1041.0802029320002) translate(-24.636958411914062,-1041.0802029320002)"><path fill="black" stroke="none" paint-order="stroke fill markers" d=" M 39.296756245247394 1033.7503040153335 L 24.636958411914062 1041.0802029320002 L 39.296756245247394 1048.410101848667 Z"/></g></g><g><g><rect fill="white" stroke="none" x="98.16589055149089" y="1067.4678390320003" width="5.27752722" height="22.86928462"/></g><text fill="black" stroke="none" font-family="sans-serif" font-size="11pt" font-style="normal" font-weight="normal" text-decoration="normal" x="100.80465416149089" y="1083.3004206920002" text-anchor="start" dominant-baseline="alphabetic" xml:space="preserve"></text></g><g><path fill="none" stroke="black" paint-order="fill stroke markers" d=" M 24.636958411914062 1090.3371236520002 L 162.48846965173436 1090.3371236520002" stroke-miterlimit="10" stroke-width="1.4659797833333332" stroke-dasharray="7.0367029599999995"/><g transform="translate(176.9723499110677,1090.3371236520002) translate(-176.9723499110677,-1090.3371236520002)"><path fill="black" stroke="none" paint-order="stroke fill markers" d=" M 162.31255207773438 1083.0072247353335 L 176.9723499110677 1090.3371236520002 L 162.31255207773438 1097.6670225686669 Z"/></g></g><g><g><rect fill="white" stroke="none" x="215.38102023440103" y="1116.7247597520002" width="178.19084203933593" height="22.86928462"/></g><text fill="black" stroke="none" font-family="sans-serif" font-size="11pt" font-style="normal" font-weight="normal" text-decoration="normal" x="218.01978384440105" y="1132.5573414120001" text-anchor="start" dominant-baseline="alphabetic" xml:space="preserve">return tn : TicketNumber</text></g><g><path fill="none" stroke="black" paint-order="fill stroke markers" d=" M 194.56410731106772 1139.594044372 L 399.904894937737 1139.594044372" stroke-miterlimit="10" stroke-width="1.4659797833333332" stroke-dasharray="7.0367029599999995"/><g transform="translate(414.38877519707034,1139.594044372) translate(-414.38877519707034,-1139.594044372)"><path fill="black" stroke="none" paint-order="stroke fill markers" d=" M 399.728977363737 1132.2641454553334 L 414.38877519707034 1139.594044372 L 399.728977363737 1146.9239432886668 Z"/></g></g><g><g><rect fill="white" stroke="none" x="492.5003874149349" y="1165.981680472" width="236.379822141875" height="22.86928462"/></g><text fill="black" stroke="none" font-family="sans-serif" font-size="11pt" font-style="normal" font-weight="normal" text-decoration="normal" x="495.1391510249349" y="1181.814262132" text-anchor="start" dominant-baseline="alphabetic" xml:space="preserve">sellTickets(tn : int, sg : Screening)</text></g><g><path fill="none" stroke="black" paint-order="fill stroke markers" d=" M 431.98053259707035 1188.850965092 L 774.9161841153411 1188.850965092" stroke-miterlimit="10" stroke-width="1.4659797833333332" stroke-dasharray=""/><g transform="translate(789.4000643746745,1188.850965092) translate(-789.4000643746745,-1188.850965092)"><path fill="black" stroke="none" paint-order="stroke fill markers" d=" M 774.7402665413412 1181.5210661753333 L 789.4000643746745 1188.850965092 L 774.7402665413412 1196.1808640086667 Z"/></g></g><g><g><rect fill="white" stroke="none" x="1102.5776501616126" y="1215.238601192" width="219.50083959792968" height="22.86928462"/></g><text fill="black" stroke="none" font-family="sans-serif" font-size="11pt" font-style="normal" font-weight="normal" text-decoration="normal" x="1105.2164137716127" y="1231.071182852" text-anchor="start" dominant-baseline="alphabetic" xml:space="preserve">nts := getNumberTicketsSold()</text></g><g><path fill="none" stroke="black" paint-order="fill stroke markers" d=" M 806.9918217746745 1238.107885812 L 1603.180437887147 1238.107885812" stroke-miterlimit="10" stroke-width="1.4659797833333332" stroke-dasharray=""/><g transform="translate(1617.6643181464804,1238.107885812) translate(-1617.6643181464804,-1238.107885812)"><path fill="black" stroke="none" paint-order="stroke fill markers" d=" M 1603.004520313147 1230.7779868953332 L 1617.6643181464804 1238.107885812 L 1603.004520313147 1245.4377847286667 Z"/></g></g><g><g><rect fill="white" stroke="none" x="1151.1710568388587" y="1264.495521912" width="122.3140262434375" height="22.86928462"/></g><text fill="black" stroke="none" font-family="sans-serif" font-size="11pt" font-style="normal" font-weight="normal" text-decoration="normal" x="1153.8098204488588" y="1280.328103572" text-anchor="start" dominant-baseline="alphabetic" xml:space="preserve">sc := getScreen()</text></g><g><path fill="none" stroke="black" paint-order="fill stroke markers" d=" M 806.9918217746745 1287.3648065319999 L 1603.180437887147 1287.3648065319999" stroke-miterlimit="10" stroke-width="1.4659797833333332" stroke-dasharray=""/><g transform="translate(1617.6643181464804,1287.3648065319999) translate(-1617.6643181464804,-1287.3648065319999)"><path fill="black" stroke="none" paint-order="stroke fill markers" d=" M 1603.004520313147 1280.0349076153332 L 1617.6643181464804 1287.3648065319999 L 1603.004520313147 1294.6947054486666 Z"/></g></g><g><g><rect fill="white" stroke="none" x="1205.8527540203038" y="1313.7524426319999" width="137.6611942121875" height="22.86928462"/></g><text fill="black" stroke="none" font-family="sans-serif" font-size="11pt" font-style="normal" font-weight="normal" text-decoration="normal" x="1208.4915176303039" y="1329.5850242919998" text-anchor="start" dominant-baseline="alphabetic" xml:space="preserve">cp := getCapacity()</text></g><g><path fill="none" stroke="black" paint-order="fill stroke markers" d=" M 806.9918217746745 1336.6217272519998 L 1727.8910002187877 1336.6217272519998" stroke-miterlimit="10" stroke-width="1.4659797833333332" stroke-dasharray=""/><g transform="translate(1742.374880478121,1336.6217272519998) translate(-1742.374880478121,-1336.6217272519998)"><path fill="black" stroke="none" paint-order="stroke fill markers" d=" M 1727.7150826447876 1329.291828335333 L 1742.374880478121 1336.6217272519998 L 1727.7150826447876 1343.9516261686665 Z"/></g></g><g><g><rect fill="white" stroke="none" x="827.8087346980078" y="1410.5071083319997" width="472.57858312820315" height="22.86928462"/></g><text fill="black" stroke="none" font-family="sans-serif" font-size="11pt" font-style="normal" font-weight="normal" text-decoration="normal" x="830.4474983080078" y="1426.3396899919996" text-anchor="start" dominant-baseline="alphabetic" xml:space="preserve">checkTicketOverSold(tn : int, cp : int, nts : int)                                   </text></g><g><path fill="none" stroke="black" paint-order="fill stroke markers" d=" M 806.9918217746745 1433.3763929519998 L 877.3588513746745 1433.3763929519998 L 877.3588513746745 1456.2456775719997 L 821.4757020340078 1456.2456775719997" stroke-miterlimit="10" stroke-width="1.4659797833333332" stroke-dasharray=""/><g transform="translate(806.9918217746745,1456.2456775719997) translate(-806.9918217746745,-1456.2456775719997)"><path fill="black" stroke="none" paint-order="stroke fill markers" d=" M 821.6516196080078 1448.915778655333 L 806.9918217746745 1456.2456775719997 L 821.6516196080078 1463.5755764886665 Z"/></g></g><g><g><rect fill="white" stroke="none" x="1103.504644485343" y="1509.0209497719998" width="217.64685095046875" height="22.86928462"/></g><text fill="black" stroke="none" font-family="sans-serif" font-size="11pt" font-style="normal" font-weight="normal" text-decoration="normal" x="1106.1434080953431" y="1524.8535314319997" text-anchor="start" dominant-baseline="alphabetic" xml:space="preserve">setNumberTicketsSold(tn : int)</text></g><g><path fill="none" stroke="black" paint-order="fill stroke markers" d=" M 806.9918217746745 1531.8902343919997 L 1603.180437887147 1531.8902343919997" stroke-miterlimit="10" stroke-width="1.4659797833333332" stroke-dasharray=""/><g transform="translate(1617.6643181464804,1531.8902343919997) translate(-1617.6643181464804,-1531.8902343919997)"><path fill="black" stroke="none" paint-order="stroke fill markers" d=" M 1603.004520313147 1524.560335475333 L 1617.6643181464804 1531.8902343919997 L 1603.004520313147 1539.2201333086664 Z"/></g></g><g><g><rect fill="white" stroke="none" x="929.120677005755" y="1558.2778704919997" width="272.886658079375" height="22.86928462"/></g><text fill="black" stroke="none" font-family="sans-serif" font-size="11pt" font-style="normal" font-weight="normal" text-decoration="normal" x="931.759440615755" y="1574.1104521519997" text-anchor="start" dominant-baseline="alphabetic" xml:space="preserve">updateScreening(selected : Screening)</text></g><g><path fill="none" stroke="black" paint-order="fill stroke markers" d=" M 806.9918217746745 1581.1471551119996 L 1309.6523100568775 1581.1471551119996" stroke-miterlimit="10" stroke-width="1.4659797833333332" stroke-dasharray=""/><g transform="translate(1324.1361903162108,1581.1471551119996) translate(-1324.1361903162108,-1581.1471551119996)"><path fill="black" stroke="none" paint-order="stroke fill markers" d=" M 1309.4763924828774 1573.817256195333 L 1324.1361903162108 1581.1471551119996 L 1309.4763924828774 1588.4770540286663 Z"/></g></g><g><g><rect fill="white" stroke="none" x="1489.6891287552303" y="1607.5347912119996" width="231.34048498367187" height="22.86928462"/></g><text fill="black" stroke="none" font-family="sans-serif" font-size="11pt" font-style="normal" font-weight="normal" text-decoration="normal" x="1492.3278923652304" y="1623.3673728719996" text-anchor="start" dominant-baseline="alphabetic" xml:space="preserve">updateScreening(sg : Screening)</text></g><g><path fill="none" stroke="black" paint-order="fill stroke markers" d=" M 1341.7279477162108 1630.4040758319995 L 1854.5069145185885 1630.4040758319995" stroke-miterlimit="10" stroke-width="1.4659797833333332" stroke-dasharray=""/><g transform="translate(1868.9907947779218,1630.4040758319995) translate(-1868.9907947779218,-1630.4040758319995)"><path fill="black" stroke="none" paint-order="stroke fill markers" d=" M 1854.3309969445884 1623.0741769153328 L 1868.9907947779218 1630.4040758319995 L 1854.3309969445884 1637.7339747486662 Z"/></g></g><g><g><rect fill="white" stroke="none" x="1916.1953438012551" y="1656.7917119319995" width="197.3963016340625" height="22.86928462"/></g><text fill="black" stroke="none" font-family="sans-serif" font-size="11pt" font-style="normal" font-weight="normal" text-decoration="normal" x="1918.8341074112552" y="1672.6242935919995" text-anchor="start" dominant-baseline="alphabetic" xml:space="preserve">performUpdate(sql : String)</text></g><g><path fill="none" stroke="black" paint-order="fill stroke markers" d=" M 1886.5825521779218 1679.6609965519997 L 1965.7454604779218 1679.6609965519997 L 1965.7454604779218 1702.5302811719996 L 1909.8623111372551 1702.5302811719996" stroke-miterlimit="10" stroke-width="1.4659797833333332" stroke-dasharray=""/><g transform="translate(1895.3784308779218,1702.5302811719996) translate(-1895.3784308779218,-1702.5302811719996)"><path fill="black" stroke="none" paint-order="stroke fill markers" d=" M 1910.0382287112552 1695.200382255333 L 1895.3784308779218 1702.5302811719996 L 1910.0382287112552 1709.8601800886663 Z"/></g></g><g><g><rect fill="white" stroke="none" x="1916.1953438012551" y="1728.9179172719996" width="194.09635961746093" height="22.86928462"/></g><text fill="black" stroke="none" font-family="sans-serif" font-size="11pt" font-style="normal" font-weight="normal" text-decoration="normal" x="1918.8341074112552" y="1744.7504989319996" text-anchor="start" dominant-baseline="alphabetic" xml:space="preserve">executeUpdate(sql : String)</text></g><g><path fill="none" stroke="black" paint-order="fill stroke markers" d=" M 1895.3784308779218 1751.7872018919995 L 2116.624736082716 1751.7872018919995" stroke-miterlimit="10" stroke-width="1.4659797833333332" stroke-dasharray=""/><g transform="translate(2131.1086163420496,1751.7872018919995) translate(-2131.1086163420496,-1751.7872018919995)"><path fill="black" stroke="none" paint-order="stroke fill markers" d=" M 2116.448818508716 1744.4573029753328 L 2131.1086163420496 1751.7872018919995 L 2116.448818508716 1759.1171008086662 Z"/></g></g><g><g><rect fill="white" stroke="none" x="1916.1953438012551" y="1778.1748379919995" width="5.27752722" height="22.86928462"/></g><text fill="black" stroke="none" font-family="sans-serif" font-size="11pt" font-style="normal" font-weight="normal" text-decoration="normal" x="1918.8341074112552" y="1794.0074196519995" text-anchor="start" dominant-baseline="alphabetic" xml:space="preserve"></text></g><g><path fill="none" stroke="black" paint-order="fill stroke markers" d=" M 1895.3784308779218 1801.0441226119997 L 1965.7454604779218 1801.0441226119997 L 1965.7454604779218 1823.9134072319996 L 1901.0664324372551 1823.9134072319996" stroke-miterlimit="10" stroke-width="1.4659797833333332" stroke-dasharray="7.0367029599999995"/><g transform="translate(1886.5825521779218,1823.9134072319996) translate(-1886.5825521779218,-1823.9134072319996)"><path fill="black" stroke="none" paint-order="stroke fill markers" d=" M 1901.2423500112552 1816.583508315333 L 1886.5825521779218 1823.9134072319996 L 1901.2423500112552 1831.2433061486663 Z"/></g></g><g><g><rect fill="white" stroke="none" x="1602.7206076370662" y="1850.3010433319996" width="5.27752722" height="22.86928462"/></g><text fill="black" stroke="none" font-family="sans-serif" font-size="11pt" font-style="normal" font-weight="normal" text-decoration="normal" x="1605.3593712470663" y="1866.1336249919996" text-anchor="start" dominant-baseline="alphabetic" xml:space="preserve"></text></g><g><path fill="none" stroke="black" paint-order="fill stroke markers" d=" M 1868.9907947779218 1873.1703279519995 L 1356.211827975544 1873.1703279519995" stroke-miterlimit="10" stroke-width="1.4659797833333332" stroke-dasharray="7.0367029599999995"/><g transform="translate(1341.7279477162108,1873.1703279519995) translate(-1341.7279477162108,-1873.1703279519995)"><path fill="black" stroke="none" paint-order="stroke fill markers" d=" M 1356.3877455495442 1865.8404290353328 L 1341.7279477162108 1873.1703279519995 L 1356.3877455495442 1880.5002268686662 Z"/></g></g><g><g><rect fill="white" stroke="none" x="1062.9252424354424" y="1899.5579640519995" width="5.27752722" height="22.86928462"/></g><text fill="black" stroke="none" font-family="sans-serif" font-size="11pt" font-style="normal" font-weight="normal" text-decoration="normal" x="1065.5640060454425" y="1915.3905457119995" text-anchor="start" dominant-baseline="alphabetic" xml:space="preserve"></text></g><g><path fill="none" stroke="black" paint-order="fill stroke markers" d=" M 1324.1361903162108 1922.4272486719995 L 821.4757020340078 1922.4272486719995" stroke-miterlimit="10" stroke-width="1.4659797833333332" stroke-dasharray="7.0367029599999995"/><g transform="translate(806.9918217746745,1922.4272486719995) translate(-806.9918217746745,-1922.4272486719995)"><path fill="black" stroke="none" paint-order="stroke fill markers" d=" M 821.6516196080078 1915.0973497553327 L 806.9918217746745 1922.4272486719995 L 821.6516196080078 1929.7571475886662 Z"/></g></g><g><g><rect fill="white" stroke="none" x="827.8087346980078" y="1996.3126297519996" width="213.70256078933593" height="22.86928462"/></g><text fill="black" stroke="none" font-family="sans-serif" font-size="11pt" font-style="normal" font-weight="normal" text-decoration="normal" x="830.4474983080078" y="2012.1452114119995" text-anchor="start" dominant-baseline="alphabetic" xml:space="preserve">notifyObservers()                    </text></g><g><path fill="none" stroke="black" paint-order="fill stroke markers" d=" M 806.9918217746745 2019.1819143719997 L 877.3588513746745 2019.1819143719997 L 877.3588513746745 2042.0511989919996 L 821.4757020340078 2042.0511989919996" stroke-miterlimit="10" stroke-width="1.4659797833333332" stroke-dasharray=""/><g transform="translate(806.9918217746745,2042.0511989919996) translate(-806.9918217746745,-2042.0511989919996)"><path fill="black" stroke="none" paint-order="stroke fill markers" d=" M 821.6516196080078 2034.721300075333 L 806.9918217746745 2042.0511989919996 L 821.6516196080078 2049.381097908666 Z"/></g></g><g><g><rect fill="white" stroke="none" x="608.0515348758724" y="2094.826471191999" width="5.27752722" height="22.86928462"/></g><text fill="black" stroke="none" font-family="sans-serif" font-size="11pt" font-style="normal" font-weight="normal" text-decoration="normal" x="610.6902984858724" y="2110.659052851999" text-anchor="start" dominant-baseline="alphabetic" xml:space="preserve"></text></g><g><path fill="none" stroke="black" paint-order="fill stroke markers" d=" M 789.4000643746745 2117.6957558119993 L 446.46441285640367 2117.6957558119993" stroke-miterlimit="10" stroke-width="1.4659797833333332" stroke-dasharray="7.0367029599999995"/><g transform="translate(431.98053259707035,2117.6957558119993) translate(-431.98053259707035,-2117.6957558119993)"><path fill="black" stroke="none" paint-order="stroke fill markers" d=" M 446.6403304304037 2110.365856895333 L 431.98053259707035 2117.6957558119993 L 446.6403304304037 2125.025654728666 Z"/></g></g><g><g><rect fill="white" stroke="none" x="216.8741031944922" y="2144.083391911999" width="5.27752722" height="22.86928462"/></g><text fill="black" stroke="none" font-family="sans-serif" font-size="11pt" font-style="normal" font-weight="normal" text-decoration="normal" x="219.5128668044922" y="2159.915973571999" text-anchor="start" dominant-baseline="alphabetic" xml:space="preserve"></text></g><g><path fill="none" stroke="black" paint-order="fill stroke markers" d=" M 414.38877519707034 2166.9526765319993 L 39.1208386712474 2166.9526765319993" stroke-miterlimit="10" stroke-width="1.4659797833333332" stroke-dasharray="7.0367029599999995"/><g transform="translate(24.636958411914062,2166.9526765319993) translate(-24.636958411914062,-2166.9526765319993)"><path fill="black" stroke="none" paint-order="stroke fill markers" d=" M 39.296756245247394 2159.622777615333 L 24.636958411914062 2166.9526765319993 L 39.296756245247394 2174.2825754486657 Z"/></g></g><g><g/><path fill="none" stroke="black" paint-order="fill stroke markers" d=" M 736.6247921746744 373.64892717600003 L 1524.3817411264608 373.64892717600003 L 1524.3817411264608 519.660513596 L 736.6247921746744 519.660513596 L 736.6247921746744 373.64892717600003 Z" stroke-miterlimit="10" stroke-width="2.5131082" stroke-dasharray=""/><path fill="white" stroke="black" paint-order="fill stroke markers" d=" M 736.6247921746744 373.64892717600003 L 736.6247921746744 394.759036056 L 798.5100739424479 394.759036056 L 809.0651283824479 384.203981616 L 809.0651283824479 373.64892717600003 L 736.6247921746744 373.64892717600003" stroke-miterlimit="10" stroke-width="2.5131082" stroke-dasharray=""/><text fill="black" stroke="none" font-family="sans-serif" font-size="8.8pt" font-style="normal" font-weight="bold" text-decoration="normal" x="754.2165495746744" y="387.722333096" text-anchor="start" dominant-baseline="alphabetic" xml:space="preserve">loop</text><text fill="black" stroke="none" font-family="sans-serif" font-size="8.8pt" font-style="normal" font-weight="bold" text-decoration="normal" x="826.656885782448" y="387.722333096" text-anchor="start" dominant-baseline="alphabetic" xml:space="preserve">[for each current Screening]</text></g><g><g/><path fill="none" stroke="black" paint-order="fill stroke markers" d=" M 736.6247921746744 1363.0093633519996 L 1306.544432916211 1363.0093633519996 L 1306.544432916211 1482.6333136719998 L 736.6247921746744 1482.6333136719998 L 736.6247921746744 1363.0093633519996 Z" stroke-miterlimit="10" stroke-width="2.5131082" stroke-dasharray=""/><path fill="white" stroke="black" paint-order="fill stroke markers" d=" M 736.6247921746744 1363.0093633519996 L 736.6247921746744 1384.1194722319997 L 845.3498261397135 1384.1194722319997 L 855.9048805797136 1373.5644177919996 L 855.9048805797136 1363.0093633519996 L 736.6247921746744 1363.0093633519996" stroke-miterlimit="10" stroke-width="2.5131082" stroke-dasharray=""/><text fill="black" stroke="none" font-family="sans-serif" font-size="8.8pt" font-style="normal" font-weight="bold" text-decoration="normal" x="754.2165495746744" y="1377.0827692719997" text-anchor="start" dominant-baseline="alphabetic" xml:space="preserve">expandable-</text><text fill="black" stroke="none" font-family="sans-serif" font-size="8.8pt" font-style="normal" font-weight="bold" text-decoration="normal" x="873.4966379797136" y="1377.0827692719997" text-anchor="start" dominant-baseline="alphabetic" xml:space="preserve">[see diagram 06 ACE (sold ticket number exceeds the capacity number)]</text></g><g><g/><path fill="none" stroke="black" paint-order="fill stroke markers" d=" M 736.6247921746744 1948.8148847719995 L 1047.6684105773438 1948.8148847719995 L 1047.6684105773438 2068.4388350919994 L 736.6247921746744 2068.4388350919994 L 736.6247921746744 1948.8148847719995 Z" stroke-miterlimit="10" stroke-width="2.5131082" stroke-dasharray=""/><path fill="white" stroke="black" paint-order="fill stroke markers" d=" M 736.6247921746744 1948.8148847719995 L 736.6247921746744 1969.9249936519996 L 845.3498261397135 1969.9249936519996 L 855.9048805797136 1959.3699392119995 L 855.9048805797136 1948.8148847719995 L 736.6247921746744 1948.8148847719995" stroke-miterlimit="10" stroke-width="2.5131082" stroke-dasharray=""/><text fill="black" stroke="none" font-family="sans-serif" font-size="8.8pt" font-style="normal" font-weight="bold" text-decoration="normal" x="754.2165495746744" y="1962.8882906919996" text-anchor="start" dominant-baseline="alphabetic" xml:space="preserve">expandable-</text><text fill="black" stroke="none" font-family="sans-serif" font-size="8.8pt" font-style="normal" font-weight="bold" text-decoration="normal" x="873.4966379797136" y="1962.8882906919996" text-anchor="start" dominant-baseline="alphabetic" xml:space="preserve">[see 01 - Display Date BCE]</text></g></g><g/><g/><g/><g/><g/><g/><g/><g/></g></svg>